<?xml version="1.0" encoding="UTF-8" standalone="no"?>
<!DOCTYPE svg PUBLIC "-//W3C//DTD SVG 1.1//EN"
 "http://www.w3.org/Graphics/SVG/1.1/DTD/svg11.dtd">
<!-- Generated by graphviz version 2.40.1 (0)
 -->
<!-- Title: ViennaRNA/2Dfold.h Pages: 1 -->
<svg width="1198pt" height="397pt"
 viewBox="0.00 0.00 1198.45 397.00" xmlns="http://www.w3.org/2000/svg" xmlns:xlink="http://www.w3.org/1999/xlink">
<g id="graph0" class="graph" transform="scale(1 1) rotate(0) translate(4 393)">
<title>ViennaRNA/2Dfold.h</title>
<!-- Node0 -->
<g id="node1" class="node">
<title>Node0</title>
<g id="a_node1"><a xlink:title="MFE structures for base pair distance classes.">
<polygon fill="#bfbfbf" stroke="#000000" points="665.4505,-369.5 665.4505,-388.5 773.4505,-388.5 773.4505,-369.5 665.4505,-369.5"/>
<text text-anchor="middle" x="719.4505" y="-376.5" font-family="Helvetica,sans-Serif" font-size="10.00" fill="#000000">ViennaRNA/2Dfold.h</text>
</a>
</g>
</g>
<!-- Node1 -->
<g id="node2" class="node">
<title>Node1</title>
<g id="a_node2"><a xlink:href="$fold__compound_8h.html" xlink:title="The Basic Fold Compound API.">
<polygon fill="none" stroke="#000000" points="444.4505,-313.5 444.4505,-332.5 590.4505,-332.5 590.4505,-313.5 444.4505,-313.5"/>
<text text-anchor="middle" x="517.4505" y="-320.5" font-family="Helvetica,sans-Serif" font-size="10.00" fill="#000000">ViennaRNA/fold_compound.h</text>
</a>
</g>
</g>
<!-- Node0&#45;&gt;Node1 -->
<g id="edge1" class="edge">
<title>Node0&#45;&gt;Node1</title>
<path fill="none" stroke="#191970" d="M684.7255,-369.3733C650.6997,-359.9404 598.7068,-345.5265 561.7271,-335.2747"/>
<polygon fill="#191970" stroke="#191970" points="562.294,-331.7999 551.7224,-332.5011 560.4239,-338.5455 562.294,-331.7999"/>
</g>
<!-- Node3 -->
<g id="node4" class="node">
<title>Node3</title>
<g id="a_node4"><a xlink:href="$params_2basic_8h.html" xlink:title="Functions to deal with sets of energy parameters.">
<polygon fill="none" stroke="#000000" points="831.4505,-257.5 831.4505,-276.5 969.4505,-276.5 969.4505,-257.5 831.4505,-257.5"/>
<text text-anchor="middle" x="900.4505" y="-264.5" font-family="Helvetica,sans-Serif" font-size="10.00" fill="#000000">ViennaRNA/params/basic.h</text>
</a>
</g>
</g>
<!-- Node0&#45;&gt;Node3 -->
<g id="edge43" class="edge">
<title>Node0&#45;&gt;Node3</title>
<path fill="none" stroke="#191970" d="M734.8825,-369.4509C766.4069,-349.9441 838.4043,-305.3932 876.2242,-281.9909"/>
<polygon fill="#191970" stroke="#191970" points="878.3957,-284.7631 885.0576,-276.5249 874.7123,-278.8106 878.3957,-284.7631"/>
</g>
<!-- Node6 -->
<g id="node7" class="node">
<title>Node6</title>
<g id="a_node7"><a xlink:href="$datastructures_2basic_8h.html" xlink:title="Various data structures and pre&#45;processor macros.">
<polygon fill="none" stroke="#000000" points="652.4505,-190.5 652.4505,-220.5 786.4505,-220.5 786.4505,-190.5 652.4505,-190.5"/>
<text text-anchor="start" x="660.4505" y="-208.5" font-family="Helvetica,sans-Serif" font-size="10.00" fill="#000000">ViennaRNA/datastructures</text>
<text text-anchor="middle" x="719.4505" y="-197.5" font-family="Helvetica,sans-Serif" font-size="10.00" fill="#000000">/basic.h</text>
</a>
</g>
</g>
<!-- Node0&#45;&gt;Node6 -->
<g id="edge42" class="edge">
<title>Node0&#45;&gt;Node6</title>
<path fill="none" stroke="#191970" d="M719.4505,-369.4248C719.4505,-343.256 719.4505,-269.8895 719.4505,-230.7855"/>
<polygon fill="#191970" stroke="#191970" points="722.9506,-230.7324 719.4505,-220.7325 715.9506,-230.7325 722.9506,-230.7324"/>
</g>
<!-- Node2 -->
<g id="node3" class="node">
<title>Node2</title>
<g id="a_node3"><a xlink:href="$model_8h.html" xlink:title="The model details data structure and its corresponding modifiers.">
<polygon fill="none" stroke="#000000" points="1084.4505,-129 1084.4505,-148 1190.4505,-148 1190.4505,-129 1084.4505,-129"/>
<text text-anchor="middle" x="1137.4505" y="-136" font-family="Helvetica,sans-Serif" font-size="10.00" fill="#000000">ViennaRNA/model.h</text>
</a>
</g>
</g>
<!-- Node1&#45;&gt;Node2 -->
<g id="edge2" class="edge">
<title>Node1&#45;&gt;Node2</title>
<path fill="none" stroke="#191970" d="M590.6741,-321.0829C702.6568,-317.2502 910.62,-306.3223 978.4505,-277 1042.0649,-249.5003 1098.5446,-186.9322 1123.6535,-156.2006"/>
<polygon fill="#191970" stroke="#191970" points="1126.6268,-158.0872 1130.1488,-148.0948 1121.1643,-153.7099 1126.6268,-158.0872"/>
</g>
<!-- Node1&#45;&gt;Node3 -->
<g id="edge3" class="edge">
<title>Node1&#45;&gt;Node3</title>
<path fill="none" stroke="#191970" d="M577.6259,-313.4369C643.4212,-303.5315 748.9933,-288.0846 821.415,-277.7591"/>
<polygon fill="#191970" stroke="#191970" points="821.9992,-281.2113 831.4063,-276.3372 821.0129,-274.2811 821.9992,-281.2113"/>
</g>
<!-- Node7 -->
<g id="node8" class="node">
<title>Node7</title>
<g id="a_node8"><a xlink:href="$dp__matrices_8h.html" xlink:title="Functions to deal with standard dynamic programming (DP) matrices.">
<polygon fill="none" stroke="#000000" points="756.9505,-129 756.9505,-148 889.9505,-148 889.9505,-129 756.9505,-129"/>
<text text-anchor="middle" x="823.4505" y="-136" font-family="Helvetica,sans-Serif" font-size="10.00" fill="#000000">ViennaRNA/dp_matrices.h</text>
</a>
</g>
</g>
<!-- Node1&#45;&gt;Node7 -->
<g id="edge36" class="edge">
<title>Node1&#45;&gt;Node7</title>
<path fill="none" stroke="#191970" d="M590.5906,-313.5072C651.1927,-301.9729 735.258,-276.5927 786.4505,-221 802.6382,-203.421 809.5099,-176.1172 814.5145,-157.7876"/>
<polygon fill="#191970" stroke="#191970" points="817.8787,-158.7528 817.3016,-148.1737 811.1555,-156.8037 817.8787,-158.7528"/>
</g>
<!-- Node8 -->
<g id="node9" class="node">
<title>Node8</title>
<g id="a_node9"><a xlink:href="$hard_8h.html" xlink:title="Functions and data structures for handling of secondary structure hard constraints.">
<polygon fill="none" stroke="#000000" points="14.9505,-123.5 14.9505,-153.5 133.9505,-153.5 133.9505,-123.5 14.9505,-123.5"/>
<text text-anchor="start" x="22.9505" y="-141.5" font-family="Helvetica,sans-Serif" font-size="10.00" fill="#000000">ViennaRNA/constraints</text>
<text text-anchor="middle" x="74.4505" y="-130.5" font-family="Helvetica,sans-Serif" font-size="10.00" fill="#000000">/hard.h</text>
</a>
</g>
</g>
<!-- Node1&#45;&gt;Node8 -->
<g id="edge37" class="edge">
<title>Node1&#45;&gt;Node8</title>
<path fill="none" stroke="#191970" d="M478.5016,-313.4226C448.41,-304.701 406.301,-291.0705 370.4505,-277 273.4749,-238.9394 162.8727,-186.3277 108.2827,-158.1658"/>
<polygon fill="#191970" stroke="#191970" points="109.8702,-155.0464 99.3843,-153.5313 106.6366,-161.2548 109.8702,-155.0464"/>
</g>
<!-- Node10 -->
<g id="node11" class="node">
<title>Node10</title>
<g id="a_node11"><a xlink:href="$soft_8h.html" xlink:title="Functions and data structures for secondary structure soft constraints.">
<polygon fill="none" stroke="#000000" points="419.9505,-123.5 419.9505,-153.5 538.9505,-153.5 538.9505,-123.5 419.9505,-123.5"/>
<text text-anchor="start" x="427.9505" y="-141.5" font-family="Helvetica,sans-Serif" font-size="10.00" fill="#000000">ViennaRNA/constraints</text>
<text text-anchor="middle" x="479.4505" y="-130.5" font-family="Helvetica,sans-Serif" font-size="10.00" fill="#000000">/soft.h</text>
</a>
</g>
</g>
<!-- Node1&#45;&gt;Node10 -->
<g id="edge38" class="edge">
<title>Node1&#45;&gt;Node10</title>
<path fill="none" stroke="#191970" d="M483.8854,-313.4647C466.7278,-306.1252 447.7711,-294.2779 438.4505,-277 418.4684,-239.9584 439.3114,-190.8034 458.1145,-162.1136"/>
<polygon fill="#191970" stroke="#191970" points="461.2334,-163.7607 464.0933,-153.5592 455.4958,-159.7506 461.2334,-163.7607"/>
</g>
<!-- Node11 -->
<g id="node12" class="node">
<title>Node11</title>
<g id="a_node12"><a xlink:href="$grammar_8h.html" xlink:title="Implementations for the RNA folding grammar.">
<polygon fill="none" stroke="#000000" points="151.9505,-129 151.9505,-148 268.9505,-148 268.9505,-129 151.9505,-129"/>
<text text-anchor="middle" x="210.4505" y="-136" font-family="Helvetica,sans-Serif" font-size="10.00" fill="#000000">ViennaRNA/grammar.h</text>
</a>
</g>
</g>
<!-- Node1&#45;&gt;Node11 -->
<g id="edge39" class="edge">
<title>Node1&#45;&gt;Node11</title>
<path fill="none" stroke="#191970" d="M486.5288,-313.4672C463.8286,-304.8259 433.0156,-291.2881 407.4505,-277 337.0033,-237.6277 259.3903,-181.746 226.3145,-154.5766"/>
<polygon fill="#191970" stroke="#191970" points="228.4474,-151.7966 218.5512,-148.013 223.9279,-157.1421 228.4474,-151.7966"/>
</g>
<!-- Node12 -->
<g id="node13" class="node">
<title>Node12</title>
<g id="a_node13"><a xlink:href="$structured__domains_8h.html" xlink:title="This module provides interfaces that deal with additional structured domains in the folding grammar.">
<polygon fill="none" stroke="#000000" points="286.9505,-123.5 286.9505,-153.5 401.9505,-153.5 401.9505,-123.5 286.9505,-123.5"/>
<text text-anchor="start" x="294.9505" y="-141.5" font-family="Helvetica,sans-Serif" font-size="10.00" fill="#000000">ViennaRNA/structured</text>
<text text-anchor="middle" x="344.4505" y="-130.5" font-family="Helvetica,sans-Serif" font-size="10.00" fill="#000000">_domains.h</text>
</a>
</g>
</g>
<!-- Node1&#45;&gt;Node12 -->
<g id="edge40" class="edge">
<title>Node1&#45;&gt;Node12</title>
<path fill="none" stroke="#191970" d="M494.9535,-313.4924C477.847,-305.499 454.4379,-292.8461 437.4505,-277 401.2972,-243.2757 372.0076,-192.9449 356.5032,-163.1493"/>
<polygon fill="#191970" stroke="#191970" points="359.4418,-161.207 351.7836,-153.8856 353.2046,-164.3847 359.4418,-161.207"/>
</g>
<!-- Node13 -->
<g id="node14" class="node">
<title>Node13</title>
<g id="a_node14"><a xlink:href="$unstructured__domains_8h.html" xlink:title="Functions to modify unstructured domains, e.g. to incorporate ligands binding to unpaired stretches.">
<polygon fill="none" stroke="#000000" points="556.9505,-123.5 556.9505,-153.5 681.9505,-153.5 681.9505,-123.5 556.9505,-123.5"/>
<text text-anchor="start" x="564.9505" y="-141.5" font-family="Helvetica,sans-Serif" font-size="10.00" fill="#000000">ViennaRNA/unstructured</text>
<text text-anchor="middle" x="619.4505" y="-130.5" font-family="Helvetica,sans-Serif" font-size="10.00" fill="#000000">_domains.h</text>
</a>
</g>
</g>
<!-- Node1&#45;&gt;Node13 -->
<g id="edge41" class="edge">
<title>Node1&#45;&gt;Node13</title>
<path fill="none" stroke="#191970" d="M533.1528,-313.3522C547.2557,-305.7241 566.9002,-293.5881 578.4505,-277 602.3136,-242.7288 608.6111,-193.2493 612.7379,-163.6415"/>
<polygon fill="#191970" stroke="#191970" points="616.2082,-164.098 614.1885,-153.6975 609.2816,-163.0875 616.2082,-164.098"/>
</g>
<!-- Node16 -->
<g id="node17" class="node">
<title>Node16</title>
<g id="a_node17"><a xlink:href="$sequence_8h.html" xlink:title="Functions and data structures related to sequence representations ,.">
<polygon fill="none" stroke="#000000" points="456.4505,-257.5 456.4505,-276.5 578.4505,-276.5 578.4505,-257.5 456.4505,-257.5"/>
<text text-anchor="middle" x="517.4505" y="-264.5" font-family="Helvetica,sans-Serif" font-size="10.00" fill="#000000">ViennaRNA/sequence.h</text>
</a>
</g>
</g>
<!-- Node1&#45;&gt;Node16 -->
<g id="edge34" class="edge">
<title>Node1&#45;&gt;Node16</title>
<path fill="none" stroke="#191970" d="M512.1837,-313.2455C510.7727,-305.9382 510.3684,-295.6944 510.971,-286.7046"/>
<polygon fill="#191970" stroke="#191970" points="514.4616,-286.9945 512.2054,-276.6427 507.5137,-286.1421 514.4616,-286.9945"/>
</g>
<!-- Node3&#45;&gt;Node1 -->
<g id="edge32" class="edge">
<title>Node3&#45;&gt;Node1</title>
<path fill="none" stroke="#191970" d="M840.5372,-276.5237C775.2434,-286.3547 670.5548,-301.6748 598.0889,-312.0124"/>
<polygon fill="#191970" stroke="#191970" points="597.4916,-308.562 588.0849,-313.4369 598.4785,-315.4921 597.4916,-308.562"/>
</g>
<!-- Node3&#45;&gt;Node2 -->
<g id="edge33" class="edge">
<title>Node3&#45;&gt;Node2</title>
<path fill="none" stroke="#191970" d="M913.1849,-257.4115C934.035,-241.9774 977.0832,-211.2111 1016.4505,-190 1044.1845,-175.057 1077.1755,-161.2603 1101.6986,-151.7156"/>
<polygon fill="#191970" stroke="#191970" points="1103.2369,-154.8741 1111.3166,-148.0208 1100.7266,-148.3397 1103.2369,-154.8741"/>
</g>
<!-- Node4 -->
<g id="node5" class="node">
<title>Node4</title>
<g id="a_node5"><a xlink:href="$constants_8h.html" xlink:title="Energy parameter constants.">
<polygon fill="none" stroke="#000000" points="908.4505,-129 908.4505,-148 1066.4505,-148 1066.4505,-129 908.4505,-129"/>
<text text-anchor="middle" x="987.4505" y="-136" font-family="Helvetica,sans-Serif" font-size="10.00" fill="#000000">ViennaRNA/params/constants.h</text>
</a>
</g>
</g>
<!-- Node3&#45;&gt;Node4 -->
<g id="edge4" class="edge">
<title>Node3&#45;&gt;Node4</title>
<path fill="none" stroke="#191970" d="M906.9897,-257.3416C921.4752,-235.9463 956.4612,-184.2715 975.1685,-156.6407"/>
<polygon fill="#191970" stroke="#191970" points="978.1274,-158.5133 980.8355,-148.2705 972.3309,-154.5889 978.1274,-158.5133"/>
</g>
<!-- Node3&#45;&gt;Node6 -->
<g id="edge6" class="edge">
<title>Node3&#45;&gt;Node6</title>
<path fill="none" stroke="#191970" d="M867.1068,-257.3906C839.0518,-248.4508 798.7505,-234.8905 767.2881,-223.8739"/>
<polygon fill="#191970" stroke="#191970" points="768.4259,-220.564 757.831,-220.5446 766.1013,-227.1668 768.4259,-220.564"/>
</g>
<!-- Node5 -->
<g id="node6" class="node">
<title>Node5</title>
<g id="a_node6"><a xlink:title=" ">
<polygon fill="none" stroke="#bfbfbf" points="963.4505,-62 963.4505,-81 1011.4505,-81 1011.4505,-62 963.4505,-62"/>
<text text-anchor="middle" x="987.4505" y="-69" font-family="Helvetica,sans-Serif" font-size="10.00" fill="#000000">limits.h</text>
</a>
</g>
</g>
<!-- Node4&#45;&gt;Node5 -->
<g id="edge5" class="edge">
<title>Node4&#45;&gt;Node5</title>
<path fill="none" stroke="#191970" d="M987.4505,-128.9005C987.4505,-119.149 987.4505,-103.7597 987.4505,-91.3695"/>
<polygon fill="#191970" stroke="#191970" points="990.9506,-91.0816 987.4505,-81.0817 983.9506,-91.0817 990.9506,-91.0816"/>
</g>
<!-- Node6&#45;&gt;Node1 -->
<g id="edge8" class="edge">
<title>Node6&#45;&gt;Node1</title>
<path fill="none" stroke="#191970" d="M705.5103,-220.6951C690.3052,-236.5303 664.6236,-261.1957 638.4505,-277 614.631,-291.3832 585.5486,-302.6136 561.8657,-310.3765"/>
<polygon fill="#191970" stroke="#191970" points="560.5459,-307.1234 552.0775,-313.4902 562.668,-313.794 560.5459,-307.1234"/>
</g>
<!-- Node6&#45;&gt;Node2 -->
<g id="edge9" class="edge">
<title>Node6&#45;&gt;Node2</title>
<path fill="none" stroke="#191970" d="M786.7194,-197.8306C858.5582,-189.1601 975.5746,-173.6562 1075.4505,-154 1080.8257,-152.9421 1086.4337,-151.7158 1091.9849,-150.4252"/>
<polygon fill="#191970" stroke="#191970" points="1092.9468,-153.7938 1101.8531,-148.0554 1091.3122,-146.9873 1092.9468,-153.7938"/>
</g>
<!-- Node6&#45;&gt;Node3 -->
<g id="edge10" class="edge">
<title>Node6&#45;&gt;Node3</title>
<path fill="none" stroke="#191970" d="M769.6252,-220.5446C800.9637,-230.7786 840.3333,-244.1853 867.7208,-253.9645"/>
<polygon fill="#191970" stroke="#191970" points="866.6374,-257.2943 877.2318,-257.3906 869.0098,-250.7086 866.6374,-257.2943"/>
</g>
<!-- Node6&#45;&gt;Node4 -->
<g id="edge7" class="edge">
<title>Node6&#45;&gt;Node4</title>
<path fill="none" stroke="#191970" d="M779.595,-190.4639C827.9463,-178.3761 894.9545,-161.624 939.6813,-150.4423"/>
<polygon fill="#191970" stroke="#191970" points="940.5769,-153.8262 949.4294,-148.0053 938.8791,-147.0352 940.5769,-153.8262"/>
</g>
<!-- Node6&#45;&gt;Node7 -->
<g id="edge11" class="edge">
<title>Node6&#45;&gt;Node7</title>
<path fill="none" stroke="#191970" d="M737.2889,-190.2967C753.1778,-179.199 776.4211,-164.237 794.8546,-153.2472"/>
<polygon fill="#191970" stroke="#191970" points="796.864,-156.1266 803.727,-148.055 793.3284,-150.085 796.864,-156.1266"/>
</g>
<!-- Node6&#45;&gt;Node8 -->
<g id="edge14" class="edge">
<title>Node6&#45;&gt;Node8</title>
<path fill="none" stroke="#191970" d="M652.0163,-202.4403C545.8408,-196.9715 333.1335,-183.3826 144.185,-154.1521"/>
<polygon fill="#191970" stroke="#191970" points="144.4872,-150.6568 134.0662,-152.568 143.4045,-157.5726 144.4872,-150.6568"/>
</g>
<!-- Node6&#45;&gt;Node10 -->
<g id="edge18" class="edge">
<title>Node6&#45;&gt;Node10</title>
<path fill="none" stroke="#191970" d="M659.8493,-190.4639C622.4594,-180.3701 574.5491,-167.024 537.4648,-156.3848"/>
<polygon fill="#191970" stroke="#191970" points="538.3756,-153.0049 527.7976,-153.6017 536.439,-159.7317 538.3756,-153.0049"/>
</g>
<!-- Node6&#45;&gt;Node11 -->
<g id="edge22" class="edge">
<title>Node6&#45;&gt;Node11</title>
<path fill="none" stroke="#191970" d="M652.0969,-200.0027C565.1437,-192.3684 409.3279,-176.8642 277.4505,-154 271.1974,-152.9159 264.6524,-151.6137 258.2063,-150.2307"/>
<polygon fill="#191970" stroke="#191970" points="258.7355,-146.763 248.2144,-148.0108 257.2172,-153.5964 258.7355,-146.763"/>
</g>
<!-- Node6&#45;&gt;Node12 -->
<g id="edge24" class="edge">
<title>Node6&#45;&gt;Node12</title>
<path fill="none" stroke="#191970" d="M652.3124,-195.6087C591.8313,-186.4023 500.2775,-171.7354 411.9169,-154.229"/>
<polygon fill="#191970" stroke="#191970" points="412.4867,-150.7738 401.9949,-152.2484 411.1163,-157.6383 412.4867,-150.7738"/>
</g>
<!-- Node6&#45;&gt;Node13 -->
<g id="edge25" class="edge">
<title>Node6&#45;&gt;Node13</title>
<path fill="none" stroke="#191970" d="M691.2681,-190.4639C676.6164,-181.39 658.9548,-169.6877 644.7449,-159.6864"/>
<polygon fill="#191970" stroke="#191970" points="646.5706,-156.6892 636.401,-153.7177 642.498,-162.3825 646.5706,-156.6892"/>
</g>
<!-- Node14 -->
<g id="node15" class="node">
<title>Node14</title>
<g id="a_node15"><a xlink:href="$utils_2structures_8h.html" xlink:title="Various utility&#45; and helper&#45;functions for secondary structure parsing, converting,...">
<polygon fill="none" stroke="#000000" points="647.4505,-62 647.4505,-81 791.4505,-81 791.4505,-62 647.4505,-62"/>
<text text-anchor="middle" x="719.4505" y="-69" font-family="Helvetica,sans-Serif" font-size="10.00" fill="#000000">ViennaRNA/utils/structures.h</text>
</a>
</g>
</g>
<!-- Node6&#45;&gt;Node14 -->
<g id="edge31" class="edge">
<title>Node6&#45;&gt;Node14</title>
<path fill="none" stroke="#191970" d="M714.9872,-190.389C712.1122,-166.0735 711.9482,-118.2644 714.4954,-91.2698"/>
<polygon fill="#191970" stroke="#191970" points="717.9987,-91.4583 715.753,-81.1042 711.0516,-90.5988 717.9987,-91.4583"/>
</g>
<!-- Node7&#45;&gt;Node1 -->
<g id="edge13" class="edge">
<title>Node7&#45;&gt;Node1</title>
<path fill="none" stroke="#191970" d="M828.0583,-148.1737C829.8484,-165.0252 823.8152,-199.9709 804.4505,-221 752.0561,-277.8979 665.2273,-303.1479 600.708,-314.2969"/>
<polygon fill="#191970" stroke="#191970" points="599.8523,-310.8906 590.5533,-315.9679 600.9889,-317.7977 599.8523,-310.8906"/>
</g>
<!-- Node7&#45;&gt;Node6 -->
<g id="edge12" class="edge">
<title>Node7&#45;&gt;Node6</title>
<path fill="none" stroke="#191970" d="M813.4444,-148.1039C800.3448,-157.7457 777.281,-172.8959 757.2051,-185.2103"/>
<polygon fill="#191970" stroke="#191970" points="755.2711,-182.2897 748.5307,-190.4639 758.8974,-188.2772 755.2711,-182.2897"/>
</g>
<!-- Node8&#45;&gt;Node1 -->
<g id="edge15" class="edge">
<title>Node8&#45;&gt;Node1</title>
<path fill="none" stroke="#191970" d="M110.0833,-153.5313C168.0302,-180.1917 285.8647,-236.7375 388.4505,-277 420.2398,-289.4766 456.95,-301.6072 483.1862,-310.2761"/>
<polygon fill="#191970" stroke="#191970" points="482.1033,-313.6043 492.6966,-313.4226 484.302,-306.9586 482.1033,-313.6043"/>
</g>
<!-- Node9 -->
<g id="node10" class="node">
<title>Node9</title>
<g id="a_node10"><a xlink:href="$constraints_2basic_8h.html" xlink:title="Functions and data structures for constraining secondary structure predictions and evaluation.">
<polygon fill="none" stroke="#000000" points="14.9505,-56.5 14.9505,-86.5 133.9505,-86.5 133.9505,-56.5 14.9505,-56.5"/>
<text text-anchor="start" x="22.9505" y="-74.5" font-family="Helvetica,sans-Serif" font-size="10.00" fill="#000000">ViennaRNA/constraints</text>
<text text-anchor="middle" x="74.4505" y="-63.5" font-family="Helvetica,sans-Serif" font-size="10.00" fill="#000000">/basic.h</text>
</a>
</g>
</g>
<!-- Node8&#45;&gt;Node9 -->
<g id="edge16" class="edge">
<title>Node8&#45;&gt;Node9</title>
<path fill="none" stroke="#191970" d="M74.4505,-123.2967C74.4505,-115.5013 74.4505,-105.7991 74.4505,-96.9064"/>
<polygon fill="#191970" stroke="#191970" points="77.9506,-96.6431 74.4505,-86.6432 70.9506,-96.6432 77.9506,-96.6431"/>
</g>
<!-- Node9&#45;&gt;Node1 -->
<g id="edge17" class="edge">
<title>Node9&#45;&gt;Node1</title>
<path fill="none" stroke="#191970" d="M42.8084,-86.5161C28.6347,-95.0591 13.3571,-107.2327 5.4505,-123 -.7254,-135.3161 -2.3626,-142.6518 5.4505,-154 57.1976,-229.1607 327.1022,-287.8626 452.851,-311.5798"/>
<polygon fill="#191970" stroke="#191970" points="452.2699,-315.0318 462.7429,-313.4294 453.5565,-308.151 452.2699,-315.0318"/>
</g>
<!-- Node10&#45;&gt;Node1 -->
<g id="edge20" class="edge">
<title>Node10&#45;&gt;Node1</title>
<path fill="none" stroke="#191970" d="M474.85,-153.5592C462.3011,-180.022 434.3058,-235.9496 456.4505,-277 463.9507,-290.9033 477.6904,-301.2902 490.336,-308.6415"/>
<polygon fill="#191970" stroke="#191970" points="488.7853,-311.7819 499.2457,-313.4647 492.1178,-305.6261 488.7853,-311.7819"/>
</g>
<!-- Node10&#45;&gt;Node6 -->
<g id="edge19" class="edge">
<title>Node10&#45;&gt;Node6</title>
<path fill="none" stroke="#191970" d="M539.2947,-153.6017C576.73,-163.7095 624.6396,-177.0568 661.6769,-187.6842"/>
<polygon fill="#191970" stroke="#191970" points="660.7523,-191.0602 671.3304,-190.4639 662.6893,-184.3335 660.7523,-191.0602"/>
</g>
<!-- Node10&#45;&gt;Node9 -->
<g id="edge21" class="edge">
<title>Node10&#45;&gt;Node9</title>
<path fill="none" stroke="#191970" d="M419.6637,-124.805C416.5518,-124.1751 413.4667,-123.5692 410.4505,-123 318.8861,-105.7196 212.4526,-90.1643 144.324,-80.7797"/>
<polygon fill="#191970" stroke="#191970" points="144.5247,-77.2745 134.142,-79.3838 143.5739,-84.2097 144.5247,-77.2745"/>
</g>
<!-- Node11&#45;&gt;Node1 -->
<g id="edge23" class="edge">
<title>Node11&#45;&gt;Node1</title>
<path fill="none" stroke="#191970" d="M227.4428,-148.013C263.4619,-171.6268 348.708,-234.1093 425.4505,-277 447.2208,-289.1672 472.7966,-300.7903 491.6009,-309.309"/>
<polygon fill="#191970" stroke="#191970" points="490.2086,-312.5207 500.7611,-313.4672 493.1021,-306.1467 490.2086,-312.5207"/>
</g>
<!-- Node13&#45;&gt;Node1 -->
<g id="edge27" class="edge">
<title>Node13&#45;&gt;Node1</title>
<path fill="none" stroke="#191970" d="M624.8296,-153.6975C627.893,-180.8671 623.2442,-238.52 596.4505,-277 586.9756,-290.6075 572.0541,-301.219 557.6223,-308.8039"/>
<polygon fill="#191970" stroke="#191970" points="555.7331,-305.8307 548.2714,-313.3522 558.795,-312.1255 555.7331,-305.8307"/>
</g>
<!-- Node13&#45;&gt;Node6 -->
<g id="edge26" class="edge">
<title>Node13&#45;&gt;Node6</title>
<path fill="none" stroke="#191970" d="M647.8058,-153.6432C662.4397,-162.7121 680.0414,-174.3776 694.2036,-184.3469"/>
<polygon fill="#191970" stroke="#191970" points="692.3504,-187.3246 702.5198,-190.2967 696.4234,-181.6315 692.3504,-187.3246"/>
</g>
<!-- Node13&#45;&gt;Node14 -->
<g id="edge28" class="edge">
<title>Node13&#45;&gt;Node14</title>
<path fill="none" stroke="#191970" d="M642.1421,-123.2967C658.4789,-112.351 680.4264,-97.6462 696.7624,-86.701"/>
<polygon fill="#191970" stroke="#191970" points="698.8298,-89.5289 705.1894,-81.055 694.9335,-83.7135 698.8298,-89.5289"/>
</g>
<!-- Node14&#45;&gt;Node6 -->
<g id="edge30" class="edge">
<title>Node14&#45;&gt;Node6</title>
<path fill="none" stroke="#191970" d="M723.1481,-81.1042C726.5291,-101.6073 727.1014,-150.2327 724.8649,-180.2559"/>
<polygon fill="#191970" stroke="#191970" points="721.3638,-180.1056 723.9139,-190.389 728.3331,-180.7598 721.3638,-180.1056"/>
</g>
<!-- Node15 -->
<g id="node16" class="node">
<title>Node15</title>
<g id="a_node16"><a xlink:title=" ">
<polygon fill="none" stroke="#bfbfbf" points="696.4505,-.5 696.4505,-19.5 742.4505,-19.5 742.4505,-.5 696.4505,-.5"/>
<text text-anchor="middle" x="719.4505" y="-7.5" font-family="Helvetica,sans-Serif" font-size="10.00" fill="#000000">stdio.h</text>
</a>
</g>
</g>
<!-- Node14&#45;&gt;Node15 -->
<g id="edge29" class="edge">
<title>Node14&#45;&gt;Node15</title>
<path fill="none" stroke="#191970" d="M719.4505,-61.8906C719.4505,-53.3657 719.4505,-40.6392 719.4505,-29.9235"/>
<polygon fill="#191970" stroke="#191970" points="722.9506,-29.7448 719.4505,-19.7449 715.9506,-29.7449 722.9506,-29.7448"/>
</g>
<!-- Node16&#45;&gt;Node1 -->
<g id="edge35" class="edge">
<title>Node16&#45;&gt;Node1</title>
<path fill="none" stroke="#191970" d="M522.6957,-276.6427C524.117,-283.9199 524.5315,-294.155 523.9392,-303.1575"/>
<polygon fill="#191970" stroke="#191970" points="520.4452,-302.8972 522.7174,-313.2455 527.3944,-303.739 520.4452,-302.8972"/>
</g>
</g>
</svg>
