<?xml version="1.0" encoding="UTF-8" standalone="no"?>
<!DOCTYPE svg PUBLIC "-//W3C//DTD SVG 1.1//EN"
 "http://www.w3.org/Graphics/SVG/1.1/DTD/svg11.dtd">
<!-- Generated by graphviz version 2.40.1 (0)
 -->
<!-- Title: ViennaRNA/alifold.h Pages: 1 -->
<svg width="1617pt" height="464pt"
 viewBox="0.00 0.00 1617.00 464.00" xmlns="http://www.w3.org/2000/svg" xmlns:xlink="http://www.w3.org/1999/xlink">
<g id="graph0" class="graph" transform="scale(1 1) rotate(0) translate(4 460)">
<title>ViennaRNA/alifold.h</title>
<!-- Node0 -->
<g id="node1" class="node">
<title>Node0</title>
<g id="a_node1"><a xlink:title="Functions for comparative structure prediction using RNA sequence alignments.">
<polygon fill="#bfbfbf" stroke="#000000" points="701.5,-436.5 701.5,-455.5 806.5,-455.5 806.5,-436.5 701.5,-436.5"/>
<text text-anchor="middle" x="754" y="-443.5" font-family="Helvetica,sans-Serif" font-size="10.00" fill="#000000">ViennaRNA/alifold.h</text>
</a>
</g>
</g>
<!-- Node1 -->
<g id="node2" class="node">
<title>Node1</title>
<g id="a_node2"><a xlink:href="$datastructures_2basic_8h.html" xlink:title="Various data structures and pre&#45;processor macros.">
<polygon fill="none" stroke="#000000" points="529,-246.5 529,-276.5 663,-276.5 663,-246.5 529,-246.5"/>
<text text-anchor="start" x="537" y="-264.5" font-family="Helvetica,sans-Serif" font-size="10.00" fill="#000000">ViennaRNA/datastructures</text>
<text text-anchor="middle" x="596" y="-253.5" font-family="Helvetica,sans-Serif" font-size="10.00" fill="#000000">/basic.h</text>
</a>
</g>
</g>
<!-- Node0&#45;&gt;Node1 -->
<g id="edge1" class="edge">
<title>Node0&#45;&gt;Node1</title>
<path fill="none" stroke="#191970" d="M712.7104,-436.4464C688.3174,-429.3231 657.8401,-417.7155 635,-400 610.8317,-381.2543 604.3342,-373.127 595,-344 589.0474,-325.4253 589.7104,-303.2686 591.6352,-286.5961"/>
<polygon fill="#191970" stroke="#191970" points="595.1251,-286.9093 593.0255,-276.5246 588.1909,-285.952 595.1251,-286.9093"/>
</g>
<!-- Node6 -->
<g id="node7" class="node">
<title>Node6</title>
<g id="a_node7"><a xlink:href="$params_2basic_8h.html" xlink:title="Functions to deal with sets of energy parameters.">
<polygon fill="none" stroke="#000000" points="104,-129 104,-148 242,-148 242,-129 104,-129"/>
<text text-anchor="middle" x="173" y="-136" font-family="Helvetica,sans-Serif" font-size="10.00" fill="#000000">ViennaRNA/params/basic.h</text>
</a>
</g>
</g>
<!-- Node0&#45;&gt;Node6 -->
<g id="edge42" class="edge">
<title>Node0&#45;&gt;Node6</title>
<path fill="none" stroke="#191970" d="M701.2799,-443.3549C529.9709,-434.0661 0,-399.5853 0,-328.5 0,-328.5 0,-328.5 0,-261.5 0,-200.5672 72.1675,-167.0344 123.2803,-150.926"/>
<polygon fill="#191970" stroke="#191970" points="124.3158,-154.2695 132.8755,-148.0259 122.2905,-147.5688 124.3158,-154.2695"/>
</g>
<!-- Node15 -->
<g id="node16" class="node">
<title>Node15</title>
<g id="a_node16"><a xlink:href="$utils_2structures_8h.html" xlink:title="Various utility&#45; and helper&#45;functions for secondary structure parsing, converting,...">
<polygon fill="none" stroke="#000000" points="1385,-62 1385,-81 1529,-81 1529,-62 1385,-62"/>
<text text-anchor="middle" x="1457" y="-69" font-family="Helvetica,sans-Serif" font-size="10.00" fill="#000000">ViennaRNA/utils/structures.h</text>
</a>
</g>
</g>
<!-- Node0&#45;&gt;Node15 -->
<g id="edge68" class="edge">
<title>Node0&#45;&gt;Node15</title>
<path fill="none" stroke="#191970" d="M806.5175,-444.3434C992.5393,-437.7888 1609,-409.9247 1609,-328.5 1609,-328.5 1609,-328.5 1609,-200 1609,-140.6038 1540.4743,-103.0379 1495.4443,-84.7644"/>
<polygon fill="#191970" stroke="#191970" points="1496.5358,-81.4332 1485.9478,-81.0525 1493.9874,-87.9529 1496.5358,-81.4332"/>
</g>
<!-- Node17 -->
<g id="node18" class="node">
<title>Node17</title>
<g id="a_node18"><a xlink:href="$ribo_8h.html" xlink:title="Parse RiboSum Scoring Matrices for Covariance Scoring of Alignments.">
<polygon fill="none" stroke="#000000" points="643.5,-380.5 643.5,-399.5 738.5,-399.5 738.5,-380.5 643.5,-380.5"/>
<text text-anchor="middle" x="691" y="-387.5" font-family="Helvetica,sans-Serif" font-size="10.00" fill="#000000">ViennaRNA/ribo.h</text>
</a>
</g>
</g>
<!-- Node0&#45;&gt;Node17 -->
<g id="edge43" class="edge">
<title>Node0&#45;&gt;Node17</title>
<path fill="none" stroke="#191970" d="M743.0262,-436.2455C733.8118,-428.0549 720.4468,-416.1749 709.5703,-406.5069"/>
<polygon fill="#191970" stroke="#191970" points="711.6474,-403.6704 701.848,-399.6427 706.9968,-408.9023 711.6474,-403.6704"/>
</g>
<!-- Node18 -->
<g id="node19" class="node">
<title>Node18</title>
<g id="a_node19"><a xlink:href="$mfe_8h.html" xlink:title="Compute Minimum Free energy (MFE) and backtrace corresponding secondary structures from RNA sequence ...">
<polygon fill="none" stroke="#000000" points="49,-319 49,-338 145,-338 145,-319 49,-319"/>
<text text-anchor="middle" x="97" y="-326" font-family="Helvetica,sans-Serif" font-size="10.00" fill="#000000">ViennaRNA/mfe.h</text>
</a>
</g>
</g>
<!-- Node0&#45;&gt;Node18 -->
<g id="edge44" class="edge">
<title>Node0&#45;&gt;Node18</title>
<path fill="none" stroke="#191970" d="M701.2167,-438.316C597.0707,-422.854 357.9662,-385.8632 159,-344 153.9055,-342.9281 148.5956,-341.7284 143.3205,-340.4838"/>
<polygon fill="#191970" stroke="#191970" points="143.8274,-337.0055 133.2848,-338.0567 142.1819,-343.8094 143.8274,-337.0055"/>
</g>
<!-- Node19 -->
<g id="node20" class="node">
<title>Node19</title>
<g id="a_node20"><a xlink:href="$part__func_8h.html" xlink:title="Partition function implementations.">
<polygon fill="none" stroke="#000000" points="757,-380.5 757,-399.5 877,-399.5 877,-380.5 757,-380.5"/>
<text text-anchor="middle" x="817" y="-387.5" font-family="Helvetica,sans-Serif" font-size="10.00" fill="#000000">ViennaRNA/part_func.h</text>
</a>
</g>
</g>
<!-- Node0&#45;&gt;Node19 -->
<g id="edge48" class="edge">
<title>Node0&#45;&gt;Node19</title>
<path fill="none" stroke="#191970" d="M764.9738,-436.2455C774.1882,-428.0549 787.5532,-416.1749 798.4297,-406.5069"/>
<polygon fill="#191970" stroke="#191970" points="801.0032,-408.9023 806.152,-399.6427 796.3526,-403.6704 801.0032,-408.9023"/>
</g>
<!-- Node22 -->
<g id="node23" class="node">
<title>Node22</title>
<g id="a_node23"><a xlink:href="$boltzmann__sampling_8h.html" xlink:title="Boltzmann Sampling of secondary structures from the ensemble.">
<polygon fill="none" stroke="#000000" points="930,-313.5 930,-343.5 1046,-343.5 1046,-313.5 930,-313.5"/>
<text text-anchor="start" x="938" y="-331.5" font-family="Helvetica,sans-Serif" font-size="10.00" fill="#000000">ViennaRNA/boltzmann</text>
<text text-anchor="middle" x="988" y="-320.5" font-family="Helvetica,sans-Serif" font-size="10.00" fill="#000000">_sampling.h</text>
</a>
</g>
</g>
<!-- Node0&#45;&gt;Node22 -->
<g id="edge69" class="edge">
<title>Node0&#45;&gt;Node22</title>
<path fill="none" stroke="#191970" d="M789.829,-436.438C817.0185,-428.4944 854.8962,-415.9312 886,-400 913.4523,-385.9392 941.9757,-365.3526 961.8557,-349.8761"/>
<polygon fill="#191970" stroke="#191970" points="964.138,-352.5336 969.8182,-343.5901 959.8006,-347.0394 964.138,-352.5336"/>
</g>
<!-- Node23 -->
<g id="node24" class="node">
<title>Node23</title>
<g id="a_node24"><a xlink:href="$utils_2alignments_8h.html" xlink:title="Various utility&#45; and helper&#45;functions for sequence alignments and comparative structure prediction.">
<polygon fill="none" stroke="#000000" points="1395,-252 1395,-271 1543,-271 1543,-252 1395,-252"/>
<text text-anchor="middle" x="1469" y="-259" font-family="Helvetica,sans-Serif" font-size="10.00" fill="#000000">ViennaRNA/utils/alignments.h</text>
</a>
</g>
</g>
<!-- Node0&#45;&gt;Node23 -->
<g id="edge64" class="edge">
<title>Node0&#45;&gt;Node23</title>
<path fill="none" stroke="#191970" d="M790.9359,-436.469C910.777,-405.545 1288.7191,-308.02 1421.9502,-273.6408"/>
<polygon fill="#191970" stroke="#191970" points="1423.0476,-276.9724 1431.8559,-271.0847 1421.2986,-270.1944 1423.0476,-276.9724"/>
</g>
<!-- Node2 -->
<g id="node3" class="node">
<title>Node2</title>
<g id="a_node3"><a xlink:href="$constants_8h.html" xlink:title="Energy parameter constants.">
<polygon fill="none" stroke="#000000" points="80,-62 80,-81 238,-81 238,-62 80,-62"/>
<text text-anchor="middle" x="159" y="-69" font-family="Helvetica,sans-Serif" font-size="10.00" fill="#000000">ViennaRNA/params/constants.h</text>
</a>
</g>
</g>
<!-- Node1&#45;&gt;Node2 -->
<g id="edge2" class="edge">
<title>Node1&#45;&gt;Node2</title>
<path fill="none" stroke="#191970" d="M528.8911,-257.5354C404.7266,-248.6149 147.026,-222.1442 95,-154 76.9733,-130.3885 108.2513,-103.1997 133.0974,-86.689"/>
<polygon fill="#191970" stroke="#191970" points="135.2988,-89.4367 141.857,-81.1156 131.5411,-83.5308 135.2988,-89.4367"/>
</g>
<!-- Node4 -->
<g id="node5" class="node">
<title>Node4</title>
<g id="a_node5"><a xlink:href="$fold__compound_8h.html" xlink:title="The Basic Fold Compound API.">
<polygon fill="none" stroke="#000000" points="729,-190.5 729,-209.5 875,-209.5 875,-190.5 729,-190.5"/>
<text text-anchor="middle" x="802" y="-197.5" font-family="Helvetica,sans-Serif" font-size="10.00" fill="#000000">ViennaRNA/fold_compound.h</text>
</a>
</g>
</g>
<!-- Node1&#45;&gt;Node4 -->
<g id="edge4" class="edge">
<title>Node1&#45;&gt;Node4</title>
<path fill="none" stroke="#191970" d="M646.3933,-246.4554C681.3679,-236.0139 727.4046,-222.27 760.3127,-212.4455"/>
<polygon fill="#191970" stroke="#191970" points="761.4965,-215.7448 770.0773,-209.5303 759.494,-209.0373 761.4965,-215.7448"/>
</g>
<!-- Node5 -->
<g id="node6" class="node">
<title>Node5</title>
<g id="a_node6"><a xlink:href="$model_8h.html" xlink:title="The model details data structure and its corresponding modifiers.">
<polygon fill="none" stroke="#000000" points="853,-62 853,-81 959,-81 959,-62 853,-62"/>
<text text-anchor="middle" x="906" y="-69" font-family="Helvetica,sans-Serif" font-size="10.00" fill="#000000">ViennaRNA/model.h</text>
</a>
</g>
</g>
<!-- Node1&#45;&gt;Node5 -->
<g id="edge33" class="edge">
<title>Node1&#45;&gt;Node5</title>
<path fill="none" stroke="#191970" d="M551.139,-246.4754C486.8926,-222.714 381.3062,-173.9092 428,-123 459.3601,-88.8088 798.2401,-94.6503 844,-87 849.8889,-86.0155 856.0415,-84.76 862.0869,-83.3909"/>
<polygon fill="#191970" stroke="#191970" points="863.177,-86.7293 872.094,-81.0075 861.5551,-79.9197 863.177,-86.7293"/>
</g>
<!-- Node1&#45;&gt;Node6 -->
<g id="edge34" class="edge">
<title>Node1&#45;&gt;Node6</title>
<path fill="none" stroke="#191970" d="M528.9349,-250.8309C479.6002,-241.7305 411.4102,-227.3762 353,-210 296.8406,-193.2933 233.5151,-167.9535 198.7755,-152.3557"/>
<polygon fill="#191970" stroke="#191970" points="199.9068,-149.0241 189.3579,-148.039 196.9901,-155.3875 199.9068,-149.0241"/>
</g>
<!-- Node8 -->
<g id="node9" class="node">
<title>Node8</title>
<g id="a_node9"><a xlink:href="$dp__matrices_8h.html" xlink:title="Functions to deal with standard dynamic programming (DP) matrices.">
<polygon fill="none" stroke="#000000" points="436.5,-129 436.5,-148 569.5,-148 569.5,-129 436.5,-129"/>
<text text-anchor="middle" x="503" y="-136" font-family="Helvetica,sans-Serif" font-size="10.00" fill="#000000">ViennaRNA/dp_matrices.h</text>
</a>
</g>
</g>
<!-- Node1&#45;&gt;Node8 -->
<g id="edge35" class="edge">
<title>Node1&#45;&gt;Node8</title>
<path fill="none" stroke="#191970" d="M579.9821,-246.4178C560.1266,-223.765 527.696,-181.0248 511.788,-156.6811"/>
<polygon fill="#191970" stroke="#191970" points="514.6618,-154.6752 506.3945,-148.0493 508.7253,-158.3845 514.6618,-154.6752"/>
</g>
<!-- Node9 -->
<g id="node10" class="node">
<title>Node9</title>
<g id="a_node10"><a xlink:href="$hard_8h.html" xlink:title="Functions and data structures for handling of secondary structure hard constraints.">
<polygon fill="none" stroke="#000000" points="720.5,-123.5 720.5,-153.5 839.5,-153.5 839.5,-123.5 720.5,-123.5"/>
<text text-anchor="start" x="728.5" y="-141.5" font-family="Helvetica,sans-Serif" font-size="10.00" fill="#000000">ViennaRNA/constraints</text>
<text text-anchor="middle" x="780" y="-130.5" font-family="Helvetica,sans-Serif" font-size="10.00" fill="#000000">/hard.h</text>
</a>
</g>
</g>
<!-- Node1&#45;&gt;Node9 -->
<g id="edge36" class="edge">
<title>Node1&#45;&gt;Node9</title>
<path fill="none" stroke="#191970" d="M618.562,-246.4178C651.3444,-224.5035 712.2491,-183.79 749.155,-159.1192"/>
<polygon fill="#191970" stroke="#191970" points="751.1731,-161.9802 757.5415,-153.513 747.2829,-156.1607 751.1731,-161.9802"/>
</g>
<!-- Node11 -->
<g id="node12" class="node">
<title>Node11</title>
<g id="a_node12"><a xlink:href="$soft_8h.html" xlink:title="Functions and data structures for secondary structure soft constraints.">
<polygon fill="none" stroke="#000000" points="260.5,-123.5 260.5,-153.5 379.5,-153.5 379.5,-123.5 260.5,-123.5"/>
<text text-anchor="start" x="268.5" y="-141.5" font-family="Helvetica,sans-Serif" font-size="10.00" fill="#000000">ViennaRNA/constraints</text>
<text text-anchor="middle" x="320" y="-130.5" font-family="Helvetica,sans-Serif" font-size="10.00" fill="#000000">/soft.h</text>
</a>
</g>
</g>
<!-- Node1&#45;&gt;Node11 -->
<g id="edge37" class="edge">
<title>Node1&#45;&gt;Node11</title>
<path fill="none" stroke="#191970" d="M528.8879,-254.567C485.511,-247.7751 429.2466,-234.6873 385,-210 363.2812,-197.882 343.2998,-177.7985 331.0367,-161.9969"/>
<polygon fill="#191970" stroke="#191970" points="333.7555,-159.7838 325.056,-153.7365 328.0856,-163.8889 333.7555,-159.7838"/>
</g>
<!-- Node12 -->
<g id="node13" class="node">
<title>Node12</title>
<g id="a_node13"><a xlink:href="$grammar_8h.html" xlink:title="Implementations for the RNA folding grammar.">
<polygon fill="none" stroke="#000000" points="1074.5,-129 1074.5,-148 1191.5,-148 1191.5,-129 1074.5,-129"/>
<text text-anchor="middle" x="1133" y="-136" font-family="Helvetica,sans-Serif" font-size="10.00" fill="#000000">ViennaRNA/grammar.h</text>
</a>
</g>
</g>
<!-- Node1&#45;&gt;Node12 -->
<g id="edge38" class="edge">
<title>Node1&#45;&gt;Node12</title>
<path fill="none" stroke="#191970" d="M663.0301,-251.5127C721.6543,-242.3031 808.9212,-227.4436 884,-210 959.0036,-192.5739 1045.0529,-166.4773 1093.8283,-151.1012"/>
<polygon fill="#191970" stroke="#191970" points="1094.8857,-154.4377 1103.3627,-148.0823 1092.7726,-147.7643 1094.8857,-154.4377"/>
</g>
<!-- Node13 -->
<g id="node14" class="node">
<title>Node13</title>
<g id="a_node14"><a xlink:href="$structured__domains_8h.html" xlink:title="This module provides interfaces that deal with additional structured domains in the folding grammar.">
<polygon fill="none" stroke="#000000" points="587.5,-123.5 587.5,-153.5 702.5,-153.5 702.5,-123.5 587.5,-123.5"/>
<text text-anchor="start" x="595.5" y="-141.5" font-family="Helvetica,sans-Serif" font-size="10.00" fill="#000000">ViennaRNA/structured</text>
<text text-anchor="middle" x="645" y="-130.5" font-family="Helvetica,sans-Serif" font-size="10.00" fill="#000000">_domains.h</text>
</a>
</g>
</g>
<!-- Node1&#45;&gt;Node13 -->
<g id="edge39" class="edge">
<title>Node1&#45;&gt;Node13</title>
<path fill="none" stroke="#191970" d="M602.0084,-246.4178C610.274,-225.6694 625.2529,-188.0692 635.1649,-163.1881"/>
<polygon fill="#191970" stroke="#191970" points="638.493,-164.2909 638.9425,-153.7056 631.9901,-161.7002 638.493,-164.2909"/>
</g>
<!-- Node14 -->
<g id="node15" class="node">
<title>Node14</title>
<g id="a_node15"><a xlink:href="$unstructured__domains_8h.html" xlink:title="Functions to modify unstructured domains, e.g. to incorporate ligands binding to unpaired stretches.">
<polygon fill="none" stroke="#000000" points="1209.5,-123.5 1209.5,-153.5 1334.5,-153.5 1334.5,-123.5 1209.5,-123.5"/>
<text text-anchor="start" x="1217.5" y="-141.5" font-family="Helvetica,sans-Serif" font-size="10.00" fill="#000000">ViennaRNA/unstructured</text>
<text text-anchor="middle" x="1272" y="-130.5" font-family="Helvetica,sans-Serif" font-size="10.00" fill="#000000">_domains.h</text>
</a>
</g>
</g>
<!-- Node1&#45;&gt;Node14 -->
<g id="edge40" class="edge">
<title>Node1&#45;&gt;Node14</title>
<path fill="none" stroke="#191970" d="M663.2645,-251.4536C730.0829,-241.8519 835.2058,-226.4402 926,-210 1044.8806,-188.4741 1073.8712,-179.3286 1192,-154 1194.342,-153.4978 1196.727,-152.9849 1199.1396,-152.4656"/>
<polygon fill="#191970" stroke="#191970" points="1200.1334,-155.8319 1209.1728,-150.3057 1198.6601,-148.9887 1200.1334,-155.8319"/>
</g>
<!-- Node1&#45;&gt;Node15 -->
<g id="edge41" class="edge">
<title>Node1&#45;&gt;Node15</title>
<path fill="none" stroke="#191970" d="M663.2674,-255.8207C821.6512,-242.223 1213.4489,-205.0892 1335,-154 1373.2914,-137.9057 1410.8465,-106.5023 1434.2463,-87.4229"/>
<polygon fill="#191970" stroke="#191970" points="1436.6182,-90.0063 1442.202,-81.0024 1432.2219,-84.559 1436.6182,-90.0063"/>
</g>
<!-- Node3 -->
<g id="node4" class="node">
<title>Node3</title>
<g id="a_node4"><a xlink:title=" ">
<polygon fill="none" stroke="#bfbfbf" points="135,-.5 135,-19.5 183,-19.5 183,-.5 135,-.5"/>
<text text-anchor="middle" x="159" y="-7.5" font-family="Helvetica,sans-Serif" font-size="10.00" fill="#000000">limits.h</text>
</a>
</g>
</g>
<!-- Node2&#45;&gt;Node3 -->
<g id="edge3" class="edge">
<title>Node2&#45;&gt;Node3</title>
<path fill="none" stroke="#191970" d="M159,-61.8906C159,-53.3657 159,-40.6392 159,-29.9235"/>
<polygon fill="#191970" stroke="#191970" points="162.5001,-29.7448 159,-19.7449 155.5001,-29.7449 162.5001,-29.7448"/>
</g>
<!-- Node4&#45;&gt;Node5 -->
<g id="edge5" class="edge">
<title>Node4&#45;&gt;Node5</title>
<path fill="none" stroke="#191970" d="M819.5572,-190.36C833.2972,-182.1264 852.1648,-169.2178 865,-154 881.13,-134.8757 892.8557,-108.3209 899.5373,-90.556"/>
<polygon fill="#191970" stroke="#191970" points="902.8812,-91.5997 902.9618,-81.0052 896.292,-89.237 902.8812,-91.5997"/>
</g>
<!-- Node4&#45;&gt;Node6 -->
<g id="edge6" class="edge">
<title>Node4&#45;&gt;Node6</title>
<path fill="none" stroke="#191970" d="M728.671,-196.7532C621.4046,-191.214 415.9566,-178.125 243,-154 235.0188,-152.8867 226.6254,-151.4887 218.5132,-149.9906"/>
<polygon fill="#191970" stroke="#191970" points="218.9214,-146.5051 208.4404,-148.0535 217.5994,-153.3791 218.9214,-146.5051"/>
</g>
<!-- Node7 -->
<g id="node8" class="node">
<title>Node7</title>
<g id="a_node8"><a xlink:href="$sequence_8h.html" xlink:title="Functions and data structures related to sequence representations ,.">
<polygon fill="none" stroke="#000000" points="934,-129 934,-148 1056,-148 1056,-129 934,-129"/>
<text text-anchor="middle" x="995" y="-136" font-family="Helvetica,sans-Serif" font-size="10.00" fill="#000000">ViennaRNA/sequence.h</text>
</a>
</g>
</g>
<!-- Node4&#45;&gt;Node7 -->
<g id="edge11" class="edge">
<title>Node4&#45;&gt;Node7</title>
<path fill="none" stroke="#191970" d="M827.0938,-190.3906C858.3082,-179.7846 911.8348,-162.6753 950.1312,-151.0257"/>
<polygon fill="#191970" stroke="#191970" points="951.446,-154.2847 960.0062,-148.0419 949.4213,-147.5839 951.446,-154.2847"/>
</g>
<!-- Node4&#45;&gt;Node8 -->
<g id="edge13" class="edge">
<title>Node4&#45;&gt;Node8</title>
<path fill="none" stroke="#191970" d="M750.56,-190.4581C695.6153,-179.5956 609.2078,-161.8488 554.3142,-150.1711"/>
<polygon fill="#191970" stroke="#191970" points="554.9562,-146.7294 544.4458,-148.0643 553.4947,-153.5751 554.9562,-146.7294"/>
</g>
<!-- Node4&#45;&gt;Node9 -->
<g id="edge16" class="edge">
<title>Node4&#45;&gt;Node9</title>
<path fill="none" stroke="#191970" d="M793.5,-190.3906C789.495,-183.1463 785.2927,-172.8679 782.2567,-163.3676"/>
<polygon fill="#191970" stroke="#191970" points="785.5691,-162.2181 779.4847,-153.5446 778.8322,-164.1193 785.5691,-162.2181"/>
</g>
<!-- Node4&#45;&gt;Node11 -->
<g id="edge20" class="edge">
<title>Node4&#45;&gt;Node11</title>
<path fill="none" stroke="#191970" d="M728.8453,-192.2196C651.5672,-183.3812 526.4835,-168.3214 419,-154 409.5239,-152.7374 399.5866,-151.3702 389.8072,-149.9887"/>
<polygon fill="#191970" stroke="#191970" points="390.0931,-146.4941 379.6992,-148.5477 389.1051,-153.4241 390.0931,-146.4941"/>
</g>
<!-- Node4&#45;&gt;Node12 -->
<g id="edge24" class="edge">
<title>Node4&#45;&gt;Node12</title>
<path fill="none" stroke="#191970" d="M854.3692,-190.4918C905.8494,-181.7369 986.361,-168.0174 1056,-154 1061.7793,-152.8367 1067.82,-151.5552 1073.8754,-150.2426"/>
<polygon fill="#191970" stroke="#191970" points="1075.0158,-153.576 1084.0367,-148.0196 1073.5197,-146.7377 1075.0158,-153.576"/>
</g>
<!-- Node4&#45;&gt;Node13 -->
<g id="edge26" class="edge">
<title>Node4&#45;&gt;Node13</title>
<path fill="none" stroke="#191970" d="M777.4688,-190.3906C754.9419,-181.5664 720.9227,-168.2404 693,-157.3026"/>
<polygon fill="#191970" stroke="#191970" points="693.9942,-153.9331 683.4065,-153.5446 691.441,-160.4509 693.9942,-153.9331"/>
</g>
<!-- Node4&#45;&gt;Node14 -->
<g id="edge27" class="edge">
<title>Node4&#45;&gt;Node14</title>
<path fill="none" stroke="#191970" d="M875.014,-193.1697C953.5995,-185.7011 1081.9452,-172.3098 1192,-154 1194.3627,-153.6069 1196.7655,-153.1869 1199.193,-152.7461"/>
<polygon fill="#191970" stroke="#191970" points="1200.1013,-156.1363 1209.2731,-150.8326 1198.7957,-149.2591 1200.1013,-156.1363"/>
</g>
<!-- Node6&#45;&gt;Node1 -->
<g id="edge8" class="edge">
<title>Node6&#45;&gt;Node1</title>
<path fill="none" stroke="#191970" d="M200.7287,-148.039C238.9432,-162.8666 309.2969,-191.6442 371,-210 419.6407,-224.47 475.0635,-236.8443 518.7839,-245.8342"/>
<polygon fill="#191970" stroke="#191970" points="518.2812,-249.3036 528.779,-247.8727 519.6802,-242.4448 518.2812,-249.3036"/>
</g>
<!-- Node6&#45;&gt;Node2 -->
<g id="edge7" class="edge">
<title>Node6&#45;&gt;Node2</title>
<path fill="none" stroke="#191970" d="M170.9941,-128.9005C168.9357,-119.0495 165.6751,-103.4451 163.0728,-90.9912"/>
<polygon fill="#191970" stroke="#191970" points="166.4736,-90.1543 161.0021,-81.0817 159.6216,-91.5862 166.4736,-90.1543"/>
</g>
<!-- Node6&#45;&gt;Node4 -->
<g id="edge9" class="edge">
<title>Node6&#45;&gt;Node4</title>
<path fill="none" stroke="#191970" d="M225.8488,-148.0535C237.4642,-150.2574 249.6489,-152.4167 261,-154 422.3461,-176.5055 611.9677,-189.4069 718.5084,-195.5345"/>
<polygon fill="#191970" stroke="#191970" points="718.373,-199.0324 728.5557,-196.1065 718.7708,-192.0437 718.373,-199.0324"/>
</g>
<!-- Node6&#45;&gt;Node5 -->
<g id="edge10" class="edge">
<title>Node6&#45;&gt;Node5</title>
<path fill="none" stroke="#191970" d="M216.294,-128.9289C227.8456,-126.6708 240.3544,-124.4898 252,-123 513.4662,-89.5507 583.4764,-127.136 844,-87 850.1888,-86.0466 856.6622,-84.7602 862.9939,-83.334"/>
<polygon fill="#191970" stroke="#191970" points="863.8495,-86.7282 872.7658,-81.0055 862.2269,-79.9188 863.8495,-86.7282"/>
</g>
<!-- Node7&#45;&gt;Node4 -->
<g id="edge12" class="edge">
<title>Node7&#45;&gt;Node4</title>
<path fill="none" stroke="#191970" d="M970.1048,-148.0419C938.9853,-158.6202 885.4739,-175.7273 847.113,-187.4001"/>
<polygon fill="#191970" stroke="#191970" points="845.7784,-184.147 837.2188,-190.3906 847.8037,-190.8476 845.7784,-184.147"/>
</g>
<!-- Node8&#45;&gt;Node1 -->
<g id="edge14" class="edge">
<title>Node8&#45;&gt;Node1</title>
<path fill="none" stroke="#191970" d="M514.0459,-148.0493C531.7462,-167.1631 565.1471,-210.6215 583.5783,-237.8606"/>
<polygon fill="#191970" stroke="#191970" points="580.7891,-239.9891 589.2106,-246.4178 586.6362,-236.1405 580.7891,-239.9891"/>
</g>
<!-- Node8&#45;&gt;Node4 -->
<g id="edge15" class="edge">
<title>Node8&#45;&gt;Node4</title>
<path fill="none" stroke="#191970" d="M554.2972,-148.0137C609.2677,-158.8801 695.8476,-176.6623 750.7838,-188.3498"/>
<polygon fill="#191970" stroke="#191970" points="750.1482,-191.7929 760.6586,-190.4581 751.6099,-184.9472 750.1482,-191.7929"/>
</g>
<!-- Node9&#45;&gt;Node4 -->
<g id="edge17" class="edge">
<title>Node9&#45;&gt;Node4</title>
<path fill="none" stroke="#191970" d="M791.2789,-153.5446C795.1313,-161.6241 798.877,-171.681 801.319,-180.3693"/>
<polygon fill="#191970" stroke="#191970" points="797.9716,-181.4302 803.625,-190.3906 804.7933,-179.8604 797.9716,-181.4302"/>
</g>
<!-- Node10 -->
<g id="node11" class="node">
<title>Node10</title>
<g id="a_node11"><a xlink:href="$constraints_2basic_8h.html" xlink:title="Functions and data structures for constraining secondary structure predictions and evaluation.">
<polygon fill="none" stroke="#000000" points="715.5,-56.5 715.5,-86.5 834.5,-86.5 834.5,-56.5 715.5,-56.5"/>
<text text-anchor="start" x="723.5" y="-74.5" font-family="Helvetica,sans-Serif" font-size="10.00" fill="#000000">ViennaRNA/constraints</text>
<text text-anchor="middle" x="775" y="-63.5" font-family="Helvetica,sans-Serif" font-size="10.00" fill="#000000">/basic.h</text>
</a>
</g>
</g>
<!-- Node9&#45;&gt;Node10 -->
<g id="edge18" class="edge">
<title>Node9&#45;&gt;Node10</title>
<path fill="none" stroke="#191970" d="M778.8654,-123.2967C778.2837,-115.5013 777.5596,-105.7991 776.896,-96.9064"/>
<polygon fill="#191970" stroke="#191970" points="780.3647,-96.3549 776.1301,-86.6432 773.3841,-96.8759 780.3647,-96.3549"/>
</g>
<!-- Node10&#45;&gt;Node4 -->
<g id="edge19" class="edge">
<title>Node10&#45;&gt;Node4</title>
<path fill="none" stroke="#191970" d="M810.0324,-86.6397C824.8862,-95.0327 840.6656,-107.0457 849,-123 855.3794,-135.2119 854.3409,-141.2995 849,-154 844.0022,-165.8847 834.2686,-176.235 824.9497,-184.092"/>
<polygon fill="#191970" stroke="#191970" points="822.7043,-181.4049 816.9965,-190.3308 827.0248,-186.9126 822.7043,-181.4049"/>
</g>
<!-- Node11&#45;&gt;Node1 -->
<g id="edge21" class="edge">
<title>Node11&#45;&gt;Node1</title>
<path fill="none" stroke="#191970" d="M338.2364,-153.7365C353.9588,-170.0869 377.2592,-195.638 403,-210 438.5331,-229.8256 481.8167,-242.1705 518.4273,-249.7814"/>
<polygon fill="#191970" stroke="#191970" points="518.0727,-253.2796 528.5644,-251.8048 519.443,-246.415 518.0727,-253.2796"/>
</g>
<!-- Node11&#45;&gt;Node4 -->
<g id="edge22" class="edge">
<title>Node11&#45;&gt;Node4</title>
<path fill="none" stroke="#191970" d="M379.543,-146.0441C398.0486,-148.644 418.4116,-151.5232 437,-154 533.6166,-166.8735 644.4544,-180.3435 718.4593,-189.3552"/>
<polygon fill="#191970" stroke="#191970" points="718.302,-192.8618 728.6519,-190.5967 719.1485,-185.9132 718.302,-192.8618"/>
</g>
<!-- Node11&#45;&gt;Node10 -->
<g id="edge23" class="edge">
<title>Node11&#45;&gt;Node10</title>
<path fill="none" stroke="#191970" d="M379.7037,-125.6089C384.5325,-124.6839 389.3431,-123.8014 394,-123 502.2809,-104.3665 628.8381,-88.4029 705.3987,-79.3798"/>
<polygon fill="#191970" stroke="#191970" points="705.8781,-82.8477 715.4024,-78.2068 705.0628,-75.8953 705.8781,-82.8477"/>
</g>
<!-- Node12&#45;&gt;Node4 -->
<g id="edge25" class="edge">
<title>Node12&#45;&gt;Node4</title>
<path fill="none" stroke="#191970" d="M1101.5657,-148.0196C1092.6795,-150.0803 1083.0214,-152.1841 1074,-154 1008.4414,-167.1961 933.247,-180.1281 878.4877,-188.9027"/>
<polygon fill="#191970" stroke="#191970" points="877.8329,-185.4628 868.5077,-190.4918 878.9337,-192.3757 877.8329,-185.4628"/>
</g>
<!-- Node14&#45;&gt;Node1 -->
<g id="edge28" class="edge">
<title>Node14&#45;&gt;Node1</title>
<path fill="none" stroke="#191970" d="M1212.2327,-153.5208C1211.4847,-153.6815 1210.7402,-153.8413 1210,-154 1091.8712,-179.3286 1062.8806,-188.4741 944,-210 851.4599,-226.7564 744.0348,-242.4442 673.2226,-252.001"/>
<polygon fill="#191970" stroke="#191970" points="672.4927,-248.5675 663.0467,-253.366 673.4233,-255.5054 672.4927,-248.5675"/>
</g>
<!-- Node14&#45;&gt;Node4 -->
<g id="edge29" class="edge">
<title>Node14&#45;&gt;Node4</title>
<path fill="none" stroke="#191970" d="M1212.6288,-153.5545C1211.7478,-153.7065 1210.8712,-153.8551 1210,-154 1098.409,-172.5653 968.0129,-186.074 885.1713,-193.479"/>
<polygon fill="#191970" stroke="#191970" points="884.7112,-190.006 875.0585,-194.3737 885.3281,-196.9787 884.7112,-190.006"/>
</g>
<!-- Node14&#45;&gt;Node15 -->
<g id="edge30" class="edge">
<title>Node14&#45;&gt;Node15</title>
<path fill="none" stroke="#191970" d="M1313.5176,-123.4639C1345.9128,-111.7316 1390.4404,-95.6054 1421.2615,-84.4431"/>
<polygon fill="#191970" stroke="#191970" points="1422.5435,-87.7014 1430.7541,-81.0053 1420.1598,-81.1197 1422.5435,-87.7014"/>
</g>
<!-- Node15&#45;&gt;Node1 -->
<g id="edge32" class="edge">
<title>Node15&#45;&gt;Node1</title>
<path fill="none" stroke="#191970" d="M1452.6082,-81.0024C1438.0594,-98.5584 1395.9939,-135.9292 1353,-154 1231.5859,-205.0317 840.5339,-242.1393 673.1207,-255.7746"/>
<polygon fill="#191970" stroke="#191970" points="672.8304,-252.2866 663.1449,-256.5808 673.3943,-259.2638 672.8304,-252.2866"/>
</g>
<!-- Node16 -->
<g id="node17" class="node">
<title>Node16</title>
<g id="a_node17"><a xlink:title=" ">
<polygon fill="none" stroke="#bfbfbf" points="1434,-.5 1434,-19.5 1480,-19.5 1480,-.5 1434,-.5"/>
<text text-anchor="middle" x="1457" y="-7.5" font-family="Helvetica,sans-Serif" font-size="10.00" fill="#000000">stdio.h</text>
</a>
</g>
</g>
<!-- Node15&#45;&gt;Node16 -->
<g id="edge31" class="edge">
<title>Node15&#45;&gt;Node16</title>
<path fill="none" stroke="#191970" d="M1457,-61.8906C1457,-53.3657 1457,-40.6392 1457,-29.9235"/>
<polygon fill="#191970" stroke="#191970" points="1460.5001,-29.7448 1457,-19.7449 1453.5001,-29.7449 1460.5001,-29.7448"/>
</g>
<!-- Node18&#45;&gt;Node1 -->
<g id="edge46" class="edge">
<title>Node18&#45;&gt;Node1</title>
<path fill="none" stroke="#191970" d="M145.2996,-322.0149C231.9345,-310.3825 414.4039,-285.8826 518.6467,-271.8861"/>
<polygon fill="#191970" stroke="#191970" points="519.3485,-275.3234 528.7938,-270.5237 518.4169,-268.3856 519.3485,-275.3234"/>
</g>
<!-- Node18&#45;&gt;Node4 -->
<g id="edge47" class="edge">
<title>Node18&#45;&gt;Node4</title>
<path fill="none" stroke="#191970" d="M145.1668,-326.9217C265.0809,-322.5561 574.3484,-308.4998 672,-277 677.6862,-275.1658 741.1405,-236.9316 777.2452,-215.0447"/>
<polygon fill="#191970" stroke="#191970" points="779.4745,-217.786 786.2084,-209.6064 775.8434,-211.8014 779.4745,-217.786"/>
</g>
<!-- Node18&#45;&gt;Node16 -->
<g id="edge45" class="edge">
<title>Node18&#45;&gt;Node16</title>
<path fill="none" stroke="#191970" d="M89.043,-318.8759C72.9385,-298.3858 38,-248.3599 38,-200 38,-200 38,-200 38,-138.5 38,-99.0088 38.6704,-78.6793 71,-56 128.0913,-15.9503 1217.4721,-10.7148 1423.5263,-10.0821"/>
<polygon fill="#191970" stroke="#191970" points="1423.7378,-13.5816 1433.7275,-10.0523 1423.7173,-6.5816 1423.7378,-13.5816"/>
</g>
<!-- Node19&#45;&gt;Node1 -->
<g id="edge49" class="edge">
<title>Node19&#45;&gt;Node1</title>
<path fill="none" stroke="#191970" d="M761.5309,-380.4824C705.4048,-370.3639 625.4402,-354.4146 615,-344 600.0386,-329.0752 595.8897,-304.891 595.1273,-286.5564"/>
<polygon fill="#191970" stroke="#191970" points="598.6271,-286.511 595.0136,-276.5514 591.6275,-286.5906 598.6271,-286.511"/>
</g>
<!-- Node19&#45;&gt;Node4 -->
<g id="edge50" class="edge">
<title>Node19&#45;&gt;Node4</title>
<path fill="none" stroke="#191970" d="M840.7859,-380.4178C855.8669,-372.9442 874.1462,-360.9629 883,-344 889.3752,-331.7859 887.2156,-326.117 883,-313 870.5469,-274.2519 839.3579,-237.5243 819.5169,-216.9657"/>
<polygon fill="#191970" stroke="#191970" points="821.8102,-214.3075 812.2858,-209.6665 816.8372,-219.234 821.8102,-214.3075"/>
</g>
<!-- Node19&#45;&gt;Node6 -->
<g id="edge52" class="edge">
<title>Node19&#45;&gt;Node6</title>
<path fill="none" stroke="#191970" d="M762.3125,-380.4518C717.1296,-372.1375 651.4732,-359.0729 595,-344 437.6703,-302.0081 389.3971,-300.4632 254,-210 229.8278,-193.8497 205.2356,-171.0484 189.5916,-155.5686"/>
<polygon fill="#191970" stroke="#191970" points="191.8101,-152.8359 182.2761,-148.215 186.8475,-157.7729 191.8101,-152.8359"/>
</g>
<!-- Node19&#45;&gt;Node15 -->
<g id="edge51" class="edge">
<title>Node19&#45;&gt;Node15</title>
<path fill="none" stroke="#191970" d="M877.1115,-386.0883C1055.7413,-373.6684 1571,-331.7543 1571,-261.5 1571,-261.5 1571,-261.5 1571,-200 1571,-147.9335 1517.9795,-107.1189 1484.256,-86.4249"/>
<polygon fill="#191970" stroke="#191970" points="1485.7037,-83.2145 1475.3161,-81.1291 1482.1359,-89.2371 1485.7037,-83.2145"/>
</g>
<!-- Node20 -->
<g id="node21" class="node">
<title>Node20</title>
<g id="a_node21"><a xlink:href="$centroid_8h.html" xlink:title="Centroid structure computation.">
<polygon fill="none" stroke="#000000" points="760,-319 760,-338 874,-338 874,-319 760,-319"/>
<text text-anchor="middle" x="817" y="-326" font-family="Helvetica,sans-Serif" font-size="10.00" fill="#000000">ViennaRNA/centroid.h</text>
</a>
</g>
</g>
<!-- Node19&#45;&gt;Node20 -->
<g id="edge53" class="edge">
<title>Node19&#45;&gt;Node20</title>
<path fill="none" stroke="#191970" d="M817,-380.3906C817,-371.8657 817,-359.1392 817,-348.4235"/>
<polygon fill="#191970" stroke="#191970" points="820.5001,-348.2448 817,-338.2449 813.5001,-348.2449 820.5001,-348.2448"/>
</g>
<!-- Node21 -->
<g id="node22" class="node">
<title>Node21</title>
<g id="a_node22"><a xlink:href="$equilibrium__probs_8h.html" xlink:title="Equilibrium Probability implementations.">
<polygon fill="none" stroke="#000000" points="624,-313.5 624,-343.5 742,-343.5 742,-313.5 624,-313.5"/>
<text text-anchor="start" x="632" y="-331.5" font-family="Helvetica,sans-Serif" font-size="10.00" fill="#000000">ViennaRNA/equilibrium</text>
<text text-anchor="middle" x="683" y="-320.5" font-family="Helvetica,sans-Serif" font-size="10.00" fill="#000000">_probs.h</text>
</a>
</g>
</g>
<!-- Node19&#45;&gt;Node21 -->
<g id="edge57" class="edge">
<title>Node19&#45;&gt;Node21</title>
<path fill="none" stroke="#191970" d="M796.0625,-380.3906C777.0876,-371.682 748.5593,-358.5888 724.9074,-347.7336"/>
<polygon fill="#191970" stroke="#191970" points="726.3285,-344.5349 715.7801,-343.5446 723.4087,-350.8968 726.3285,-344.5349"/>
</g>
<!-- Node19&#45;&gt;Node22 -->
<g id="edge62" class="edge">
<title>Node19&#45;&gt;Node22</title>
<path fill="none" stroke="#191970" d="M843.7188,-380.3906C868.4687,-371.4893 905.9553,-358.0073 936.515,-347.0165"/>
<polygon fill="#191970" stroke="#191970" points="937.9433,-350.2224 946.1687,-343.5446 935.5742,-343.6355 937.9433,-350.2224"/>
</g>
<!-- Node20&#45;&gt;Node1 -->
<g id="edge54" class="edge">
<title>Node20&#45;&gt;Node1</title>
<path fill="none" stroke="#191970" d="M785.3361,-318.9005C751.5248,-308.6501 697.1657,-292.1702 655.348,-279.4924"/>
<polygon fill="#191970" stroke="#191970" points="656.1348,-276.0736 645.5494,-276.5218 654.1038,-282.7726 656.1348,-276.0736"/>
</g>
<!-- Node20&#45;&gt;Node4 -->
<g id="edge55" class="edge">
<title>Node20&#45;&gt;Node4</title>
<path fill="none" stroke="#191970" d="M815.8726,-318.8416C813.4293,-297.9114 807.6036,-248.004 804.3319,-219.9762"/>
<polygon fill="#191970" stroke="#191970" points="807.7764,-219.2972 803.1405,-209.7705 800.8237,-220.1089 807.7764,-219.2972"/>
</g>
<!-- Node20&#45;&gt;Node15 -->
<g id="edge56" class="edge">
<title>Node20&#45;&gt;Node15</title>
<path fill="none" stroke="#191970" d="M874.1412,-319.412C889.3474,-317.1501 905.7774,-314.8465 921,-313 1091.1676,-292.3582 1138.4391,-317.5039 1305,-277 1309.8317,-275.825 1468.2187,-214.1219 1471,-210 1495.5604,-173.6016 1478.2072,-119.1062 1466.0629,-90.535"/>
<polygon fill="#191970" stroke="#191970" points="1469.1926,-88.96 1461.9117,-81.2633 1462.8037,-91.8205 1469.1926,-88.96"/>
</g>
<!-- Node21&#45;&gt;Node1 -->
<g id="edge58" class="edge">
<title>Node21&#45;&gt;Node1</title>
<path fill="none" stroke="#191970" d="M663.2584,-313.2967C651.5787,-304.302 636.6027,-292.7687 623.7483,-282.8694"/>
<polygon fill="#191970" stroke="#191970" points="625.7219,-279.9717 615.6635,-276.6432 621.4509,-285.5177 625.7219,-279.9717"/>
</g>
<!-- Node21&#45;&gt;Node4 -->
<g id="edge59" class="edge">
<title>Node21&#45;&gt;Node4</title>
<path fill="none" stroke="#191970" d="M697.1182,-313.2548C719.4508,-289.1393 762.7839,-242.3468 786.1508,-217.1145"/>
<polygon fill="#191970" stroke="#191970" points="788.7573,-219.451 792.984,-209.7358 783.6213,-214.6948 788.7573,-219.451"/>
</g>
<!-- Node21&#45;&gt;Node6 -->
<g id="edge61" class="edge">
<title>Node21&#45;&gt;Node6</title>
<path fill="none" stroke="#191970" d="M623.8679,-314.3854C547.4154,-295.1989 410.9246,-257.7387 300,-210 262.2858,-193.7689 221.3563,-169.3868 196.4407,-153.7084"/>
<polygon fill="#191970" stroke="#191970" points="198.0323,-150.5729 187.7157,-148.1608 194.2764,-156.4799 198.0323,-150.5729"/>
</g>
<!-- Node21&#45;&gt;Node15 -->
<g id="edge60" class="edge">
<title>Node21&#45;&gt;Node15</title>
<path fill="none" stroke="#191970" d="M742.0997,-314.5035C909.899,-274.6929 1378.0703,-163.0981 1392,-154 1416.8307,-137.782 1436.3474,-108.8698 1447.2793,-89.9404"/>
<polygon fill="#191970" stroke="#191970" points="1450.4084,-91.5146 1452.1961,-81.0716 1444.2863,-88.1205 1450.4084,-91.5146"/>
</g>
<!-- Node22&#45;&gt;Node4 -->
<g id="edge63" class="edge">
<title>Node22&#45;&gt;Node4</title>
<path fill="none" stroke="#191970" d="M978.2186,-313.4871C965.7147,-295.3247 942.4878,-264.8456 916,-246 895.2646,-231.2471 869.1134,-220.2578 847.09,-212.7266"/>
<polygon fill="#191970" stroke="#191970" points="847.8887,-209.305 837.2958,-209.5086 845.7036,-215.9553 847.8887,-209.305"/>
</g>
<!-- Node23&#45;&gt;Node4 -->
<g id="edge65" class="edge">
<title>Node23&#45;&gt;Node4</title>
<path fill="none" stroke="#191970" d="M1395.4308,-251.9782C1378.2398,-249.8842 1359.9893,-247.7666 1343,-246 1181.1007,-229.165 991.4633,-214.1118 885.1708,-206.0965"/>
<polygon fill="#191970" stroke="#191970" points="885.3827,-202.6026 875.1484,-205.343 884.8578,-209.5829 885.3827,-202.6026"/>
</g>
<!-- Node23&#45;&gt;Node5 -->
<g id="edge66" class="edge">
<title>Node23&#45;&gt;Node5</title>
<path fill="none" stroke="#191970" d="M1463.7774,-251.9796C1448.9659,-226.0267 1403.8569,-153.9202 1344,-123 1280.1417,-90.0128 1074.366,-77.7107 969.1817,-73.4958"/>
<polygon fill="#191970" stroke="#191970" points="969.1457,-69.9918 959.0174,-73.1011 968.8741,-76.9866 969.1457,-69.9918"/>
</g>
<!-- Node23&#45;&gt;Node16 -->
<g id="edge67" class="edge">
<title>Node23&#45;&gt;Node16</title>
<path fill="none" stroke="#191970" d="M1477.5996,-251.9179C1503.7805,-221.5361 1578.3275,-125.2788 1538,-56 1527.5659,-38.0752 1507.2571,-26.5652 1489.5863,-19.5415"/>
<polygon fill="#191970" stroke="#191970" points="1490.714,-16.2273 1480.1201,-16.0887 1488.3153,-22.8035 1490.714,-16.2273"/>
</g>
</g>
</svg>
