<?xml version="1.0" encoding="UTF-8" standalone="no"?>
<!DOCTYPE svg PUBLIC "-//W3C//DTD SVG 1.1//EN"
 "http://www.w3.org/Graphics/SVG/1.1/DTD/svg11.dtd">
<!-- Generated by graphviz version 2.40.1 (0)
 -->
<!-- Title: ViennaRNA/alphabet.h Pages: 1 -->
<svg width="1223pt" height="397pt"
 viewBox="0.00 0.00 1222.50 397.00" xmlns="http://www.w3.org/2000/svg" xmlns:xlink="http://www.w3.org/1999/xlink">
<g id="graph0" class="graph" transform="scale(1 1) rotate(0) translate(4 393)">
<title>ViennaRNA/alphabet.h</title>
<!-- Node0 -->
<g id="node1" class="node">
<title>Node0</title>
<g id="a_node1"><a xlink:title="Functions to process, convert, and generally handle different nucleotide and/or base pair alphabets.">
<polygon fill="#bfbfbf" stroke="#000000" points="254,-369.5 254,-388.5 370,-388.5 370,-369.5 254,-369.5"/>
<text text-anchor="middle" x="312" y="-376.5" font-family="Helvetica,sans-Serif" font-size="10.00" fill="#000000">ViennaRNA/alphabet.h</text>
</a>
</g>
</g>
<!-- Node1 -->
<g id="node2" class="node">
<title>Node1</title>
<g id="a_node2"><a xlink:href="$fold__compound_8h.html" xlink:title="The Basic Fold Compound API.">
<polygon fill="none" stroke="#000000" points="638,-313.5 638,-332.5 784,-332.5 784,-313.5 638,-313.5"/>
<text text-anchor="middle" x="711" y="-320.5" font-family="Helvetica,sans-Serif" font-size="10.00" fill="#000000">ViennaRNA/fold_compound.h</text>
</a>
</g>
</g>
<!-- Node0&#45;&gt;Node1 -->
<g id="edge1" class="edge">
<title>Node0&#45;&gt;Node1</title>
<path fill="none" stroke="#191970" d="M370.018,-370.8571C439.4159,-361.1171 555.8726,-344.7723 633.0728,-333.9372"/>
<polygon fill="#191970" stroke="#191970" points="633.8095,-337.3681 643.226,-332.5121 632.8365,-330.4361 633.8095,-337.3681"/>
</g>
<!-- Node2 -->
<g id="node3" class="node">
<title>Node2</title>
<g id="a_node3"><a xlink:href="$model_8h.html" xlink:title="The model details data structure and its corresponding modifiers.">
<polygon fill="none" stroke="#000000" points="0,-129 0,-148 106,-148 106,-129 0,-129"/>
<text text-anchor="middle" x="53" y="-136" font-family="Helvetica,sans-Serif" font-size="10.00" fill="#000000">ViennaRNA/model.h</text>
</a>
</g>
</g>
<!-- Node0&#45;&gt;Node2 -->
<g id="edge42" class="edge">
<title>Node0&#45;&gt;Node2</title>
<path fill="none" stroke="#191970" d="M301.5261,-369.2742C261.9019,-332.4803 120.8878,-201.5386 70.806,-155.0341"/>
<polygon fill="#191970" stroke="#191970" points="73.03,-152.323 63.3205,-148.0833 68.2668,-157.4526 73.03,-152.323"/>
</g>
<!-- Node1&#45;&gt;Node2 -->
<g id="edge2" class="edge">
<title>Node1&#45;&gt;Node2</title>
<path fill="none" stroke="#191970" d="M637.8293,-318.1028C570.8327,-312.3552 469.4121,-300.4569 384,-277 266.7001,-244.7857 135.7575,-181.1302 80.2369,-152.7439"/>
<polygon fill="#191970" stroke="#191970" points="81.5645,-149.4909 71.0713,-148.0267 78.3612,-155.7149 81.5645,-149.4909"/>
</g>
<!-- Node3 -->
<g id="node4" class="node">
<title>Node3</title>
<g id="a_node4"><a xlink:href="$params_2basic_8h.html" xlink:title="Functions to deal with sets of energy parameters.">
<polygon fill="none" stroke="#000000" points="442,-257.5 442,-276.5 580,-276.5 580,-257.5 442,-257.5"/>
<text text-anchor="middle" x="511" y="-264.5" font-family="Helvetica,sans-Serif" font-size="10.00" fill="#000000">ViennaRNA/params/basic.h</text>
</a>
</g>
</g>
<!-- Node1&#45;&gt;Node3 -->
<g id="edge3" class="edge">
<title>Node1&#45;&gt;Node3</title>
<path fill="none" stroke="#191970" d="M671.3768,-313.3733C635.9944,-303.9807 584.6537,-289.6496 549.5916,-279.4064"/>
<polygon fill="#191970" stroke="#191970" points="550.2966,-275.9655 539.7153,-276.5011 548.3211,-282.681 550.2966,-275.9655"/>
</g>
<!-- Node7 -->
<g id="node8" class="node">
<title>Node7</title>
<g id="a_node8"><a xlink:href="$dp__matrices_8h.html" xlink:title="Functions to deal with standard dynamic programming (DP) matrices.">
<polygon fill="none" stroke="#000000" points="124.5,-129 124.5,-148 257.5,-148 257.5,-129 124.5,-129"/>
<text text-anchor="middle" x="191" y="-136" font-family="Helvetica,sans-Serif" font-size="10.00" fill="#000000">ViennaRNA/dp_matrices.h</text>
</a>
</g>
</g>
<!-- Node1&#45;&gt;Node7 -->
<g id="edge36" class="edge">
<title>Node1&#45;&gt;Node7</title>
<path fill="none" stroke="#191970" d="M637.9121,-318.7105C578.6462,-313.4349 493.9395,-301.8896 424,-277 336.6018,-245.8973 244.4425,-183.7487 207.4012,-154.464"/>
<polygon fill="#191970" stroke="#191970" points="209.547,-151.6976 199.5861,-148.0874 205.1216,-157.1213 209.547,-151.6976"/>
</g>
<!-- Node8 -->
<g id="node9" class="node">
<title>Node8</title>
<g id="a_node9"><a xlink:href="$hard_8h.html" xlink:title="Functions and data structures for handling of secondary structure hard constraints.">
<polygon fill="none" stroke="#000000" points="1095.5,-123.5 1095.5,-153.5 1214.5,-153.5 1214.5,-123.5 1095.5,-123.5"/>
<text text-anchor="start" x="1103.5" y="-141.5" font-family="Helvetica,sans-Serif" font-size="10.00" fill="#000000">ViennaRNA/constraints</text>
<text text-anchor="middle" x="1155" y="-130.5" font-family="Helvetica,sans-Serif" font-size="10.00" fill="#000000">/hard.h</text>
</a>
</g>
</g>
<!-- Node1&#45;&gt;Node8 -->
<g id="edge37" class="edge">
<title>Node1&#45;&gt;Node8</title>
<path fill="none" stroke="#191970" d="M784.2131,-319.2331C894.7322,-313.0721 1093.6684,-299.2493 1118,-277 1149.2553,-248.4196 1151.0884,-195.3975 1151.729,-163.8988"/>
<polygon fill="#191970" stroke="#191970" points="1155.2318,-163.8047 1151.9521,-153.7303 1148.2335,-163.6511 1155.2318,-163.8047"/>
</g>
<!-- Node10 -->
<g id="node11" class="node">
<title>Node10</title>
<g id="a_node11"><a xlink:href="$soft_8h.html" xlink:title="Functions and data structures for secondary structure soft constraints.">
<polygon fill="none" stroke="#000000" points="651.5,-123.5 651.5,-153.5 770.5,-153.5 770.5,-123.5 651.5,-123.5"/>
<text text-anchor="start" x="659.5" y="-141.5" font-family="Helvetica,sans-Serif" font-size="10.00" fill="#000000">ViennaRNA/constraints</text>
<text text-anchor="middle" x="711" y="-130.5" font-family="Helvetica,sans-Serif" font-size="10.00" fill="#000000">/soft.h</text>
</a>
</g>
</g>
<!-- Node1&#45;&gt;Node10 -->
<g id="edge38" class="edge">
<title>Node1&#45;&gt;Node10</title>
<path fill="none" stroke="#191970" d="M707.7751,-313.3402C703.6872,-285.6387 703.1547,-205.2663 706.1776,-163.8429"/>
<polygon fill="#191970" stroke="#191970" points="709.6768,-164.0063 707.0732,-153.7363 702.7041,-163.3883 709.6768,-164.0063"/>
</g>
<!-- Node11 -->
<g id="node12" class="node">
<title>Node11</title>
<g id="a_node12"><a xlink:href="$grammar_8h.html" xlink:title="Implementations for the RNA folding grammar.">
<polygon fill="none" stroke="#000000" points="788.5,-129 788.5,-148 905.5,-148 905.5,-129 788.5,-129"/>
<text text-anchor="middle" x="847" y="-136" font-family="Helvetica,sans-Serif" font-size="10.00" fill="#000000">ViennaRNA/grammar.h</text>
</a>
</g>
</g>
<!-- Node1&#45;&gt;Node11 -->
<g id="edge39" class="edge">
<title>Node1&#45;&gt;Node11</title>
<path fill="none" stroke="#191970" d="M714.8955,-313.3402C732.3705,-283.6996 798.3666,-193.7563 830.1506,-155.7481"/>
<polygon fill="#191970" stroke="#191970" points="832.8869,-157.9338 836.7392,-148.0641 827.5729,-153.3773 832.8869,-157.9338"/>
</g>
<!-- Node12 -->
<g id="node13" class="node">
<title>Node12</title>
<g id="a_node13"><a xlink:href="$structured__domains_8h.html" xlink:title="This module provides interfaces that deal with additional structured domains in the folding grammar.">
<polygon fill="none" stroke="#000000" points="923.5,-123.5 923.5,-153.5 1038.5,-153.5 1038.5,-123.5 923.5,-123.5"/>
<text text-anchor="start" x="931.5" y="-141.5" font-family="Helvetica,sans-Serif" font-size="10.00" fill="#000000">ViennaRNA/structured</text>
<text text-anchor="middle" x="981" y="-130.5" font-family="Helvetica,sans-Serif" font-size="10.00" fill="#000000">_domains.h</text>
</a>
</g>
</g>
<!-- Node1&#45;&gt;Node12 -->
<g id="edge40" class="edge">
<title>Node1&#45;&gt;Node12</title>
<path fill="none" stroke="#191970" d="M725.1362,-313.3402C767.1414,-284.6367 891.9026,-199.3832 950.2607,-159.5052"/>
<polygon fill="#191970" stroke="#191970" points="952.4211,-162.268 958.7029,-153.7363 948.4718,-156.4885 952.4211,-162.268"/>
</g>
<!-- Node13 -->
<g id="node14" class="node">
<title>Node13</title>
<g id="a_node14"><a xlink:href="$unstructured__domains_8h.html" xlink:title="Functions to modify unstructured domains, e.g. to incorporate ligands binding to unpaired stretches.">
<polygon fill="none" stroke="#000000" points="508.5,-123.5 508.5,-153.5 633.5,-153.5 633.5,-123.5 508.5,-123.5"/>
<text text-anchor="start" x="516.5" y="-141.5" font-family="Helvetica,sans-Serif" font-size="10.00" fill="#000000">ViennaRNA/unstructured</text>
<text text-anchor="middle" x="571" y="-130.5" font-family="Helvetica,sans-Serif" font-size="10.00" fill="#000000">_domains.h</text>
</a>
</g>
</g>
<!-- Node1&#45;&gt;Node13 -->
<g id="edge41" class="edge">
<title>Node1&#45;&gt;Node13</title>
<path fill="none" stroke="#191970" d="M700.4452,-313.3402C675.0166,-285.285 612.2408,-203.2056 584.3363,-162.2757"/>
<polygon fill="#191970" stroke="#191970" points="587.0984,-160.1094 578.6346,-153.7363 581.2768,-163.9964 587.0984,-160.1094"/>
</g>
<!-- Node16 -->
<g id="node17" class="node">
<title>Node16</title>
<g id="a_node17"><a xlink:href="$sequence_8h.html" xlink:title="Functions and data structures related to sequence representations ,.">
<polygon fill="none" stroke="#000000" points="996,-257.5 996,-276.5 1118,-276.5 1118,-257.5 996,-257.5"/>
<text text-anchor="middle" x="1057" y="-264.5" font-family="Helvetica,sans-Serif" font-size="10.00" fill="#000000">ViennaRNA/sequence.h</text>
</a>
</g>
</g>
<!-- Node1&#45;&gt;Node16 -->
<g id="edge34" class="edge">
<title>Node1&#45;&gt;Node16</title>
<path fill="none" stroke="#191970" d="M764.8568,-313.4369C824.2761,-303.5033 920.0167,-287.9966 985.6324,-277.671"/>
<polygon fill="#191970" stroke="#191970" points="986.5583,-281.0686 995.8945,-276.06 985.4726,-274.1533 986.5583,-281.0686"/>
</g>
<!-- Node3&#45;&gt;Node1 -->
<g id="edge32" class="edge">
<title>Node3&#45;&gt;Node1</title>
<path fill="none" stroke="#191970" d="M550.1499,-276.5011C585.389,-285.8494 636.7305,-300.1765 671.9374,-310.4561"/>
<polygon fill="#191970" stroke="#191970" points="671.2796,-313.9108 681.8608,-313.3733 673.2539,-307.1949 671.2796,-313.9108"/>
</g>
<!-- Node3&#45;&gt;Node2 -->
<g id="edge33" class="edge">
<title>Node3&#45;&gt;Node2</title>
<path fill="none" stroke="#191970" d="M476.9497,-257.4466C395.1238,-234.4889 187.5067,-176.2382 96.6734,-150.7533"/>
<polygon fill="#191970" stroke="#191970" points="97.5369,-147.3605 86.9632,-148.029 95.6459,-154.1003 97.5369,-147.3605"/>
</g>
<!-- Node4 -->
<g id="node5" class="node">
<title>Node4</title>
<g id="a_node5"><a xlink:href="$constants_8h.html" xlink:title="Energy parameter constants.">
<polygon fill="none" stroke="#000000" points="276,-129 276,-148 434,-148 434,-129 276,-129"/>
<text text-anchor="middle" x="355" y="-136" font-family="Helvetica,sans-Serif" font-size="10.00" fill="#000000">ViennaRNA/params/constants.h</text>
</a>
</g>
</g>
<!-- Node3&#45;&gt;Node4 -->
<g id="edge4" class="edge">
<title>Node3&#45;&gt;Node4</title>
<path fill="none" stroke="#191970" d="M499.4109,-257.4924C488.0821,-248.1956 470.3477,-233.6344 455,-221 427.0241,-197.9699 394.6843,-171.2767 374.5347,-154.6368"/>
<polygon fill="#191970" stroke="#191970" points="376.6329,-151.8303 366.6938,-148.1609 372.1753,-157.2276 376.6329,-151.8303"/>
</g>
<!-- Node6 -->
<g id="node7" class="node">
<title>Node6</title>
<g id="a_node7"><a xlink:href="$datastructures_2basic_8h.html" xlink:title="Various data structures and pre&#45;processor macros.">
<polygon fill="none" stroke="#000000" points="464,-190.5 464,-220.5 598,-220.5 598,-190.5 464,-190.5"/>
<text text-anchor="start" x="472" y="-208.5" font-family="Helvetica,sans-Serif" font-size="10.00" fill="#000000">ViennaRNA/datastructures</text>
<text text-anchor="middle" x="531" y="-197.5" font-family="Helvetica,sans-Serif" font-size="10.00" fill="#000000">/basic.h</text>
</a>
</g>
</g>
<!-- Node3&#45;&gt;Node6 -->
<g id="edge6" class="edge">
<title>Node3&#45;&gt;Node6</title>
<path fill="none" stroke="#191970" d="M509.0625,-257.3906C510.0149,-250.0692 512.8821,-239.6488 516.3844,-230.0647"/>
<polygon fill="#191970" stroke="#191970" points="519.7289,-231.1285 520.2104,-220.5446 513.2337,-228.5181 519.7289,-231.1285"/>
</g>
<!-- Node5 -->
<g id="node6" class="node">
<title>Node5</title>
<g id="a_node6"><a xlink:title=" ">
<polygon fill="none" stroke="#bfbfbf" points="331,-62 331,-81 379,-81 379,-62 331,-62"/>
<text text-anchor="middle" x="355" y="-69" font-family="Helvetica,sans-Serif" font-size="10.00" fill="#000000">limits.h</text>
</a>
</g>
</g>
<!-- Node4&#45;&gt;Node5 -->
<g id="edge5" class="edge">
<title>Node4&#45;&gt;Node5</title>
<path fill="none" stroke="#191970" d="M355,-128.9005C355,-119.149 355,-103.7597 355,-91.3695"/>
<polygon fill="#191970" stroke="#191970" points="358.5001,-91.0816 355,-81.0817 351.5001,-91.0817 358.5001,-91.0816"/>
</g>
<!-- Node6&#45;&gt;Node1 -->
<g id="edge8" class="edge">
<title>Node6&#45;&gt;Node1</title>
<path fill="none" stroke="#191970" d="M551.1395,-220.5567C571.2679,-235.4132 603.2718,-258.519 632,-277 649.1329,-288.0217 668.9458,-299.5554 684.4439,-308.3168"/>
<polygon fill="#191970" stroke="#191970" points="683.0401,-311.5424 693.4736,-313.3843 686.466,-305.438 683.0401,-311.5424"/>
</g>
<!-- Node6&#45;&gt;Node2 -->
<g id="edge9" class="edge">
<title>Node6&#45;&gt;Node2</title>
<path fill="none" stroke="#191970" d="M463.917,-197.65C355.0011,-184.8365 148.4469,-160.2272 115,-154 109.478,-152.9719 103.7153,-151.7443 98.0232,-150.4362"/>
<polygon fill="#191970" stroke="#191970" points="98.4605,-146.9422 87.9207,-148.0206 96.8326,-153.7503 98.4605,-146.9422"/>
</g>
<!-- Node6&#45;&gt;Node3 -->
<g id="edge10" class="edge">
<title>Node6&#45;&gt;Node3</title>
<path fill="none" stroke="#191970" d="M532.0045,-220.5446C530.2837,-228.8934 527.007,-239.3537 523.3751,-248.2334"/>
<polygon fill="#191970" stroke="#191970" points="520.1633,-246.8408 519.1875,-257.3906 526.5293,-249.752 520.1633,-246.8408"/>
</g>
<!-- Node6&#45;&gt;Node4 -->
<g id="edge7" class="edge">
<title>Node6&#45;&gt;Node4</title>
<path fill="none" stroke="#191970" d="M491.5022,-190.4639C460.8164,-178.7824 418.6882,-162.7449 389.3814,-151.5884"/>
<polygon fill="#191970" stroke="#191970" points="390.5601,-148.2921 379.9691,-148.0053 388.0696,-154.8341 390.5601,-148.2921"/>
</g>
<!-- Node6&#45;&gt;Node7 -->
<g id="edge11" class="edge">
<title>Node6&#45;&gt;Node7</title>
<path fill="none" stroke="#191970" d="M463.8564,-193.9359C408.4168,-183.5927 327.9515,-167.9559 258,-154 251.7603,-152.7551 245.2348,-151.4418 238.7983,-150.1276"/>
<polygon fill="#191970" stroke="#191970" points="239.3112,-146.6598 228.8108,-148.0715 237.8997,-153.5161 239.3112,-146.6598"/>
</g>
<!-- Node6&#45;&gt;Node8 -->
<g id="edge14" class="edge">
<title>Node6&#45;&gt;Node8</title>
<path fill="none" stroke="#191970" d="M598.03,-199.7843C696.7121,-191.1518 886.8363,-173.6902 1048,-154 1060.0087,-152.5328 1072.7531,-150.8219 1085.1015,-149.083"/>
<polygon fill="#191970" stroke="#191970" points="1085.9506,-152.4974 1095.3562,-147.6205 1084.9622,-145.5676 1085.9506,-152.4974"/>
</g>
<!-- Node6&#45;&gt;Node10 -->
<g id="edge18" class="edge">
<title>Node6&#45;&gt;Node10</title>
<path fill="none" stroke="#191970" d="M565.655,-190.4639C590.9888,-180.5849 625.7744,-167.5905 655.0024,-157.0675"/>
<polygon fill="#191970" stroke="#191970" points="656.4454,-160.2685 664.6798,-153.6017 654.0852,-153.6784 656.4454,-160.2685"/>
</g>
<!-- Node6&#45;&gt;Node11 -->
<g id="edge22" class="edge">
<title>Node6&#45;&gt;Node11</title>
<path fill="none" stroke="#191970" d="M598.199,-192.0445C648.3603,-181.8929 718.5517,-167.4605 780,-154 785.3211,-152.8344 790.8736,-151.5919 796.4061,-150.337"/>
<polygon fill="#191970" stroke="#191970" points="797.3197,-153.7186 806.2886,-148.0787 795.7602,-146.8945 797.3197,-153.7186"/>
</g>
<!-- Node6&#45;&gt;Node12 -->
<g id="edge24" class="edge">
<title>Node6&#45;&gt;Node12</title>
<path fill="none" stroke="#191970" d="M598.2533,-198.4881C672.9836,-190.2453 797.396,-175.184 913.3599,-154.2064"/>
<polygon fill="#191970" stroke="#191970" points="914.2689,-157.5984 923.4765,-152.3572 913.0101,-150.7125 914.2689,-157.5984"/>
</g>
<!-- Node6&#45;&gt;Node13 -->
<g id="edge25" class="edge">
<title>Node6&#45;&gt;Node13</title>
<path fill="none" stroke="#191970" d="M534.3158,-190.2967C538.2753,-181.9873 544.2884,-171.5115 550.3912,-162.1587"/>
<polygon fill="#191970" stroke="#191970" points="553.4572,-163.8753 556.2058,-153.6432 547.6763,-159.928 553.4572,-163.8753"/>
</g>
<!-- Node14 -->
<g id="node15" class="node">
<title>Node14</title>
<g id="a_node15"><a xlink:href="$utils_2structures_8h.html" xlink:title="Various utility&#45; and helper&#45;functions for secondary structure parsing, converting,...">
<polygon fill="none" stroke="#000000" points="399,-62 399,-81 543,-81 543,-62 399,-62"/>
<text text-anchor="middle" x="471" y="-69" font-family="Helvetica,sans-Serif" font-size="10.00" fill="#000000">ViennaRNA/utils/structures.h</text>
</a>
</g>
</g>
<!-- Node6&#45;&gt;Node14 -->
<g id="edge31" class="edge">
<title>Node6&#45;&gt;Node14</title>
<path fill="none" stroke="#191970" d="M512.5222,-190.2478C504.5133,-180.2649 496.0283,-166.7523 490,-154 480.336,-133.5567 472.4102,-108.8549 469.2807,-91.8404"/>
<polygon fill="#191970" stroke="#191970" points="472.6871,-90.8967 467.9179,-81.436 465.7464,-91.8059 472.6871,-90.8967"/>
</g>
<!-- Node7&#45;&gt;Node1 -->
<g id="edge13" class="edge">
<title>Node7&#45;&gt;Node1</title>
<path fill="none" stroke="#191970" d="M208.0699,-148.0874C247.6353,-173.5844 347.5952,-243.4039 442,-277 502.2927,-298.4565 573.5597,-309.9961 627.6397,-316.1511"/>
<polygon fill="#191970" stroke="#191970" points="627.5518,-319.6624 637.8742,-317.2752 628.3161,-312.7042 627.5518,-319.6624"/>
</g>
<!-- Node7&#45;&gt;Node6 -->
<g id="edge12" class="edge">
<title>Node7&#45;&gt;Node6</title>
<path fill="none" stroke="#191970" d="M246.4104,-148.0715C256.3203,-150.0471 266.4918,-152.103 276,-154 335.891,-165.9487 403.489,-179.1297 454.0891,-189.1655"/>
<polygon fill="#191970" stroke="#191970" points="453.4848,-192.6137 463.9751,-191.1294 454.8488,-185.7479 453.4848,-192.6137"/>
</g>
<!-- Node8&#45;&gt;Node1 -->
<g id="edge15" class="edge">
<title>Node8&#45;&gt;Node1</title>
<path fill="none" stroke="#191970" d="M1162.2391,-153.7303C1169.1117,-182.5547 1170.9404,-245.0499 1136,-277 1111.5679,-299.3412 911.0861,-313.1861 794.3539,-319.309"/>
<polygon fill="#191970" stroke="#191970" points="793.8268,-315.8315 784.0206,-319.8423 794.1877,-322.8222 793.8268,-315.8315"/>
</g>
<!-- Node9 -->
<g id="node10" class="node">
<title>Node9</title>
<g id="a_node10"><a xlink:href="$constraints_2basic_8h.html" xlink:title="Functions and data structures for constraining secondary structure predictions and evaluation.">
<polygon fill="none" stroke="#000000" points="1007.5,-56.5 1007.5,-86.5 1126.5,-86.5 1126.5,-56.5 1007.5,-56.5"/>
<text text-anchor="start" x="1015.5" y="-74.5" font-family="Helvetica,sans-Serif" font-size="10.00" fill="#000000">ViennaRNA/constraints</text>
<text text-anchor="middle" x="1067" y="-63.5" font-family="Helvetica,sans-Serif" font-size="10.00" fill="#000000">/basic.h</text>
</a>
</g>
</g>
<!-- Node8&#45;&gt;Node9 -->
<g id="edge16" class="edge">
<title>Node8&#45;&gt;Node9</title>
<path fill="none" stroke="#191970" d="M1135.0314,-123.2967C1123.2175,-114.302 1108.0694,-102.7687 1095.0673,-92.8694"/>
<polygon fill="#191970" stroke="#191970" points="1096.9662,-89.9162 1086.8895,-86.6432 1092.7257,-95.4857 1096.9662,-89.9162"/>
</g>
<!-- Node9&#45;&gt;Node1 -->
<g id="edge17" class="edge">
<title>Node9&#45;&gt;Node1</title>
<path fill="none" stroke="#191970" d="M1067.2177,-86.511C1066.7172,-104.3927 1063.3877,-134.3141 1048,-154 976.345,-245.6703 841.7032,-291.5196 766.1041,-310.9813"/>
<polygon fill="#191970" stroke="#191970" points="765.1364,-307.6155 756.2894,-313.4448 766.8407,-314.4049 765.1364,-307.6155"/>
</g>
<!-- Node10&#45;&gt;Node1 -->
<g id="edge20" class="edge">
<title>Node10&#45;&gt;Node1</title>
<path fill="none" stroke="#191970" d="M714.9268,-153.7363C718.5384,-187.0364 718.6849,-266.277 715.3661,-303.3025"/>
<polygon fill="#191970" stroke="#191970" points="711.8771,-303.0089 714.2249,-313.3402 718.8322,-303.7997 711.8771,-303.0089"/>
</g>
<!-- Node10&#45;&gt;Node6 -->
<g id="edge19" class="edge">
<title>Node10&#45;&gt;Node6</title>
<path fill="none" stroke="#191970" d="M676.1768,-153.6017C650.8013,-163.4945 616.0071,-176.4903 586.8038,-187.0023"/>
<polygon fill="#191970" stroke="#191970" points="585.3708,-183.7977 577.136,-190.4639 587.7306,-190.3879 585.3708,-183.7977"/>
</g>
<!-- Node10&#45;&gt;Node9 -->
<g id="edge21" class="edge">
<title>Node10&#45;&gt;Node9</title>
<path fill="none" stroke="#191970" d="M770.8052,-124.8987C773.9122,-124.2443 776.9913,-123.6076 780,-123 853.9598,-108.0645 939.087,-93.0627 997.3058,-83.1348"/>
<polygon fill="#191970" stroke="#191970" points="998.2214,-86.5295 1007.4932,-81.4026 997.0479,-79.6285 998.2214,-86.5295"/>
</g>
<!-- Node11&#45;&gt;Node1 -->
<g id="edge23" class="edge">
<title>Node11&#45;&gt;Node1</title>
<path fill="none" stroke="#191970" d="M843.1608,-148.0641C825.7906,-177.5747 759.8099,-267.5088 727.9523,-305.6288"/>
<polygon fill="#191970" stroke="#191970" points="725.1938,-303.469 721.3454,-313.3402 730.5096,-308.0234 725.1938,-303.469"/>
</g>
<!-- Node13&#45;&gt;Node1 -->
<g id="edge27" class="edge">
<title>Node13&#45;&gt;Node1</title>
<path fill="none" stroke="#191970" d="M586.4883,-153.7363C615.7417,-187.467 677.2071,-268.334 701.3627,-304.7174"/>
<polygon fill="#191970" stroke="#191970" points="698.5491,-306.8136 706.895,-313.3402 704.4408,-303.0336 698.5491,-306.8136"/>
</g>
<!-- Node13&#45;&gt;Node6 -->
<g id="edge26" class="edge">
<title>Node13&#45;&gt;Node6</title>
<path fill="none" stroke="#191970" d="M567.7129,-153.6432C563.7633,-161.9421 557.7554,-172.4154 551.653,-181.7735"/>
<polygon fill="#191970" stroke="#191970" points="548.5826,-180.0636 545.8374,-190.2967 554.3648,-184.009 548.5826,-180.0636"/>
</g>
<!-- Node13&#45;&gt;Node14 -->
<g id="edge28" class="edge">
<title>Node13&#45;&gt;Node14</title>
<path fill="none" stroke="#191970" d="M548.3085,-123.2967C531.9717,-112.351 510.0241,-97.6462 493.6881,-86.701"/>
<polygon fill="#191970" stroke="#191970" points="495.517,-83.7135 485.2612,-81.055 491.6207,-89.5289 495.517,-83.7135"/>
</g>
<!-- Node14&#45;&gt;Node6 -->
<g id="edge30" class="edge">
<title>Node14&#45;&gt;Node6</title>
<path fill="none" stroke="#191970" d="M479.2344,-81.436C486.8447,-97.2273 496.1059,-128.839 508,-154 512.3799,-163.2654 518.0567,-172.932 522.9154,-181.3547"/>
<polygon fill="#191970" stroke="#191970" points="519.9739,-183.2635 527.9407,-190.2478 526.0682,-179.8198 519.9739,-183.2635"/>
</g>
<!-- Node15 -->
<g id="node16" class="node">
<title>Node15</title>
<g id="a_node16"><a xlink:title=" ">
<polygon fill="none" stroke="#bfbfbf" points="448,-.5 448,-19.5 494,-19.5 494,-.5 448,-.5"/>
<text text-anchor="middle" x="471" y="-7.5" font-family="Helvetica,sans-Serif" font-size="10.00" fill="#000000">stdio.h</text>
</a>
</g>
</g>
<!-- Node14&#45;&gt;Node15 -->
<g id="edge29" class="edge">
<title>Node14&#45;&gt;Node15</title>
<path fill="none" stroke="#191970" d="M471,-61.8906C471,-53.3657 471,-40.6392 471,-29.9235"/>
<polygon fill="#191970" stroke="#191970" points="474.5001,-29.7448 471,-19.7449 467.5001,-29.7449 474.5001,-29.7448"/>
</g>
<!-- Node16&#45;&gt;Node1 -->
<g id="edge35" class="edge">
<title>Node16&#45;&gt;Node1</title>
<path fill="none" stroke="#191970" d="M1003.3791,-276.5237C944.9415,-286.2944 851.1734,-301.487 785.5899,-311.8215"/>
<polygon fill="#191970" stroke="#191970" points="784.6509,-308.4261 775.3159,-313.4369 785.7382,-315.3412 784.6509,-308.4261"/>
</g>
</g>
</svg>
