<?xml version="1.0" encoding="UTF-8" standalone="no"?>
<!DOCTYPE svg PUBLIC "-//W3C//DTD SVG 1.1//EN"
 "http://www.w3.org/Graphics/SVG/1.1/DTD/svg11.dtd">
<!-- Generated by graphviz version 2.40.1 (0)
 -->
<!-- Title: ViennaRNA/centroid.h Pages: 1 -->
<svg width="1387pt" height="341pt"
 viewBox="0.00 0.00 1386.50 341.00" xmlns="http://www.w3.org/2000/svg" xmlns:xlink="http://www.w3.org/1999/xlink">
<g id="graph0" class="graph" transform="scale(1 1) rotate(0) translate(4 337)">
<title>ViennaRNA/centroid.h</title>
<!-- Node0 -->
<g id="node1" class="node">
<title>Node0</title>
<g id="a_node1"><a xlink:title="Centroid structure computation.">
<polygon fill="#bfbfbf" stroke="#000000" points="839.5,-313.5 839.5,-332.5 953.5,-332.5 953.5,-313.5 839.5,-313.5"/>
<text text-anchor="middle" x="896.5" y="-320.5" font-family="Helvetica,sans-Serif" font-size="10.00" fill="#000000">ViennaRNA/centroid.h</text>
</a>
</g>
</g>
<!-- Node1 -->
<g id="node2" class="node">
<title>Node1</title>
<g id="a_node2"><a xlink:href="$datastructures_2basic_8h.html" xlink:title="Various data structures and pre&#45;processor macros.">
<polygon fill="none" stroke="#000000" points="829.5,-246.5 829.5,-276.5 963.5,-276.5 963.5,-246.5 829.5,-246.5"/>
<text text-anchor="start" x="837.5" y="-264.5" font-family="Helvetica,sans-Serif" font-size="10.00" fill="#000000">ViennaRNA/datastructures</text>
<text text-anchor="middle" x="896.5" y="-253.5" font-family="Helvetica,sans-Serif" font-size="10.00" fill="#000000">/basic.h</text>
</a>
</g>
</g>
<!-- Node0&#45;&gt;Node1 -->
<g id="edge1" class="edge">
<title>Node0&#45;&gt;Node1</title>
<path fill="none" stroke="#191970" d="M896.5,-313.3906C896.5,-306.2234 896.5,-296.0862 896.5,-286.671"/>
<polygon fill="#191970" stroke="#191970" points="900.0001,-286.5446 896.5,-276.5446 893.0001,-286.5446 900.0001,-286.5446"/>
</g>
<!-- Node4 -->
<g id="node5" class="node">
<title>Node4</title>
<g id="a_node5"><a xlink:href="$fold__compound_8h.html" xlink:title="The Basic Fold Compound API.">
<polygon fill="none" stroke="#000000" points="476.5,-190.5 476.5,-209.5 622.5,-209.5 622.5,-190.5 476.5,-190.5"/>
<text text-anchor="middle" x="549.5" y="-197.5" font-family="Helvetica,sans-Serif" font-size="10.00" fill="#000000">ViennaRNA/fold_compound.h</text>
</a>
</g>
</g>
<!-- Node0&#45;&gt;Node4 -->
<g id="edge42" class="edge">
<title>Node0&#45;&gt;Node4</title>
<path fill="none" stroke="#191970" d="M869.5602,-313.4507C807.9406,-291.6086 656.6366,-237.9764 586.4139,-213.0848"/>
<polygon fill="#191970" stroke="#191970" points="587.2566,-209.6701 576.6618,-209.628 584.9179,-216.2679 587.2566,-209.6701"/>
</g>
<!-- Node15 -->
<g id="node16" class="node">
<title>Node15</title>
<g id="a_node16"><a xlink:href="$utils_2structures_8h.html" xlink:title="Various utility&#45; and helper&#45;functions for secondary structure parsing, converting,...">
<polygon fill="none" stroke="#000000" points="1234.5,-62 1234.5,-81 1378.5,-81 1378.5,-62 1234.5,-62"/>
<text text-anchor="middle" x="1306.5" y="-69" font-family="Helvetica,sans-Serif" font-size="10.00" fill="#000000">ViennaRNA/utils/structures.h</text>
</a>
</g>
</g>
<!-- Node0&#45;&gt;Node15 -->
<g id="edge43" class="edge">
<title>Node0&#45;&gt;Node15</title>
<path fill="none" stroke="#191970" d="M937.1951,-313.4645C1000.423,-297.6442 1124.9165,-262.4291 1220.5,-210 1255.7369,-190.672 1270.7885,-188.4419 1291.5,-154 1303.0083,-134.8624 1306.1106,-109.0377 1306.7487,-91.4113"/>
<polygon fill="#191970" stroke="#191970" points="1310.2514,-91.2075 1306.8758,-81.1649 1303.252,-91.1206 1310.2514,-91.2075"/>
</g>
<!-- Node2 -->
<g id="node3" class="node">
<title>Node2</title>
<g id="a_node3"><a xlink:href="$constants_8h.html" xlink:title="Energy parameter constants.">
<polygon fill="none" stroke="#000000" points="979.5,-62 979.5,-81 1137.5,-81 1137.5,-62 979.5,-62"/>
<text text-anchor="middle" x="1058.5" y="-69" font-family="Helvetica,sans-Serif" font-size="10.00" fill="#000000">ViennaRNA/params/constants.h</text>
</a>
</g>
</g>
<!-- Node1&#45;&gt;Node2 -->
<g id="edge2" class="edge">
<title>Node1&#45;&gt;Node2</title>
<path fill="none" stroke="#191970" d="M963.5359,-251.0365C1055.0421,-235.1202 1211.0999,-201.5704 1240.5,-154 1266.7497,-111.527 1205.9591,-90.735 1147.6999,-80.6702"/>
<polygon fill="#191970" stroke="#191970" points="1148.0644,-77.1835 1137.6316,-79.029 1146.9382,-84.0923 1148.0644,-77.1835"/>
</g>
<!-- Node1&#45;&gt;Node4 -->
<g id="edge4" class="edge">
<title>Node1&#45;&gt;Node4</title>
<path fill="none" stroke="#191970" d="M829.1835,-249.5693C766.7338,-238.5011 674.4623,-222.1475 613.1985,-211.2895"/>
<polygon fill="#191970" stroke="#191970" points="613.723,-207.828 603.2656,-209.5291 612.5014,-214.7206 613.723,-207.828"/>
</g>
<!-- Node5 -->
<g id="node6" class="node">
<title>Node5</title>
<g id="a_node6"><a xlink:href="$model_8h.html" xlink:title="The model details data structure and its corresponding modifiers.">
<polygon fill="none" stroke="#000000" points="775.5,-62 775.5,-81 881.5,-81 881.5,-62 775.5,-62"/>
<text text-anchor="middle" x="828.5" y="-69" font-family="Helvetica,sans-Serif" font-size="10.00" fill="#000000">ViennaRNA/model.h</text>
</a>
</g>
</g>
<!-- Node1&#45;&gt;Node5 -->
<g id="edge33" class="edge">
<title>Node1&#45;&gt;Node5</title>
<path fill="none" stroke="#191970" d="M940.3402,-246.4569C1001.5037,-223.1289 1100.4813,-175.4211 1058.5,-123 1037.9472,-97.3362 952.5632,-83.5987 891.8422,-76.9274"/>
<polygon fill="#191970" stroke="#191970" points="891.8818,-73.4121 881.5688,-75.8396 891.1447,-80.3732 891.8818,-73.4121"/>
</g>
<!-- Node6 -->
<g id="node7" class="node">
<title>Node6</title>
<g id="a_node7"><a xlink:href="$params_2basic_8h.html" xlink:title="Functions to deal with sets of energy parameters.">
<polygon fill="none" stroke="#000000" points="759.5,-129 759.5,-148 897.5,-148 897.5,-129 759.5,-129"/>
<text text-anchor="middle" x="828.5" y="-136" font-family="Helvetica,sans-Serif" font-size="10.00" fill="#000000">ViennaRNA/params/basic.h</text>
</a>
</g>
</g>
<!-- Node1&#45;&gt;Node6 -->
<g id="edge34" class="edge">
<title>Node1&#45;&gt;Node6</title>
<path fill="none" stroke="#191970" d="M883.5476,-246.4178C868.4313,-223.9655 844.9723,-181.7796 833.8866,-157.3317"/>
<polygon fill="#191970" stroke="#191970" points="837.0776,-155.8914 829.9536,-148.0493 830.6323,-158.6223 837.0776,-155.8914"/>
</g>
<!-- Node8 -->
<g id="node9" class="node">
<title>Node8</title>
<g id="a_node9"><a xlink:href="$dp__matrices_8h.html" xlink:title="Functions to deal with standard dynamic programming (DP) matrices.">
<polygon fill="none" stroke="#000000" points="916,-129 916,-148 1049,-148 1049,-129 916,-129"/>
<text text-anchor="middle" x="982.5" y="-136" font-family="Helvetica,sans-Serif" font-size="10.00" fill="#000000">ViennaRNA/dp_matrices.h</text>
</a>
</g>
</g>
<!-- Node1&#45;&gt;Node8 -->
<g id="edge35" class="edge">
<title>Node1&#45;&gt;Node8</title>
<path fill="none" stroke="#191970" d="M902.431,-246.4178C915.6578,-223.5645 945.8386,-180.2667 965.3451,-156.0392"/>
<polygon fill="#191970" stroke="#191970" points="968.2887,-157.9737 971.9976,-148.0493 962.9093,-153.4947 968.2887,-157.9737"/>
</g>
<!-- Node9 -->
<g id="node10" class="node">
<title>Node9</title>
<g id="a_node10"><a xlink:href="$hard_8h.html" xlink:title="Functions and data structures for handling of secondary structure hard constraints.">
<polygon fill="none" stroke="#000000" points="137,-123.5 137,-153.5 256,-153.5 256,-123.5 137,-123.5"/>
<text text-anchor="start" x="145" y="-141.5" font-family="Helvetica,sans-Serif" font-size="10.00" fill="#000000">ViennaRNA/constraints</text>
<text text-anchor="middle" x="196.5" y="-130.5" font-family="Helvetica,sans-Serif" font-size="10.00" fill="#000000">/hard.h</text>
</a>
</g>
</g>
<!-- Node1&#45;&gt;Node9 -->
<g id="edge36" class="edge">
<title>Node1&#45;&gt;Node9</title>
<path fill="none" stroke="#191970" d="M829.1798,-256.3225C744.3261,-249.1323 594.2332,-234.2048 467.5,-210 393.4845,-195.8638 309.8481,-172.6659 255.3157,-156.5425"/>
<polygon fill="#191970" stroke="#191970" points="256.0637,-153.1135 245.4808,-153.618 254.0684,-159.8232 256.0637,-153.1135"/>
</g>
<!-- Node11 -->
<g id="node12" class="node">
<title>Node11</title>
<g id="a_node12"><a xlink:href="$soft_8h.html" xlink:title="Functions and data structures for secondary structure soft constraints.">
<polygon fill="none" stroke="#000000" points="0,-123.5 0,-153.5 119,-153.5 119,-123.5 0,-123.5"/>
<text text-anchor="start" x="8" y="-141.5" font-family="Helvetica,sans-Serif" font-size="10.00" fill="#000000">ViennaRNA/constraints</text>
<text text-anchor="middle" x="59.5" y="-130.5" font-family="Helvetica,sans-Serif" font-size="10.00" fill="#000000">/soft.h</text>
</a>
</g>
</g>
<!-- Node1&#45;&gt;Node11 -->
<g id="edge37" class="edge">
<title>Node1&#45;&gt;Node11</title>
<path fill="none" stroke="#191970" d="M829.4719,-257.7035C729.3296,-251.1861 535.3226,-235.9981 372.5,-210 261.6904,-192.3069 232.9592,-180.0265 126.2417,-155.7513"/>
<polygon fill="#191970" stroke="#191970" points="126.887,-152.309 116.3616,-153.5201 125.345,-159.1371 126.887,-152.309"/>
</g>
<!-- Node12 -->
<g id="node13" class="node">
<title>Node12</title>
<g id="a_node13"><a xlink:href="$grammar_8h.html" xlink:title="Implementations for the RNA folding grammar.">
<polygon fill="none" stroke="#000000" points="491,-129 491,-148 608,-148 608,-129 491,-129"/>
<text text-anchor="middle" x="549.5" y="-136" font-family="Helvetica,sans-Serif" font-size="10.00" fill="#000000">ViennaRNA/grammar.h</text>
</a>
</g>
</g>
<!-- Node1&#45;&gt;Node12 -->
<g id="edge38" class="edge">
<title>Node1&#45;&gt;Node12</title>
<path fill="none" stroke="#191970" d="M853.951,-246.4178C785.2372,-222.061 651.0078,-174.4812 586.2208,-151.5163"/>
<polygon fill="#191970" stroke="#191970" points="587.0345,-148.0914 576.4398,-148.0493 584.6958,-154.6892 587.0345,-148.0914"/>
</g>
<!-- Node13 -->
<g id="node14" class="node">
<title>Node13</title>
<g id="a_node14"><a xlink:href="$structured__domains_8h.html" xlink:title="This module provides interfaces that deal with additional structured domains in the folding grammar.">
<polygon fill="none" stroke="#000000" points="626,-123.5 626,-153.5 741,-153.5 741,-123.5 626,-123.5"/>
<text text-anchor="start" x="634" y="-141.5" font-family="Helvetica,sans-Serif" font-size="10.00" fill="#000000">ViennaRNA/structured</text>
<text text-anchor="middle" x="683.5" y="-130.5" font-family="Helvetica,sans-Serif" font-size="10.00" fill="#000000">_domains.h</text>
</a>
</g>
</g>
<!-- Node1&#45;&gt;Node13 -->
<g id="edge39" class="edge">
<title>Node1&#45;&gt;Node13</title>
<path fill="none" stroke="#191970" d="M870.382,-246.4178C832.1926,-224.3648 761.0353,-183.2739 718.3986,-158.6527"/>
<polygon fill="#191970" stroke="#191970" points="719.9082,-155.4828 709.4981,-153.513 716.4077,-161.5447 719.9082,-155.4828"/>
</g>
<!-- Node14 -->
<g id="node15" class="node">
<title>Node14</title>
<g id="a_node15"><a xlink:href="$unstructured__domains_8h.html" xlink:title="Functions to modify unstructured domains, e.g. to incorporate ligands binding to unpaired stretches.">
<polygon fill="none" stroke="#000000" points="1106,-123.5 1106,-153.5 1231,-153.5 1231,-123.5 1106,-123.5"/>
<text text-anchor="start" x="1114" y="-141.5" font-family="Helvetica,sans-Serif" font-size="10.00" fill="#000000">ViennaRNA/unstructured</text>
<text text-anchor="middle" x="1168.5" y="-130.5" font-family="Helvetica,sans-Serif" font-size="10.00" fill="#000000">_domains.h</text>
</a>
</g>
</g>
<!-- Node1&#45;&gt;Node14 -->
<g id="edge40" class="edge">
<title>Node1&#45;&gt;Node14</title>
<path fill="none" stroke="#191970" d="M963.8914,-250.4977C1000.5452,-242.8483 1045.6923,-230.2658 1082.5,-210 1105.1599,-197.5238 1126.3409,-176.9325 1142.2587,-161.0436"/>
<polygon fill="#191970" stroke="#191970" points="1145.0317,-163.2207 1149.6335,-153.6775 1140.0848,-158.268 1145.0317,-163.2207"/>
</g>
<!-- Node1&#45;&gt;Node15 -->
<g id="edge41" class="edge">
<title>Node1&#45;&gt;Node15</title>
<path fill="none" stroke="#191970" d="M963.5324,-256.7682C1020.2306,-250.9891 1102.5361,-238.2047 1169.5,-210 1209.1631,-193.2942 1219.3201,-185.6351 1248.5,-154 1266.321,-134.6796 1280.7881,-107.8358 1291.3731,-90.0816"/>
<polygon fill="#191970" stroke="#191970" points="1294.5496,-91.6008 1296.8509,-81.2589 1288.6026,-87.9084 1294.5496,-91.6008"/>
</g>
<!-- Node3 -->
<g id="node4" class="node">
<title>Node3</title>
<g id="a_node4"><a xlink:title=" ">
<polygon fill="none" stroke="#bfbfbf" points="1034.5,-.5 1034.5,-19.5 1082.5,-19.5 1082.5,-.5 1034.5,-.5"/>
<text text-anchor="middle" x="1058.5" y="-7.5" font-family="Helvetica,sans-Serif" font-size="10.00" fill="#000000">limits.h</text>
</a>
</g>
</g>
<!-- Node2&#45;&gt;Node3 -->
<g id="edge3" class="edge">
<title>Node2&#45;&gt;Node3</title>
<path fill="none" stroke="#191970" d="M1058.5,-61.8906C1058.5,-53.3657 1058.5,-40.6392 1058.5,-29.9235"/>
<polygon fill="#191970" stroke="#191970" points="1062.0001,-29.7448 1058.5,-19.7449 1055.0001,-29.7449 1062.0001,-29.7448"/>
</g>
<!-- Node4&#45;&gt;Node5 -->
<g id="edge5" class="edge">
<title>Node4&#45;&gt;Node5</title>
<path fill="none" stroke="#191970" d="M525.0288,-190.3462C509.7893,-182.9011 491.4388,-170.9799 482.5,-154 476.0819,-141.8084 473.5033,-133.4349 482.5,-123 500.6985,-101.8922 670.6923,-84.5762 765.439,-76.4667"/>
<polygon fill="#191970" stroke="#191970" points="765.8157,-79.9475 775.4852,-75.6172 765.2258,-72.9724 765.8157,-79.9475"/>
</g>
<!-- Node4&#45;&gt;Node6 -->
<g id="edge6" class="edge">
<title>Node4&#45;&gt;Node6</title>
<path fill="none" stroke="#191970" d="M587.7383,-190.4581C634.8838,-179.5956 715.2674,-161.8488 770.1249,-150.1711"/>
<polygon fill="#191970" stroke="#191970" points="771.0011,-153.5632 780.0571,-148.0643 769.5485,-146.7156 771.0011,-153.5632"/>
</g>
<!-- Node7 -->
<g id="node8" class="node">
<title>Node7</title>
<g id="a_node8"><a xlink:href="$sequence_8h.html" xlink:title="Functions and data structures related to sequence representations ,.">
<polygon fill="none" stroke="#000000" points="312.5,-129 312.5,-148 434.5,-148 434.5,-129 312.5,-129"/>
<text text-anchor="middle" x="373.5" y="-136" font-family="Helvetica,sans-Serif" font-size="10.00" fill="#000000">ViennaRNA/sequence.h</text>
</a>
</g>
</g>
<!-- Node4&#45;&gt;Node7 -->
<g id="edge11" class="edge">
<title>Node4&#45;&gt;Node7</title>
<path fill="none" stroke="#191970" d="M516.9375,-190.3906C485.0678,-179.9652 437.0542,-163.2559 405.4139,-151.6252"/>
<polygon fill="#191970" stroke="#191970" points="406.3506,-148.2397 395.7576,-148.0419 403.9152,-154.8024 406.3506,-148.2397"/>
</g>
<!-- Node4&#45;&gt;Node8 -->
<g id="edge13" class="edge">
<title>Node4&#45;&gt;Node8</title>
<path fill="none" stroke="#191970" d="M622.7953,-191.3445C693.3718,-183.1302 802.873,-169.7243 897.5,-154 904.7044,-152.8028 912.2673,-151.4172 919.799,-149.9768"/>
<polygon fill="#191970" stroke="#191970" points="920.5006,-153.406 929.6494,-148.0628 919.1654,-146.5345 920.5006,-153.406"/>
</g>
<!-- Node4&#45;&gt;Node9 -->
<g id="edge16" class="edge">
<title>Node4&#45;&gt;Node9</title>
<path fill="none" stroke="#191970" d="M479.9845,-190.4894C423.8049,-182.041 342.6763,-169.0031 265.8508,-154.79"/>
<polygon fill="#191970" stroke="#191970" points="266.4909,-151.3491 256.0193,-152.9601 265.21,-158.2309 266.4909,-151.3491"/>
</g>
<!-- Node4&#45;&gt;Node11 -->
<g id="edge20" class="edge">
<title>Node4&#45;&gt;Node11</title>
<path fill="none" stroke="#191970" d="M476.3671,-195.1136C392.4508,-188.6356 250.8585,-175.6366 125.7428,-155.1822"/>
<polygon fill="#191970" stroke="#191970" points="126.0533,-151.686 115.6156,-153.504 124.9089,-158.5918 126.0533,-151.686"/>
</g>
<!-- Node4&#45;&gt;Node12 -->
<g id="edge24" class="edge">
<title>Node4&#45;&gt;Node12</title>
<path fill="none" stroke="#191970" d="M544.4375,-190.3906C542.7741,-181.8657 542.3404,-169.1392 543.1365,-158.4235"/>
<polygon fill="#191970" stroke="#191970" points="546.6414,-158.6023 544.4112,-148.2449 539.6956,-157.7324 546.6414,-158.6023"/>
</g>
<!-- Node4&#45;&gt;Node13 -->
<g id="edge26" class="edge">
<title>Node4&#45;&gt;Node13</title>
<path fill="none" stroke="#191970" d="M570.4375,-190.3906C589.4124,-181.682 617.9407,-168.5888 641.5926,-157.7336"/>
<polygon fill="#191970" stroke="#191970" points="643.0913,-160.8968 650.7199,-153.5446 640.1715,-154.5349 643.0913,-160.8968"/>
</g>
<!-- Node4&#45;&gt;Node14 -->
<g id="edge27" class="edge">
<title>Node4&#45;&gt;Node14</title>
<path fill="none" stroke="#191970" d="M622.7042,-194.0514C720.2395,-186.263 897.8966,-171.5206 1049.5,-154 1064.4301,-152.2746 1080.4637,-150.1633 1095.7994,-148.0609"/>
<polygon fill="#191970" stroke="#191970" points="1096.331,-151.5208 1105.7577,-146.6848 1095.3727,-144.5867 1096.331,-151.5208"/>
</g>
<!-- Node6&#45;&gt;Node1 -->
<g id="edge8" class="edge">
<title>Node6&#45;&gt;Node1</title>
<path fill="none" stroke="#191970" d="M837.605,-148.0493C851.3002,-166.9969 875.5618,-209.8676 888.544,-237.1463"/>
<polygon fill="#191970" stroke="#191970" points="885.4396,-238.7741 892.7761,-246.4178 891.8075,-235.8673 885.4396,-238.7741"/>
</g>
<!-- Node6&#45;&gt;Node2 -->
<g id="edge7" class="edge">
<title>Node6&#45;&gt;Node2</title>
<path fill="none" stroke="#191970" d="M861.4534,-128.9005C902.1021,-117.0594 971.2873,-96.9054 1015.9242,-83.9025"/>
<polygon fill="#191970" stroke="#191970" points="1016.9857,-87.2389 1025.6077,-81.0817 1015.0279,-80.5182 1016.9857,-87.2389"/>
</g>
<!-- Node6&#45;&gt;Node4 -->
<g id="edge9" class="edge">
<title>Node6&#45;&gt;Node4</title>
<path fill="none" stroke="#191970" d="M790.1645,-148.0643C742.9734,-158.9363 662.5846,-176.6836 607.7622,-188.3529"/>
<polygon fill="#191970" stroke="#191970" points="606.8931,-184.9593 597.8369,-190.4581 608.3455,-191.807 606.8931,-184.9593"/>
</g>
<!-- Node6&#45;&gt;Node5 -->
<g id="edge10" class="edge">
<title>Node6&#45;&gt;Node5</title>
<path fill="none" stroke="#191970" d="M828.5,-128.9005C828.5,-119.149 828.5,-103.7597 828.5,-91.3695"/>
<polygon fill="#191970" stroke="#191970" points="832.0001,-91.0816 828.5,-81.0817 825.0001,-91.0817 832.0001,-91.0816"/>
</g>
<!-- Node7&#45;&gt;Node4 -->
<g id="edge12" class="edge">
<title>Node7&#45;&gt;Node4</title>
<path fill="none" stroke="#191970" d="M405.8562,-148.0419C437.656,-158.4402 485.6699,-175.1468 517.3808,-186.7993"/>
<polygon fill="#191970" stroke="#191970" points="516.4695,-190.1943 527.0625,-190.3906 518.904,-183.6312 516.4695,-190.1943"/>
</g>
<!-- Node8&#45;&gt;Node1 -->
<g id="edge14" class="edge">
<title>Node8&#45;&gt;Node1</title>
<path fill="none" stroke="#191970" d="M979.649,-148.0493C969.4452,-167.3293 939.1693,-211.3792 917.929,-238.5675"/>
<polygon fill="#191970" stroke="#191970" points="915.1651,-236.4197 911.6595,-246.4178 920.6349,-240.788 915.1651,-236.4197"/>
</g>
<!-- Node8&#45;&gt;Node4 -->
<g id="edge15" class="edge">
<title>Node8&#45;&gt;Node4</title>
<path fill="none" stroke="#191970" d="M947.1403,-148.0628C936.9643,-150.1667 925.8614,-152.2782 915.5,-154 819.2361,-169.9963 707.579,-183.5933 633.0827,-191.7661"/>
<polygon fill="#191970" stroke="#191970" points="632.3855,-188.3213 622.8231,-192.8831 633.1432,-195.2802 632.3855,-188.3213"/>
</g>
<!-- Node9&#45;&gt;Node4 -->
<g id="edge17" class="edge">
<title>Node9&#45;&gt;Node4</title>
<path fill="none" stroke="#191970" d="M256.2915,-149.4613C264.1259,-151.0388 272.0167,-152.6001 279.5,-154 349.3439,-167.0662 429.3974,-180.0622 484.1618,-188.8904"/>
<polygon fill="#191970" stroke="#191970" points="483.6556,-192.3539 494.0851,-190.4894 484.7692,-185.4431 483.6556,-192.3539"/>
</g>
<!-- Node10 -->
<g id="node11" class="node">
<title>Node10</title>
<g id="a_node11"><a xlink:href="$constraints_2basic_8h.html" xlink:title="Functions and data structures for constraining secondary structure predictions and evaluation.">
<polygon fill="none" stroke="#000000" points="137,-56.5 137,-86.5 256,-86.5 256,-56.5 137,-56.5"/>
<text text-anchor="start" x="145" y="-74.5" font-family="Helvetica,sans-Serif" font-size="10.00" fill="#000000">ViennaRNA/constraints</text>
<text text-anchor="middle" x="196.5" y="-63.5" font-family="Helvetica,sans-Serif" font-size="10.00" fill="#000000">/basic.h</text>
</a>
</g>
</g>
<!-- Node9&#45;&gt;Node10 -->
<g id="edge18" class="edge">
<title>Node9&#45;&gt;Node10</title>
<path fill="none" stroke="#191970" d="M196.5,-123.2967C196.5,-115.5013 196.5,-105.7991 196.5,-96.9064"/>
<polygon fill="#191970" stroke="#191970" points="200.0001,-96.6431 196.5,-86.6432 193.0001,-96.6432 200.0001,-96.6431"/>
</g>
<!-- Node10&#45;&gt;Node4 -->
<g id="edge19" class="edge">
<title>Node10&#45;&gt;Node4</title>
<path fill="none" stroke="#191970" d="M216.8277,-86.7003C230.391,-96.8901 248.5879,-110.6531 264.5,-123 281.9935,-136.5739 283.3573,-144.8052 303.5,-154 332.2234,-167.1117 407.6251,-180.1625 467.4443,-188.9952"/>
<polygon fill="#191970" stroke="#191970" points="467.2571,-192.5049 477.6576,-190.485 468.2676,-185.5782 467.2571,-192.5049"/>
</g>
<!-- Node11&#45;&gt;Node1 -->
<g id="edge21" class="edge">
<title>Node11&#45;&gt;Node1</title>
<path fill="none" stroke="#191970" d="M119.3061,-150.135C125.1408,-151.4447 130.9469,-152.755 136.5,-154 249.2997,-179.2901 276.346,-191.7729 390.5,-210 541.5442,-234.1174 719.4243,-248.9321 819.0211,-256.1522"/>
<polygon fill="#191970" stroke="#191970" points="819.0712,-259.6647 829.2963,-256.8902 819.5728,-252.6827 819.0712,-259.6647"/>
</g>
<!-- Node11&#45;&gt;Node4 -->
<g id="edge22" class="edge">
<title>Node11&#45;&gt;Node4</title>
<path fill="none" stroke="#191970" d="M119.1875,-150.7403C125.044,-151.939 130.8876,-153.0577 136.5,-154 250.226,-173.0941 382.5852,-186.032 466.2567,-193.2059"/>
<polygon fill="#191970" stroke="#191970" points="466.2068,-196.7142 476.4673,-194.0735 466.7995,-189.7393 466.2068,-196.7142"/>
</g>
<!-- Node11&#45;&gt;Node10 -->
<g id="edge23" class="edge">
<title>Node11&#45;&gt;Node10</title>
<path fill="none" stroke="#191970" d="M90.2455,-123.4639C109.7624,-113.9191 135.2257,-101.4663 156.3325,-91.144"/>
<polygon fill="#191970" stroke="#191970" points="157.9375,-94.2552 165.3831,-86.7177 154.8622,-87.9669 157.9375,-94.2552"/>
</g>
<!-- Node12&#45;&gt;Node4 -->
<g id="edge25" class="edge">
<title>Node12&#45;&gt;Node4</title>
<path fill="none" stroke="#191970" d="M554.5888,-148.2449C556.2392,-156.814 556.6598,-169.5519 555.8508,-180.2462"/>
<polygon fill="#191970" stroke="#191970" points="552.3503,-180.0293 554.5625,-190.3906 559.2945,-180.9113 552.3503,-180.0293"/>
</g>
<!-- Node14&#45;&gt;Node1 -->
<g id="edge28" class="edge">
<title>Node14&#45;&gt;Node1</title>
<path fill="none" stroke="#191970" d="M1162.814,-153.6775C1151.2333,-169.9762 1126.8678,-195.4823 1100.5,-210 1061.6195,-231.407 1013.4338,-244.2411 973.5976,-251.7436"/>
<polygon fill="#191970" stroke="#191970" points="972.8792,-248.3166 963.6604,-253.5381 974.1232,-255.2052 972.8792,-248.3166"/>
</g>
<!-- Node14&#45;&gt;Node4 -->
<g id="edge29" class="edge">
<title>Node14&#45;&gt;Node4</title>
<path fill="none" stroke="#191970" d="M1105.8221,-149.1063C1093.1736,-150.8532 1079.9529,-152.5608 1067.5,-154 914.5979,-171.6706 735.1939,-186.5154 632.6146,-194.25"/>
<polygon fill="#191970" stroke="#191970" points="632.3367,-190.7609 622.6264,-194.9989 632.8601,-197.7413 632.3367,-190.7609"/>
</g>
<!-- Node14&#45;&gt;Node15 -->
<g id="edge30" class="edge">
<title>Node14&#45;&gt;Node15</title>
<path fill="none" stroke="#191970" d="M1199.4699,-123.4639C1222.8331,-112.1209 1254.6559,-96.6707 1277.5194,-85.5703"/>
<polygon fill="#191970" stroke="#191970" points="1279.2516,-88.62 1286.7188,-81.1039 1276.1943,-82.323 1279.2516,-88.62"/>
</g>
<!-- Node15&#45;&gt;Node1 -->
<g id="edge32" class="edge">
<title>Node15&#45;&gt;Node1</title>
<path fill="none" stroke="#191970" d="M1307.8351,-81.2589C1304.0313,-97.6357 1287.6212,-131.1017 1266.5,-154 1237.3201,-185.6351 1227.1631,-193.2942 1187.5,-210 1118.8869,-238.8993 1034.1672,-251.6095 973.7987,-257.1826"/>
<polygon fill="#191970" stroke="#191970" points="973.2296,-253.719 963.5739,-258.0799 973.8416,-260.6922 973.2296,-253.719"/>
</g>
<!-- Node16 -->
<g id="node17" class="node">
<title>Node16</title>
<g id="a_node17"><a xlink:title=" ">
<polygon fill="none" stroke="#bfbfbf" points="1283.5,-.5 1283.5,-19.5 1329.5,-19.5 1329.5,-.5 1283.5,-.5"/>
<text text-anchor="middle" x="1306.5" y="-7.5" font-family="Helvetica,sans-Serif" font-size="10.00" fill="#000000">stdio.h</text>
</a>
</g>
</g>
<!-- Node15&#45;&gt;Node16 -->
<g id="edge31" class="edge">
<title>Node15&#45;&gt;Node16</title>
<path fill="none" stroke="#191970" d="M1306.5,-61.8906C1306.5,-53.3657 1306.5,-40.6392 1306.5,-29.9235"/>
<polygon fill="#191970" stroke="#191970" points="1310.0001,-29.7448 1306.5,-19.7449 1303.0001,-29.7449 1310.0001,-29.7448"/>
</g>
</g>
</svg>
