<?xml version="1.0" encoding="UTF-8" standalone="no"?>
<!DOCTYPE svg PUBLIC "-//W3C//DTD SVG 1.1//EN"
 "http://www.w3.org/Graphics/SVG/1.1/DTD/svg11.dtd">
<!-- Generated by graphviz version 2.40.1 (0)
 -->
<!-- Title: ViennaRNA/cofold.h Pages: 1 -->
<svg width="1433pt" height="397pt"
 viewBox="0.00 0.00 1433.00 397.00" xmlns="http://www.w3.org/2000/svg" xmlns:xlink="http://www.w3.org/1999/xlink">
<g id="graph0" class="graph" transform="scale(1 1) rotate(0) translate(4 393)">
<title>ViennaRNA/cofold.h</title>
<!-- Node0 -->
<g id="node1" class="node">
<title>Node0</title>
<g id="a_node1"><a xlink:title="MFE implementations for RNA&#45;RNA interaction.">
<polygon fill="#bfbfbf" stroke="#000000" points="563,-369.5 563,-388.5 669,-388.5 669,-369.5 563,-369.5"/>
<text text-anchor="middle" x="616" y="-376.5" font-family="Helvetica,sans-Serif" font-size="10.00" fill="#000000">ViennaRNA/cofold.h</text>
</a>
</g>
</g>
<!-- Node1 -->
<g id="node2" class="node">
<title>Node1</title>
<g id="a_node2"><a xlink:href="$datastructures_2basic_8h.html" xlink:title="Various data structures and pre&#45;processor macros.">
<polygon fill="none" stroke="#000000" points="549,-246.5 549,-276.5 683,-276.5 683,-246.5 549,-246.5"/>
<text text-anchor="start" x="557" y="-264.5" font-family="Helvetica,sans-Serif" font-size="10.00" fill="#000000">ViennaRNA/datastructures</text>
<text text-anchor="middle" x="616" y="-253.5" font-family="Helvetica,sans-Serif" font-size="10.00" fill="#000000">/basic.h</text>
</a>
</g>
</g>
<!-- Node0&#45;&gt;Node1 -->
<g id="edge1" class="edge">
<title>Node0&#45;&gt;Node1</title>
<path fill="none" stroke="#191970" d="M616,-369.3845C616,-351.544 616,-312.7839 616,-286.9138"/>
<polygon fill="#191970" stroke="#191970" points="619.5001,-286.7143 616,-276.7143 612.5001,-286.7143 619.5001,-286.7143"/>
</g>
<!-- Node6 -->
<g id="node7" class="node">
<title>Node6</title>
<g id="a_node7"><a xlink:href="$params_2basic_8h.html" xlink:title="Functions to deal with sets of energy parameters.">
<polygon fill="none" stroke="#000000" points="85,-129 85,-148 223,-148 223,-129 85,-129"/>
<text text-anchor="middle" x="154" y="-136" font-family="Helvetica,sans-Serif" font-size="10.00" fill="#000000">ViennaRNA/params/basic.h</text>
</a>
</g>
</g>
<!-- Node0&#45;&gt;Node6 -->
<g id="edge42" class="edge">
<title>Node0&#45;&gt;Node6</title>
<path fill="none" stroke="#191970" d="M569.4719,-369.4479C487.6545,-350.7472 315.9107,-302.7896 202,-210 184.5036,-195.7477 170.9528,-173.4463 162.7772,-157.5418"/>
<polygon fill="#191970" stroke="#191970" points="165.729,-155.6105 158.1934,-148.1629 159.4399,-158.6842 165.729,-155.6105"/>
</g>
<!-- Node17 -->
<g id="node18" class="node">
<title>Node17</title>
<g id="a_node18"><a xlink:href="$mfe_8h.html" xlink:title="Compute Minimum Free energy (MFE) and backtrace corresponding secondary structures from RNA sequence ...">
<polygon fill="none" stroke="#000000" points="661,-313.5 661,-332.5 757,-332.5 757,-313.5 661,-313.5"/>
<text text-anchor="middle" x="709" y="-320.5" font-family="Helvetica,sans-Serif" font-size="10.00" fill="#000000">ViennaRNA/mfe.h</text>
</a>
</g>
</g>
<!-- Node0&#45;&gt;Node17 -->
<g id="edge43" class="edge">
<title>Node0&#45;&gt;Node17</title>
<path fill="none" stroke="#191970" d="M632.1994,-369.2455C646.6018,-360.5731 667.8732,-347.7645 684.3799,-337.825"/>
<polygon fill="#191970" stroke="#191970" points="686.225,-340.7996 692.9863,-332.6427 682.614,-334.8028 686.225,-340.7996"/>
</g>
<!-- Node2 -->
<g id="node3" class="node">
<title>Node2</title>
<g id="a_node3"><a xlink:href="$constants_8h.html" xlink:title="Energy parameter constants.">
<polygon fill="none" stroke="#000000" points="0,-62 0,-81 158,-81 158,-62 0,-62"/>
<text text-anchor="middle" x="79" y="-69" font-family="Helvetica,sans-Serif" font-size="10.00" fill="#000000">ViennaRNA/params/constants.h</text>
</a>
</g>
</g>
<!-- Node1&#45;&gt;Node2 -->
<g id="edge2" class="edge">
<title>Node1&#45;&gt;Node2</title>
<path fill="none" stroke="#191970" d="M548.8524,-259.2027C465.9644,-254.9948 321.3336,-243.1541 202,-210 142.9547,-193.5956 109.3933,-205.3843 76,-154 63.7836,-135.2019 67.6162,-108.5746 72.4462,-90.7041"/>
<polygon fill="#191970" stroke="#191970" points="75.8095,-91.6738 75.3696,-81.0881 69.1122,-89.6377 75.8095,-91.6738"/>
</g>
<!-- Node4 -->
<g id="node5" class="node">
<title>Node4</title>
<g id="a_node5"><a xlink:href="$fold__compound_8h.html" xlink:title="The Basic Fold Compound API.">
<polygon fill="none" stroke="#000000" points="653,-190.5 653,-209.5 799,-209.5 799,-190.5 653,-190.5"/>
<text text-anchor="middle" x="726" y="-197.5" font-family="Helvetica,sans-Serif" font-size="10.00" fill="#000000">ViennaRNA/fold_compound.h</text>
</a>
</g>
</g>
<!-- Node1&#45;&gt;Node4 -->
<g id="edge4" class="edge">
<title>Node1&#45;&gt;Node4</title>
<path fill="none" stroke="#191970" d="M642.909,-246.4554C660.2968,-236.734 682.8049,-224.15 700.0084,-214.5317"/>
<polygon fill="#191970" stroke="#191970" points="701.9335,-217.4653 708.9539,-209.5303 698.5174,-211.3554 701.9335,-217.4653"/>
</g>
<!-- Node5 -->
<g id="node6" class="node">
<title>Node5</title>
<g id="a_node6"><a xlink:href="$model_8h.html" xlink:title="The model details data structure and its corresponding modifiers.">
<polygon fill="none" stroke="#000000" points="198,-62 198,-81 304,-81 304,-62 198,-62"/>
<text text-anchor="middle" x="251" y="-69" font-family="Helvetica,sans-Serif" font-size="10.00" fill="#000000">ViennaRNA/model.h</text>
</a>
</g>
</g>
<!-- Node1&#45;&gt;Node5 -->
<g id="edge33" class="edge">
<title>Node1&#45;&gt;Node5</title>
<path fill="none" stroke="#191970" d="M548.942,-248.7544C459.7899,-230.487 309.0326,-194.5571 271,-154 255.1378,-137.0849 251.2189,-109.7972 250.5542,-91.2774"/>
<polygon fill="#191970" stroke="#191970" points="254.0527,-91.0257 250.4832,-81.0503 247.0528,-91.0744 254.0527,-91.0257"/>
</g>
<!-- Node1&#45;&gt;Node6 -->
<g id="edge34" class="edge">
<title>Node1&#45;&gt;Node6</title>
<path fill="none" stroke="#191970" d="M548.9242,-257.4106C453.266,-250.5435 283.4018,-234.9458 228,-210 200.6373,-197.6794 175.4747,-173.3855 162.3016,-156.5576"/>
<polygon fill="#191970" stroke="#191970" points="164.9306,-154.2156 156.2788,-148.1003 159.2287,-158.2762 164.9306,-154.2156"/>
</g>
<!-- Node8 -->
<g id="node9" class="node">
<title>Node8</title>
<g id="a_node9"><a xlink:href="$dp__matrices_8h.html" xlink:title="Functions to deal with standard dynamic programming (DP) matrices.">
<polygon fill="none" stroke="#000000" points="549.5,-129 549.5,-148 682.5,-148 682.5,-129 549.5,-129"/>
<text text-anchor="middle" x="616" y="-136" font-family="Helvetica,sans-Serif" font-size="10.00" fill="#000000">ViennaRNA/dp_matrices.h</text>
</a>
</g>
</g>
<!-- Node1&#45;&gt;Node8 -->
<g id="edge35" class="edge">
<title>Node1&#45;&gt;Node8</title>
<path fill="none" stroke="#191970" d="M611.3857,-246.4178C608.7062,-224.1659 608.548,-182.5314 610.9111,-157.9908"/>
<polygon fill="#191970" stroke="#191970" points="614.3858,-158.4107 612.1743,-148.0493 607.4417,-157.5283 614.3858,-158.4107"/>
</g>
<!-- Node9 -->
<g id="node10" class="node">
<title>Node9</title>
<g id="a_node10"><a xlink:href="$hard_8h.html" xlink:title="Functions and data structures for handling of secondary structure hard constraints.">
<polygon fill="none" stroke="#000000" points="917.5,-123.5 917.5,-153.5 1036.5,-153.5 1036.5,-123.5 917.5,-123.5"/>
<text text-anchor="start" x="925.5" y="-141.5" font-family="Helvetica,sans-Serif" font-size="10.00" fill="#000000">ViennaRNA/constraints</text>
<text text-anchor="middle" x="977" y="-130.5" font-family="Helvetica,sans-Serif" font-size="10.00" fill="#000000">/hard.h</text>
</a>
</g>
</g>
<!-- Node1&#45;&gt;Node9 -->
<g id="edge36" class="edge">
<title>Node1&#45;&gt;Node9</title>
<path fill="none" stroke="#191970" d="M681.1095,-246.413C718.6001,-237.137 766.3884,-224.3065 808,-210 852.6118,-194.662 902.1583,-173.1453 936.0044,-157.7297"/>
<polygon fill="#191970" stroke="#191970" points="937.4844,-160.9015 945.1172,-153.5537 934.5682,-154.5379 937.4844,-160.9015"/>
</g>
<!-- Node11 -->
<g id="node12" class="node">
<title>Node11</title>
<g id="a_node12"><a xlink:href="$soft_8h.html" xlink:title="Functions and data structures for secondary structure soft constraints.">
<polygon fill="none" stroke="#000000" points="279.5,-123.5 279.5,-153.5 398.5,-153.5 398.5,-123.5 279.5,-123.5"/>
<text text-anchor="start" x="287.5" y="-141.5" font-family="Helvetica,sans-Serif" font-size="10.00" fill="#000000">ViennaRNA/constraints</text>
<text text-anchor="middle" x="339" y="-130.5" font-family="Helvetica,sans-Serif" font-size="10.00" fill="#000000">/soft.h</text>
</a>
</g>
</g>
<!-- Node1&#45;&gt;Node11 -->
<g id="edge37" class="edge">
<title>Node1&#45;&gt;Node11</title>
<path fill="none" stroke="#191970" d="M577.4201,-246.4178C524.552,-224.1336 430.4352,-182.4104 377.5747,-157.8839"/>
<polygon fill="#191970" stroke="#191970" points="378.746,-154.5683 368.2038,-153.513 375.7869,-160.9121 378.746,-154.5683"/>
</g>
<!-- Node12 -->
<g id="node13" class="node">
<title>Node12</title>
<g id="a_node13"><a xlink:href="$grammar_8h.html" xlink:title="Implementations for the RNA folding grammar.">
<polygon fill="none" stroke="#000000" points="1054.5,-129 1054.5,-148 1171.5,-148 1171.5,-129 1054.5,-129"/>
<text text-anchor="middle" x="1113" y="-136" font-family="Helvetica,sans-Serif" font-size="10.00" fill="#000000">ViennaRNA/grammar.h</text>
</a>
</g>
</g>
<!-- Node1&#45;&gt;Node12 -->
<g id="edge38" class="edge">
<title>Node1&#45;&gt;Node12</title>
<path fill="none" stroke="#191970" d="M683.1464,-247.3325C729.3394,-237.3897 792.0356,-223.5074 847,-210 925.7457,-190.6484 1016.8805,-165.5621 1069.4414,-150.829"/>
<polygon fill="#191970" stroke="#191970" points="1070.4284,-154.1873 1079.1096,-148.1138 1068.5357,-147.4481 1070.4284,-154.1873"/>
</g>
<!-- Node13 -->
<g id="node14" class="node">
<title>Node13</title>
<g id="a_node14"><a xlink:href="$structured__domains_8h.html" xlink:title="This module provides interfaces that deal with additional structured domains in the folding grammar.">
<polygon fill="none" stroke="#000000" points="416.5,-123.5 416.5,-153.5 531.5,-153.5 531.5,-123.5 416.5,-123.5"/>
<text text-anchor="start" x="424.5" y="-141.5" font-family="Helvetica,sans-Serif" font-size="10.00" fill="#000000">ViennaRNA/structured</text>
<text text-anchor="middle" x="474" y="-130.5" font-family="Helvetica,sans-Serif" font-size="10.00" fill="#000000">_domains.h</text>
</a>
</g>
</g>
<!-- Node1&#45;&gt;Node13 -->
<g id="edge39" class="edge">
<title>Node1&#45;&gt;Node13</title>
<path fill="none" stroke="#191970" d="M598.588,-246.4178C573.6765,-224.8395 527.7224,-185.0342 499.1274,-160.2653"/>
<polygon fill="#191970" stroke="#191970" points="501.4046,-157.6074 491.5544,-153.7056 496.8215,-162.8984 501.4046,-157.6074"/>
</g>
<!-- Node14 -->
<g id="node15" class="node">
<title>Node14</title>
<g id="a_node15"><a xlink:href="$unstructured__domains_8h.html" xlink:title="Functions to modify unstructured domains, e.g. to incorporate ligands binding to unpaired stretches.">
<polygon fill="none" stroke="#000000" points="1189.5,-123.5 1189.5,-153.5 1314.5,-153.5 1314.5,-123.5 1189.5,-123.5"/>
<text text-anchor="start" x="1197.5" y="-141.5" font-family="Helvetica,sans-Serif" font-size="10.00" fill="#000000">ViennaRNA/unstructured</text>
<text text-anchor="middle" x="1252" y="-130.5" font-family="Helvetica,sans-Serif" font-size="10.00" fill="#000000">_domains.h</text>
</a>
</g>
</g>
<!-- Node1&#45;&gt;Node14 -->
<g id="edge40" class="edge">
<title>Node1&#45;&gt;Node14</title>
<path fill="none" stroke="#191970" d="M683.1817,-248.1097C738.2545,-237.8713 818.0816,-223.2999 888,-210 1014.3864,-185.9588 1046.0363,-180.1657 1172,-154 1174.3451,-153.5129 1176.7329,-153.0127 1179.1478,-152.5042"/>
<polygon fill="#191970" stroke="#191970" points="1180.1301,-155.8739 1189.1881,-150.3783 1178.68,-149.0257 1180.1301,-155.8739"/>
</g>
<!-- Node15 -->
<g id="node16" class="node">
<title>Node15</title>
<g id="a_node16"><a xlink:href="$utils_2structures_8h.html" xlink:title="Various utility&#45; and helper&#45;functions for secondary structure parsing, converting,...">
<polygon fill="none" stroke="#000000" points="1253,-62 1253,-81 1397,-81 1397,-62 1253,-62"/>
<text text-anchor="middle" x="1325" y="-69" font-family="Helvetica,sans-Serif" font-size="10.00" fill="#000000">ViennaRNA/utils/structures.h</text>
</a>
</g>
</g>
<!-- Node1&#45;&gt;Node15 -->
<g id="edge41" class="edge">
<title>Node1&#45;&gt;Node15</title>
<path fill="none" stroke="#191970" d="M683.1103,-255.8547C850.1293,-241.6047 1273.6119,-201.8808 1315,-154 1329.8082,-136.8688 1326.7089,-109.4353 1324.2912,-90.956"/>
<polygon fill="#191970" stroke="#191970" points="1327.7631,-90.5129 1323.0632,-81.0176 1320.816,-91.3713 1327.7631,-90.5129"/>
</g>
<!-- Node3 -->
<g id="node4" class="node">
<title>Node3</title>
<g id="a_node4"><a xlink:title=" ">
<polygon fill="none" stroke="#bfbfbf" points="55,-.5 55,-19.5 103,-19.5 103,-.5 55,-.5"/>
<text text-anchor="middle" x="79" y="-7.5" font-family="Helvetica,sans-Serif" font-size="10.00" fill="#000000">limits.h</text>
</a>
</g>
</g>
<!-- Node2&#45;&gt;Node3 -->
<g id="edge3" class="edge">
<title>Node2&#45;&gt;Node3</title>
<path fill="none" stroke="#191970" d="M79,-61.8906C79,-53.3657 79,-40.6392 79,-29.9235"/>
<polygon fill="#191970" stroke="#191970" points="82.5001,-29.7448 79,-19.7449 75.5001,-29.7449 82.5001,-29.7448"/>
</g>
<!-- Node4&#45;&gt;Node5 -->
<g id="edge5" class="edge">
<title>Node4&#45;&gt;Node5</title>
<path fill="none" stroke="#191970" d="M724.7994,-190.3074C722.1655,-173.5522 714.2252,-139.3968 692,-123 662.2329,-101.0391 429.1561,-83.0565 314.4016,-75.4335"/>
<polygon fill="#191970" stroke="#191970" points="314.5517,-71.9359 304.3435,-74.7717 314.0921,-78.9208 314.5517,-71.9359"/>
</g>
<!-- Node4&#45;&gt;Node6 -->
<g id="edge6" class="edge">
<title>Node4&#45;&gt;Node6</title>
<path fill="none" stroke="#191970" d="M652.7082,-193.8673C561.0277,-185.6036 399.6107,-170.0675 262,-154 249.9162,-152.5891 237.1438,-150.9989 224.7647,-149.3884"/>
<polygon fill="#191970" stroke="#191970" points="224.8538,-145.87 214.4824,-148.0343 223.9398,-152.8101 224.8538,-145.87"/>
</g>
<!-- Node7 -->
<g id="node8" class="node">
<title>Node7</title>
<g id="a_node8"><a xlink:href="$sequence_8h.html" xlink:title="Functions and data structures related to sequence representations ,.">
<polygon fill="none" stroke="#000000" points="777,-129 777,-148 899,-148 899,-129 777,-129"/>
<text text-anchor="middle" x="838" y="-136" font-family="Helvetica,sans-Serif" font-size="10.00" fill="#000000">ViennaRNA/sequence.h</text>
</a>
</g>
</g>
<!-- Node4&#45;&gt;Node7 -->
<g id="edge11" class="edge">
<title>Node4&#45;&gt;Node7</title>
<path fill="none" stroke="#191970" d="M738.4375,-190.3906C754.8758,-180.2811 783.8041,-164.2628 806.3546,-152.6962"/>
<polygon fill="#191970" stroke="#191970" points="808.2242,-155.6732 815.5736,-148.0419 805.0693,-149.4244 808.2242,-155.6732"/>
</g>
<!-- Node4&#45;&gt;Node8 -->
<g id="edge13" class="edge">
<title>Node4&#45;&gt;Node8</title>
<path fill="none" stroke="#191970" d="M703.75,-190.3906C684.0534,-180.4616 655.8306,-164.833 636.6374,-153.3201"/>
<polygon fill="#191970" stroke="#191970" points="638.3735,-150.2791 628.0175,-148.0419 634.718,-156.2489 638.3735,-150.2791"/>
</g>
<!-- Node4&#45;&gt;Node9 -->
<g id="edge16" class="edge">
<title>Node4&#45;&gt;Node9</title>
<path fill="none" stroke="#191970" d="M759.8941,-190.4581C797.6621,-180.7364 859.543,-165.5004 907.6382,-154.0361"/>
<polygon fill="#191970" stroke="#191970" points="908.4501,-157.4407 917.3698,-151.7234 906.8315,-150.6304 908.4501,-157.4407"/>
</g>
<!-- Node4&#45;&gt;Node11 -->
<g id="edge20" class="edge">
<title>Node4&#45;&gt;Node11</title>
<path fill="none" stroke="#191970" d="M652.7805,-191.9241C588.6469,-184.0179 492.9614,-170.968 406.413,-155.3416"/>
<polygon fill="#191970" stroke="#191970" points="406.9153,-151.8756 396.4494,-153.5236 405.6587,-158.7619 406.9153,-151.8756"/>
</g>
<!-- Node4&#45;&gt;Node12 -->
<g id="edge24" class="edge">
<title>Node4&#45;&gt;Node12</title>
<path fill="none" stroke="#191970" d="M798.2694,-190.466C861.4737,-182.2271 955.4888,-169.2589 1037,-154 1043.007,-152.8755 1049.2905,-151.581 1055.5717,-150.2294"/>
<polygon fill="#191970" stroke="#191970" points="1056.3816,-153.635 1065.4001,-148.0748 1054.8826,-146.7974 1056.3816,-153.635"/>
</g>
<!-- Node4&#45;&gt;Node13 -->
<g id="edge26" class="edge">
<title>Node4&#45;&gt;Node13</title>
<path fill="none" stroke="#191970" d="M686.9015,-190.4581C648.2627,-181.0284 588.3663,-166.4108 541.9345,-155.0792"/>
<polygon fill="#191970" stroke="#191970" points="542.4896,-151.6121 531.9448,-152.6413 540.8299,-158.4125 542.4896,-151.6121"/>
</g>
<!-- Node4&#45;&gt;Node14 -->
<g id="edge27" class="edge">
<title>Node4&#45;&gt;Node14</title>
<path fill="none" stroke="#191970" d="M799.1605,-194.7137C887.7879,-188.0277 1041.2535,-174.8111 1172,-154 1174.3654,-153.6235 1176.7705,-153.2176 1179.1999,-152.7887"/>
<polygon fill="#191970" stroke="#191970" points="1180.0947,-156.1824 1189.2861,-150.9127 1178.8147,-149.3004 1180.0947,-156.1824"/>
</g>
<!-- Node6&#45;&gt;Node1 -->
<g id="edge8" class="edge">
<title>Node6&#45;&gt;Node1</title>
<path fill="none" stroke="#191970" d="M167.263,-148.1003C184.2307,-163.9772 213.5701,-195.3978 246,-210 297.1385,-233.0262 445.8009,-248.0876 538.4375,-255.6699"/>
<polygon fill="#191970" stroke="#191970" points="538.3621,-259.1751 548.6113,-256.4911 538.9254,-252.1978 538.3621,-259.1751"/>
</g>
<!-- Node6&#45;&gt;Node2 -->
<g id="edge7" class="edge">
<title>Node6&#45;&gt;Node2</title>
<path fill="none" stroke="#191970" d="M143.2543,-128.9005C131.336,-118.2535 111.8943,-100.8856 97.5132,-88.0385"/>
<polygon fill="#191970" stroke="#191970" points="99.5151,-85.1337 89.7257,-81.0817 94.8516,-90.354 99.5151,-85.1337"/>
</g>
<!-- Node6&#45;&gt;Node4 -->
<g id="edge9" class="edge">
<title>Node6&#45;&gt;Node4</title>
<path fill="none" stroke="#191970" d="M223.2897,-146.9021C241.785,-149.3107 261.6835,-151.8614 280,-154 406.4294,-168.7619 552.9536,-183.0754 642.6081,-191.7125"/>
<polygon fill="#191970" stroke="#191970" points="642.4266,-195.2111 652.716,-192.6855 643.0974,-188.2434 642.4266,-195.2111"/>
</g>
<!-- Node6&#45;&gt;Node5 -->
<g id="edge10" class="edge">
<title>Node6&#45;&gt;Node5</title>
<path fill="none" stroke="#191970" d="M167.8977,-128.9005C183.8164,-117.9052 210.1121,-99.7422 228.8599,-86.7927"/>
<polygon fill="#191970" stroke="#191970" points="230.8892,-89.6448 237.128,-81.0817 226.9108,-83.8852 230.8892,-89.6448"/>
</g>
<!-- Node7&#45;&gt;Node4 -->
<g id="edge12" class="edge">
<title>Node7&#45;&gt;Node4</title>
<path fill="none" stroke="#191970" d="M825.6722,-148.0419C809.2165,-158.1701 780.1166,-174.2832 757.4942,-185.8813"/>
<polygon fill="#191970" stroke="#191970" points="755.9119,-182.7593 748.5625,-190.3906 759.0668,-189.0081 755.9119,-182.7593"/>
</g>
<!-- Node8&#45;&gt;Node1 -->
<g id="edge14" class="edge">
<title>Node8&#45;&gt;Node1</title>
<path fill="none" stroke="#191970" d="M619.8257,-148.0493C623.0176,-166.8307 623.5965,-209.1173 621.5624,-236.4249"/>
<polygon fill="#191970" stroke="#191970" points="618.0746,-236.1319 620.6143,-246.4178 625.0433,-236.7931 618.0746,-236.1319"/>
</g>
<!-- Node8&#45;&gt;Node4 -->
<g id="edge15" class="edge">
<title>Node8&#45;&gt;Node4</title>
<path fill="none" stroke="#191970" d="M638.1161,-148.0419C657.7739,-157.945 685.9978,-173.57 705.2319,-185.1015"/>
<polygon fill="#191970" stroke="#191970" points="703.5184,-188.1563 713.875,-190.3906 707.1722,-182.1855 703.5184,-188.1563"/>
</g>
<!-- Node9&#45;&gt;Node4 -->
<g id="edge17" class="edge">
<title>Node9&#45;&gt;Node4</title>
<path fill="none" stroke="#191970" d="M921.3615,-153.5784C879.213,-164.2151 821.7203,-178.2661 779.979,-188.1125"/>
<polygon fill="#191970" stroke="#191970" points="778.9274,-184.7642 769.9926,-190.4581 780.528,-191.5788 778.9274,-184.7642"/>
</g>
<!-- Node10 -->
<g id="node11" class="node">
<title>Node10</title>
<g id="a_node11"><a xlink:href="$constraints_2basic_8h.html" xlink:title="Functions and data structures for constraining secondary structure predictions and evaluation.">
<polygon fill="none" stroke="#000000" points="689.5,-56.5 689.5,-86.5 808.5,-86.5 808.5,-56.5 689.5,-56.5"/>
<text text-anchor="start" x="697.5" y="-74.5" font-family="Helvetica,sans-Serif" font-size="10.00" fill="#000000">ViennaRNA/constraints</text>
<text text-anchor="middle" x="749" y="-63.5" font-family="Helvetica,sans-Serif" font-size="10.00" fill="#000000">/basic.h</text>
</a>
</g>
</g>
<!-- Node9&#45;&gt;Node10 -->
<g id="edge18" class="edge">
<title>Node9&#45;&gt;Node10</title>
<path fill="none" stroke="#191970" d="M925.8323,-123.4639C891.6295,-113.4131 846.4531,-100.1375 810.3244,-89.5208"/>
<polygon fill="#191970" stroke="#191970" points="810.972,-86.0631 800.3908,-86.6017 808.9983,-92.7792 810.972,-86.0631"/>
</g>
<!-- Node10&#45;&gt;Node4 -->
<g id="edge19" class="edge">
<title>Node10&#45;&gt;Node4</title>
<path fill="none" stroke="#191970" d="M746.2791,-86.7016C742.1098,-109.9952 734.1405,-154.5195 729.5311,-180.2718"/>
<polygon fill="#191970" stroke="#191970" points="726.0455,-179.8814 727.7287,-190.3416 732.936,-181.1147 726.0455,-179.8814"/>
</g>
<!-- Node11&#45;&gt;Node1 -->
<g id="edge21" class="edge">
<title>Node11&#45;&gt;Node1</title>
<path fill="none" stroke="#191970" d="M377.4157,-153.513C430.1982,-175.7568 524.3149,-217.4777 577.2608,-242.0398"/>
<polygon fill="#191970" stroke="#191970" points="576.1064,-245.3632 586.6486,-246.4178 579.065,-239.0192 576.1064,-245.3632"/>
</g>
<!-- Node11&#45;&gt;Node4 -->
<g id="edge22" class="edge">
<title>Node11&#45;&gt;Node4</title>
<path fill="none" stroke="#191970" d="M398.7161,-150.3743C404.9042,-151.6682 411.0836,-152.9093 417,-154 494.2987,-168.2508 582.8446,-180.7499 645.3376,-189.1082"/>
<polygon fill="#191970" stroke="#191970" points="645.1514,-192.6142 655.5259,-190.4652 646.0756,-185.6755 645.1514,-192.6142"/>
</g>
<!-- Node11&#45;&gt;Node10 -->
<g id="edge23" class="edge">
<title>Node11&#45;&gt;Node10</title>
<path fill="none" stroke="#191970" d="M398.7854,-124.7969C401.8976,-124.1691 404.9832,-123.5659 408,-123 501.3349,-105.4916 609.9116,-89.9096 679.0163,-80.5877"/>
<polygon fill="#191970" stroke="#191970" points="679.8938,-84.0015 689.3393,-79.2022 678.9625,-77.0637 679.8938,-84.0015"/>
</g>
<!-- Node12&#45;&gt;Node4 -->
<g id="edge25" class="edge">
<title>Node12&#45;&gt;Node4</title>
<path fill="none" stroke="#191970" d="M1082.891,-148.0748C1073.949,-150.1782 1064.1535,-152.2865 1055,-154 971.9591,-169.5452 875.9403,-182.7131 809.0847,-190.9249"/>
<polygon fill="#191970" stroke="#191970" points="808.5284,-187.4667 799.0249,-192.15 809.3747,-194.4153 808.5284,-187.4667"/>
</g>
<!-- Node14&#45;&gt;Node1 -->
<g id="edge28" class="edge">
<title>Node14&#45;&gt;Node1</title>
<path fill="none" stroke="#191970" d="M1192.2356,-153.5344C1191.4866,-153.6908 1190.7412,-153.846 1190,-154 1064.0363,-180.1657 1032.3864,-185.9588 906,-210 834.0327,-223.6896 751.5675,-238.7264 692.9475,-248.9985"/>
<polygon fill="#191970" stroke="#191970" points="692.2686,-245.564 683.0199,-250.7323 693.4729,-252.4597 692.2686,-245.564"/>
</g>
<!-- Node14&#45;&gt;Node4 -->
<g id="edge29" class="edge">
<title>Node14&#45;&gt;Node4</title>
<path fill="none" stroke="#191970" d="M1193.0098,-153.5088C1192.0006,-153.6775 1190.9968,-153.8413 1190,-154 1057.9317,-175.0215 902.6826,-188.2941 809.3655,-194.9145"/>
<polygon fill="#191970" stroke="#191970" points="808.8674,-191.4407 799.1365,-195.631 809.3567,-198.4236 808.8674,-191.4407"/>
</g>
<!-- Node14&#45;&gt;Node15 -->
<g id="edge30" class="edge">
<title>Node14&#45;&gt;Node15</title>
<path fill="none" stroke="#191970" d="M1268.5648,-123.2967C1280.049,-112.7564 1295.3312,-98.7303 1307.0962,-87.9323"/>
<polygon fill="#191970" stroke="#191970" points="1309.5886,-90.3954 1314.5894,-81.055 1304.8553,-85.2382 1309.5886,-90.3954"/>
</g>
<!-- Node15&#45;&gt;Node1 -->
<g id="edge32" class="edge">
<title>Node15&#45;&gt;Node1</title>
<path fill="none" stroke="#191970" d="M1333.7043,-81.0176C1342.7277,-97.939 1350.7976,-133.4104 1333,-154 1291.7022,-201.7764 869.9754,-241.4313 693.2081,-255.7611"/>
<polygon fill="#191970" stroke="#191970" points="692.882,-252.2759 683.195,-256.5669 693.4436,-259.2534 692.882,-252.2759"/>
</g>
<!-- Node16 -->
<g id="node17" class="node">
<title>Node16</title>
<g id="a_node17"><a xlink:title=" ">
<polygon fill="none" stroke="#bfbfbf" points="1352,-.5 1352,-19.5 1398,-19.5 1398,-.5 1352,-.5"/>
<text text-anchor="middle" x="1375" y="-7.5" font-family="Helvetica,sans-Serif" font-size="10.00" fill="#000000">stdio.h</text>
</a>
</g>
</g>
<!-- Node15&#45;&gt;Node16 -->
<g id="edge31" class="edge">
<title>Node15&#45;&gt;Node16</title>
<path fill="none" stroke="#191970" d="M1332.8125,-61.8906C1340.254,-52.7376 1351.6334,-38.7409 1360.6992,-27.59"/>
<polygon fill="#191970" stroke="#191970" points="1363.4847,-29.712 1367.0774,-19.7449 1358.0533,-25.2962 1363.4847,-29.712"/>
</g>
<!-- Node17&#45;&gt;Node1 -->
<g id="edge45" class="edge">
<title>Node17&#45;&gt;Node1</title>
<path fill="none" stroke="#191970" d="M694.4688,-313.3906C681.8823,-305.0673 663.2393,-292.7389 647.283,-282.1872"/>
<polygon fill="#191970" stroke="#191970" points="649.0221,-279.1411 638.7504,-276.5446 645.1609,-284.98 649.0221,-279.1411"/>
</g>
<!-- Node17&#45;&gt;Node4 -->
<g id="edge46" class="edge">
<title>Node17&#45;&gt;Node4</title>
<path fill="none" stroke="#191970" d="M710.334,-313.3484C713.1146,-293.2295 719.5786,-246.4608 723.2759,-219.7098"/>
<polygon fill="#191970" stroke="#191970" points="726.7701,-219.9918 724.6722,-209.6068 719.836,-219.0334 726.7701,-219.9918"/>
</g>
<!-- Node17&#45;&gt;Node16 -->
<g id="edge44" class="edge">
<title>Node17&#45;&gt;Node16</title>
<path fill="none" stroke="#191970" d="M757.0906,-319.8407C917.6267,-308.6605 1425,-267.9506 1425,-200 1425,-200 1425,-200 1425,-138.5 1425,-100.8735 1420.9872,-90.5128 1406,-56 1401.6618,-46.01 1395.1066,-35.8691 1389.1398,-27.6603"/>
<polygon fill="#191970" stroke="#191970" points="1391.8629,-25.4589 1383.0289,-19.6098 1386.2873,-29.6912 1391.8629,-25.4589"/>
</g>
</g>
</svg>
