<?xml version="1.0" encoding="UTF-8" standalone="no"?>
<!DOCTYPE svg PUBLIC "-//W3C//DTD SVG 1.1//EN"
 "http://www.w3.org/Graphics/SVG/1.1/DTD/svg11.dtd">
<!-- Generated by graphviz version 2.40.1 (0)
 -->
<!-- Title: ViennaRNA/params/constants.h Pages: 1 -->
<svg width="5091pt" height="520pt"
 viewBox="0.00 0.00 5090.50 520.00" xmlns="http://www.w3.org/2000/svg" xmlns:xlink="http://www.w3.org/1999/xlink">
<g id="graph0" class="graph" transform="scale(1 1) rotate(0) translate(4 516)">
<title>ViennaRNA/params/constants.h</title>
<!-- Node2 -->
<g id="node1" class="node">
<title>Node2</title>
<g id="a_node1"><a xlink:title="Energy parameter constants.">
<polygon fill="#bfbfbf" stroke="#000000" points="1069,-492.5 1069,-511.5 1227,-511.5 1227,-492.5 1069,-492.5"/>
<text text-anchor="middle" x="1148" y="-499.5" font-family="Helvetica,sans-Serif" font-size="10.00" fill="#000000">ViennaRNA/params/constants.h</text>
</a>
</g>
</g>
<!-- Node3 -->
<g id="node2" class="node">
<title>Node3</title>
<g id="a_node2"><a xlink:href="$energy__const_8h.html" xlink:title="Use ViennaRNA/params/constants.h instead.">
<polygon fill="none" stroke="#000000" points="0,-436.5 0,-455.5 138,-455.5 138,-436.5 0,-436.5"/>
<text text-anchor="middle" x="69" y="-443.5" font-family="Helvetica,sans-Serif" font-size="10.00" fill="#000000">ViennaRNA/energy_const.h</text>
</a>
</g>
</g>
<!-- Node2&#45;&gt;Node3 -->
<g id="edge1" class="edge">
<title>Node2&#45;&gt;Node3</title>
<path fill="none" stroke="#191970" d="M1058.6304,-500.0818C884.1071,-495.847 485.8311,-483.7812 152,-456 147.5162,-455.6269 142.9012,-455.1975 138.2526,-454.7309"/>
<polygon fill="#191970" stroke="#191970" points="1058.7103,-503.5846 1068.7914,-500.3256 1058.8783,-496.5866 1058.7103,-503.5846"/>
</g>
<!-- Node4 -->
<g id="node3" class="node">
<title>Node4</title>
<g id="a_node3"><a xlink:href="$params_2basic_8h.html" xlink:title="Functions to deal with sets of energy parameters.">
<polygon fill="none" stroke="#000000" points="2180,-436.5 2180,-455.5 2318,-455.5 2318,-436.5 2180,-436.5"/>
<text text-anchor="middle" x="2249" y="-443.5" font-family="Helvetica,sans-Serif" font-size="10.00" fill="#000000">ViennaRNA/params/basic.h</text>
</a>
</g>
</g>
<!-- Node2&#45;&gt;Node4 -->
<g id="edge2" class="edge">
<title>Node2&#45;&gt;Node4</title>
<path fill="none" stroke="#191970" d="M1237.4221,-497.4517C1451.216,-486.5776 1988.3746,-459.2562 2179.8605,-449.5166"/>
<polygon fill="#191970" stroke="#191970" points="1236.9905,-493.9691 1227.1812,-497.9726 1237.3461,-500.96 1236.9905,-493.9691"/>
</g>
<!-- Node23 -->
<g id="node17" class="node">
<title>Node23</title>
<g id="a_node17"><a xlink:href="$datastructures_2basic_8h.html" xlink:title="Various data structures and pre&#45;processor macros.">
<polygon fill="none" stroke="#000000" points="2226,-246.5 2226,-276.5 2360,-276.5 2360,-246.5 2226,-246.5"/>
<text text-anchor="start" x="2234" y="-264.5" font-family="Helvetica,sans-Serif" font-size="10.00" fill="#000000">ViennaRNA/datastructures</text>
<text text-anchor="middle" x="2293" y="-253.5" font-family="Helvetica,sans-Serif" font-size="10.00" fill="#000000">/basic.h</text>
</a>
</g>
</g>
<!-- Node2&#45;&gt;Node23 -->
<g id="edge120" class="edge">
<title>Node2&#45;&gt;Node23</title>
<path fill="none" stroke="#191970" d="M1203.2714,-490.3906C1393.156,-450.5065 2018.492,-319.1587 2225.6635,-275.6436"/>
<polygon fill="#191970" stroke="#191970" points="1202.305,-487.0171 1193.238,-492.498 1203.744,-493.8676 1202.305,-487.0171"/>
</g>
<!-- Node93 -->
<g id="node49" class="node">
<title>Node93</title>
<g id="a_node49"><a xlink:href="$default_8h_source.html" xlink:title=" ">
<polygon fill="none" stroke="#000000" points="4855,-436.5 4855,-455.5 4999,-455.5 4999,-436.5 4855,-436.5"/>
<text text-anchor="middle" x="4927" y="-443.5" font-family="Helvetica,sans-Serif" font-size="10.00" fill="#000000">ViennaRNA/params/default.h</text>
</a>
</g>
</g>
<!-- Node2&#45;&gt;Node93 -->
<g id="edge117" class="edge">
<title>Node2&#45;&gt;Node93</title>
<path fill="none" stroke="#191970" d="M1237.436,-500.6747C1757.3798,-492.9698 4384.1636,-454.0441 4854.765,-447.0704"/>
<polygon fill="#191970" stroke="#191970" points="1237.3122,-497.176 1227.3652,-500.8239 1237.416,-504.1753 1237.3122,-497.176"/>
</g>
<!-- Node5 -->
<g id="node4" class="node">
<title>Node5</title>
<g id="a_node4"><a xlink:href="$2Dfold_8h.html" xlink:title="MFE structures for base pair distance classes.">
<polygon fill="none" stroke="#000000" points="652,-185 652,-204 760,-204 760,-185 652,-185"/>
<text text-anchor="middle" x="706" y="-192" font-family="Helvetica,sans-Serif" font-size="10.00" fill="#000000">ViennaRNA/2Dfold.h</text>
</a>
</g>
</g>
<!-- Node4&#45;&gt;Node5 -->
<g id="edge3" class="edge">
<title>Node4&#45;&gt;Node5</title>
<path fill="none" stroke="#191970" d="M2169.8451,-443.5602C1971.6986,-437.2355 1458.0464,-419.4425 1288,-400 1149.7675,-384.195 1111.184,-390.355 980,-344 873.47,-306.3567 758.7139,-230.8624 719.7962,-204.1429"/>
<polygon fill="#191970" stroke="#191970" points="2169.7848,-447.06 2179.891,-443.8797 2170.0073,-440.0635 2169.7848,-447.06"/>
</g>
<!-- Node6 -->
<g id="node5" class="node">
<title>Node6</title>
<g id="a_node5"><a xlink:href="$2Dpfold_8h.html" xlink:title="Partition function implementations for base pair distance classes.">
<polygon fill="none" stroke="#000000" points="778.5,-185 778.5,-204 891.5,-204 891.5,-185 778.5,-185"/>
<text text-anchor="middle" x="835" y="-192" font-family="Helvetica,sans-Serif" font-size="10.00" fill="#000000">ViennaRNA/2Dpfold.h</text>
</a>
</g>
</g>
<!-- Node4&#45;&gt;Node6 -->
<g id="edge4" class="edge">
<title>Node4&#45;&gt;Node6</title>
<path fill="none" stroke="#191970" d="M2169.7108,-442.6207C1940.5794,-432.3037 1280.6216,-398.5544 1072,-344 1002.1448,-325.7329 984.1453,-316.9497 924,-277 891.0059,-255.0847 858.4736,-220.8647 843.5188,-204.2316"/>
<polygon fill="#191970" stroke="#191970" points="2169.8205,-446.129 2179.9671,-443.0798 2170.1336,-439.136 2169.8205,-446.129"/>
</g>
<!-- Node7 -->
<g id="node6" class="node">
<title>Node7</title>
<g id="a_node6"><a xlink:href="$alifold_8h.html" xlink:title="Functions for comparative structure prediction using RNA sequence alignments.">
<polygon fill="none" stroke="#000000" points="1383.5,-.5 1383.5,-19.5 1488.5,-19.5 1488.5,-.5 1383.5,-.5"/>
<text text-anchor="middle" x="1436" y="-7.5" font-family="Helvetica,sans-Serif" font-size="10.00" fill="#000000">ViennaRNA/alifold.h</text>
</a>
</g>
</g>
<!-- Node4&#45;&gt;Node7 -->
<g id="edge5" class="edge">
<title>Node4&#45;&gt;Node7</title>
<path fill="none" stroke="#191970" d="M2169.8787,-445.728C1821.2467,-444.3199 435.6425,-436.4435 351,-400 309.8669,-382.2898 280,-373.2837 280,-328.5 280,-328.5 280,-328.5 280,-194.5 280,-148.8989 301.2801,-134.4006 341,-112 386.9933,-86.0615 1171.3875,-28.7701 1383.4908,-13.6943"/>
<polygon fill="#191970" stroke="#191970" points="2169.8746,-449.228 2179.8885,-445.7678 2169.9025,-442.228 2169.8746,-449.228"/>
</g>
<!-- Node8 -->
<g id="node7" class="node">
<title>Node8</title>
<g id="a_node7"><a xlink:href="$cofold_8h.html" xlink:title="MFE implementations for RNA&#45;RNA interaction.">
<polygon fill="none" stroke="#000000" points="1165,-118 1165,-137 1271,-137 1271,-118 1165,-118"/>
<text text-anchor="middle" x="1218" y="-125" font-family="Helvetica,sans-Serif" font-size="10.00" fill="#000000">ViennaRNA/cofold.h</text>
</a>
</g>
</g>
<!-- Node4&#45;&gt;Node8 -->
<g id="edge6" class="edge">
<title>Node4&#45;&gt;Node8</title>
<path fill="none" stroke="#191970" d="M2169.7093,-444.9248C1830.5654,-440.2031 517.4995,-420.6219 480,-400 446.4622,-381.5567 432,-366.7745 432,-328.5 432,-328.5 432,-328.5 432,-261.5 432,-221.8416 433.8183,-202.1761 466,-179 480.1946,-168.7775 995.549,-139.69 1164.7685,-130.3941"/>
<polygon fill="#191970" stroke="#191970" points="2169.8863,-448.4275 2179.934,-445.0668 2169.9836,-441.4282 2169.8863,-448.4275"/>
</g>
<!-- Node9 -->
<g id="node8" class="node">
<title>Node9</title>
<g id="a_node8"><a xlink:href="$concentrations_8h.html" xlink:title="Concentration computations for RNA&#45;RNA interactions.">
<polygon fill="none" stroke="#000000" points="70.5,-319 70.5,-338 213.5,-338 213.5,-319 70.5,-319"/>
<text text-anchor="middle" x="142" y="-326" font-family="Helvetica,sans-Serif" font-size="10.00" fill="#000000">ViennaRNA/concentrations.h</text>
</a>
</g>
</g>
<!-- Node4&#45;&gt;Node9 -->
<g id="edge7" class="edge">
<title>Node4&#45;&gt;Node9</title>
<path fill="none" stroke="#191970" d="M2169.6649,-445.6539C1806.9658,-443.8856 320.3004,-434.55 228,-400 193.8132,-387.2031 163.4579,-354.6412 149.7437,-338.2456"/>
<polygon fill="#191970" stroke="#191970" points="2169.7942,-449.1544 2179.811,-445.7028 2169.828,-442.1545 2169.7942,-449.1544"/>
</g>
<!-- Node10 -->
<g id="node9" class="node">
<title>Node10</title>
<g id="a_node9"><a xlink:href="$part__func__co_8h.html" xlink:title="Partition function for two RNA sequences.">
<polygon fill="none" stroke="#000000" points="1135,-.5 1135,-19.5 1271,-19.5 1271,-.5 1135,-.5"/>
<text text-anchor="middle" x="1203" y="-7.5" font-family="Helvetica,sans-Serif" font-size="10.00" fill="#000000">ViennaRNA/part_func_co.h</text>
</a>
</g>
</g>
<!-- Node4&#45;&gt;Node10 -->
<g id="edge110" class="edge">
<title>Node4&#45;&gt;Node10</title>
<path fill="none" stroke="#191970" d="M2169.6774,-445.8954C1815.3103,-445.2025 390.6955,-439.9346 305,-400 266.6102,-382.1101 242,-370.8536 242,-328.5 242,-328.5 242,-328.5 242,-127.5 242,-37.4707 915.1086,-15.835 1134.6577,-11.1726"/>
<polygon fill="#191970" stroke="#191970" points="2169.8404,-449.3956 2179.8471,-445.9146 2169.8537,-442.3956 2169.8404,-449.3956"/>
</g>
<!-- Node11 -->
<g id="node10" class="node">
<title>Node11</title>
<g id="a_node10"><a xlink:href="$equilibrium__probs_8h.html" xlink:title="Equilibrium Probability implementations.">
<polygon fill="none" stroke="#000000" points="1289,-112.5 1289,-142.5 1407,-142.5 1407,-112.5 1289,-112.5"/>
<text text-anchor="start" x="1297" y="-130.5" font-family="Helvetica,sans-Serif" font-size="10.00" fill="#000000">ViennaRNA/equilibrium</text>
<text text-anchor="middle" x="1348" y="-119.5" font-family="Helvetica,sans-Serif" font-size="10.00" fill="#000000">_probs.h</text>
</a>
</g>
</g>
<!-- Node4&#45;&gt;Node11 -->
<g id="edge9" class="edge">
<title>Node4&#45;&gt;Node11</title>
<path fill="none" stroke="#191970" d="M2169.3971,-445.3434C1907.1037,-442.8849 1071.5313,-432.6269 804,-400 653.3088,-381.6224 470,-480.3077 470,-328.5 470,-328.5 470,-328.5 470,-261.5 470,-223.8735 460.0999,-203.0943 489,-179 556.5755,-122.6617 1192.8182,-154.8235 1280,-143 1282.8796,-142.6095 1285.817,-142.1559 1288.776,-141.6546"/>
<polygon fill="#191970" stroke="#191970" points="2169.568,-448.845 2179.6,-445.4378 2169.6328,-441.8453 2169.568,-448.845"/>
</g>
<!-- Node12 -->
<g id="node11" class="node">
<title>Node12</title>
<g id="a_node11"><a xlink:href="$part__func_8h.html" xlink:title="Partition function implementations.">
<polygon fill="none" stroke="#000000" points="1288,-56.5 1288,-75.5 1408,-75.5 1408,-56.5 1288,-56.5"/>
<text text-anchor="middle" x="1348" y="-63.5" font-family="Helvetica,sans-Serif" font-size="10.00" fill="#000000">ViennaRNA/part_func.h</text>
</a>
</g>
</g>
<!-- Node4&#45;&gt;Node12 -->
<g id="edge109" class="edge">
<title>Node4&#45;&gt;Node12</title>
<path fill="none" stroke="#191970" d="M2169.9224,-445.2644C1829.9687,-441.9413 506.1252,-427.294 422,-400 368.6458,-382.6895 318,-384.5921 318,-328.5 318,-328.5 318,-328.5 318,-194.5 318,-121.8945 389.3595,-132.5368 459,-112 632.8844,-60.7218 1093.4336,-92.1553 1274,-76 1278.5193,-75.5957 1283.1861,-75.115 1287.8756,-74.5863"/>
<polygon fill="#191970" stroke="#191970" points="2169.8965,-448.7642 2179.9301,-445.3617 2169.9647,-441.7645 2169.8965,-448.7642"/>
</g>
<!-- Node13 -->
<g id="node12" class="node">
<title>Node13</title>
<g id="a_node12"><a xlink:href="$eval_8h.html" xlink:title="Functions and variables related to energy evaluation of sequence/structure pairs.">
<polygon fill="none" stroke="#000000" points="498,-185 498,-204 596,-204 596,-185 498,-185"/>
<text text-anchor="middle" x="547" y="-192" font-family="Helvetica,sans-Serif" font-size="10.00" fill="#000000">ViennaRNA/eval.h</text>
</a>
</g>
</g>
<!-- Node4&#45;&gt;Node13 -->
<g id="edge14" class="edge">
<title>Node4&#45;&gt;Node13</title>
<path fill="none" stroke="#191970" d="M2169.7114,-444.8026C1863.6617,-439.6656 769.5388,-416.3577 633,-344 577.4396,-314.5562 555.1625,-232.8182 548.9506,-204.3943"/>
<polygon fill="#191970" stroke="#191970" points="2169.7754,-448.304 2179.8322,-444.9706 2169.8917,-441.305 2169.7754,-448.304"/>
</g>
<!-- Node14 -->
<g id="node13" class="node">
<title>Node14</title>
<g id="a_node13"><a xlink:href="$fold_8h.html" xlink:title="MFE calculations for single RNA sequences.">
<polygon fill="none" stroke="#000000" points="775.5,-118 775.5,-137 870.5,-137 870.5,-118 775.5,-118"/>
<text text-anchor="middle" x="823" y="-125" font-family="Helvetica,sans-Serif" font-size="10.00" fill="#000000">ViennaRNA/fold.h</text>
</a>
</g>
</g>
<!-- Node4&#45;&gt;Node14 -->
<g id="edge16" class="edge">
<title>Node4&#45;&gt;Node14</title>
<path fill="none" stroke="#191970" d="M2169.7643,-445.2048C1826.3434,-441.606 482.1634,-425.8872 447,-400 367.7848,-341.6819 361.5118,-244.3876 435,-179 460.0655,-156.6974 677.3887,-138.1548 775.4033,-130.8449"/>
<polygon fill="#191970" stroke="#191970" points="2169.836,-448.7057 2179.872,-445.3103 2169.9091,-441.706 2169.836,-448.7057"/>
</g>
<!-- Node15 -->
<g id="node14" class="node">
<title>Node15</title>
<g id="a_node14"><a xlink:href="$fold__compound_8h.html" xlink:title="The Basic Fold Compound API.">
<polygon fill="none" stroke="#ff0000" points="2176,-380.5 2176,-399.5 2322,-399.5 2322,-380.5 2176,-380.5"/>
<text text-anchor="middle" x="2249" y="-387.5" font-family="Helvetica,sans-Serif" font-size="10.00" fill="#000000">ViennaRNA/fold_compound.h</text>
</a>
</g>
</g>
<!-- Node4&#45;&gt;Node15 -->
<g id="edge17" class="edge">
<title>Node4&#45;&gt;Node15</title>
<path fill="none" stroke="#191970" d="M2242.5113,-426.1575C2241.919,-417.155 2242.3335,-406.9199 2243.7549,-399.6427"/>
<polygon fill="#191970" stroke="#191970" points="2239.0561,-426.739 2243.7332,-436.2455 2246.0053,-425.8972 2239.0561,-426.739"/>
</g>
<!-- Node4&#45;&gt;Node23 -->
<g id="edge116" class="edge">
<title>Node4&#45;&gt;Node23</title>
<path fill="none" stroke="#191970" d="M2275.7372,-431.7549C2290.6656,-424.0683 2308.6876,-413.3878 2322,-400 2342.0588,-379.8275 2345.885,-371.5438 2353,-344 2356.4459,-330.6601 2359.1759,-325.3161 2353,-313 2345.0935,-297.2327 2329.8158,-285.0591 2316.5235,-276.5161"/>
<polygon fill="#191970" stroke="#191970" points="2273.8494,-428.7848 2266.4546,-436.3721 2276.9669,-435.0523 2273.8494,-428.7848"/>
</g>
<!-- Node29 -->
<g id="node22" class="node">
<title>Node29</title>
<g id="a_node22"><a xlink:href="$gquad_8h.html" xlink:title="G&#45;quadruplexes.">
<polygon fill="none" stroke="#000000" points="4065,-185 4065,-204 4171,-204 4171,-185 4065,-185"/>
<text text-anchor="middle" x="4118" y="-192" font-family="Helvetica,sans-Serif" font-size="10.00" fill="#000000">ViennaRNA/gquad.h</text>
</a>
</g>
</g>
<!-- Node4&#45;&gt;Node29 -->
<g id="edge105" class="edge">
<title>Node4&#45;&gt;Node29</title>
<path fill="none" stroke="#191970" d="M2328.0704,-443.4053C2660.9669,-431.8559 3937.9805,-381.0479 4082,-277 4106.321,-259.4291 4114.4105,-221.8083 4116.9352,-204.0961"/>
<polygon fill="#191970" stroke="#191970" points="2327.9035,-439.9089 2318.0302,-443.7517 2328.1449,-446.9048 2327.9035,-439.9089"/>
</g>
<!-- Node30 -->
<g id="node23" class="node">
<title>Node30</title>
<g id="a_node23"><a xlink:href="$LPfold_8h.html" xlink:title="Partition function and equilibrium probability implementation for the sliding window algorithm.">
<polygon fill="none" stroke="#000000" points="2126,-56.5 2126,-75.5 2234,-75.5 2234,-56.5 2126,-56.5"/>
<text text-anchor="middle" x="2180" y="-63.5" font-family="Helvetica,sans-Serif" font-size="10.00" fill="#000000">ViennaRNA/LPfold.h</text>
</a>
</g>
</g>
<!-- Node4&#45;&gt;Node30 -->
<g id="edge106" class="edge">
<title>Node4&#45;&gt;Node30</title>
<path fill="none" stroke="#191970" d="M2328.3734,-445.5832C2756.1453,-443.2144 4769.7381,-430.4607 4826,-400 4852.4503,-385.6796 4855.1659,-372.7515 4864,-344 4909.5837,-195.6422 4755.225,-142.2566 4603,-112 4483.0376,-88.1559 2581.3894,-69.6713 2234.1928,-66.4865"/>
<polygon fill="#191970" stroke="#191970" points="2328.2465,-442.0837 2318.2659,-445.6389 2328.2851,-449.0836 2328.2465,-442.0837"/>
</g>
<!-- Node31 -->
<g id="node24" class="node">
<title>Node31</title>
<g id="a_node24"><a xlink:href="$MEA_8h.html" xlink:title="Computes a MEA (maximum expected accuracy) structure.">
<polygon fill="none" stroke="#000000" points="4449,-185 4449,-204 4551,-204 4551,-185 4449,-185"/>
<text text-anchor="middle" x="4500" y="-192" font-family="Helvetica,sans-Serif" font-size="10.00" fill="#000000">ViennaRNA/MEA.h</text>
</a>
</g>
</g>
<!-- Node4&#45;&gt;Node31 -->
<g id="edge107" class="edge">
<title>Node4&#45;&gt;Node31</title>
<path fill="none" stroke="#191970" d="M2328.0229,-445.2967C2751.5268,-441.4374 4734.209,-422.1945 4756,-400 4839.5504,-314.9025 4615.4781,-231.6219 4530.8529,-204.0429"/>
<polygon fill="#191970" stroke="#191970" points="2327.9819,-441.7968 2318.0142,-445.3877 2328.0456,-448.7966 2327.9819,-441.7968"/>
</g>
<!-- Node40 -->
<g id="node33" class="node">
<title>Node40</title>
<g id="a_node33"><a xlink:href="$subopt_8h.html" xlink:title="RNAsubopt and density of states declarations.">
<polygon fill="none" stroke="#000000" points="4321.5,-185 4321.5,-204 4430.5,-204 4430.5,-185 4321.5,-185"/>
<text text-anchor="middle" x="4376" y="-192" font-family="Helvetica,sans-Serif" font-size="10.00" fill="#000000">ViennaRNA/subopt.h</text>
</a>
</g>
</g>
<!-- Node4&#45;&gt;Node40 -->
<g id="edge111" class="edge">
<title>Node4&#45;&gt;Node40</title>
<path fill="none" stroke="#191970" d="M2328.4958,-444.2775C2509.7032,-440.0007 2967.2362,-427.2189 3349,-400 3596.2914,-382.3687 3657.9323,-374.2423 3904,-344 4109.9318,-318.6905 4221.0146,-425.4174 4366,-277 4385.1557,-257.3909 4381.3856,-221.4446 4378.1684,-204.2131"/>
<polygon fill="#191970" stroke="#191970" points="2328.173,-440.784 2318.2576,-444.517 2328.3368,-447.7821 2328.173,-440.784"/>
</g>
<!-- Node42 -->
<g id="node35" class="node">
<title>Node42</title>
<g id="a_node35"><a xlink:href="$external_8h.html" xlink:title="Energy evaluation of exterior loops for MFE and partition function calculations.">
<polygon fill="none" stroke="#ff0000" points="4569,-185 4569,-204 4709,-204 4709,-185 4569,-185"/>
<text text-anchor="middle" x="4639" y="-192" font-family="Helvetica,sans-Serif" font-size="10.00" fill="#000000">ViennaRNA/loops/external.h</text>
</a>
</g>
</g>
<!-- Node4&#45;&gt;Node42 -->
<g id="edge112" class="edge">
<title>Node4&#45;&gt;Node42</title>
<path fill="none" stroke="#191970" d="M2328.3064,-445.3058C2754.4515,-441.4853 4754.0276,-422.376 4776,-400 4840.1408,-334.681 4702.0091,-235.3807 4654.3773,-204.2101"/>
<polygon fill="#191970" stroke="#191970" points="2328.2044,-441.8065 2318.2361,-445.3959 2328.2671,-448.8062 2328.2044,-441.8065"/>
</g>
<!-- Node46 -->
<g id="node36" class="node">
<title>Node46</title>
<g id="a_node36"><a xlink:href="$hairpin_8h.html" xlink:title="Energy evaluation of hairpin loops for MFE and partition function calculations.">
<polygon fill="none" stroke="#ff0000" points="3914,-118 3914,-137 4048,-137 4048,-118 3914,-118"/>
<text text-anchor="middle" x="3981" y="-125" font-family="Helvetica,sans-Serif" font-size="10.00" fill="#000000">ViennaRNA/loops/hairpin.h</text>
</a>
</g>
</g>
<!-- Node4&#45;&gt;Node46 -->
<g id="edge113" class="edge">
<title>Node4&#45;&gt;Node46</title>
<path fill="none" stroke="#191970" d="M2328.4292,-444.9898C2734.4792,-438.9788 4565.1833,-401.3443 4718,-210 4726.598,-199.2343 4727.4405,-189.0351 4718,-179 4673.0739,-131.2442 4194.3425,-148.416 4129,-143 4102.6096,-140.8126 4073.6259,-137.892 4048.3563,-135.176"/>
<polygon fill="#191970" stroke="#191970" points="2328.1979,-441.4927 2318.25,-445.1382 2328.3,-448.4919 2328.1979,-441.4927"/>
</g>
<!-- Node48 -->
<g id="node37" class="node">
<title>Node48</title>
<g id="a_node37"><a xlink:href="$internal_8h.html" xlink:title="Energy evaluation of interior loops for MFE and partition function calculations.">
<polygon fill="none" stroke="#ff0000" points="4456.5,-118 4456.5,-137 4593.5,-137 4593.5,-118 4456.5,-118"/>
<text text-anchor="middle" x="4525" y="-125" font-family="Helvetica,sans-Serif" font-size="10.00" fill="#000000">ViennaRNA/loops/internal.h</text>
</a>
</g>
</g>
<!-- Node4&#45;&gt;Node48 -->
<g id="edge114" class="edge">
<title>Node4&#45;&gt;Node48</title>
<path fill="none" stroke="#191970" d="M2328.1072,-445.53C2728.6571,-442.5002 4521.7632,-420.9331 4719,-277 4756.36,-249.7366 4782.894,-215.1137 4754,-179 4734.1746,-154.2209 4653.7087,-140.5303 4593.7277,-133.6077"/>
<polygon fill="#191970" stroke="#191970" points="2328.0368,-442.0303 2318.0629,-445.6042 2328.0886,-449.0301 2328.0368,-442.0303"/>
</g>
<!-- Node50 -->
<g id="node38" class="node">
<title>Node50</title>
<g id="a_node38"><a xlink:href="$multibranch_8h.html" xlink:title="Energy evaluation of multibranch loops for MFE and partition function calculations.">
<polygon fill="none" stroke="#ff0000" points="4138,-118 4138,-137 4294,-137 4294,-118 4138,-118"/>
<text text-anchor="middle" x="4216" y="-125" font-family="Helvetica,sans-Serif" font-size="10.00" fill="#000000">ViennaRNA/loops/multibranch.h</text>
</a>
</g>
</g>
<!-- Node4&#45;&gt;Node50 -->
<g id="edge115" class="edge">
<title>Node4&#45;&gt;Node50</title>
<path fill="none" stroke="#191970" d="M2328.1085,-445.5103C2752.2127,-442.77 4739.5556,-428.4294 4796,-400 4831.8065,-381.9653 4851,-368.5919 4851,-328.5 4851,-328.5 4851,-328.5 4851,-261.5 4851,-198.2353 4794.2413,-201.201 4735,-179 4694.7785,-163.9268 4429.047,-142.9047 4294.2038,-133.0335"/>
<polygon fill="#191970" stroke="#191970" points="2328.0631,-442.0104 2318.0859,-445.5748 2328.1082,-449.0103 2328.0631,-442.0104"/>
</g>
<!-- Node92 -->
<g id="node48" class="node">
<title>Node92</title>
<g id="a_node48"><a xlink:href="$params_8h.html" xlink:title="Use ViennaRNA/params/basic.h instead.">
<polygon fill="none" stroke="#000000" points="4635,-380.5 4635,-399.5 4747,-399.5 4747,-380.5 4635,-380.5"/>
<text text-anchor="middle" x="4691" y="-387.5" font-family="Helvetica,sans-Serif" font-size="10.00" fill="#000000">ViennaRNA/params.h</text>
</a>
</g>
</g>
<!-- Node4&#45;&gt;Node92 -->
<g id="edge108" class="edge">
<title>Node4&#45;&gt;Node92</title>
<path fill="none" stroke="#191970" d="M2328.311,-445.7691C2687.0998,-444.5235 4160.7396,-437.1978 4621,-400 4625.5274,-399.6341 4630.2084,-399.1651 4634.9039,-398.6304"/>
<polygon fill="#191970" stroke="#191970" points="2328.2628,-442.2691 2318.2749,-445.8033 2328.2868,-449.2691 2328.2628,-442.2691"/>
</g>
<!-- Node9&#45;&gt;Node10 -->
<g id="edge8" class="edge">
<title>Node9&#45;&gt;Node10</title>
<path fill="none" stroke="#191970" d="M149.3466,-309.2941C158.5137,-283.5616 173,-236.287 173,-194.5 173,-194.5 173,-194.5 173,-127.5 173,-87.4081 192.4595,-74.5535 228,-56 268.1138,-35.059 920.2159,-17.0355 1134.9982,-11.6425"/>
<polygon fill="#191970" stroke="#191970" points="145.9715,-308.3312 145.8012,-318.9247 152.5405,-310.7495 145.9715,-308.3312"/>
</g>
<!-- Node11&#45;&gt;Node10 -->
<g id="edge13" class="edge">
<title>Node11&#45;&gt;Node10</title>
<path fill="none" stroke="#191970" d="M1279.0393,-109.734C1248.484,-100.401 1217.3319,-88.3533 1208,-76 1195.5324,-59.4957 1198.1254,-33.5712 1200.7639,-19.6331"/>
<polygon fill="#191970" stroke="#191970" points="1278.3278,-113.1737 1288.9105,-112.6658 1280.3208,-106.4634 1278.3278,-113.1737"/>
</g>
<!-- Node11&#45;&gt;Node12 -->
<g id="edge10" class="edge">
<title>Node11&#45;&gt;Node12</title>
<path fill="none" stroke="#191970" d="M1348,-102.2849C1348,-92.9858 1348,-82.9883 1348,-75.8469"/>
<polygon fill="#191970" stroke="#191970" points="1344.5001,-102.2977 1348,-112.2977 1351.5001,-102.2978 1344.5001,-102.2977"/>
</g>
<!-- Node12&#45;&gt;Node7 -->
<g id="edge11" class="edge">
<title>Node12&#45;&gt;Node7</title>
<path fill="none" stroke="#191970" d="M1371.9345,-50.769C1387.5283,-40.8456 1407.401,-28.1994 1420.8472,-19.6427"/>
<polygon fill="#191970" stroke="#191970" points="1369.886,-47.9239 1363.3284,-56.2455 1373.6441,-53.8296 1369.886,-47.9239"/>
</g>
<!-- Node12&#45;&gt;Node10 -->
<g id="edge12" class="edge">
<title>Node12&#45;&gt;Node10</title>
<path fill="none" stroke="#191970" d="M1313.4435,-52.6541C1287.0014,-42.4419 1251.1831,-28.6086 1227.6011,-19.5011"/>
<polygon fill="#191970" stroke="#191970" points="1312.4842,-56.0354 1323.0736,-56.3733 1315.0061,-49.5055 1312.4842,-56.0354"/>
</g>
<!-- Node13&#45;&gt;Node14 -->
<g id="edge15" class="edge">
<title>Node13&#45;&gt;Node14</title>
<path fill="none" stroke="#191970" d="M595.5778,-182.5276C600.4494,-181.3332 605.3219,-180.141 610,-179 670.4315,-164.2603 740.5543,-147.3414 783.3391,-137.0391"/>
<polygon fill="#191970" stroke="#191970" points="594.5194,-179.1835 585.6423,-184.9668 596.1884,-185.9816 594.5194,-179.1835"/>
</g>
<!-- Node15&#45;&gt;Node4 -->
<g id="edge97" class="edge">
<title>Node15&#45;&gt;Node4</title>
<path fill="none" stroke="#191970" d="M2255.4795,-409.7046C2256.0821,-418.6944 2255.6779,-428.9382 2254.2668,-436.2455"/>
<polygon fill="#191970" stroke="#191970" points="2258.9368,-409.1421 2254.2451,-399.6427 2251.9889,-409.9945 2258.9368,-409.1421"/>
</g>
<!-- Node15&#45;&gt;Node5 -->
<g id="edge18" class="edge">
<title>Node15&#45;&gt;Node5</title>
<path fill="none" stroke="#191970" d="M2165.8076,-388.4205C1915.1508,-383.4279 1177.8926,-366.9496 1072,-344 930.7948,-313.3973 774.3458,-232.0416 723.1936,-204.089"/>
<polygon fill="#191970" stroke="#191970" points="2165.8801,-391.9225 2175.9475,-388.6215 2166.0188,-384.9239 2165.8801,-391.9225"/>
</g>
<!-- Node15&#45;&gt;Node6 -->
<g id="edge19" class="edge">
<title>Node15&#45;&gt;Node6</title>
<path fill="none" stroke="#191970" d="M2165.6222,-388.2305C1929.5696,-382.9692 1267.5529,-366.3842 1172,-344 1040.8196,-313.2697 897.5168,-231.9963 850.721,-204.0769"/>
<polygon fill="#191970" stroke="#191970" points="2165.789,-391.735 2175.8641,-388.4576 2165.9442,-384.7367 2165.789,-391.735"/>
</g>
<!-- Node15&#45;&gt;Node11 -->
<g id="edge89" class="edge">
<title>Node15&#45;&gt;Node11</title>
<path fill="none" stroke="#191970" d="M2165.6054,-388.7487C1899.404,-384.5137 1080.6056,-369.5393 964,-344 812.9815,-310.9234 728.713,-338.662 643,-210 635.3613,-198.5337 633.5365,-189.0134 643,-179 691.6926,-127.4779 1209.8057,-152.9122 1280,-143 1282.8775,-142.5937 1285.8131,-142.1273 1288.7706,-141.6157"/>
<polygon fill="#191970" stroke="#191970" points="2165.9216,-392.2541 2175.9757,-388.9127 2166.0323,-385.255 2165.9216,-392.2541"/>
</g>
<!-- Node15&#45;&gt;Node12 -->
<g id="edge93" class="edge">
<title>Node15&#45;&gt;Node12</title>
<path fill="none" stroke="#191970" d="M2165.6312,-388.8364C1845.1755,-384.2074 706.8298,-366.2652 633,-344 525.2,-311.4902 472.6445,-308.4465 418,-210 337.5738,-65.1057 1134.2409,-90.3806 1274,-76 1278.5136,-75.5356 1283.1762,-75.0112 1287.8627,-74.452"/>
<polygon fill="#191970" stroke="#191970" points="2165.7295,-392.3381 2175.7788,-388.9825 2165.8303,-385.3388 2165.7295,-392.3381"/>
</g>
<!-- Node15&#45;&gt;Node13 -->
<g id="edge90" class="edge">
<title>Node15&#45;&gt;Node13</title>
<path fill="none" stroke="#191970" d="M2165.406,-389.1117C1851.187,-385.5696 755.1672,-371.3046 686,-344 616.4448,-316.5422 567.1192,-232.7861 551.9274,-204.189"/>
<polygon fill="#191970" stroke="#191970" points="2165.7689,-392.6159 2175.8075,-389.2283 2165.8474,-385.6163 2165.7689,-392.6159"/>
</g>
<!-- Node19 -->
<g id="node15" class="node">
<title>Node19</title>
<g id="a_node15"><a xlink:href="$centroid_8h.html" xlink:title="Centroid structure computation.">
<polygon fill="none" stroke="#000000" points="1573,-118 1573,-137 1687,-137 1687,-118 1573,-118"/>
<text text-anchor="middle" x="1630" y="-125" font-family="Helvetica,sans-Serif" font-size="10.00" fill="#000000">ViennaRNA/centroid.h</text>
</a>
</g>
</g>
<!-- Node15&#45;&gt;Node19 -->
<g id="edge20" class="edge">
<title>Node15&#45;&gt;Node19</title>
<path fill="none" stroke="#191970" d="M2165.6589,-382.8738C1986.9251,-365.6853 1576.2136,-315.3525 1493,-210 1464.0886,-173.3967 1532.1244,-149.3054 1582.3153,-137.0679"/>
<polygon fill="#191970" stroke="#191970" points="2165.5154,-386.3758 2175.8016,-383.8375 2166.1776,-379.4072 2165.5154,-386.3758"/>
</g>
<!-- Node22 -->
<g id="node16" class="node">
<title>Node22</title>
<g id="a_node16"><a xlink:href="$dp__matrices_8h.html" xlink:title="Functions to deal with standard dynamic programming (DP) matrices.">
<polygon fill="none" stroke="#000000" points="1046.5,-185 1046.5,-204 1179.5,-204 1179.5,-185 1046.5,-185"/>
<text text-anchor="middle" x="1113" y="-192" font-family="Helvetica,sans-Serif" font-size="10.00" fill="#000000">ViennaRNA/dp_matrices.h</text>
</a>
</g>
</g>
<!-- Node15&#45;&gt;Node22 -->
<g id="edge22" class="edge">
<title>Node15&#45;&gt;Node22</title>
<path fill="none" stroke="#191970" d="M2165.658,-388.8793C1949.9154,-385.5012 1384.8212,-373.757 1306,-344 1240.6083,-319.313 1239.6741,-286.9094 1183,-246 1161.6272,-230.5723 1135.891,-214.1803 1121.972,-204.1389"/>
<polygon fill="#191970" stroke="#191970" points="2165.6112,-392.3789 2175.6641,-389.0338 2165.7194,-385.3797 2165.6112,-392.3789"/>
</g>
<!-- Node15&#45;&gt;Node23 -->
<g id="edge104" class="edge">
<title>Node15&#45;&gt;Node23</title>
<path fill="none" stroke="#191970" d="M2235.8353,-371.9452C2225.896,-355.9339 2215.4655,-332.1813 2225,-313 2232.7783,-297.3517 2247.8335,-285.1874 2261.8046,-276.6198"/>
<polygon fill="#191970" stroke="#191970" points="2233.0093,-374.0157 2241.476,-380.3847 2238.8291,-370.1259 2233.0093,-374.0157"/>
</g>
<!-- Node15&#45;&gt;Node29 -->
<g id="edge91" class="edge">
<title>Node15&#45;&gt;Node29</title>
<path fill="none" stroke="#191970" d="M2332.1026,-388.69C2665.6999,-382.905 3897.0226,-356.3162 4051,-277 4082.6576,-260.6927 4104.6626,-222.0828 4113.5759,-204.0672"/>
<polygon fill="#191970" stroke="#191970" points="2331.9639,-385.1918 2322.0255,-388.8632 2332.0842,-392.1908 2331.9639,-385.1918"/>
</g>
<!-- Node32 -->
<g id="node25" class="node">
<title>Node32</title>
<g id="a_node25"><a xlink:href="$mfe_8h.html" xlink:title="Compute Minimum Free energy (MFE) and backtrace corresponding secondary structures from RNA sequence ...">
<polygon fill="none" stroke="#000000" points="1236,-185 1236,-204 1332,-204 1332,-185 1236,-185"/>
<text text-anchor="middle" x="1284" y="-192" font-family="Helvetica,sans-Serif" font-size="10.00" fill="#000000">ViennaRNA/mfe.h</text>
</a>
</g>
</g>
<!-- Node15&#45;&gt;Node32 -->
<g id="edge92" class="edge">
<title>Node15&#45;&gt;Node32</title>
<path fill="none" stroke="#191970" d="M2165.5666,-388.1506C1948.2383,-383.0139 1379.1664,-367.3927 1346,-344 1298.0103,-310.1522 1287.0546,-231.9269 1284.6494,-204.3444"/>
<polygon fill="#191970" stroke="#191970" points="2165.5667,-391.6515 2175.6461,-388.3873 2165.7311,-384.6534 2165.5667,-391.6515"/>
</g>
<!-- Node34 -->
<g id="node27" class="node">
<title>Node34</title>
<g id="a_node27"><a xlink:href="$part__func__window_8h.html" xlink:title="Partition function and equilibrium probability implementation for the sliding window algorithm.">
<polygon fill="none" stroke="#000000" points="2124,-112.5 2124,-142.5 2236,-142.5 2236,-112.5 2124,-112.5"/>
<text text-anchor="start" x="2132" y="-130.5" font-family="Helvetica,sans-Serif" font-size="10.00" fill="#000000">ViennaRNA/part_func</text>
<text text-anchor="middle" x="2180" y="-119.5" font-family="Helvetica,sans-Serif" font-size="10.00" fill="#000000">_window.h</text>
</a>
</g>
</g>
<!-- Node15&#45;&gt;Node34 -->
<g id="edge94" class="edge">
<title>Node15&#45;&gt;Node34</title>
<path fill="none" stroke="#191970" d="M2332.6411,-389.2183C2605.0361,-386.3898 3464.9843,-375.1598 3741,-344 3948.1217,-320.6177 4325.4781,-328.2724 4180,-179 4145.1328,-143.2234 2556.8165,-130.1523 2236.0971,-127.8755"/>
<polygon fill="#191970" stroke="#191970" points="2332.3907,-385.7206 2322.4272,-389.3232 2332.4627,-392.7202 2332.3907,-385.7206"/>
</g>
<!-- Node15&#45;&gt;Node40 -->
<g id="edge95" class="edge">
<title>Node15&#45;&gt;Node40</title>
<path fill="none" stroke="#191970" d="M2332.1287,-389.2005C2709.0338,-385.4417 4240.9996,-368.6701 4284,-344 4339.5118,-312.1518 4365.8575,-231.9541 4373.5332,-204.1614"/>
<polygon fill="#191970" stroke="#191970" points="2332.0762,-385.7007 2322.1116,-389.3 2332.1459,-392.7004 2332.0762,-385.7007"/>
</g>
<!-- Node41 -->
<g id="node34" class="node">
<title>Node41</title>
<g id="a_node34"><a xlink:href="$unstructured__domains_8h.html" xlink:title="Functions to modify unstructured domains, e.g. to incorporate ligands binding to unpaired stretches.">
<polygon fill="none" stroke="#000000" points="3473.5,-112.5 3473.5,-142.5 3598.5,-142.5 3598.5,-112.5 3473.5,-112.5"/>
<text text-anchor="start" x="3481.5" y="-130.5" font-family="Helvetica,sans-Serif" font-size="10.00" fill="#000000">ViennaRNA/unstructured</text>
<text text-anchor="middle" x="3536" y="-119.5" font-family="Helvetica,sans-Serif" font-size="10.00" fill="#000000">_domains.h</text>
</a>
</g>
</g>
<!-- Node15&#45;&gt;Node41 -->
<g id="edge96" class="edge">
<title>Node15&#45;&gt;Node41</title>
<path fill="none" stroke="#191970" d="M2332.5136,-388.5914C2647.0775,-383.2669 3750.1098,-363.6712 3907,-344 4041.2658,-327.1654 4119.4977,-382.6886 4204,-277 4217.3122,-260.3502 4212.6756,-194.9894 4196,-179 4174.4802,-158.3658 3759.4327,-137.7943 3598.7187,-130.3847"/>
<polygon fill="#191970" stroke="#191970" points="2332.0423,-385.0987 2322.1029,-388.7673 2332.1606,-392.0977 2332.0423,-385.0987"/>
</g>
<!-- Node15&#45;&gt;Node42 -->
<g id="edge98" class="edge">
<title>Node15&#45;&gt;Node42</title>
<path fill="none" stroke="#191970" d="M2332.4277,-389.093C2706.7165,-384.9023 4217.0621,-366.6513 4315,-344 4442.3513,-314.5459 4579.877,-232.0842 4624.2908,-204.0039"/>
<polygon fill="#191970" stroke="#191970" points="2332.1742,-385.5955 2322.2139,-389.207 2332.2524,-392.5951 2332.1742,-385.5955"/>
</g>
<!-- Node15&#45;&gt;Node46 -->
<g id="edge99" class="edge">
<title>Node15&#45;&gt;Node46</title>
<path fill="none" stroke="#191970" d="M2332.3371,-389.6035C2666.2783,-387.7813 3897.893,-378.747 4069,-344 4148.5874,-327.8381 4193.2996,-344.1329 4239,-277 4249.6236,-261.3941 4249.3326,-196.403 4234,-179 4221.7028,-165.0423 4118.9743,-147.5317 4048.2632,-136.9447"/>
<polygon fill="#191970" stroke="#191970" points="2332.2302,-386.1039 2322.2493,-389.6578 2332.268,-393.1038 2332.2302,-386.1039"/>
</g>
<!-- Node15&#45;&gt;Node48 -->
<g id="edge100" class="edge">
<title>Node15&#45;&gt;Node48</title>
<path fill="none" stroke="#191970" d="M2332.3121,-389.8106C2712.7618,-388.7404 4275.756,-382.0457 4491,-344 4581.6548,-327.9762 4613.1183,-331.9232 4687,-277 4725.9226,-248.0651 4764.9328,-217.1605 4735,-179 4717.566,-156.774 4648.0514,-142.8817 4593.717,-135.2062"/>
<polygon fill="#191970" stroke="#191970" points="2332.1951,-386.3108 2322.2048,-389.8385 2332.2145,-393.3108 2332.1951,-386.3108"/>
</g>
<!-- Node15&#45;&gt;Node50 -->
<g id="edge101" class="edge">
<title>Node15&#45;&gt;Node50</title>
<path fill="none" stroke="#191970" d="M2332.318,-389.0119C2713.0628,-384.3923 4273.3392,-364.2941 4375,-344 4535.4981,-311.9604 4625.6988,-345.1542 4718,-210 4725.7702,-198.6223 4727.2319,-189.2274 4718,-179 4703.9937,-163.4833 4431.7981,-142.475 4294.2144,-132.7904"/>
<polygon fill="#191970" stroke="#191970" points="2332.1588,-385.5134 2322.2019,-389.1343 2332.2436,-392.5129 2332.1588,-385.5134"/>
</g>
<!-- Node52 -->
<g id="node39" class="node">
<title>Node52</title>
<g id="a_node39"><a xlink:href="$ligand_8h.html" xlink:title="Functions for incorporation of ligands binding to hairpin and interior loop motifs using the soft con...">
<polygon fill="none" stroke="#ff0000" points="909.5,-179.5 909.5,-209.5 1028.5,-209.5 1028.5,-179.5 909.5,-179.5"/>
<text text-anchor="start" x="917.5" y="-197.5" font-family="Helvetica,sans-Serif" font-size="10.00" fill="#000000">ViennaRNA/constraints</text>
<text text-anchor="middle" x="969" y="-186.5" font-family="Helvetica,sans-Serif" font-size="10.00" fill="#000000">/ligand.h</text>
</a>
</g>
</g>
<!-- Node15&#45;&gt;Node52 -->
<g id="edge102" class="edge">
<title>Node15&#45;&gt;Node52</title>
<path fill="none" stroke="#191970" d="M2165.4062,-388.1604C1942.5497,-382.9675 1345.2619,-367.0591 1259,-344 1150.6501,-315.0364 1036.4243,-241.4441 990.2274,-209.5844"/>
<polygon fill="#191970" stroke="#191970" points="2165.6534,-391.667 2175.7318,-388.3996 2165.8156,-384.6689 2165.6534,-391.667"/>
</g>
<!-- Node55 -->
<g id="node40" class="node">
<title>Node55</title>
<g id="a_node40"><a xlink:href="$soft_8h.html" xlink:title="Functions and data structures for secondary structure soft constraints.">
<polygon fill="none" stroke="#ff0000" points="2233.5,-313.5 2233.5,-343.5 2352.5,-343.5 2352.5,-313.5 2233.5,-313.5"/>
<text text-anchor="start" x="2241.5" y="-331.5" font-family="Helvetica,sans-Serif" font-size="10.00" fill="#000000">ViennaRNA/constraints</text>
<text text-anchor="middle" x="2293" y="-320.5" font-family="Helvetica,sans-Serif" font-size="10.00" fill="#000000">/soft.h</text>
</a>
</g>
</g>
<!-- Node15&#45;&gt;Node55 -->
<g id="edge103" class="edge">
<title>Node15&#45;&gt;Node55</title>
<path fill="none" stroke="#191970" d="M2255.9742,-371.5193C2261.5995,-362.5789 2269.297,-351.9832 2276.3393,-343.5446"/>
<polygon fill="#191970" stroke="#191970" points="2252.8164,-369.987 2250.8125,-380.3906 2258.8668,-373.5074 2252.8164,-369.987"/>
</g>
<!-- Node19&#45;&gt;Node12 -->
<g id="edge21" class="edge">
<title>Node19&#45;&gt;Node12</title>
<path fill="none" stroke="#191970" d="M1576.5484,-115.8293C1570.6275,-114.537 1564.6857,-113.2404 1559,-112 1501.1233,-99.3736 1434.314,-84.8106 1391.6446,-75.5111"/>
<polygon fill="#191970" stroke="#191970" points="1575.9281,-119.2762 1586.4445,-117.9893 1577.4209,-112.4372 1575.9281,-119.2762"/>
</g>
<!-- Node22&#45;&gt;Node15 -->
<g id="edge23" class="edge">
<title>Node22&#45;&gt;Node15</title>
<path fill="none" stroke="#191970" d="M1144.6108,-209.2831C1161.827,-219.2793 1182.9667,-232.9829 1201,-246 1257.6741,-286.9094 1258.6083,-319.313 1324,-344 1403.0281,-373.8351 1970.8856,-385.5627 2175.6777,-388.9057"/>
<polygon fill="#191970" stroke="#191970" points="1145.9237,-206.0052 1135.4945,-204.1389 1142.4836,-212.1016 1145.9237,-206.0052"/>
</g>
<!-- Node22&#45;&gt;Node23 -->
<g id="edge24" class="edge">
<title>Node22&#45;&gt;Node23</title>
<path fill="none" stroke="#191970" d="M1175.221,-205.8239C1184.5414,-207.4535 1194.0203,-208.9359 1203,-210 1403.2319,-233.7274 2020.6742,-253.3458 2225.9399,-259.4946"/>
<polygon fill="#191970" stroke="#191970" points="1175.664,-202.3473 1165.2006,-204.0107 1174.4176,-209.2354 1175.664,-202.3473"/>
</g>
<!-- Node23&#45;&gt;Node4 -->
<g id="edge59" class="edge">
<title>Node23&#45;&gt;Node4</title>
<path fill="none" stroke="#191970" d="M2341.5509,-281.937C2353.5024,-289.9515 2364.6377,-300.3123 2371,-313 2377.1759,-325.3161 2374.4459,-330.6601 2371,-344 2363.885,-371.5438 2360.0588,-379.8275 2340,-400 2323.7715,-416.3204 2300.5442,-428.6174 2281.447,-436.3721"/>
<polygon fill="#191970" stroke="#191970" points="2343.1095,-278.7861 2332.7607,-276.5161 2339.4352,-284.7443 2343.1095,-278.7861"/>
</g>
<!-- Node23&#45;&gt;Node5 -->
<g id="edge25" class="edge">
<title>Node23&#45;&gt;Node5</title>
<path fill="none" stroke="#191970" d="M2215.4986,-261.0048C1946.3101,-258.953 1052.8259,-249.2768 769,-210 759.1815,-208.6413 748.6689,-206.3851 739.0996,-204.0091"/>
<polygon fill="#191970" stroke="#191970" points="2215.5444,-264.5052 2225.5704,-261.0803 2215.5969,-257.5054 2215.5444,-264.5052"/>
</g>
<!-- Node23&#45;&gt;Node6 -->
<g id="edge26" class="edge">
<title>Node23&#45;&gt;Node6</title>
<path fill="none" stroke="#191970" d="M2215.4155,-260.6444C1961.548,-257.5286 1157.2027,-245.0715 900,-210 889.9996,-208.6364 879.2892,-206.4094 869.5064,-204.0634"/>
<polygon fill="#191970" stroke="#191970" points="2215.6104,-264.1469 2225.6522,-260.7686 2215.6954,-257.1475 2215.6104,-264.1469"/>
</g>
<!-- Node23&#45;&gt;Node7 -->
<g id="edge28" class="edge">
<title>Node23&#45;&gt;Node7</title>
<path fill="none" stroke="#191970" d="M2370.468,-260.2298C2670.0949,-255.1364 3737.6252,-235.2443 3762,-210 3771.5702,-200.0884 3769.553,-190.523 3762,-179 3721.0812,-116.574 3680.6989,-128.9182 3608,-112 3395.783,-62.6139 1799.7625,-19.345 1488.5253,-11.3275"/>
<polygon fill="#191970" stroke="#191970" points="2370.0756,-256.7358 2360.1363,-260.4047 2370.1941,-263.7348 2370.0756,-256.7358"/>
</g>
<!-- Node23&#45;&gt;Node8 -->
<g id="edge30" class="edge">
<title>Node23&#45;&gt;Node8</title>
<path fill="none" stroke="#191970" d="M2215.7708,-260.355C2030.5573,-257.0652 1565.2809,-245.4296 1414,-210 1379.68,-201.9623 1373.4792,-192.6957 1341,-179 1306.2297,-164.3382 1265.8717,-147.4686 1241.1378,-137.1468"/>
<polygon fill="#191970" stroke="#191970" points="2215.9116,-263.8579 2225.9711,-260.5327 2216.0336,-256.8589 2215.9116,-263.8579"/>
</g>
<!-- Node23&#45;&gt;Node10 -->
<g id="edge46" class="edge">
<title>Node23&#45;&gt;Node10</title>
<path fill="none" stroke="#191970" d="M2215.8311,-260.0952C2027.6421,-256.1661 1555.8834,-243.1029 1493,-210 1443.9849,-184.1976 1462.3059,-142.3975 1416,-112 1363.3706,-77.4515 1334.6654,-105.4079 1279,-76 1250.8781,-61.1433 1224.3292,-34.0524 1211.3304,-19.6319"/>
<polygon fill="#191970" stroke="#191970" points="2215.8562,-263.5964 2225.9261,-260.3029 2216.0003,-256.5978 2215.8562,-263.5964"/>
</g>
<!-- Node23&#45;&gt;Node11 -->
<g id="edge34" class="edge">
<title>Node23&#45;&gt;Node11</title>
<path fill="none" stroke="#191970" d="M2215.8769,-259.2183C2022.9493,-253.1581 1529.8684,-235.3702 1460,-210 1449.558,-206.2084 1396.267,-165.2476 1367.1168,-142.5071"/>
<polygon fill="#191970" stroke="#191970" points="2215.8361,-262.7187 2225.9404,-259.5323 2216.0545,-255.7221 2215.8361,-262.7187"/>
</g>
<!-- Node23&#45;&gt;Node12 -->
<g id="edge45" class="edge">
<title>Node23&#45;&gt;Node12</title>
<path fill="none" stroke="#191970" d="M2215.7936,-257.7933C2111.3555,-251.8068 1931.2933,-237.7651 1872,-210 1853.776,-201.4663 1857.1878,-187.6106 1839,-179 1727.5896,-126.2554 1683.1622,-174.5379 1564,-143 1528.7346,-133.6665 1522.2382,-124.5902 1488,-112 1450.9015,-98.358 1407.5897,-84.4277 1379.0767,-75.5259"/>
<polygon fill="#191970" stroke="#191970" points="2215.7875,-261.2984 2225.968,-258.3648 2216.1801,-254.3094 2215.7875,-261.2984"/>
</g>
<!-- Node23&#45;&gt;Node13 -->
<g id="edge35" class="edge">
<title>Node23&#45;&gt;Node13</title>
<path fill="none" stroke="#191970" d="M2215.4969,-260.4078C1932.3254,-256.2102 954.0429,-239.839 643,-210 627.7071,-208.5329 611.1562,-206.1503 596.1739,-203.6884"/>
<polygon fill="#191970" stroke="#191970" points="2215.6235,-263.9099 2225.6741,-260.5578 2215.7268,-256.9107 2215.6235,-263.9099"/>
</g>
<!-- Node23&#45;&gt;Node14 -->
<g id="edge36" class="edge">
<title>Node23&#45;&gt;Node14</title>
<path fill="none" stroke="#191970" d="M2215.4754,-260.4947C1985.705,-257.1335 1318.6379,-244.4865 1227,-210 1206.2768,-202.2012 1208.3431,-187.7425 1188,-179 1131.8496,-154.8693 956.3067,-138.0783 870.7838,-131.1074"/>
<polygon fill="#191970" stroke="#191970" points="2215.7066,-263.9983 2225.7561,-260.6431 2215.8077,-256.999 2215.7066,-263.9983"/>
</g>
<!-- Node23&#45;&gt;Node19 -->
<g id="edge29" class="edge">
<title>Node23&#45;&gt;Node19</title>
<path fill="none" stroke="#191970" d="M2215.8603,-255.4297C2121.6028,-247.2448 1968.1127,-231.2153 1915,-210 1893.1211,-201.2607 1893.577,-188.4602 1872,-179 1798.8776,-146.9402 1773.9828,-160.1288 1696,-143 1687.4929,-141.1314 1678.3893,-139.048 1669.7447,-137.03"/>
<polygon fill="#191970" stroke="#191970" points="2215.6574,-258.9251 2225.9201,-256.2931 2216.256,-251.9507 2215.6574,-258.9251"/>
</g>
<!-- Node23&#45;&gt;Node22 -->
<g id="edge32" class="edge">
<title>Node23&#45;&gt;Node22</title>
<path fill="none" stroke="#191970" d="M2215.835,-259.4317C1998.4978,-253.2129 1384.5539,-233.647 1185,-210 1172.7724,-208.551 1159.619,-206.3264 1147.883,-204.0107"/>
<polygon fill="#191970" stroke="#191970" points="2215.7858,-262.9316 2225.8814,-259.7177 2215.9851,-255.9345 2215.7858,-262.9316"/>
</g>
<!-- Node24 -->
<g id="node18" class="node">
<title>Node24</title>
<g id="a_node18"><a xlink:href="$ali__plex_8h_source.html" xlink:title=" ">
<polygon fill="none" stroke="#000000" points="2162.5,-185 2162.5,-204 2275.5,-204 2275.5,-185 2162.5,-185"/>
<text text-anchor="middle" x="2219" y="-192" font-family="Helvetica,sans-Serif" font-size="10.00" fill="#000000">ViennaRNA/ali_plex.h</text>
</a>
</g>
</g>
<!-- Node23&#45;&gt;Node24 -->
<g id="edge27" class="edge">
<title>Node23&#45;&gt;Node24</title>
<path fill="none" stroke="#191970" d="M2268.7463,-239.5406C2255.4804,-227.5296 2239.7241,-213.2637 2229.5533,-204.055"/>
<polygon fill="#191970" stroke="#191970" points="2266.4461,-242.1794 2276.2083,-246.2967 2271.1444,-236.9903 2266.4461,-242.1794"/>
</g>
<!-- Node25 -->
<g id="node19" class="node">
<title>Node25</title>
<g id="a_node19"><a xlink:href="$data__structures_8h.html" xlink:title="Use ViennaRNA/datastructures/basic.h instead.">
<polygon fill="none" stroke="#000000" points="2293.5,-185 2293.5,-204 2440.5,-204 2440.5,-185 2293.5,-185"/>
<text text-anchor="middle" x="2367" y="-192" font-family="Helvetica,sans-Serif" font-size="10.00" fill="#000000">ViennaRNA/data_structures.h</text>
</a>
</g>
</g>
<!-- Node23&#45;&gt;Node25 -->
<g id="edge31" class="edge">
<title>Node23&#45;&gt;Node25</title>
<path fill="none" stroke="#191970" d="M2317.2537,-239.5406C2330.5196,-227.5296 2346.2759,-213.2637 2356.4467,-204.055"/>
<polygon fill="#191970" stroke="#191970" points="2314.8556,-236.9903 2309.7917,-246.2967 2319.5539,-242.1794 2314.8556,-236.9903"/>
</g>
<!-- Node26 -->
<g id="node20" class="node">
<title>Node26</title>
<g id="a_node20"><a xlink:href="$duplex_8h.html" xlink:title="Functions for simple RNA&#45;RNA duplex interactions.">
<polygon fill="none" stroke="#000000" points="2459,-185 2459,-204 2567,-204 2567,-185 2459,-185"/>
<text text-anchor="middle" x="2513" y="-192" font-family="Helvetica,sans-Serif" font-size="10.00" fill="#000000">ViennaRNA/duplex.h</text>
</a>
</g>
</g>
<!-- Node23&#45;&gt;Node26 -->
<g id="edge33" class="edge">
<title>Node23&#45;&gt;Node26</title>
<path fill="none" stroke="#191970" d="M2352.1539,-243.4849C2393.9003,-230.7713 2448.1733,-214.2427 2481.7886,-204.0053"/>
<polygon fill="#191970" stroke="#191970" points="2350.9188,-240.2023 2342.3723,-246.4639 2352.9582,-246.8987 2350.9188,-240.2023"/>
</g>
<!-- Node27 -->
<g id="node21" class="node">
<title>Node27</title>
<g id="a_node21"><a xlink:href="$fold__vars_8h.html" xlink:title="Here all all declarations of the global variables used throughout RNAlib.">
<polygon fill="none" stroke="#ff0000" points="2585.5,-185 2585.5,-204 2704.5,-204 2704.5,-185 2585.5,-185"/>
<text text-anchor="middle" x="2645" y="-192" font-family="Helvetica,sans-Serif" font-size="10.00" fill="#000000">ViennaRNA/fold_vars.h</text>
</a>
</g>
</g>
<!-- Node23&#45;&gt;Node27 -->
<g id="edge37" class="edge">
<title>Node23&#45;&gt;Node27</title>
<path fill="none" stroke="#191970" d="M2370.0652,-248.3541C2427.0624,-238.4182 2506.5192,-224.1198 2576,-210 2585.0238,-208.1662 2594.6826,-206.0765 2603.8297,-204.0383"/>
<polygon fill="#191970" stroke="#191970" points="2369.3012,-244.9344 2360.0486,-250.0957 2370.5003,-251.8309 2369.3012,-244.9344"/>
</g>
<!-- Node23&#45;&gt;Node29 -->
<g id="edge38" class="edge">
<title>Node23&#45;&gt;Node29</title>
<path fill="none" stroke="#191970" d="M2370.363,-260.3846C2660.9636,-256.0078 3687.2896,-238.8177 4013,-210 4029.9784,-208.4978 4048.3958,-206.0575 4064.9957,-203.5532"/>
<polygon fill="#191970" stroke="#191970" points="2370.2846,-256.8853 2360.3382,-260.5349 2370.3896,-263.8845 2370.2846,-256.8853"/>
</g>
<!-- Node23&#45;&gt;Node30 -->
<g id="edge39" class="edge">
<title>Node23&#45;&gt;Node30</title>
<path fill="none" stroke="#191970" d="M2216.2765,-248.0061C2190.8254,-240.3712 2163.9338,-228.4791 2144,-210 2110.6889,-179.1199 2094.1271,-152.3427 2115,-112 2123.7669,-95.0555 2141.9702,-83.0122 2156.8888,-75.5099"/>
<polygon fill="#191970" stroke="#191970" points="2215.3684,-251.3864 2225.9428,-250.7286 2217.2662,-244.6485 2215.3684,-251.3864"/>
</g>
<!-- Node23&#45;&gt;Node31 -->
<g id="edge40" class="edge">
<title>Node23&#45;&gt;Node31</title>
<path fill="none" stroke="#191970" d="M2370.2721,-260.6946C2730.0348,-256.8033 4232.1974,-238.9437 4440,-210 4449.3771,-208.6939 4459.3973,-206.4542 4468.5104,-204.0771"/>
<polygon fill="#191970" stroke="#191970" points="2370.1774,-257.1953 2360.2158,-260.803 2370.2529,-264.1949 2370.1774,-257.1953"/>
</g>
<!-- Node23&#45;&gt;Node32 -->
<g id="edge41" class="edge">
<title>Node23&#45;&gt;Node32</title>
<path fill="none" stroke="#191970" d="M2215.7866,-259.6559C2058.7593,-255.3479 1691.0528,-242.4172 1384,-210 1367.0528,-208.2108 1348.5914,-205.5521 1332.1964,-202.9398"/>
<polygon fill="#191970" stroke="#191970" points="2215.7311,-263.1556 2225.8221,-259.9273 2215.9204,-256.1581 2215.7311,-263.1556"/>
</g>
<!-- Node33 -->
<g id="node26" class="node">
<title>Node33</title>
<g id="a_node26"><a xlink:href="$part__func__up_8h.html" xlink:title="Implementations for accessibility and RNA&#45;RNA interaction as a stepwise process.">
<polygon fill="none" stroke="#000000" points="2723,-185 2723,-204 2859,-204 2859,-185 2723,-185"/>
<text text-anchor="middle" x="2791" y="-192" font-family="Helvetica,sans-Serif" font-size="10.00" fill="#000000">ViennaRNA/part_func_up.h</text>
</a>
</g>
</g>
<!-- Node23&#45;&gt;Node33 -->
<g id="edge47" class="edge">
<title>Node23&#45;&gt;Node33</title>
<path fill="none" stroke="#191970" d="M2370.351,-253.8412C2454.9912,-245.0411 2594.5516,-229.299 2714,-210 2724.6347,-208.2818 2736.0385,-206.148 2746.724,-204.0187"/>
<polygon fill="#191970" stroke="#191970" points="2369.8933,-250.3698 2360.3063,-254.8798 2370.6133,-257.3327 2369.8933,-250.3698"/>
</g>
<!-- Node23&#45;&gt;Node34 -->
<g id="edge48" class="edge">
<title>Node23&#45;&gt;Node34</title>
<path fill="none" stroke="#191970" d="M2222.7465,-243.5459C2192.7582,-234.329 2162.6552,-222.437 2154,-210 2139.5887,-189.2919 2155.2895,-160.2334 2167.7867,-142.7026"/>
<polygon fill="#191970" stroke="#191970" points="2221.8683,-246.9362 2232.4515,-246.4417 2223.8698,-240.2285 2221.8683,-246.9362"/>
</g>
<!-- Node35 -->
<g id="node28" class="node">
<title>Node35</title>
<g id="a_node28"><a xlink:href="$PKplex_8h_source.html" xlink:title=" ">
<polygon fill="none" stroke="#000000" points="2877.5,-185 2877.5,-204 2988.5,-204 2988.5,-185 2877.5,-185"/>
<text text-anchor="middle" x="2933" y="-192" font-family="Helvetica,sans-Serif" font-size="10.00" fill="#000000">ViennaRNA/PKplex.h</text>
</a>
</g>
</g>
<!-- Node23&#45;&gt;Node35 -->
<g id="edge50" class="edge">
<title>Node23&#45;&gt;Node35</title>
<path fill="none" stroke="#191970" d="M2370.3189,-258.134C2481.1348,-252.5047 2691.2604,-238.832 2868,-210 2877.5033,-208.4497 2887.677,-206.2753 2897.0874,-204.0446"/>
<polygon fill="#191970" stroke="#191970" points="2370.0476,-254.6431 2360.2348,-258.6379 2370.397,-261.6343 2370.0476,-254.6431"/>
</g>
<!-- Node36 -->
<g id="node29" class="node">
<title>Node36</title>
<g id="a_node29"><a xlink:href="$plex_8h_source.html" xlink:title=" ">
<polygon fill="none" stroke="#000000" points="3007,-185 3007,-204 3105,-204 3105,-185 3007,-185"/>
<text text-anchor="middle" x="3056" y="-192" font-family="Helvetica,sans-Serif" font-size="10.00" fill="#000000">ViennaRNA/plex.h</text>
</a>
</g>
</g>
<!-- Node23&#45;&gt;Node36 -->
<g id="edge51" class="edge">
<title>Node23&#45;&gt;Node36</title>
<path fill="none" stroke="#191970" d="M2370.1385,-257.703C2527.1502,-249.6727 2879.0678,-230.052 2998,-210 3006.7361,-208.5271 3016.0651,-206.3235 3024.6301,-204.0368"/>
<polygon fill="#191970" stroke="#191970" points="2369.8918,-254.211 2360.0828,-258.2151 2370.2479,-261.2019 2369.8918,-254.211"/>
</g>
<!-- Node37 -->
<g id="node30" class="node">
<title>Node37</title>
<g id="a_node30"><a xlink:href="$profiledist_8h.html" xlink:title=" ">
<polygon fill="none" stroke="#000000" points="3123,-185 3123,-204 3245,-204 3245,-185 3123,-185"/>
<text text-anchor="middle" x="3184" y="-192" font-family="Helvetica,sans-Serif" font-size="10.00" fill="#000000">ViennaRNA/profiledist.h</text>
</a>
</g>
</g>
<!-- Node23&#45;&gt;Node37 -->
<g id="edge52" class="edge">
<title>Node23&#45;&gt;Node37</title>
<path fill="none" stroke="#191970" d="M2370.335,-260.6424C2516.3756,-258.1401 2842.4655,-248.3425 3114,-210 3124.4761,-208.5207 3135.7126,-206.3149 3146.0495,-204.0282"/>
<polygon fill="#191970" stroke="#191970" points="2370.0755,-257.1461 2360.1345,-260.8102 2370.1908,-264.1451 2370.0755,-257.1461"/>
</g>
<!-- Node38 -->
<g id="node31" class="node">
<title>Node38</title>
<g id="a_node31"><a xlink:href="$snofold_8h_source.html" xlink:title=" ">
<polygon fill="none" stroke="#000000" points="3263.5,-185 3263.5,-204 3374.5,-204 3374.5,-185 3263.5,-185"/>
<text text-anchor="middle" x="3319" y="-192" font-family="Helvetica,sans-Serif" font-size="10.00" fill="#000000">ViennaRNA/snofold.h</text>
</a>
</g>
</g>
<!-- Node23&#45;&gt;Node38 -->
<g id="edge53" class="edge">
<title>Node23&#45;&gt;Node38</title>
<path fill="none" stroke="#191970" d="M2370.3933,-259.1574C2567.356,-252.9056 3084.0386,-234.6128 3254,-210 3263.874,-208.5701 3274.4494,-206.3517 3284.1406,-204.0359"/>
<polygon fill="#191970" stroke="#191970" points="2370.0162,-255.6674 2360.1317,-259.4814 2370.2372,-262.664 2370.0162,-255.6674"/>
</g>
<!-- Node39 -->
<g id="node32" class="node">
<title>Node39</title>
<g id="a_node32"><a xlink:href="$snoop_8h_source.html" xlink:title=" ">
<polygon fill="none" stroke="#000000" points="3393,-185 3393,-204 3499,-204 3499,-185 3393,-185"/>
<text text-anchor="middle" x="3446" y="-192" font-family="Helvetica,sans-Serif" font-size="10.00" fill="#000000">ViennaRNA/snoop.h</text>
</a>
</g>
</g>
<!-- Node23&#45;&gt;Node39 -->
<g id="edge54" class="edge">
<title>Node23&#45;&gt;Node39</title>
<path fill="none" stroke="#191970" d="M2370.5203,-259.8342C2585.8241,-254.8901 3188.1162,-238.8188 3384,-210 3393.55,-208.595 3403.7696,-206.3548 3413.1007,-204.0093"/>
<polygon fill="#191970" stroke="#191970" points="2370.1745,-256.3411 2360.2569,-260.0682 2370.3341,-263.3393 2370.1745,-256.3411"/>
</g>
<!-- Node23&#45;&gt;Node40 -->
<g id="edge55" class="edge">
<title>Node23&#45;&gt;Node40</title>
<path fill="none" stroke="#191970" d="M2370.6962,-260.8167C2628.3843,-258.2432 3478.3355,-247.2944 4180,-210 4227.7203,-207.4636 4281.8647,-203.0658 4321.135,-199.601"/>
<polygon fill="#191970" stroke="#191970" points="2370.2888,-257.3204 2360.3238,-260.9189 2370.3579,-264.3201 2370.2888,-257.3204"/>
</g>
<!-- Node23&#45;&gt;Node41 -->
<g id="edge56" class="edge">
<title>Node23&#45;&gt;Node41</title>
<path fill="none" stroke="#191970" d="M2370.2302,-260.5666C2629.3442,-257.1921 3453.6416,-243.982 3499,-210 3520.0627,-194.2201 3525.4286,-161.778 3529.5311,-142.6139"/>
<polygon fill="#191970" stroke="#191970" points="2370.105,-257.0678 2360.151,-260.6966 2370.1953,-264.0673 2370.105,-257.0678"/>
</g>
<!-- Node23&#45;&gt;Node42 -->
<g id="edge60" class="edge">
<title>Node23&#45;&gt;Node42</title>
<path fill="none" stroke="#191970" d="M2370.2537,-260.5305C2742.1227,-255.7577 4338.9255,-234.0202 4560,-210 4572.2276,-208.6714 4585.3837,-206.4247 4597.3851,-204.0481"/>
<polygon fill="#191970" stroke="#191970" points="2370.0857,-257.0323 2360.1313,-260.6601 2370.1753,-264.0317 2370.0857,-257.0323"/>
</g>
<!-- Node23&#45;&gt;Node46 -->
<g id="edge61" class="edge">
<title>Node23&#45;&gt;Node46</title>
<path fill="none" stroke="#191970" d="M2370.4715,-260.2223C2625.3935,-255.7525 3428.287,-239.4673 3541,-210 3570.4223,-202.3079 3572.9707,-188.0632 3602,-179 3707.8544,-145.9513 3836.8862,-134.1049 3913.8096,-129.8623"/>
<polygon fill="#191970" stroke="#191970" points="2370.1275,-256.7277 2360.19,-260.4014 2370.2494,-263.7266 2370.1275,-256.7277"/>
</g>
<!-- Node23&#45;&gt;Node48 -->
<g id="edge62" class="edge">
<title>Node23&#45;&gt;Node48</title>
<path fill="none" stroke="#191970" d="M2370.1785,-260.4022C2690.612,-255.6828 3903.002,-236.1654 3980,-210 4002.307,-202.4197 4000.9791,-187.3752 4023,-179 4062.562,-163.9535 4328.4584,-142.2765 4456.4329,-132.5537"/>
<polygon fill="#191970" stroke="#191970" points="2370.0055,-256.9042 2360.058,-260.5507 2370.1083,-263.9035 2370.0055,-256.9042"/>
</g>
<!-- Node23&#45;&gt;Node50 -->
<g id="edge63" class="edge">
<title>Node23&#45;&gt;Node50</title>
<path fill="none" stroke="#191970" d="M2370.6638,-260.0908C2668.8653,-254.5181 3727.178,-233.1894 3795,-210 3817.2927,-202.3778 3816.1211,-187.7393 3838,-179 3865.178,-168.144 4035.017,-147.7289 4137.5667,-136.1295"/>
<polygon fill="#191970" stroke="#191970" points="2370.3125,-256.5966 2360.3794,-260.2824 2370.4429,-263.5954 2370.3125,-256.5966"/>
</g>
<!-- Node23&#45;&gt;Node52 -->
<g id="edge64" class="edge">
<title>Node23&#45;&gt;Node52</title>
<path fill="none" stroke="#191970" d="M2215.5038,-260.1818C1978.6533,-255.8592 1266.5421,-240.6044 1037,-210 1034.2395,-209.6319 1031.4261,-209.2049 1028.5917,-208.7325"/>
<polygon fill="#191970" stroke="#191970" points="2215.687,-263.6856 2225.7488,-260.3674 2215.8139,-256.6867 2215.687,-263.6856"/>
</g>
<!-- Node23&#45;&gt;Node55 -->
<g id="edge65" class="edge">
<title>Node23&#45;&gt;Node55</title>
<path fill="none" stroke="#191970" d="M2299.5584,-286.6135C2299.9764,-295.5857 2299.7105,-305.4156 2298.7608,-313.2967"/>
<polygon fill="#191970" stroke="#191970" points="2303.0469,-286.3291 2298.7536,-276.6432 2296.0696,-286.8924 2303.0469,-286.3291"/>
</g>
<!-- Node57 -->
<g id="node41" class="node">
<title>Node57</title>
<g id="a_node41"><a xlink:href="$io_2file__formats_8h.html" xlink:title="Read and write different file formats for RNA sequences, structures.">
<polygon fill="none" stroke="#ff0000" points="3611,-185 3611,-204 3753,-204 3753,-185 3611,-185"/>
<text text-anchor="middle" x="3682" y="-192" font-family="Helvetica,sans-Serif" font-size="10.00" fill="#000000">ViennaRNA/io/file_formats.h</text>
</a>
</g>
</g>
<!-- Node23&#45;&gt;Node57 -->
<g id="edge69" class="edge">
<title>Node23&#45;&gt;Node57</title>
<path fill="none" stroke="#191970" d="M2370.491,-259.8744C2613.251,-254.5554 3357.0914,-236.478 3597,-210 3609.8224,-208.5848 3623.6223,-206.3712 3636.296,-204.0554"/>
<polygon fill="#191970" stroke="#191970" points="2370.2648,-256.3784 2360.3435,-260.0957 2370.4174,-263.3767 2370.2648,-256.3784"/>
</g>
<!-- Node59 -->
<g id="node42" class="node">
<title>Node59</title>
<g id="a_node42"><a xlink:href="$layouts_8h.html" xlink:title="Secondary structure plot layout algorithms.">
<polygon fill="none" stroke="#ff0000" points="1502.5,-179.5 1502.5,-209.5 1605.5,-209.5 1605.5,-179.5 1502.5,-179.5"/>
<text text-anchor="start" x="1510.5" y="-197.5" font-family="Helvetica,sans-Serif" font-size="10.00" fill="#000000">ViennaRNA/plotting</text>
<text text-anchor="middle" x="1554" y="-186.5" font-family="Helvetica,sans-Serif" font-size="10.00" fill="#000000">/layouts.h</text>
</a>
</g>
</g>
<!-- Node23&#45;&gt;Node59 -->
<g id="edge70" class="edge">
<title>Node23&#45;&gt;Node59</title>
<path fill="none" stroke="#191970" d="M2215.4527,-259.4498C2089.756,-255.2576 1834.0106,-243.1158 1620,-210 1615.3473,-209.2801 1610.5373,-208.4067 1605.7327,-207.4454"/>
<polygon fill="#191970" stroke="#191970" points="2215.6329,-262.9574 2225.7415,-259.7848 2215.8608,-255.9611 2215.6329,-262.9574"/>
</g>
<!-- Node64 -->
<g id="node43" class="node">
<title>Node64</title>
<g id="a_node43"><a xlink:href="$probabilities_8h.html" xlink:title="Various functions for plotting RNA secondary structures, dot&#45;plots and other visualizations.">
<polygon fill="none" stroke="#ff0000" points="1705.5,-112.5 1705.5,-142.5 1808.5,-142.5 1808.5,-112.5 1705.5,-112.5"/>
<text text-anchor="start" x="1713.5" y="-130.5" font-family="Helvetica,sans-Serif" font-size="10.00" fill="#000000">ViennaRNA/plotting</text>
<text text-anchor="middle" x="1757" y="-119.5" font-family="Helvetica,sans-Serif" font-size="10.00" fill="#000000">/probabilities.h</text>
</a>
</g>
</g>
<!-- Node23&#45;&gt;Node64 -->
<g id="edge71" class="edge">
<title>Node23&#45;&gt;Node64</title>
<path fill="none" stroke="#191970" d="M2215.9508,-260.7118C2059.5386,-258.3088 1716.5281,-248.6434 1681,-210 1659.3185,-186.4173 1696.882,-159.0773 1726.5039,-142.5461"/>
<polygon fill="#191970" stroke="#191970" points="2215.9277,-264.2118 2225.9783,-260.8598 2216.0311,-257.2125 2215.9277,-264.2118"/>
</g>
<!-- Node65 -->
<g id="node44" class="node">
<title>Node65</title>
<g id="a_node44"><a xlink:href="$plotting_2utils_8h.html" xlink:title="Various utilities to assist in plotting secondary structures and consensus structures.">
<polygon fill="none" stroke="#ff0000" points="1826.5,-112.5 1826.5,-142.5 1929.5,-142.5 1929.5,-112.5 1826.5,-112.5"/>
<text text-anchor="start" x="1834.5" y="-130.5" font-family="Helvetica,sans-Serif" font-size="10.00" fill="#000000">ViennaRNA/plotting</text>
<text text-anchor="middle" x="1878" y="-119.5" font-family="Helvetica,sans-Serif" font-size="10.00" fill="#000000">/utils.h</text>
</a>
</g>
</g>
<!-- Node23&#45;&gt;Node65 -->
<g id="edge72" class="edge">
<title>Node23&#45;&gt;Node65</title>
<path fill="none" stroke="#191970" d="M2215.5932,-260.5883C2060.9983,-257.9608 1725.8038,-247.9083 1691,-210 1681.6821,-199.8509 1682.6506,-189.9597 1691,-179 1693.1236,-176.2125 1771.5873,-155.2661 1826.1911,-140.9606"/>
<polygon fill="#191970" stroke="#191970" points="2215.9018,-264.0937 2225.9577,-260.7579 2216.0164,-257.0946 2215.9018,-264.0937"/>
</g>
<!-- Node67 -->
<g id="node45" class="node">
<title>Node67</title>
<g id="a_node45"><a xlink:href="$utils_2basic_8h.html" xlink:title="General utility&#45; and helper&#45;functions used throughout the ViennaRNA Package.">
<polygon fill="none" stroke="#ff0000" points="3847,-185 3847,-204 3971,-204 3971,-185 3847,-185"/>
<text text-anchor="middle" x="3909" y="-192" font-family="Helvetica,sans-Serif" font-size="10.00" fill="#000000">ViennaRNA/utils/basic.h</text>
</a>
</g>
</g>
<!-- Node23&#45;&gt;Node67 -->
<g id="edge73" class="edge">
<title>Node23&#45;&gt;Node67</title>
<path fill="none" stroke="#191970" d="M2370.3347,-260.6306C2641.0426,-257.3189 3545.1266,-243.9258 3833,-210 3844.635,-208.6288 3857.1393,-206.3995 3868.5784,-204.0536"/>
<polygon fill="#191970" stroke="#191970" points="2370.1656,-257.1323 2360.2088,-260.7534 2370.2506,-264.1318 2370.1656,-257.1323"/>
</g>
<!-- Node68 -->
<g id="node46" class="node">
<title>Node68</title>
<g id="a_node46"><a xlink:href="$strings_8h.html" xlink:title="General utility&#45; and helper&#45;functions for RNA sequence and structure strings used throughout the Vien...">
<polygon fill="none" stroke="#ff0000" points="1700,-185 1700,-204 1830,-204 1830,-185 1700,-185"/>
<text text-anchor="middle" x="1765" y="-192" font-family="Helvetica,sans-Serif" font-size="10.00" fill="#000000">ViennaRNA/utils/strings.h</text>
</a>
</g>
</g>
<!-- Node23&#45;&gt;Node68 -->
<g id="edge77" class="edge">
<title>Node23&#45;&gt;Node68</title>
<path fill="none" stroke="#191970" d="M2215.7517,-254.5241C2126.0898,-245.9913 1973.9032,-230.1609 1844,-210 1833.089,-208.3066 1821.3889,-206.1823 1810.4259,-204.0543"/>
<polygon fill="#191970" stroke="#191970" points="2215.5496,-258.0205 2225.8348,-255.478 2216.2089,-251.0516 2215.5496,-258.0205"/>
</g>
<!-- Node70 -->
<g id="node47" class="node">
<title>Node70</title>
<g id="a_node47"><a xlink:href="$utils_2structures_8h.html" xlink:title="Various utility&#45; and helper&#45;functions for secondary structure parsing, converting,...">
<polygon fill="none" stroke="#ff0000" points="1924,-185 1924,-204 2068,-204 2068,-185 1924,-185"/>
<text text-anchor="middle" x="1996" y="-192" font-family="Helvetica,sans-Serif" font-size="10.00" fill="#000000">ViennaRNA/utils/structures.h</text>
</a>
</g>
</g>
<!-- Node23&#45;&gt;Node70 -->
<g id="edge78" class="edge">
<title>Node23&#45;&gt;Node70</title>
<path fill="none" stroke="#191970" d="M2215.8885,-245.4269C2157.2009,-232.5144 2079.0655,-214.8148 2033.4166,-204.0439"/>
<polygon fill="#191970" stroke="#191970" points="2215.3508,-248.8921 2225.8687,-247.6176 2216.8516,-242.0549 2215.3508,-248.8921"/>
</g>
<!-- Node32&#45;&gt;Node7 -->
<g id="edge42" class="edge">
<title>Node32&#45;&gt;Node7</title>
<path fill="none" stroke="#191970" d="M1329.2819,-182.1222C1362.872,-172.0084 1404.7161,-157.1254 1416,-143 1445.7302,-105.7832 1440.7781,-43.4244 1437.5396,-19.6267"/>
<polygon fill="#191970" stroke="#191970" points="1328.2154,-178.7876 1319.6133,-184.9725 1330.1949,-185.5019 1328.2154,-178.7876"/>
</g>
<!-- Node32&#45;&gt;Node8 -->
<g id="edge43" class="edge">
<title>Node32&#45;&gt;Node8</title>
<path fill="none" stroke="#191970" d="M1267.3311,-177.5785C1254.7077,-164.7639 1237.8215,-147.6218 1227.4386,-137.0817"/>
<polygon fill="#191970" stroke="#191970" points="1265.0327,-180.2327 1274.5438,-184.9005 1270.0195,-175.3203 1265.0327,-180.2327"/>
</g>
<!-- Node32&#45;&gt;Node14 -->
<g id="edge44" class="edge">
<title>Node32&#45;&gt;Node14</title>
<path fill="none" stroke="#191970" d="M1238.7608,-182.5429C1233.1381,-181.2482 1227.4512,-180.0296 1222,-179 1096.0601,-155.2138 945.6616,-139.0667 870.5758,-131.8287"/>
<polygon fill="#191970" stroke="#191970" points="1238.2075,-186.0092 1248.7473,-184.9308 1239.8355,-179.2011 1238.2075,-186.0092"/>
</g>
<!-- Node34&#45;&gt;Node30 -->
<g id="edge49" class="edge">
<title>Node34&#45;&gt;Node30</title>
<path fill="none" stroke="#191970" d="M2180,-102.2849C2180,-92.9858 2180,-82.9883 2180,-75.8469"/>
<polygon fill="#191970" stroke="#191970" points="2176.5001,-102.2977 2180,-112.2977 2183.5001,-102.2978 2176.5001,-102.2977"/>
</g>
<!-- Node41&#45;&gt;Node15 -->
<g id="edge57" class="edge">
<title>Node41&#45;&gt;Node15</title>
<path fill="none" stroke="#191970" d="M3608.8755,-130.4443C3779.6458,-137.9042 4192.5376,-158.4208 4214,-179 4230.6756,-194.9894 4235.3122,-260.3502 4222,-277 4137.4977,-382.6886 4059.2658,-327.1654 3925,-344 3765.2057,-364.0354 2623.918,-383.9923 2322.049,-388.8723"/>
<polygon fill="#191970" stroke="#191970" points="3608.8606,-126.9405 3598.7182,-130.0036 3608.5571,-133.9339 3608.8606,-126.9405"/>
</g>
<!-- Node41&#45;&gt;Node23 -->
<g id="edge58" class="edge">
<title>Node41&#45;&gt;Node23</title>
<path fill="none" stroke="#191970" d="M3542.0554,-152.7204C3541.3072,-171.7422 3534.6894,-196.7473 3517,-210 3470.6132,-244.7525 2609.5659,-257.7804 2360.1274,-260.7811"/>
<polygon fill="#191970" stroke="#191970" points="3545.553,-152.5513 3541.8791,-142.6139 3538.5541,-152.6734 3545.553,-152.5513"/>
</g>
<!-- Node55&#45;&gt;Node15 -->
<g id="edge66" class="edge">
<title>Node55&#45;&gt;Node15</title>
<path fill="none" stroke="#191970" d="M2282.6609,-352.1593C2276.086,-361.9876 2267.8147,-372.838 2260.9375,-380.3906"/>
<polygon fill="#191970" stroke="#191970" points="2285.7256,-353.8622 2288.1335,-343.5446 2279.817,-350.1087 2285.7256,-353.8622"/>
</g>
<!-- Node55&#45;&gt;Node23 -->
<g id="edge68" class="edge">
<title>Node55&#45;&gt;Node23</title>
<path fill="none" stroke="#191970" d="M2286.4384,-303.3179C2286.0239,-294.3414 2286.2933,-284.5143 2287.2464,-276.6432"/>
<polygon fill="#191970" stroke="#191970" points="2282.9504,-303.6087 2287.2392,-313.2967 2289.928,-303.0487 2282.9504,-303.6087"/>
</g>
<!-- Node55&#45;&gt;Node48 -->
<g id="edge67" class="edge">
<title>Node55&#45;&gt;Node48</title>
<path fill="none" stroke="#191970" d="M2363.2381,-326.0344C2666.8835,-315.056 3858.4581,-268.5745 4015,-210 4036.3959,-201.9941 4034.7713,-187.4392 4056,-179 4092.2992,-164.5697 4334.8927,-143.0512 4456.2003,-133.0192"/>
<polygon fill="#191970" stroke="#191970" points="2362.6818,-322.5521 2352.8143,-326.4099 2362.9338,-329.5476 2362.6818,-322.5521"/>
</g>
<!-- Node67&#45;&gt;Node46 -->
<g id="edge74" class="edge">
<title>Node67&#45;&gt;Node46</title>
<path fill="none" stroke="#191970" d="M3926.7958,-177.94C3940.607,-165.0879 3959.2697,-147.7212 3970.7033,-137.0817"/>
<polygon fill="#191970" stroke="#191970" points="3924.2522,-175.5259 3919.3158,-184.9005 3929.0209,-180.6504 3924.2522,-175.5259"/>
</g>
<!-- Node67&#45;&gt;Node48 -->
<g id="edge75" class="edge">
<title>Node67&#45;&gt;Node48</title>
<path fill="none" stroke="#191970" d="M3961.8923,-182.9636C3969.6199,-181.4964 3977.4989,-180.1194 3985,-179 4153.3577,-153.8762 4353.1731,-138.5565 4456.0959,-131.721"/>
<polygon fill="#191970" stroke="#191970" points="3961.0047,-179.5709 3951.8653,-184.9302 3962.352,-186.4401 3961.0047,-179.5709"/>
</g>
<!-- Node67&#45;&gt;Node50 -->
<g id="edge76" class="edge">
<title>Node67&#45;&gt;Node50</title>
<path fill="none" stroke="#191970" d="M3962.603,-182.8016C4022.0219,-169.834 4116.7445,-149.1616 4171.994,-137.1039"/>
<polygon fill="#191970" stroke="#191970" points="3961.6833,-179.4199 3952.6596,-184.9717 3963.1759,-186.2589 3961.6833,-179.4199"/>
</g>
<!-- Node70&#45;&gt;Node7 -->
<g id="edge79" class="edge">
<title>Node70&#45;&gt;Node7</title>
<path fill="none" stroke="#191970" d="M2005.7951,-175.6818C2019.6728,-146.0997 2040.2067,-88.7243 2010,-56 1992.4333,-36.9692 1627.1076,-18.6033 1488.6069,-12.2987"/>
<polygon fill="#191970" stroke="#191970" points="2002.5336,-174.3825 2001.258,-184.9003 2008.8142,-177.4736 2002.5336,-174.3825"/>
</g>
<!-- Node70&#45;&gt;Node10 -->
<g id="edge83" class="edge">
<title>Node70&#45;&gt;Node10</title>
<path fill="none" stroke="#191970" d="M1995.0141,-174.7595C1992.9318,-155.6339 1986.6549,-127.3364 1968,-112 1914.5027,-68.0195 1448.4482,-28.5488 1271.1065,-14.9896"/>
<polygon fill="#191970" stroke="#191970" points="1991.5305,-175.1044 1995.8174,-184.7932 1998.5081,-174.5458 1991.5305,-175.1044"/>
</g>
<!-- Node70&#45;&gt;Node11 -->
<g id="edge81" class="edge">
<title>Node70&#45;&gt;Node11</title>
<path fill="none" stroke="#191970" d="M1913.7626,-185.9971C1781.1818,-172.2889 1523.3461,-145.6299 1407.2165,-133.6227"/>
<polygon fill="#191970" stroke="#191970" points="1913.5579,-189.4945 1923.8648,-187.0416 1914.2779,-182.5316 1913.5579,-189.4945"/>
</g>
<!-- Node70&#45;&gt;Node12 -->
<g id="edge82" class="edge">
<title>Node70&#45;&gt;Node12</title>
<path fill="none" stroke="#191970" d="M1988.4967,-175.5215C1979.632,-155.8935 1962.8717,-126.1721 1938,-112 1892.7529,-86.2178 1549.098,-72.4206 1408.09,-67.7963"/>
<polygon fill="#191970" stroke="#191970" points="1985.2786,-176.8979 1992.4138,-184.7298 1991.7201,-174.1577 1985.2786,-176.8979"/>
</g>
<!-- Node70&#45;&gt;Node19 -->
<g id="edge80" class="edge">
<title>Node70&#45;&gt;Node19</title>
<path fill="none" stroke="#191970" d="M1933.6962,-183.1824C1925.7239,-181.7602 1917.6715,-180.3365 1910,-179 1814.9837,-162.446 1790.5505,-162.0351 1696,-143 1687.1153,-141.2113 1677.6043,-139.0964 1668.6476,-137.0132"/>
<polygon fill="#191970" stroke="#191970" points="1933.2565,-186.6593 1943.7168,-184.9763 1934.4901,-179.7688 1933.2565,-186.6593"/>
</g>
<!-- Node70&#45;&gt;Node23 -->
<g id="edge88" class="edge">
<title>Node70&#45;&gt;Node23</title>
<path fill="none" stroke="#191970" d="M2052.9593,-206.1616C2104.3267,-217.3421 2179.5434,-234.2745 2232.0879,-246.4639"/>
<polygon fill="#191970" stroke="#191970" points="2053.5323,-202.7046 2043.0176,-204.0053 2052.0485,-209.5455 2053.5323,-202.7046"/>
</g>
<!-- Node70&#45;&gt;Node34 -->
<g id="edge84" class="edge">
<title>Node70&#45;&gt;Node34</title>
<path fill="none" stroke="#191970" d="M2031.8099,-181.4605C2062.4668,-170.2974 2106.6154,-154.2216 2138.7462,-142.5218"/>
<polygon fill="#191970" stroke="#191970" points="2030.5616,-178.1902 2022.3627,-184.9005 2032.9567,-184.7677 2030.5616,-178.1902"/>
</g>
<!-- Node70&#45;&gt;Node41 -->
<g id="edge85" class="edge">
<title>Node70&#45;&gt;Node41</title>
<path fill="none" stroke="#191970" d="M2078.5385,-185.4507C2102.8226,-183.046 2129.4568,-180.6596 2154,-179 2662.4449,-144.6186 3277.7847,-131.8469 3473.2561,-128.4858"/>
<polygon fill="#191970" stroke="#191970" points="2077.888,-181.9983 2068.2879,-186.4803 2078.5877,-188.9633 2077.888,-181.9983"/>
</g>
<!-- Node70&#45;&gt;Node64 -->
<g id="edge86" class="edge">
<title>Node70&#45;&gt;Node64</title>
<path fill="none" stroke="#191970" d="M1952.1796,-182.2156C1911.7575,-170.8839 1851.7039,-154.0488 1808.8974,-142.0486"/>
<polygon fill="#191970" stroke="#191970" points="1951.4374,-185.6424 1962.0109,-184.9717 1953.3269,-178.9022 1951.4374,-185.6424"/>
</g>
<!-- Node70&#45;&gt;Node65 -->
<g id="edge87" class="edge">
<title>Node70&#45;&gt;Node65</title>
<path fill="none" stroke="#191970" d="M1970.1693,-179.8334C1950.6956,-168.7763 1924.0806,-153.6644 1904.4562,-142.5218"/>
<polygon fill="#191970" stroke="#191970" points="1968.6693,-183.0065 1979.0935,-184.9005 1972.1256,-176.9193 1968.6693,-183.0065"/>
</g>
<!-- Node93&#45;&gt;Node48 -->
<g id="edge119" class="edge">
<title>Node93&#45;&gt;Node48</title>
<path fill="none" stroke="#191970" d="M4927,-426.2236C4927,-402.872 4927,-362.8601 4927,-328.5 4927,-328.5 4927,-328.5 4927,-261.5 4927,-223.3133 4931.9206,-203.9364 4903,-179 4880.0204,-159.1862 4696.2526,-141.3501 4593.6623,-132.8129"/>
<polygon fill="#191970" stroke="#191970" points="4923.5001,-426.251 4927,-436.2511 4930.5001,-426.2511 4923.5001,-426.251"/>
</g>
<!-- Node94 -->
<g id="node50" class="node">
<title>Node94</title>
<g id="a_node50"><a xlink:href="$energy__par_8h.html" xlink:title="Use ViennaRNA/params/default.h instead.">
<polygon fill="none" stroke="#000000" points="4955.5,-380.5 4955.5,-399.5 5082.5,-399.5 5082.5,-380.5 4955.5,-380.5"/>
<text text-anchor="middle" x="5019" y="-387.5" font-family="Helvetica,sans-Serif" font-size="10.00" fill="#000000">ViennaRNA/energy_par.h</text>
</a>
</g>
</g>
<!-- Node93&#45;&gt;Node94 -->
<g id="edge118" class="edge">
<title>Node93&#45;&gt;Node94</title>
<path fill="none" stroke="#191970" d="M4952.0224,-430.769C4968.325,-420.8456 4989.101,-408.1994 5003.1585,-399.6427"/>
<polygon fill="#191970" stroke="#191970" points="4949.7473,-428.0563 4943.0252,-436.2455 4953.387,-434.0357 4949.7473,-428.0563"/>
</g>
</g>
</svg>
