<?xml version="1.0" encoding="UTF-8" standalone="no"?>
<!DOCTYPE svg PUBLIC "-//W3C//DTD SVG 1.1//EN"
 "http://www.w3.org/Graphics/SVG/1.1/DTD/svg11.dtd">
<!-- Generated by graphviz version 2.40.1 (0)
 -->
<!-- Title: ViennaRNA/constraints/basic.h Pages: 1 -->
<svg width="1184pt" height="397pt"
 viewBox="0.00 0.00 1183.50 397.00" xmlns="http://www.w3.org/2000/svg" xmlns:xlink="http://www.w3.org/1999/xlink">
<g id="graph0" class="graph" transform="scale(1 1) rotate(0) translate(4 393)">
<title>ViennaRNA/constraints/basic.h</title>
<!-- Node0 -->
<g id="node1" class="node">
<title>Node0</title>
<g id="a_node1"><a xlink:title="Functions and data structures for constraining secondary structure predictions and evaluation.">
<polygon fill="#bfbfbf" stroke="#000000" points="484,-358.5 484,-388.5 603,-388.5 603,-358.5 484,-358.5"/>
<text text-anchor="start" x="492" y="-376.5" font-family="Helvetica,sans-Serif" font-size="10.00" fill="#000000">ViennaRNA/constraints</text>
<text text-anchor="middle" x="543.5" y="-365.5" font-family="Helvetica,sans-Serif" font-size="10.00" fill="#000000">/basic.h</text>
</a>
</g>
</g>
<!-- Node1 -->
<g id="node2" class="node">
<title>Node1</title>
<g id="a_node2"><a xlink:href="$fold__compound_8h.html" xlink:title="The Basic Fold Compound API.">
<polygon fill="none" stroke="#000000" points="470.5,-302.5 470.5,-321.5 616.5,-321.5 616.5,-302.5 470.5,-302.5"/>
<text text-anchor="middle" x="543.5" y="-309.5" font-family="Helvetica,sans-Serif" font-size="10.00" fill="#000000">ViennaRNA/fold_compound.h</text>
</a>
</g>
</g>
<!-- Node0&#45;&gt;Node1 -->
<g id="edge1" class="edge">
<title>Node0&#45;&gt;Node1</title>
<path fill="none" stroke="#191970" d="M543.5,-358.2977C543.5,-350.3834 543.5,-340.6043 543.5,-332.0759"/>
<polygon fill="#191970" stroke="#191970" points="547.0001,-331.8469 543.5,-321.8469 540.0001,-331.847 547.0001,-331.8469"/>
</g>
<!-- Node2 -->
<g id="node3" class="node">
<title>Node2</title>
<g id="a_node3"><a xlink:href="$model_8h.html" xlink:title="The model details data structure and its corresponding modifiers.">
<polygon fill="none" stroke="#000000" points="1069.5,-118 1069.5,-137 1175.5,-137 1175.5,-118 1069.5,-118"/>
<text text-anchor="middle" x="1122.5" y="-125" font-family="Helvetica,sans-Serif" font-size="10.00" fill="#000000">ViennaRNA/model.h</text>
</a>
</g>
</g>
<!-- Node1&#45;&gt;Node2 -->
<g id="edge2" class="edge">
<title>Node1&#45;&gt;Node2</title>
<path fill="none" stroke="#191970" d="M616.7588,-307.1077C678.3996,-301.5003 768.2702,-289.8051 843.5,-266 943.5542,-234.3397 1052.2422,-171.091 1098.9781,-142.3391"/>
<polygon fill="#191970" stroke="#191970" points="1100.8241,-145.3127 1107.4783,-137.0682 1097.1351,-139.3636 1100.8241,-145.3127"/>
</g>
<!-- Node3 -->
<g id="node4" class="node">
<title>Node3</title>
<g id="a_node4"><a xlink:href="$params_2basic_8h.html" xlink:title="Functions to deal with sets of energy parameters.">
<polygon fill="none" stroke="#000000" points="622.5,-246.5 622.5,-265.5 760.5,-265.5 760.5,-246.5 622.5,-246.5"/>
<text text-anchor="middle" x="691.5" y="-253.5" font-family="Helvetica,sans-Serif" font-size="10.00" fill="#000000">ViennaRNA/params/basic.h</text>
</a>
</g>
</g>
<!-- Node1&#45;&gt;Node3 -->
<g id="edge3" class="edge">
<title>Node1&#45;&gt;Node3</title>
<path fill="none" stroke="#191970" d="M563.7001,-302.3733C586.2912,-293.1419 623.1119,-279.1402 651.5145,-268.9375"/>
<polygon fill="#191970" stroke="#191970" points="652.9244,-272.1508 661.1726,-265.5011 650.5779,-265.5558 652.9244,-272.1508"/>
</g>
<!-- Node7 -->
<g id="node8" class="node">
<title>Node7</title>
<g id="a_node8"><a xlink:href="$dp__matrices_8h.html" xlink:title="Functions to deal with standard dynamic programming (DP) matrices.">
<polygon fill="none" stroke="#000000" points="137,-118 137,-137 270,-137 270,-118 137,-118"/>
<text text-anchor="middle" x="203.5" y="-125" font-family="Helvetica,sans-Serif" font-size="10.00" fill="#000000">ViennaRNA/dp_matrices.h</text>
</a>
</g>
</g>
<!-- Node1&#45;&gt;Node7 -->
<g id="edge35" class="edge">
<title>Node1&#45;&gt;Node7</title>
<path fill="none" stroke="#191970" d="M509.5764,-302.3559C484.7068,-293.745 450.8309,-280.3127 422.5,-266 344.7579,-226.725 258.1938,-170.4107 221.292,-143.2872"/>
<polygon fill="#191970" stroke="#191970" points="223.1081,-140.2731 213.0158,-137.0485 218.8944,-145.8629 223.1081,-140.2731"/>
</g>
<!-- Node8 -->
<g id="node9" class="node">
<title>Node8</title>
<g id="a_node9"><a xlink:href="$hard_8h.html" xlink:title="Functions and data structures for handling of secondary structure hard constraints.">
<polygon fill="none" stroke="#000000" points="0,-112.5 0,-142.5 119,-142.5 119,-112.5 0,-112.5"/>
<text text-anchor="start" x="8" y="-130.5" font-family="Helvetica,sans-Serif" font-size="10.00" fill="#000000">ViennaRNA/constraints</text>
<text text-anchor="middle" x="59.5" y="-119.5" font-family="Helvetica,sans-Serif" font-size="10.00" fill="#000000">/hard.h</text>
</a>
</g>
</g>
<!-- Node1&#45;&gt;Node8 -->
<g id="edge36" class="edge">
<title>Node1&#45;&gt;Node8</title>
<path fill="none" stroke="#191970" d="M501.3624,-302.4869C468.4388,-293.807 422.0745,-280.2016 382.5,-266 276.9808,-228.1336 156.2038,-175.2733 96.5511,-147.0647"/>
<polygon fill="#191970" stroke="#191970" points="97.7025,-143.7362 87.1699,-142.5896 94.6886,-150.0541 97.7025,-143.7362"/>
</g>
<!-- Node9 -->
<g id="node10" class="node">
<title>Node9</title>
<g id="a_node10"><a xlink:href="$soft_8h.html" xlink:title="Functions and data structures for secondary structure soft constraints.">
<polygon fill="none" stroke="#000000" points="932,-112.5 932,-142.5 1051,-142.5 1051,-112.5 932,-112.5"/>
<text text-anchor="start" x="940" y="-130.5" font-family="Helvetica,sans-Serif" font-size="10.00" fill="#000000">ViennaRNA/constraints</text>
<text text-anchor="middle" x="991.5" y="-119.5" font-family="Helvetica,sans-Serif" font-size="10.00" fill="#000000">/soft.h</text>
</a>
</g>
</g>
<!-- Node1&#45;&gt;Node9 -->
<g id="edge37" class="edge">
<title>Node1&#45;&gt;Node9</title>
<path fill="none" stroke="#191970" d="M616.7147,-307.1313C667.8868,-301.7074 736.8124,-290.2408 793.5,-266 860.7865,-237.2269 926.836,-180.5002 963.2837,-149.3149"/>
<polygon fill="#191970" stroke="#191970" points="965.6991,-151.8549 971.0331,-142.7007 961.1547,-146.5305 965.6991,-151.8549"/>
</g>
<!-- Node10 -->
<g id="node11" class="node">
<title>Node10</title>
<g id="a_node11"><a xlink:href="$grammar_8h.html" xlink:title="Implementations for the RNA folding grammar.">
<polygon fill="none" stroke="#000000" points="288,-118 288,-137 405,-137 405,-118 288,-118"/>
<text text-anchor="middle" x="346.5" y="-125" font-family="Helvetica,sans-Serif" font-size="10.00" fill="#000000">ViennaRNA/grammar.h</text>
</a>
</g>
</g>
<!-- Node1&#45;&gt;Node10 -->
<g id="edge38" class="edge">
<title>Node1&#45;&gt;Node10</title>
<path fill="none" stroke="#191970" d="M511.2768,-302.3949C491.0568,-294.4288 465.6006,-281.8561 446.5,-266 403.5148,-230.3165 366.4007,-175.0839 351.9124,-146.3372"/>
<polygon fill="#191970" stroke="#191970" points="354.9893,-144.651 347.6293,-137.0299 348.6303,-147.5773 354.9893,-144.651"/>
</g>
<!-- Node11 -->
<g id="node12" class="node">
<title>Node11</title>
<g id="a_node12"><a xlink:href="$structured__domains_8h.html" xlink:title="This module provides interfaces that deal with additional structured domains in the folding grammar.">
<polygon fill="none" stroke="#000000" points="423,-112.5 423,-142.5 538,-142.5 538,-112.5 423,-112.5"/>
<text text-anchor="start" x="431" y="-130.5" font-family="Helvetica,sans-Serif" font-size="10.00" fill="#000000">ViennaRNA/structured</text>
<text text-anchor="middle" x="480.5" y="-119.5" font-family="Helvetica,sans-Serif" font-size="10.00" fill="#000000">_domains.h</text>
</a>
</g>
</g>
<!-- Node1&#45;&gt;Node11 -->
<g id="edge39" class="edge">
<title>Node1&#45;&gt;Node11</title>
<path fill="none" stroke="#191970" d="M513.5542,-302.4983C496.4946,-295.3713 476.5676,-283.7417 466.5,-266 446.3346,-230.4634 458.9104,-181.458 469.7769,-152.2731"/>
<polygon fill="#191970" stroke="#191970" points="473.0874,-153.4183 473.4927,-142.8312 466.5737,-150.8548 473.0874,-153.4183"/>
</g>
<!-- Node12 -->
<g id="node13" class="node">
<title>Node12</title>
<g id="a_node13"><a xlink:href="$unstructured__domains_8h.html" xlink:title="Functions to modify unstructured domains, e.g. to incorporate ligands binding to unpaired stretches.">
<polygon fill="none" stroke="#000000" points="789,-112.5 789,-142.5 914,-142.5 914,-112.5 789,-112.5"/>
<text text-anchor="start" x="797" y="-130.5" font-family="Helvetica,sans-Serif" font-size="10.00" fill="#000000">ViennaRNA/unstructured</text>
<text text-anchor="middle" x="851.5" y="-119.5" font-family="Helvetica,sans-Serif" font-size="10.00" fill="#000000">_domains.h</text>
</a>
</g>
</g>
<!-- Node1&#45;&gt;Node12 -->
<g id="edge40" class="edge">
<title>Node1&#45;&gt;Node12</title>
<path fill="none" stroke="#191970" d="M616.5088,-302.6056C670.0999,-294.8776 737.2971,-282.5128 760.5,-266 800.1486,-237.7832 823.801,-183.8615 837.7058,-152.2665"/>
<polygon fill="#191970" stroke="#191970" points="841.0259,-153.4136 841.8857,-142.8537 834.6283,-150.5726 841.0259,-153.4136"/>
</g>
<!-- Node15 -->
<g id="node16" class="node">
<title>Node15</title>
<g id="a_node16"><a xlink:href="$sequence_8h.html" xlink:title="Functions and data structures related to sequence representations ,.">
<polygon fill="none" stroke="#000000" points="482.5,-246.5 482.5,-265.5 604.5,-265.5 604.5,-246.5 482.5,-246.5"/>
<text text-anchor="middle" x="543.5" y="-253.5" font-family="Helvetica,sans-Serif" font-size="10.00" fill="#000000">ViennaRNA/sequence.h</text>
</a>
</g>
</g>
<!-- Node1&#45;&gt;Node15 -->
<g id="edge33" class="edge">
<title>Node1&#45;&gt;Node15</title>
<path fill="none" stroke="#191970" d="M538.2332,-302.2455C536.8221,-294.9382 536.4179,-284.6944 537.0205,-275.7046"/>
<polygon fill="#191970" stroke="#191970" points="540.5111,-275.9945 538.2549,-265.6427 533.5632,-275.1421 540.5111,-275.9945"/>
</g>
<!-- Node3&#45;&gt;Node1 -->
<g id="edge31" class="edge">
<title>Node3&#45;&gt;Node1</title>
<path fill="none" stroke="#191970" d="M671.6072,-265.5011C649.1459,-274.6889 612.3521,-288.686 583.8735,-298.9231"/>
<polygon fill="#191970" stroke="#191970" points="582.4307,-295.7215 574.1841,-302.3733 584.7788,-302.316 582.4307,-295.7215"/>
</g>
<!-- Node3&#45;&gt;Node2 -->
<g id="edge32" class="edge">
<title>Node3&#45;&gt;Node2</title>
<path fill="none" stroke="#191970" d="M723.5429,-246.4466C800.389,-223.5354 995.1314,-165.4742 1080.8803,-139.9087"/>
<polygon fill="#191970" stroke="#191970" points="1081.9559,-143.2403 1090.539,-137.029 1079.9558,-136.5321 1081.9559,-143.2403"/>
</g>
<!-- Node4 -->
<g id="node5" class="node">
<title>Node4</title>
<g id="a_node5"><a xlink:href="$constants_8h.html" xlink:title="Energy parameter constants.">
<polygon fill="none" stroke="#000000" points="612.5,-118 612.5,-137 770.5,-137 770.5,-118 612.5,-118"/>
<text text-anchor="middle" x="691.5" y="-125" font-family="Helvetica,sans-Serif" font-size="10.00" fill="#000000">ViennaRNA/params/constants.h</text>
</a>
</g>
</g>
<!-- Node3&#45;&gt;Node4 -->
<g id="edge4" class="edge">
<title>Node3&#45;&gt;Node4</title>
<path fill="none" stroke="#191970" d="M691.5,-246.3416C691.5,-225.4114 691.5,-175.504 691.5,-147.4762"/>
<polygon fill="#191970" stroke="#191970" points="695.0001,-147.2704 691.5,-137.2705 688.0001,-147.2705 695.0001,-147.2704"/>
</g>
<!-- Node6 -->
<g id="node7" class="node">
<title>Node6</title>
<g id="a_node7"><a xlink:href="$datastructures_2basic_8h.html" xlink:title="Various data structures and pre&#45;processor macros.">
<polygon fill="none" stroke="#000000" points="518.5,-179.5 518.5,-209.5 652.5,-209.5 652.5,-179.5 518.5,-179.5"/>
<text text-anchor="start" x="526.5" y="-197.5" font-family="Helvetica,sans-Serif" font-size="10.00" fill="#000000">ViennaRNA/datastructures</text>
<text text-anchor="middle" x="585.5" y="-186.5" font-family="Helvetica,sans-Serif" font-size="10.00" fill="#000000">/basic.h</text>
</a>
</g>
</g>
<!-- Node3&#45;&gt;Node6 -->
<g id="edge6" class="edge">
<title>Node3&#45;&gt;Node6</title>
<path fill="none" stroke="#191970" d="M669.875,-246.3906C653.7573,-237.9903 631.8019,-225.5103 614.2539,-214.8945"/>
<polygon fill="#191970" stroke="#191970" points="615.8875,-211.7906 605.5334,-209.5446 612.227,-217.7572 615.8875,-211.7906"/>
</g>
<!-- Node5 -->
<g id="node6" class="node">
<title>Node5</title>
<g id="a_node6"><a xlink:title=" ">
<polygon fill="none" stroke="#bfbfbf" points="667.5,-56.5 667.5,-75.5 715.5,-75.5 715.5,-56.5 667.5,-56.5"/>
<text text-anchor="middle" x="691.5" y="-63.5" font-family="Helvetica,sans-Serif" font-size="10.00" fill="#000000">limits.h</text>
</a>
</g>
</g>
<!-- Node4&#45;&gt;Node5 -->
<g id="edge5" class="edge">
<title>Node4&#45;&gt;Node5</title>
<path fill="none" stroke="#191970" d="M691.5,-117.8906C691.5,-109.3657 691.5,-96.6392 691.5,-85.9235"/>
<polygon fill="#191970" stroke="#191970" points="695.0001,-85.7448 691.5,-75.7449 688.0001,-85.7449 695.0001,-85.7448"/>
</g>
<!-- Node6&#45;&gt;Node1 -->
<g id="edge8" class="edge">
<title>Node6&#45;&gt;Node1</title>
<path fill="none" stroke="#191970" d="M521.6341,-209.5542C502.9139,-217.2555 484.5276,-228.7917 473.5,-246 460.0749,-266.9494 485.9775,-285.8663 509.9834,-298.0224"/>
<polygon fill="#191970" stroke="#191970" points="508.474,-301.1801 519.0051,-302.3404 511.4961,-294.8661 508.474,-301.1801"/>
</g>
<!-- Node6&#45;&gt;Node2 -->
<g id="edge9" class="edge">
<title>Node6&#45;&gt;Node2</title>
<path fill="none" stroke="#191970" d="M652.7752,-190.1217C745.1926,-183.4454 916.37,-168.7048 1060.5,-143 1066.2379,-141.9767 1072.2316,-140.7207 1078.1345,-139.3706"/>
<polygon fill="#191970" stroke="#191970" points="1079.0079,-142.7605 1087.9218,-137.034 1077.3824,-135.9518 1079.0079,-142.7605"/>
</g>
<!-- Node6&#45;&gt;Node3 -->
<g id="edge10" class="edge">
<title>Node6&#45;&gt;Node3</title>
<path fill="none" stroke="#191970" d="M617.3276,-209.5446C634.8622,-219.0605 655.9952,-231.3193 671.3046,-240.8545"/>
<polygon fill="#191970" stroke="#191970" points="669.6848,-243.9724 680,-246.3906 673.4443,-238.0676 669.6848,-243.9724"/>
</g>
<!-- Node6&#45;&gt;Node4 -->
<g id="edge7" class="edge">
<title>Node6&#45;&gt;Node4</title>
<path fill="none" stroke="#191970" d="M609.2885,-179.4639C626.7535,-168.4247 650.3729,-153.4954 667.8138,-142.4715"/>
<polygon fill="#191970" stroke="#191970" points="669.7228,-145.4054 676.3057,-137.1039 665.9827,-139.4883 669.7228,-145.4054"/>
</g>
<!-- Node6&#45;&gt;Node7 -->
<g id="edge11" class="edge">
<title>Node6&#45;&gt;Node7</title>
<path fill="none" stroke="#191970" d="M518.3186,-185.0537C454.0926,-175.1979 354.8922,-158.9804 269.5,-143 263.0675,-141.7962 256.3362,-140.4824 249.7226,-139.1453"/>
<polygon fill="#191970" stroke="#191970" points="249.9871,-135.6264 239.4867,-137.0375 248.5752,-142.4825 249.9871,-135.6264"/>
</g>
<!-- Node6&#45;&gt;Node8 -->
<g id="edge14" class="edge">
<title>Node6&#45;&gt;Node8</title>
<path fill="none" stroke="#191970" d="M518.4233,-189.3291C430.8969,-182.0536 272.8538,-167.1107 129.0196,-143.1552"/>
<polygon fill="#191970" stroke="#191970" points="129.5709,-139.6988 119.1285,-141.4896 128.4084,-146.6016 129.5709,-139.6988"/>
</g>
<!-- Node6&#45;&gt;Node9 -->
<g id="edge17" class="edge">
<title>Node6&#45;&gt;Node9</title>
<path fill="none" stroke="#191970" d="M652.6094,-184.7917C719.2689,-175.4232 824.1107,-160.1642 914.5,-143 916.9461,-142.5355 919.4379,-142.0456 921.957,-141.5375"/>
<polygon fill="#191970" stroke="#191970" points="922.6894,-144.9601 931.7698,-139.5016 921.2673,-138.1061 922.6894,-144.9601"/>
</g>
<!-- Node6&#45;&gt;Node10 -->
<g id="edge21" class="edge">
<title>Node6&#45;&gt;Node10</title>
<path fill="none" stroke="#191970" d="M531.8637,-179.4639C489.1068,-167.4776 429.9903,-150.9052 390.1099,-139.7254"/>
<polygon fill="#191970" stroke="#191970" points="390.9805,-136.3346 380.4069,-137.0053 389.0909,-143.0747 390.9805,-136.3346"/>
</g>
<!-- Node6&#45;&gt;Node11 -->
<g id="edge23" class="edge">
<title>Node6&#45;&gt;Node11</title>
<path fill="none" stroke="#191970" d="M561.936,-179.4639C547.4473,-170.2188 528.6828,-158.2452 512.8183,-148.1222"/>
<polygon fill="#191970" stroke="#191970" points="514.6614,-145.1464 504.3487,-142.7177 510.896,-151.0474 514.6614,-145.1464"/>
</g>
<!-- Node6&#45;&gt;Node12 -->
<g id="edge24" class="edge">
<title>Node6&#45;&gt;Node12</title>
<path fill="none" stroke="#191970" d="M639.4551,-179.4639C679.6198,-169.026 734.8,-155.1104 778.8339,-144.3065"/>
<polygon fill="#191970" stroke="#191970" points="779.7407,-147.688 788.6222,-141.9114 778.0769,-140.8885 779.7407,-147.688"/>
</g>
<!-- Node13 -->
<g id="node14" class="node">
<title>Node13</title>
<g id="a_node14"><a xlink:href="$utils_2structures_8h.html" xlink:title="Various utility&#45; and helper&#45;functions for secondary structure parsing, converting,...">
<polygon fill="none" stroke="#000000" points="503.5,-56.5 503.5,-75.5 647.5,-75.5 647.5,-56.5 503.5,-56.5"/>
<text text-anchor="middle" x="575.5" y="-63.5" font-family="Helvetica,sans-Serif" font-size="10.00" fill="#000000">ViennaRNA/utils/structures.h</text>
</a>
</g>
</g>
<!-- Node6&#45;&gt;Node13 -->
<g id="edge30" class="edge">
<title>Node6&#45;&gt;Node13</title>
<path fill="none" stroke="#191970" d="M579.7591,-179.2548C575.191,-155.9744 571.5737,-111.5607 572.0043,-85.8117"/>
<polygon fill="#191970" stroke="#191970" points="575.5045,-85.8872 572.4714,-75.7358 568.512,-85.5629 575.5045,-85.8872"/>
</g>
<!-- Node7&#45;&gt;Node1 -->
<g id="edge13" class="edge">
<title>Node7&#45;&gt;Node1</title>
<path fill="none" stroke="#191970" d="M221.9074,-137.0485C261.4585,-160.7435 356.1696,-223.3966 440.5,-266 464.9576,-278.3559 493.5475,-290.0556 514.5316,-298.5638"/>
<polygon fill="#191970" stroke="#191970" points="513.3002,-301.8412 523.8825,-302.3559 515.9309,-295.3543 513.3002,-301.8412"/>
</g>
<!-- Node7&#45;&gt;Node6 -->
<g id="edge12" class="edge">
<title>Node7&#45;&gt;Node6</title>
<path fill="none" stroke="#191970" d="M257.034,-137.0375C267.2023,-139.0758 277.6982,-141.1657 287.5,-143 362.4475,-157.0258 448.0318,-171.2342 508.2576,-181.1637"/>
<polygon fill="#191970" stroke="#191970" points="508.0123,-184.6704 518.4484,-182.8432 509.1507,-177.7636 508.0123,-184.6704"/>
</g>
<!-- Node8&#45;&gt;Node0 -->
<g id="edge16" class="edge">
<title>Node8&#45;&gt;Node0</title>
<path fill="none" stroke="#191970" d="M78.6006,-142.732C101.152,-160.2903 140.1942,-189.3746 176.5,-210 284.963,-271.6179 420.9892,-326.9368 493.1354,-354.6865"/>
<polygon fill="#191970" stroke="#191970" points="492.2916,-358.1111 502.882,-358.4169 494.7938,-351.5736 492.2916,-358.1111"/>
</g>
<!-- Node8&#45;&gt;Node1 -->
<g id="edge15" class="edge">
<title>Node8&#45;&gt;Node1</title>
<path fill="none" stroke="#191970" d="M97.869,-142.5896C160.7092,-169.3414 289.1065,-226.0256 400.5,-266 435.9006,-278.7038 476.7343,-290.9305 505.7968,-299.5812"/>
<polygon fill="#191970" stroke="#191970" points="504.9744,-302.9882 515.5574,-302.4869 506.9717,-296.2791 504.9744,-302.9882"/>
</g>
<!-- Node9&#45;&gt;Node0 -->
<g id="edge20" class="edge">
<title>Node9&#45;&gt;Node0</title>
<path fill="none" stroke="#191970" d="M984.4797,-142.6964C975.6879,-160.4866 959.2304,-190.0505 938.5,-210 846.4197,-298.6117 699.5155,-341.9884 613.1901,-360.8933"/>
<polygon fill="#191970" stroke="#191970" points="612.2745,-357.51 603.2283,-363.0251 613.7393,-364.355 612.2745,-357.51"/>
</g>
<!-- Node9&#45;&gt;Node1 -->
<g id="edge19" class="edge">
<title>Node9&#45;&gt;Node1</title>
<path fill="none" stroke="#191970" d="M981.0541,-142.9266C954.453,-172.0866 883.6884,-235.1307 811.5,-266 752.8961,-291.0603 681.213,-302.468 626.6708,-307.6609"/>
<polygon fill="#191970" stroke="#191970" points="626.3385,-304.1766 616.693,-308.5601 626.9668,-311.1483 626.3385,-304.1766"/>
</g>
<!-- Node9&#45;&gt;Node6 -->
<g id="edge18" class="edge">
<title>Node9&#45;&gt;Node6</title>
<path fill="none" stroke="#191970" d="M935.0129,-142.5171C934.1707,-142.6808 933.3327,-142.8419 932.5,-143 840.5115,-160.4679 733.5548,-175.9625 662.8965,-185.2834"/>
<polygon fill="#191970" stroke="#191970" points="662.2019,-181.8444 652.741,-186.6133 663.1109,-188.7851 662.2019,-181.8444"/>
</g>
<!-- Node10&#45;&gt;Node1 -->
<g id="edge22" class="edge">
<title>Node10&#45;&gt;Node1</title>
<path fill="none" stroke="#191970" d="M356.3863,-137.0299C375.3735,-161.2231 416.2359,-225.9343 464.5,-266 480.3177,-279.1308 500.494,-290.0099 516.6263,-297.8858"/>
<polygon fill="#191970" stroke="#191970" points="515.5408,-301.2459 526.0732,-302.3949 518.5561,-294.9287 515.5408,-301.2459"/>
</g>
<!-- Node12&#45;&gt;Node1 -->
<g id="edge26" class="edge">
<title>Node12&#45;&gt;Node1</title>
<path fill="none" stroke="#191970" d="M852.1727,-142.8537C846.7332,-171.8891 822.4396,-234.7294 778.5,-266 754.6879,-282.9464 684.541,-295.524 626.9789,-303.2047"/>
<polygon fill="#191970" stroke="#191970" points="626.2239,-299.7733 616.7594,-304.5351 627.1276,-306.7148 626.2239,-299.7733"/>
</g>
<!-- Node12&#45;&gt;Node6 -->
<g id="edge25" class="edge">
<title>Node12&#45;&gt;Node6</title>
<path fill="none" stroke="#191970" d="M797.2926,-142.6017C757.9773,-152.8171 704.3721,-166.3411 660.8991,-177.0225"/>
<polygon fill="#191970" stroke="#191970" points="659.8157,-173.6843 650.9361,-179.4639 661.4818,-180.4832 659.8157,-173.6843"/>
</g>
<!-- Node12&#45;&gt;Node13 -->
<g id="edge27" class="edge">
<title>Node12&#45;&gt;Node13</title>
<path fill="none" stroke="#191970" d="M788.8713,-113.5447C740.3722,-102.7378 673.957,-87.9388 628.1701,-77.7363"/>
<polygon fill="#191970" stroke="#191970" points="628.6741,-74.2628 618.1522,-75.504 627.1516,-81.0952 628.6741,-74.2628"/>
</g>
<!-- Node13&#45;&gt;Node6 -->
<g id="edge29" class="edge">
<title>Node13&#45;&gt;Node6</title>
<path fill="none" stroke="#191970" d="M580.0439,-75.7358C584.8369,-95.4362 588.9207,-140.5797 589.0284,-169.1876"/>
<polygon fill="#191970" stroke="#191970" points="585.5278,-169.2003 588.8681,-179.2548 592.5269,-169.3118 585.5278,-169.2003"/>
</g>
<!-- Node14 -->
<g id="node15" class="node">
<title>Node14</title>
<g id="a_node15"><a xlink:title=" ">
<polygon fill="none" stroke="#bfbfbf" points="552.5,-.5 552.5,-19.5 598.5,-19.5 598.5,-.5 552.5,-.5"/>
<text text-anchor="middle" x="575.5" y="-7.5" font-family="Helvetica,sans-Serif" font-size="10.00" fill="#000000">stdio.h</text>
</a>
</g>
</g>
<!-- Node13&#45;&gt;Node14 -->
<g id="edge28" class="edge">
<title>Node13&#45;&gt;Node14</title>
<path fill="none" stroke="#191970" d="M575.5,-56.2455C575.5,-48.9382 575.5,-38.6944 575.5,-29.7046"/>
<polygon fill="#191970" stroke="#191970" points="579.0001,-29.6426 575.5,-19.6427 572.0001,-29.6427 579.0001,-29.6426"/>
</g>
<!-- Node15&#45;&gt;Node1 -->
<g id="edge34" class="edge">
<title>Node15&#45;&gt;Node1</title>
<path fill="none" stroke="#191970" d="M548.7451,-265.6427C550.1665,-272.9199 550.581,-283.155 549.9887,-292.1575"/>
<polygon fill="#191970" stroke="#191970" points="546.4947,-291.8972 548.7668,-302.2455 553.4439,-292.739 546.4947,-291.8972"/>
</g>
</g>
</svg>
