<?xml version="1.0" encoding="UTF-8" standalone="no"?>
<!DOCTYPE svg PUBLIC "-//W3C//DTD SVG 1.1//EN"
 "http://www.w3.org/Graphics/SVG/1.1/DTD/svg11.dtd">
<!-- Generated by graphviz version 2.40.1 (0)
 -->
<!-- Title: ViennaRNA/constraints_ligand.h Pages: 1 -->
<svg width="1405pt" height="419pt"
 viewBox="0.00 0.00 1405.00 419.00" xmlns="http://www.w3.org/2000/svg" xmlns:xlink="http://www.w3.org/1999/xlink">
<g id="graph0" class="graph" transform="scale(1 1) rotate(0) translate(4 415)">
<title>ViennaRNA/constraints_ligand.h</title>
<!-- Node0 -->
<g id="node1" class="node">
<title>Node0</title>
<g id="a_node1"><a xlink:title="Use ViennaRNA/constraints/ligand.h instead.">
<polygon fill="#bfbfbf" stroke="#000000" points="650.5,-380.5 650.5,-410.5 769.5,-410.5 769.5,-380.5 650.5,-380.5"/>
<text text-anchor="start" x="658.5" y="-398.5" font-family="Helvetica,sans-Serif" font-size="10.00" fill="#000000">ViennaRNA/constraints</text>
<text text-anchor="middle" x="710" y="-387.5" font-family="Helvetica,sans-Serif" font-size="10.00" fill="#000000">_ligand.h</text>
</a>
</g>
</g>
<!-- Node1 -->
<g id="node2" class="node">
<title>Node1</title>
<g id="a_node2"><a xlink:href="$ligand_8h.html" xlink:title="Functions for incorporation of ligands binding to hairpin and interior loop motifs using the soft con...">
<polygon fill="none" stroke="#000000" points="650.5,-313.5 650.5,-343.5 769.5,-343.5 769.5,-313.5 650.5,-313.5"/>
<text text-anchor="start" x="658.5" y="-331.5" font-family="Helvetica,sans-Serif" font-size="10.00" fill="#000000">ViennaRNA/constraints</text>
<text text-anchor="middle" x="710" y="-320.5" font-family="Helvetica,sans-Serif" font-size="10.00" fill="#000000">/ligand.h</text>
</a>
</g>
</g>
<!-- Node0&#45;&gt;Node1 -->
<g id="edge1" class="edge">
<title>Node0&#45;&gt;Node1</title>
<path fill="none" stroke="#191970" d="M710,-380.2967C710,-372.5013 710,-362.7991 710,-353.9064"/>
<polygon fill="#191970" stroke="#191970" points="713.5001,-353.6431 710,-343.6432 706.5001,-353.6432 713.5001,-353.6431"/>
</g>
<!-- Node2 -->
<g id="node3" class="node">
<title>Node2</title>
<g id="a_node3"><a xlink:href="$datastructures_2basic_8h.html" xlink:title="Various data structures and pre&#45;processor macros.">
<polygon fill="none" stroke="#000000" points="717,-246.5 717,-276.5 851,-276.5 851,-246.5 717,-246.5"/>
<text text-anchor="start" x="725" y="-264.5" font-family="Helvetica,sans-Serif" font-size="10.00" fill="#000000">ViennaRNA/datastructures</text>
<text text-anchor="middle" x="784" y="-253.5" font-family="Helvetica,sans-Serif" font-size="10.00" fill="#000000">/basic.h</text>
</a>
</g>
</g>
<!-- Node1&#45;&gt;Node2 -->
<g id="edge2" class="edge">
<title>Node1&#45;&gt;Node2</title>
<path fill="none" stroke="#191970" d="M726.7917,-313.2967C736.537,-304.4733 748.9801,-293.2072 759.7713,-283.4368"/>
<polygon fill="#191970" stroke="#191970" points="762.2108,-285.9495 767.2747,-276.6432 757.5126,-280.7604 762.2108,-285.9495"/>
</g>
<!-- Node5 -->
<g id="node6" class="node">
<title>Node5</title>
<g id="a_node6"><a xlink:href="$fold__compound_8h.html" xlink:title="The Basic Fold Compound API.">
<polygon fill="none" stroke="#000000" points="563,-190.5 563,-209.5 709,-209.5 709,-190.5 563,-190.5"/>
<text text-anchor="middle" x="636" y="-197.5" font-family="Helvetica,sans-Serif" font-size="10.00" fill="#000000">ViennaRNA/fold_compound.h</text>
</a>
</g>
</g>
<!-- Node1&#45;&gt;Node5 -->
<g id="edge43" class="edge">
<title>Node1&#45;&gt;Node5</title>
<path fill="none" stroke="#191970" d="M701.2206,-313.2548C687.5736,-289.5568 661.3158,-243.9605 646.6217,-218.4444"/>
<polygon fill="#191970" stroke="#191970" points="649.6301,-216.6549 641.6066,-209.7358 643.564,-220.1482 649.6301,-216.6549"/>
</g>
<!-- Node3 -->
<g id="node4" class="node">
<title>Node3</title>
<g id="a_node4"><a xlink:href="$constants_8h.html" xlink:title="Energy parameter constants.">
<polygon fill="none" stroke="#000000" points="0,-62 0,-81 158,-81 158,-62 0,-62"/>
<text text-anchor="middle" x="79" y="-69" font-family="Helvetica,sans-Serif" font-size="10.00" fill="#000000">ViennaRNA/params/constants.h</text>
</a>
</g>
</g>
<!-- Node2&#45;&gt;Node3 -->
<g id="edge3" class="edge">
<title>Node2&#45;&gt;Node3</title>
<path fill="none" stroke="#191970" d="M716.998,-256.7077C543.8297,-243.6375 91.8939,-204.917 49,-154 33.1359,-135.1687 49.2444,-107.2473 63.2879,-89.2098"/>
<polygon fill="#191970" stroke="#191970" points="66.2048,-91.1739 69.867,-81.2321 60.8043,-86.7202 66.2048,-91.1739"/>
</g>
<!-- Node2&#45;&gt;Node5 -->
<g id="edge5" class="edge">
<title>Node2&#45;&gt;Node5</title>
<path fill="none" stroke="#191970" d="M747.7951,-246.4554C723.5342,-236.374 691.8644,-223.2139 668.4288,-213.4755"/>
<polygon fill="#191970" stroke="#191970" points="669.5123,-210.1356 658.9347,-209.5303 666.8261,-216.5997 669.5123,-210.1356"/>
</g>
<!-- Node6 -->
<g id="node7" class="node">
<title>Node6</title>
<g id="a_node7"><a xlink:href="$model_8h.html" xlink:title="The model details data structure and its corresponding modifiers.">
<polygon fill="none" stroke="#000000" points="323,-62 323,-81 429,-81 429,-62 323,-62"/>
<text text-anchor="middle" x="376" y="-69" font-family="Helvetica,sans-Serif" font-size="10.00" fill="#000000">ViennaRNA/model.h</text>
</a>
</g>
</g>
<!-- Node2&#45;&gt;Node6 -->
<g id="edge34" class="edge">
<title>Node2&#45;&gt;Node6</title>
<path fill="none" stroke="#191970" d="M851.0346,-256.3874C969.6205,-245.7997 1208.6638,-217.001 1259,-154 1267.6002,-143.236 1268.4833,-132.9947 1259,-123 1232.7702,-95.3555 612.0268,-89.4873 574,-87 528.9925,-84.0561 478.2831,-80.0737 439.4503,-76.8828"/>
<polygon fill="#191970" stroke="#191970" points="439.591,-73.3826 429.3369,-76.0476 439.0149,-80.3588 439.591,-73.3826"/>
</g>
<!-- Node7 -->
<g id="node8" class="node">
<title>Node7</title>
<g id="a_node8"><a xlink:href="$params_2basic_8h.html" xlink:title="Functions to deal with sets of energy parameters.">
<polygon fill="none" stroke="#000000" points="58,-129 58,-148 196,-148 196,-129 58,-129"/>
<text text-anchor="middle" x="127" y="-136" font-family="Helvetica,sans-Serif" font-size="10.00" fill="#000000">ViennaRNA/params/basic.h</text>
</a>
</g>
</g>
<!-- Node2&#45;&gt;Node7 -->
<g id="edge35" class="edge">
<title>Node2&#45;&gt;Node7</title>
<path fill="none" stroke="#191970" d="M716.83,-252.1696C652.0158,-242.3421 551.4896,-226.0887 465,-210 360.9616,-190.6469 240.0371,-165.013 174.6448,-150.2813"/>
<polygon fill="#191970" stroke="#191970" points="175.164,-146.8103 164.6377,-148.0132 173.6166,-153.6371 175.164,-146.8103"/>
</g>
<!-- Node9 -->
<g id="node10" class="node">
<title>Node9</title>
<g id="a_node10"><a xlink:href="$dp__matrices_8h.html" xlink:title="Functions to deal with standard dynamic programming (DP) matrices.">
<polygon fill="none" stroke="#000000" points="214.5,-129 214.5,-148 347.5,-148 347.5,-129 214.5,-129"/>
<text text-anchor="middle" x="281" y="-136" font-family="Helvetica,sans-Serif" font-size="10.00" fill="#000000">ViennaRNA/dp_matrices.h</text>
</a>
</g>
</g>
<!-- Node2&#45;&gt;Node9 -->
<g id="edge36" class="edge">
<title>Node2&#45;&gt;Node9</title>
<path fill="none" stroke="#191970" d="M716.9303,-248.7463C668.7875,-238.6633 602.6575,-224.0007 545,-210 464.4335,-190.4364 371.0944,-165.4954 319.67,-150.8341"/>
<polygon fill="#191970" stroke="#191970" points="320.5379,-147.4419 309.9602,-148.0435 318.6043,-154.1696 320.5379,-147.4419"/>
</g>
<!-- Node10 -->
<g id="node11" class="node">
<title>Node10</title>
<g id="a_node11"><a xlink:href="$hard_8h.html" xlink:title="Functions and data structures for handling of secondary structure hard constraints.">
<polygon fill="none" stroke="#000000" points="582.5,-123.5 582.5,-153.5 701.5,-153.5 701.5,-123.5 582.5,-123.5"/>
<text text-anchor="start" x="590.5" y="-141.5" font-family="Helvetica,sans-Serif" font-size="10.00" fill="#000000">ViennaRNA/constraints</text>
<text text-anchor="middle" x="642" y="-130.5" font-family="Helvetica,sans-Serif" font-size="10.00" fill="#000000">/hard.h</text>
</a>
</g>
</g>
<!-- Node2&#45;&gt;Node10 -->
<g id="edge37" class="edge">
<title>Node2&#45;&gt;Node10</title>
<path fill="none" stroke="#191970" d="M771.7613,-246.3138C759.1485,-231.1507 738.4897,-207.6281 718,-190 705.0163,-178.8296 689.5412,-167.9625 675.9542,-159.1125"/>
<polygon fill="#191970" stroke="#191970" points="677.6535,-156.0447 667.3434,-153.6051 673.8818,-161.9417 677.6535,-156.0447"/>
</g>
<!-- Node12 -->
<g id="node13" class="node">
<title>Node12</title>
<g id="a_node13"><a xlink:href="$soft_8h.html" xlink:title="Functions and data structures for secondary structure soft constraints.">
<polygon fill="none" stroke="#000000" points="719.5,-123.5 719.5,-153.5 838.5,-153.5 838.5,-123.5 719.5,-123.5"/>
<text text-anchor="start" x="727.5" y="-141.5" font-family="Helvetica,sans-Serif" font-size="10.00" fill="#000000">ViennaRNA/constraints</text>
<text text-anchor="middle" x="779" y="-130.5" font-family="Helvetica,sans-Serif" font-size="10.00" fill="#000000">/soft.h</text>
</a>
</g>
</g>
<!-- Node2&#45;&gt;Node12 -->
<g id="edge38" class="edge">
<title>Node2&#45;&gt;Node12</title>
<path fill="none" stroke="#191970" d="M778.7726,-246.4178C775.4604,-225.8539 773.6286,-188.7363 774.4476,-163.8546"/>
<polygon fill="#191970" stroke="#191970" points="777.9512,-163.8779 774.989,-153.7056 770.9611,-163.5049 777.9512,-163.8779"/>
</g>
<!-- Node13 -->
<g id="node14" class="node">
<title>Node13</title>
<g id="a_node14"><a xlink:href="$grammar_8h.html" xlink:title="Implementations for the RNA folding grammar.">
<polygon fill="none" stroke="#000000" points="856.5,-129 856.5,-148 973.5,-148 973.5,-129 856.5,-129"/>
<text text-anchor="middle" x="915" y="-136" font-family="Helvetica,sans-Serif" font-size="10.00" fill="#000000">ViennaRNA/grammar.h</text>
</a>
</g>
</g>
<!-- Node2&#45;&gt;Node13 -->
<g id="edge39" class="edge">
<title>Node2&#45;&gt;Node13</title>
<path fill="none" stroke="#191970" d="M800.0632,-246.4178C824.7231,-223.2638 871.734,-179.1238 897.328,-155.0928"/>
<polygon fill="#191970" stroke="#191970" points="899.9352,-157.4458 904.8297,-148.0493 895.1437,-152.3427 899.9352,-157.4458"/>
</g>
<!-- Node14 -->
<g id="node15" class="node">
<title>Node14</title>
<g id="a_node15"><a xlink:href="$structured__domains_8h.html" xlink:title="This module provides interfaces that deal with additional structured domains in the folding grammar.">
<polygon fill="none" stroke="#000000" points="991.5,-123.5 991.5,-153.5 1106.5,-153.5 1106.5,-123.5 991.5,-123.5"/>
<text text-anchor="start" x="999.5" y="-141.5" font-family="Helvetica,sans-Serif" font-size="10.00" fill="#000000">ViennaRNA/structured</text>
<text text-anchor="middle" x="1049" y="-130.5" font-family="Helvetica,sans-Serif" font-size="10.00" fill="#000000">_domains.h</text>
</a>
</g>
</g>
<!-- Node2&#45;&gt;Node14 -->
<g id="edge40" class="edge">
<title>Node2&#45;&gt;Node14</title>
<path fill="none" stroke="#191970" d="M816.4942,-246.4178C864.6044,-224.0874 954.7695,-182.2372 1007.5663,-157.7315"/>
<polygon fill="#191970" stroke="#191970" points="1009.0579,-160.8979 1016.6549,-153.513 1006.1108,-154.5485 1009.0579,-160.8979"/>
</g>
<!-- Node15 -->
<g id="node16" class="node">
<title>Node15</title>
<g id="a_node16"><a xlink:href="$unstructured__domains_8h.html" xlink:title="Functions to modify unstructured domains, e.g. to incorporate ligands binding to unpaired stretches.">
<polygon fill="none" stroke="#000000" points="1124.5,-123.5 1124.5,-153.5 1249.5,-153.5 1249.5,-123.5 1124.5,-123.5"/>
<text text-anchor="start" x="1132.5" y="-141.5" font-family="Helvetica,sans-Serif" font-size="10.00" fill="#000000">ViennaRNA/unstructured</text>
<text text-anchor="middle" x="1187" y="-130.5" font-family="Helvetica,sans-Serif" font-size="10.00" fill="#000000">_domains.h</text>
</a>
</g>
</g>
<!-- Node2&#45;&gt;Node15 -->
<g id="edge41" class="edge">
<title>Node2&#45;&gt;Node15</title>
<path fill="none" stroke="#191970" d="M828.8015,-246.4178C900.5895,-223.6713 1041.373,-180.6708 1123.4903,-156.3799"/>
<polygon fill="#191970" stroke="#191970" points="1124.6047,-159.7003 1133.2052,-153.513 1122.6234,-152.9866 1124.6047,-159.7003"/>
</g>
<!-- Node16 -->
<g id="node17" class="node">
<title>Node16</title>
<g id="a_node17"><a xlink:href="$utils_2structures_8h.html" xlink:title="Various utility&#45; and helper&#45;functions for secondary structure parsing, converting,...">
<polygon fill="none" stroke="#000000" points="1253,-62 1253,-81 1397,-81 1397,-62 1253,-62"/>
<text text-anchor="middle" x="1325" y="-69" font-family="Helvetica,sans-Serif" font-size="10.00" fill="#000000">ViennaRNA/utils/structures.h</text>
</a>
</g>
</g>
<!-- Node2&#45;&gt;Node16 -->
<g id="edge42" class="edge">
<title>Node2&#45;&gt;Node16</title>
<path fill="none" stroke="#191970" d="M851.3998,-256.0815C948.0783,-248.0505 1120.7252,-231.5833 1180,-210 1223.2091,-194.2666 1235.0741,-187.0954 1267,-154 1285.3462,-134.9818 1299.7698,-107.857 1310.2292,-89.9736"/>
<polygon fill="#191970" stroke="#191970" points="1313.4212,-91.461 1315.6318,-81.0993 1307.4421,-87.8209 1313.4212,-91.461"/>
</g>
<!-- Node4 -->
<g id="node5" class="node">
<title>Node4</title>
<g id="a_node5"><a xlink:title=" ">
<polygon fill="none" stroke="#bfbfbf" points="55,-.5 55,-19.5 103,-19.5 103,-.5 55,-.5"/>
<text text-anchor="middle" x="79" y="-7.5" font-family="Helvetica,sans-Serif" font-size="10.00" fill="#000000">limits.h</text>
</a>
</g>
</g>
<!-- Node3&#45;&gt;Node4 -->
<g id="edge4" class="edge">
<title>Node3&#45;&gt;Node4</title>
<path fill="none" stroke="#191970" d="M79,-61.8906C79,-53.3657 79,-40.6392 79,-29.9235"/>
<polygon fill="#191970" stroke="#191970" points="82.5001,-29.7448 79,-19.7449 75.5001,-29.7449 82.5001,-29.7448"/>
</g>
<!-- Node5&#45;&gt;Node6 -->
<g id="edge6" class="edge">
<title>Node5&#45;&gt;Node6</title>
<path fill="none" stroke="#191970" d="M562.9618,-194.7464C501.0392,-188.7755 418.6258,-176.7502 395,-154 378.263,-137.8833 374.9516,-110.2113 374.867,-91.4012"/>
<polygon fill="#191970" stroke="#191970" points="378.3694,-91.347 375.1263,-81.2607 371.3717,-91.1679 378.3694,-91.347"/>
</g>
<!-- Node5&#45;&gt;Node7 -->
<g id="edge7" class="edge">
<title>Node5&#45;&gt;Node7</title>
<path fill="none" stroke="#191970" d="M562.8451,-194.6632C475.3371,-187.4834 324.8679,-173.3458 197,-154 189.2265,-152.8239 181.055,-151.4163 173.1312,-149.9357"/>
<polygon fill="#191970" stroke="#191970" points="173.7575,-146.4921 163.2754,-148.0332 172.4308,-153.3652 173.7575,-146.4921"/>
</g>
<!-- Node8 -->
<g id="node9" class="node">
<title>Node8</title>
<g id="a_node9"><a xlink:href="$sequence_8h.html" xlink:title="Functions and data structures related to sequence representations ,.">
<polygon fill="none" stroke="#000000" points="404,-129 404,-148 526,-148 526,-129 404,-129"/>
<text text-anchor="middle" x="465" y="-136" font-family="Helvetica,sans-Serif" font-size="10.00" fill="#000000">ViennaRNA/sequence.h</text>
</a>
</g>
</g>
<!-- Node5&#45;&gt;Node8 -->
<g id="edge12" class="edge">
<title>Node5&#45;&gt;Node8</title>
<path fill="none" stroke="#191970" d="M604.2188,-190.3906C573.1966,-179.9652 526.5415,-163.2559 495.8468,-151.6252"/>
<polygon fill="#191970" stroke="#191970" points="497.0723,-148.3467 486.4818,-148.0419 494.5707,-154.8845 497.0723,-148.3467"/>
</g>
<!-- Node5&#45;&gt;Node9 -->
<g id="edge14" class="edge">
<title>Node5&#45;&gt;Node9</title>
<path fill="none" stroke="#191970" d="M569.8985,-190.4718C512.3333,-181.4277 426.9432,-167.28 353,-154 345.8306,-152.7124 338.3118,-151.3244 330.9361,-149.9268"/>
<polygon fill="#191970" stroke="#191970" points="331.4939,-146.47 321.0136,-148.0235 330.1752,-153.3447 331.4939,-146.47"/>
</g>
<!-- Node5&#45;&gt;Node10 -->
<g id="edge17" class="edge">
<title>Node5&#45;&gt;Node10</title>
<path fill="none" stroke="#191970" d="M631.875,-190.3906C631.1758,-183.2234 631.6355,-173.0862 632.894,-163.671"/>
<polygon fill="#191970" stroke="#191970" points="636.3899,-163.9931 634.6352,-153.5446 629.4912,-162.8069 636.3899,-163.9931"/>
</g>
<!-- Node5&#45;&gt;Node12 -->
<g id="edge21" class="edge">
<title>Node5&#45;&gt;Node12</title>
<path fill="none" stroke="#191970" d="M653.2813,-190.3906C671.9955,-181.6049 702.3921,-168.3567 728.6597,-157.446"/>
<polygon fill="#191970" stroke="#191970" points="730.2105,-160.5925 738.1212,-153.5446 727.542,-154.121 730.2105,-160.5925"/>
</g>
<!-- Node5&#45;&gt;Node13 -->
<g id="edge25" class="edge">
<title>Node5&#45;&gt;Node13</title>
<path fill="none" stroke="#191970" d="M673.7826,-190.4851C714.6383,-181.3041 781.3024,-166.933 839,-154 844.3153,-152.8086 849.8642,-151.5495 855.4455,-150.2847"/>
<polygon fill="#191970" stroke="#191970" points="856.5012,-153.6344 865.4832,-148.0153 854.9576,-146.8067 856.5012,-153.6344"/>
</g>
<!-- Node5&#45;&gt;Node14 -->
<g id="edge27" class="edge">
<title>Node5&#45;&gt;Node14</title>
<path fill="none" stroke="#191970" d="M709.1051,-192.4352C777.2857,-184.8956 881.9903,-172.0832 981.5502,-154.169"/>
<polygon fill="#191970" stroke="#191970" points="982.2657,-157.5963 991.4775,-152.3624 981.0124,-150.7094 982.2657,-157.5963"/>
</g>
<!-- Node5&#45;&gt;Node15 -->
<g id="edge28" class="edge">
<title>Node5&#45;&gt;Node15</title>
<path fill="none" stroke="#191970" d="M709.378,-195.2802C802.3217,-188.9538 967.016,-175.9073 1107,-154 1109.3664,-153.6297 1111.7723,-153.229 1114.2024,-152.8046"/>
<polygon fill="#191970" stroke="#191970" points="1115.0922,-156.1996 1124.2908,-150.9425 1113.8216,-149.3158 1115.0922,-156.1996"/>
</g>
<!-- Node7&#45;&gt;Node2 -->
<g id="edge9" class="edge">
<title>Node7&#45;&gt;Node2</title>
<path fill="none" stroke="#191970" d="M176.2493,-148.0132C245.0504,-162.2523 373.3958,-189.6116 483,-210 559.0857,-224.1534 646.0341,-238.4342 706.9141,-248.3556"/>
<polygon fill="#191970" stroke="#191970" points="706.4003,-251.818 716.833,-249.9713 707.5258,-244.9091 706.4003,-251.818"/>
</g>
<!-- Node7&#45;&gt;Node3 -->
<g id="edge8" class="edge">
<title>Node7&#45;&gt;Node3</title>
<path fill="none" stroke="#191970" d="M120.1228,-128.9005C112.7802,-118.6515 100.9759,-102.1747 91.8938,-89.4976"/>
<polygon fill="#191970" stroke="#191970" points="94.5336,-87.1724 85.8645,-81.0817 88.8432,-91.2492 94.5336,-87.1724"/>
</g>
<!-- Node7&#45;&gt;Node5 -->
<g id="edge10" class="edge">
<title>Node7&#45;&gt;Node5</title>
<path fill="none" stroke="#191970" d="M180.7261,-148.0332C192.0837,-150.1864 203.9444,-152.3273 215,-154 331.8097,-171.6728 467.4805,-184.9992 552.6042,-192.6454"/>
<polygon fill="#191970" stroke="#191970" points="552.4581,-196.1462 562.7298,-193.5496 553.0808,-189.174 552.4581,-196.1462"/>
</g>
<!-- Node7&#45;&gt;Node6 -->
<g id="edge11" class="edge">
<title>Node7&#45;&gt;Node6</title>
<path fill="none" stroke="#191970" d="M162.4112,-128.9717C206.5345,-117.0991 282.0084,-96.7909 330.4111,-83.7669"/>
<polygon fill="#191970" stroke="#191970" points="331.5607,-87.0821 340.3078,-81.1039 329.7418,-80.3225 331.5607,-87.0821"/>
</g>
<!-- Node8&#45;&gt;Node5 -->
<g id="edge13" class="edge">
<title>Node8&#45;&gt;Node5</title>
<path fill="none" stroke="#191970" d="M496.5804,-148.0419C527.5349,-158.4402 574.1905,-175.1468 604.954,-186.7993"/>
<polygon fill="#191970" stroke="#191970" points="603.7533,-190.0873 614.3438,-190.3906 606.2539,-183.5492 603.7533,-190.0873"/>
</g>
<!-- Node9&#45;&gt;Node2 -->
<g id="edge15" class="edge">
<title>Node9&#45;&gt;Node2</title>
<path fill="none" stroke="#191970" d="M321.6508,-148.0435C376.5924,-162.146 477.0624,-189.1321 563,-210 612.6174,-222.0484 668.5091,-234.5869 711.7283,-244.2752"/>
<polygon fill="#191970" stroke="#191970" points="711.0648,-247.7133 721.5883,-246.4858 712.5962,-240.8829 711.0648,-247.7133"/>
</g>
<!-- Node9&#45;&gt;Node5 -->
<g id="edge16" class="edge">
<title>Node9&#45;&gt;Node5</title>
<path fill="none" stroke="#191970" d="M338.5788,-148.0235C349.4042,-150.0419 360.5718,-152.1271 371,-154 440.4662,-166.4759 520.035,-179.7177 573.7841,-188.7742"/>
<polygon fill="#191970" stroke="#191970" points="573.402,-192.2592 583.845,-190.4718 574.5667,-185.3567 573.402,-192.2592"/>
</g>
<!-- Node10&#45;&gt;Node5 -->
<g id="edge18" class="edge">
<title>Node10&#45;&gt;Node5</title>
<path fill="none" stroke="#191970" d="M646.4293,-153.5446C646.6032,-161.6241 645.7702,-171.681 644.2566,-180.3693"/>
<polygon fill="#191970" stroke="#191970" points="640.7824,-179.866 642,-190.3906 647.6114,-181.4038 640.7824,-179.866"/>
</g>
<!-- Node11 -->
<g id="node12" class="node">
<title>Node11</title>
<g id="a_node12"><a xlink:href="$constraints_2basic_8h.html" xlink:title="Functions and data structures for constraining secondary structure predictions and evaluation.">
<polygon fill="none" stroke="#000000" points="582.5,-56.5 582.5,-86.5 701.5,-86.5 701.5,-56.5 582.5,-56.5"/>
<text text-anchor="start" x="590.5" y="-74.5" font-family="Helvetica,sans-Serif" font-size="10.00" fill="#000000">ViennaRNA/constraints</text>
<text text-anchor="middle" x="642" y="-63.5" font-family="Helvetica,sans-Serif" font-size="10.00" fill="#000000">/basic.h</text>
</a>
</g>
</g>
<!-- Node10&#45;&gt;Node11 -->
<g id="edge19" class="edge">
<title>Node10&#45;&gt;Node11</title>
<path fill="none" stroke="#191970" d="M642,-123.2967C642,-115.5013 642,-105.7991 642,-96.9064"/>
<polygon fill="#191970" stroke="#191970" points="645.5001,-96.6431 642,-86.6432 638.5001,-96.6432 645.5001,-96.6431"/>
</g>
<!-- Node11&#45;&gt;Node5 -->
<g id="edge20" class="edge">
<title>Node11&#45;&gt;Node5</title>
<path fill="none" stroke="#191970" d="M610.8046,-86.6198C596.8335,-95.1874 581.7783,-107.3517 574,-123 567.8673,-135.3376 567.8065,-141.6928 574,-154 580.6737,-167.2613 593.1793,-177.6585 605.2207,-185.1875"/>
<polygon fill="#191970" stroke="#191970" points="603.823,-188.4217 614.2342,-190.3857 607.3201,-182.3578 603.823,-188.4217"/>
</g>
<!-- Node12&#45;&gt;Node2 -->
<g id="edge22" class="edge">
<title>Node12&#45;&gt;Node2</title>
<path fill="none" stroke="#191970" d="M784.2472,-153.7056C787.5535,-174.3355 789.377,-211.4615 788.5475,-236.2943"/>
<polygon fill="#191970" stroke="#191970" points="785.0452,-236.2437 788.0012,-246.4178 792.0351,-236.621 785.0452,-236.2437"/>
</g>
<!-- Node12&#45;&gt;Node5 -->
<g id="edge23" class="edge">
<title>Node12&#45;&gt;Node5</title>
<path fill="none" stroke="#191970" d="M749.9153,-153.5446C727.6349,-163.644 696.8984,-176.833 672.9015,-186.5766"/>
<polygon fill="#191970" stroke="#191970" points="671.381,-183.4154 663.4063,-190.3906 673.9902,-189.911 671.381,-183.4154"/>
</g>
<!-- Node12&#45;&gt;Node11 -->
<g id="edge24" class="edge">
<title>Node12&#45;&gt;Node11</title>
<path fill="none" stroke="#191970" d="M748.2545,-123.4639C728.7376,-113.9191 703.2743,-101.4663 682.1675,-91.144"/>
<polygon fill="#191970" stroke="#191970" points="683.6378,-87.9669 673.1169,-86.7177 680.5625,-94.2552 683.6378,-87.9669"/>
</g>
<!-- Node13&#45;&gt;Node5 -->
<g id="edge26" class="edge">
<title>Node13&#45;&gt;Node5</title>
<path fill="none" stroke="#191970" d="M883.0659,-148.0153C874.6069,-150.0142 865.5046,-152.0937 857,-154 803.3592,-166.0236 741.9686,-179.2903 697.435,-188.4738"/>
<polygon fill="#191970" stroke="#191970" points="696.7233,-185.0469 687.6307,-190.4851 698.1301,-191.9041 696.7233,-185.0469"/>
</g>
<!-- Node15&#45;&gt;Node2 -->
<g id="edge29" class="edge">
<title>Node15&#45;&gt;Node2</title>
<path fill="none" stroke="#191970" d="M1142.417,-153.513C1070.7691,-176.2183 929.9963,-219.2172 847.76,-243.546"/>
<polygon fill="#191970" stroke="#191970" points="846.6302,-240.2302 838.03,-246.4178 848.6117,-246.9439 846.6302,-240.2302"/>
</g>
<!-- Node15&#45;&gt;Node5 -->
<g id="edge30" class="edge">
<title>Node15&#45;&gt;Node5</title>
<path fill="none" stroke="#191970" d="M1128.0109,-153.5162C1127.0014,-153.6825 1125.9972,-153.8439 1125,-154 983.6098,-176.1274 817.0103,-189.215 719.2388,-195.4688"/>
<polygon fill="#191970" stroke="#191970" points="718.8811,-191.9843 709.1214,-196.1072 719.322,-198.9704 718.8811,-191.9843"/>
</g>
<!-- Node15&#45;&gt;Node16 -->
<g id="edge31" class="edge">
<title>Node15&#45;&gt;Node16</title>
<path fill="none" stroke="#191970" d="M1217.9699,-123.4639C1241.3331,-112.1209 1273.1559,-96.6707 1296.0194,-85.5703"/>
<polygon fill="#191970" stroke="#191970" points="1297.7516,-88.62 1305.2188,-81.1039 1294.6943,-82.323 1297.7516,-88.62"/>
</g>
<!-- Node16&#45;&gt;Node2 -->
<g id="edge33" class="edge">
<title>Node16&#45;&gt;Node2</title>
<path fill="none" stroke="#191970" d="M1326.5029,-81.0993C1322.9774,-97.5328 1306.7437,-131.4599 1285,-154 1253.0741,-187.0954 1241.2091,-194.2666 1198,-210 1138.2989,-231.7385 963.5894,-248.287 861.1437,-256.2534"/>
<polygon fill="#191970" stroke="#191970" points="860.8593,-252.7649 851.1567,-257.0206 861.3955,-259.7443 860.8593,-252.7649"/>
</g>
<!-- Node17 -->
<g id="node18" class="node">
<title>Node17</title>
<g id="a_node18"><a xlink:title=" ">
<polygon fill="none" stroke="#bfbfbf" points="1302,-.5 1302,-19.5 1348,-19.5 1348,-.5 1302,-.5"/>
<text text-anchor="middle" x="1325" y="-7.5" font-family="Helvetica,sans-Serif" font-size="10.00" fill="#000000">stdio.h</text>
</a>
</g>
</g>
<!-- Node16&#45;&gt;Node17 -->
<g id="edge32" class="edge">
<title>Node16&#45;&gt;Node17</title>
<path fill="none" stroke="#191970" d="M1325,-61.8906C1325,-53.3657 1325,-40.6392 1325,-29.9235"/>
<polygon fill="#191970" stroke="#191970" points="1328.5001,-29.7448 1325,-19.7449 1321.5001,-29.7449 1328.5001,-29.7448"/>
</g>
</g>
</svg>
