<?xml version="1.0" encoding="UTF-8" standalone="no"?>
<!DOCTYPE svg PUBLIC "-//W3C//DTD SVG 1.1//EN"
 "http://www.w3.org/Graphics/SVG/1.1/DTD/svg11.dtd">
<!-- Generated by graphviz version 2.40.1 (0)
 -->
<!-- Title: ViennaRNA/constraints.h Pages: 1 -->
<svg width="1183pt" height="453pt"
 viewBox="0.00 0.00 1183.00 453.00" xmlns="http://www.w3.org/2000/svg" xmlns:xlink="http://www.w3.org/1999/xlink">
<g id="graph0" class="graph" transform="scale(1 1) rotate(0) translate(4 449)">
<title>ViennaRNA/constraints.h</title>
<!-- Node0 -->
<g id="node1" class="node">
<title>Node0</title>
<g id="a_node1"><a xlink:title="Use ViennaRNA/constraints/basic.h instead.">
<polygon fill="#bfbfbf" stroke="#000000" points="883.5,-425.5 883.5,-444.5 1011.5,-444.5 1011.5,-425.5 883.5,-425.5"/>
<text text-anchor="middle" x="947.5" y="-432.5" font-family="Helvetica,sans-Serif" font-size="10.00" fill="#000000">ViennaRNA/constraints.h</text>
</a>
</g>
</g>
<!-- Node1 -->
<g id="node2" class="node">
<title>Node1</title>
<g id="a_node2"><a xlink:href="$constraints_2basic_8h.html" xlink:title="Functions and data structures for constraining secondary structure predictions and evaluation.">
<polygon fill="none" stroke="#000000" points="888,-358.5 888,-388.5 1007,-388.5 1007,-358.5 888,-358.5"/>
<text text-anchor="start" x="896" y="-376.5" font-family="Helvetica,sans-Serif" font-size="10.00" fill="#000000">ViennaRNA/constraints</text>
<text text-anchor="middle" x="947.5" y="-365.5" font-family="Helvetica,sans-Serif" font-size="10.00" fill="#000000">/basic.h</text>
</a>
</g>
</g>
<!-- Node0&#45;&gt;Node1 -->
<g id="edge1" class="edge">
<title>Node0&#45;&gt;Node1</title>
<path fill="none" stroke="#191970" d="M947.5,-425.3906C947.5,-418.2234 947.5,-408.0862 947.5,-398.671"/>
<polygon fill="#191970" stroke="#191970" points="951.0001,-398.5446 947.5,-388.5446 944.0001,-398.5446 951.0001,-398.5446"/>
</g>
<!-- Node9 -->
<g id="node10" class="node">
<title>Node9</title>
<g id="a_node10"><a xlink:href="$hard_8h.html" xlink:title="Functions and data structures for handling of secondary structure hard constraints.">
<polygon fill="none" stroke="#000000" points="919,-112.5 919,-142.5 1038,-142.5 1038,-112.5 919,-112.5"/>
<text text-anchor="start" x="927" y="-130.5" font-family="Helvetica,sans-Serif" font-size="10.00" fill="#000000">ViennaRNA/constraints</text>
<text text-anchor="middle" x="978.5" y="-119.5" font-family="Helvetica,sans-Serif" font-size="10.00" fill="#000000">/hard.h</text>
</a>
</g>
</g>
<!-- Node0&#45;&gt;Node9 -->
<g id="edge42" class="edge">
<title>Node0&#45;&gt;Node9</title>
<path fill="none" stroke="#191970" d="M973.0262,-425.3698C988.6421,-417.9914 1007.3289,-406.1364 1016.5,-389 1058.6237,-310.2911 1014.7519,-200.1457 991.2813,-151.8336"/>
<polygon fill="#191970" stroke="#191970" points="994.3509,-150.146 986.7557,-142.7593 988.0867,-153.2702 994.3509,-150.146"/>
</g>
<!-- Node10 -->
<g id="node11" class="node">
<title>Node10</title>
<g id="a_node11"><a xlink:href="$soft_8h.html" xlink:title="Functions and data structures for secondary structure soft constraints.">
<polygon fill="none" stroke="#000000" points="1056,-112.5 1056,-142.5 1175,-142.5 1175,-112.5 1056,-112.5"/>
<text text-anchor="start" x="1064" y="-130.5" font-family="Helvetica,sans-Serif" font-size="10.00" fill="#000000">ViennaRNA/constraints</text>
<text text-anchor="middle" x="1115.5" y="-119.5" font-family="Helvetica,sans-Serif" font-size="10.00" fill="#000000">/soft.h</text>
</a>
</g>
</g>
<!-- Node0&#45;&gt;Node10 -->
<g id="edge43" class="edge">
<title>Node0&#45;&gt;Node10</title>
<path fill="none" stroke="#191970" d="M987.6245,-425.4741C1038.7305,-410.6741 1120.5,-376.8599 1120.5,-312 1120.5,-312 1120.5,-312 1120.5,-256 1120.5,-220.0553 1118.5224,-178.4976 1117.0546,-152.6039"/>
<polygon fill="#191970" stroke="#191970" points="1120.5432,-152.3057 1116.4641,-142.5277 1113.5552,-152.7154 1120.5432,-152.3057"/>
</g>
<!-- Node17 -->
<g id="node18" class="node">
<title>Node17</title>
<g id="a_node18"><a xlink:href="$SHAPE_8h.html" xlink:title="This module provides function to incorporate SHAPE reactivity data into the folding recursions by mea...">
<polygon fill="none" stroke="#000000" points="743,-358.5 743,-388.5 862,-388.5 862,-358.5 743,-358.5"/>
<text text-anchor="start" x="751" y="-376.5" font-family="Helvetica,sans-Serif" font-size="10.00" fill="#000000">ViennaRNA/constraints</text>
<text text-anchor="middle" x="802.5" y="-365.5" font-family="Helvetica,sans-Serif" font-size="10.00" fill="#000000">/SHAPE.h</text>
</a>
</g>
</g>
<!-- Node0&#45;&gt;Node17 -->
<g id="edge44" class="edge">
<title>Node0&#45;&gt;Node17</title>
<path fill="none" stroke="#191970" d="M924.8438,-425.3906C904.2204,-416.6435 873.1677,-403.4728 847.5082,-392.5897"/>
<polygon fill="#191970" stroke="#191970" points="848.5438,-389.2272 837.971,-388.5446 845.8105,-395.6715 848.5438,-389.2272"/>
</g>
<!-- Node18 -->
<g id="node19" class="node">
<title>Node18</title>
<g id="a_node19"><a xlink:href="$ligand_8h.html" xlink:title="Functions for incorporation of ligands binding to hairpin and interior loop motifs using the soft con...">
<polygon fill="none" stroke="#000000" points="597,-358.5 597,-388.5 716,-388.5 716,-358.5 597,-358.5"/>
<text text-anchor="start" x="605" y="-376.5" font-family="Helvetica,sans-Serif" font-size="10.00" fill="#000000">ViennaRNA/constraints</text>
<text text-anchor="middle" x="656.5" y="-365.5" font-family="Helvetica,sans-Serif" font-size="10.00" fill="#000000">/ligand.h</text>
</a>
</g>
</g>
<!-- Node0&#45;&gt;Node18 -->
<g id="edge46" class="edge">
<title>Node0&#45;&gt;Node18</title>
<path fill="none" stroke="#191970" d="M902.3505,-425.4581C855.2354,-415.5008 780.7487,-399.7588 726.1009,-388.2095"/>
<polygon fill="#191970" stroke="#191970" points="726.6465,-384.7475 716.1388,-386.1041 725.199,-391.5963 726.6465,-384.7475"/>
</g>
<!-- Node2 -->
<g id="node3" class="node">
<title>Node2</title>
<g id="a_node3"><a xlink:href="$fold__compound_8h.html" xlink:title="The Basic Fold Compound API.">
<polygon fill="none" stroke="#000000" points="583.5,-302.5 583.5,-321.5 729.5,-321.5 729.5,-302.5 583.5,-302.5"/>
<text text-anchor="middle" x="656.5" y="-309.5" font-family="Helvetica,sans-Serif" font-size="10.00" fill="#000000">ViennaRNA/fold_compound.h</text>
</a>
</g>
</g>
<!-- Node1&#45;&gt;Node2 -->
<g id="edge2" class="edge">
<title>Node1&#45;&gt;Node2</title>
<path fill="none" stroke="#191970" d="M887.9096,-360.9062C836.2625,-349.991 762.1156,-334.3208 711.7746,-323.6817"/>
<polygon fill="#191970" stroke="#191970" points="712.2318,-320.2011 701.7242,-321.5577 710.7844,-327.0499 712.2318,-320.2011"/>
</g>
<!-- Node3 -->
<g id="node4" class="node">
<title>Node3</title>
<g id="a_node4"><a xlink:href="$model_8h.html" xlink:title="The model details data structure and its corresponding modifiers.">
<polygon fill="none" stroke="#000000" points="411.5,-118 411.5,-137 517.5,-137 517.5,-118 411.5,-118"/>
<text text-anchor="middle" x="464.5" y="-125" font-family="Helvetica,sans-Serif" font-size="10.00" fill="#000000">ViennaRNA/model.h</text>
</a>
</g>
</g>
<!-- Node2&#45;&gt;Node3 -->
<g id="edge3" class="edge">
<title>Node2&#45;&gt;Node3</title>
<path fill="none" stroke="#191970" d="M583.3144,-306.309C527.2858,-300.2526 456.6213,-288.3441 438.5,-266 410.117,-231.0029 436.0323,-174.6741 452.8072,-145.8228"/>
<polygon fill="#191970" stroke="#191970" points="455.8659,-147.5288 458.054,-137.1623 449.8789,-143.9016 455.8659,-147.5288"/>
</g>
<!-- Node4 -->
<g id="node5" class="node">
<title>Node4</title>
<g id="a_node5"><a xlink:href="$params_2basic_8h.html" xlink:title="Functions to deal with sets of energy parameters.">
<polygon fill="none" stroke="#000000" points="587.5,-246.5 587.5,-265.5 725.5,-265.5 725.5,-246.5 587.5,-246.5"/>
<text text-anchor="middle" x="656.5" y="-253.5" font-family="Helvetica,sans-Serif" font-size="10.00" fill="#000000">ViennaRNA/params/basic.h</text>
</a>
</g>
</g>
<!-- Node2&#45;&gt;Node4 -->
<g id="edge4" class="edge">
<title>Node2&#45;&gt;Node4</title>
<path fill="none" stroke="#191970" d="M651.2332,-302.2455C649.8221,-294.9382 649.4179,-284.6944 650.0205,-275.7046"/>
<polygon fill="#191970" stroke="#191970" points="653.5111,-275.9945 651.2549,-265.6427 646.5632,-275.1421 653.5111,-275.9945"/>
</g>
<!-- Node8 -->
<g id="node9" class="node">
<title>Node8</title>
<g id="a_node9"><a xlink:href="$dp__matrices_8h.html" xlink:title="Functions to deal with standard dynamic programming (DP) matrices.">
<polygon fill="none" stroke="#000000" points="768,-118 768,-137 901,-137 901,-118 768,-118"/>
<text text-anchor="middle" x="834.5" y="-125" font-family="Helvetica,sans-Serif" font-size="10.00" fill="#000000">ViennaRNA/dp_matrices.h</text>
</a>
</g>
</g>
<!-- Node2&#45;&gt;Node8 -->
<g id="edge36" class="edge">
<title>Node2&#45;&gt;Node8</title>
<path fill="none" stroke="#191970" d="M678.6155,-302.4699C697.1213,-294.9587 722.9905,-282.9129 741.5,-266 779.5702,-231.2136 806.2013,-175.1968 821.5549,-146.2148"/>
<polygon fill="#191970" stroke="#191970" points="824.7755,-147.6211 826.5157,-137.1701 818.638,-144.2548 824.7755,-147.6211"/>
</g>
<!-- Node2&#45;&gt;Node9 -->
<g id="edge37" class="edge">
<title>Node2&#45;&gt;Node9</title>
<path fill="none" stroke="#191970" d="M682.0091,-302.4996C706.1442,-294.4289 742.596,-281.6709 772.5,-266 838.2566,-231.541 907.5734,-178.2496 946.8777,-148.8306"/>
<polygon fill="#191970" stroke="#191970" points="949.336,-151.3638 955.2659,-142.5838 945.1551,-145.7495 949.336,-151.3638"/>
</g>
<!-- Node2&#45;&gt;Node10 -->
<g id="edge38" class="edge">
<title>Node2&#45;&gt;Node10</title>
<path fill="none" stroke="#191970" d="M690.2758,-302.4955C722.0777,-294.2515 770.4821,-281.2617 811.5,-266 907.19,-230.3963 1014.5568,-176.1684 1072.744,-147.2635"/>
<polygon fill="#191970" stroke="#191970" points="1074.5884,-150.2558 1081.9941,-142.6791 1071.4799,-143.9838 1074.5884,-150.2558"/>
</g>
<!-- Node11 -->
<g id="node12" class="node">
<title>Node11</title>
<g id="a_node12"><a xlink:href="$grammar_8h.html" xlink:title="Implementations for the RNA folding grammar.">
<polygon fill="none" stroke="#000000" points="0,-118 0,-137 117,-137 117,-118 0,-118"/>
<text text-anchor="middle" x="58.5" y="-125" font-family="Helvetica,sans-Serif" font-size="10.00" fill="#000000">ViennaRNA/grammar.h</text>
</a>
</g>
</g>
<!-- Node2&#45;&gt;Node11 -->
<g id="edge39" class="edge">
<title>Node2&#45;&gt;Node11</title>
<path fill="none" stroke="#191970" d="M583.3754,-307.2618C519.768,-301.5905 425.9298,-289.7128 347.5,-266 241.7444,-234.0254 125.4594,-171.1692 78.991,-142.4516"/>
<polygon fill="#191970" stroke="#191970" points="80.7299,-139.4101 70.4073,-137.0235 76.9886,-145.3264 80.7299,-139.4101"/>
</g>
<!-- Node12 -->
<g id="node13" class="node">
<title>Node12</title>
<g id="a_node13"><a xlink:href="$structured__domains_8h.html" xlink:title="This module provides interfaces that deal with additional structured domains in the folding grammar.">
<polygon fill="none" stroke="#000000" points="135,-112.5 135,-142.5 250,-142.5 250,-112.5 135,-112.5"/>
<text text-anchor="start" x="143" y="-130.5" font-family="Helvetica,sans-Serif" font-size="10.00" fill="#000000">ViennaRNA/structured</text>
<text text-anchor="middle" x="192.5" y="-119.5" font-family="Helvetica,sans-Serif" font-size="10.00" fill="#000000">_domains.h</text>
</a>
</g>
</g>
<!-- Node2&#45;&gt;Node12 -->
<g id="edge40" class="edge">
<title>Node2&#45;&gt;Node12</title>
<path fill="none" stroke="#191970" d="M583.3913,-306.9651C530.7151,-301.4337 458.7713,-289.9072 399.5,-266 327.3613,-236.9027 254.3905,-180.3074 217.3795,-149.229"/>
<polygon fill="#191970" stroke="#191970" points="219.5038,-146.4413 209.615,-142.6383 214.9739,-151.778 219.5038,-146.4413"/>
</g>
<!-- Node13 -->
<g id="node14" class="node">
<title>Node13</title>
<g id="a_node14"><a xlink:href="$unstructured__domains_8h.html" xlink:title="Functions to modify unstructured domains, e.g. to incorporate ligands binding to unpaired stretches.">
<polygon fill="none" stroke="#000000" points="268,-112.5 268,-142.5 393,-142.5 393,-112.5 268,-112.5"/>
<text text-anchor="start" x="276" y="-130.5" font-family="Helvetica,sans-Serif" font-size="10.00" fill="#000000">ViennaRNA/unstructured</text>
<text text-anchor="middle" x="330.5" y="-119.5" font-family="Helvetica,sans-Serif" font-size="10.00" fill="#000000">_domains.h</text>
</a>
</g>
</g>
<!-- Node2&#45;&gt;Node13 -->
<g id="edge41" class="edge">
<title>Node2&#45;&gt;Node13</title>
<path fill="none" stroke="#191970" d="M583.228,-304.4286C522.8241,-296.7589 443.0828,-283.5332 416.5,-266 374.2942,-238.1624 345.6788,-184.4938 334.4035,-152.7583"/>
<polygon fill="#191970" stroke="#191970" points="337.6318,-151.3627 331.2499,-142.9057 330.965,-153.4967 337.6318,-151.3627"/>
</g>
<!-- Node16 -->
<g id="node17" class="node">
<title>Node16</title>
<g id="a_node17"><a xlink:href="$sequence_8h.html" xlink:title="Functions and data structures related to sequence representations ,.">
<polygon fill="none" stroke="#000000" points="447.5,-246.5 447.5,-265.5 569.5,-265.5 569.5,-246.5 447.5,-246.5"/>
<text text-anchor="middle" x="508.5" y="-253.5" font-family="Helvetica,sans-Serif" font-size="10.00" fill="#000000">ViennaRNA/sequence.h</text>
</a>
</g>
</g>
<!-- Node2&#45;&gt;Node16 -->
<g id="edge34" class="edge">
<title>Node2&#45;&gt;Node16</title>
<path fill="none" stroke="#191970" d="M625.8159,-302.3733C599.9561,-293.2629 563.3969,-279.5062 537.9074,-269.3404"/>
<polygon fill="#191970" stroke="#191970" points="538.976,-265.9974 528.3928,-265.5011 536.3566,-272.4889 538.976,-265.9974"/>
</g>
<!-- Node4&#45;&gt;Node2 -->
<g id="edge32" class="edge">
<title>Node4&#45;&gt;Node2</title>
<path fill="none" stroke="#191970" d="M661.7451,-265.6427C663.1665,-272.9199 663.581,-283.155 662.9887,-292.1575"/>
<polygon fill="#191970" stroke="#191970" points="659.4947,-291.8972 661.7668,-302.2455 666.4439,-292.739 659.4947,-291.8972"/>
</g>
<!-- Node4&#45;&gt;Node3 -->
<g id="edge33" class="edge">
<title>Node4&#45;&gt;Node3</title>
<path fill="none" stroke="#191970" d="M607.8028,-246.4986C567.9497,-237.8774 515.6244,-224.3515 499.5,-210 481.0412,-193.5707 472.0145,-165.7714 467.8215,-147.0345"/>
<polygon fill="#191970" stroke="#191970" points="471.2509,-146.3346 465.8764,-137.2042 464.3841,-147.6934 471.2509,-146.3346"/>
</g>
<!-- Node5 -->
<g id="node6" class="node">
<title>Node5</title>
<g id="a_node6"><a xlink:href="$constants_8h.html" xlink:title="Energy parameter constants.">
<polygon fill="none" stroke="#000000" points="591.5,-118 591.5,-137 749.5,-137 749.5,-118 591.5,-118"/>
<text text-anchor="middle" x="670.5" y="-125" font-family="Helvetica,sans-Serif" font-size="10.00" fill="#000000">ViennaRNA/params/constants.h</text>
</a>
</g>
</g>
<!-- Node4&#45;&gt;Node5 -->
<g id="edge5" class="edge">
<title>Node4&#45;&gt;Node5</title>
<path fill="none" stroke="#191970" d="M657.5523,-246.3416C659.8326,-225.4114 665.27,-175.504 668.3236,-147.4762"/>
<polygon fill="#191970" stroke="#191970" points="671.8318,-147.5907 669.4355,-137.2705 664.8729,-146.8325 671.8318,-147.5907"/>
</g>
<!-- Node7 -->
<g id="node8" class="node">
<title>Node7</title>
<g id="a_node8"><a xlink:href="$datastructures_2basic_8h.html" xlink:title="Various data structures and pre&#45;processor macros.">
<polygon fill="none" stroke="#000000" points="508.5,-179.5 508.5,-209.5 642.5,-209.5 642.5,-179.5 508.5,-179.5"/>
<text text-anchor="start" x="516.5" y="-197.5" font-family="Helvetica,sans-Serif" font-size="10.00" fill="#000000">ViennaRNA/datastructures</text>
<text text-anchor="middle" x="575.5" y="-186.5" font-family="Helvetica,sans-Serif" font-size="10.00" fill="#000000">/basic.h</text>
</a>
</g>
</g>
<!-- Node4&#45;&gt;Node7 -->
<g id="edge7" class="edge">
<title>Node4&#45;&gt;Node7</title>
<path fill="none" stroke="#191970" d="M638.7813,-246.3906C626.5445,-238.2986 610.4296,-226.4207 597.4346,-216.0705"/>
<polygon fill="#191970" stroke="#191970" points="599.3827,-213.1432 589.4177,-209.5446 594.9636,-218.572 599.3827,-213.1432"/>
</g>
<!-- Node6 -->
<g id="node7" class="node">
<title>Node6</title>
<g id="a_node7"><a xlink:title=" ">
<polygon fill="none" stroke="#bfbfbf" points="646.5,-56.5 646.5,-75.5 694.5,-75.5 694.5,-56.5 646.5,-56.5"/>
<text text-anchor="middle" x="670.5" y="-63.5" font-family="Helvetica,sans-Serif" font-size="10.00" fill="#000000">limits.h</text>
</a>
</g>
</g>
<!-- Node5&#45;&gt;Node6 -->
<g id="edge6" class="edge">
<title>Node5&#45;&gt;Node6</title>
<path fill="none" stroke="#191970" d="M670.5,-117.8906C670.5,-109.3657 670.5,-96.6392 670.5,-85.9235"/>
<polygon fill="#191970" stroke="#191970" points="674.0001,-85.7448 670.5,-75.7449 667.0001,-85.7449 674.0001,-85.7448"/>
</g>
<!-- Node7&#45;&gt;Node2 -->
<g id="edge9" class="edge">
<title>Node7&#45;&gt;Node2</title>
<path fill="none" stroke="#191970" d="M642.9154,-208.0381C680.9972,-217.2038 723.1937,-230.4534 734.5,-246 750.1326,-267.4956 720.7461,-286.4381 693.6837,-298.4525"/>
<polygon fill="#191970" stroke="#191970" points="692.1463,-295.3021 684.286,-302.406 694.8607,-301.7544 692.1463,-295.3021"/>
</g>
<!-- Node7&#45;&gt;Node3 -->
<g id="edge10" class="edge">
<title>Node7&#45;&gt;Node3</title>
<path fill="none" stroke="#191970" d="M550.5894,-179.4639C532.2167,-168.3741 507.34,-153.3584 489.0526,-142.32"/>
<polygon fill="#191970" stroke="#191970" points="490.781,-139.2751 480.411,-137.1039 487.1636,-145.268 490.781,-139.2751"/>
</g>
<!-- Node7&#45;&gt;Node4 -->
<g id="edge11" class="edge">
<title>Node7&#45;&gt;Node4</title>
<path fill="none" stroke="#191970" d="M601.2119,-209.5446C614.3625,-218.7014 629.8127,-230.398 641.1472,-239.7637"/>
<polygon fill="#191970" stroke="#191970" points="639.0291,-242.5575 648.9063,-246.3906 643.5753,-237.2346 639.0291,-242.5575"/>
</g>
<!-- Node7&#45;&gt;Node5 -->
<g id="edge8" class="edge">
<title>Node7&#45;&gt;Node5</title>
<path fill="none" stroke="#191970" d="M597.057,-179.2967C612.4332,-168.4524 633.0414,-153.9182 648.5138,-143.006"/>
<polygon fill="#191970" stroke="#191970" points="650.797,-145.6787 656.9519,-137.055 646.7626,-139.9582 650.797,-145.6787"/>
</g>
<!-- Node7&#45;&gt;Node8 -->
<g id="edge12" class="edge">
<title>Node7&#45;&gt;Node8</title>
<path fill="none" stroke="#191970" d="M627.8841,-179.4639C673.135,-167.3761 738.0364,-150.624 783.0248,-139.4423"/>
<polygon fill="#191970" stroke="#191970" points="784.0069,-142.8049 792.8734,-137.0053 782.3255,-136.0099 784.0069,-142.8049"/>
</g>
<!-- Node7&#45;&gt;Node9 -->
<g id="edge15" class="edge">
<title>Node7&#45;&gt;Node9</title>
<path fill="none" stroke="#191970" d="M642.7975,-185.5973C708.3625,-176.5966 811.0624,-161.6332 908.7964,-143.2567"/>
<polygon fill="#191970" stroke="#191970" points="909.6736,-146.6529 918.8466,-141.3514 908.3697,-139.7754 909.6736,-146.6529"/>
</g>
<!-- Node7&#45;&gt;Node10 -->
<g id="edge18" class="edge">
<title>Node7&#45;&gt;Node10</title>
<path fill="none" stroke="#191970" d="M642.7786,-189.1217C733.1933,-181.7028 898.4741,-166.5172 1038.5,-143 1040.9554,-142.5876 1043.4551,-142.1415 1045.9807,-141.6697"/>
<polygon fill="#191970" stroke="#191970" points="1046.6739,-145.1005 1055.8124,-139.7397 1045.3255,-138.2316 1046.6739,-145.1005"/>
</g>
<!-- Node7&#45;&gt;Node11 -->
<g id="edge22" class="edge">
<title>Node7&#45;&gt;Node11</title>
<path fill="none" stroke="#191970" d="M508.4507,-189.2175C420.2272,-181.7213 260.5312,-166.2689 125.5,-143 119.2458,-141.9223 112.7001,-140.6238 106.2537,-139.2428"/>
<polygon fill="#191970" stroke="#191970" points="106.7824,-135.775 96.2615,-137.0244 105.2652,-142.6086 106.7824,-135.775"/>
</g>
<!-- Node7&#45;&gt;Node12 -->
<g id="edge24" class="edge">
<title>Node7&#45;&gt;Node12</title>
<path fill="none" stroke="#191970" d="M508.4667,-184.9944C446.3998,-175.8781 351.3353,-161.1188 260.0081,-143.2301"/>
<polygon fill="#191970" stroke="#191970" points="260.5302,-139.7657 250.0416,-141.2624 259.1743,-146.6332 260.5302,-139.7657"/>
</g>
<!-- Node7&#45;&gt;Node13 -->
<g id="edge25" class="edge">
<title>Node7&#45;&gt;Node13</title>
<path fill="none" stroke="#191970" d="M514.7767,-179.4639C476.6335,-169.3701 427.7272,-156.024 389.8489,-145.3848"/>
<polygon fill="#191970" stroke="#191970" points="390.5486,-141.9457 379.9741,-142.6017 388.6496,-148.6832 390.5486,-141.9457"/>
</g>
<!-- Node14 -->
<g id="node15" class="node">
<title>Node14</title>
<g id="a_node15"><a xlink:href="$utils_2structures_8h.html" xlink:title="Various utility&#45; and helper&#45;functions for secondary structure parsing, converting,...">
<polygon fill="none" stroke="#000000" points="482.5,-56.5 482.5,-75.5 626.5,-75.5 626.5,-56.5 482.5,-56.5"/>
<text text-anchor="middle" x="554.5" y="-63.5" font-family="Helvetica,sans-Serif" font-size="10.00" fill="#000000">ViennaRNA/utils/structures.h</text>
</a>
</g>
</g>
<!-- Node7&#45;&gt;Node14 -->
<g id="edge31" class="edge">
<title>Node7&#45;&gt;Node14</title>
<path fill="none" stroke="#191970" d="M568.454,-179.2548C561.8931,-155.9744 554.4739,-111.5607 552.7002,-85.8117"/>
<polygon fill="#191970" stroke="#191970" points="556.1944,-85.5908 552.3048,-75.7358 549.1998,-85.8654 556.1944,-85.5908"/>
</g>
<!-- Node8&#45;&gt;Node2 -->
<g id="edge14" class="edge">
<title>Node8&#45;&gt;Node2</title>
<path fill="none" stroke="#191970" d="M835.2726,-137.1701C830.3221,-161.6924 802.0588,-227.1122 759.5,-266 743.6657,-280.4685 722.4454,-291.375 703.2912,-298.9279"/>
<polygon fill="#191970" stroke="#191970" points="701.9419,-295.6956 693.7958,-302.4699 704.3885,-302.2542 701.9419,-295.6956"/>
</g>
<!-- Node8&#45;&gt;Node7 -->
<g id="edge13" class="edge">
<title>Node8&#45;&gt;Node7</title>
<path fill="none" stroke="#191970" d="M802.638,-137.0053C764.5881,-147.3723 699.9515,-164.1907 649.2975,-176.9659"/>
<polygon fill="#191970" stroke="#191970" points="648.2095,-173.6305 639.3652,-179.4639 649.9169,-180.419 648.2095,-173.6305"/>
</g>
<!-- Node9&#45;&gt;Node1 -->
<g id="edge17" class="edge">
<title>Node9&#45;&gt;Node1</title>
<path fill="none" stroke="#191970" d="M976.5929,-142.6341C971.4196,-183.6867 957.0804,-297.4745 950.669,-348.3521"/>
<polygon fill="#191970" stroke="#191970" points="947.1703,-348.1227 949.3925,-358.4819 954.1154,-348.998 947.1703,-348.1227"/>
</g>
<!-- Node9&#45;&gt;Node2 -->
<g id="edge16" class="edge">
<title>Node9&#45;&gt;Node2</title>
<path fill="none" stroke="#191970" d="M965.7902,-142.5838C936.0787,-170.081 861.2298,-228.9348 790.5,-266 763.9835,-279.8957 732.3188,-291.5011 706.3301,-299.579"/>
<polygon fill="#191970" stroke="#191970" points="705.2293,-296.2552 696.6702,-302.4996 707.2552,-302.9557 705.2293,-296.2552"/>
</g>
<!-- Node10&#45;&gt;Node1 -->
<g id="edge21" class="edge">
<title>Node10&#45;&gt;Node1</title>
<path fill="none" stroke="#191970" d="M1105.1645,-142.6341C1076.8347,-184.1171 997.7853,-299.868 963.5958,-349.9312"/>
<polygon fill="#191970" stroke="#191970" points="960.5056,-348.25 957.7563,-358.4819 966.2862,-352.1978 960.5056,-348.25"/>
</g>
<!-- Node10&#45;&gt;Node2 -->
<g id="edge20" class="edge">
<title>Node10&#45;&gt;Node2</title>
<path fill="none" stroke="#191970" d="M1092.577,-142.6791C1044.5472,-170.0729 930.5171,-228.4142 829.5,-266 792.1673,-279.8905 748.7157,-291.8991 714.6097,-300.1604"/>
<polygon fill="#191970" stroke="#191970" points="713.7157,-296.7753 704.7977,-302.4955 715.3364,-303.5851 713.7157,-296.7753"/>
</g>
<!-- Node10&#45;&gt;Node7 -->
<g id="edge19" class="edge">
<title>Node10&#45;&gt;Node7</title>
<path fill="none" stroke="#191970" d="M1059.3843,-142.5038C1058.4173,-142.674 1057.4553,-142.8396 1056.5,-143 915.3182,-166.7114 748.4629,-181.9529 652.9348,-189.3039"/>
<polygon fill="#191970" stroke="#191970" points="652.4871,-185.8277 642.7813,-190.076 653.0179,-192.8076 652.4871,-185.8277"/>
</g>
<!-- Node11&#45;&gt;Node2 -->
<g id="edge23" class="edge">
<title>Node11&#45;&gt;Node2</title>
<path fill="none" stroke="#191970" d="M78.8911,-137.0235C127.3868,-162.3618 252.4586,-231.8225 365.5,-266 434.0384,-286.7222 514.3438,-298.4063 573.2661,-304.8086"/>
<polygon fill="#191970" stroke="#191970" points="572.9584,-308.2955 583.2712,-305.8674 573.6951,-301.3343 572.9584,-308.2955"/>
</g>
<!-- Node13&#45;&gt;Node2 -->
<g id="edge27" class="edge">
<title>Node13&#45;&gt;Node2</title>
<path fill="none" stroke="#191970" d="M341.5369,-142.9057C357.383,-172.0299 387.5231,-235.0155 434.5,-266 457.5091,-281.1761 520.3446,-293.125 573.3655,-301.0371"/>
<polygon fill="#191970" stroke="#191970" points="573.0802,-304.5325 583.4814,-302.5164 574.0931,-297.6062 573.0802,-304.5325"/>
</g>
<!-- Node13&#45;&gt;Node7 -->
<g id="edge26" class="edge">
<title>Node13&#45;&gt;Node7</title>
<path fill="none" stroke="#191970" d="M391.4711,-142.6017C429.6608,-152.7095 478.5664,-166.0568 516.3968,-176.6842"/>
<polygon fill="#191970" stroke="#191970" points="515.6832,-180.1194 526.2577,-179.4639 517.5825,-173.382 515.6832,-180.1194"/>
</g>
<!-- Node13&#45;&gt;Node14 -->
<g id="edge28" class="edge">
<title>Node13&#45;&gt;Node14</title>
<path fill="none" stroke="#191970" d="M385.2966,-112.4554C423.6551,-101.9239 474.2505,-88.0328 510.0924,-78.1923"/>
<polygon fill="#191970" stroke="#191970" points="511.0715,-81.5531 519.788,-75.5303 509.2181,-74.8028 511.0715,-81.5531"/>
</g>
<!-- Node14&#45;&gt;Node7 -->
<g id="edge30" class="edge">
<title>Node14&#45;&gt;Node7</title>
<path fill="none" stroke="#191970" d="M559.8773,-75.7358C566.3568,-95.4362 574.3049,-140.5797 576.8615,-169.1876"/>
<polygon fill="#191970" stroke="#191970" points="573.3763,-169.5223 577.5631,-179.2548 580.3593,-169.0356 573.3763,-169.5223"/>
</g>
<!-- Node15 -->
<g id="node16" class="node">
<title>Node15</title>
<g id="a_node16"><a xlink:title=" ">
<polygon fill="none" stroke="#bfbfbf" points="531.5,-.5 531.5,-19.5 577.5,-19.5 577.5,-.5 531.5,-.5"/>
<text text-anchor="middle" x="554.5" y="-7.5" font-family="Helvetica,sans-Serif" font-size="10.00" fill="#000000">stdio.h</text>
</a>
</g>
</g>
<!-- Node14&#45;&gt;Node15 -->
<g id="edge29" class="edge">
<title>Node14&#45;&gt;Node15</title>
<path fill="none" stroke="#191970" d="M554.5,-56.2455C554.5,-48.9382 554.5,-38.6944 554.5,-29.7046"/>
<polygon fill="#191970" stroke="#191970" points="558.0001,-29.6426 554.5,-19.6427 551.0001,-29.6427 558.0001,-29.6426"/>
</g>
<!-- Node16&#45;&gt;Node2 -->
<g id="edge35" class="edge">
<title>Node16&#45;&gt;Node2</title>
<path fill="none" stroke="#191970" d="M538.8274,-265.5011C564.5881,-274.5685 601.1486,-288.3201 626.7396,-298.5189"/>
<polygon fill="#191970" stroke="#191970" points="625.7166,-301.8801 636.2999,-302.3733 628.334,-295.3879 625.7166,-301.8801"/>
</g>
<!-- Node17&#45;&gt;Node2 -->
<g id="edge45" class="edge">
<title>Node17&#45;&gt;Node2</title>
<path fill="none" stroke="#191970" d="M766.7844,-358.4554C742.8513,-348.374 711.6095,-335.2139 688.4906,-325.4755"/>
<polygon fill="#191970" stroke="#191970" points="689.6993,-322.1868 679.1248,-321.5303 686.9819,-328.6379 689.6993,-322.1868"/>
</g>
<!-- Node18&#45;&gt;Node2 -->
<g id="edge48" class="edge">
<title>Node18&#45;&gt;Node2</title>
<path fill="none" stroke="#191970" d="M656.5,-358.2977C656.5,-350.3834 656.5,-340.6043 656.5,-332.0759"/>
<polygon fill="#191970" stroke="#191970" points="660.0001,-331.8469 656.5,-321.8469 653.0001,-331.847 660.0001,-331.8469"/>
</g>
<!-- Node18&#45;&gt;Node7 -->
<g id="edge47" class="edge">
<title>Node18&#45;&gt;Node7</title>
<path fill="none" stroke="#191970" d="M596.8506,-362.2491C544.9697,-348.9679 472.8733,-321.2754 438.5,-266 419.6125,-235.6272 457.5484,-217.4982 498.2479,-207.0977"/>
<polygon fill="#191970" stroke="#191970" points="499.1544,-210.4796 508.0618,-204.7429 497.5212,-203.6728 499.1544,-210.4796"/>
</g>
</g>
</svg>
