<?xml version="1.0" encoding="UTF-8" standalone="no"?>
<!DOCTYPE svg PUBLIC "-//W3C//DTD SVG 1.1//EN"
 "http://www.w3.org/Graphics/SVG/1.1/DTD/svg11.dtd">
<!-- Generated by graphviz version 2.40.1 (0)
 -->
<!-- Title: ViennaRNA/constraints_soft.h Pages: 1 -->
<svg width="1264pt" height="419pt"
 viewBox="0.00 0.00 1264.33 419.00" xmlns="http://www.w3.org/2000/svg" xmlns:xlink="http://www.w3.org/1999/xlink">
<g id="graph0" class="graph" transform="scale(1 1) rotate(0) translate(4 415)">
<title>ViennaRNA/constraints_soft.h</title>
<!-- Node0 -->
<g id="node1" class="node">
<title>Node0</title>
<g id="a_node1"><a xlink:title="Use ViennaRNA/constraints/soft.h instead.">
<polygon fill="#bfbfbf" stroke="#000000" points="519.8305,-380.5 519.8305,-410.5 638.8305,-410.5 638.8305,-380.5 519.8305,-380.5"/>
<text text-anchor="start" x="527.8305" y="-398.5" font-family="Helvetica,sans-Serif" font-size="10.00" fill="#000000">ViennaRNA/constraints</text>
<text text-anchor="middle" x="579.3305" y="-387.5" font-family="Helvetica,sans-Serif" font-size="10.00" fill="#000000">_soft.h</text>
</a>
</g>
</g>
<!-- Node1 -->
<g id="node2" class="node">
<title>Node1</title>
<g id="a_node2"><a xlink:href="$soft_8h.html" xlink:title="Functions and data structures for secondary structure soft constraints.">
<polygon fill="none" stroke="#000000" points="519.8305,-313.5 519.8305,-343.5 638.8305,-343.5 638.8305,-313.5 519.8305,-313.5"/>
<text text-anchor="start" x="527.8305" y="-331.5" font-family="Helvetica,sans-Serif" font-size="10.00" fill="#000000">ViennaRNA/constraints</text>
<text text-anchor="middle" x="579.3305" y="-320.5" font-family="Helvetica,sans-Serif" font-size="10.00" fill="#000000">/soft.h</text>
</a>
</g>
</g>
<!-- Node0&#45;&gt;Node1 -->
<g id="edge1" class="edge">
<title>Node0&#45;&gt;Node1</title>
<path fill="none" stroke="#191970" d="M579.3305,-380.2967C579.3305,-372.5013 579.3305,-362.7991 579.3305,-353.9064"/>
<polygon fill="#191970" stroke="#191970" points="582.8306,-353.6431 579.3305,-343.6432 575.8306,-353.6432 582.8306,-353.6431"/>
</g>
<!-- Node2 -->
<g id="node3" class="node">
<title>Node2</title>
<g id="a_node3"><a xlink:href="$datastructures_2basic_8h.html" xlink:title="Various data structures and pre&#45;processor macros.">
<polygon fill="none" stroke="#000000" points="713.3305,-246.5 713.3305,-276.5 847.3305,-276.5 847.3305,-246.5 713.3305,-246.5"/>
<text text-anchor="start" x="721.3305" y="-264.5" font-family="Helvetica,sans-Serif" font-size="10.00" fill="#000000">ViennaRNA/datastructures</text>
<text text-anchor="middle" x="780.3305" y="-253.5" font-family="Helvetica,sans-Serif" font-size="10.00" fill="#000000">/basic.h</text>
</a>
</g>
</g>
<!-- Node1&#45;&gt;Node2 -->
<g id="edge2" class="edge">
<title>Node1&#45;&gt;Node2</title>
<path fill="none" stroke="#191970" d="M618.6983,-313.4639C647.3758,-303.499 686.6636,-290.3642 719.3603,-279.7936"/>
<polygon fill="#191970" stroke="#191970" points="720.8303,-282.9973 729.277,-276.6017 718.6855,-276.334 720.8303,-282.9973"/>
</g>
<!-- Node5 -->
<g id="node6" class="node">
<title>Node5</title>
<g id="a_node6"><a xlink:href="$fold__compound_8h.html" xlink:title="The Basic Fold Compound API.">
<polygon fill="none" stroke="#000000" points="506.3305,-190.5 506.3305,-209.5 652.3305,-209.5 652.3305,-190.5 506.3305,-190.5"/>
<text text-anchor="middle" x="579.3305" y="-197.5" font-family="Helvetica,sans-Serif" font-size="10.00" fill="#000000">ViennaRNA/fold_compound.h</text>
</a>
</g>
</g>
<!-- Node1&#45;&gt;Node5 -->
<g id="edge40" class="edge">
<title>Node1&#45;&gt;Node5</title>
<path fill="none" stroke="#191970" d="M574.776,-313.2548C572.0197,-289.9744 571.8587,-245.5607 574.2931,-219.8117"/>
<polygon fill="#191970" stroke="#191970" points="577.7852,-220.0909 575.5443,-209.7358 570.8386,-219.2282 577.7852,-220.0909"/>
</g>
<!-- Node11 -->
<g id="node12" class="node">
<title>Node11</title>
<g id="a_node12"><a xlink:href="$constraints_2basic_8h.html" xlink:title="Functions and data structures for constraining secondary structure predictions and evaluation.">
<polygon fill="none" stroke="#000000" points="166.8305,-56.5 166.8305,-86.5 285.8305,-86.5 285.8305,-56.5 166.8305,-56.5"/>
<text text-anchor="start" x="174.8305" y="-74.5" font-family="Helvetica,sans-Serif" font-size="10.00" fill="#000000">ViennaRNA/constraints</text>
<text text-anchor="middle" x="226.3305" y="-63.5" font-family="Helvetica,sans-Serif" font-size="10.00" fill="#000000">/basic.h</text>
</a>
</g>
</g>
<!-- Node1&#45;&gt;Node11 -->
<g id="edge41" class="edge">
<title>Node1&#45;&gt;Node11</title>
<path fill="none" stroke="#191970" d="M519.7147,-319.3852C385.9041,-297.5837 68.5025,-237.9248 6.3305,-154 -1.8708,-142.9291 -2.2298,-133.7957 6.3305,-123 24.8965,-99.586 99.283,-85.8005 156.4738,-78.4759"/>
<polygon fill="#191970" stroke="#191970" points="157.0792,-81.9277 166.5735,-77.2257 156.2193,-74.9807 157.0792,-81.9277"/>
</g>
<!-- Node2&#45;&gt;Node1 -->
<g id="edge35" class="edge">
<title>Node2&#45;&gt;Node1</title>
<path fill="none" stroke="#191970" d="M740.774,-276.6017C712.0501,-286.5805 672.7535,-299.7165 640.0858,-310.2759"/>
<polygon fill="#191970" stroke="#191970" points="638.6264,-307.0687 630.1794,-313.4639 640.7708,-313.7322 638.6264,-307.0687"/>
</g>
<!-- Node3 -->
<g id="node4" class="node">
<title>Node3</title>
<g id="a_node4"><a xlink:href="$constants_8h.html" xlink:title="Energy parameter constants.">
<polygon fill="none" stroke="#000000" points="892.3305,-62 892.3305,-81 1050.3305,-81 1050.3305,-62 892.3305,-62"/>
<text text-anchor="middle" x="971.3305" y="-69" font-family="Helvetica,sans-Serif" font-size="10.00" fill="#000000">ViennaRNA/params/constants.h</text>
</a>
</g>
</g>
<!-- Node2&#45;&gt;Node3 -->
<g id="edge3" class="edge">
<title>Node2&#45;&gt;Node3</title>
<path fill="none" stroke="#191970" d="M839.3358,-246.4619C885.0827,-231.3585 945.4032,-203.1009 974.3305,-154 985.5967,-134.8769 982.1349,-108.7007 977.6409,-91.0021"/>
<polygon fill="#191970" stroke="#191970" points="980.9553,-89.8627 974.8318,-81.2166 974.227,-91.7942 980.9553,-89.8627"/>
</g>
<!-- Node2&#45;&gt;Node5 -->
<g id="edge5" class="edge">
<title>Node2&#45;&gt;Node5</title>
<path fill="none" stroke="#191970" d="M731.1604,-246.4554C697.1817,-236.059 652.5024,-222.3884 620.4219,-212.5727"/>
<polygon fill="#191970" stroke="#191970" points="621.0649,-209.1094 610.4784,-209.5303 619.0168,-215.803 621.0649,-209.1094"/>
</g>
<!-- Node6 -->
<g id="node7" class="node">
<title>Node6</title>
<g id="a_node7"><a xlink:href="$model_8h.html" xlink:title="The model details data structure and its corresponding modifiers.">
<polygon fill="none" stroke="#000000" points="746.3305,-62 746.3305,-81 852.3305,-81 852.3305,-62 746.3305,-62"/>
<text text-anchor="middle" x="799.3305" y="-69" font-family="Helvetica,sans-Serif" font-size="10.00" fill="#000000">ViennaRNA/model.h</text>
</a>
</g>
</g>
<!-- Node2&#45;&gt;Node6 -->
<g id="edge31" class="edge">
<title>Node2&#45;&gt;Node6</title>
<path fill="none" stroke="#191970" d="M781.8533,-246.2727C785.2689,-212.1167 793.5397,-129.408 797.3492,-91.313"/>
<polygon fill="#191970" stroke="#191970" points="800.8655,-91.3245 798.3779,-81.0258 793.9002,-90.6279 800.8655,-91.3245"/>
</g>
<!-- Node7 -->
<g id="node8" class="node">
<title>Node7</title>
<g id="a_node8"><a xlink:href="$params_2basic_8h.html" xlink:title="Functions to deal with sets of energy parameters.">
<polygon fill="none" stroke="#000000" points="827.3305,-129 827.3305,-148 965.3305,-148 965.3305,-129 827.3305,-129"/>
<text text-anchor="middle" x="896.3305" y="-136" font-family="Helvetica,sans-Serif" font-size="10.00" fill="#000000">ViennaRNA/params/basic.h</text>
</a>
</g>
</g>
<!-- Node2&#45;&gt;Node7 -->
<g id="edge32" class="edge">
<title>Node2&#45;&gt;Node7</title>
<path fill="none" stroke="#191970" d="M789.9402,-246.4178C808.9882,-223.2638 850.558,-179.1238 875.893,-155.0928"/>
<polygon fill="#191970" stroke="#191970" points="878.54,-157.4119 883.499,-148.0493 873.7837,-152.2758 878.54,-157.4119"/>
</g>
<!-- Node9 -->
<g id="node10" class="node">
<title>Node9</title>
<g id="a_node10"><a xlink:href="$dp__matrices_8h.html" xlink:title="Functions to deal with standard dynamic programming (DP) matrices.">
<polygon fill="none" stroke="#000000" points="15.8305,-129 15.8305,-148 148.8305,-148 148.8305,-129 15.8305,-129"/>
<text text-anchor="middle" x="82.3305" y="-136" font-family="Helvetica,sans-Serif" font-size="10.00" fill="#000000">ViennaRNA/dp_matrices.h</text>
</a>
</g>
</g>
<!-- Node2&#45;&gt;Node9 -->
<g id="edge33" class="edge">
<title>Node2&#45;&gt;Node9</title>
<path fill="none" stroke="#191970" d="M712.9964,-254.4216C637.0387,-245.5743 510.2688,-229.233 402.3305,-210 302.5766,-192.2254 187.0631,-165.7381 125.6675,-150.4878"/>
<polygon fill="#191970" stroke="#191970" points="126.4798,-147.0832 115.929,-148.0487 124.7791,-153.8734 126.4798,-147.0832"/>
</g>
<!-- Node10 -->
<g id="node11" class="node">
<title>Node10</title>
<g id="a_node11"><a xlink:href="$hard_8h.html" xlink:title="Functions and data structures for handling of secondary structure hard constraints.">
<polygon fill="none" stroke="#000000" points="166.8305,-123.5 166.8305,-153.5 285.8305,-153.5 285.8305,-123.5 166.8305,-123.5"/>
<text text-anchor="start" x="174.8305" y="-141.5" font-family="Helvetica,sans-Serif" font-size="10.00" fill="#000000">ViennaRNA/constraints</text>
<text text-anchor="middle" x="226.3305" y="-130.5" font-family="Helvetica,sans-Serif" font-size="10.00" fill="#000000">/hard.h</text>
</a>
</g>
</g>
<!-- Node2&#45;&gt;Node10 -->
<g id="edge34" class="edge">
<title>Node2&#45;&gt;Node10</title>
<path fill="none" stroke="#191970" d="M713.1345,-250.7884C655.6069,-241.2564 570.6936,-226.3272 497.3305,-210 425.1181,-193.9289 343.0941,-171.728 288.3828,-156.3467"/>
<polygon fill="#191970" stroke="#191970" points="289.068,-152.9035 278.4934,-153.5571 287.1676,-159.6406 289.068,-152.9035"/>
</g>
<!-- Node12 -->
<g id="node13" class="node">
<title>Node12</title>
<g id="a_node13"><a xlink:href="$grammar_8h.html" xlink:title="Implementations for the RNA folding grammar.">
<polygon fill="none" stroke="#000000" points="520.8305,-129 520.8305,-148 637.8305,-148 637.8305,-129 520.8305,-129"/>
<text text-anchor="middle" x="579.3305" y="-136" font-family="Helvetica,sans-Serif" font-size="10.00" fill="#000000">ViennaRNA/grammar.h</text>
</a>
</g>
</g>
<!-- Node2&#45;&gt;Node12 -->
<g id="edge36" class="edge">
<title>Node2&#45;&gt;Node12</title>
<path fill="none" stroke="#191970" d="M755.684,-246.4178C717.028,-222.7627 642.5771,-177.2031 603.9425,-153.5611"/>
<polygon fill="#191970" stroke="#191970" points="605.292,-150.2836 594.9354,-148.0493 601.6382,-156.2543 605.292,-150.2836"/>
</g>
<!-- Node13 -->
<g id="node14" class="node">
<title>Node13</title>
<g id="a_node14"><a xlink:href="$structured__domains_8h.html" xlink:title="This module provides interfaces that deal with additional structured domains in the folding grammar.">
<polygon fill="none" stroke="#000000" points="655.8305,-123.5 655.8305,-153.5 770.8305,-153.5 770.8305,-123.5 655.8305,-123.5"/>
<text text-anchor="start" x="663.8305" y="-141.5" font-family="Helvetica,sans-Serif" font-size="10.00" fill="#000000">ViennaRNA/structured</text>
<text text-anchor="middle" x="713.3305" y="-130.5" font-family="Helvetica,sans-Serif" font-size="10.00" fill="#000000">_domains.h</text>
</a>
</g>
</g>
<!-- Node2&#45;&gt;Node13 -->
<g id="edge37" class="edge">
<title>Node2&#45;&gt;Node13</title>
<path fill="none" stroke="#191970" d="M772.115,-246.4178C760.7126,-225.485 739.9668,-187.3994 726.4188,-162.5276"/>
<polygon fill="#191970" stroke="#191970" points="729.4704,-160.813 721.6132,-153.7056 723.3232,-164.1615 729.4704,-160.813"/>
</g>
<!-- Node14 -->
<g id="node15" class="node">
<title>Node14</title>
<g id="a_node15"><a xlink:href="$unstructured__domains_8h.html" xlink:title="Functions to modify unstructured domains, e.g. to incorporate ligands binding to unpaired stretches.">
<polygon fill="none" stroke="#000000" points="1021.8305,-123.5 1021.8305,-153.5 1146.8305,-153.5 1146.8305,-123.5 1021.8305,-123.5"/>
<text text-anchor="start" x="1029.8305" y="-141.5" font-family="Helvetica,sans-Serif" font-size="10.00" fill="#000000">ViennaRNA/unstructured</text>
<text text-anchor="middle" x="1084.3305" y="-130.5" font-family="Helvetica,sans-Serif" font-size="10.00" fill="#000000">_domains.h</text>
</a>
</g>
</g>
<!-- Node2&#45;&gt;Node14 -->
<g id="edge38" class="edge">
<title>Node2&#45;&gt;Node14</title>
<path fill="none" stroke="#191970" d="M847.5429,-254.4852C892.2797,-247.8177 951.1578,-234.9036 998.3305,-210 1021.3445,-197.8503 1042.6201,-177.0387 1058.5056,-160.9917"/>
<polygon fill="#191970" stroke="#191970" points="1061.3148,-163.1284 1065.8549,-153.5556 1056.3361,-158.2078 1061.3148,-163.1284"/>
</g>
<!-- Node15 -->
<g id="node16" class="node">
<title>Node15</title>
<g id="a_node16"><a xlink:href="$utils_2structures_8h.html" xlink:title="Various utility&#45; and helper&#45;functions for secondary structure parsing, converting,...">
<polygon fill="none" stroke="#000000" points="1112.3305,-62 1112.3305,-81 1256.3305,-81 1256.3305,-62 1112.3305,-62"/>
<text text-anchor="middle" x="1184.3305" y="-69" font-family="Helvetica,sans-Serif" font-size="10.00" fill="#000000">ViennaRNA/utils/structures.h</text>
</a>
</g>
</g>
<!-- Node2&#45;&gt;Node15 -->
<g id="edge39" class="edge">
<title>Node2&#45;&gt;Node15</title>
<path fill="none" stroke="#191970" d="M847.3379,-252.4647C899.5056,-244.6409 973.1113,-231.1832 1035.3305,-210 1088.0141,-192.0633 1110.7521,-195.944 1147.3305,-154 1162.9635,-136.0739 1169.9559,-109.041 1175.1104,-90.8535"/>
<polygon fill="#191970" stroke="#191970" points="1178.5251,-91.6525 1178.0633,-81.0677 1171.8236,-89.6302 1178.5251,-91.6525"/>
</g>
<!-- Node4 -->
<g id="node5" class="node">
<title>Node4</title>
<g id="a_node5"><a xlink:title=" ">
<polygon fill="none" stroke="#bfbfbf" points="947.3305,-.5 947.3305,-19.5 995.3305,-19.5 995.3305,-.5 947.3305,-.5"/>
<text text-anchor="middle" x="971.3305" y="-7.5" font-family="Helvetica,sans-Serif" font-size="10.00" fill="#000000">limits.h</text>
</a>
</g>
</g>
<!-- Node3&#45;&gt;Node4 -->
<g id="edge4" class="edge">
<title>Node3&#45;&gt;Node4</title>
<path fill="none" stroke="#191970" d="M971.3305,-61.8906C971.3305,-53.3657 971.3305,-40.6392 971.3305,-29.9235"/>
<polygon fill="#191970" stroke="#191970" points="974.8306,-29.7448 971.3305,-19.7449 967.8306,-29.7449 974.8306,-29.7448"/>
</g>
<!-- Node5&#45;&gt;Node1 -->
<g id="edge21" class="edge">
<title>Node5&#45;&gt;Node1</title>
<path fill="none" stroke="#191970" d="M583.1168,-209.7358C586.3767,-229.4362 586.9474,-274.5797 584.8287,-303.1876"/>
<polygon fill="#191970" stroke="#191970" points="581.3337,-302.9717 583.8851,-313.2548 588.3031,-303.6251 581.3337,-302.9717"/>
</g>
<!-- Node5&#45;&gt;Node6 -->
<g id="edge6" class="edge">
<title>Node5&#45;&gt;Node6</title>
<path fill="none" stroke="#191970" d="M554.8593,-190.3462C539.6198,-182.9011 521.2693,-170.9799 512.3305,-154 505.9124,-141.8084 503.4903,-133.5678 512.3305,-123 540.25,-89.6246 660.0984,-77.8503 735.8172,-73.7163"/>
<polygon fill="#191970" stroke="#191970" points="736.3876,-77.1916 746.1945,-73.1822 736.0277,-70.2009 736.3876,-77.1916"/>
</g>
<!-- Node5&#45;&gt;Node7 -->
<g id="edge7" class="edge">
<title>Node5&#45;&gt;Node7</title>
<path fill="none" stroke="#191970" d="M623.4647,-190.4581C677.7364,-179.512 770.0792,-161.5752 832.1717,-149.9026"/>
<polygon fill="#191970" stroke="#191970" points="833.0648,-153.2962 842.2488,-148.0137 831.7751,-146.4161 833.0648,-153.2962"/>
</g>
<!-- Node8 -->
<g id="node9" class="node">
<title>Node8</title>
<g id="a_node9"><a xlink:href="$sequence_8h.html" xlink:title="Functions and data structures related to sequence representations ,.">
<polygon fill="none" stroke="#000000" points="342.3305,-129 342.3305,-148 464.3305,-148 464.3305,-129 342.3305,-129"/>
<text text-anchor="middle" x="403.3305" y="-136" font-family="Helvetica,sans-Serif" font-size="10.00" fill="#000000">ViennaRNA/sequence.h</text>
</a>
</g>
</g>
<!-- Node5&#45;&gt;Node8 -->
<g id="edge12" class="edge">
<title>Node5&#45;&gt;Node8</title>
<path fill="none" stroke="#191970" d="M546.768,-190.3906C514.8983,-179.9652 466.8847,-163.2559 435.2444,-151.6252"/>
<polygon fill="#191970" stroke="#191970" points="436.1811,-148.2397 425.5881,-148.0419 433.7457,-154.8024 436.1811,-148.2397"/>
</g>
<!-- Node5&#45;&gt;Node9 -->
<g id="edge14" class="edge">
<title>Node5&#45;&gt;Node9</title>
<path fill="none" stroke="#191970" d="M506.265,-194.6994C420.1449,-187.6236 273.1839,-173.6606 148.3305,-154 141.1068,-152.8625 133.5251,-151.4983 126.162,-150.0573"/>
<polygon fill="#191970" stroke="#191970" points="126.8074,-146.617 116.3111,-148.0589 125.4156,-153.4773 126.8074,-146.617"/>
</g>
<!-- Node5&#45;&gt;Node10 -->
<g id="edge17" class="edge">
<title>Node5&#45;&gt;Node10</title>
<path fill="none" stroke="#191970" d="M509.815,-190.4894C453.6354,-182.041 372.5069,-169.0031 295.6814,-154.79"/>
<polygon fill="#191970" stroke="#191970" points="296.3215,-151.3491 285.8498,-152.9601 295.0406,-158.2309 296.3215,-151.3491"/>
</g>
<!-- Node5&#45;&gt;Node12 -->
<g id="edge22" class="edge">
<title>Node5&#45;&gt;Node12</title>
<path fill="none" stroke="#191970" d="M574.268,-190.3906C572.6046,-181.8657 572.171,-169.1392 572.967,-158.4235"/>
<polygon fill="#191970" stroke="#191970" points="576.4719,-158.6023 574.2418,-148.2449 569.5262,-157.7324 576.4719,-158.6023"/>
</g>
<!-- Node5&#45;&gt;Node13 -->
<g id="edge24" class="edge">
<title>Node5&#45;&gt;Node13</title>
<path fill="none" stroke="#191970" d="M600.268,-190.3906C619.2429,-181.682 647.7712,-168.5888 671.4231,-157.7336"/>
<polygon fill="#191970" stroke="#191970" points="672.9219,-160.8968 680.5504,-153.5446 670.002,-154.5349 672.9219,-160.8968"/>
</g>
<!-- Node5&#45;&gt;Node14 -->
<g id="edge25" class="edge">
<title>Node5&#45;&gt;Node14</title>
<path fill="none" stroke="#191970" d="M652.3815,-191.2674C730.0526,-182.4057 856.2835,-168.0304 965.3305,-154 980.2371,-152.0821 996.2615,-149.8955 1011.5958,-147.7815"/>
<polygon fill="#191970" stroke="#191970" points="1012.1271,-151.2415 1021.5543,-146.4064 1011.1695,-144.3073 1012.1271,-151.2415"/>
</g>
<!-- Node7&#45;&gt;Node2 -->
<g id="edge9" class="edge">
<title>Node7&#45;&gt;Node2</title>
<path fill="none" stroke="#191970" d="M891.1504,-148.0493C876.1157,-167.4956 834.5152,-212.1405 806.635,-239.2668"/>
<polygon fill="#191970" stroke="#191970" points="803.9697,-236.9732 799.1687,-246.4178 808.8116,-242.0285 803.9697,-236.9732"/>
</g>
<!-- Node7&#45;&gt;Node3 -->
<g id="edge8" class="edge">
<title>Node7&#45;&gt;Node3</title>
<path fill="none" stroke="#191970" d="M907.0762,-128.9005C918.9946,-118.2535 938.4362,-100.8856 952.8173,-88.0385"/>
<polygon fill="#191970" stroke="#191970" points="955.4789,-90.354 960.6048,-81.0817 950.8154,-85.1337 955.4789,-90.354"/>
</g>
<!-- Node7&#45;&gt;Node5 -->
<g id="edge10" class="edge">
<title>Node7&#45;&gt;Node5</title>
<path fill="none" stroke="#191970" d="M852.3363,-148.0137C798.1301,-158.9478 705.7941,-176.8839 643.6495,-188.5673"/>
<polygon fill="#191970" stroke="#191970" points="642.7471,-185.1754 633.5633,-190.4581 644.037,-192.0555 642.7471,-185.1754"/>
</g>
<!-- Node7&#45;&gt;Node6 -->
<g id="edge11" class="edge">
<title>Node7&#45;&gt;Node6</title>
<path fill="none" stroke="#191970" d="M882.4328,-128.9005C866.5142,-117.9052 840.2184,-99.7422 821.4707,-86.7927"/>
<polygon fill="#191970" stroke="#191970" points="823.4197,-83.8852 813.2025,-81.0817 819.4414,-89.6448 823.4197,-83.8852"/>
</g>
<!-- Node8&#45;&gt;Node5 -->
<g id="edge13" class="edge">
<title>Node8&#45;&gt;Node5</title>
<path fill="none" stroke="#191970" d="M435.6867,-148.0419C467.4866,-158.4402 515.5004,-175.1468 547.2114,-186.7993"/>
<polygon fill="#191970" stroke="#191970" points="546.3,-190.1943 556.893,-190.3906 548.7345,-183.6312 546.3,-190.1943"/>
</g>
<!-- Node9&#45;&gt;Node2 -->
<g id="edge15" class="edge">
<title>Node9&#45;&gt;Node2</title>
<path fill="none" stroke="#191970" d="M127.3539,-148.0487C192.153,-162.762 315.0233,-191.2358 420.3305,-210 517.4901,-227.3124 629.908,-242.2818 702.9796,-251.5515"/>
<polygon fill="#191970" stroke="#191970" points="702.6635,-255.0394 713.0236,-252.8214 703.5416,-248.0946 702.6635,-255.0394"/>
</g>
<!-- Node9&#45;&gt;Node5 -->
<g id="edge16" class="edge">
<title>Node9&#45;&gt;Node5</title>
<path fill="none" stroke="#191970" d="M133.7618,-148.0589C144.5587,-150.2113 155.8232,-152.3454 166.3305,-154 280.0699,-171.9105 412.1561,-185.0926 495.7874,-192.6469"/>
<polygon fill="#191970" stroke="#191970" points="495.7214,-196.155 505.9942,-193.5627 496.3471,-189.183 495.7214,-196.155"/>
</g>
<!-- Node10&#45;&gt;Node5 -->
<g id="edge18" class="edge">
<title>Node10&#45;&gt;Node5</title>
<path fill="none" stroke="#191970" d="M286.1221,-149.4613C293.9564,-151.0388 301.8473,-152.6001 309.3305,-154 379.1744,-167.0662 459.2279,-180.0622 513.9923,-188.8904"/>
<polygon fill="#191970" stroke="#191970" points="513.4861,-192.3539 523.9156,-190.4894 514.5998,-185.4431 513.4861,-192.3539"/>
</g>
<!-- Node10&#45;&gt;Node11 -->
<g id="edge19" class="edge">
<title>Node10&#45;&gt;Node11</title>
<path fill="none" stroke="#191970" d="M226.3305,-123.2967C226.3305,-115.5013 226.3305,-105.7991 226.3305,-96.9064"/>
<polygon fill="#191970" stroke="#191970" points="229.8306,-96.6431 226.3305,-86.6432 222.8306,-96.6432 229.8306,-96.6431"/>
</g>
<!-- Node11&#45;&gt;Node5 -->
<g id="edge20" class="edge">
<title>Node11&#45;&gt;Node5</title>
<path fill="none" stroke="#191970" d="M246.6583,-86.7003C260.2215,-96.8901 278.4184,-110.6531 294.3305,-123 311.824,-136.5739 313.1879,-144.8052 333.3305,-154 362.0539,-167.1117 437.4556,-180.1625 497.2748,-188.9952"/>
<polygon fill="#191970" stroke="#191970" points="497.0877,-192.5049 507.4882,-190.485 498.0981,-185.5782 497.0877,-192.5049"/>
</g>
<!-- Node12&#45;&gt;Node5 -->
<g id="edge23" class="edge">
<title>Node12&#45;&gt;Node5</title>
<path fill="none" stroke="#191970" d="M584.4193,-148.2449C586.0697,-156.814 586.4904,-169.5519 585.6813,-180.2462"/>
<polygon fill="#191970" stroke="#191970" points="582.1808,-180.0293 584.393,-190.3906 589.1251,-180.9113 582.1808,-180.0293"/>
</g>
<!-- Node14&#45;&gt;Node2 -->
<g id="edge26" class="edge">
<title>Node14&#45;&gt;Node2</title>
<path fill="none" stroke="#191970" d="M1078.9472,-153.5556C1067.5365,-169.9957 1043.1105,-195.8622 1016.3305,-210 967.2858,-235.8919 905.5882,-248.8237 857.5121,-255.2499"/>
<polygon fill="#191970" stroke="#191970" points="856.949,-251.7932 847.4694,-256.5247 857.8306,-258.7375 856.949,-251.7932"/>
</g>
<!-- Node14&#45;&gt;Node5 -->
<g id="edge27" class="edge">
<title>Node14&#45;&gt;Node5</title>
<path fill="none" stroke="#191970" d="M1021.6199,-148.8382C1008.9749,-150.6137 995.7639,-152.4003 983.3305,-154 872.7336,-168.2298 744.4608,-182.8144 662.5789,-191.6419"/>
<polygon fill="#191970" stroke="#191970" points="662.149,-188.1679 652.58,-192.716 662.8967,-195.1278 662.149,-188.1679"/>
</g>
<!-- Node14&#45;&gt;Node15 -->
<g id="edge28" class="edge">
<title>Node14&#45;&gt;Node15</title>
<path fill="none" stroke="#191970" d="M1107.0221,-123.2967C1123.3589,-112.351 1145.3064,-97.6462 1161.6424,-86.701"/>
<polygon fill="#191970" stroke="#191970" points="1163.7098,-89.5289 1170.0694,-81.055 1159.8135,-83.7135 1163.7098,-89.5289"/>
</g>
<!-- Node15&#45;&gt;Node2 -->
<g id="edge30" class="edge">
<title>Node15&#45;&gt;Node2</title>
<path fill="none" stroke="#191970" d="M1188.82,-81.0677C1190.427,-97.7551 1184.1195,-132.455 1165.3305,-154 1128.7521,-195.944 1106.0141,-192.0633 1053.3305,-210 989.347,-231.7839 913.322,-245.3979 857.6991,-253.1167"/>
<polygon fill="#191970" stroke="#191970" points="856.9978,-249.6796 847.558,-254.49 857.9373,-256.6163 856.9978,-249.6796"/>
</g>
<!-- Node16 -->
<g id="node17" class="node">
<title>Node16</title>
<g id="a_node17"><a xlink:title=" ">
<polygon fill="none" stroke="#bfbfbf" points="1161.3305,-.5 1161.3305,-19.5 1207.3305,-19.5 1207.3305,-.5 1161.3305,-.5"/>
<text text-anchor="middle" x="1184.3305" y="-7.5" font-family="Helvetica,sans-Serif" font-size="10.00" fill="#000000">stdio.h</text>
</a>
</g>
</g>
<!-- Node15&#45;&gt;Node16 -->
<g id="edge29" class="edge">
<title>Node15&#45;&gt;Node16</title>
<path fill="none" stroke="#191970" d="M1184.3305,-61.8906C1184.3305,-53.3657 1184.3305,-40.6392 1184.3305,-29.9235"/>
<polygon fill="#191970" stroke="#191970" points="1187.8306,-29.7448 1184.3305,-19.7449 1180.8306,-29.7449 1187.8306,-29.7448"/>
</g>
</g>
</svg>
