<?xml version="1.0" encoding="UTF-8" standalone="no"?>
<!DOCTYPE svg PUBLIC "-//W3C//DTD SVG 1.1//EN"
 "http://www.w3.org/Graphics/SVG/1.1/DTD/svg11.dtd">
<!-- Generated by graphviz version 2.40.1 (0)
 -->
<!-- Title: ViennaRNA/datastructures/char_stream.h Pages: 1 -->
<svg width="142pt" height="95pt"
 viewBox="0.00 0.00 142.00 95.00" xmlns="http://www.w3.org/2000/svg" xmlns:xlink="http://www.w3.org/1999/xlink">
<g id="graph0" class="graph" transform="scale(1 1) rotate(0) translate(4 91)">
<title>ViennaRNA/datastructures/char_stream.h</title>
<!-- Node0 -->
<g id="node1" class="node">
<title>Node0</title>
<g id="a_node1"><a xlink:title="Implementation of a dynamic, buffered character stream.">
<polygon fill="#bfbfbf" stroke="#000000" points="0,-56.5 0,-86.5 134,-86.5 134,-56.5 0,-56.5"/>
<text text-anchor="start" x="8" y="-74.5" font-family="Helvetica,sans-Serif" font-size="10.00" fill="#000000">ViennaRNA/datastructures</text>
<text text-anchor="middle" x="67" y="-63.5" font-family="Helvetica,sans-Serif" font-size="10.00" fill="#000000">/char_stream.h</text>
</a>
</g>
</g>
<!-- Node1 -->
<g id="node2" class="node">
<title>Node1</title>
<g id="a_node2"><a xlink:title=" ">
<polygon fill="none" stroke="#bfbfbf" points="8,-.5 8,-19.5 60,-19.5 60,-.5 8,-.5"/>
<text text-anchor="middle" x="34" y="-7.5" font-family="Helvetica,sans-Serif" font-size="10.00" fill="#000000">stdarg.h</text>
</a>
</g>
</g>
<!-- Node0&#45;&gt;Node1 -->
<g id="edge1" class="edge">
<title>Node0&#45;&gt;Node1</title>
<path fill="none" stroke="#191970" d="M58.8427,-56.2977C54.4051,-48.0277 48.875,-37.7215 44.1596,-28.9339"/>
<polygon fill="#191970" stroke="#191970" points="47.096,-27.0037 39.2837,-19.8469 40.9279,-30.3134 47.096,-27.0037"/>
</g>
<!-- Node2 -->
<g id="node3" class="node">
<title>Node2</title>
<g id="a_node3"><a xlink:title=" ">
<polygon fill="none" stroke="#bfbfbf" points="78,-.5 78,-19.5 124,-19.5 124,-.5 78,-.5"/>
<text text-anchor="middle" x="101" y="-7.5" font-family="Helvetica,sans-Serif" font-size="10.00" fill="#000000">stdio.h</text>
</a>
</g>
</g>
<!-- Node0&#45;&gt;Node2 -->
<g id="edge2" class="edge">
<title>Node0&#45;&gt;Node2</title>
<path fill="none" stroke="#191970" d="M75.4045,-56.2977C80.0257,-47.9388 85.7969,-37.4997 90.6889,-28.6509"/>
<polygon fill="#191970" stroke="#191970" points="93.7809,-30.292 95.5562,-19.8469 87.6548,-26.9051 93.7809,-30.292"/>
</g>
</g>
</svg>
