<?xml version="1.0" encoding="UTF-8" standalone="no"?>
<!DOCTYPE svg PUBLIC "-//W3C//DTD SVG 1.1//EN"
 "http://www.w3.org/Graphics/SVG/1.1/DTD/svg11.dtd">
<!-- Generated by graphviz version 2.40.1 (0)
 -->
<!-- Title: ViennaRNA/plotting Pages: 1 -->
<svg width="224pt" height="231pt"
 viewBox="0.00 0.00 223.90 231.00" xmlns="http://www.w3.org/2000/svg" xmlns:xlink="http://www.w3.org/1999/xlink">
<g id="graph0" class="graph" transform="scale(1 1) rotate(0) translate(4 227)">
<title>ViennaRNA/plotting</title>
<g id="clust1" class="cluster">
<title>clusterdir_b65dce601f6c2aa1a9f53e1dbd97d018</title>
<g id="a_clust1"><a xlink:href="dir_b65dce601f6c2aa1a9f53e1dbd97d018.html" xlink:title="ViennaRNA">
<polygon fill="#ddddee" stroke="#000000" points="8,-56 8,-215 110,-215 110,-56 8,-56"/>
<text text-anchor="middle" x="59" y="-203" font-family="Helvetica,sans-Serif" font-size="10.00" fill="#000000">ViennaRNA</text>
</a>
</g>
</g>
<g id="clust2" class="cluster">
<title>clusterdir_d24edb0250b189e2f0cf5729e296356a</title>
<g id="a_clust2"><a xlink:href="dir_d24edb0250b189e2f0cf5729e296356a.html">
<polygon fill="#eeeeff" stroke="#000000" points="16,-64 16,-188 102,-188 102,-64 16,-64"/>
</a>
</g>
</g>
<!-- dir_d24edb0250b189e2f0cf5729e296356a -->
<g id="node1" class="node">
<title>dir_d24edb0250b189e2f0cf5729e296356a</title>
<text text-anchor="middle" x="67" y="-159.5" font-family="Helvetica,sans-Serif" font-size="10.00" fill="#000000">plotting</text>
</g>
<!-- dir_15cd9e9f9fed42400220699de37de81c -->
<g id="node2" class="node">
<title>dir_15cd9e9f9fed42400220699de37de81c</title>
<g id="a_node2"><a xlink:href="dir_15cd9e9f9fed42400220699de37de81c.html" xlink:title="RNApuzzler">
<polygon fill="#ffffff" stroke="#000000" points="94,-108 24,-108 24,-72 94,-72 94,-108"/>
<text text-anchor="middle" x="59" y="-87.5" font-family="Helvetica,sans-Serif" font-size="10.00" fill="#000000">RNApuzzler</text>
</a>
</g>
</g>
<!-- dir_d24edb0250b189e2f0cf5729e296356a&#45;&gt;dir_15cd9e9f9fed42400220699de37de81c -->
<g id="edge5" class="edge">
<title>dir_d24edb0250b189e2f0cf5729e296356a&#45;&gt;dir_15cd9e9f9fed42400220699de37de81c</title>
<path fill="none" stroke="#000000" d="M64.9813,-143.8314C64.1257,-136.131 63.1083,-126.9743 62.1574,-118.4166"/>
<polygon fill="#000000" stroke="#000000" points="65.6289,-117.9656 61.0459,-108.4133 58.6717,-118.7386 65.6289,-117.9656"/>
<g id="a_edge5&#45;headlabel"><a xlink:href="dir_000006_000009.html" xlink:title="3">
<text text-anchor="middle" x="68.8477" y="-118.7247" font-family="Helvetica,sans-Serif" font-size="10.00" fill="#000000">3</text>
</a>
</g>
</g>
<!-- dir_99e275c152145741e4b8bbe1e7e65f5d -->
<g id="node3" class="node">
<title>dir_99e275c152145741e4b8bbe1e7e65f5d</title>
<g id="a_node3"><a xlink:href="dir_99e275c152145741e4b8bbe1e7e65f5d.html" xlink:title="datastructures">
<polygon fill="none" stroke="#000000" points="197.5,-108 118.5,-108 118.5,-72 197.5,-72 197.5,-108"/>
<text text-anchor="middle" x="158" y="-87.5" font-family="Helvetica,sans-Serif" font-size="10.00" fill="#000000">datastructures</text>
</a>
</g>
</g>
<!-- dir_d24edb0250b189e2f0cf5729e296356a&#45;&gt;dir_99e275c152145741e4b8bbe1e7e65f5d -->
<g id="edge3" class="edge">
<title>dir_d24edb0250b189e2f0cf5729e296356a&#45;&gt;dir_99e275c152145741e4b8bbe1e7e65f5d</title>
<path fill="none" stroke="#000000" d="M89.9631,-143.8314C101.1715,-134.9632 114.8209,-124.1637 126.9439,-114.5718"/>
<polygon fill="#000000" stroke="#000000" points="129.3737,-117.1125 135.0442,-108.1628 125.0303,-111.6229 129.3737,-117.1125"/>
<g id="a_edge3&#45;headlabel"><a xlink:href="dir_000006_000001.html" xlink:title="3">
<text text-anchor="middle" x="128.3164" y="-119.0694" font-family="Helvetica,sans-Serif" font-size="10.00" fill="#000000">3</text>
</a>
</g>
</g>
<!-- dir_1ed026dd4a6b3990a24ff2e0510f1e28 -->
<g id="node4" class="node">
<title>dir_1ed026dd4a6b3990a24ff2e0510f1e28</title>
<g id="a_node4"><a xlink:href="dir_1ed026dd4a6b3990a24ff2e0510f1e28.html" xlink:title="utils">
<polygon fill="none" stroke="#000000" points="185,-36 131,-36 131,0 185,0 185,-36"/>
<text text-anchor="middle" x="158" y="-15.5" font-family="Helvetica,sans-Serif" font-size="10.00" fill="#000000">utils</text>
</a>
</g>
</g>
<!-- dir_d24edb0250b189e2f0cf5729e296356a&#45;&gt;dir_1ed026dd4a6b3990a24ff2e0510f1e28 -->
<g id="edge4" class="edge">
<title>dir_d24edb0250b189e2f0cf5729e296356a&#45;&gt;dir_1ed026dd4a6b3990a24ff2e0510f1e28</title>
<path fill="none" stroke="#000000" d="M94.107,-155.4207C130.9707,-145.8617 193.8462,-127.1719 207,-108 220.0749,-88.943 217.1686,-76.7539 207,-56 203.7436,-49.3537 198.7023,-43.5366 193.0696,-38.5827"/>
<polygon fill="#000000" stroke="#000000" points="195.1645,-35.7777 185.1342,-32.3655 190.8474,-41.2879 195.1645,-35.7777"/>
<g id="a_edge4&#45;headlabel"><a xlink:href="dir_000006_000008.html" xlink:title="2">
<text text-anchor="middle" x="199.7452" y="-33.2596" font-family="Helvetica,sans-Serif" font-size="10.00" fill="#000000">2</text>
</a>
</g>
</g>
<!-- dir_99e275c152145741e4b8bbe1e7e65f5d&#45;&gt;dir_1ed026dd4a6b3990a24ff2e0510f1e28 -->
<g id="edge1" class="edge">
<title>dir_99e275c152145741e4b8bbe1e7e65f5d&#45;&gt;dir_1ed026dd4a6b3990a24ff2e0510f1e28</title>
<path fill="none" stroke="#000000" d="M152.0476,-71.8314C151.2972,-64.131 151.0763,-54.9743 151.3849,-46.4166"/>
<polygon fill="#000000" stroke="#000000" points="154.8792,-46.6161 152.024,-36.4133 147.8935,-46.1697 154.8792,-46.6161"/>
<g id="a_edge1&#45;headlabel"><a xlink:href="dir_000001_000008.html" xlink:title="1">
<text text-anchor="middle" x="157.4836" y="-47.8844" font-family="Helvetica,sans-Serif" font-size="10.00" fill="#000000">1</text>
</a>
</g>
</g>
<!-- dir_1ed026dd4a6b3990a24ff2e0510f1e28&#45;&gt;dir_99e275c152145741e4b8bbe1e7e65f5d -->
<g id="edge2" class="edge">
<title>dir_1ed026dd4a6b3990a24ff2e0510f1e28&#45;&gt;dir_99e275c152145741e4b8bbe1e7e65f5d</title>
<path fill="none" stroke="#000000" d="M163.976,-36.4133C164.7071,-44.0593 164.9203,-53.1084 164.6155,-61.5726"/>
<polygon fill="#000000" stroke="#000000" points="161.1048,-61.6264 163.9524,-71.8314 168.0902,-62.078 161.1048,-61.6264"/>
<g id="a_edge2&#45;headlabel"><a xlink:href="dir_000008_000001.html" xlink:title="3">
<text text-anchor="middle" x="158.5032" y="-55.3562" font-family="Helvetica,sans-Serif" font-size="10.00" fill="#000000">3</text>
</a>
</g>
</g>
</g>
</svg>
