<?xml version="1.0" encoding="UTF-8" standalone="no"?>
<!DOCTYPE svg PUBLIC "-//W3C//DTD SVG 1.1//EN"
 "http://www.w3.org/Graphics/SVG/1.1/DTD/svg11.dtd">
<!-- Generated by graphviz version 2.40.1 (0)
 -->
<!-- Title: ViennaRNA Pages: 1 -->
<svg width="318pt" height="292pt"
 viewBox="0.00 0.00 318.00 292.00" xmlns="http://www.w3.org/2000/svg" xmlns:xlink="http://www.w3.org/1999/xlink">
<g id="graph0" class="graph" transform="scale(1 1) rotate(0) translate(4 288)">
<title>ViennaRNA</title>
<g id="clust1" class="cluster">
<title>clusterdir_b65dce601f6c2aa1a9f53e1dbd97d018</title>
<g id="a_clust1"><a xlink:href="dir_b65dce601f6c2aa1a9f53e1dbd97d018.html">
<polygon fill="#eeeeff" stroke="#000000" points="8,-8 8,-276 302,-276 302,-8 8,-8"/>
</a>
</g>
</g>
<!-- dir_b65dce601f6c2aa1a9f53e1dbd97d018 -->
<g id="node1" class="node">
<title>dir_b65dce601f6c2aa1a9f53e1dbd97d018</title>
<text text-anchor="middle" x="195" y="-247.5" font-family="Helvetica,sans-Serif" font-size="10.00" fill="#000000">ViennaRNA</text>
</g>
<!-- dir_1b72173c60d46e2c13825429ad9f87ab -->
<g id="node4" class="node">
<title>dir_1b72173c60d46e2c13825429ad9f87ab</title>
<g id="a_node4"><a xlink:href="dir_1b72173c60d46e2c13825429ad9f87ab.html" xlink:title="io">
<polygon fill="#ffffff" stroke="#000000" points="222,-196 168,-196 168,-160 222,-160 222,-196"/>
<text text-anchor="middle" x="195" y="-175.5" font-family="Helvetica,sans-Serif" font-size="10.00" fill="#000000">io</text>
</a>
</g>
</g>
<!-- dir_b65dce601f6c2aa1a9f53e1dbd97d018&#45;&gt;dir_1b72173c60d46e2c13825429ad9f87ab -->
<g id="edge15" class="edge">
<title>dir_b65dce601f6c2aa1a9f53e1dbd97d018&#45;&gt;dir_1b72173c60d46e2c13825429ad9f87ab</title>
<path fill="none" stroke="#000000" d="M195,-231.8314C195,-224.131 195,-214.9743 195,-206.4166"/>
<polygon fill="#000000" stroke="#000000" points="198.5001,-206.4132 195,-196.4133 191.5001,-206.4133 198.5001,-206.4132"/>
<g id="a_edge15&#45;headlabel"><a xlink:href="dir_000000_000003.html" xlink:title="5">
<text text-anchor="middle" x="201.3393" y="-207.5079" font-family="Helvetica,sans-Serif" font-size="10.00" fill="#000000">5</text>
</a>
</g>
</g>
<!-- dir_6d7a52b325451b7ac0a99d06d420abcb -->
<g id="node5" class="node">
<title>dir_6d7a52b325451b7ac0a99d06d420abcb</title>
<g id="a_node5"><a xlink:href="dir_6d7a52b325451b7ac0a99d06d420abcb.html" xlink:title="landscape">
<polygon fill="#ffffff" stroke="#000000" points="149.5,-196 88.5,-196 88.5,-160 149.5,-160 149.5,-196"/>
<text text-anchor="middle" x="119" y="-175.5" font-family="Helvetica,sans-Serif" font-size="10.00" fill="#000000">landscape</text>
</a>
</g>
</g>
<!-- dir_b65dce601f6c2aa1a9f53e1dbd97d018&#45;&gt;dir_6d7a52b325451b7ac0a99d06d420abcb -->
<g id="edge13" class="edge">
<title>dir_b65dce601f6c2aa1a9f53e1dbd97d018&#45;&gt;dir_6d7a52b325451b7ac0a99d06d420abcb</title>
<path fill="none" stroke="#000000" d="M175.822,-231.8314C166.6412,-223.1337 155.4994,-212.5783 145.5224,-203.1265"/>
<polygon fill="#000000" stroke="#000000" points="147.8385,-200.4995 138.1719,-196.1628 143.0243,-205.5811 147.8385,-200.4995"/>
<g id="a_edge13&#45;headlabel"><a xlink:href="dir_000000_000004.html" xlink:title="6">
<text text-anchor="middle" x="152.4007" y="-198.4104" font-family="Helvetica,sans-Serif" font-size="10.00" fill="#000000">6</text>
</a>
</g>
</g>
<!-- dir_e0244ac7ebefc16cab8ba03c1831bb2c -->
<g id="node6" class="node">
<title>dir_e0244ac7ebefc16cab8ba03c1831bb2c</title>
<g id="a_node6"><a xlink:href="dir_e0244ac7ebefc16cab8ba03c1831bb2c.html" xlink:title="loops">
<polygon fill="#ffffff" stroke="#000000" points="294,-196 240,-196 240,-160 294,-160 294,-196"/>
<text text-anchor="middle" x="267" y="-175.5" font-family="Helvetica,sans-Serif" font-size="10.00" fill="#000000">loops</text>
</a>
</g>
</g>
<!-- dir_b65dce601f6c2aa1a9f53e1dbd97d018&#45;&gt;dir_e0244ac7ebefc16cab8ba03c1831bb2c -->
<g id="edge14" class="edge">
<title>dir_b65dce601f6c2aa1a9f53e1dbd97d018&#45;&gt;dir_e0244ac7ebefc16cab8ba03c1831bb2c</title>
<path fill="none" stroke="#000000" d="M213.1686,-231.8314C221.7152,-223.2848 232.0557,-212.9443 241.3802,-203.6198"/>
<polygon fill="#000000" stroke="#000000" points="243.9905,-205.9592 248.5867,-196.4133 239.0408,-201.0095 243.9905,-205.9592"/>
<g id="a_edge14&#45;headlabel"><a xlink:href="dir_000000_000005.html" xlink:title="5">
<text text-anchor="middle" x="243.4564" y="-208.0087" font-family="Helvetica,sans-Serif" font-size="10.00" fill="#000000">5</text>
</a>
</g>
</g>
<!-- dir_fca7cdd19784fbd943eb50b086bcba79 -->
<g id="node2" class="node">
<title>dir_fca7cdd19784fbd943eb50b086bcba79</title>
<g id="a_node2"><a xlink:href="dir_fca7cdd19784fbd943eb50b086bcba79.html" xlink:title="constraints">
<polygon fill="#ffffff" stroke="#000000" points="221.5,-52 156.5,-52 156.5,-16 221.5,-16 221.5,-52"/>
<text text-anchor="middle" x="189" y="-31.5" font-family="Helvetica,sans-Serif" font-size="10.00" fill="#000000">constraints</text>
</a>
</g>
</g>
<!-- dir_99e275c152145741e4b8bbe1e7e65f5d -->
<g id="node3" class="node">
<title>dir_99e275c152145741e4b8bbe1e7e65f5d</title>
<g id="a_node3"><a xlink:href="dir_99e275c152145741e4b8bbe1e7e65f5d.html" xlink:title="datastructures">
<polygon fill="#ffffff" stroke="#000000" points="228.5,-124 149.5,-124 149.5,-88 228.5,-88 228.5,-124"/>
<text text-anchor="middle" x="189" y="-103.5" font-family="Helvetica,sans-Serif" font-size="10.00" fill="#000000">datastructures</text>
</a>
</g>
</g>
<!-- dir_fca7cdd19784fbd943eb50b086bcba79&#45;&gt;dir_99e275c152145741e4b8bbe1e7e65f5d -->
<g id="edge1" class="edge">
<title>dir_fca7cdd19784fbd943eb50b086bcba79&#45;&gt;dir_99e275c152145741e4b8bbe1e7e65f5d</title>
<path fill="none" stroke="#000000" d="M194.976,-52.4133C195.7071,-60.0593 195.9203,-69.1084 195.6155,-77.5726"/>
<polygon fill="#000000" stroke="#000000" points="192.1048,-77.6264 194.9524,-87.8314 199.0902,-78.078 192.1048,-77.6264"/>
<g id="a_edge1&#45;headlabel"><a xlink:href="dir_000002_000001.html" xlink:title="2">
<text text-anchor="middle" x="189.5032" y="-71.3562" font-family="Helvetica,sans-Serif" font-size="10.00" fill="#000000">2</text>
</a>
</g>
</g>
<!-- dir_99e275c152145741e4b8bbe1e7e65f5d&#45;&gt;dir_fca7cdd19784fbd943eb50b086bcba79 -->
<g id="edge3" class="edge">
<title>dir_99e275c152145741e4b8bbe1e7e65f5d&#45;&gt;dir_fca7cdd19784fbd943eb50b086bcba79</title>
<path fill="none" stroke="#000000" d="M183.0476,-87.8314C182.2972,-80.131 182.0763,-70.9743 182.3849,-62.4166"/>
<polygon fill="#000000" stroke="#000000" points="185.8792,-62.6161 183.024,-52.4133 178.8935,-62.1697 185.8792,-62.6161"/>
<g id="a_edge3&#45;headlabel"><a xlink:href="dir_000001_000002.html" xlink:title="2">
<text text-anchor="middle" x="188.4836" y="-63.8844" font-family="Helvetica,sans-Serif" font-size="10.00" fill="#000000">2</text>
</a>
</g>
</g>
<!-- dir_788695b667a2248eec3656daa7404354 -->
<g id="node7" class="node">
<title>dir_788695b667a2248eec3656daa7404354</title>
<g id="a_node7"><a xlink:href="dir_788695b667a2248eec3656daa7404354.html" xlink:title="params">
<polygon fill="#ffffff" stroke="#000000" points="294,-52 240,-52 240,-16 294,-16 294,-52"/>
<text text-anchor="middle" x="267" y="-31.5" font-family="Helvetica,sans-Serif" font-size="10.00" fill="#000000">params</text>
</a>
</g>
</g>
<!-- dir_99e275c152145741e4b8bbe1e7e65f5d&#45;&gt;dir_788695b667a2248eec3656daa7404354 -->
<g id="edge4" class="edge">
<title>dir_99e275c152145741e4b8bbe1e7e65f5d&#45;&gt;dir_788695b667a2248eec3656daa7404354</title>
<path fill="none" stroke="#000000" d="M202.7303,-87.8314C211.3892,-79.0485 222.7892,-68.3712 233.6269,-58.8489"/>
<polygon fill="#000000" stroke="#000000" points="236.0893,-61.3469 241.3718,-52.1628 231.515,-56.0482 236.0893,-61.3469"/>
<g id="a_edge4&#45;headlabel"><a xlink:href="dir_000001_000007.html" xlink:title="2">
<text text-anchor="middle" x="235.2237" y="-63.345" font-family="Helvetica,sans-Serif" font-size="10.00" fill="#000000">2</text>
</a>
</g>
</g>
<!-- dir_1ed026dd4a6b3990a24ff2e0510f1e28 -->
<g id="node10" class="node">
<title>dir_1ed026dd4a6b3990a24ff2e0510f1e28</title>
<g id="a_node10"><a xlink:href="dir_1ed026dd4a6b3990a24ff2e0510f1e28.html" xlink:title="utils">
<polygon fill="#ffffff" stroke="#000000" points="138,-52 84,-52 84,-16 138,-16 138,-52"/>
<text text-anchor="middle" x="111" y="-31.5" font-family="Helvetica,sans-Serif" font-size="10.00" fill="#000000">utils</text>
</a>
</g>
</g>
<!-- dir_99e275c152145741e4b8bbe1e7e65f5d&#45;&gt;dir_1ed026dd4a6b3990a24ff2e0510f1e28 -->
<g id="edge5" class="edge">
<title>dir_99e275c152145741e4b8bbe1e7e65f5d&#45;&gt;dir_1ed026dd4a6b3990a24ff2e0510f1e28</title>
<path fill="none" stroke="#000000" d="M163.3649,-87.8314C153.2732,-79.2848 141.8905,-68.9443 132.2607,-59.6198"/>
<polygon fill="#000000" stroke="#000000" points="134.5436,-56.9551 124.9717,-52.4133 129.6221,-61.933 134.5436,-56.9551"/>
<g id="a_edge5&#45;headlabel"><a xlink:href="dir_000001_000008.html" xlink:title="1">
<text text-anchor="middle" x="139.096" y="-54.9634" font-family="Helvetica,sans-Serif" font-size="10.00" fill="#000000">1</text>
</a>
</g>
</g>
<!-- dir_1b72173c60d46e2c13825429ad9f87ab&#45;&gt;dir_99e275c152145741e4b8bbe1e7e65f5d -->
<g id="edge16" class="edge">
<title>dir_1b72173c60d46e2c13825429ad9f87ab&#45;&gt;dir_99e275c152145741e4b8bbe1e7e65f5d</title>
<path fill="none" stroke="#000000" d="M193.4859,-159.8314C192.8442,-152.131 192.0812,-142.9743 191.3681,-134.4166"/>
<polygon fill="#000000" stroke="#000000" points="194.8529,-134.088 190.5344,-124.4133 187.8771,-134.6694 194.8529,-134.088"/>
<g id="a_edge16&#45;headlabel"><a xlink:href="dir_000003_000001.html" xlink:title="1">
<text text-anchor="middle" x="197.9808" y="-134.9345" font-family="Helvetica,sans-Serif" font-size="10.00" fill="#000000">1</text>
</a>
</g>
</g>
<!-- dir_e0244ac7ebefc16cab8ba03c1831bb2c&#45;&gt;dir_fca7cdd19784fbd943eb50b086bcba79 -->
<g id="edge6" class="edge">
<title>dir_e0244ac7ebefc16cab8ba03c1831bb2c&#45;&gt;dir_fca7cdd19784fbd943eb50b086bcba79</title>
<path fill="none" stroke="#000000" d="M263.5264,-159.8199C259.3901,-140.9473 251.3133,-111.0218 238,-88 232.1775,-77.9316 224.2231,-68.1348 216.4169,-59.7115"/>
<polygon fill="#000000" stroke="#000000" points="218.8176,-57.159 209.355,-52.3936 213.7805,-62.0199 218.8176,-57.159"/>
<g id="a_edge6&#45;headlabel"><a xlink:href="dir_000005_000002.html" xlink:title="2">
<text text-anchor="middle" x="223.3568" y="-55.274" font-family="Helvetica,sans-Serif" font-size="10.00" fill="#000000">2</text>
</a>
</g>
</g>
<!-- dir_e0244ac7ebefc16cab8ba03c1831bb2c&#45;&gt;dir_99e275c152145741e4b8bbe1e7e65f5d -->
<g id="edge8" class="edge">
<title>dir_e0244ac7ebefc16cab8ba03c1831bb2c&#45;&gt;dir_99e275c152145741e4b8bbe1e7e65f5d</title>
<path fill="none" stroke="#000000" d="M247.3173,-159.8314C237.8949,-151.1337 226.4599,-140.5783 216.2204,-131.1265"/>
<polygon fill="#000000" stroke="#000000" points="218.3984,-128.3738 208.6764,-124.1628 213.6505,-133.5175 218.3984,-128.3738"/>
<g id="a_edge8&#45;headlabel"><a xlink:href="dir_000005_000001.html" xlink:title="4">
<text text-anchor="middle" x="222.9656" y="-126.2257" font-family="Helvetica,sans-Serif" font-size="10.00" fill="#000000">4</text>
</a>
</g>
</g>
<!-- dir_e0244ac7ebefc16cab8ba03c1831bb2c&#45;&gt;dir_788695b667a2248eec3656daa7404354 -->
<g id="edge7" class="edge">
<title>dir_e0244ac7ebefc16cab8ba03c1831bb2c&#45;&gt;dir_788695b667a2248eec3656daa7404354</title>
<path fill="none" stroke="#000000" d="M267,-159.7623C267,-135.201 267,-91.2474 267,-62.3541"/>
<polygon fill="#000000" stroke="#000000" points="270.5001,-62.0896 267,-52.0896 263.5001,-62.0897 270.5001,-62.0896"/>
<g id="a_edge7&#45;headlabel"><a xlink:href="dir_000005_000007.html" xlink:title="4">
<text text-anchor="middle" x="273.3393" y="-63.1842" font-family="Helvetica,sans-Serif" font-size="10.00" fill="#000000">4</text>
</a>
</g>
</g>
<!-- dir_e0244ac7ebefc16cab8ba03c1831bb2c&#45;&gt;dir_1ed026dd4a6b3990a24ff2e0510f1e28 -->
<g id="edge9" class="edge">
<title>dir_e0244ac7ebefc16cab8ba03c1831bb2c&#45;&gt;dir_1ed026dd4a6b3990a24ff2e0510f1e28</title>
<path fill="none" stroke="#000000" d="M239.9888,-164.1929C236.9731,-162.7415 233.9323,-161.3168 231,-160 191.6995,-142.3515 170.5551,-155.3448 141,-124 125.101,-107.1383 117.6163,-81.6221 114.0994,-62.0596"/>
<polygon fill="#000000" stroke="#000000" points="117.5572,-61.5171 112.5619,-52.1738 110.6403,-62.593 117.5572,-61.5171"/>
<g id="a_edge9&#45;headlabel"><a xlink:href="dir_000005_000008.html" xlink:title="3">
<text text-anchor="middle" x="120.9151" y="-62.1327" font-family="Helvetica,sans-Serif" font-size="10.00" fill="#000000">3</text>
</a>
</g>
</g>
<!-- dir_788695b667a2248eec3656daa7404354&#45;&gt;dir_99e275c152145741e4b8bbe1e7e65f5d -->
<g id="edge2" class="edge">
<title>dir_788695b667a2248eec3656daa7404354&#45;&gt;dir_99e275c152145741e4b8bbe1e7e65f5d</title>
<path fill="none" stroke="#000000" d="M253.0283,-52.4133C244.3854,-61.1637 233.0732,-71.7519 222.3201,-81.1978"/>
<polygon fill="#000000" stroke="#000000" points="219.918,-78.6476 214.6351,-87.8314 224.492,-83.9465 219.918,-78.6476"/>
<g id="a_edge2&#45;headlabel"><a xlink:href="dir_000007_000001.html" xlink:title="1">
<text text-anchor="middle" x="220.7838" y="-71.6495" font-family="Helvetica,sans-Serif" font-size="10.00" fill="#000000">1</text>
</a>
</g>
</g>
<!-- dir_d24edb0250b189e2f0cf5729e296356a -->
<g id="node8" class="node">
<title>dir_d24edb0250b189e2f0cf5729e296356a</title>
<g id="a_node8"><a xlink:href="dir_d24edb0250b189e2f0cf5729e296356a.html" xlink:title="plotting">
<polygon fill="#ffffff" stroke="#ff0000" points="70,-196 16,-196 16,-160 70,-160 70,-196"/>
<text text-anchor="middle" x="43" y="-175.5" font-family="Helvetica,sans-Serif" font-size="10.00" fill="#000000">plotting</text>
</a>
</g>
</g>
<!-- dir_d24edb0250b189e2f0cf5729e296356a&#45;&gt;dir_99e275c152145741e4b8bbe1e7e65f5d -->
<g id="edge11" class="edge">
<title>dir_d24edb0250b189e2f0cf5729e296356a&#45;&gt;dir_99e275c152145741e4b8bbe1e7e65f5d</title>
<path fill="none" stroke="#000000" d="M70.1162,-164.4154C73.1123,-162.9223 76.1198,-161.427 79,-160 99.9822,-149.6044 123.2563,-138.1656 142.9727,-128.5024"/>
<polygon fill="#000000" stroke="#000000" points="144.6087,-131.5985 152.0493,-124.0561 141.5292,-125.3122 144.6087,-131.5985"/>
<g id="a_edge11&#45;headlabel"><a xlink:href="dir_000006_000001.html" xlink:title="3">
<text text-anchor="middle" x="142.6296" y="-133.2295" font-family="Helvetica,sans-Serif" font-size="10.00" fill="#000000">3</text>
</a>
</g>
</g>
<!-- dir_d24edb0250b189e2f0cf5729e296356a&#45;&gt;dir_1ed026dd4a6b3990a24ff2e0510f1e28 -->
<g id="edge12" class="edge">
<title>dir_d24edb0250b189e2f0cf5729e296356a&#45;&gt;dir_1ed026dd4a6b3990a24ff2e0510f1e28</title>
<path fill="none" stroke="#000000" d="M51.6122,-159.7623C63.3639,-134.8764 84.5167,-90.0822 98.1478,-61.2165"/>
<polygon fill="#000000" stroke="#000000" points="101.3524,-62.6267 102.4577,-52.0896 95.0227,-59.6376 101.3524,-62.6267"/>
<g id="a_edge12&#45;headlabel"><a xlink:href="dir_000006_000008.html" xlink:title="2">
<text text-anchor="middle" x="102.385" y="-64.5894" font-family="Helvetica,sans-Serif" font-size="10.00" fill="#000000">2</text>
</a>
</g>
</g>
<!-- dir_856cfc6b1dfc1d665aea22b9048c064e -->
<g id="node9" class="node">
<title>dir_856cfc6b1dfc1d665aea22b9048c064e</title>
<g id="a_node9"><a xlink:href="dir_856cfc6b1dfc1d665aea22b9048c064e.html" xlink:title="search">
<polygon fill="#ffffff" stroke="#000000" points="107,-268 53,-268 53,-232 107,-232 107,-268"/>
<text text-anchor="middle" x="80" y="-247.5" font-family="Helvetica,sans-Serif" font-size="10.00" fill="#000000">search</text>
</a>
</g>
</g>
<!-- dir_1ed026dd4a6b3990a24ff2e0510f1e28&#45;&gt;dir_99e275c152145741e4b8bbe1e7e65f5d -->
<g id="edge10" class="edge">
<title>dir_1ed026dd4a6b3990a24ff2e0510f1e28&#45;&gt;dir_99e275c152145741e4b8bbe1e7e65f5d</title>
<path fill="none" stroke="#000000" d="M136.6282,-52.1628C146.797,-60.7744 158.2774,-71.2081 167.9547,-80.5888"/>
<polygon fill="#000000" stroke="#000000" points="165.701,-83.2827 175.2697,-87.8314 170.626,-78.3084 165.701,-83.2827"/>
<g id="a_edge10&#45;headlabel"><a xlink:href="dir_000008_000001.html" xlink:title="3">
<text text-anchor="middle" x="161.149" y="-80.2713" font-family="Helvetica,sans-Serif" font-size="10.00" fill="#000000">3</text>
</a>
</g>
</g>
</g>
</svg>
