<?xml version="1.0" encoding="UTF-8" standalone="no"?>
<!DOCTYPE svg PUBLIC "-//W3C//DTD SVG 1.1//EN"
 "http://www.w3.org/Graphics/SVG/1.1/DTD/svg11.dtd">
<!-- Generated by graphviz version 2.40.1 (0)
 -->
<!-- Title: ViennaRNA/dp_matrices.h Pages: 1 -->
<svg width="1281pt" height="341pt"
 viewBox="0.00 0.00 1281.00 341.00" xmlns="http://www.w3.org/2000/svg" xmlns:xlink="http://www.w3.org/1999/xlink">
<g id="graph0" class="graph" transform="scale(1 1) rotate(0) translate(4 337)">
<title>ViennaRNA/dp_matrices.h</title>
<!-- Node0 -->
<g id="node1" class="node">
<title>Node0</title>
<g id="a_node1"><a xlink:title="Functions to deal with standard dynamic programming (DP) matrices.">
<polygon fill="#bfbfbf" stroke="#000000" points="572.5,-313.5 572.5,-332.5 705.5,-332.5 705.5,-313.5 572.5,-313.5"/>
<text text-anchor="middle" x="639" y="-320.5" font-family="Helvetica,sans-Serif" font-size="10.00" fill="#000000">ViennaRNA/dp_matrices.h</text>
</a>
</g>
</g>
<!-- Node1 -->
<g id="node2" class="node">
<title>Node1</title>
<g id="a_node2"><a xlink:href="$datastructures_2basic_8h.html" xlink:title="Various data structures and pre&#45;processor macros.">
<polygon fill="none" stroke="#000000" points="627,-246.5 627,-276.5 761,-276.5 761,-246.5 627,-246.5"/>
<text text-anchor="start" x="635" y="-264.5" font-family="Helvetica,sans-Serif" font-size="10.00" fill="#000000">ViennaRNA/datastructures</text>
<text text-anchor="middle" x="694" y="-253.5" font-family="Helvetica,sans-Serif" font-size="10.00" fill="#000000">/basic.h</text>
</a>
</g>
</g>
<!-- Node0&#45;&gt;Node1 -->
<g id="edge1" class="edge">
<title>Node0&#45;&gt;Node1</title>
<path fill="none" stroke="#191970" d="M642.5313,-313.3906C648.0275,-305.5298 657.7642,-294.0964 667.3856,-283.9612"/>
<polygon fill="#191970" stroke="#191970" points="670.1525,-286.1382 674.6484,-276.5446 665.1511,-281.2406 670.1525,-286.1382"/>
</g>
<!-- Node4 -->
<g id="node5" class="node">
<title>Node4</title>
<g id="a_node5"><a xlink:href="$fold__compound_8h.html" xlink:title="The Basic Fold Compound API.">
<polygon fill="none" stroke="#000000" points="511,-190.5 511,-209.5 657,-209.5 657,-190.5 511,-190.5"/>
<text text-anchor="middle" x="584" y="-197.5" font-family="Helvetica,sans-Serif" font-size="10.00" fill="#000000">ViennaRNA/fold_compound.h</text>
</a>
</g>
</g>
<!-- Node0&#45;&gt;Node4 -->
<g id="edge40" class="edge">
<title>Node0&#45;&gt;Node4</title>
<path fill="none" stroke="#191970" d="M627.4949,-313.1456C621.1808,-303.8421 614.6098,-289.4935 609,-277 600.2335,-257.4763 590.3698,-235.0905 585.2185,-219.507"/>
<polygon fill="#191970" stroke="#191970" points="588.4769,-218.1674 582.3835,-209.5002 581.7419,-220.0756 588.4769,-218.1674"/>
</g>
<!-- Node1&#45;&gt;Node0 -->
<g id="edge33" class="edge">
<title>Node1&#45;&gt;Node0</title>
<path fill="none" stroke="#191970" d="M686.4426,-276.5446C679.4832,-285.5218 669.3357,-296.9403 660.1046,-306.2101"/>
<polygon fill="#191970" stroke="#191970" points="657.4264,-303.9304 652.6563,-313.3906 662.2848,-308.9699 657.4264,-303.9304"/>
</g>
<!-- Node2 -->
<g id="node3" class="node">
<title>Node2</title>
<g id="a_node3"><a xlink:href="$constants_8h.html" xlink:title="Energy parameter constants.">
<polygon fill="none" stroke="#000000" points="0,-62 0,-81 158,-81 158,-62 0,-62"/>
<text text-anchor="middle" x="79" y="-69" font-family="Helvetica,sans-Serif" font-size="10.00" fill="#000000">ViennaRNA/params/constants.h</text>
</a>
</g>
</g>
<!-- Node1&#45;&gt;Node2 -->
<g id="edge2" class="edge">
<title>Node1&#45;&gt;Node2</title>
<path fill="none" stroke="#191970" d="M626.923,-254.7468C474.1721,-238.6871 110.8877,-196.3814 76,-154 61.6086,-136.5174 66.1234,-109.191 71.6896,-90.83"/>
<polygon fill="#191970" stroke="#191970" points="75.0591,-91.7917 74.9534,-81.1974 68.4293,-89.5453 75.0591,-91.7917"/>
</g>
<!-- Node1&#45;&gt;Node4 -->
<g id="edge4" class="edge">
<title>Node1&#45;&gt;Node4</title>
<path fill="none" stroke="#191970" d="M667.091,-246.4554C649.7032,-236.734 627.1951,-224.15 609.9916,-214.5317"/>
<polygon fill="#191970" stroke="#191970" points="611.4826,-211.3554 601.0461,-209.5303 608.0665,-217.4653 611.4826,-211.3554"/>
</g>
<!-- Node5 -->
<g id="node6" class="node">
<title>Node5</title>
<g id="a_node6"><a xlink:href="$model_8h.html" xlink:title="The model details data structure and its corresponding modifiers.">
<polygon fill="none" stroke="#000000" points="198,-62 198,-81 304,-81 304,-62 198,-62"/>
<text text-anchor="middle" x="251" y="-69" font-family="Helvetica,sans-Serif" font-size="10.00" fill="#000000">ViennaRNA/model.h</text>
</a>
</g>
</g>
<!-- Node1&#45;&gt;Node5 -->
<g id="edge31" class="edge">
<title>Node1&#45;&gt;Node5</title>
<path fill="none" stroke="#191970" d="M761.1306,-255.1053C872.8564,-242.9224 1089.2413,-212.253 1135,-154 1143.5109,-143.1652 1144.4631,-133.0139 1135,-123 1110.693,-97.2782 534.3273,-89.1038 499,-87 436.1512,-83.2573 364.3593,-78.7443 314.2479,-75.5557"/>
<polygon fill="#191970" stroke="#191970" points="314.4118,-72.0592 304.2095,-74.9163 313.9667,-79.045 314.4118,-72.0592"/>
</g>
<!-- Node6 -->
<g id="node7" class="node">
<title>Node6</title>
<g id="a_node7"><a xlink:href="$params_2basic_8h.html" xlink:title="Functions to deal with sets of energy parameters.">
<polygon fill="none" stroke="#000000" points="85,-129 85,-148 223,-148 223,-129 85,-129"/>
<text text-anchor="middle" x="154" y="-136" font-family="Helvetica,sans-Serif" font-size="10.00" fill="#000000">ViennaRNA/params/basic.h</text>
</a>
</g>
</g>
<!-- Node1&#45;&gt;Node6 -->
<g id="edge32" class="edge">
<title>Node1&#45;&gt;Node6</title>
<path fill="none" stroke="#191970" d="M626.7582,-249.5768C574.8895,-239.4834 501.6599,-224.3997 438,-210 351.219,-190.3704 250.5513,-165.2979 195.2982,-150.6567"/>
<polygon fill="#191970" stroke="#191970" points="196.0877,-147.2449 185.5233,-148.0479 194.2826,-154.0082 196.0877,-147.2449"/>
</g>
<!-- Node8 -->
<g id="node9" class="node">
<title>Node8</title>
<g id="a_node9"><a xlink:href="$hard_8h.html" xlink:title="Functions and data structures for handling of secondary structure hard constraints.">
<polygon fill="none" stroke="#000000" points="279.5,-123.5 279.5,-153.5 398.5,-153.5 398.5,-123.5 279.5,-123.5"/>
<text text-anchor="start" x="287.5" y="-141.5" font-family="Helvetica,sans-Serif" font-size="10.00" fill="#000000">ViennaRNA/constraints</text>
<text text-anchor="middle" x="339" y="-130.5" font-family="Helvetica,sans-Serif" font-size="10.00" fill="#000000">/hard.h</text>
</a>
</g>
</g>
<!-- Node1&#45;&gt;Node8 -->
<g id="edge34" class="edge">
<title>Node1&#45;&gt;Node8</title>
<path fill="none" stroke="#191970" d="M627.9342,-246.402C590.5554,-237.2097 543.1911,-224.4652 502,-210 459.011,-194.9035 411.4701,-173.4783 378.8813,-158.0226"/>
<polygon fill="#191970" stroke="#191970" points="380.2186,-154.7826 369.6864,-153.6319 377.2022,-161.0994 380.2186,-154.7826"/>
</g>
<!-- Node10 -->
<g id="node11" class="node">
<title>Node10</title>
<g id="a_node11"><a xlink:href="$soft_8h.html" xlink:title="Functions and data structures for secondary structure soft constraints.">
<polygon fill="none" stroke="#000000" points="595.5,-123.5 595.5,-153.5 714.5,-153.5 714.5,-123.5 595.5,-123.5"/>
<text text-anchor="start" x="603.5" y="-141.5" font-family="Helvetica,sans-Serif" font-size="10.00" fill="#000000">ViennaRNA/constraints</text>
<text text-anchor="middle" x="655" y="-130.5" font-family="Helvetica,sans-Serif" font-size="10.00" fill="#000000">/soft.h</text>
</a>
</g>
</g>
<!-- Node1&#45;&gt;Node10 -->
<g id="edge35" class="edge">
<title>Node1&#45;&gt;Node10</title>
<path fill="none" stroke="#191970" d="M684.6036,-246.4178C675.5667,-225.7616 663.4066,-188.4031 657.375,-163.5206"/>
<polygon fill="#191970" stroke="#191970" points="660.7797,-162.7073 655.1922,-153.7056 653.9466,-164.2269 660.7797,-162.7073"/>
</g>
<!-- Node11 -->
<g id="node12" class="node">
<title>Node11</title>
<g id="a_node12"><a xlink:href="$grammar_8h.html" xlink:title="Implementations for the RNA folding grammar.">
<polygon fill="none" stroke="#000000" points="732.5,-129 732.5,-148 849.5,-148 849.5,-129 732.5,-129"/>
<text text-anchor="middle" x="791" y="-136" font-family="Helvetica,sans-Serif" font-size="10.00" fill="#000000">ViennaRNA/grammar.h</text>
</a>
</g>
</g>
<!-- Node1&#45;&gt;Node11 -->
<g id="edge36" class="edge">
<title>Node1&#45;&gt;Node11</title>
<path fill="none" stroke="#191970" d="M705.8941,-246.4178C723.9166,-223.5645 758.062,-180.2667 777.1683,-156.0392"/>
<polygon fill="#191970" stroke="#191970" points="780.0252,-158.0687 783.4693,-148.0493 774.5287,-153.7341 780.0252,-158.0687"/>
</g>
<!-- Node12 -->
<g id="node13" class="node">
<title>Node12</title>
<g id="a_node13"><a xlink:href="$structured__domains_8h.html" xlink:title="This module provides interfaces that deal with additional structured domains in the folding grammar.">
<polygon fill="none" stroke="#000000" points="867.5,-123.5 867.5,-153.5 982.5,-153.5 982.5,-123.5 867.5,-123.5"/>
<text text-anchor="start" x="875.5" y="-141.5" font-family="Helvetica,sans-Serif" font-size="10.00" fill="#000000">ViennaRNA/structured</text>
<text text-anchor="middle" x="925" y="-130.5" font-family="Helvetica,sans-Serif" font-size="10.00" fill="#000000">_domains.h</text>
</a>
</g>
</g>
<!-- Node1&#45;&gt;Node12 -->
<g id="edge37" class="edge">
<title>Node1&#45;&gt;Node12</title>
<path fill="none" stroke="#191970" d="M722.3251,-246.4178C763.9154,-224.2723 841.5602,-182.929 887.7322,-158.3439"/>
<polygon fill="#191970" stroke="#191970" points="889.6231,-161.3023 896.8049,-153.513 886.3332,-155.1236 889.6231,-161.3023"/>
</g>
<!-- Node13 -->
<g id="node14" class="node">
<title>Node13</title>
<g id="a_node14"><a xlink:href="$unstructured__domains_8h.html" xlink:title="Functions to modify unstructured domains, e.g. to incorporate ligands binding to unpaired stretches.">
<polygon fill="none" stroke="#000000" points="1000.5,-123.5 1000.5,-153.5 1125.5,-153.5 1125.5,-123.5 1000.5,-123.5"/>
<text text-anchor="start" x="1008.5" y="-141.5" font-family="Helvetica,sans-Serif" font-size="10.00" fill="#000000">ViennaRNA/unstructured</text>
<text text-anchor="middle" x="1063" y="-130.5" font-family="Helvetica,sans-Serif" font-size="10.00" fill="#000000">_domains.h</text>
</a>
</g>
</g>
<!-- Node1&#45;&gt;Node13 -->
<g id="edge38" class="edge">
<title>Node1&#45;&gt;Node13</title>
<path fill="none" stroke="#191970" d="M734.6324,-246.4178C799.8666,-223.7637 927.983,-181.02 1003.5105,-156.6771"/>
<polygon fill="#191970" stroke="#191970" points="1004.9057,-159.9051 1013.3551,-153.513 1002.7638,-153.2408 1004.9057,-159.9051"/>
</g>
<!-- Node14 -->
<g id="node15" class="node">
<title>Node14</title>
<g id="a_node15"><a xlink:href="$utils_2structures_8h.html" xlink:title="Various utility&#45; and helper&#45;functions for secondary structure parsing, converting,...">
<polygon fill="none" stroke="#000000" points="1129,-62 1129,-81 1273,-81 1273,-62 1129,-62"/>
<text text-anchor="middle" x="1201" y="-69" font-family="Helvetica,sans-Serif" font-size="10.00" fill="#000000">ViennaRNA/utils/structures.h</text>
</a>
</g>
</g>
<!-- Node1&#45;&gt;Node14 -->
<g id="edge39" class="edge">
<title>Node1&#45;&gt;Node14</title>
<path fill="none" stroke="#191970" d="M761.3479,-255.2349C851.1426,-246.6701 1004.6938,-230.0572 1058,-210 1100.3415,-194.0685 1111.7648,-186.7258 1143,-154 1161.2448,-134.8845 1175.6927,-107.783 1186.1852,-89.9314"/>
<polygon fill="#191970" stroke="#191970" points="1189.3707,-91.4312 1191.6064,-81.0749 1183.4004,-87.7766 1189.3707,-91.4312"/>
</g>
<!-- Node3 -->
<g id="node4" class="node">
<title>Node3</title>
<g id="a_node4"><a xlink:title=" ">
<polygon fill="none" stroke="#bfbfbf" points="55,-.5 55,-19.5 103,-19.5 103,-.5 55,-.5"/>
<text text-anchor="middle" x="79" y="-7.5" font-family="Helvetica,sans-Serif" font-size="10.00" fill="#000000">limits.h</text>
</a>
</g>
</g>
<!-- Node2&#45;&gt;Node3 -->
<g id="edge3" class="edge">
<title>Node2&#45;&gt;Node3</title>
<path fill="none" stroke="#191970" d="M79,-61.8906C79,-53.3657 79,-40.6392 79,-29.9235"/>
<polygon fill="#191970" stroke="#191970" points="82.5001,-29.7448 79,-19.7449 75.5001,-29.7449 82.5001,-29.7448"/>
</g>
<!-- Node4&#45;&gt;Node0 -->
<g id="edge13" class="edge">
<title>Node4&#45;&gt;Node0</title>
<path fill="none" stroke="#191970" d="M593.9155,-209.5002C603.517,-224.055 616.1057,-252.7375 627,-277 630.9006,-285.6869 635.2658,-295.2706 638.3171,-303.4317"/>
<polygon fill="#191970" stroke="#191970" points="635.0434,-304.6858 641.4218,-313.1456 641.7112,-302.5547 635.0434,-304.6858"/>
</g>
<!-- Node4&#45;&gt;Node5 -->
<g id="edge5" class="edge">
<title>Node4&#45;&gt;Node5</title>
<path fill="none" stroke="#191970" d="M510.6531,-193.5328C423.7445,-185.2094 288.4496,-169.9151 271,-154 253.6955,-138.2172 250.1682,-110.2373 249.9814,-91.2857"/>
<polygon fill="#191970" stroke="#191970" points="253.4847,-91.1561 250.1909,-81.0863 246.4862,-91.0123 253.4847,-91.1561"/>
</g>
<!-- Node4&#45;&gt;Node6 -->
<g id="edge6" class="edge">
<title>Node4&#45;&gt;Node6</title>
<path fill="none" stroke="#191970" d="M510.9407,-192.2611C438.7004,-183.8553 325.3681,-169.5343 228,-154 220.1627,-152.7496 211.9281,-151.3349 203.8999,-149.8812"/>
<polygon fill="#191970" stroke="#191970" points="204.3565,-146.4063 193.8866,-148.0285 203.0829,-153.2895 204.3565,-146.4063"/>
</g>
<!-- Node7 -->
<g id="node8" class="node">
<title>Node7</title>
<g id="a_node8"><a xlink:href="$sequence_8h.html" xlink:title="Functions and data structures related to sequence representations ,.">
<polygon fill="none" stroke="#000000" points="417,-129 417,-148 539,-148 539,-129 417,-129"/>
<text text-anchor="middle" x="478" y="-136" font-family="Helvetica,sans-Serif" font-size="10.00" fill="#000000">ViennaRNA/sequence.h</text>
</a>
</g>
</g>
<!-- Node4&#45;&gt;Node7 -->
<g id="edge11" class="edge">
<title>Node4&#45;&gt;Node7</title>
<path fill="none" stroke="#191970" d="M562.375,-190.3906C543.4108,-180.5067 516.365,-164.9749 497.9255,-153.4773"/>
<polygon fill="#191970" stroke="#191970" points="499.711,-150.4649 489.3969,-148.0419 495.9488,-156.368 499.711,-150.4649"/>
</g>
<!-- Node4&#45;&gt;Node8 -->
<g id="edge14" class="edge">
<title>Node4&#45;&gt;Node8</title>
<path fill="none" stroke="#191970" d="M540.9383,-190.4581C502.7328,-181.3183 446.5325,-167.3048 403.076,-156.1336"/>
<polygon fill="#191970" stroke="#191970" points="403.7246,-152.6864 393.1674,-153.5784 401.9766,-159.4647 403.7246,-152.6864"/>
</g>
<!-- Node4&#45;&gt;Node10 -->
<g id="edge18" class="edge">
<title>Node4&#45;&gt;Node10</title>
<path fill="none" stroke="#191970" d="M590.0313,-190.3906C597.7944,-182.2986 611.0361,-170.4207 623.6223,-160.0705"/>
<polygon fill="#191970" stroke="#191970" points="626.1365,-162.5399 631.7344,-153.5446 621.7488,-157.0856 626.1365,-162.5399"/>
</g>
<!-- Node4&#45;&gt;Node11 -->
<g id="edge22" class="edge">
<title>Node4&#45;&gt;Node11</title>
<path fill="none" stroke="#191970" d="M611.2813,-190.3906C645.1247,-179.7169 703.0655,-162.4566 744.0619,-150.8033"/>
<polygon fill="#191970" stroke="#191970" points="745.1627,-154.1293 753.8341,-148.0419 743.2591,-147.3931 745.1627,-154.1293"/>
</g>
<!-- Node4&#45;&gt;Node12 -->
<g id="edge24" class="edge">
<title>Node4&#45;&gt;Node12</title>
<path fill="none" stroke="#191970" d="M648.1172,-190.4814C701.6974,-182.2515 780.3282,-169.5363 857.5559,-154.225"/>
<polygon fill="#191970" stroke="#191970" points="858.3352,-157.6386 867.4552,-152.2464 856.9631,-150.7744 858.3352,-157.6386"/>
</g>
<!-- Node4&#45;&gt;Node13 -->
<g id="edge25" class="edge">
<title>Node4&#45;&gt;Node13</title>
<path fill="none" stroke="#191970" d="M657.3164,-193.4198C737.5874,-186.0672 869.7683,-172.6923 983,-154 985.3632,-153.6099 987.7664,-153.1924 990.1943,-152.7537"/>
<polygon fill="#191970" stroke="#191970" points="991.1001,-156.1445 1000.2754,-150.847 989.7992,-149.2665 991.1001,-156.1445"/>
</g>
<!-- Node6&#45;&gt;Node1 -->
<g id="edge8" class="edge">
<title>Node6&#45;&gt;Node1</title>
<path fill="none" stroke="#191970" d="M197.214,-148.0479C255.9663,-162.1558 363.8177,-189.1487 456,-210 509.7356,-222.1548 570.2897,-234.797 616.925,-244.5139"/>
<polygon fill="#191970" stroke="#191970" points="616.454,-247.9908 626.9577,-246.6042 617.8818,-241.138 616.454,-247.9908"/>
</g>
<!-- Node6&#45;&gt;Node2 -->
<g id="edge7" class="edge">
<title>Node6&#45;&gt;Node2</title>
<path fill="none" stroke="#191970" d="M143.2543,-128.9005C131.336,-118.2535 111.8943,-100.8856 97.5132,-88.0385"/>
<polygon fill="#191970" stroke="#191970" points="99.5151,-85.1337 89.7257,-81.0817 94.8516,-90.354 99.5151,-85.1337"/>
</g>
<!-- Node6&#45;&gt;Node4 -->
<g id="edge9" class="edge">
<title>Node6&#45;&gt;Node4</title>
<path fill="none" stroke="#191970" d="M211.3968,-148.0285C222.9036,-150.1109 234.8537,-152.2217 246,-154 332.6203,-167.8195 431.875,-180.6789 500.3667,-189.2676"/>
<polygon fill="#191970" stroke="#191970" points="500.3085,-192.7875 510.6656,-190.5561 501.1775,-185.8417 500.3085,-192.7875"/>
</g>
<!-- Node6&#45;&gt;Node5 -->
<g id="edge10" class="edge">
<title>Node6&#45;&gt;Node5</title>
<path fill="none" stroke="#191970" d="M167.8977,-128.9005C183.8164,-117.9052 210.1121,-99.7422 228.8599,-86.7927"/>
<polygon fill="#191970" stroke="#191970" points="230.8892,-89.6448 237.128,-81.0817 226.9108,-83.8852 230.8892,-89.6448"/>
</g>
<!-- Node7&#45;&gt;Node4 -->
<g id="edge12" class="edge">
<title>Node7&#45;&gt;Node4</title>
<path fill="none" stroke="#191970" d="M499.4955,-148.0419C518.4228,-157.9 545.4697,-173.4281 563.9483,-184.944"/>
<polygon fill="#191970" stroke="#191970" points="562.1852,-187.9707 572.5,-190.3906 565.9456,-182.0665 562.1852,-187.9707"/>
</g>
<!-- Node8&#45;&gt;Node4 -->
<g id="edge15" class="edge">
<title>Node8&#45;&gt;Node4</title>
<path fill="none" stroke="#191970" d="M398.7493,-152.0653C442.8401,-162.7678 501.704,-177.5613 541.1886,-187.8728"/>
<polygon fill="#191970" stroke="#191970" points="540.4759,-191.3042 551.0369,-190.4581 542.2533,-184.5336 540.4759,-191.3042"/>
</g>
<!-- Node9 -->
<g id="node10" class="node">
<title>Node9</title>
<g id="a_node10"><a xlink:href="$constraints_2basic_8h.html" xlink:title="Functions and data structures for constraining secondary structure predictions and evaluation.">
<polygon fill="none" stroke="#000000" points="507.5,-56.5 507.5,-86.5 626.5,-86.5 626.5,-56.5 507.5,-56.5"/>
<text text-anchor="start" x="515.5" y="-74.5" font-family="Helvetica,sans-Serif" font-size="10.00" fill="#000000">ViennaRNA/constraints</text>
<text text-anchor="middle" x="567" y="-63.5" font-family="Helvetica,sans-Serif" font-size="10.00" fill="#000000">/basic.h</text>
</a>
</g>
</g>
<!-- Node8&#45;&gt;Node9 -->
<g id="edge16" class="edge">
<title>Node8&#45;&gt;Node9</title>
<path fill="none" stroke="#191970" d="M390.1677,-123.4639C424.3705,-113.4131 469.5469,-100.1375 505.6756,-89.5208"/>
<polygon fill="#191970" stroke="#191970" points="507.0017,-92.7792 515.6092,-86.6017 505.028,-86.0631 507.0017,-92.7792"/>
</g>
<!-- Node9&#45;&gt;Node4 -->
<g id="edge17" class="edge">
<title>Node9&#45;&gt;Node4</title>
<path fill="none" stroke="#191970" d="M569.0111,-86.7016C572.0928,-109.9952 577.9831,-154.5195 581.39,-180.2718"/>
<polygon fill="#191970" stroke="#191970" points="577.9409,-180.8871 582.7222,-190.3416 584.8804,-179.9689 577.9409,-180.8871"/>
</g>
<!-- Node10&#45;&gt;Node1 -->
<g id="edge19" class="edge">
<title>Node10&#45;&gt;Node1</title>
<path fill="none" stroke="#191970" d="M664.4503,-153.7056C673.4996,-174.428 685.6537,-211.7948 691.6609,-236.6276"/>
<polygon fill="#191970" stroke="#191970" points="688.2499,-237.4128 693.8321,-246.4178 695.0839,-235.8972 688.2499,-237.4128"/>
</g>
<!-- Node10&#45;&gt;Node4 -->
<g id="edge20" class="edge">
<title>Node10&#45;&gt;Node4</title>
<path fill="none" stroke="#191970" d="M643.5285,-153.5446C633.9548,-162.7911 620.3249,-174.6276 608.429,-184.0385"/>
<polygon fill="#191970" stroke="#191970" points="605.9563,-181.5244 600.1563,-190.3906 610.2194,-187.0765 605.9563,-181.5244"/>
</g>
<!-- Node10&#45;&gt;Node9 -->
<g id="edge21" class="edge">
<title>Node10&#45;&gt;Node9</title>
<path fill="none" stroke="#191970" d="M635.0314,-123.2967C623.2175,-114.302 608.0694,-102.7687 595.0673,-92.8694"/>
<polygon fill="#191970" stroke="#191970" points="596.9662,-89.9162 586.8895,-86.6432 592.7257,-95.4857 596.9662,-89.9162"/>
</g>
<!-- Node11&#45;&gt;Node4 -->
<g id="edge23" class="edge">
<title>Node11&#45;&gt;Node4</title>
<path fill="none" stroke="#191970" d="M763.9327,-148.0419C730.1911,-158.6877 672.2656,-175.9459 631.1978,-187.6229"/>
<polygon fill="#191970" stroke="#191970" points="630.0772,-184.3025 621.4063,-190.3906 631.9813,-191.0385 630.0772,-184.3025"/>
</g>
<!-- Node13&#45;&gt;Node1 -->
<g id="edge26" class="edge">
<title>Node13&#45;&gt;Node1</title>
<path fill="none" stroke="#191970" d="M1022.5669,-153.513C957.4611,-176.126 829.3552,-218.868 753.7206,-243.2484"/>
<polygon fill="#191970" stroke="#191970" points="752.31,-240.0254 743.8609,-246.4178 754.4523,-246.6896 752.31,-240.0254"/>
</g>
<!-- Node13&#45;&gt;Node4 -->
<g id="edge27" class="edge">
<title>Node13&#45;&gt;Node4</title>
<path fill="none" stroke="#191970" d="M1003.6293,-153.5576C1002.7482,-153.7086 1001.8714,-153.8562 1001,-154 886.1089,-172.9662 751.7093,-186.4581 667.1439,-193.7392"/>
<polygon fill="#191970" stroke="#191970" points="666.7495,-190.26 657.0827,-194.5963 667.3437,-197.2348 666.7495,-190.26"/>
</g>
<!-- Node13&#45;&gt;Node14 -->
<g id="edge28" class="edge">
<title>Node13&#45;&gt;Node14</title>
<path fill="none" stroke="#191970" d="M1093.9699,-123.4639C1117.3331,-112.1209 1149.1559,-96.6707 1172.0194,-85.5703"/>
<polygon fill="#191970" stroke="#191970" points="1173.7516,-88.62 1181.2188,-81.1039 1170.6943,-82.323 1173.7516,-88.62"/>
</g>
<!-- Node14&#45;&gt;Node1 -->
<g id="edge30" class="edge">
<title>Node14&#45;&gt;Node1</title>
<path fill="none" stroke="#191970" d="M1202.4774,-81.0749C1198.9135,-97.4715 1182.6235,-131.3446 1161,-154 1129.7648,-186.7258 1118.3415,-194.0685 1076,-210 1022.2803,-230.2127 866.7545,-246.9276 771.4605,-255.4328"/>
<polygon fill="#191970" stroke="#191970" points="770.9453,-251.9645 761.2915,-256.3296 771.5603,-258.9375 770.9453,-251.9645"/>
</g>
<!-- Node15 -->
<g id="node16" class="node">
<title>Node15</title>
<g id="a_node16"><a xlink:title=" ">
<polygon fill="none" stroke="#bfbfbf" points="1178,-.5 1178,-19.5 1224,-19.5 1224,-.5 1178,-.5"/>
<text text-anchor="middle" x="1201" y="-7.5" font-family="Helvetica,sans-Serif" font-size="10.00" fill="#000000">stdio.h</text>
</a>
</g>
</g>
<!-- Node14&#45;&gt;Node15 -->
<g id="edge29" class="edge">
<title>Node14&#45;&gt;Node15</title>
<path fill="none" stroke="#191970" d="M1201,-61.8906C1201,-53.3657 1201,-40.6392 1201,-29.9235"/>
<polygon fill="#191970" stroke="#191970" points="1204.5001,-29.7448 1201,-19.7449 1197.5001,-29.7449 1204.5001,-29.7448"/>
</g>
</g>
</svg>
