<?xml version="1.0" encoding="UTF-8" standalone="no"?>
<!DOCTYPE svg PUBLIC "-//W3C//DTD SVG 1.1//EN"
 "http://www.w3.org/Graphics/SVG/1.1/DTD/svg11.dtd">
<!-- Generated by graphviz version 2.40.1 (0)
 -->
<!-- Title: ViennaRNA/dp_matrices.h Pages: 1 -->
<svg width="4532pt" height="531pt"
 viewBox="0.00 0.00 4532.41 531.00" xmlns="http://www.w3.org/2000/svg" xmlns:xlink="http://www.w3.org/1999/xlink">
<g id="graph0" class="graph" transform="scale(1 1) rotate(0) translate(4 527)">
<title>ViennaRNA/dp_matrices.h</title>
<!-- Node16 -->
<g id="node1" class="node">
<title>Node16</title>
<g id="a_node1"><a xlink:title="Functions to deal with standard dynamic programming (DP) matrices.">
<polygon fill="#bfbfbf" stroke="#000000" points="1864.906,-503.5 1864.906,-522.5 1997.906,-522.5 1997.906,-503.5 1864.906,-503.5"/>
<text text-anchor="middle" x="1931.406" y="-510.5" font-family="Helvetica,sans-Serif" font-size="10.00" fill="#000000">ViennaRNA/dp_matrices.h</text>
</a>
</g>
</g>
<!-- Node17 -->
<g id="node2" class="node">
<title>Node17</title>
<g id="a_node2"><a xlink:href="$fold__compound_8h.html" xlink:title="The Basic Fold Compound API.">
<polygon fill="none" stroke="#000000" points="2358.406,-447.5 2358.406,-466.5 2504.406,-466.5 2504.406,-447.5 2358.406,-447.5"/>
<text text-anchor="middle" x="2431.406" y="-454.5" font-family="Helvetica,sans-Serif" font-size="10.00" fill="#000000">ViennaRNA/fold_compound.h</text>
</a>
</g>
</g>
<!-- Node16&#45;&gt;Node17 -->
<g id="edge1" class="edge">
<title>Node16&#45;&gt;Node17</title>
<path fill="none" stroke="#191970" d="M2008.2939,-503.8113C2103.6117,-492.8852 2264.761,-474.8493 2358.2991,-464.649"/>
<polygon fill="#191970" stroke="#191970" points="2007.6788,-500.3588 1998.1432,-504.9766 2008.4772,-507.3131 2007.6788,-500.3588"/>
</g>
<!-- Node34 -->
<g id="node18" class="node">
<title>Node34</title>
<g id="a_node18"><a xlink:href="$datastructures_2basic_8h.html" xlink:title="Various data structures and pre&#45;processor macros.">
<polygon fill="none" stroke="#ff0000" points="1657.406,-246.5 1657.406,-276.5 1791.406,-276.5 1791.406,-246.5 1657.406,-246.5"/>
<text text-anchor="start" x="1665.406" y="-264.5" font-family="Helvetica,sans-Serif" font-size="10.00" fill="#000000">ViennaRNA/datastructures</text>
<text text-anchor="middle" x="1724.406" y="-253.5" font-family="Helvetica,sans-Serif" font-size="10.00" fill="#000000">/basic.h</text>
</a>
</g>
</g>
<!-- Node16&#45;&gt;Node34 -->
<g id="edge116" class="edge">
<title>Node16&#45;&gt;Node34</title>
<path fill="none" stroke="#191970" d="M1879.8996,-500.4231C1834.139,-485.8894 1769.0943,-457.7671 1731.406,-411 1699.6305,-371.57 1706.8263,-306.0463 1716.0923,-276.621"/>
<polygon fill="#191970" stroke="#191970" points="1879.0563,-503.8252 1889.6428,-503.4048 1881.1048,-497.1316 1879.0563,-503.8252"/>
</g>
<!-- Node17&#45;&gt;Node16 -->
<g id="edge14" class="edge">
<title>Node17&#45;&gt;Node16</title>
<path fill="none" stroke="#191970" d="M2347.8547,-466.9519C2249.5581,-478.1995 2088.4557,-496.218 1998.1051,-506.049"/>
<polygon fill="#191970" stroke="#191970" points="2348.5122,-470.3995 2358.0488,-465.7838 2347.7153,-463.445 2348.5122,-470.3995"/>
</g>
<!-- Node18 -->
<g id="node3" class="node">
<title>Node18</title>
<g id="a_node3"><a xlink:href="$2Dfold_8h.html" xlink:title="MFE structures for base pair distance classes.">
<polygon fill="none" stroke="#000000" points="1938.406,-118 1938.406,-137 2046.406,-137 2046.406,-118 1938.406,-118"/>
<text text-anchor="middle" x="1992.406" y="-125" font-family="Helvetica,sans-Serif" font-size="10.00" fill="#000000">ViennaRNA/2Dfold.h</text>
</a>
</g>
</g>
<!-- Node17&#45;&gt;Node18 -->
<g id="edge2" class="edge">
<title>Node17&#45;&gt;Node18</title>
<path fill="none" stroke="#191970" d="M2415.7465,-439.4005C2409.5022,-431.3187 2402.9631,-421.2603 2399.406,-411 2389.6347,-382.8149 2396.9272,-373.792 2395.406,-344 2394.9382,-334.837 2394.6323,-185.7389 2388.406,-179 2343.5887,-130.4929 2158.8304,-152.01 2093.406,-143 2078.2044,-140.9065 2061.7445,-138.4581 2046.6124,-136.1337"/>
<polygon fill="#191970" stroke="#191970" points="2413.1963,-441.8099 2422.2514,-447.3104 2418.6029,-437.3636 2413.1963,-441.8099"/>
</g>
<!-- Node19 -->
<g id="node4" class="node">
<title>Node19</title>
<g id="a_node4"><a xlink:href="$2Dpfold_8h.html" xlink:title="Partition function implementations for base pair distance classes.">
<polygon fill="none" stroke="#000000" points="1690.906,-118 1690.906,-137 1803.906,-137 1803.906,-118 1690.906,-118"/>
<text text-anchor="middle" x="1747.406" y="-125" font-family="Helvetica,sans-Serif" font-size="10.00" fill="#000000">ViennaRNA/2Dpfold.h</text>
</a>
</g>
</g>
<!-- Node17&#45;&gt;Node19 -->
<g id="edge3" class="edge">
<title>Node17&#45;&gt;Node19</title>
<path fill="none" stroke="#191970" d="M2348.0278,-450.5239C2260.3362,-442.9197 2128.6356,-429.0231 2081.406,-411 2020.595,-387.7942 1960.406,-393.5884 1960.406,-328.5 1960.406,-328.5 1960.406,-328.5 1960.406,-261.5 1960.406,-223.3133 1963.6375,-205.7706 1936.406,-179 1930.9493,-173.6356 1839.7273,-150.3541 1786.0453,-137.0035"/>
<polygon fill="#191970" stroke="#191970" points="2347.9669,-454.0314 2358.2291,-451.3974 2348.5642,-447.0569 2347.9669,-454.0314"/>
</g>
<!-- Node20 -->
<g id="node5" class="node">
<title>Node20</title>
<g id="a_node5"><a xlink:href="$alphabet_8h.html" xlink:title="Functions to process, convert, and generally handle different nucleotide and/or base pair alphabets.">
<polygon fill="none" stroke="#ff0000" points="2776.406,-386 2776.406,-405 2892.406,-405 2892.406,-386 2776.406,-386"/>
<text text-anchor="middle" x="2834.406" y="-393" font-family="Helvetica,sans-Serif" font-size="10.00" fill="#000000">ViennaRNA/alphabet.h</text>
</a>
</g>
</g>
<!-- Node17&#45;&gt;Node20 -->
<g id="edge4" class="edge">
<title>Node17&#45;&gt;Node20</title>
<path fill="none" stroke="#191970" d="M2514.7119,-447.1548C2581.808,-438.8092 2678.4489,-425.85 2762.406,-411 2772.2269,-409.2629 2782.7473,-407.1454 2792.6292,-405.0406"/>
<polygon fill="#191970" stroke="#191970" points="2514.1128,-443.7022 2504.6181,-448.4033 2514.9721,-450.6492 2514.1128,-443.7022"/>
</g>
<!-- Node22 -->
<g id="node6" class="node">
<title>Node22</title>
<g id="a_node6"><a xlink:href="$boltzmann__sampling_8h.html" xlink:title="Boltzmann Sampling of secondary structures from the ensemble.">
<polygon fill="none" stroke="#000000" points="2654.406,-112.5 2654.406,-142.5 2770.406,-142.5 2770.406,-112.5 2654.406,-112.5"/>
<text text-anchor="start" x="2662.406" y="-130.5" font-family="Helvetica,sans-Serif" font-size="10.00" fill="#000000">ViennaRNA/boltzmann</text>
<text text-anchor="middle" x="2712.406" y="-119.5" font-family="Helvetica,sans-Serif" font-size="10.00" fill="#000000">_sampling.h</text>
</a>
</g>
</g>
<!-- Node17&#45;&gt;Node22 -->
<g id="edge5" class="edge">
<title>Node17&#45;&gt;Node22</title>
<path fill="none" stroke="#191970" d="M2514.6974,-456.3632C2876.3262,-453.427 4293.7638,-440.0789 4329.406,-411 4358.5605,-387.2141 4348.406,-366.1265 4348.406,-328.5 4348.406,-328.5 4348.406,-328.5 4348.406,-261.5 4348.406,-180.6372 3062.0681,-137.8193 2770.6321,-129.1561"/>
<polygon fill="#191970" stroke="#191970" points="2514.5346,-452.8643 2504.5632,-456.445 2514.5912,-459.8641 2514.5346,-452.8643"/>
</g>
<!-- Node24 -->
<g id="node8" class="node">
<title>Node24</title>
<g id="a_node8"><a xlink:href="$part__func_8h.html" xlink:title="Partition function implementations.">
<polygon fill="none" stroke="#000000" points="634.406,-56.5 634.406,-75.5 754.406,-75.5 754.406,-56.5 634.406,-56.5"/>
<text text-anchor="middle" x="694.406" y="-63.5" font-family="Helvetica,sans-Serif" font-size="10.00" fill="#000000">ViennaRNA/part_func.h</text>
</a>
</g>
</g>
<!-- Node17&#45;&gt;Node24 -->
<g id="edge86" class="edge">
<title>Node17&#45;&gt;Node24</title>
<path fill="none" stroke="#191970" d="M2348.1864,-456.9244C1944.6394,-456.3595 206.4603,-451.5718 99.406,-411 46.4839,-390.9434 2.406,-385.0952 2.406,-328.5 2.406,-328.5 2.406,-328.5 2.406,-194.5 2.406,-156.8735 -7.218,-136.4217 21.406,-112 44.5422,-92.2604 473.3451,-74.2649 634.1618,-68.1826"/>
<polygon fill="#191970" stroke="#191970" points="2348.3163,-460.4245 2358.321,-456.9381 2348.3258,-453.4245 2348.3163,-460.4245"/>
</g>
<!-- Node26 -->
<g id="node10" class="node">
<title>Node26</title>
<g id="a_node10"><a xlink:href="$centroid_8h.html" xlink:title="Centroid structure computation.">
<polygon fill="none" stroke="#000000" points="231.406,-185 231.406,-204 345.406,-204 345.406,-185 231.406,-185"/>
<text text-anchor="middle" x="288.406" y="-192" font-family="Helvetica,sans-Serif" font-size="10.00" fill="#000000">ViennaRNA/centroid.h</text>
</a>
</g>
</g>
<!-- Node17&#45;&gt;Node26 -->
<g id="edge10" class="edge">
<title>Node17&#45;&gt;Node26</title>
<path fill="none" stroke="#191970" d="M2347.9607,-456.1374C2187.2925,-453.7355 1824.0031,-444.7089 1520.406,-411 997.7521,-352.9688 869.7174,-314.8276 354.406,-210 345.6403,-208.2168 336.2623,-206.1263 327.4082,-204.0681"/>
<polygon fill="#191970" stroke="#191970" points="2348.1982,-459.6411 2358.2479,-456.2863 2348.2996,-452.6419 2348.1982,-459.6411"/>
</g>
<!-- Node27 -->
<g id="node11" class="node">
<title>Node27</title>
<g id="a_node11"><a xlink:href="$combinatorics_8h.html" xlink:title="Various implementations that deal with combinatorial aspects of objects.">
<polygon fill="none" stroke="#000000" points="2910.406,-386 2910.406,-405 3050.406,-405 3050.406,-386 2910.406,-386"/>
<text text-anchor="middle" x="2980.406" y="-393" font-family="Helvetica,sans-Serif" font-size="10.00" fill="#000000">ViennaRNA/combinatorics.h</text>
</a>
</g>
</g>
<!-- Node17&#45;&gt;Node27 -->
<g id="edge12" class="edge">
<title>Node17&#45;&gt;Node27</title>
<path fill="none" stroke="#191970" d="M2514.5719,-451.2901C2608.7343,-444.262 2766.5908,-430.7761 2901.406,-411 2912.6073,-409.3569 2924.6292,-407.2018 2935.831,-405.0232"/>
<polygon fill="#191970" stroke="#191970" points="2514.2512,-447.8042 2504.5367,-452.0327 2514.7678,-454.7851 2514.2512,-447.8042"/>
</g>
<!-- Node28 -->
<g id="node12" class="node">
<title>Node28</title>
<g id="a_node12"><a xlink:href="$commands_8h.html" xlink:title="Parse and apply different commands that alter the behavior of secondary structure prediction and eval...">
<polygon fill="none" stroke="#000000" points="3068.406,-386 3068.406,-405 3196.406,-405 3196.406,-386 3068.406,-386"/>
<text text-anchor="middle" x="3132.406" y="-393" font-family="Helvetica,sans-Serif" font-size="10.00" fill="#000000">ViennaRNA/commands.h</text>
</a>
</g>
</g>
<!-- Node17&#45;&gt;Node28 -->
<g id="edge13" class="edge">
<title>Node17&#45;&gt;Node28</title>
<path fill="none" stroke="#191970" d="M2515.0264,-454.4937C2635.7461,-450.0565 2865.6355,-438.5377 3059.406,-411 3070.1809,-409.4687 3081.7444,-407.2735 3092.4189,-405.015"/>
<polygon fill="#191970" stroke="#191970" points="2514.6203,-451.006 2504.7529,-454.8638 2514.8724,-458.0014 2514.6203,-451.006"/>
</g>
<!-- Node29 -->
<g id="node13" class="node">
<title>Node29</title>
<g id="a_node13"><a xlink:href="$equilibrium__probs_8h.html" xlink:title="Equilibrium Probability implementations.">
<polygon fill="none" stroke="#000000" points="30.406,-112.5 30.406,-142.5 148.406,-142.5 148.406,-112.5 30.406,-112.5"/>
<text text-anchor="start" x="38.406" y="-130.5" font-family="Helvetica,sans-Serif" font-size="10.00" fill="#000000">ViennaRNA/equilibrium</text>
<text text-anchor="middle" x="89.406" y="-119.5" font-family="Helvetica,sans-Serif" font-size="10.00" fill="#000000">_probs.h</text>
</a>
</g>
</g>
<!-- Node17&#45;&gt;Node29 -->
<g id="edge15" class="edge">
<title>Node17&#45;&gt;Node29</title>
<path fill="none" stroke="#191970" d="M2347.9828,-456.4215C1941.7494,-453.4696 188.1728,-439.1166 139.406,-411 102.2623,-389.5847 89.406,-371.3751 89.406,-328.5 89.406,-328.5 89.406,-328.5 89.406,-261.5 89.406,-218.4618 89.406,-167.6482 89.406,-142.7729"/>
<polygon fill="#191970" stroke="#191970" points="2348.1589,-459.9228 2358.184,-456.4953 2348.2096,-452.923 2348.1589,-459.9228"/>
</g>
<!-- Node30 -->
<g id="node14" class="node">
<title>Node30</title>
<g id="a_node14"><a xlink:href="$eval_8h.html" xlink:title="Functions and variables related to energy evaluation of sequence/structure pairs.">
<polygon fill="none" stroke="#000000" points="1822.406,-118 1822.406,-137 1920.406,-137 1920.406,-118 1822.406,-118"/>
<text text-anchor="middle" x="1871.406" y="-125" font-family="Helvetica,sans-Serif" font-size="10.00" fill="#000000">ViennaRNA/eval.h</text>
</a>
</g>
</g>
<!-- Node17&#45;&gt;Node30 -->
<g id="edge18" class="edge">
<title>Node17&#45;&gt;Node30</title>
<path fill="none" stroke="#191970" d="M2348.1127,-446.976C2232.2234,-430.6661 2036.406,-393.4914 2036.406,-328.5 2036.406,-328.5 2036.406,-328.5 2036.406,-261.5 2036.406,-193.4149 1950.7029,-153.8668 1902.8296,-137.0865"/>
<polygon fill="#191970" stroke="#191970" points="2347.6499,-450.4452 2358.0353,-448.3491 2348.6094,-443.5113 2347.6499,-450.4452"/>
</g>
<!-- Node32 -->
<g id="node16" class="node">
<title>Node32</title>
<g id="a_node16"><a xlink:href="$gquad_8h.html" xlink:title="G&#45;quadruplexes.">
<polygon fill="none" stroke="#000000" points="204.406,-118 204.406,-137 310.406,-137 310.406,-118 204.406,-118"/>
<text text-anchor="middle" x="257.406" y="-125" font-family="Helvetica,sans-Serif" font-size="10.00" fill="#000000">ViennaRNA/gquad.h</text>
</a>
</g>
</g>
<!-- Node17&#45;&gt;Node32 -->
<g id="edge20" class="edge">
<title>Node17&#45;&gt;Node32</title>
<path fill="none" stroke="#191970" d="M2348.3334,-456.5062C1989.937,-454.1888 585.4116,-443.1206 390.406,-411 269.5299,-391.0897 127.406,-451.0049 127.406,-328.5 127.406,-328.5 127.406,-328.5 127.406,-261.5 127.406,-199.5916 199.7713,-155.4702 236.5193,-137.056"/>
<polygon fill="#191970" stroke="#191970" points="2348.3549,-460.0063 2358.3772,-456.5706 2348.3998,-453.0065 2348.3549,-460.0063"/>
</g>
<!-- Node33 -->
<g id="node17" class="node">
<title>Node33</title>
<g id="a_node17"><a xlink:href="$grammar_8h.html" xlink:title="Implementations for the RNA folding grammar.">
<polygon fill="none" stroke="#000000" points="1776.906,-386 1776.906,-405 1893.906,-405 1893.906,-386 1776.906,-386"/>
<text text-anchor="middle" x="1835.406" y="-393" font-family="Helvetica,sans-Serif" font-size="10.00" fill="#000000">ViennaRNA/grammar.h</text>
</a>
</g>
</g>
<!-- Node17&#45;&gt;Node33 -->
<g id="edge21" class="edge">
<title>Node17&#45;&gt;Node33</title>
<path fill="none" stroke="#191970" d="M2348.1459,-453.1542C2242.9589,-447.3815 2056.8764,-434.5537 1899.406,-411 1888.8989,-409.4284 1877.633,-407.2733 1867.4684,-405.0697"/>
<polygon fill="#191970" stroke="#191970" points="2348.2064,-456.6625 2358.3808,-453.7076 2348.5844,-449.6727 2348.2064,-456.6625"/>
</g>
<!-- Node17&#45;&gt;Node34 -->
<g id="edge115" class="edge">
<title>Node17&#45;&gt;Node34</title>
<path fill="none" stroke="#191970" d="M2348.1678,-453.7613C2174.9044,-446.6754 1789.6514,-428.9871 1767.406,-411 1726.2443,-377.7176 1722.9056,-307.7647 1723.6017,-276.8026"/>
<polygon fill="#191970" stroke="#191970" points="2348.1313,-457.2626 2358.2653,-454.172 2348.4159,-450.2684 2348.1313,-457.2626"/>
</g>
<!-- Node43 -->
<g id="node26" class="node">
<title>Node43</title>
<g id="a_node26"><a xlink:href="$mfe_8h.html" xlink:title="Compute Minimum Free energy (MFE) and backtrace corresponding secondary structures from RNA sequence ...">
<polygon fill="none" stroke="#000000" points="2436.406,-185 2436.406,-204 2532.406,-204 2532.406,-185 2436.406,-185"/>
<text text-anchor="middle" x="2484.406" y="-192" font-family="Helvetica,sans-Serif" font-size="10.00" fill="#000000">ViennaRNA/mfe.h</text>
</a>
</g>
</g>
<!-- Node17&#45;&gt;Node43 -->
<g id="edge83" class="edge">
<title>Node17&#45;&gt;Node43</title>
<path fill="none" stroke="#191970" d="M2421.8891,-438.0435C2409.2111,-410.1988 2389.8671,-356.799 2403.406,-313 2417.6099,-267.0499 2456.4353,-223.0316 2474.6845,-204.1491"/>
<polygon fill="#191970" stroke="#191970" points="2418.8804,-439.8663 2426.3392,-447.3907 2425.2007,-436.8572 2418.8804,-439.8663"/>
</g>
<!-- Node45 -->
<g id="node28" class="node">
<title>Node45</title>
<g id="a_node28"><a xlink:href="$part__func__window_8h.html" xlink:title="Partition function and equilibrium probability implementation for the sliding window algorithm.">
<polygon fill="none" stroke="#000000" points="363.406,-179.5 363.406,-209.5 475.406,-209.5 475.406,-179.5 363.406,-179.5"/>
<text text-anchor="start" x="371.406" y="-197.5" font-family="Helvetica,sans-Serif" font-size="10.00" fill="#000000">ViennaRNA/part_func</text>
<text text-anchor="middle" x="419.406" y="-186.5" font-family="Helvetica,sans-Serif" font-size="10.00" fill="#000000">_window.h</text>
</a>
</g>
</g>
<!-- Node17&#45;&gt;Node45 -->
<g id="edge87" class="edge">
<title>Node17&#45;&gt;Node45</title>
<path fill="none" stroke="#191970" d="M2348.1718,-456.6058C2143.5816,-455.0732 1627.7538,-447.5839 1559.406,-411 1478.7644,-367.8357 1517.3704,-288.5557 1436.406,-246 1342.314,-196.5443 585.615,-225.1736 480.406,-210 478.7838,-209.766 477.1422,-209.5063 475.4892,-209.2245"/>
<polygon fill="#191970" stroke="#191970" points="2348.2386,-460.1063 2358.2636,-456.6785 2348.2891,-453.1065 2348.2386,-460.1063"/>
</g>
<!-- Node51 -->
<g id="node30" class="node">
<title>Node51</title>
<g id="a_node30"><a xlink:href="$subopt_8h.html" xlink:title="RNAsubopt and density of states declarations.">
<polygon fill="none" stroke="#000000" points="328.906,-118 328.906,-137 437.906,-137 437.906,-118 328.906,-118"/>
<text text-anchor="middle" x="383.406" y="-125" font-family="Helvetica,sans-Serif" font-size="10.00" fill="#000000">ViennaRNA/subopt.h</text>
</a>
</g>
</g>
<!-- Node17&#45;&gt;Node51 -->
<g id="edge91" class="edge">
<title>Node17&#45;&gt;Node51</title>
<path fill="none" stroke="#191970" d="M2348.0659,-456.6362C1943.4693,-454.3351 203.406,-438.0693 203.406,-328.5 203.406,-328.5 203.406,-328.5 203.406,-261.5 203.406,-223.8735 196.93,-206.6899 222.406,-179 231.0494,-169.6055 302.3212,-149.1899 347.0928,-137.0751"/>
<polygon fill="#191970" stroke="#191970" points="2348.2081,-460.137 2358.2274,-456.6927 2348.247,-453.1371 2348.2081,-460.137"/>
</g>
<!-- Node52 -->
<g id="node31" class="node">
<title>Node52</title>
<g id="a_node31"><a xlink:href="$unstructured__domains_8h.html" xlink:title="Functions to modify unstructured domains, e.g. to incorporate ligands binding to unpaired stretches.">
<polygon fill="none" stroke="#000000" points="2254.906,-179.5 2254.906,-209.5 2379.906,-209.5 2379.906,-179.5 2254.906,-179.5"/>
<text text-anchor="start" x="2262.906" y="-197.5" font-family="Helvetica,sans-Serif" font-size="10.00" fill="#000000">ViennaRNA/unstructured</text>
<text text-anchor="middle" x="2317.406" y="-186.5" font-family="Helvetica,sans-Serif" font-size="10.00" fill="#000000">_domains.h</text>
</a>
</g>
</g>
<!-- Node17&#45;&gt;Node52 -->
<g id="edge92" class="edge">
<title>Node17&#45;&gt;Node52</title>
<path fill="none" stroke="#191970" d="M2369.4159,-443.9658C2351.5965,-437.0468 2334.1447,-426.6127 2323.406,-411 2279.7418,-347.5175 2296.2661,-247.3039 2309.2694,-209.5527"/>
<polygon fill="#191970" stroke="#191970" points="2368.7182,-447.431 2379.313,-447.4586 2371.0478,-440.8301 2368.7182,-447.431"/>
</g>
<!-- Node53 -->
<g id="node32" class="node">
<title>Node53</title>
<g id="a_node32"><a xlink:href="$params_2basic_8h.html" xlink:title="Functions to deal with sets of energy parameters.">
<polygon fill="none" stroke="#ff0000" points="683.406,-185 683.406,-204 821.406,-204 821.406,-185 683.406,-185"/>
<text text-anchor="middle" x="752.406" y="-192" font-family="Helvetica,sans-Serif" font-size="10.00" fill="#000000">ViennaRNA/params/basic.h</text>
</a>
</g>
</g>
<!-- Node17&#45;&gt;Node53 -->
<g id="edge93" class="edge">
<title>Node17&#45;&gt;Node53</title>
<path fill="none" stroke="#191970" d="M2348.2033,-455.0305C2174.5671,-450.3117 1785.5101,-436.7887 1731.406,-411 1641.1281,-367.969 1669.042,-288.2717 1578.406,-246 1505.4108,-211.9558 934.5926,-217.577 854.406,-210 838.1339,-208.4624 820.5895,-206.265 804.6775,-204.0064"/>
<polygon fill="#191970" stroke="#191970" points="2348.2289,-458.5324 2358.3192,-455.3021 2348.4168,-451.5349 2348.2289,-458.5324"/>
</g>
<!-- Node56 -->
<g id="node33" class="node">
<title>Node56</title>
<g id="a_node33"><a xlink:href="$external_8h.html" xlink:title="Energy evaluation of exterior loops for MFE and partition function calculations.">
<polygon fill="none" stroke="#ff0000" points="2226.406,-118 2226.406,-137 2366.406,-137 2366.406,-118 2226.406,-118"/>
<text text-anchor="middle" x="2296.406" y="-125" font-family="Helvetica,sans-Serif" font-size="10.00" fill="#000000">ViennaRNA/loops/external.h</text>
</a>
</g>
</g>
<!-- Node17&#45;&gt;Node56 -->
<g id="edge94" class="edge">
<title>Node17&#45;&gt;Node56</title>
<path fill="none" stroke="#191970" d="M2514.6664,-445.7172C2549.0358,-438.8404 2588.4542,-427.9766 2621.406,-411 2651.7255,-395.3795 2839.2364,-241.0241 2853.406,-210 2859.1299,-197.4675 2862.6891,-189.181 2853.406,-179 2849.3395,-174.5401 2515.4392,-145.9291 2366.6256,-133.3824"/>
<polygon fill="#191970" stroke="#191970" points="2513.8086,-442.3179 2504.647,-447.6392 2515.1274,-449.1925 2513.8086,-442.3179"/>
</g>
<!-- Node60 -->
<g id="node34" class="node">
<title>Node60</title>
<g id="a_node34"><a xlink:href="$hairpin_8h.html" xlink:title="Energy evaluation of hairpin loops for MFE and partition function calculations.">
<polygon fill="none" stroke="#ff0000" points="582.406,-118 582.406,-137 716.406,-137 716.406,-118 582.406,-118"/>
<text text-anchor="middle" x="649.406" y="-125" font-family="Helvetica,sans-Serif" font-size="10.00" fill="#000000">ViennaRNA/loops/hairpin.h</text>
</a>
</g>
</g>
<!-- Node17&#45;&gt;Node60 -->
<g id="edge95" class="edge">
<title>Node17&#45;&gt;Node60</title>
<path fill="none" stroke="#191970" d="M2348.1299,-454.4254C2168.3922,-448.4895 1755.4277,-432.6737 1695.406,-411 1578.4327,-368.7612 1586.7637,-287.1587 1469.406,-246 1383.5558,-215.8914 715.0982,-274.9623 651.406,-210 632.3484,-190.5624 640.4778,-154.533 645.9361,-137.2473"/>
<polygon fill="#191970" stroke="#191970" points="2348.2201,-457.9302 2358.3295,-454.7599 2348.4496,-450.9339 2348.2201,-457.9302"/>
</g>
<!-- Node62 -->
<g id="node35" class="node">
<title>Node62</title>
<g id="a_node35"><a xlink:href="$internal_8h.html" xlink:title="Energy evaluation of interior loops for MFE and partition function calculations.">
<polygon fill="none" stroke="#ff0000" points="2498.906,-118 2498.906,-137 2635.906,-137 2635.906,-118 2498.906,-118"/>
<text text-anchor="middle" x="2567.406" y="-125" font-family="Helvetica,sans-Serif" font-size="10.00" fill="#000000">ViennaRNA/loops/internal.h</text>
</a>
</g>
</g>
<!-- Node17&#45;&gt;Node62 -->
<g id="edge96" class="edge">
<title>Node17&#45;&gt;Node62</title>
<path fill="none" stroke="#191970" d="M2514.5618,-449.7477C2583.8655,-442.5188 2676.2562,-429.7722 2708.406,-411 2807.4886,-353.146 2832.231,-318.1994 2870.406,-210 2874.9901,-197.0072 2879.3457,-189.4838 2870.406,-179 2837.5509,-140.4702 2695.2472,-151.9362 2645.406,-143 2635.2137,-141.1726 2624.2986,-139.0855 2613.9592,-137.0478"/>
<polygon fill="#191970" stroke="#191970" points="2514.1065,-446.2759 2504.5141,-450.7742 2514.8181,-453.2396 2514.1065,-446.2759"/>
</g>
<!-- Node64 -->
<g id="node36" class="node">
<title>Node64</title>
<g id="a_node36"><a xlink:href="$multibranch_8h.html" xlink:title="Energy evaluation of multibranch loops for MFE and partition function calculations.">
<polygon fill="none" stroke="#ff0000" points="1516.406,-118 1516.406,-137 1672.406,-137 1672.406,-118 1516.406,-118"/>
<text text-anchor="middle" x="1594.406" y="-125" font-family="Helvetica,sans-Serif" font-size="10.00" fill="#000000">ViennaRNA/loops/multibranch.h</text>
</a>
</g>
</g>
<!-- Node17&#45;&gt;Node64 -->
<g id="edge97" class="edge">
<title>Node17&#45;&gt;Node64</title>
<path fill="none" stroke="#191970" d="M2347.6225,-452.0006C2226.9405,-444.2532 2015.2166,-428.4141 1984.406,-411 1944.4758,-388.4315 1922.406,-374.3667 1922.406,-328.5 1922.406,-328.5 1922.406,-328.5 1922.406,-261.5 1922.406,-197.8726 1863.3263,-205.3379 1805.406,-179 1776.6587,-165.9279 1695.1999,-147.9145 1642.3144,-137.0221"/>
<polygon fill="#191970" stroke="#191970" points="2347.7337,-455.5147 2357.9359,-452.6572 2348.1785,-448.5288 2347.7337,-455.5147"/>
</g>
<!-- Node66 -->
<g id="node37" class="node">
<title>Node66</title>
<g id="a_node37"><a xlink:href="$ligand_8h.html" xlink:title="Functions for incorporation of ligands binding to hairpin and interior loop motifs using the soft con...">
<polygon fill="none" stroke="#ff0000" points="2588.906,-179.5 2588.906,-209.5 2707.906,-209.5 2707.906,-179.5 2588.906,-179.5"/>
<text text-anchor="start" x="2596.906" y="-197.5" font-family="Helvetica,sans-Serif" font-size="10.00" fill="#000000">ViennaRNA/constraints</text>
<text text-anchor="middle" x="2648.406" y="-186.5" font-family="Helvetica,sans-Serif" font-size="10.00" fill="#000000">/ligand.h</text>
</a>
</g>
</g>
<!-- Node17&#45;&gt;Node66 -->
<g id="edge105" class="edge">
<title>Node17&#45;&gt;Node66</title>
<path fill="none" stroke="#191970" d="M2498.1629,-445.4949C2537.6193,-437.3781 2582.5129,-425.4048 2596.406,-411 2651.552,-353.8227 2651.6707,-248.9329 2649.5716,-209.7757"/>
<polygon fill="#191970" stroke="#191970" points="2497.3897,-442.0801 2488.2709,-447.4745 2498.7634,-448.944 2497.3897,-442.0801"/>
</g>
<!-- Node69 -->
<g id="node38" class="node">
<title>Node69</title>
<g id="a_node38"><a xlink:href="$soft_8h.html" xlink:title="Functions and data structures for secondary structure soft constraints.">
<polygon fill="none" stroke="#ff0000" points="2725.906,-179.5 2725.906,-209.5 2844.906,-209.5 2844.906,-179.5 2725.906,-179.5"/>
<text text-anchor="start" x="2733.906" y="-197.5" font-family="Helvetica,sans-Serif" font-size="10.00" fill="#000000">ViennaRNA/constraints</text>
<text text-anchor="middle" x="2785.406" y="-186.5" font-family="Helvetica,sans-Serif" font-size="10.00" fill="#000000">/soft.h</text>
</a>
</g>
</g>
<!-- Node17&#45;&gt;Node69 -->
<g id="edge107" class="edge">
<title>Node17&#45;&gt;Node69</title>
<path fill="none" stroke="#191970" d="M2514.8388,-447.4355C2570.0432,-439.9711 2636.2709,-427.9934 2659.406,-411 2730.6833,-358.6449 2763.1892,-249.4049 2777.7797,-209.5046"/>
<polygon fill="#191970" stroke="#191970" points="2514.1283,-443.9988 2504.672,-448.7769 2515.044,-450.9386 2514.1283,-443.9988"/>
</g>
<!-- Node86 -->
<g id="node39" class="node">
<title>Node86</title>
<g id="a_node39"><a xlink:href="$mfe__window_8h.html" xlink:title="Compute local Minimum Free Energy (MFE) using a sliding window approach and backtrace corresponding s...">
<polygon fill="none" stroke="#ff0000" points="3214.406,-386 3214.406,-405 3348.406,-405 3348.406,-386 3214.406,-386"/>
<text text-anchor="middle" x="3281.406" y="-393" font-family="Helvetica,sans-Serif" font-size="10.00" fill="#000000">ViennaRNA/mfe_window.h</text>
</a>
</g>
</g>
<!-- Node17&#45;&gt;Node86 -->
<g id="edge84" class="edge">
<title>Node17&#45;&gt;Node86</title>
<path fill="none" stroke="#191970" d="M2514.9503,-455.9113C2657.2588,-453.1919 2955.5601,-443.7341 3205.406,-411 3216.7552,-409.5131 3228.9464,-407.3048 3240.1693,-405.018"/>
<polygon fill="#191970" stroke="#191970" points="2514.4964,-452.419 2504.5628,-456.103 2514.6257,-459.4178 2514.4964,-452.419"/>
</g>
<!-- Node88 -->
<g id="node40" class="node">
<title>Node88</title>
<g id="a_node40"><a xlink:href="$mm_8h.html" xlink:title="Several Maximum Matching implementations.">
<polygon fill="none" stroke="#000000" points="3366.406,-386 3366.406,-405 3462.406,-405 3462.406,-386 3366.406,-386"/>
<text text-anchor="middle" x="3414.406" y="-393" font-family="Helvetica,sans-Serif" font-size="10.00" fill="#000000">ViennaRNA/mm.h</text>
</a>
</g>
</g>
<!-- Node17&#45;&gt;Node88 -->
<g id="edge85" class="edge">
<title>Node17&#45;&gt;Node88</title>
<path fill="none" stroke="#191970" d="M2514.7361,-455.1636C2710.7201,-450.4719 3196.4496,-436.5743 3357.406,-411 3366.2175,-409.5999 3375.6231,-407.3613 3384.2013,-405.0158"/>
<polygon fill="#191970" stroke="#191970" points="2514.412,-451.6702 2504.4979,-455.4066 2514.5782,-458.6682 2514.412,-451.6702"/>
</g>
<!-- Node89 -->
<g id="node41" class="node">
<title>Node89</title>
<g id="a_node41"><a xlink:href="$perturbation__fold_8h.html" xlink:title="Find a vector of perturbation energies that minimizes the discripancies between predicted and observe...">
<polygon fill="none" stroke="#000000" points="3480.406,-380.5 3480.406,-410.5 3602.406,-410.5 3602.406,-380.5 3480.406,-380.5"/>
<text text-anchor="start" x="3488.406" y="-398.5" font-family="Helvetica,sans-Serif" font-size="10.00" fill="#000000">ViennaRNA/perturbation</text>
<text text-anchor="middle" x="3541.406" y="-387.5" font-family="Helvetica,sans-Serif" font-size="10.00" fill="#000000">_fold.h</text>
</a>
</g>
</g>
<!-- Node17&#45;&gt;Node89 -->
<g id="edge88" class="edge">
<title>Node17&#45;&gt;Node89</title>
<path fill="none" stroke="#191970" d="M2514.9453,-455.1788C2727.8916,-450.2353 3287.1778,-435.2836 3471.406,-411 3474.2443,-410.6259 3477.1376,-410.1939 3480.0532,-409.7174"/>
<polygon fill="#191970" stroke="#191970" points="2514.6814,-451.6838 2504.7648,-455.4136 2514.8429,-458.682 2514.6814,-451.6838"/>
</g>
<!-- Node90 -->
<g id="node42" class="node">
<title>Node90</title>
<g id="a_node42"><a xlink:href="$sequence_8h.html" xlink:title="Functions and data structures related to sequence representations ,.">
<polygon fill="none" stroke="#000000" points="3620.406,-386 3620.406,-405 3742.406,-405 3742.406,-386 3620.406,-386"/>
<text text-anchor="middle" x="3681.406" y="-393" font-family="Helvetica,sans-Serif" font-size="10.00" fill="#000000">ViennaRNA/sequence.h</text>
</a>
</g>
</g>
<!-- Node17&#45;&gt;Node90 -->
<g id="edge89" class="edge">
<title>Node17&#45;&gt;Node90</title>
<path fill="none" stroke="#191970" d="M2514.5394,-455.6228C2745.4541,-451.581 3391.1624,-438.2819 3602.406,-411 3613.1458,-409.613 3624.6705,-407.3785 3635.5594,-405.0328"/>
<polygon fill="#191970" stroke="#191970" points="2514.4564,-452.1236 2504.5188,-455.7969 2514.5781,-459.1225 2514.4564,-452.1236"/>
</g>
<!-- Node91 -->
<g id="node43" class="node">
<title>Node91</title>
<g id="a_node43"><a xlink:href="$constraints_2basic_8h.html" xlink:title="Functions and data structures for constraining secondary structure predictions and evaluation.">
<polygon fill="none" stroke="#ff0000" points="2468.906,-380.5 2468.906,-410.5 2587.906,-410.5 2587.906,-380.5 2468.906,-380.5"/>
<text text-anchor="start" x="2476.906" y="-398.5" font-family="Helvetica,sans-Serif" font-size="10.00" fill="#000000">ViennaRNA/constraints</text>
<text text-anchor="middle" x="2528.406" y="-387.5" font-family="Helvetica,sans-Serif" font-size="10.00" fill="#000000">/basic.h</text>
</a>
</g>
</g>
<!-- Node17&#45;&gt;Node91 -->
<g id="edge98" class="edge">
<title>Node17&#45;&gt;Node91</title>
<path fill="none" stroke="#191970" d="M2455.2941,-441.8545C2470.3333,-432.3193 2489.6684,-420.0605 2504.6771,-410.5446"/>
<polygon fill="#191970" stroke="#191970" points="2453.1337,-439.08 2446.5623,-447.3906 2456.882,-444.9919 2453.1337,-439.08"/>
</g>
<!-- Node92 -->
<g id="node44" class="node">
<title>Node92</title>
<g id="a_node44"><a xlink:href="$hard_8h.html" xlink:title="Functions and data structures for handling of secondary structure hard constraints.">
<polygon fill="none" stroke="#ff0000" points="2412.906,-313.5 2412.906,-343.5 2531.906,-343.5 2531.906,-313.5 2412.906,-313.5"/>
<text text-anchor="start" x="2420.906" y="-331.5" font-family="Helvetica,sans-Serif" font-size="10.00" fill="#000000">ViennaRNA/constraints</text>
<text text-anchor="middle" x="2472.406" y="-320.5" font-family="Helvetica,sans-Serif" font-size="10.00" fill="#000000">/hard.h</text>
</a>
</g>
</g>
<!-- Node17&#45;&gt;Node92 -->
<g id="edge104" class="edge">
<title>Node17&#45;&gt;Node92</title>
<path fill="none" stroke="#191970" d="M2432.671,-437.2718C2438.4436,-411.5195 2452.8098,-366.9952 2463.0063,-343.7016"/>
<polygon fill="#191970" stroke="#191970" points="2429.1861,-436.8576 2430.7143,-447.3416 2436.0576,-438.1929 2429.1861,-436.8576"/>
</g>
<!-- Node94 -->
<g id="node45" class="node">
<title>Node94</title>
<g id="a_node45"><a xlink:href="$SHAPE_8h.html" xlink:title="This module provides function to incorporate SHAPE reactivity data into the folding recursions by mea...">
<polygon fill="none" stroke="#ff0000" points="3760.906,-380.5 3760.906,-410.5 3879.906,-410.5 3879.906,-380.5 3760.906,-380.5"/>
<text text-anchor="start" x="3768.906" y="-398.5" font-family="Helvetica,sans-Serif" font-size="10.00" fill="#000000">ViennaRNA/constraints</text>
<text text-anchor="middle" x="3820.406" y="-387.5" font-family="Helvetica,sans-Serif" font-size="10.00" fill="#000000">/SHAPE.h</text>
</a>
</g>
</g>
<!-- Node17&#45;&gt;Node94 -->
<g id="edge106" class="edge">
<title>Node17&#45;&gt;Node94</title>
<path fill="none" stroke="#191970" d="M2514.7151,-456.1252C2765.47,-453.1712 3510.6791,-441.9585 3751.406,-411 3754.4504,-410.6085 3757.5581,-410.1456 3760.6879,-409.6291"/>
<polygon fill="#191970" stroke="#191970" points="2514.5339,-452.627 2504.5754,-456.2433 2514.6155,-459.6265 2514.5339,-452.627"/>
</g>
<!-- Node96 -->
<g id="node46" class="node">
<title>Node96</title>
<g id="a_node46"><a xlink:href="$landscape_2findpath_8h.html" xlink:title="A breadth&#45;first search heuristic for optimal direct folding paths.">
<polygon fill="none" stroke="#ff0000" points="3893.406,-313.5 3893.406,-343.5 4009.406,-343.5 4009.406,-313.5 3893.406,-313.5"/>
<text text-anchor="start" x="3901.406" y="-331.5" font-family="Helvetica,sans-Serif" font-size="10.00" fill="#000000">ViennaRNA/landscape</text>
<text text-anchor="middle" x="3951.406" y="-320.5" font-family="Helvetica,sans-Serif" font-size="10.00" fill="#000000">/findpath.h</text>
</a>
</g>
</g>
<!-- Node17&#45;&gt;Node96 -->
<g id="edge108" class="edge">
<title>Node17&#45;&gt;Node96</title>
<path fill="none" stroke="#191970" d="M2514.9882,-456.3379C2815.5722,-453.701 3827.1385,-442.5154 3888.406,-411 3916.4509,-396.574 3935.5931,-363.3188 3944.8988,-343.7187"/>
<polygon fill="#191970" stroke="#191970" points="2514.5674,-452.8413 2504.5982,-456.4281 2514.6282,-459.8411 2514.5674,-452.8413"/>
</g>
<!-- Node98 -->
<g id="node47" class="node">
<title>Node98</title>
<g id="a_node47"><a xlink:href="$landscape_2neighbor_8h.html" xlink:title="Methods to compute the neighbors of an RNA secondary structure.">
<polygon fill="none" stroke="#ff0000" points="4070.406,-380.5 4070.406,-410.5 4186.406,-410.5 4186.406,-380.5 4070.406,-380.5"/>
<text text-anchor="start" x="4078.406" y="-398.5" font-family="Helvetica,sans-Serif" font-size="10.00" fill="#000000">ViennaRNA/landscape</text>
<text text-anchor="middle" x="4128.406" y="-387.5" font-family="Helvetica,sans-Serif" font-size="10.00" fill="#000000">/neighbor.h</text>
</a>
</g>
</g>
<!-- Node17&#45;&gt;Node98 -->
<g id="edge109" class="edge">
<title>Node17&#45;&gt;Node98</title>
<path fill="none" stroke="#191970" d="M2514.8139,-455.6203C2825.8007,-450.3424 3907.7944,-430.7358 4061.406,-411 4064.248,-410.6349 4067.1461,-410.202 4070.0646,-409.7172"/>
<polygon fill="#191970" stroke="#191970" points="2514.4575,-452.1258 2504.5182,-455.7946 2514.5761,-459.1248 2514.4575,-452.1258"/>
</g>
<!-- Node101 -->
<g id="node48" class="node">
<title>Node101</title>
<g id="a_node48"><a xlink:href="$paths_8h.html" xlink:title="API for computing (optimal) (re&#45;)folding paths between secondary structures.">
<polygon fill="none" stroke="#000000" points="3936.406,-380.5 3936.406,-410.5 4052.406,-410.5 4052.406,-380.5 3936.406,-380.5"/>
<text text-anchor="start" x="3944.406" y="-398.5" font-family="Helvetica,sans-Serif" font-size="10.00" fill="#000000">ViennaRNA/landscape</text>
<text text-anchor="middle" x="3994.406" y="-387.5" font-family="Helvetica,sans-Serif" font-size="10.00" fill="#000000">/paths.h</text>
</a>
</g>
</g>
<!-- Node17&#45;&gt;Node101 -->
<g id="edge110" class="edge">
<title>Node17&#45;&gt;Node101</title>
<path fill="none" stroke="#191970" d="M2515.0142,-456.414C2787.2985,-454.1924 3646.8675,-444.6274 3922.406,-411 3926.9752,-410.4424 3931.6831,-409.735 3936.4004,-408.9312"/>
<polygon fill="#191970" stroke="#191970" points="2514.776,-452.9157 2504.8045,-456.4961 2514.8323,-459.9155 2514.776,-452.9157"/>
</g>
<!-- Node102 -->
<g id="node49" class="node">
<title>Node102</title>
<g id="a_node49"><a xlink:href="$landscape_2walk_8h.html" xlink:title="Methods to generate particular paths such as gradient or random walks through the energy landscape of...">
<polygon fill="none" stroke="#ff0000" points="4204.406,-380.5 4204.406,-410.5 4320.406,-410.5 4320.406,-380.5 4204.406,-380.5"/>
<text text-anchor="start" x="4212.406" y="-398.5" font-family="Helvetica,sans-Serif" font-size="10.00" fill="#000000">ViennaRNA/landscape</text>
<text text-anchor="middle" x="4262.406" y="-387.5" font-family="Helvetica,sans-Serif" font-size="10.00" fill="#000000">/walk.h</text>
</a>
</g>
</g>
<!-- Node17&#45;&gt;Node102 -->
<g id="edge112" class="edge">
<title>Node17&#45;&gt;Node102</title>
<path fill="none" stroke="#191970" d="M2515.0086,-455.8094C2842.4608,-451.0108 4028.0376,-432.3211 4195.406,-411 4198.2484,-410.6379 4201.1468,-410.2075 4204.0656,-409.7247"/>
<polygon fill="#191970" stroke="#191970" points="2514.5951,-452.315 2504.6473,-455.9608 2514.6974,-459.3142 2514.5951,-452.315"/>
</g>
<!-- Node103 -->
<g id="node50" class="node">
<title>Node103</title>
<g id="a_node50"><a xlink:href="$utils_2alignments_8h.html" xlink:title="Various utility&#45; and helper&#45;functions for sequence alignments and comparative structure prediction.">
<polygon fill="none" stroke="#ff0000" points="4376.406,-252 4376.406,-271 4524.406,-271 4524.406,-252 4376.406,-252"/>
<text text-anchor="middle" x="4450.406" y="-259" font-family="Helvetica,sans-Serif" font-size="10.00" fill="#000000">ViennaRNA/utils/alignments.h</text>
</a>
</g>
</g>
<!-- Node17&#45;&gt;Node103 -->
<g id="edge113" class="edge">
<title>Node17&#45;&gt;Node103</title>
<path fill="none" stroke="#191970" d="M2514.7282,-456.1137C2879.8245,-452.0936 4322.0137,-434.737 4362.406,-411 4416.9342,-378.9558 4441.2184,-298.8837 4448.1849,-271.1424"/>
<polygon fill="#191970" stroke="#191970" points="2514.461,-452.6163 2504.5,-456.2259 2514.5378,-459.6159 2514.461,-452.6163"/>
</g>
<!-- Node23 -->
<g id="node7" class="node">
<title>Node23</title>
<g id="a_node7"><a xlink:href="$alifold_8h.html" xlink:title="Functions for comparative structure prediction using RNA sequence alignments.">
<polygon fill="none" stroke="#000000" points="2379.906,-.5 2379.906,-19.5 2484.906,-19.5 2484.906,-.5 2379.906,-.5"/>
<text text-anchor="middle" x="2432.406" y="-7.5" font-family="Helvetica,sans-Serif" font-size="10.00" fill="#000000">ViennaRNA/alifold.h</text>
</a>
</g>
</g>
<!-- Node22&#45;&gt;Node23 -->
<g id="edge6" class="edge">
<title>Node22&#45;&gt;Node23</title>
<path fill="none" stroke="#191970" d="M2667.3494,-108.5923C2606.8486,-83.2036 2501.6158,-39.0434 2455.3474,-19.6272"/>
<polygon fill="#191970" stroke="#191970" points="2666.084,-111.857 2676.6594,-112.4992 2668.7928,-105.4023 2666.084,-111.857"/>
</g>
<!-- Node22&#45;&gt;Node24 -->
<g id="edge7" class="edge">
<title>Node22&#45;&gt;Node24</title>
<path fill="none" stroke="#191970" d="M2644.7104,-112.0381C2644.6088,-112.0253 2644.5074,-112.0126 2644.406,-112 2453.2821,-88.2078 1061.8625,-70.3746 754.4231,-66.6988"/>
<polygon fill="#191970" stroke="#191970" points="2643.9005,-115.4565 2654.3036,-113.4504 2644.92,-108.5312 2643.9005,-115.4565"/>
</g>
<!-- Node24&#45;&gt;Node23 -->
<g id="edge8" class="edge">
<title>Node24&#45;&gt;Node23</title>
<path fill="none" stroke="#191970" d="M764.4952,-59.0829C778.3729,-57.8995 792.8411,-56.7967 806.406,-56 1424.5129,-19.6964 2176.539,-11.836 2379.7148,-10.3273"/>
<polygon fill="#191970" stroke="#191970" points="764.1729,-55.5976 754.5159,-59.9557 764.7829,-62.571 764.1729,-55.5976"/>
</g>
<!-- Node25 -->
<g id="node9" class="node">
<title>Node25</title>
<g id="a_node9"><a xlink:href="$part__func__co_8h.html" xlink:title="Partition function for two RNA sequences.">
<polygon fill="none" stroke="#000000" points="670.406,-.5 670.406,-19.5 806.406,-19.5 806.406,-.5 670.406,-.5"/>
<text text-anchor="middle" x="738.406" y="-7.5" font-family="Helvetica,sans-Serif" font-size="10.00" fill="#000000">ViennaRNA/part_func_co.h</text>
</a>
</g>
</g>
<!-- Node24&#45;&gt;Node25 -->
<g id="edge9" class="edge">
<title>Node24&#45;&gt;Node25</title>
<path fill="none" stroke="#191970" d="M708.3829,-48.2112C715.8189,-38.7472 724.672,-27.4797 730.8296,-19.6427"/>
<polygon fill="#191970" stroke="#191970" points="705.4964,-46.22 702.0702,-56.2455 711.0006,-50.5447 705.4964,-46.22"/>
</g>
<!-- Node26&#45;&gt;Node24 -->
<g id="edge11" class="edge">
<title>Node26&#45;&gt;Node24</title>
<path fill="none" stroke="#191970" d="M252.9899,-180.8673C217.4795,-165.2701 171.2767,-138.456 195.406,-112 224.4627,-80.1416 507.7744,-70.0394 634.118,-67.1028"/>
<polygon fill="#191970" stroke="#191970" points="252.0815,-184.2834 262.6547,-184.9594 254.8108,-177.8374 252.0815,-184.2834"/>
</g>
<!-- Node29&#45;&gt;Node24 -->
<g id="edge16" class="edge">
<title>Node29&#45;&gt;Node24</title>
<path fill="none" stroke="#191970" d="M158.5915,-112.5877C159.8721,-112.3839 161.1445,-112.1877 162.406,-112 332.5018,-86.6862 535.4229,-73.9049 634.2879,-68.785"/>
<polygon fill="#191970" stroke="#191970" points="157.9266,-109.1505 148.6576,-114.2823 159.1038,-116.0508 157.9266,-109.1505"/>
</g>
<!-- Node29&#45;&gt;Node25 -->
<g id="edge17" class="edge">
<title>Node29&#45;&gt;Node25</title>
<path fill="none" stroke="#191970" d="M158.3173,-115.0238C288.7666,-91.4062 569.1476,-40.6439 685.8057,-19.5232"/>
<polygon fill="#191970" stroke="#191970" points="157.6492,-111.5877 148.4327,-116.8133 158.8963,-118.4758 157.6492,-111.5877"/>
</g>
<!-- Node31 -->
<g id="node15" class="node">
<title>Node31</title>
<g id="a_node15"><a xlink:href="$fold_8h.html" xlink:title="MFE calculations for single RNA sequences.">
<polygon fill="none" stroke="#000000" points="1925.906,-56.5 1925.906,-75.5 2020.906,-75.5 2020.906,-56.5 1925.906,-56.5"/>
<text text-anchor="middle" x="1973.406" y="-63.5" font-family="Helvetica,sans-Serif" font-size="10.00" fill="#000000">ViennaRNA/fold.h</text>
</a>
</g>
</g>
<!-- Node30&#45;&gt;Node31 -->
<g id="edge19" class="edge">
<title>Node30&#45;&gt;Node31</title>
<path fill="none" stroke="#191970" d="M1896.1157,-112.6015C1915.2411,-101.07 1941.1557,-85.445 1957.5804,-75.5419"/>
<polygon fill="#191970" stroke="#191970" points="1894.1001,-109.7298 1887.3435,-117.8906 1897.7145,-115.7244 1894.1001,-109.7298"/>
</g>
<!-- Node33&#45;&gt;Node17 -->
<g id="edge22" class="edge">
<title>Node33&#45;&gt;Node17</title>
<path fill="none" stroke="#191970" d="M1894.8147,-407.0553C1902.4277,-408.5324 1910.1002,-409.9072 1917.406,-411 2073.8098,-434.3942 2258.4396,-447.2072 2358.3941,-453.036"/>
<polygon fill="#191970" stroke="#191970" points="1895.3688,-403.5969 1884.8768,-405.0697 1893.9973,-410.4612 1895.3688,-403.5969"/>
</g>
<!-- Node33&#45;&gt;Node34 -->
<g id="edge23" class="edge">
<title>Node33&#45;&gt;Node34</title>
<path fill="none" stroke="#191970" d="M1821.0431,-378.161C1799.1232,-351.6991 1757.6849,-301.6745 1736.9233,-276.611"/>
<polygon fill="#191970" stroke="#191970" points="1818.3486,-380.3947 1827.4232,-385.8631 1823.7393,-375.9293 1818.3486,-380.3947"/>
</g>
<!-- Node34&#45;&gt;Node16 -->
<g id="edge31" class="edge">
<title>Node34&#45;&gt;Node16</title>
<path fill="none" stroke="#191970" d="M1725.6908,-286.6384C1723.7666,-319.0866 1720.8577,-375.5746 1749.406,-411 1789.8597,-461.1986 1861.8317,-489.916 1902.231,-503.4048"/>
<polygon fill="#191970" stroke="#191970" points="1729.187,-286.8031 1726.2587,-276.621 1722.1982,-286.4068 1729.187,-286.8031"/>
</g>
<!-- Node34&#45;&gt;Node18 -->
<g id="edge24" class="edge">
<title>Node34&#45;&gt;Node18</title>
<path fill="none" stroke="#191970" d="M1782.2614,-243.1801C1807.6819,-234.343 1837.5641,-222.8646 1863.406,-210 1908.1469,-187.7271 1956.7451,-153.6747 1979.4062,-137.1559"/>
<polygon fill="#191970" stroke="#191970" points="1781.0819,-239.8843 1772.7549,-246.435 1783.3495,-246.5069 1781.0819,-239.8843"/>
</g>
<!-- Node34&#45;&gt;Node19 -->
<g id="edge25" class="edge">
<title>Node34&#45;&gt;Node19</title>
<path fill="none" stroke="#191970" d="M1785.7089,-242.0595C1800.2205,-234.4307 1813.9284,-224.032 1822.406,-210 1829.5307,-198.2074 1828.8237,-191.1918 1822.406,-179 1811.885,-159.0131 1789.7159,-145.2859 1772.1947,-137.0616"/>
<polygon fill="#191970" stroke="#191970" points="1784.0884,-238.9552 1776.609,-246.4592 1787.1355,-245.2573 1784.0884,-238.9552"/>
</g>
<!-- Node34&#45;&gt;Node23 -->
<g id="edge27" class="edge">
<title>Node34&#45;&gt;Node23</title>
<path fill="none" stroke="#191970" d="M1801.6177,-257.2734C1909.1332,-250.561 2097.8938,-235.5408 2161.406,-210 2182.601,-201.4766 2181.6057,-188.4459 2202.406,-179 2273.9139,-146.5265 2314.6128,-192.7201 2375.406,-143 2415.2704,-110.3966 2427.8408,-44.7233 2431.2671,-19.8505"/>
<polygon fill="#191970" stroke="#191970" points="1801.2399,-253.7899 1791.4736,-257.8971 1801.6696,-260.7767 1801.2399,-253.7899"/>
</g>
<!-- Node34&#45;&gt;Node24 -->
<g id="edge44" class="edge">
<title>Node34&#45;&gt;Node24</title>
<path fill="none" stroke="#191970" d="M1647.2725,-246.4837C1645.9751,-246.3146 1644.6855,-246.1531 1643.406,-246 1602.9787,-241.1619 939.4804,-239.4891 911.406,-210 901.9059,-200.0212 903.7729,-190.4701 911.406,-179 934.3621,-144.5043 974.4499,-177.4957 997.406,-143 1005.0391,-131.5299 1006.3875,-122.448 997.406,-112 981.7979,-93.8435 838.3401,-78.4779 754.5377,-70.9548"/>
<polygon fill="#191970" stroke="#191970" points="1646.9419,-249.9719 1657.3354,-247.9165 1647.9286,-243.0418 1646.9419,-249.9719"/>
</g>
<!-- Node34&#45;&gt;Node25 -->
<g id="edge45" class="edge">
<title>Node34&#45;&gt;Node25</title>
<path fill="none" stroke="#191970" d="M1647.272,-246.4879C1645.9747,-246.3175 1644.6853,-246.1546 1643.406,-246 1566.1981,-236.6696 997.9645,-266.3879 944.406,-210 934.9175,-200.0102 937.1955,-190.7404 944.406,-179 962.9218,-148.8517 996.8902,-173.1483 1015.406,-143 1022.6165,-131.2596 1023.2874,-123.3009 1015.406,-112 987.923,-72.5929 852.1039,-36.194 781.3872,-19.5363"/>
<polygon fill="#191970" stroke="#191970" points="1646.9388,-249.9758 1657.3339,-247.9286 1647.931,-243.0464 1646.9388,-249.9758"/>
</g>
<!-- Node34&#45;&gt;Node26 -->
<g id="edge28" class="edge">
<title>Node34&#45;&gt;Node26</title>
<path fill="none" stroke="#191970" d="M1647.0307,-256.9045C1589.0613,-253.5663 1507.7832,-249.1078 1436.406,-246 955.7065,-225.0699 831.3775,-273.311 354.406,-210 344.1384,-208.6371 333.1309,-206.3797 323.1055,-204.0037"/>
<polygon fill="#191970" stroke="#191970" points="1647.0277,-260.41 1657.2131,-257.4931 1647.4318,-253.4217 1647.0277,-260.41"/>
</g>
<!-- Node34&#45;&gt;Node29 -->
<g id="edge33" class="edge">
<title>Node34&#45;&gt;Node29</title>
<path fill="none" stroke="#191970" d="M1646.6239,-261.1774C1358.1289,-259.66 358.8936,-251.4357 222.406,-210 176.6459,-196.1079 130.9427,-162.3233 106.8469,-142.5646"/>
<polygon fill="#191970" stroke="#191970" points="1646.973,-264.6791 1656.9908,-261.2306 1647.009,-257.6792 1646.973,-264.6791"/>
</g>
<!-- Node34&#45;&gt;Node30 -->
<g id="edge34" class="edge">
<title>Node34&#45;&gt;Node30</title>
<path fill="none" stroke="#191970" d="M1789.493,-242.692C1807.4965,-234.9372 1825.804,-224.3145 1839.406,-210 1859.4066,-188.9518 1867.317,-154.0152 1870.0876,-137.1698"/>
<polygon fill="#191970" stroke="#191970" points="1788.0828,-239.487 1780.1325,-246.4901 1790.7148,-245.9733 1788.0828,-239.487"/>
</g>
<!-- Node34&#45;&gt;Node31 -->
<g id="edge35" class="edge">
<title>Node34&#45;&gt;Node31</title>
<path fill="none" stroke="#191970" d="M1801.2105,-245.2111C1889.8178,-224.6174 2027.0081,-186.5518 2055.406,-143 2062.9313,-131.4589 2062.3685,-123.8891 2055.406,-112 2044.93,-94.1114 2024.6672,-82.6506 2006.9062,-75.6426"/>
<polygon fill="#191970" stroke="#191970" points="1800.4204,-241.8014 1791.4587,-247.4528 1801.9887,-248.6235 1800.4204,-241.8014"/>
</g>
<!-- Node34&#45;&gt;Node32 -->
<g id="edge37" class="edge">
<title>Node34&#45;&gt;Node32</title>
<path fill="none" stroke="#191970" d="M1647.0411,-253.751C1616.6334,-250.9402 1581.4069,-247.9739 1549.406,-246 1434.8872,-238.9361 623.3288,-254.1 517.406,-210 498.8287,-202.2655 502.2132,-188.3724 484.406,-179 417.9857,-144.0412 392.4897,-160.1041 319.406,-143 311.4116,-141.129 302.8584,-139.0446 294.7375,-137.0264"/>
<polygon fill="#191970" stroke="#191970" points="1646.8746,-257.2506 1657.1569,-254.6966 1647.5261,-250.281 1646.8746,-257.2506"/>
</g>
<!-- Node35 -->
<g id="node19" class="node">
<title>Node35</title>
<g id="a_node19"><a xlink:href="$ali__plex_8h_source.html" xlink:title=" ">
<polygon fill="none" stroke="#000000" points="953.906,-185 953.906,-204 1066.906,-204 1066.906,-185 953.906,-185"/>
<text text-anchor="middle" x="1010.406" y="-192" font-family="Helvetica,sans-Serif" font-size="10.00" fill="#000000">ViennaRNA/ali_plex.h</text>
</a>
</g>
</g>
<!-- Node34&#45;&gt;Node35 -->
<g id="edge26" class="edge">
<title>Node34&#45;&gt;Node35</title>
<path fill="none" stroke="#191970" d="M1647.2694,-246.509C1645.9729,-246.3321 1644.6843,-246.1622 1643.406,-246 1392.4661,-214.1663 1325.5658,-247.4735 1075.406,-210 1065.6539,-208.5391 1055.2118,-206.3396 1045.6132,-204.0529"/>
<polygon fill="#191970" stroke="#191970" points="1646.923,-249.9957 1657.3263,-247.9904 1647.9431,-243.0704 1646.923,-249.9957"/>
</g>
<!-- Node36 -->
<g id="node20" class="node">
<title>Node36</title>
<g id="a_node20"><a xlink:href="$cofold_8h.html" xlink:title="MFE implementations for RNA&#45;RNA interaction.">
<polygon fill="none" stroke="#000000" points="2102.406,-118 2102.406,-137 2208.406,-137 2208.406,-118 2102.406,-118"/>
<text text-anchor="middle" x="2155.406" y="-125" font-family="Helvetica,sans-Serif" font-size="10.00" fill="#000000">ViennaRNA/cofold.h</text>
</a>
</g>
</g>
<!-- Node34&#45;&gt;Node36 -->
<g id="edge29" class="edge">
<title>Node34&#45;&gt;Node36</title>
<path fill="none" stroke="#191970" d="M1801.519,-257.1835C1893.4772,-250.9075 2040.7468,-236.949 2088.406,-210 2119.2438,-192.5627 2141.5124,-154.8751 2150.7193,-137.1211"/>
<polygon fill="#191970" stroke="#191970" points="1801.1635,-253.6994 1791.4186,-257.8572 1801.6294,-260.6838 1801.1635,-253.6994"/>
</g>
<!-- Node37 -->
<g id="node21" class="node">
<title>Node37</title>
<g id="a_node21"><a xlink:href="$data__structures_8h.html" xlink:title="Use ViennaRNA/datastructures/basic.h instead.">
<polygon fill="none" stroke="#000000" points="1084.906,-185 1084.906,-204 1231.906,-204 1231.906,-185 1084.906,-185"/>
<text text-anchor="middle" x="1158.406" y="-192" font-family="Helvetica,sans-Serif" font-size="10.00" fill="#000000">ViennaRNA/data_structures.h</text>
</a>
</g>
</g>
<!-- Node34&#45;&gt;Node37 -->
<g id="edge30" class="edge">
<title>Node34&#45;&gt;Node37</title>
<path fill="none" stroke="#191970" d="M1647.2632,-246.5554C1645.9686,-246.3642 1644.6821,-246.1788 1643.406,-246 1465.7593,-221.1118 1419.1077,-234.4927 1241.406,-210 1229.6435,-208.3788 1217.0152,-206.2317 1205.2464,-204.0539"/>
<polygon fill="#191970" stroke="#191970" points="1646.8875,-250.0391 1657.3082,-248.1261 1647.9689,-243.1232 1646.8875,-250.0391"/>
</g>
<!-- Node38 -->
<g id="node22" class="node">
<title>Node38</title>
<g id="a_node22"><a xlink:href="$duplex_8h.html" xlink:title="Functions for simple RNA&#45;RNA duplex interactions.">
<polygon fill="none" stroke="#000000" points="1250.406,-185 1250.406,-204 1358.406,-204 1358.406,-185 1250.406,-185"/>
<text text-anchor="middle" x="1304.406" y="-192" font-family="Helvetica,sans-Serif" font-size="10.00" fill="#000000">ViennaRNA/duplex.h</text>
</a>
</g>
</g>
<!-- Node34&#45;&gt;Node38 -->
<g id="edge32" class="edge">
<title>Node34&#45;&gt;Node38</title>
<path fill="none" stroke="#191970" d="M1647.2524,-246.6273C1645.9612,-246.4138 1644.6783,-246.2045 1643.406,-246 1521.2683,-226.3662 1488.9901,-232.8126 1367.406,-210 1358.5496,-208.3383 1349.0761,-206.2015 1340.2361,-204.0488"/>
<polygon fill="#191970" stroke="#191970" points="1646.8306,-250.1058 1657.2766,-248.3362 1648.007,-243.2054 1646.8306,-250.1058"/>
</g>
<!-- Node39 -->
<g id="node23" class="node">
<title>Node39</title>
<g id="a_node23"><a xlink:href="$fold__vars_8h.html" xlink:title="Here all all declarations of the global variables used throughout RNAlib.">
<polygon fill="none" stroke="#ff0000" points="1376.906,-185 1376.906,-204 1495.906,-204 1495.906,-185 1376.906,-185"/>
<text text-anchor="middle" x="1436.406" y="-192" font-family="Helvetica,sans-Serif" font-size="10.00" fill="#000000">ViennaRNA/fold_vars.h</text>
</a>
</g>
</g>
<!-- Node34&#45;&gt;Node39 -->
<g id="edge36" class="edge">
<title>Node34&#45;&gt;Node39</title>
<path fill="none" stroke="#191970" d="M1649.721,-244.1254C1594.7243,-231.331 1522.0128,-214.4155 1477.2645,-204.0053"/>
<polygon fill="#191970" stroke="#191970" points="1649.2402,-247.6069 1659.7732,-246.4639 1650.8264,-240.789 1649.2402,-247.6069"/>
</g>
<!-- Node41 -->
<g id="node24" class="node">
<title>Node41</title>
<g id="a_node24"><a xlink:href="$LPfold_8h.html" xlink:title="Partition function and equilibrium probability implementation for the sliding window algorithm.">
<polygon fill="none" stroke="#000000" points="456.406,-118 456.406,-137 564.406,-137 564.406,-118 456.406,-118"/>
<text text-anchor="middle" x="510.406" y="-125" font-family="Helvetica,sans-Serif" font-size="10.00" fill="#000000">ViennaRNA/LPfold.h</text>
</a>
</g>
</g>
<!-- Node34&#45;&gt;Node41 -->
<g id="edge38" class="edge">
<title>Node34&#45;&gt;Node41</title>
<path fill="none" stroke="#191970" d="M1647.0357,-253.8377C1616.6272,-251.0382 1581.4016,-248.0571 1549.406,-246 1350.1016,-233.1862 843.0807,-266.1002 651.406,-210 598.8722,-194.6242 545.4087,-155.5413 522.2762,-137.2364"/>
<polygon fill="#191970" stroke="#191970" points="1646.8706,-257.3373 1657.1518,-254.7785 1647.5189,-250.3674 1646.8706,-257.3373"/>
</g>
<!-- Node42 -->
<g id="node25" class="node">
<title>Node42</title>
<g id="a_node25"><a xlink:href="$MEA_8h.html" xlink:title="Computes a MEA (maximum expected accuracy) structure.">
<polygon fill="none" stroke="#000000" points="886.406,-118 886.406,-137 988.406,-137 988.406,-118 886.406,-118"/>
<text text-anchor="middle" x="937.406" y="-125" font-family="Helvetica,sans-Serif" font-size="10.00" fill="#000000">ViennaRNA/MEA.h</text>
</a>
</g>
</g>
<!-- Node34&#45;&gt;Node42 -->
<g id="edge39" class="edge">
<title>Node34&#45;&gt;Node42</title>
<path fill="none" stroke="#191970" d="M1647.2731,-246.4794C1645.9754,-246.3116 1644.6856,-246.1516 1643.406,-246 1600.8788,-240.9629 902.9719,-240.9805 873.406,-210 850.1279,-185.6081 894.4609,-153.1095 920.446,-137.1606"/>
<polygon fill="#191970" stroke="#191970" points="1646.9451,-249.9678 1657.3369,-247.9038 1647.9261,-243.0369 1646.9451,-249.9678"/>
</g>
<!-- Node34&#45;&gt;Node43 -->
<g id="edge40" class="edge">
<title>Node34&#45;&gt;Node43</title>
<path fill="none" stroke="#191970" d="M1801.6574,-257.586C1925.6871,-250.8353 2176.7904,-235.2462 2388.406,-210 2403.9962,-208.1401 2420.9286,-205.5859 2436.1704,-203.0874"/>
<polygon fill="#191970" stroke="#191970" points="1801.2988,-254.1002 1791.5021,-258.1344 1801.6763,-261.09 1801.2988,-254.1002"/>
</g>
<!-- Node44 -->
<g id="node27" class="node">
<title>Node44</title>
<g id="a_node27"><a xlink:href="$part__func__up_8h.html" xlink:title="Implementations for accessibility and RNA&#45;RNA interaction as a stepwise process.">
<polygon fill="none" stroke="#000000" points="1514.406,-185 1514.406,-204 1650.406,-204 1650.406,-185 1514.406,-185"/>
<text text-anchor="middle" x="1582.406" y="-192" font-family="Helvetica,sans-Serif" font-size="10.00" fill="#000000">ViennaRNA/part_func_up.h</text>
</a>
</g>
</g>
<!-- Node34&#45;&gt;Node44 -->
<g id="edge46" class="edge">
<title>Node34&#45;&gt;Node44</title>
<path fill="none" stroke="#191970" d="M1683.1502,-242.0343C1656.7505,-229.5781 1623.6536,-213.9619 1602.7606,-204.1039"/>
<polygon fill="#191970" stroke="#191970" points="1682.001,-245.362 1692.5384,-246.4639 1684.9881,-239.0313 1682.001,-245.362"/>
</g>
<!-- Node34&#45;&gt;Node45 -->
<g id="edge47" class="edge">
<title>Node34&#45;&gt;Node45</title>
<path fill="none" stroke="#191970" d="M1647.0421,-253.7356C1616.6345,-250.9228 1581.4078,-247.9592 1549.406,-246 1078.9042,-217.1952 957.0559,-269.2049 489.406,-210 484.837,-209.4216 480.1265,-208.6865 475.4108,-207.8523"/>
<polygon fill="#191970" stroke="#191970" points="1646.8752,-257.2352 1657.1578,-254.6821 1647.5274,-250.2657 1646.8752,-257.2352"/>
</g>
<!-- Node46 -->
<g id="node29" class="node">
<title>Node46</title>
<g id="a_node29"><a xlink:href="$PKplex_8h_source.html" xlink:title=" ">
<polygon fill="none" stroke="#000000" points="1668.906,-185 1668.906,-204 1779.906,-204 1779.906,-185 1668.906,-185"/>
<text text-anchor="middle" x="1724.406" y="-192" font-family="Helvetica,sans-Serif" font-size="10.00" fill="#000000">ViennaRNA/PKplex.h</text>
</a>
</g>
</g>
<!-- Node34&#45;&gt;Node46 -->
<g id="edge49" class="edge">
<title>Node34&#45;&gt;Node46</title>
<path fill="none" stroke="#191970" d="M1724.406,-236.1199C1724.406,-224.9072 1724.406,-212.4031 1724.406,-204.055"/>
<polygon fill="#191970" stroke="#191970" points="1720.9061,-236.2966 1724.406,-246.2967 1727.9061,-236.2967 1720.9061,-236.2966"/>
</g>
<!-- Node34&#45;&gt;Node51 -->
<g id="edge50" class="edge">
<title>Node34&#45;&gt;Node51</title>
<path fill="none" stroke="#191970" d="M1647.0387,-253.79C1616.6306,-250.9843 1581.4045,-248.0114 1549.406,-246 1334.7918,-232.5096 791.2233,-261.3476 582.406,-210 551.3257,-202.3574 546.8107,-191.6396 517.406,-179 480.6561,-163.2031 437.3157,-146.9709 410.094,-137.0586"/>
<polygon fill="#191970" stroke="#191970" points="1646.8728,-257.2897 1657.1546,-254.7335 1647.5229,-250.3199 1646.8728,-257.2897"/>
</g>
<!-- Node34&#45;&gt;Node52 -->
<g id="edge51" class="edge">
<title>Node34&#45;&gt;Node52</title>
<path fill="none" stroke="#191970" d="M1801.6732,-255.718C1901.3388,-248.0529 2079.7006,-232.7823 2231.406,-210 2238.9576,-208.8659 2246.8899,-207.4863 2254.7693,-206.0229"/>
<polygon fill="#191970" stroke="#191970" points="1801.3916,-252.2292 1791.6873,-256.4808 1801.9249,-259.2089 1801.3916,-252.2292"/>
</g>
<!-- Node34&#45;&gt;Node53 -->
<g id="edge54" class="edge">
<title>Node34&#45;&gt;Node53</title>
<path fill="none" stroke="#191970" d="M1647.1397,-247.7094C1642.8317,-247.0669 1638.5654,-246.488 1634.406,-246 1277.3878,-204.1101 1183.5166,-251.0951 826.406,-210 813.8821,-208.5588 800.4058,-206.3367 788.3715,-204.0209"/>
<polygon fill="#191970" stroke="#191970" points="1646.8115,-251.2011 1657.2365,-249.3116 1647.9086,-244.2876 1646.8115,-251.2011"/>
</g>
<!-- Node34&#45;&gt;Node56 -->
<g id="edge74" class="edge">
<title>Node34&#45;&gt;Node56</title>
<path fill="none" stroke="#191970" d="M1801.7083,-255.0522C1899.7805,-246.2492 2063.0639,-229.3361 2120.406,-210 2146.6288,-201.1575 2149.6126,-191.2928 2174.406,-179 2207.1562,-162.7622 2246.287,-146.8283 2271.2387,-137.0846"/>
<polygon fill="#191970" stroke="#191970" points="1801.1993,-251.5836 1791.5488,-255.9561 1801.8197,-258.5561 1801.1993,-251.5836"/>
</g>
<!-- Node34&#45;&gt;Node60 -->
<g id="edge75" class="edge">
<title>Node34&#45;&gt;Node60</title>
<path fill="none" stroke="#191970" d="M1647.2085,-251.7641C1627.7193,-249.5821 1606.8159,-247.4787 1587.406,-246 1536.791,-242.1441 714.5699,-241.042 674.406,-210 651.6702,-192.4279 648.9756,-154.8077 649.0493,-137.0959"/>
<polygon fill="#191970" stroke="#191970" points="1646.9238,-255.2542 1657.2558,-252.9094 1647.7166,-248.2992 1646.9238,-255.2542"/>
</g>
<!-- Node34&#45;&gt;Node62 -->
<g id="edge76" class="edge">
<title>Node34&#45;&gt;Node62</title>
<path fill="none" stroke="#191970" d="M1801.9519,-257.9659C1918.0947,-251.8614 2131.1955,-237.2912 2202.406,-210 2224.4055,-201.5688 2223.6299,-187.9923 2245.406,-179 2290.015,-160.579 2418.0352,-143.8511 2498.5727,-134.7322"/>
<polygon fill="#191970" stroke="#191970" points="1801.5134,-254.4838 1791.7075,-258.4956 1801.8749,-261.4744 1801.5134,-254.4838"/>
</g>
<!-- Node34&#45;&gt;Node64 -->
<g id="edge77" class="edge">
<title>Node34&#45;&gt;Node64</title>
<path fill="none" stroke="#191970" d="M1758.6087,-240.5349C1781.4366,-223.8822 1804.5487,-199.9872 1788.406,-179 1779.3766,-167.2609 1696.7895,-148.4024 1642.3202,-137.0566"/>
<polygon fill="#191970" stroke="#191970" points="1756.4963,-237.7407 1750.2846,-246.3236 1760.4929,-243.4877 1756.4963,-237.7407"/>
</g>
<!-- Node34&#45;&gt;Node66 -->
<g id="edge78" class="edge">
<title>Node34&#45;&gt;Node66</title>
<path fill="none" stroke="#191970" d="M1801.6878,-258.7141C1946.9029,-253.0167 2270.3114,-238.1331 2541.406,-210 2556.8088,-208.4016 2573.3965,-206.2236 2588.8057,-204.0057"/>
<polygon fill="#191970" stroke="#191970" points="1801.3999,-255.2225 1791.5435,-259.1085 1801.6719,-262.2173 1801.3999,-255.2225"/>
</g>
<!-- Node34&#45;&gt;Node69 -->
<g id="edge79" class="edge">
<title>Node34&#45;&gt;Node69</title>
<path fill="none" stroke="#191970" d="M1801.7868,-259.0388C2001.8371,-252.5912 2532.3368,-234.0321 2707.406,-210 2713.3662,-209.1818 2719.5726,-208.109 2725.7758,-206.909"/>
<polygon fill="#191970" stroke="#191970" points="1801.5377,-255.5449 1791.6552,-259.3641 1801.7624,-262.5413 1801.5377,-255.5449"/>
</g>
<!-- Node43&#45;&gt;Node23 -->
<g id="edge41" class="edge">
<title>Node43&#45;&gt;Node23</title>
<path fill="none" stroke="#191970" d="M2478.9561,-175.1634C2467.919,-136.0029 2443.2791,-48.5787 2435.1016,-19.5641"/>
<polygon fill="#191970" stroke="#191970" points="2475.6019,-176.1647 2481.6835,-184.8402 2482.3394,-174.2657 2475.6019,-176.1647"/>
</g>
<!-- Node43&#45;&gt;Node31 -->
<g id="edge43" class="edge">
<title>Node43&#45;&gt;Node31</title>
<path fill="none" stroke="#191970" d="M2468.0085,-177.4714C2448.111,-157.9966 2412.5847,-126.889 2375.406,-112 2312.0686,-86.6353 2113.3948,-73.2785 2021.2354,-68.3107"/>
<polygon fill="#191970" stroke="#191970" points="2465.7654,-180.1787 2475.3062,-184.7857 2470.7208,-175.2345 2465.7654,-180.1787"/>
</g>
<!-- Node43&#45;&gt;Node36 -->
<g id="edge42" class="edge">
<title>Node43&#45;&gt;Node36</title>
<path fill="none" stroke="#191970" d="M2438.0811,-182.5369C2432.8068,-181.2885 2427.4983,-180.0822 2422.406,-179 2331.9215,-159.7699 2307.8905,-162.2301 2217.406,-143 2209.0494,-141.224 2200.1107,-139.1141 2191.6961,-137.0319"/>
<polygon fill="#191970" stroke="#191970" points="2437.5729,-186.015 2448.1159,-184.9681 2439.2213,-179.2118 2437.5729,-186.015"/>
</g>
<!-- Node45&#45;&gt;Node41 -->
<g id="edge48" class="edge">
<title>Node45&#45;&gt;Node41</title>
<path fill="none" stroke="#191970" d="M448.32,-173.2117C464.8182,-161.0646 484.6872,-146.4358 497.4284,-137.055"/>
<polygon fill="#191970" stroke="#191970" points="446.033,-170.5492 440.0553,-179.2967 450.1833,-176.1861 446.033,-170.5492"/>
</g>
<!-- Node52&#45;&gt;Node17 -->
<g id="edge52" class="edge">
<title>Node52&#45;&gt;Node17</title>
<path fill="none" stroke="#191970" d="M2316.999,-219.497C2312.0515,-262.738 2301.153,-352.4771 2341.406,-411 2354.0796,-429.4259 2376.1036,-440.6387 2395.284,-447.3732"/>
<polygon fill="#191970" stroke="#191970" points="2320.4784,-219.8757 2318.0938,-209.5527 2313.5204,-219.1095 2320.4784,-219.8757"/>
</g>
<!-- Node52&#45;&gt;Node34 -->
<g id="edge53" class="edge">
<title>Node52&#45;&gt;Node34</title>
<path fill="none" stroke="#191970" d="M2244.8067,-210.6476C2078.4825,-235.1487 1889.7943,-250.4934 1791.4975,-257.3512"/>
<polygon fill="#191970" stroke="#191970" points="2245.3431,-214.1065 2254.7189,-209.1725 2244.3126,-207.1827 2245.3431,-214.1065"/>
</g>
<!-- Node53&#45;&gt;Node17 -->
<g id="edge62" class="edge">
<title>Node53&#45;&gt;Node17</title>
<path fill="none" stroke="#191970" d="M831.7502,-205.3073C845.3363,-207.0913 859.2848,-208.7601 872.406,-210 952.5926,-217.577 1523.4108,-211.9558 1596.406,-246 1687.042,-288.2717 1659.1281,-367.969 1749.406,-411 1803.5704,-436.8175 2193.4344,-450.3418 2358.248,-455.0463"/>
<polygon fill="#191970" stroke="#191970" points="831.8277,-201.7864 821.4511,-203.9257 830.8969,-208.7242 831.8277,-201.7864"/>
</g>
<!-- Node53&#45;&gt;Node18 -->
<g id="edge55" class="edge">
<title>Node53&#45;&gt;Node18</title>
<path fill="none" stroke="#191970" d="M831.7168,-187.3086C866.3021,-184.3767 907.3362,-181.1727 944.406,-179 1381.7256,-153.3686 1495.5542,-203.6465 1929.406,-143 1939.111,-141.6434 1949.4958,-139.4187 1958.9774,-137.0726"/>
<polygon fill="#191970" stroke="#191970" points="831.3387,-183.828 821.6734,-188.1676 831.9353,-190.8026 831.3387,-183.828"/>
</g>
<!-- Node53&#45;&gt;Node19 -->
<g id="edge56" class="edge">
<title>Node53&#45;&gt;Node19</title>
<path fill="none" stroke="#191970" d="M831.7303,-187.5274C866.318,-184.6343 907.3502,-181.4002 944.406,-179 1271.6663,-157.8028 1356.6566,-188.6776 1681.406,-143 1691.4296,-141.5901 1702.167,-139.3783 1712.0073,-137.0624"/>
<polygon fill="#191970" stroke="#191970" points="831.3571,-184.0463 821.686,-188.3731 831.9445,-191.0217 831.3571,-184.0463"/>
</g>
<!-- Node53&#45;&gt;Node23 -->
<g id="edge57" class="edge">
<title>Node53&#45;&gt;Node23</title>
<path fill="none" stroke="#191970" d="M764.2103,-176.4358C778.2765,-156.6571 803.7679,-125.9066 834.406,-112 977.8252,-46.9024 2119.6314,-17.1258 2379.7787,-11.1494"/>
<polygon fill="#191970" stroke="#191970" points="761.1779,-174.6694 758.4119,-184.8968 766.9521,-178.6265 761.1779,-174.6694"/>
</g>
<!-- Node53&#45;&gt;Node24 -->
<g id="edge66" class="edge">
<title>Node53&#45;&gt;Node24</title>
<path fill="none" stroke="#191970" d="M747.6173,-174.8234C743.0736,-157.7255 735.4495,-132.5473 725.406,-112 718.8932,-98.6758 708.9979,-84.7359 702.1465,-75.7428"/>
<polygon fill="#191970" stroke="#191970" points="744.2894,-175.938 750.1528,-184.7625 751.0722,-174.2076 744.2894,-175.938"/>
</g>
<!-- Node53&#45;&gt;Node25 -->
<g id="edge67" class="edge">
<title>Node53&#45;&gt;Node25</title>
<path fill="none" stroke="#191970" d="M757.8454,-175.1409C764.5821,-148.0539 773.9556,-97.5042 763.406,-56 759.9577,-42.4338 751.6112,-28.5431 745.5075,-19.6276"/>
<polygon fill="#191970" stroke="#191970" points="754.4334,-174.354 755.2701,-184.9157 761.2024,-176.1375 754.4334,-174.354"/>
</g>
<!-- Node53&#45;&gt;Node29 -->
<g id="edge59" class="edge">
<title>Node53&#45;&gt;Node29</title>
<path fill="none" stroke="#191970" d="M673.0706,-188.4953C564.9086,-180.0053 365.1915,-163.2483 195.406,-143 180.1702,-141.183 163.7457,-138.9274 148.481,-136.7045"/>
<polygon fill="#191970" stroke="#191970" points="673.0056,-192.0009 683.248,-189.291 673.5512,-185.0221 673.0056,-192.0009"/>
</g>
<!-- Node53&#45;&gt;Node30 -->
<g id="edge60" class="edge">
<title>Node53&#45;&gt;Node30</title>
<path fill="none" stroke="#191970" d="M831.7221,-187.3963C866.3083,-184.4799 907.3416,-181.2638 944.406,-179 1329.7972,-155.4609 1430.5849,-200.3859 1812.406,-143 1821.5175,-141.6306 1831.2502,-139.4018 1840.1295,-137.0559"/>
<polygon fill="#191970" stroke="#191970" points="831.3459,-183.9155 821.6783,-188.2499 831.9388,-190.8904 831.3459,-183.9155"/>
</g>
<!-- Node53&#45;&gt;Node31 -->
<g id="edge61" class="edge">
<title>Node53&#45;&gt;Node31</title>
<path fill="none" stroke="#191970" d="M777.2768,-179.451C793.6721,-169.3912 815.5235,-155.7172 834.406,-143 853.9471,-129.8392 855.1427,-119.7077 877.406,-112 977.2867,-77.4207 1728.1443,-68.2222 1925.8291,-66.3888"/>
<polygon fill="#191970" stroke="#191970" points="775.0282,-176.7231 768.3177,-184.9219 778.6764,-182.6973 775.0282,-176.7231"/>
</g>
<!-- Node53&#45;&gt;Node32 -->
<g id="edge63" class="edge">
<title>Node53&#45;&gt;Node32</title>
<path fill="none" stroke="#191970" d="M673.3039,-188.1212C586.1489,-180.3903 442.0582,-165.5319 319.406,-143 310.5668,-141.3762 301.1142,-139.2282 292.3212,-137.0503"/>
<polygon fill="#191970" stroke="#191970" points="673.116,-191.618 683.3837,-189.006 673.7281,-184.6449 673.116,-191.618"/>
</g>
<!-- Node53&#45;&gt;Node34 -->
<g id="edge73" class="edge">
<title>Node53&#45;&gt;Node34</title>
<path fill="none" stroke="#191970" d="M815.6468,-205.7816C825.2912,-207.4305 835.1109,-208.9303 844.406,-210 1201.5166,-251.0951 1295.3878,-204.1101 1652.406,-246 1653.9702,-246.1835 1655.5496,-246.3799 1657.1391,-246.5877"/>
<polygon fill="#191970" stroke="#191970" points="816.1458,-202.3156 805.6891,-204.0209 814.927,-209.2087 816.1458,-202.3156"/>
</g>
<!-- Node53&#45;&gt;Node36 -->
<g id="edge58" class="edge">
<title>Node53&#45;&gt;Node36</title>
<path fill="none" stroke="#191970" d="M831.7126,-187.2348C866.2971,-184.2898 907.3318,-181.0959 944.406,-179 1437.6554,-151.115 1563.5079,-188.9206 2055.406,-143 2070.7118,-141.5711 2087.2372,-139.3083 2102.3603,-136.9484"/>
<polygon fill="#191970" stroke="#191970" points="831.3328,-183.7544 821.6694,-188.0983 831.9325,-190.7287 831.3328,-183.7544"/>
</g>
<!-- Node53&#45;&gt;Node41 -->
<g id="edge64" class="edge">
<title>Node53&#45;&gt;Node41</title>
<path fill="none" stroke="#191970" d="M708.1026,-182.2342C661.1605,-169.2378 588.0166,-148.9872 545.0948,-137.1039"/>
<polygon fill="#191970" stroke="#191970" points="707.4189,-185.6765 717.9903,-184.9717 709.2867,-178.9303 707.4189,-185.6765"/>
</g>
<!-- Node53&#45;&gt;Node42 -->
<g id="edge65" class="edge">
<title>Node53&#45;&gt;Node42</title>
<path fill="none" stroke="#191970" d="M788.5335,-181.416C824.4931,-168.3928 878.8256,-148.7156 910.9492,-137.0817"/>
<polygon fill="#191970" stroke="#191970" points="787.1225,-178.2044 778.912,-184.9005 789.5062,-184.7861 787.1225,-178.2044"/>
</g>
<!-- Node53&#45;&gt;Node51 -->
<g id="edge68" class="edge">
<title>Node53&#45;&gt;Node51</title>
<path fill="none" stroke="#191970" d="M677.8287,-183.4078C615.9099,-173.8392 525.6394,-159.0578 447.406,-143 438.7829,-141.2301 429.5571,-139.1226 420.8712,-137.0407"/>
<polygon fill="#191970" stroke="#191970" points="677.4833,-186.8958 687.8992,-184.9567 678.5475,-179.9771 677.4833,-186.8958"/>
</g>
<!-- Node53&#45;&gt;Node56 -->
<g id="edge69" class="edge">
<title>Node53&#45;&gt;Node56</title>
<path fill="none" stroke="#191970" d="M831.7085,-187.1613C866.2923,-184.2033 907.3275,-181.0196 944.406,-179 1509.5723,-148.2171 1654.8857,-205.7013 2217.406,-143 2229.6299,-141.6375 2242.7848,-139.3801 2254.7862,-137.0042"/>
<polygon fill="#191970" stroke="#191970" points="831.327,-183.6811 821.6656,-188.0293 831.9298,-190.6551 831.327,-183.6811"/>
</g>
<!-- Node53&#45;&gt;Node60 -->
<g id="edge70" class="edge">
<title>Node53&#45;&gt;Node60</title>
<path fill="none" stroke="#191970" d="M729.134,-179.3619C709.201,-166.3957 681.1038,-148.119 664.136,-137.0817"/>
<polygon fill="#191970" stroke="#191970" points="727.3575,-182.3817 737.6486,-184.9005 731.1745,-176.5138 727.3575,-182.3817"/>
</g>
<!-- Node53&#45;&gt;Node62 -->
<g id="edge71" class="edge">
<title>Node53&#45;&gt;Node62</title>
<path fill="none" stroke="#191970" d="M831.7055,-187.1056C866.2888,-184.1378 907.3244,-180.9617 944.406,-179 1579.7188,-145.3904 1740.0932,-176.6096 2375.406,-143 2416.315,-140.8358 2462.0364,-137.1937 2498.5974,-133.9836"/>
<polygon fill="#191970" stroke="#191970" points="831.3227,-183.6256 821.6628,-187.9771 831.9279,-190.5994 831.3227,-183.6256"/>
</g>
<!-- Node53&#45;&gt;Node64 -->
<g id="edge72" class="edge">
<title>Node53&#45;&gt;Node64</title>
<path fill="none" stroke="#191970" d="M831.7693,-188.0664C866.3639,-185.2689 907.3908,-181.9605 944.406,-179 1150.9042,-162.4843 1394.3255,-143.2643 1516.3606,-133.6459"/>
<polygon fill="#191970" stroke="#191970" points="831.4079,-184.5841 821.7227,-188.8791 831.9723,-191.5613 831.4079,-184.5841"/>
</g>
<!-- Node69&#45;&gt;Node17 -->
<g id="edge80" class="edge">
<title>Node69&#45;&gt;Node17</title>
<path fill="none" stroke="#191970" d="M2784.6757,-219.4829C2776.1506,-265.3069 2743.3932,-362.5306 2677.406,-411 2650.7619,-430.5708 2566.9619,-443.4891 2504.4575,-450.5222"/>
<polygon fill="#191970" stroke="#191970" points="2788.1485,-219.9304 2786.2635,-209.5046 2781.2354,-218.8303 2788.1485,-219.9304"/>
</g>
<!-- Node69&#45;&gt;Node34 -->
<g id="edge82" class="edge">
<title>Node69&#45;&gt;Node34</title>
<path fill="none" stroke="#191970" d="M2718.6667,-210.8513C2525.1823,-235.4647 1982.0826,-253.8771 1791.4554,-259.6208"/>
<polygon fill="#191970" stroke="#191970" points="2719.2573,-214.3038 2728.7128,-209.5242 2718.3405,-207.3641 2719.2573,-214.3038"/>
</g>
<!-- Node69&#45;&gt;Node62 -->
<g id="edge81" class="edge">
<title>Node69&#45;&gt;Node62</title>
<path fill="none" stroke="#191970" d="M2726.7898,-176.4849C2685.423,-163.7713 2631.6434,-147.2427 2598.3337,-137.0053"/>
<polygon fill="#191970" stroke="#191970" points="2725.8956,-179.8716 2736.4825,-179.4639 2727.9521,-173.1805 2725.8956,-179.8716"/>
</g>
<!-- Node90&#45;&gt;Node17 -->
<g id="edge90" class="edge">
<title>Node90&#45;&gt;Node17</title>
<path fill="none" stroke="#191970" d="M3642.9786,-407.1769C3635.5442,-408.6923 3627.7896,-410.0464 3620.406,-411 3403.6075,-438.9993 2729.1943,-452.2708 2504.7943,-455.9225"/>
<polygon fill="#191970" stroke="#191970" points="3643.8233,-410.5751 3652.8529,-405.0328 3642.3379,-403.7345 3643.8233,-410.5751"/>
</g>
<!-- Node91&#45;&gt;Node69 -->
<g id="edge103" class="edge">
<title>Node91&#45;&gt;Node69</title>
<path fill="none" stroke="#191970" d="M2547.1944,-372.4106C2573.823,-340.7873 2625.2452,-283.6443 2678.406,-246 2699.353,-231.167 2725.2329,-218.5809 2746.2934,-209.5644"/>
<polygon fill="#191970" stroke="#191970" points="2544.379,-370.3219 2540.6661,-380.2448 2549.7566,-374.8031 2544.379,-370.3219"/>
</g>
<!-- Node91&#45;&gt;Node92 -->
<g id="edge99" class="edge">
<title>Node91&#45;&gt;Node92</title>
<path fill="none" stroke="#191970" d="M2509.0575,-372.3509C2501.1149,-362.8482 2492.1424,-352.1132 2485.063,-343.6432"/>
<polygon fill="#191970" stroke="#191970" points="2506.6001,-374.8684 2515.6987,-380.2967 2511.9711,-370.3792 2506.6001,-374.8684"/>
</g>
<!-- Node92&#45;&gt;Node17 -->
<g id="edge100" class="edge">
<title>Node92&#45;&gt;Node17</title>
<path fill="none" stroke="#191970" d="M2469.8362,-353.7784C2462.8214,-382.4221 2447.8087,-427.6745 2438.2611,-447.3416"/>
<polygon fill="#191970" stroke="#191970" points="2473.3229,-354.2262 2472.105,-343.7016 2466.4939,-352.6886 2473.3229,-354.2262"/>
</g>
<!-- Node92&#45;&gt;Node34 -->
<g id="edge102" class="edge">
<title>Node92&#45;&gt;Node34</title>
<path fill="none" stroke="#191970" d="M2402.7727,-322.2628C2259.4164,-309.4221 1932.9372,-280.1786 1791.6457,-267.5228"/>
<polygon fill="#191970" stroke="#191970" points="2402.5004,-325.7523 2412.7728,-323.1585 2403.125,-318.7802 2402.5004,-325.7523"/>
</g>
<!-- Node92&#45;&gt;Node62 -->
<g id="edge101" class="edge">
<title>Node92&#45;&gt;Node62</title>
<path fill="none" stroke="#191970" d="M2488.3055,-304.8333C2503.4705,-281.4888 2526.1936,-244.4068 2541.406,-210 2552.5796,-184.728 2561.1228,-153.1649 2565.0445,-137.4097"/>
<polygon fill="#191970" stroke="#191970" points="2485.2661,-303.0854 2482.7011,-313.3651 2491.1167,-306.9286 2485.2661,-303.0854"/>
</g>
<!-- Node101&#45;&gt;Node96 -->
<g id="edge111" class="edge">
<title>Node101&#45;&gt;Node96</title>
<path fill="none" stroke="#191970" d="M3979.1785,-371.7735C3973.1726,-362.4154 3966.4509,-351.9421 3961.1248,-343.6432"/>
<polygon fill="#191970" stroke="#191970" points="3976.3018,-373.7712 3984.6486,-380.2967 3982.1929,-369.9903 3976.3018,-373.7712"/>
</g>
<!-- Node103&#45;&gt;Node23 -->
<g id="edge114" class="edge">
<title>Node103&#45;&gt;Node23</title>
<path fill="none" stroke="#191970" d="M4437.5721,-243.8223C4422.1776,-224.1644 4394.4059,-193.2997 4362.406,-179 4186.3119,-100.3091 2776.3557,-26.957 2484.9786,-12.5503"/>
<polygon fill="#191970" stroke="#191970" points="4434.915,-246.111 4443.7451,-251.966 4440.4935,-241.8824 4434.915,-246.111"/>
</g>
</g>
</svg>
