<?xml version="1.0" encoding="UTF-8" standalone="no"?>
<!DOCTYPE svg PUBLIC "-//W3C//DTD SVG 1.1//EN"
 "http://www.w3.org/Graphics/SVG/1.1/DTD/svg11.dtd">
<!-- Generated by graphviz version 2.40.1 (0)
 -->
<!-- Title: ViennaRNA/duplex.h Pages: 1 -->
<svg width="1454pt" height="341pt"
 viewBox="0.00 0.00 1454.00 341.00" xmlns="http://www.w3.org/2000/svg" xmlns:xlink="http://www.w3.org/1999/xlink">
<g id="graph0" class="graph" transform="scale(1 1) rotate(0) translate(4 337)">
<title>ViennaRNA/duplex.h</title>
<!-- Node0 -->
<g id="node1" class="node">
<title>Node0</title>
<g id="a_node1"><a xlink:title="Functions for simple RNA&#45;RNA duplex interactions.">
<polygon fill="#bfbfbf" stroke="#000000" points="754,-313.5 754,-332.5 862,-332.5 862,-313.5 754,-313.5"/>
<text text-anchor="middle" x="808" y="-320.5" font-family="Helvetica,sans-Serif" font-size="10.00" fill="#000000">ViennaRNA/duplex.h</text>
</a>
</g>
</g>
<!-- Node1 -->
<g id="node2" class="node">
<title>Node1</title>
<g id="a_node2"><a xlink:href="$datastructures_2basic_8h.html" xlink:title="Various data structures and pre&#45;processor macros.">
<polygon fill="none" stroke="#000000" points="741,-246.5 741,-276.5 875,-276.5 875,-246.5 741,-246.5"/>
<text text-anchor="start" x="749" y="-264.5" font-family="Helvetica,sans-Serif" font-size="10.00" fill="#000000">ViennaRNA/datastructures</text>
<text text-anchor="middle" x="808" y="-253.5" font-family="Helvetica,sans-Serif" font-size="10.00" fill="#000000">/basic.h</text>
</a>
</g>
</g>
<!-- Node0&#45;&gt;Node1 -->
<g id="edge1" class="edge">
<title>Node0&#45;&gt;Node1</title>
<path fill="none" stroke="#191970" d="M808,-313.3906C808,-306.2234 808,-296.0862 808,-286.671"/>
<polygon fill="#191970" stroke="#191970" points="811.5001,-286.5446 808,-276.5446 804.5001,-286.5446 811.5001,-286.5446"/>
</g>
<!-- Node2 -->
<g id="node3" class="node">
<title>Node2</title>
<g id="a_node3"><a xlink:href="$constants_8h.html" xlink:title="Energy parameter constants.">
<polygon fill="none" stroke="#000000" points="0,-62 0,-81 158,-81 158,-62 0,-62"/>
<text text-anchor="middle" x="79" y="-69" font-family="Helvetica,sans-Serif" font-size="10.00" fill="#000000">ViennaRNA/params/constants.h</text>
</a>
</g>
</g>
<!-- Node1&#45;&gt;Node2 -->
<g id="edge2" class="edge">
<title>Node1&#45;&gt;Node2</title>
<path fill="none" stroke="#191970" d="M740.715,-258.3972C611.7191,-251.9521 334.2359,-235.5518 242,-210 186.829,-194.7162 167.8353,-193.0799 126,-154 106.9683,-136.2218 93.5262,-108.9646 86.0232,-90.7"/>
<polygon fill="#191970" stroke="#191970" points="89.1847,-89.1731 82.2945,-81.1248 82.6618,-91.7132 89.1847,-89.1731"/>
</g>
<!-- Node4 -->
<g id="node5" class="node">
<title>Node4</title>
<g id="a_node5"><a xlink:href="$fold__compound_8h.html" xlink:title="The Basic Fold Compound API.">
<polygon fill="none" stroke="#000000" points="673,-190.5 673,-209.5 819,-209.5 819,-190.5 673,-190.5"/>
<text text-anchor="middle" x="746" y="-197.5" font-family="Helvetica,sans-Serif" font-size="10.00" fill="#000000">ViennaRNA/fold_compound.h</text>
</a>
</g>
</g>
<!-- Node1&#45;&gt;Node4 -->
<g id="edge4" class="edge">
<title>Node1&#45;&gt;Node4</title>
<path fill="none" stroke="#191970" d="M792.6742,-246.2977C783.7093,-237.4052 772.3712,-226.1586 763.1149,-216.9769"/>
<polygon fill="#191970" stroke="#191970" points="765.4915,-214.4045 755.927,-209.8469 760.5618,-219.3742 765.4915,-214.4045"/>
</g>
<!-- Node5 -->
<g id="node6" class="node">
<title>Node5</title>
<g id="a_node6"><a xlink:href="$model_8h.html" xlink:title="The model details data structure and its corresponding modifiers.">
<polygon fill="none" stroke="#000000" points="176,-62 176,-81 282,-81 282,-62 176,-62"/>
<text text-anchor="middle" x="229" y="-69" font-family="Helvetica,sans-Serif" font-size="10.00" fill="#000000">ViennaRNA/model.h</text>
</a>
</g>
</g>
<!-- Node1&#45;&gt;Node5 -->
<g id="edge33" class="edge">
<title>Node1&#45;&gt;Node5</title>
<path fill="none" stroke="#191970" d="M740.8744,-255.7125C578.4483,-241.0268 174.6997,-200.1864 136,-154 113.1297,-126.7053 158.3672,-100.3253 193.4229,-85.0182"/>
<polygon fill="#191970" stroke="#191970" points="195.113,-88.1045 202.9754,-81.0029 192.4004,-81.6514 195.113,-88.1045"/>
</g>
<!-- Node6 -->
<g id="node7" class="node">
<title>Node6</title>
<g id="a_node7"><a xlink:href="$params_2basic_8h.html" xlink:title="Functions to deal with sets of energy parameters.">
<polygon fill="none" stroke="#000000" points="145,-129 145,-148 283,-148 283,-129 145,-129"/>
<text text-anchor="middle" x="214" y="-136" font-family="Helvetica,sans-Serif" font-size="10.00" fill="#000000">ViennaRNA/params/basic.h</text>
</a>
</g>
</g>
<!-- Node1&#45;&gt;Node6 -->
<g id="edge34" class="edge">
<title>Node1&#45;&gt;Node6</title>
<path fill="none" stroke="#191970" d="M740.737,-249.9949C685.7,-239.7548 606.1271,-224.2364 537,-210 438.5344,-189.7214 323.953,-164.7371 261.0639,-150.3115"/>
<polygon fill="#191970" stroke="#191970" points="261.5839,-146.8396 251.0531,-148.0031 260.0109,-153.6606 261.5839,-146.8396"/>
</g>
<!-- Node8 -->
<g id="node9" class="node">
<title>Node8</title>
<g id="a_node9"><a xlink:href="$dp__matrices_8h.html" xlink:title="Functions to deal with standard dynamic programming (DP) matrices.">
<polygon fill="none" stroke="#000000" points="301.5,-129 301.5,-148 434.5,-148 434.5,-129 301.5,-129"/>
<text text-anchor="middle" x="368" y="-136" font-family="Helvetica,sans-Serif" font-size="10.00" fill="#000000">ViennaRNA/dp_matrices.h</text>
</a>
</g>
</g>
<!-- Node1&#45;&gt;Node8 -->
<g id="edge35" class="edge">
<title>Node1&#45;&gt;Node8</title>
<path fill="none" stroke="#191970" d="M744.1907,-246.4931C704.9741,-236.327 653.9403,-222.5164 609,-210 536.2755,-189.7454 451.8835,-165.4423 404.6092,-151.0232"/>
<polygon fill="#191970" stroke="#191970" points="405.4088,-147.6074 394.8218,-148.0143 403.3518,-154.2983 405.4088,-147.6074"/>
</g>
<!-- Node9 -->
<g id="node10" class="node">
<title>Node9</title>
<g id="a_node10"><a xlink:href="$hard_8h.html" xlink:title="Functions and data structures for handling of secondary structure hard constraints.">
<polygon fill="none" stroke="#000000" points="452.5,-123.5 452.5,-153.5 571.5,-153.5 571.5,-123.5 452.5,-123.5"/>
<text text-anchor="start" x="460.5" y="-141.5" font-family="Helvetica,sans-Serif" font-size="10.00" fill="#000000">ViennaRNA/constraints</text>
<text text-anchor="middle" x="512" y="-130.5" font-family="Helvetica,sans-Serif" font-size="10.00" fill="#000000">/hard.h</text>
</a>
</g>
</g>
<!-- Node1&#45;&gt;Node9 -->
<g id="edge36" class="edge">
<title>Node1&#45;&gt;Node9</title>
<path fill="none" stroke="#191970" d="M762.4984,-246.4814C733.9495,-236.7503 696.5169,-223.4261 664,-210 624.9148,-193.8619 581.3417,-173.0669 550.9039,-158.0677"/>
<polygon fill="#191970" stroke="#191970" points="552.4138,-154.9098 541.8989,-153.6105 549.3085,-161.1834 552.4138,-154.9098"/>
</g>
<!-- Node11 -->
<g id="node12" class="node">
<title>Node11</title>
<g id="a_node12"><a xlink:href="$soft_8h.html" xlink:title="Functions and data structures for secondary structure soft constraints.">
<polygon fill="none" stroke="#000000" points="941.5,-123.5 941.5,-153.5 1060.5,-153.5 1060.5,-123.5 941.5,-123.5"/>
<text text-anchor="start" x="949.5" y="-141.5" font-family="Helvetica,sans-Serif" font-size="10.00" fill="#000000">ViennaRNA/constraints</text>
<text text-anchor="middle" x="1001" y="-130.5" font-family="Helvetica,sans-Serif" font-size="10.00" fill="#000000">/soft.h</text>
</a>
</g>
</g>
<!-- Node1&#45;&gt;Node11 -->
<g id="edge37" class="edge">
<title>Node1&#45;&gt;Node11</title>
<path fill="none" stroke="#191970" d="M827.0513,-246.4178C858.9993,-224.3648 923.296,-183.2739 964.2266,-158.6527"/>
<polygon fill="#191970" stroke="#191970" points="966.0444,-161.6438 972.8371,-153.513 962.4566,-155.6332 966.0444,-161.6438"/>
</g>
<!-- Node12 -->
<g id="node13" class="node">
<title>Node12</title>
<g id="a_node13"><a xlink:href="$grammar_8h.html" xlink:title="Implementations for the RNA folding grammar.">
<polygon fill="none" stroke="#000000" points="806.5,-129 806.5,-148 923.5,-148 923.5,-129 806.5,-129"/>
<text text-anchor="middle" x="865" y="-136" font-family="Helvetica,sans-Serif" font-size="10.00" fill="#000000">ViennaRNA/grammar.h</text>
</a>
</g>
</g>
<!-- Node1&#45;&gt;Node12 -->
<g id="edge38" class="edge">
<title>Node1&#45;&gt;Node12</title>
<path fill="none" stroke="#191970" d="M814.9893,-246.4178C825.3941,-223.9655 844.9436,-181.7796 856.2731,-157.3317"/>
<polygon fill="#191970" stroke="#191970" points="859.5457,-158.594 860.5747,-148.0493 853.1945,-155.6507 859.5457,-158.594"/>
</g>
<!-- Node13 -->
<g id="node14" class="node">
<title>Node13</title>
<g id="a_node14"><a xlink:href="$structured__domains_8h.html" xlink:title="This module provides interfaces that deal with additional structured domains in the folding grammar.">
<polygon fill="none" stroke="#000000" points="1078.5,-123.5 1078.5,-153.5 1193.5,-153.5 1193.5,-123.5 1078.5,-123.5"/>
<text text-anchor="start" x="1086.5" y="-141.5" font-family="Helvetica,sans-Serif" font-size="10.00" fill="#000000">ViennaRNA/structured</text>
<text text-anchor="middle" x="1136" y="-130.5" font-family="Helvetica,sans-Serif" font-size="10.00" fill="#000000">_domains.h</text>
</a>
</g>
</g>
<!-- Node1&#45;&gt;Node13 -->
<g id="edge39" class="edge">
<title>Node1&#45;&gt;Node13</title>
<path fill="none" stroke="#191970" d="M848.2192,-246.4178C908.2602,-223.9024 1021.2196,-181.5427 1086.33,-157.1263"/>
<polygon fill="#191970" stroke="#191970" points="1087.831,-160.3014 1095.9653,-153.513 1085.3731,-153.7471 1087.831,-160.3014"/>
</g>
<!-- Node14 -->
<g id="node15" class="node">
<title>Node14</title>
<g id="a_node15"><a xlink:href="$unstructured__domains_8h.html" xlink:title="Functions to modify unstructured domains, e.g. to incorporate ligands binding to unpaired stretches.">
<polygon fill="none" stroke="#000000" points="1211.5,-123.5 1211.5,-153.5 1336.5,-153.5 1336.5,-123.5 1211.5,-123.5"/>
<text text-anchor="start" x="1219.5" y="-141.5" font-family="Helvetica,sans-Serif" font-size="10.00" fill="#000000">ViennaRNA/unstructured</text>
<text text-anchor="middle" x="1274" y="-130.5" font-family="Helvetica,sans-Serif" font-size="10.00" fill="#000000">_domains.h</text>
</a>
</g>
</g>
<!-- Node1&#45;&gt;Node14 -->
<g id="edge40" class="edge">
<title>Node1&#45;&gt;Node14</title>
<path fill="none" stroke="#191970" d="M860.5265,-246.4178C944.3892,-223.5557 1108.4299,-180.2332 1202.7684,-156.0111"/>
<polygon fill="#191970" stroke="#191970" points="1203.6976,-159.3861 1212.5156,-153.513 1201.9597,-152.6053 1203.6976,-159.3861"/>
</g>
<!-- Node15 -->
<g id="node16" class="node">
<title>Node15</title>
<g id="a_node16"><a xlink:href="$utils_2structures_8h.html" xlink:title="Various utility&#45; and helper&#45;functions for secondary structure parsing, converting,...">
<polygon fill="none" stroke="#000000" points="1302,-62 1302,-81 1446,-81 1446,-62 1302,-62"/>
<text text-anchor="middle" x="1374" y="-69" font-family="Helvetica,sans-Serif" font-size="10.00" fill="#000000">ViennaRNA/utils/structures.h</text>
</a>
</g>
</g>
<!-- Node1&#45;&gt;Node15 -->
<g id="edge41" class="edge">
<title>Node1&#45;&gt;Node15</title>
<path fill="none" stroke="#191970" d="M875.4579,-255.8792C1002.1079,-244.3924 1268.5486,-214.0861 1337,-154 1355.1494,-138.0686 1361.5513,-109.9183 1365.9828,-90.9877"/>
<polygon fill="#191970" stroke="#191970" points="1369.4326,-91.6172 1368.4383,-81.0691 1362.6377,-89.935 1369.4326,-91.6172"/>
</g>
<!-- Node3 -->
<g id="node4" class="node">
<title>Node3</title>
<g id="a_node4"><a xlink:title=" ">
<polygon fill="none" stroke="#bfbfbf" points="55,-.5 55,-19.5 103,-19.5 103,-.5 55,-.5"/>
<text text-anchor="middle" x="79" y="-7.5" font-family="Helvetica,sans-Serif" font-size="10.00" fill="#000000">limits.h</text>
</a>
</g>
</g>
<!-- Node2&#45;&gt;Node3 -->
<g id="edge3" class="edge">
<title>Node2&#45;&gt;Node3</title>
<path fill="none" stroke="#191970" d="M79,-61.8906C79,-53.3657 79,-40.6392 79,-29.9235"/>
<polygon fill="#191970" stroke="#191970" points="82.5001,-29.7448 79,-19.7449 75.5001,-29.7449 82.5001,-29.7448"/>
</g>
<!-- Node4&#45;&gt;Node5 -->
<g id="edge5" class="edge">
<title>Node4&#45;&gt;Node5</title>
<path fill="none" stroke="#191970" d="M746.0016,-190.3728C745.4332,-173.7189 741.6458,-139.7151 721,-123 688.335,-96.5539 417.9662,-80.4406 292.5061,-74.3207"/>
<polygon fill="#191970" stroke="#191970" points="292.434,-70.8133 282.2772,-73.8283 292.0973,-77.8052 292.434,-70.8133"/>
</g>
<!-- Node4&#45;&gt;Node6 -->
<g id="edge6" class="edge">
<title>Node4&#45;&gt;Node6</title>
<path fill="none" stroke="#191970" d="M672.6773,-195.2039C580.9968,-188.4026 419.7212,-174.4634 283,-154 275.2234,-152.8361 267.0464,-151.4228 259.1312,-149.9289"/>
<polygon fill="#191970" stroke="#191970" points="259.7809,-146.4897 249.2951,-148.006 258.4378,-153.3597 259.7809,-146.4897"/>
</g>
<!-- Node7 -->
<g id="node8" class="node">
<title>Node7</title>
<g id="a_node8"><a xlink:href="$sequence_8h.html" xlink:title="Functions and data structures related to sequence representations ,.">
<polygon fill="none" stroke="#000000" points="590,-129 590,-148 712,-148 712,-129 590,-129"/>
<text text-anchor="middle" x="651" y="-136" font-family="Helvetica,sans-Serif" font-size="10.00" fill="#000000">ViennaRNA/sequence.h</text>
</a>
</g>
</g>
<!-- Node4&#45;&gt;Node7 -->
<g id="edge11" class="edge">
<title>Node4&#45;&gt;Node7</title>
<path fill="none" stroke="#191970" d="M726.0938,-190.3906C709.133,-180.6421 685.2932,-165.3994 668.9243,-153.9521"/>
<polygon fill="#191970" stroke="#191970" points="670.8551,-151.0297 660.6902,-148.0419 666.7733,-156.7164 670.8551,-151.0297"/>
</g>
<!-- Node4&#45;&gt;Node8 -->
<g id="edge13" class="edge">
<title>Node4&#45;&gt;Node8</title>
<path fill="none" stroke="#191970" d="M672.9369,-191.0008C609.4358,-182.3807 515.3098,-168.5634 434,-154 427.3171,-152.803 420.3162,-151.4669 413.4616,-150.0947"/>
<polygon fill="#191970" stroke="#191970" points="414.0764,-146.648 403.5775,-148.0705 412.6719,-153.5057 414.0764,-146.648"/>
</g>
<!-- Node4&#45;&gt;Node9 -->
<g id="edge16" class="edge">
<title>Node4&#45;&gt;Node9</title>
<path fill="none" stroke="#191970" d="M704.645,-190.4581C668.1513,-181.3376 614.6065,-167.3638 573.184,-156.2042"/>
<polygon fill="#191970" stroke="#191970" points="574.0373,-152.8093 563.4705,-153.5784 572.2106,-159.5667 574.0373,-152.8093"/>
</g>
<!-- Node4&#45;&gt;Node11 -->
<g id="edge20" class="edge">
<title>Node4&#45;&gt;Node11</title>
<path fill="none" stroke="#191970" d="M780.5147,-190.4581C819.1644,-180.6732 882.6044,-165.3023 931.5774,-153.8132"/>
<polygon fill="#191970" stroke="#191970" points="932.5402,-157.1826 941.4803,-151.4971 930.946,-150.3665 932.5402,-157.1826"/>
</g>
<!-- Node4&#45;&gt;Node12 -->
<g id="edge24" class="edge">
<title>Node4&#45;&gt;Node12</title>
<path fill="none" stroke="#191970" d="M759.5313,-190.3906C777.2773,-180.1908 808.422,-163.9763 832.3764,-152.3875"/>
<polygon fill="#191970" stroke="#191970" points="833.9683,-155.506 841.4875,-148.0419 830.9548,-149.1878 833.9683,-155.506"/>
</g>
<!-- Node4&#45;&gt;Node13 -->
<g id="edge26" class="edge">
<title>Node4&#45;&gt;Node13</title>
<path fill="none" stroke="#191970" d="M819.0101,-191.5323C882.5629,-183.7273 977.3436,-171.0455 1068.5209,-154.1899"/>
<polygon fill="#191970" stroke="#191970" points="1069.2845,-157.6079 1078.4716,-152.3308 1067.9989,-150.7269 1069.2845,-157.6079"/>
</g>
<!-- Node4&#45;&gt;Node14 -->
<g id="edge27" class="edge">
<title>Node4&#45;&gt;Node14</title>
<path fill="none" stroke="#191970" d="M819.1111,-194.7662C908.0773,-188.1103 1062.4832,-174.9042 1194,-154 1196.3655,-153.624 1198.7706,-153.2185 1201.2001,-152.79"/>
<polygon fill="#191970" stroke="#191970" points="1202.0945,-156.1838 1211.2865,-150.9152 1200.8153,-149.3017 1202.0945,-156.1838"/>
</g>
<!-- Node6&#45;&gt;Node1 -->
<g id="edge8" class="edge">
<title>Node6&#45;&gt;Node1</title>
<path fill="none" stroke="#191970" d="M262.796,-148.0031C329.1456,-161.9408 451.0528,-188.5925 555,-210 614.0434,-222.1597 680.7074,-235.2547 730.8349,-245.1971"/>
<polygon fill="#191970" stroke="#191970" points="730.4618,-248.6913 740.9519,-247.2058 731.825,-241.8253 730.4618,-248.6913"/>
</g>
<!-- Node6&#45;&gt;Node2 -->
<g id="edge7" class="edge">
<title>Node6&#45;&gt;Node2</title>
<path fill="none" stroke="#191970" d="M194.6578,-128.9005C171.8013,-117.5569 133.573,-98.5844 107.3666,-85.5783"/>
<polygon fill="#191970" stroke="#191970" points="108.8198,-82.3922 98.3063,-81.0817 105.7079,-88.6624 108.8198,-82.3922"/>
</g>
<!-- Node6&#45;&gt;Node4 -->
<g id="edge9" class="edge">
<title>Node6&#45;&gt;Node4</title>
<path fill="none" stroke="#191970" d="M266.7249,-148.006C278.0701,-150.185 289.94,-152.3446 301,-154 426.6121,-172.8007 572.9505,-186.0943 662.5803,-193.405"/>
<polygon fill="#191970" stroke="#191970" points="662.4361,-196.9047 672.686,-194.2235 663.0013,-189.9275 662.4361,-196.9047"/>
</g>
<!-- Node6&#45;&gt;Node5 -->
<g id="edge10" class="edge">
<title>Node6&#45;&gt;Node5</title>
<path fill="none" stroke="#191970" d="M216.1491,-128.9005C218.3546,-119.0495 221.8481,-103.4451 224.6363,-90.9912"/>
<polygon fill="#191970" stroke="#191970" points="228.0855,-91.6048 226.8549,-81.0817 221.2546,-90.0754 228.0855,-91.6048"/>
</g>
<!-- Node7&#45;&gt;Node4 -->
<g id="edge12" class="edge">
<title>Node7&#45;&gt;Node4</title>
<path fill="none" stroke="#191970" d="M670.7888,-148.0419C687.7177,-157.765 711.5588,-173.0037 727.9621,-184.4685"/>
<polygon fill="#191970" stroke="#191970" points="726.0529,-187.4063 736.2188,-190.3906 730.1327,-181.7182 726.0529,-187.4063"/>
</g>
<!-- Node8&#45;&gt;Node1 -->
<g id="edge14" class="edge">
<title>Node8&#45;&gt;Node1</title>
<path fill="none" stroke="#191970" d="M406.6167,-148.0143C457.4361,-161.8541 548.9394,-188.2592 627,-210 668.0783,-221.4408 714.2476,-233.9628 749.7458,-243.7946"/>
<polygon fill="#191970" stroke="#191970" points="748.8901,-247.1893 759.462,-246.4931 750.7634,-240.4446 748.8901,-247.1893"/>
</g>
<!-- Node8&#45;&gt;Node4 -->
<g id="edge15" class="edge">
<title>Node8&#45;&gt;Node4</title>
<path fill="none" stroke="#191970" d="M421.1065,-148.0705C431.4024,-150.1286 442.0533,-152.2184 452,-154 527.3779,-167.501 613.7702,-180.3607 673.3682,-189.0329"/>
<polygon fill="#191970" stroke="#191970" points="673.036,-192.5213 683.4353,-190.4952 674.0423,-185.594 673.036,-192.5213"/>
</g>
<!-- Node9&#45;&gt;Node4 -->
<g id="edge17" class="edge">
<title>Node9&#45;&gt;Node4</title>
<path fill="none" stroke="#191970" d="M571.9211,-152.7252C613.4952,-163.2957 667.728,-177.5723 704.5889,-187.6623"/>
<polygon fill="#191970" stroke="#191970" points="703.9297,-191.1109 714.5,-190.3906 705.7876,-184.362 703.9297,-191.1109"/>
</g>
<!-- Node10 -->
<g id="node11" class="node">
<title>Node10</title>
<g id="a_node11"><a xlink:href="$constraints_2basic_8h.html" xlink:title="Functions and data structures for constraining secondary structure predictions and evaluation.">
<polygon fill="none" stroke="#000000" points="718.5,-56.5 718.5,-86.5 837.5,-86.5 837.5,-56.5 718.5,-56.5"/>
<text text-anchor="start" x="726.5" y="-74.5" font-family="Helvetica,sans-Serif" font-size="10.00" fill="#000000">ViennaRNA/constraints</text>
<text text-anchor="middle" x="778" y="-63.5" font-family="Helvetica,sans-Serif" font-size="10.00" fill="#000000">/basic.h</text>
</a>
</g>
</g>
<!-- Node9&#45;&gt;Node10 -->
<g id="edge18" class="edge">
<title>Node9&#45;&gt;Node10</title>
<path fill="none" stroke="#191970" d="M571.6956,-123.4639C612.1957,-113.2627 665.8843,-99.7397 708.3391,-89.0462"/>
<polygon fill="#191970" stroke="#191970" points="709.2018,-92.4383 718.044,-86.6017 707.492,-85.6503 709.2018,-92.4383"/>
</g>
<!-- Node10&#45;&gt;Node4 -->
<g id="edge19" class="edge">
<title>Node10&#45;&gt;Node4</title>
<path fill="none" stroke="#191970" d="M774.2144,-86.7016C768.3876,-110.0997 757.2263,-154.9192 750.8269,-180.6171"/>
<polygon fill="#191970" stroke="#191970" points="747.4255,-179.7922 748.4052,-190.3416 754.218,-181.4838 747.4255,-179.7922"/>
</g>
<!-- Node11&#45;&gt;Node1 -->
<g id="edge21" class="edge">
<title>Node11&#45;&gt;Node1</title>
<path fill="none" stroke="#191970" d="M982.0489,-153.513C950.1688,-175.5261 885.8815,-216.6142 844.902,-241.2699"/>
<polygon fill="#191970" stroke="#191970" points="843.0717,-238.2863 836.2798,-246.4178 846.6602,-244.2965 843.0717,-238.2863"/>
</g>
<!-- Node11&#45;&gt;Node4 -->
<g id="edge22" class="edge">
<title>Node11&#45;&gt;Node4</title>
<path fill="none" stroke="#191970" d="M944.3808,-153.5784C901.4499,-164.2376 842.8869,-178.3255 800.4836,-188.1749"/>
<polygon fill="#191970" stroke="#191970" points="799.5672,-184.7944 790.6133,-190.4581 801.1448,-191.6143 799.5672,-184.7944"/>
</g>
<!-- Node11&#45;&gt;Node10 -->
<g id="edge23" class="edge">
<title>Node11&#45;&gt;Node10</title>
<path fill="none" stroke="#191970" d="M950.9544,-123.4639C917.5017,-113.4131 873.316,-100.1375 837.9796,-89.5208"/>
<polygon fill="#191970" stroke="#191970" points="838.848,-86.1272 828.2638,-86.6017 836.8338,-92.8312 838.848,-86.1272"/>
</g>
<!-- Node12&#45;&gt;Node4 -->
<g id="edge25" class="edge">
<title>Node12&#45;&gt;Node4</title>
<path fill="none" stroke="#191970" d="M851.5861,-148.0419C833.8994,-158.2151 802.7685,-174.4265 778.7824,-186.0357"/>
<polygon fill="#191970" stroke="#191970" points="777.174,-182.9251 769.6563,-190.3906 780.1887,-189.2426 777.174,-182.9251"/>
</g>
<!-- Node14&#45;&gt;Node1 -->
<g id="edge28" class="edge">
<title>Node14&#45;&gt;Node1</title>
<path fill="none" stroke="#191970" d="M1221.7274,-153.513C1138.0268,-176.3337 973.9969,-219.6547 879.5177,-243.9154"/>
<polygon fill="#191970" stroke="#191970" points="878.5728,-240.5444 869.755,-246.4178 880.3109,-247.3252 878.5728,-240.5444"/>
</g>
<!-- Node14&#45;&gt;Node4 -->
<g id="edge29" class="edge">
<title>Node14&#45;&gt;Node4</title>
<path fill="none" stroke="#191970" d="M1215.0099,-153.5095C1214.0007,-153.6779 1212.9968,-153.8416 1212,-154 1079.0281,-175.1354 922.6578,-188.4016 829.0178,-194.9847"/>
<polygon fill="#191970" stroke="#191970" points="828.7694,-191.4934 819.0358,-195.6777 829.2543,-198.4766 828.7694,-191.4934"/>
</g>
<!-- Node14&#45;&gt;Node15 -->
<g id="edge30" class="edge">
<title>Node14&#45;&gt;Node15</title>
<path fill="none" stroke="#191970" d="M1296.6915,-123.2967C1313.0283,-112.351 1334.9759,-97.6462 1351.3119,-86.701"/>
<polygon fill="#191970" stroke="#191970" points="1353.3793,-89.5289 1359.7388,-81.055 1349.483,-83.7135 1353.3793,-89.5289"/>
</g>
<!-- Node15&#45;&gt;Node1 -->
<g id="edge32" class="edge">
<title>Node15&#45;&gt;Node1</title>
<path fill="none" stroke="#191970" d="M1378.9626,-81.0691C1381.6117,-98.3979 1376.7114,-134.9419 1355,-154 1286.4553,-214.168 1019.381,-244.4749 885.4049,-255.926"/>
<polygon fill="#191970" stroke="#191970" points="884.8824,-252.4575 875.2107,-256.7828 885.4687,-259.4329 884.8824,-252.4575"/>
</g>
<!-- Node16 -->
<g id="node17" class="node">
<title>Node16</title>
<g id="a_node17"><a xlink:title=" ">
<polygon fill="none" stroke="#bfbfbf" points="1351,-.5 1351,-19.5 1397,-19.5 1397,-.5 1351,-.5"/>
<text text-anchor="middle" x="1374" y="-7.5" font-family="Helvetica,sans-Serif" font-size="10.00" fill="#000000">stdio.h</text>
</a>
</g>
</g>
<!-- Node15&#45;&gt;Node16 -->
<g id="edge31" class="edge">
<title>Node15&#45;&gt;Node16</title>
<path fill="none" stroke="#191970" d="M1374,-61.8906C1374,-53.3657 1374,-40.6392 1374,-29.9235"/>
<polygon fill="#191970" stroke="#191970" points="1377.5001,-29.7448 1374,-19.7449 1370.5001,-29.7449 1377.5001,-29.7448"/>
</g>
</g>
</svg>
