<?xml version="1.0" encoding="UTF-8" standalone="no"?>
<!DOCTYPE svg PUBLIC "-//W3C//DTD SVG 1.1//EN"
 "http://www.w3.org/Graphics/SVG/1.1/DTD/svg11.dtd">
<!-- Generated by graphviz version 2.40.1 (0)
 -->
<!-- Title: ViennaRNA/equilibrium_probs.h Pages: 1 -->
<svg width="1463pt" height="352pt"
 viewBox="0.00 0.00 1462.50 352.00" xmlns="http://www.w3.org/2000/svg" xmlns:xlink="http://www.w3.org/1999/xlink">
<g id="graph0" class="graph" transform="scale(1 1) rotate(0) translate(4 348)">
<title>ViennaRNA/equilibrium_probs.h</title>
<!-- Node0 -->
<g id="node1" class="node">
<title>Node0</title>
<g id="a_node1"><a xlink:title="Equilibrium Probability implementations.">
<polygon fill="#bfbfbf" stroke="#000000" points="1077.5,-313.5 1077.5,-343.5 1195.5,-343.5 1195.5,-313.5 1077.5,-313.5"/>
<text text-anchor="start" x="1085.5" y="-331.5" font-family="Helvetica,sans-Serif" font-size="10.00" fill="#000000">ViennaRNA/equilibrium</text>
<text text-anchor="middle" x="1136.5" y="-320.5" font-family="Helvetica,sans-Serif" font-size="10.00" fill="#000000">_probs.h</text>
</a>
</g>
</g>
<!-- Node1 -->
<g id="node2" class="node">
<title>Node1</title>
<g id="a_node2"><a xlink:href="$datastructures_2basic_8h.html" xlink:title="Various data structures and pre&#45;processor macros.">
<polygon fill="none" stroke="#000000" points="853.5,-246.5 853.5,-276.5 987.5,-276.5 987.5,-246.5 853.5,-246.5"/>
<text text-anchor="start" x="861.5" y="-264.5" font-family="Helvetica,sans-Serif" font-size="10.00" fill="#000000">ViennaRNA/datastructures</text>
<text text-anchor="middle" x="920.5" y="-253.5" font-family="Helvetica,sans-Serif" font-size="10.00" fill="#000000">/basic.h</text>
</a>
</g>
</g>
<!-- Node0&#45;&gt;Node1 -->
<g id="edge1" class="edge">
<title>Node0&#45;&gt;Node1</title>
<path fill="none" stroke="#191970" d="M1088.0254,-313.4639C1055.7612,-303.456 1013.1896,-290.2509 979.0361,-279.657"/>
<polygon fill="#191970" stroke="#191970" points="979.7741,-276.2215 969.186,-276.6017 977.7002,-282.9072 979.7741,-276.2215"/>
</g>
<!-- Node4 -->
<g id="node5" class="node">
<title>Node4</title>
<g id="a_node5"><a xlink:href="$fold__compound_8h.html" xlink:title="The Basic Fold Compound API.">
<polygon fill="none" stroke="#000000" points="623.5,-190.5 623.5,-209.5 769.5,-209.5 769.5,-190.5 623.5,-190.5"/>
<text text-anchor="middle" x="696.5" y="-197.5" font-family="Helvetica,sans-Serif" font-size="10.00" fill="#000000">ViennaRNA/fold_compound.h</text>
</a>
</g>
</g>
<!-- Node0&#45;&gt;Node4 -->
<g id="edge42" class="edge">
<title>Node0&#45;&gt;Node4</title>
<path fill="none" stroke="#191970" d="M1077.2941,-323.4009C1017.354,-317.0098 922.6164,-303.5086 844.5,-277 798.1729,-261.279 748.5503,-232.7833 720.1482,-215.2138"/>
<polygon fill="#191970" stroke="#191970" points="721.6971,-212.0539 711.3651,-209.7085 717.9794,-217.9851 721.6971,-212.0539"/>
</g>
<!-- Node6 -->
<g id="node7" class="node">
<title>Node6</title>
<g id="a_node7"><a xlink:href="$params_2basic_8h.html" xlink:title="Functions to deal with sets of energy parameters.">
<polygon fill="none" stroke="#000000" points="1092.5,-129 1092.5,-148 1230.5,-148 1230.5,-129 1092.5,-129"/>
<text text-anchor="middle" x="1161.5" y="-136" font-family="Helvetica,sans-Serif" font-size="10.00" fill="#000000">ViennaRNA/params/basic.h</text>
</a>
</g>
</g>
<!-- Node0&#45;&gt;Node6 -->
<g id="edge44" class="edge">
<title>Node0&#45;&gt;Node6</title>
<path fill="none" stroke="#191970" d="M1138.5036,-313.2727C1142.9978,-279.1167 1153.8805,-196.408 1158.893,-158.313"/>
<polygon fill="#191970" stroke="#191970" points="1162.4121,-158.397 1160.2466,-148.0258 1155.4719,-157.4837 1162.4121,-158.397"/>
</g>
<!-- Node15 -->
<g id="node16" class="node">
<title>Node15</title>
<g id="a_node16"><a xlink:href="$utils_2structures_8h.html" xlink:title="Various utility&#45; and helper&#45;functions for secondary structure parsing, converting,...">
<polygon fill="none" stroke="#000000" points="1134.5,-62 1134.5,-81 1278.5,-81 1278.5,-62 1134.5,-62"/>
<text text-anchor="middle" x="1206.5" y="-69" font-family="Helvetica,sans-Serif" font-size="10.00" fill="#000000">ViennaRNA/utils/structures.h</text>
</a>
</g>
</g>
<!-- Node0&#45;&gt;Node15 -->
<g id="edge43" class="edge">
<title>Node0&#45;&gt;Node15</title>
<path fill="none" stroke="#191970" d="M1153.2071,-313.2126C1182.5381,-285.1028 1242.286,-221.8417 1264.5,-154 1268.7874,-140.9063 1270.1475,-135.5671 1264.5,-123 1257.7931,-108.0754 1244.3865,-95.7164 1232.151,-86.8497"/>
<polygon fill="#191970" stroke="#191970" points="1233.802,-83.7404 1223.5613,-81.0239 1229.8728,-89.5336 1233.802,-83.7404"/>
</g>
<!-- Node2 -->
<g id="node3" class="node">
<title>Node2</title>
<g id="a_node3"><a xlink:href="$constants_8h.html" xlink:title="Energy parameter constants.">
<polygon fill="none" stroke="#000000" points="1296.5,-62 1296.5,-81 1454.5,-81 1454.5,-62 1296.5,-62"/>
<text text-anchor="middle" x="1375.5" y="-69" font-family="Helvetica,sans-Serif" font-size="10.00" fill="#000000">ViennaRNA/params/constants.h</text>
</a>
</g>
</g>
<!-- Node1&#45;&gt;Node2 -->
<g id="edge2" class="edge">
<title>Node1&#45;&gt;Node2</title>
<path fill="none" stroke="#191970" d="M987.573,-256.1947C1042.3276,-250.0557 1120.7818,-237.0667 1184.5,-210 1224.4464,-193.0312 1229.3019,-179.3919 1264.5,-154 1296.3026,-131.0576 1332.7046,-103.8104 1354.8936,-87.0887"/>
<polygon fill="#191970" stroke="#191970" points="1357.0607,-89.8382 1362.9346,-81.0207 1352.8441,-84.2506 1357.0607,-89.8382"/>
</g>
<!-- Node1&#45;&gt;Node4 -->
<g id="edge4" class="edge">
<title>Node1&#45;&gt;Node4</title>
<path fill="none" stroke="#191970" d="M865.7034,-246.4554C827.3449,-235.9239 776.7495,-222.0328 740.9076,-212.1923"/>
<polygon fill="#191970" stroke="#191970" points="741.7819,-208.8028 731.212,-209.5303 739.9285,-215.5531 741.7819,-208.8028"/>
</g>
<!-- Node5 -->
<g id="node6" class="node">
<title>Node5</title>
<g id="a_node6"><a xlink:href="$model_8h.html" xlink:title="The model details data structure and its corresponding modifiers.">
<polygon fill="none" stroke="#000000" points="867.5,-62 867.5,-81 973.5,-81 973.5,-62 867.5,-62"/>
<text text-anchor="middle" x="920.5" y="-69" font-family="Helvetica,sans-Serif" font-size="10.00" fill="#000000">ViennaRNA/model.h</text>
</a>
</g>
</g>
<!-- Node1&#45;&gt;Node5 -->
<g id="edge33" class="edge">
<title>Node1&#45;&gt;Node5</title>
<path fill="none" stroke="#191970" d="M920.5,-246.2727C920.5,-212.1167 920.5,-129.408 920.5,-91.313"/>
<polygon fill="#191970" stroke="#191970" points="924.0001,-91.0258 920.5,-81.0258 917.0001,-91.0259 924.0001,-91.0258"/>
</g>
<!-- Node1&#45;&gt;Node6 -->
<g id="edge34" class="edge">
<title>Node1&#45;&gt;Node6</title>
<path fill="none" stroke="#191970" d="M945.4371,-246.4178C989.6745,-222.3617 1081.2444,-175.6524 1129.8438,-152.378"/>
<polygon fill="#191970" stroke="#191970" points="1131.4307,-155.4991 1138.964,-148.0493 1128.4291,-149.1753 1131.4307,-155.4991"/>
</g>
<!-- Node8 -->
<g id="node9" class="node">
<title>Node8</title>
<g id="a_node9"><a xlink:href="$dp__matrices_8h.html" xlink:title="Functions to deal with standard dynamic programming (DP) matrices.">
<polygon fill="none" stroke="#000000" points="133,-129 133,-148 266,-148 266,-129 133,-129"/>
<text text-anchor="middle" x="199.5" y="-136" font-family="Helvetica,sans-Serif" font-size="10.00" fill="#000000">ViennaRNA/dp_matrices.h</text>
</a>
</g>
</g>
<!-- Node1&#45;&gt;Node8 -->
<g id="edge35" class="edge">
<title>Node1&#45;&gt;Node8</title>
<path fill="none" stroke="#191970" d="M853.2293,-255.0799C773.1837,-246.5798 635.9821,-230.2725 519.5,-210 419.4026,-192.5791 303.5557,-165.8515 242.313,-150.4874"/>
<polygon fill="#191970" stroke="#191970" points="243.1578,-147.0909 232.6047,-148.0306 241.4405,-153.877 243.1578,-147.0909"/>
</g>
<!-- Node9 -->
<g id="node10" class="node">
<title>Node9</title>
<g id="a_node10"><a xlink:href="$hard_8h.html" xlink:title="Functions and data structures for handling of secondary structure hard constraints.">
<polygon fill="none" stroke="#000000" points="284,-123.5 284,-153.5 403,-153.5 403,-123.5 284,-123.5"/>
<text text-anchor="start" x="292" y="-141.5" font-family="Helvetica,sans-Serif" font-size="10.00" fill="#000000">ViennaRNA/constraints</text>
<text text-anchor="middle" x="343.5" y="-130.5" font-family="Helvetica,sans-Serif" font-size="10.00" fill="#000000">/hard.h</text>
</a>
</g>
</g>
<!-- Node1&#45;&gt;Node9 -->
<g id="edge36" class="edge">
<title>Node1&#45;&gt;Node9</title>
<path fill="none" stroke="#191970" d="M853.3087,-251.9945C791.0855,-242.7659 696.1262,-227.5985 614.5,-210 541.9587,-194.3602 459.6704,-171.9794 404.9932,-156.4399"/>
<polygon fill="#191970" stroke="#191970" points="405.6903,-152.9992 395.1137,-153.6211 403.7697,-159.7306 405.6903,-152.9992"/>
</g>
<!-- Node11 -->
<g id="node12" class="node">
<title>Node11</title>
<g id="a_node12"><a xlink:href="$soft_8h.html" xlink:title="Functions and data structures for secondary structure soft constraints.">
<polygon fill="none" stroke="#000000" points="773,-123.5 773,-153.5 892,-153.5 892,-123.5 773,-123.5"/>
<text text-anchor="start" x="781" y="-141.5" font-family="Helvetica,sans-Serif" font-size="10.00" fill="#000000">ViennaRNA/constraints</text>
<text text-anchor="middle" x="832.5" y="-130.5" font-family="Helvetica,sans-Serif" font-size="10.00" fill="#000000">/soft.h</text>
</a>
</g>
</g>
<!-- Node1&#45;&gt;Node11 -->
<g id="edge37" class="edge">
<title>Node1&#45;&gt;Node11</title>
<path fill="none" stroke="#191970" d="M905.0952,-246.4178C887.5982,-225.485 860.0606,-187.3994 844.208,-162.5276"/>
<polygon fill="#191970" stroke="#191970" points="846.9876,-160.368 838.7497,-153.7056 841.0348,-164.0511 846.9876,-160.368"/>
</g>
<!-- Node12 -->
<g id="node13" class="node">
<title>Node12</title>
<g id="a_node13"><a xlink:href="$grammar_8h.html" xlink:title="Implementations for the RNA folding grammar.">
<polygon fill="none" stroke="#000000" points="638,-129 638,-148 755,-148 755,-129 638,-129"/>
<text text-anchor="middle" x="696.5" y="-136" font-family="Helvetica,sans-Serif" font-size="10.00" fill="#000000">ViennaRNA/grammar.h</text>
</a>
</g>
</g>
<!-- Node1&#45;&gt;Node12 -->
<g id="edge38" class="edge">
<title>Node1&#45;&gt;Node12</title>
<path fill="none" stroke="#191970" d="M893.0332,-246.4178C849.5889,-222.5622 765.5746,-176.4293 722.8423,-152.9647"/>
<polygon fill="#191970" stroke="#191970" points="724.3406,-149.7946 713.8905,-148.0493 720.9714,-155.9304 724.3406,-149.7946"/>
</g>
<!-- Node13 -->
<g id="node14" class="node">
<title>Node13</title>
<g id="a_node14"><a xlink:href="$structured__domains_8h.html" xlink:title="This module provides interfaces that deal with additional structured domains in the folding grammar.">
<polygon fill="none" stroke="#000000" points="0,-123.5 0,-153.5 115,-153.5 115,-123.5 0,-123.5"/>
<text text-anchor="start" x="8" y="-141.5" font-family="Helvetica,sans-Serif" font-size="10.00" fill="#000000">ViennaRNA/structured</text>
<text text-anchor="middle" x="57.5" y="-130.5" font-family="Helvetica,sans-Serif" font-size="10.00" fill="#000000">_domains.h</text>
</a>
</g>
</g>
<!-- Node1&#45;&gt;Node13 -->
<g id="edge39" class="edge">
<title>Node1&#45;&gt;Node13</title>
<path fill="none" stroke="#191970" d="M853.4372,-256.2294C758.0728,-248.3472 577.9273,-232.0259 425.5,-210 293.5595,-190.9345 258.7126,-182.4581 124.8678,-154.2517"/>
<polygon fill="#191970" stroke="#191970" points="125.5637,-150.8216 115.0571,-152.1863 124.1216,-157.6714 125.5637,-150.8216"/>
</g>
<!-- Node14 -->
<g id="node15" class="node">
<title>Node14</title>
<g id="a_node15"><a xlink:href="$unstructured__domains_8h.html" xlink:title="Functions to modify unstructured domains, e.g. to incorporate ligands binding to unpaired stretches.">
<polygon fill="none" stroke="#000000" points="949,-123.5 949,-153.5 1074,-153.5 1074,-123.5 949,-123.5"/>
<text text-anchor="start" x="957" y="-141.5" font-family="Helvetica,sans-Serif" font-size="10.00" fill="#000000">ViennaRNA/unstructured</text>
<text text-anchor="middle" x="1011.5" y="-130.5" font-family="Helvetica,sans-Serif" font-size="10.00" fill="#000000">_domains.h</text>
</a>
</g>
</g>
<!-- Node1&#45;&gt;Node14 -->
<g id="edge40" class="edge">
<title>Node1&#45;&gt;Node14</title>
<path fill="none" stroke="#191970" d="M927.0441,-246.4178C940.1817,-225.2084 968.6377,-186.3897 989.0435,-161.5485"/>
<polygon fill="#191970" stroke="#191970" points="991.8769,-163.6167 995.6213,-153.7056 986.5135,-159.1185 991.8769,-163.6167"/>
</g>
<!-- Node1&#45;&gt;Node15 -->
<g id="edge41" class="edge">
<title>Node1&#45;&gt;Node15</title>
<path fill="none" stroke="#191970" d="M987.7752,-246.9966C1069.971,-228.6137 1201.4777,-194.4061 1230.5,-154 1244.8307,-134.0482 1228.5641,-106.996 1216.3868,-89.3969"/>
<polygon fill="#191970" stroke="#191970" points="1219.1942,-87.3047 1210.5753,-81.1431 1213.4706,-91.3346 1219.1942,-87.3047"/>
</g>
<!-- Node3 -->
<g id="node4" class="node">
<title>Node3</title>
<g id="a_node4"><a xlink:title=" ">
<polygon fill="none" stroke="#bfbfbf" points="1351.5,-.5 1351.5,-19.5 1399.5,-19.5 1399.5,-.5 1351.5,-.5"/>
<text text-anchor="middle" x="1375.5" y="-7.5" font-family="Helvetica,sans-Serif" font-size="10.00" fill="#000000">limits.h</text>
</a>
</g>
</g>
<!-- Node2&#45;&gt;Node3 -->
<g id="edge3" class="edge">
<title>Node2&#45;&gt;Node3</title>
<path fill="none" stroke="#191970" d="M1375.5,-61.8906C1375.5,-53.3657 1375.5,-40.6392 1375.5,-29.9235"/>
<polygon fill="#191970" stroke="#191970" points="1379.0001,-29.7448 1375.5,-19.7449 1372.0001,-29.7449 1379.0001,-29.7448"/>
</g>
<!-- Node4&#45;&gt;Node5 -->
<g id="edge5" class="edge">
<title>Node4&#45;&gt;Node5</title>
<path fill="none" stroke="#191970" d="M671.6745,-190.4395C656.2121,-183.0336 637.5888,-171.1213 628.5,-154 622.0399,-141.8306 619.644,-133.5546 628.5,-123 657.1183,-88.8926 780.3859,-77.3646 857.3238,-73.4746"/>
<polygon fill="#191970" stroke="#191970" points="857.5716,-76.9668 867.3939,-72.9954 857.2388,-69.9747 857.5716,-76.9668"/>
</g>
<!-- Node4&#45;&gt;Node6 -->
<g id="edge6" class="edge">
<title>Node4&#45;&gt;Node6</title>
<path fill="none" stroke="#191970" d="M769.5533,-192.335C845.8572,-184.3818 968.7482,-170.7663 1074.5,-154 1082.0744,-152.7991 1090.0342,-151.3896 1097.9473,-149.9186"/>
<polygon fill="#191970" stroke="#191970" points="1098.7379,-153.3312 1107.9131,-148.0334 1097.4368,-146.4532 1098.7379,-153.3312"/>
</g>
<!-- Node7 -->
<g id="node8" class="node">
<title>Node7</title>
<g id="a_node8"><a xlink:href="$sequence_8h.html" xlink:title="Functions and data structures related to sequence representations ,.">
<polygon fill="none" stroke="#000000" points="459.5,-129 459.5,-148 581.5,-148 581.5,-129 459.5,-129"/>
<text text-anchor="middle" x="520.5" y="-136" font-family="Helvetica,sans-Serif" font-size="10.00" fill="#000000">ViennaRNA/sequence.h</text>
</a>
</g>
</g>
<!-- Node4&#45;&gt;Node7 -->
<g id="edge11" class="edge">
<title>Node4&#45;&gt;Node7</title>
<path fill="none" stroke="#191970" d="M663.9375,-190.3906C632.0678,-179.9652 584.0542,-163.2559 552.4139,-151.6252"/>
<polygon fill="#191970" stroke="#191970" points="553.3506,-148.2397 542.7576,-148.0419 550.9152,-154.8024 553.3506,-148.2397"/>
</g>
<!-- Node4&#45;&gt;Node8 -->
<g id="edge13" class="edge">
<title>Node4&#45;&gt;Node8</title>
<path fill="none" stroke="#191970" d="M623.4345,-194.6994C537.3143,-187.6236 390.3533,-173.6606 265.5,-154 258.2762,-152.8625 250.6946,-151.4983 243.3315,-150.0573"/>
<polygon fill="#191970" stroke="#191970" points="243.9768,-146.617 233.4806,-148.0589 242.5851,-153.4773 243.9768,-146.617"/>
</g>
<!-- Node4&#45;&gt;Node9 -->
<g id="edge16" class="edge">
<title>Node4&#45;&gt;Node9</title>
<path fill="none" stroke="#191970" d="M626.9845,-190.4894C570.8049,-182.041 489.6763,-169.0031 412.8508,-154.79"/>
<polygon fill="#191970" stroke="#191970" points="413.4909,-151.3491 403.0193,-152.9601 412.21,-158.2309 413.4909,-151.3491"/>
</g>
<!-- Node4&#45;&gt;Node11 -->
<g id="edge20" class="edge">
<title>Node4&#45;&gt;Node11</title>
<path fill="none" stroke="#191970" d="M712.6875,-190.3906C730.324,-181.6435 759.0373,-168.4728 783.9867,-157.5897"/>
<polygon fill="#191970" stroke="#191970" points="785.5463,-160.7285 793.3336,-153.5446 782.766,-154.3043 785.5463,-160.7285"/>
</g>
<!-- Node4&#45;&gt;Node12 -->
<g id="edge24" class="edge">
<title>Node4&#45;&gt;Node12</title>
<path fill="none" stroke="#191970" d="M691.4375,-190.3906C689.7741,-181.8657 689.3404,-169.1392 690.1365,-158.4235"/>
<polygon fill="#191970" stroke="#191970" points="693.6414,-158.6023 691.4112,-148.2449 686.6956,-157.7324 693.6414,-158.6023"/>
</g>
<!-- Node4&#45;&gt;Node13 -->
<g id="edge26" class="edge">
<title>Node4&#45;&gt;Node13</title>
<path fill="none" stroke="#191970" d="M623.2729,-197.6494C515.8939,-193.4217 309.3477,-182.3279 125.4762,-154.1772"/>
<polygon fill="#191970" stroke="#191970" points="125.7694,-150.6808 115.3509,-152.606 124.696,-157.5981 125.7694,-150.6808"/>
</g>
<!-- Node4&#45;&gt;Node14 -->
<g id="edge27" class="edge">
<title>Node4&#45;&gt;Node14</title>
<path fill="none" stroke="#191970" d="M740.3238,-190.4581C791.7209,-180.0233 877.5085,-163.2358 938.8734,-151.5781"/>
<polygon fill="#191970" stroke="#191970" points="939.7114,-154.9817 948.8848,-149.6809 938.4079,-148.1041 939.7114,-154.9817"/>
</g>
<!-- Node6&#45;&gt;Node1 -->
<g id="edge8" class="edge">
<title>Node6&#45;&gt;Node1</title>
<path fill="none" stroke="#191970" d="M1146.6154,-148.0493C1110.6285,-168.1604 1018.839,-215.2226 963.8261,-241.9859"/>
<polygon fill="#191970" stroke="#191970" points="962.1431,-238.912 954.6656,-246.4178 965.1917,-245.2132 962.1431,-238.912"/>
</g>
<!-- Node6&#45;&gt;Node2 -->
<g id="edge7" class="edge">
<title>Node6&#45;&gt;Node2</title>
<path fill="none" stroke="#191970" d="M1192.161,-128.9005C1229.7436,-117.134 1293.5439,-97.1591 1335.0981,-84.1492"/>
<polygon fill="#191970" stroke="#191970" points="1336.3984,-87.4097 1344.8959,-81.0817 1334.3069,-80.7294 1336.3984,-87.4097"/>
</g>
<!-- Node6&#45;&gt;Node4 -->
<g id="edge9" class="edge">
<title>Node6&#45;&gt;Node4</title>
<path fill="none" stroke="#191970" d="M1125.3841,-148.0334C1114.8244,-150.1622 1103.2725,-152.2921 1092.5,-154 985.1578,-171.0185 860.1571,-184.7906 779.6959,-192.69"/>
<polygon fill="#191970" stroke="#191970" points="779.2349,-189.2183 769.6213,-193.6712 779.9135,-196.1853 779.2349,-189.2183"/>
</g>
<!-- Node6&#45;&gt;Node5 -->
<g id="edge10" class="edge">
<title>Node6&#45;&gt;Node5</title>
<path fill="none" stroke="#191970" d="M1127.2265,-128.9717C1084.6101,-117.124 1011.7773,-96.8758 964.9185,-83.8487"/>
<polygon fill="#191970" stroke="#191970" points="965.6176,-80.4104 955.0454,-81.1039 963.7426,-87.1546 965.6176,-80.4104"/>
</g>
<!-- Node7&#45;&gt;Node4 -->
<g id="edge12" class="edge">
<title>Node7&#45;&gt;Node4</title>
<path fill="none" stroke="#191970" d="M552.8562,-148.0419C584.656,-158.4402 632.6699,-175.1468 664.3808,-186.7993"/>
<polygon fill="#191970" stroke="#191970" points="663.4695,-190.1943 674.0625,-190.3906 665.904,-183.6312 663.4695,-190.1943"/>
</g>
<!-- Node8&#45;&gt;Node1 -->
<g id="edge14" class="edge">
<title>Node8&#45;&gt;Node1</title>
<path fill="none" stroke="#191970" d="M243.9755,-148.0306C308.6085,-162.8468 431.8302,-191.6093 537.5,-210 642.9906,-228.3595 765.4749,-243.4669 843.0353,-252.4683"/>
<polygon fill="#191970" stroke="#191970" points="842.8692,-255.9723 853.2049,-253.6436 843.6728,-249.0186 842.8692,-255.9723"/>
</g>
<!-- Node8&#45;&gt;Node4 -->
<g id="edge15" class="edge">
<title>Node8&#45;&gt;Node4</title>
<path fill="none" stroke="#191970" d="M250.9313,-148.0589C261.7282,-150.2113 272.9927,-152.3454 283.5,-154 397.2393,-171.9105 529.3256,-185.0926 612.9569,-192.6469"/>
<polygon fill="#191970" stroke="#191970" points="612.8909,-196.155 623.1637,-193.5627 613.5165,-189.183 612.8909,-196.155"/>
</g>
<!-- Node9&#45;&gt;Node4 -->
<g id="edge17" class="edge">
<title>Node9&#45;&gt;Node4</title>
<path fill="none" stroke="#191970" d="M403.2915,-149.4613C411.1259,-151.0388 419.0167,-152.6001 426.5,-154 496.3439,-167.0662 576.3974,-180.0622 631.1618,-188.8904"/>
<polygon fill="#191970" stroke="#191970" points="630.6556,-192.3539 641.0851,-190.4894 631.7692,-185.4431 630.6556,-192.3539"/>
</g>
<!-- Node10 -->
<g id="node11" class="node">
<title>Node10</title>
<g id="a_node11"><a xlink:href="$constraints_2basic_8h.html" xlink:title="Functions and data structures for constraining secondary structure predictions and evaluation.">
<polygon fill="none" stroke="#000000" points="372,-56.5 372,-86.5 491,-86.5 491,-56.5 372,-56.5"/>
<text text-anchor="start" x="380" y="-74.5" font-family="Helvetica,sans-Serif" font-size="10.00" fill="#000000">ViennaRNA/constraints</text>
<text text-anchor="middle" x="431.5" y="-63.5" font-family="Helvetica,sans-Serif" font-size="10.00" fill="#000000">/basic.h</text>
</a>
</g>
</g>
<!-- Node9&#45;&gt;Node10 -->
<g id="edge18" class="edge">
<title>Node9&#45;&gt;Node10</title>
<path fill="none" stroke="#191970" d="M363.4686,-123.2967C375.2825,-114.302 390.4306,-102.7687 403.4327,-92.8694"/>
<polygon fill="#191970" stroke="#191970" points="405.7743,-95.4857 411.6105,-86.6432 401.5338,-89.9162 405.7743,-95.4857"/>
</g>
<!-- Node10&#45;&gt;Node4 -->
<g id="edge19" class="edge">
<title>Node10&#45;&gt;Node4</title>
<path fill="none" stroke="#191970" d="M430.4021,-86.6654C429.9512,-105.2731 432.2571,-136.4989 450.5,-154 473.5548,-176.1173 551.3037,-188.0039 613.2987,-194.1151"/>
<polygon fill="#191970" stroke="#191970" points="613.2078,-197.6221 623.4938,-195.0828 613.8693,-190.6535 613.2078,-197.6221"/>
</g>
<!-- Node11&#45;&gt;Node1 -->
<g id="edge21" class="edge">
<title>Node11&#45;&gt;Node1</title>
<path fill="none" stroke="#191970" d="M848.0079,-153.7056C865.5441,-174.7055 893.0785,-212.7987 908.8852,-237.6186"/>
<polygon fill="#191970" stroke="#191970" points="906.0889,-239.7516 914.3237,-246.4178 912.0434,-236.0713 906.0889,-239.7516"/>
</g>
<!-- Node11&#45;&gt;Node4 -->
<g id="edge22" class="edge">
<title>Node11&#45;&gt;Node4</title>
<path fill="none" stroke="#191970" d="M805.1277,-153.5446C784.0907,-163.5991 755.0213,-176.7159 732.1791,-186.4465"/>
<polygon fill="#191970" stroke="#191970" points="730.6704,-183.2841 722.8125,-190.3906 733.3871,-189.7354 730.6704,-183.2841"/>
</g>
<!-- Node11&#45;&gt;Node10 -->
<g id="edge23" class="edge">
<title>Node11&#45;&gt;Node10</title>
<path fill="none" stroke="#191970" d="M772.7119,-124.8117C769.6004,-124.18 766.5157,-123.5719 763.5,-123 673.2884,-105.8907 568.4851,-90.3496 501.1467,-80.9176"/>
<polygon fill="#191970" stroke="#191970" points="501.4671,-77.4285 491.0795,-79.5139 500.5004,-84.3614 501.4671,-77.4285"/>
</g>
<!-- Node12&#45;&gt;Node4 -->
<g id="edge25" class="edge">
<title>Node12&#45;&gt;Node4</title>
<path fill="none" stroke="#191970" d="M701.5888,-148.2449C703.2392,-156.814 703.6598,-169.5519 702.8508,-180.2462"/>
<polygon fill="#191970" stroke="#191970" points="699.3503,-180.0293 701.5625,-190.3906 706.2945,-180.9113 699.3503,-180.0293"/>
</g>
<!-- Node14&#45;&gt;Node1 -->
<g id="edge28" class="edge">
<title>Node14&#45;&gt;Node1</title>
<path fill="none" stroke="#191970" d="M1004.8794,-153.7056C991.6827,-174.9831 963.2126,-213.8086 942.8381,-238.5956"/>
<polygon fill="#191970" stroke="#191970" points="940.0208,-236.5081 936.2726,-246.4178 945.3825,-241.0084 940.0208,-236.5081"/>
</g>
<!-- Node14&#45;&gt;Node4 -->
<g id="edge29" class="edge">
<title>Node14&#45;&gt;Node4</title>
<path fill="none" stroke="#191970" d="M948.8657,-151.837C894.2306,-162.8008 815.4136,-178.1701 760.4054,-188.5752"/>
<polygon fill="#191970" stroke="#191970" points="759.6004,-185.1652 750.4224,-190.4581 760.8979,-192.0439 759.6004,-185.1652"/>
</g>
<!-- Node14&#45;&gt;Node15 -->
<g id="edge30" class="edge">
<title>Node14&#45;&gt;Node15</title>
<path fill="none" stroke="#191970" d="M1055.2618,-123.4639C1089.5559,-111.6808 1136.7491,-95.4657 1169.2508,-84.2984"/>
<polygon fill="#191970" stroke="#191970" points="1170.5154,-87.5649 1178.8354,-81.0053 1168.2407,-80.9447 1170.5154,-87.5649"/>
</g>
<!-- Node15&#45;&gt;Node1 -->
<g id="edge32" class="edge">
<title>Node15&#45;&gt;Node1</title>
<path fill="none" stroke="#191970" d="M1221.5595,-81.1431C1239.9634,-97.3492 1265.3287,-130.5703 1248.5,-154 1219.1595,-194.8491 1085.0749,-229.3631 997.6191,-247.5956"/>
<polygon fill="#191970" stroke="#191970" points="996.814,-244.1878 987.724,-249.6305 998.2241,-251.0443 996.814,-244.1878"/>
</g>
<!-- Node16 -->
<g id="node17" class="node">
<title>Node16</title>
<g id="a_node17"><a xlink:title=" ">
<polygon fill="none" stroke="#bfbfbf" points="1183.5,-.5 1183.5,-19.5 1229.5,-19.5 1229.5,-.5 1183.5,-.5"/>
<text text-anchor="middle" x="1206.5" y="-7.5" font-family="Helvetica,sans-Serif" font-size="10.00" fill="#000000">stdio.h</text>
</a>
</g>
</g>
<!-- Node15&#45;&gt;Node16 -->
<g id="edge31" class="edge">
<title>Node15&#45;&gt;Node16</title>
<path fill="none" stroke="#191970" d="M1206.5,-61.8906C1206.5,-53.3657 1206.5,-40.6392 1206.5,-29.9235"/>
<polygon fill="#191970" stroke="#191970" points="1210.0001,-29.7448 1206.5,-19.7449 1203.0001,-29.7449 1210.0001,-29.7448"/>
</g>
</g>
</svg>
