<?xml version="1.0" encoding="UTF-8" standalone="no"?>
<!DOCTYPE svg PUBLIC "-//W3C//DTD SVG 1.1//EN"
 "http://www.w3.org/Graphics/SVG/1.1/DTD/svg11.dtd">
<!-- Generated by graphviz version 2.40.1 (0)
 -->
<!-- Title: ViennaRNA/exterior_loops.h Pages: 1 -->
<svg width="1432pt" height="408pt"
 viewBox="0.00 0.00 1432.00 408.00" xmlns="http://www.w3.org/2000/svg" xmlns:xlink="http://www.w3.org/1999/xlink">
<g id="graph0" class="graph" transform="scale(1 1) rotate(0) translate(4 404)">
<title>ViennaRNA/exterior_loops.h</title>
<!-- Node0 -->
<g id="node1" class="node">
<title>Node0</title>
<g id="a_node1"><a xlink:title="Use ViennaRNA/loops/external.h instead.">
<polygon fill="#bfbfbf" stroke="#000000" points="639,-369.5 639,-399.5 743,-399.5 743,-369.5 639,-369.5"/>
<text text-anchor="start" x="647" y="-387.5" font-family="Helvetica,sans-Serif" font-size="10.00" fill="#000000">ViennaRNA/exterior</text>
<text text-anchor="middle" x="691" y="-376.5" font-family="Helvetica,sans-Serif" font-size="10.00" fill="#000000">_loops.h</text>
</a>
</g>
</g>
<!-- Node1 -->
<g id="node2" class="node">
<title>Node1</title>
<g id="a_node2"><a xlink:href="$external_8h.html" xlink:title="Energy evaluation of exterior loops for MFE and partition function calculations.">
<polygon fill="none" stroke="#000000" points="621,-313.5 621,-332.5 761,-332.5 761,-313.5 621,-313.5"/>
<text text-anchor="middle" x="691" y="-320.5" font-family="Helvetica,sans-Serif" font-size="10.00" fill="#000000">ViennaRNA/loops/external.h</text>
</a>
</g>
</g>
<!-- Node0&#45;&gt;Node1 -->
<g id="edge1" class="edge">
<title>Node0&#45;&gt;Node1</title>
<path fill="none" stroke="#191970" d="M691,-369.2977C691,-361.3834 691,-351.6043 691,-343.0759"/>
<polygon fill="#191970" stroke="#191970" points="694.5001,-342.8469 691,-332.8469 687.5001,-342.847 694.5001,-342.8469"/>
</g>
<!-- Node2 -->
<g id="node3" class="node">
<title>Node2</title>
<g id="a_node3"><a xlink:href="$datastructures_2basic_8h.html" xlink:title="Various data structures and pre&#45;processor macros.">
<polygon fill="none" stroke="#000000" points="763,-246.5 763,-276.5 897,-276.5 897,-246.5 763,-246.5"/>
<text text-anchor="start" x="771" y="-264.5" font-family="Helvetica,sans-Serif" font-size="10.00" fill="#000000">ViennaRNA/datastructures</text>
<text text-anchor="middle" x="830" y="-253.5" font-family="Helvetica,sans-Serif" font-size="10.00" fill="#000000">/basic.h</text>
</a>
</g>
</g>
<!-- Node1&#45;&gt;Node2 -->
<g id="edge2" class="edge">
<title>Node1&#45;&gt;Node2</title>
<path fill="none" stroke="#191970" d="M712.7188,-313.3906C732.4016,-304.682 761.9944,-291.5888 786.5288,-280.7336"/>
<polygon fill="#191970" stroke="#191970" points="788.268,-283.7915 795.9968,-276.5446 785.4357,-277.3901 788.268,-283.7915"/>
</g>
<!-- Node5 -->
<g id="node6" class="node">
<title>Node5</title>
<g id="a_node6"><a xlink:href="$fold__compound_8h.html" xlink:title="The Basic Fold Compound API.">
<polygon fill="none" stroke="#000000" points="618,-190.5 618,-209.5 764,-209.5 764,-190.5 618,-190.5"/>
<text text-anchor="middle" x="691" y="-197.5" font-family="Helvetica,sans-Serif" font-size="10.00" fill="#000000">ViennaRNA/fold_compound.h</text>
</a>
</g>
</g>
<!-- Node1&#45;&gt;Node5 -->
<g id="edge43" class="edge">
<title>Node1&#45;&gt;Node5</title>
<path fill="none" stroke="#191970" d="M691,-313.3484C691,-293.2295 691,-246.4608 691,-219.7098"/>
<polygon fill="#191970" stroke="#191970" points="694.5001,-219.6067 691,-209.6068 687.5001,-219.6068 694.5001,-219.6067"/>
</g>
<!-- Node7 -->
<g id="node8" class="node">
<title>Node7</title>
<g id="a_node8"><a xlink:href="$params_2basic_8h.html" xlink:title="Functions to deal with sets of energy parameters.">
<polygon fill="none" stroke="#000000" points="85,-129 85,-148 223,-148 223,-129 85,-129"/>
<text text-anchor="middle" x="154" y="-136" font-family="Helvetica,sans-Serif" font-size="10.00" fill="#000000">ViennaRNA/params/basic.h</text>
</a>
</g>
</g>
<!-- Node1&#45;&gt;Node7 -->
<g id="edge44" class="edge">
<title>Node1&#45;&gt;Node7</title>
<path fill="none" stroke="#191970" d="M621.9807,-313.4315C504.0247,-296.0464 269.8033,-256.7195 202,-210 183.0367,-196.9334 169.5161,-173.706 161.7538,-157.2754"/>
<polygon fill="#191970" stroke="#191970" points="164.9253,-155.7935 157.6676,-148.075 158.5279,-158.6349 164.9253,-155.7935"/>
</g>
<!-- Node3 -->
<g id="node4" class="node">
<title>Node3</title>
<g id="a_node4"><a xlink:href="$constants_8h.html" xlink:title="Energy parameter constants.">
<polygon fill="none" stroke="#000000" points="0,-62 0,-81 158,-81 158,-62 0,-62"/>
<text text-anchor="middle" x="79" y="-69" font-family="Helvetica,sans-Serif" font-size="10.00" fill="#000000">ViennaRNA/params/constants.h</text>
</a>
</g>
</g>
<!-- Node2&#45;&gt;Node3 -->
<g id="edge3" class="edge">
<title>Node2&#45;&gt;Node3</title>
<path fill="none" stroke="#191970" d="M762.7386,-258.8371C623.2133,-252.8476 306.6012,-236.7117 202,-210 142.6237,-194.8372 109.3933,-205.3843 76,-154 63.7836,-135.2019 67.6162,-108.5746 72.4462,-90.7041"/>
<polygon fill="#191970" stroke="#191970" points="75.8095,-91.6738 75.3696,-81.0881 69.1122,-89.6377 75.8095,-91.6738"/>
</g>
<!-- Node2&#45;&gt;Node5 -->
<g id="edge5" class="edge">
<title>Node2&#45;&gt;Node5</title>
<path fill="none" stroke="#191970" d="M795.9968,-246.4554C773.3129,-236.419 743.7327,-223.3314 721.7521,-213.6061"/>
<polygon fill="#191970" stroke="#191970" points="723.1011,-210.3758 712.5401,-209.5303 720.2688,-216.7772 723.1011,-210.3758"/>
</g>
<!-- Node6 -->
<g id="node7" class="node">
<title>Node6</title>
<g id="a_node7"><a xlink:href="$model_8h.html" xlink:title="The model details data structure and its corresponding modifiers.">
<polygon fill="none" stroke="#000000" points="198,-62 198,-81 304,-81 304,-62 198,-62"/>
<text text-anchor="middle" x="251" y="-69" font-family="Helvetica,sans-Serif" font-size="10.00" fill="#000000">ViennaRNA/model.h</text>
</a>
</g>
</g>
<!-- Node2&#45;&gt;Node6 -->
<g id="edge34" class="edge">
<title>Node2&#45;&gt;Node6</title>
<path fill="none" stroke="#191970" d="M762.9364,-257.6452C630.0622,-248.6103 340.1981,-221.4963 271,-154 254.3218,-137.7319 250.6152,-110.0956 250.2197,-91.3348"/>
<polygon fill="#191970" stroke="#191970" points="253.7204,-91.2538 250.3055,-81.2244 246.7207,-91.1943 253.7204,-91.2538"/>
</g>
<!-- Node2&#45;&gt;Node7 -->
<g id="edge35" class="edge">
<title>Node2&#45;&gt;Node7</title>
<path fill="none" stroke="#191970" d="M762.9321,-260.8975C626.6033,-258.8457 322.4533,-249.808 228,-210 200.1991,-198.2831 174.9837,-173.6348 161.9646,-156.579"/>
<polygon fill="#191970" stroke="#191970" points="164.6116,-154.2527 156.0476,-148.015 158.8525,-158.2318 164.6116,-154.2527"/>
</g>
<!-- Node9 -->
<g id="node10" class="node">
<title>Node9</title>
<g id="a_node10"><a xlink:href="$dp__matrices_8h.html" xlink:title="Functions to deal with standard dynamic programming (DP) matrices.">
<polygon fill="none" stroke="#000000" points="901.5,-129 901.5,-148 1034.5,-148 1034.5,-129 901.5,-129"/>
<text text-anchor="middle" x="968" y="-136" font-family="Helvetica,sans-Serif" font-size="10.00" fill="#000000">ViennaRNA/dp_matrices.h</text>
</a>
</g>
</g>
<!-- Node2&#45;&gt;Node9 -->
<g id="edge36" class="edge">
<title>Node2&#45;&gt;Node9</title>
<path fill="none" stroke="#191970" d="M842.3073,-246.4178C865.6975,-223.0634 915.8199,-178.3579 945.3598,-154.4732"/>
<polygon fill="#191970" stroke="#191970" points="947.7999,-157.0052 953.4605,-148.0493 943.4504,-151.5204 947.7999,-157.0052"/>
</g>
<!-- Node10 -->
<g id="node11" class="node">
<title>Node10</title>
<g id="a_node11"><a xlink:href="$hard_8h.html" xlink:title="Functions and data structures for handling of secondary structure hard constraints.">
<polygon fill="none" stroke="#000000" points="631.5,-123.5 631.5,-153.5 750.5,-153.5 750.5,-123.5 631.5,-123.5"/>
<text text-anchor="start" x="639.5" y="-141.5" font-family="Helvetica,sans-Serif" font-size="10.00" fill="#000000">ViennaRNA/constraints</text>
<text text-anchor="middle" x="691" y="-130.5" font-family="Helvetica,sans-Serif" font-size="10.00" fill="#000000">/hard.h</text>
</a>
</g>
</g>
<!-- Node2&#45;&gt;Node10 -->
<g id="edge37" class="edge">
<title>Node2&#45;&gt;Node10</title>
<path fill="none" stroke="#191970" d="M820.1508,-246.3047C809.6894,-230.9198 792.058,-207.0305 773,-190 759.8165,-178.219 743.6254,-167.4258 729.123,-158.7972"/>
<polygon fill="#191970" stroke="#191970" points="730.7604,-155.7009 720.3534,-153.7148 727.2505,-161.7573 730.7604,-155.7009"/>
</g>
<!-- Node12 -->
<g id="node13" class="node">
<title>Node12</title>
<g id="a_node13"><a xlink:href="$soft_8h.html" xlink:title="Functions and data structures for secondary structure soft constraints.">
<polygon fill="none" stroke="#000000" points="1052.5,-123.5 1052.5,-153.5 1171.5,-153.5 1171.5,-123.5 1052.5,-123.5"/>
<text text-anchor="start" x="1060.5" y="-141.5" font-family="Helvetica,sans-Serif" font-size="10.00" fill="#000000">ViennaRNA/constraints</text>
<text text-anchor="middle" x="1112" y="-130.5" font-family="Helvetica,sans-Serif" font-size="10.00" fill="#000000">/soft.h</text>
</a>
</g>
</g>
<!-- Node2&#45;&gt;Node12 -->
<g id="edge38" class="edge">
<title>Node2&#45;&gt;Node12</title>
<path fill="none" stroke="#191970" d="M859.9645,-246.4178C908.6729,-223.9949 1005.0656,-181.8903 1063.5702,-157.428"/>
<polygon fill="#191970" stroke="#191970" points="1065.0873,-160.5876 1072.9741,-153.513 1062.3969,-154.1253 1065.0873,-160.5876"/>
</g>
<!-- Node13 -->
<g id="node14" class="node">
<title>Node13</title>
<g id="a_node14"><a xlink:href="$grammar_8h.html" xlink:title="Implementations for the RNA folding grammar.">
<polygon fill="none" stroke="#000000" points="279.5,-129 279.5,-148 396.5,-148 396.5,-129 279.5,-129"/>
<text text-anchor="middle" x="338" y="-136" font-family="Helvetica,sans-Serif" font-size="10.00" fill="#000000">ViennaRNA/grammar.h</text>
</a>
</g>
</g>
<!-- Node2&#45;&gt;Node13 -->
<g id="edge39" class="edge">
<title>Node2&#45;&gt;Node13</title>
<path fill="none" stroke="#191970" d="M763.1493,-246.4526C719.2518,-236.441 660.6163,-222.8204 609,-210 529.1439,-190.1654 436.5407,-165.3368 382.8743,-150.7662"/>
<polygon fill="#191970" stroke="#191970" points="383.565,-147.3271 372.997,-148.081 381.7286,-154.0819 383.565,-147.3271"/>
</g>
<!-- Node14 -->
<g id="node15" class="node">
<title>Node14</title>
<g id="a_node15"><a xlink:href="$structured__domains_8h.html" xlink:title="This module provides interfaces that deal with additional structured domains in the folding grammar.">
<polygon fill="none" stroke="#000000" points="768.5,-123.5 768.5,-153.5 883.5,-153.5 883.5,-123.5 768.5,-123.5"/>
<text text-anchor="start" x="776.5" y="-141.5" font-family="Helvetica,sans-Serif" font-size="10.00" fill="#000000">ViennaRNA/structured</text>
<text text-anchor="middle" x="826" y="-130.5" font-family="Helvetica,sans-Serif" font-size="10.00" fill="#000000">_domains.h</text>
</a>
</g>
</g>
<!-- Node2&#45;&gt;Node14 -->
<g id="edge40" class="edge">
<title>Node2&#45;&gt;Node14</title>
<path fill="none" stroke="#191970" d="M829.5095,-246.4178C828.8408,-225.8539 827.6337,-188.7363 826.8245,-163.8546"/>
<polygon fill="#191970" stroke="#191970" points="830.3178,-163.5865 826.4945,-153.7056 823.3215,-163.8141 830.3178,-163.5865"/>
</g>
<!-- Node15 -->
<g id="node16" class="node">
<title>Node15</title>
<g id="a_node16"><a xlink:href="$unstructured__domains_8h.html" xlink:title="Functions to modify unstructured domains, e.g. to incorporate ligands binding to unpaired stretches.">
<polygon fill="none" stroke="#000000" points="1189.5,-123.5 1189.5,-153.5 1314.5,-153.5 1314.5,-123.5 1189.5,-123.5"/>
<text text-anchor="start" x="1197.5" y="-141.5" font-family="Helvetica,sans-Serif" font-size="10.00" fill="#000000">ViennaRNA/unstructured</text>
<text text-anchor="middle" x="1252" y="-130.5" font-family="Helvetica,sans-Serif" font-size="10.00" fill="#000000">_domains.h</text>
</a>
</g>
</g>
<!-- Node2&#45;&gt;Node15 -->
<g id="edge41" class="edge">
<title>Node2&#45;&gt;Node15</title>
<path fill="none" stroke="#191970" d="M877.1312,-246.4178C952.5861,-223.625 1100.4584,-180.4959 1186.2512,-156.232"/>
<polygon fill="#191970" stroke="#191970" points="1187.2126,-159.5975 1195.8861,-153.513 1185.3114,-152.8606 1187.2126,-159.5975"/>
</g>
<!-- Node16 -->
<g id="node17" class="node">
<title>Node16</title>
<g id="a_node17"><a xlink:href="$utils_2structures_8h.html" xlink:title="Various utility&#45; and helper&#45;functions for secondary structure parsing, converting,...">
<polygon fill="none" stroke="#000000" points="1280,-62 1280,-81 1424,-81 1424,-62 1280,-62"/>
<text text-anchor="middle" x="1352" y="-69" font-family="Helvetica,sans-Serif" font-size="10.00" fill="#000000">ViennaRNA/utils/structures.h</text>
</a>
</g>
</g>
<!-- Node2&#45;&gt;Node16 -->
<g id="edge42" class="edge">
<title>Node2&#45;&gt;Node16</title>
<path fill="none" stroke="#191970" d="M897.1154,-254.4599C1015.2578,-241.2557 1253.3792,-209.0276 1315,-154 1333.0129,-137.9144 1339.4486,-109.8022 1343.9248,-90.9222"/>
<polygon fill="#191970" stroke="#191970" points="1347.3671,-91.5847 1346.4067,-81.0334 1340.5776,-89.8806 1347.3671,-91.5847"/>
</g>
<!-- Node4 -->
<g id="node5" class="node">
<title>Node4</title>
<g id="a_node5"><a xlink:title=" ">
<polygon fill="none" stroke="#bfbfbf" points="55,-.5 55,-19.5 103,-19.5 103,-.5 55,-.5"/>
<text text-anchor="middle" x="79" y="-7.5" font-family="Helvetica,sans-Serif" font-size="10.00" fill="#000000">limits.h</text>
</a>
</g>
</g>
<!-- Node3&#45;&gt;Node4 -->
<g id="edge4" class="edge">
<title>Node3&#45;&gt;Node4</title>
<path fill="none" stroke="#191970" d="M79,-61.8906C79,-53.3657 79,-40.6392 79,-29.9235"/>
<polygon fill="#191970" stroke="#191970" points="82.5001,-29.7448 79,-19.7449 75.5001,-29.7449 82.5001,-29.7448"/>
</g>
<!-- Node5&#45;&gt;Node6 -->
<g id="edge6" class="edge">
<title>Node5&#45;&gt;Node6</title>
<path fill="none" stroke="#191970" d="M674.2065,-190.2172C641.9377,-171.5654 572.1515,-131.9722 546,-123 468.7156,-96.485 375.1436,-83.1161 314.4081,-76.7454"/>
<polygon fill="#191970" stroke="#191970" points="314.5091,-73.2377 304.2065,-75.7088 313.8014,-80.2019 314.5091,-73.2377"/>
</g>
<!-- Node5&#45;&gt;Node7 -->
<g id="edge7" class="edge">
<title>Node5&#45;&gt;Node7</title>
<path fill="none" stroke="#191970" d="M617.7066,-193.1366C532.089,-184.529 386.5251,-169.0657 262,-154 250.0811,-152.558 237.4889,-150.9641 225.2641,-149.3633"/>
<polygon fill="#191970" stroke="#191970" points="225.4768,-145.8611 215.1044,-148.0203 224.5594,-152.8007 225.4768,-145.8611"/>
</g>
<!-- Node8 -->
<g id="node9" class="node">
<title>Node8</title>
<g id="a_node9"><a xlink:href="$sequence_8h.html" xlink:title="Functions and data structures related to sequence representations ,.">
<polygon fill="none" stroke="#000000" points="415,-129 415,-148 537,-148 537,-129 415,-129"/>
<text text-anchor="middle" x="476" y="-136" font-family="Helvetica,sans-Serif" font-size="10.00" fill="#000000">ViennaRNA/sequence.h</text>
</a>
</g>
</g>
<!-- Node5&#45;&gt;Node8 -->
<g id="edge12" class="edge">
<title>Node5&#45;&gt;Node8</title>
<path fill="none" stroke="#191970" d="M652.3438,-190.3906C613.1964,-179.7846 553.2172,-162.6753 514.2282,-151.0257"/>
<polygon fill="#191970" stroke="#191970" points="514.8929,-147.5707 504.3086,-148.0419 512.8766,-154.2741 514.8929,-147.5707"/>
</g>
<!-- Node5&#45;&gt;Node9 -->
<g id="edge14" class="edge">
<title>Node5&#45;&gt;Node9</title>
<path fill="none" stroke="#191970" d="M728.928,-190.4581C775.7202,-179.5956 855.5267,-161.8488 910.0044,-150.1711"/>
<polygon fill="#191970" stroke="#191970" points="910.8199,-153.576 919.8682,-148.0643 909.3576,-146.7304 910.8199,-153.576"/>
</g>
<!-- Node5&#45;&gt;Node10 -->
<g id="edge17" class="edge">
<title>Node5&#45;&gt;Node10</title>
<path fill="none" stroke="#191970" d="M685.9375,-190.3906C684.539,-183.2234 684.0098,-173.0862 684.3497,-163.671"/>
<polygon fill="#191970" stroke="#191970" points="687.8515,-163.7767 685.1029,-153.5446 680.8707,-163.2574 687.8515,-163.7767"/>
</g>
<!-- Node5&#45;&gt;Node12 -->
<g id="edge21" class="edge">
<title>Node5&#45;&gt;Node12</title>
<path fill="none" stroke="#191970" d="M764.1646,-191.7314C834.0077,-183.8171 941.9164,-170.6353 1035,-154 1037.4509,-153.562 1039.9469,-153.0943 1042.4694,-152.6046"/>
<polygon fill="#191970" stroke="#191970" points="1043.182,-156.0315 1052.2921,-150.6226 1041.7974,-149.1698 1043.182,-156.0315"/>
</g>
<!-- Node5&#45;&gt;Node13 -->
<g id="edge25" class="edge">
<title>Node5&#45;&gt;Node13</title>
<path fill="none" stroke="#191970" d="M617.7224,-190.5508C557.9487,-181.988 471.6578,-168.5183 397,-154 391.137,-152.8599 385.0087,-151.5836 378.9994,-150.266"/>
<polygon fill="#191970" stroke="#191970" points="379.5915,-146.8117 369.0665,-148.0263 378.0517,-153.6403 379.5915,-146.8117"/>
</g>
<!-- Node5&#45;&gt;Node14 -->
<g id="edge27" class="edge">
<title>Node5&#45;&gt;Node14</title>
<path fill="none" stroke="#191970" d="M712.0938,-190.3906C731.2102,-181.682 759.9514,-168.5888 783.7798,-157.7336"/>
<polygon fill="#191970" stroke="#191970" points="785.3261,-160.8754 792.9753,-153.5446 782.4241,-154.5052 785.3261,-160.8754"/>
</g>
<!-- Node5&#45;&gt;Node15 -->
<g id="edge28" class="edge">
<title>Node5&#45;&gt;Node15</title>
<path fill="none" stroke="#191970" d="M764.3665,-195.4979C858.9898,-189.3191 1028.2601,-176.3524 1172,-154 1174.3668,-153.632 1176.7729,-153.2333 1179.2034,-152.8105"/>
<polygon fill="#191970" stroke="#191970" points="1180.0913,-156.2059 1189.2925,-150.9536 1178.8242,-149.3216 1180.0913,-156.2059"/>
</g>
<!-- Node7&#45;&gt;Node2 -->
<g id="edge9" class="edge">
<title>Node7&#45;&gt;Node2</title>
<path fill="none" stroke="#191970" d="M166.9187,-148.015C183.7333,-164.0623 213.0508,-196.1133 246,-210 335.8828,-247.8817 615.6594,-257.899 752.7881,-260.5479"/>
<polygon fill="#191970" stroke="#191970" points="752.7468,-264.0476 762.8099,-260.7332 752.8763,-257.0488 752.7468,-264.0476"/>
</g>
<!-- Node7&#45;&gt;Node3 -->
<g id="edge8" class="edge">
<title>Node7&#45;&gt;Node3</title>
<path fill="none" stroke="#191970" d="M143.2543,-128.9005C131.336,-118.2535 111.8943,-100.8856 97.5132,-88.0385"/>
<polygon fill="#191970" stroke="#191970" points="99.5151,-85.1337 89.7257,-81.0817 94.8516,-90.354 99.5151,-85.1337"/>
</g>
<!-- Node7&#45;&gt;Node5 -->
<g id="edge10" class="edge">
<title>Node7&#45;&gt;Node5</title>
<path fill="none" stroke="#191970" d="M223.3011,-146.8058C241.7967,-149.2118 261.6925,-151.7851 280,-154 393.5972,-167.7436 524.7027,-181.818 607.7632,-190.717"/>
<polygon fill="#191970" stroke="#191970" points="607.5849,-194.2178 617.9009,-191.8031 608.3306,-187.2577 607.5849,-194.2178"/>
</g>
<!-- Node7&#45;&gt;Node6 -->
<g id="edge11" class="edge">
<title>Node7&#45;&gt;Node6</title>
<path fill="none" stroke="#191970" d="M167.8977,-128.9005C183.8164,-117.9052 210.1121,-99.7422 228.8599,-86.7927"/>
<polygon fill="#191970" stroke="#191970" points="230.8892,-89.6448 237.128,-81.0817 226.9108,-83.8852 230.8892,-89.6448"/>
</g>
<!-- Node8&#45;&gt;Node5 -->
<g id="edge13" class="edge">
<title>Node8&#45;&gt;Node5</title>
<path fill="none" stroke="#191970" d="M514.4071,-148.0419C553.4658,-158.6202 613.4451,-175.7273 652.5231,-187.4001"/>
<polygon fill="#191970" stroke="#191970" points="651.8844,-190.8628 662.4688,-190.3906 653.9002,-184.1592 651.8844,-190.8628"/>
</g>
<!-- Node9&#45;&gt;Node2 -->
<g id="edge15" class="edge">
<title>Node9&#45;&gt;Node2</title>
<path fill="none" stroke="#191970" d="M961.1119,-148.0493C942.4408,-167.6618 892.1633,-212.9055 859.4456,-239.9585"/>
<polygon fill="#191970" stroke="#191970" points="857.0675,-237.3817 851.5358,-246.4178 861.4951,-242.8036 857.0675,-237.3817"/>
</g>
<!-- Node9&#45;&gt;Node5 -->
<g id="edge16" class="edge">
<title>Node9&#45;&gt;Node5</title>
<path fill="none" stroke="#191970" d="M929.9755,-148.0643C883.138,-158.9363 803.3263,-176.6836 748.8834,-188.3529"/>
<polygon fill="#191970" stroke="#191970" points="748.075,-184.9466 739.0266,-190.4581 749.5371,-191.7922 748.075,-184.9466"/>
</g>
<!-- Node10&#45;&gt;Node5 -->
<g id="edge18" class="edge">
<title>Node10&#45;&gt;Node5</title>
<path fill="none" stroke="#191970" d="M696.8971,-153.5446C697.8593,-161.6241 698.0074,-171.681 697.3414,-180.3693"/>
<polygon fill="#191970" stroke="#191970" points="693.8567,-180.028 696.0625,-190.3906 700.8003,-180.9142 693.8567,-180.028"/>
</g>
<!-- Node11 -->
<g id="node12" class="node">
<title>Node11</title>
<g id="a_node12"><a xlink:href="$constraints_2basic_8h.html" xlink:title="Functions and data structures for constraining secondary structure predictions and evaluation.">
<polygon fill="none" stroke="#000000" points="631.5,-56.5 631.5,-86.5 750.5,-86.5 750.5,-56.5 631.5,-56.5"/>
<text text-anchor="start" x="639.5" y="-74.5" font-family="Helvetica,sans-Serif" font-size="10.00" fill="#000000">ViennaRNA/constraints</text>
<text text-anchor="middle" x="691" y="-63.5" font-family="Helvetica,sans-Serif" font-size="10.00" fill="#000000">/basic.h</text>
</a>
</g>
</g>
<!-- Node10&#45;&gt;Node11 -->
<g id="edge19" class="edge">
<title>Node10&#45;&gt;Node11</title>
<path fill="none" stroke="#191970" d="M691,-123.2967C691,-115.5013 691,-105.7991 691,-96.9064"/>
<polygon fill="#191970" stroke="#191970" points="694.5001,-96.6431 691,-86.6432 687.5001,-96.6432 694.5001,-96.6431"/>
</g>
<!-- Node11&#45;&gt;Node5 -->
<g id="edge20" class="edge">
<title>Node11&#45;&gt;Node5</title>
<path fill="none" stroke="#191970" d="M659.8046,-86.6198C645.8335,-95.1874 630.7783,-107.3517 623,-123 616.8673,-135.3376 616.5399,-141.8306 623,-154 630.3846,-167.9111 644.0636,-178.3834 657.2272,-185.7938"/>
<polygon fill="#191970" stroke="#191970" points="655.6866,-188.9375 666.1745,-190.4395 658.9124,-182.725 655.6866,-188.9375"/>
</g>
<!-- Node12&#45;&gt;Node2 -->
<g id="edge22" class="edge">
<title>Node12&#45;&gt;Node2</title>
<path fill="none" stroke="#191970" d="M1082.1859,-153.513C1033.5757,-175.8953 937.1932,-217.9978 878.6107,-242.4964"/>
<polygon fill="#191970" stroke="#191970" points="877.0793,-239.3427 869.193,-246.4178 879.7701,-245.8049 877.0793,-239.3427"/>
</g>
<!-- Node12&#45;&gt;Node5 -->
<g id="edge23" class="edge">
<title>Node12&#45;&gt;Node5</title>
<path fill="none" stroke="#191970" d="M1055.5176,-153.5427C1054.6739,-153.6983 1053.8344,-153.8509 1053,-154 958.2873,-170.9265 848.226,-184.2775 774.4848,-192.1421"/>
<polygon fill="#191970" stroke="#191970" points="773.903,-188.684 764.3261,-193.2152 774.6384,-195.6452 773.903,-188.684"/>
</g>
<!-- Node12&#45;&gt;Node11 -->
<g id="edge24" class="edge">
<title>Node12&#45;&gt;Node11</title>
<path fill="none" stroke="#191970" d="M1052.3516,-124.6225C1049.5323,-124.0551 1046.7377,-123.5109 1044,-123 946.2218,-104.7533 832.1964,-89.132 760.7916,-80.0233"/>
<polygon fill="#191970" stroke="#191970" points="760.9336,-76.5134 750.5727,-78.7271 760.0528,-83.4577 760.9336,-76.5134"/>
</g>
<!-- Node13&#45;&gt;Node5 -->
<g id="edge26" class="edge">
<title>Node13&#45;&gt;Node5</title>
<path fill="none" stroke="#191970" d="M386.5767,-148.0263C396.0496,-150.1089 405.848,-152.2203 415,-154 485.0518,-167.6226 565.3454,-180.322 621.268,-188.9108"/>
<polygon fill="#191970" stroke="#191970" points="621.0037,-192.4111 631.4184,-190.466 622.0639,-185.4918 621.0037,-192.4111"/>
</g>
<!-- Node15&#45;&gt;Node2 -->
<g id="edge29" class="edge">
<title>Node15&#45;&gt;Node2</title>
<path fill="none" stroke="#191970" d="M1205.0979,-153.513C1129.79,-176.2645 981.9283,-219.3921 896.0098,-243.6941"/>
<polygon fill="#191970" stroke="#191970" points="895.033,-240.333 886.3597,-246.4178 896.9345,-247.0698 895.033,-240.333"/>
</g>
<!-- Node15&#45;&gt;Node5 -->
<g id="edge30" class="edge">
<title>Node15&#45;&gt;Node5</title>
<path fill="none" stroke="#191970" d="M1193.0114,-153.5189C1192.0017,-153.6844 1190.9973,-153.8449 1190,-154 1044.9108,-176.5623 873.8096,-189.5617 774.2768,-195.6701"/>
<polygon fill="#191970" stroke="#191970" points="774.0493,-192.1773 764.2791,-196.2752 774.4723,-199.1646 774.0493,-192.1773"/>
</g>
<!-- Node15&#45;&gt;Node16 -->
<g id="edge31" class="edge">
<title>Node15&#45;&gt;Node16</title>
<path fill="none" stroke="#191970" d="M1274.6915,-123.2967C1291.0283,-112.351 1312.9759,-97.6462 1329.3119,-86.701"/>
<polygon fill="#191970" stroke="#191970" points="1331.3793,-89.5289 1337.7388,-81.055 1327.483,-83.7135 1331.3793,-89.5289"/>
</g>
<!-- Node16&#45;&gt;Node2 -->
<g id="edge33" class="edge">
<title>Node16&#45;&gt;Node2</title>
<path fill="none" stroke="#191970" d="M1356.931,-81.0334C1359.5288,-98.3043 1354.5481,-134.7574 1333,-154 1271.313,-209.0867 1032.7462,-241.3249 907.5547,-254.5023"/>
<polygon fill="#191970" stroke="#191970" points="906.8573,-251.0558 897.2717,-255.5686 907.5794,-258.0185 906.8573,-251.0558"/>
</g>
<!-- Node17 -->
<g id="node18" class="node">
<title>Node17</title>
<g id="a_node18"><a xlink:title=" ">
<polygon fill="none" stroke="#bfbfbf" points="1329,-.5 1329,-19.5 1375,-19.5 1375,-.5 1329,-.5"/>
<text text-anchor="middle" x="1352" y="-7.5" font-family="Helvetica,sans-Serif" font-size="10.00" fill="#000000">stdio.h</text>
</a>
</g>
</g>
<!-- Node16&#45;&gt;Node17 -->
<g id="edge32" class="edge">
<title>Node16&#45;&gt;Node17</title>
<path fill="none" stroke="#191970" d="M1352,-61.8906C1352,-53.3657 1352,-40.6392 1352,-29.9235"/>
<polygon fill="#191970" stroke="#191970" points="1355.5001,-29.7448 1352,-19.7449 1348.5001,-29.7449 1355.5001,-29.7448"/>
</g>
</g>
</svg>
