<?xml version="1.0" encoding="UTF-8" standalone="no"?>
<!DOCTYPE svg PUBLIC "-//W3C//DTD SVG 1.1//EN"
 "http://www.w3.org/Graphics/SVG/1.1/DTD/svg11.dtd">
<!-- Generated by graphviz version 2.40.1 (0)
 -->
<!-- Title: ViennaRNA/file_formats_msa.h Pages: 1 -->
<svg width="142pt" height="162pt"
 viewBox="0.00 0.00 142.00 162.00" xmlns="http://www.w3.org/2000/svg" xmlns:xlink="http://www.w3.org/1999/xlink">
<g id="graph0" class="graph" transform="scale(1 1) rotate(0) translate(4 158)">
<title>ViennaRNA/file_formats_msa.h</title>
<!-- Node0 -->
<g id="node1" class="node">
<title>Node0</title>
<g id="a_node1"><a xlink:title="Use ViennaRNA/io/file_formats_msa.h instead.">
<polygon fill="#bfbfbf" stroke="#000000" points="5.5,-123.5 5.5,-153.5 128.5,-153.5 128.5,-123.5 5.5,-123.5"/>
<text text-anchor="start" x="13.5" y="-141.5" font-family="Helvetica,sans-Serif" font-size="10.00" fill="#000000">ViennaRNA/file_formats</text>
<text text-anchor="middle" x="67" y="-130.5" font-family="Helvetica,sans-Serif" font-size="10.00" fill="#000000">_msa.h</text>
</a>
</g>
</g>
<!-- Node1 -->
<g id="node2" class="node">
<title>Node1</title>
<g id="a_node2"><a xlink:href="$io_2file__formats__msa_8h.html" xlink:title="Functions dealing with file formats for Multiple Sequence Alignments (MSA)">
<polygon fill="none" stroke="#000000" points="0,-56.5 0,-86.5 134,-86.5 134,-56.5 0,-56.5"/>
<text text-anchor="start" x="8" y="-74.5" font-family="Helvetica,sans-Serif" font-size="10.00" fill="#000000">ViennaRNA/io/file_formats</text>
<text text-anchor="middle" x="67" y="-63.5" font-family="Helvetica,sans-Serif" font-size="10.00" fill="#000000">_msa.h</text>
</a>
</g>
</g>
<!-- Node0&#45;&gt;Node1 -->
<g id="edge1" class="edge">
<title>Node0&#45;&gt;Node1</title>
<path fill="none" stroke="#191970" d="M67,-123.2967C67,-115.5013 67,-105.7991 67,-96.9064"/>
<polygon fill="#191970" stroke="#191970" points="70.5001,-96.6431 67,-86.6432 63.5001,-96.6432 70.5001,-96.6431"/>
</g>
<!-- Node2 -->
<g id="node3" class="node">
<title>Node2</title>
<g id="a_node3"><a xlink:title=" ">
<polygon fill="none" stroke="#bfbfbf" points="44,-.5 44,-19.5 90,-19.5 90,-.5 44,-.5"/>
<text text-anchor="middle" x="67" y="-7.5" font-family="Helvetica,sans-Serif" font-size="10.00" fill="#000000">stdio.h</text>
</a>
</g>
</g>
<!-- Node1&#45;&gt;Node2 -->
<g id="edge2" class="edge">
<title>Node1&#45;&gt;Node2</title>
<path fill="none" stroke="#191970" d="M67,-56.2977C67,-48.3834 67,-38.6043 67,-30.0759"/>
<polygon fill="#191970" stroke="#191970" points="70.5001,-29.8469 67,-19.8469 63.5001,-29.847 70.5001,-29.8469"/>
</g>
</g>
</svg>
