<?xml version="1.0" encoding="UTF-8" standalone="no"?>
<!DOCTYPE svg PUBLIC "-//W3C//DTD SVG 1.1//EN"
 "http://www.w3.org/Graphics/SVG/1.1/DTD/svg11.dtd">
<!-- Generated by graphviz version 2.40.1 (0)
 -->
<!-- Title: ViennaRNA/file_formats.h Pages: 1 -->
<svg width="1591pt" height="397pt"
 viewBox="0.00 0.00 1591.00 397.00" xmlns="http://www.w3.org/2000/svg" xmlns:xlink="http://www.w3.org/1999/xlink">
<g id="graph0" class="graph" transform="scale(1 1) rotate(0) translate(4 393)">
<title>ViennaRNA/file_formats.h</title>
<!-- Node0 -->
<g id="node1" class="node">
<title>Node0</title>
<g id="a_node1"><a xlink:title="Use ViennaRNA/io/file_formats.h instead.">
<polygon fill="#bfbfbf" stroke="#000000" points="50.5,-369.5 50.5,-388.5 181.5,-388.5 181.5,-369.5 50.5,-369.5"/>
<text text-anchor="middle" x="116" y="-376.5" font-family="Helvetica,sans-Serif" font-size="10.00" fill="#000000">ViennaRNA/file_formats.h</text>
</a>
</g>
</g>
<!-- Node1 -->
<g id="node2" class="node">
<title>Node1</title>
<g id="a_node2"><a xlink:href="$io_2file__formats_8h.html" xlink:title="Read and write different file formats for RNA sequences, structures.">
<polygon fill="none" stroke="#000000" points="95,-313.5 95,-332.5 237,-332.5 237,-313.5 95,-313.5"/>
<text text-anchor="middle" x="166" y="-320.5" font-family="Helvetica,sans-Serif" font-size="10.00" fill="#000000">ViennaRNA/io/file_formats.h</text>
</a>
</g>
</g>
<!-- Node0&#45;&gt;Node1 -->
<g id="edge1" class="edge">
<title>Node0&#45;&gt;Node1</title>
<path fill="none" stroke="#191970" d="M124.7093,-369.2455C131.8073,-361.2958 142.0084,-349.8706 150.495,-340.3656"/>
<polygon fill="#191970" stroke="#191970" points="153.3411,-342.4331 157.3905,-332.6427 148.1195,-337.771 153.3411,-342.4331"/>
</g>
<!-- Node18 -->
<g id="node19" class="node">
<title>Node18</title>
<g id="a_node19"><a xlink:href="$io_2file__formats__msa_8h.html" xlink:title="Functions dealing with file formats for Multiple Sequence Alignments (MSA)">
<polygon fill="none" stroke="#000000" points="0,-246.5 0,-276.5 134,-276.5 134,-246.5 0,-246.5"/>
<text text-anchor="start" x="8" y="-264.5" font-family="Helvetica,sans-Serif" font-size="10.00" fill="#000000">ViennaRNA/io/file_formats</text>
<text text-anchor="middle" x="67" y="-253.5" font-family="Helvetica,sans-Serif" font-size="10.00" fill="#000000">_msa.h</text>
</a>
</g>
</g>
<!-- Node0&#45;&gt;Node18 -->
<g id="edge44" class="edge">
<title>Node0&#45;&gt;Node18</title>
<path fill="none" stroke="#191970" d="M108.3513,-369.2999C101.6147,-360.3356 91.9713,-346.4139 86,-333 79.4234,-318.2263 74.72,-300.6896 71.638,-286.6813"/>
<polygon fill="#191970" stroke="#191970" points="75.04,-285.8485 69.593,-276.7611 68.1841,-287.2618 75.04,-285.8485"/>
</g>
<!-- Node2 -->
<g id="node3" class="node">
<title>Node2</title>
<g id="a_node3"><a xlink:title=" ">
<polygon fill="none" stroke="#bfbfbf" points="139,-.5 139,-19.5 185,-19.5 185,-.5 139,-.5"/>
<text text-anchor="middle" x="162" y="-7.5" font-family="Helvetica,sans-Serif" font-size="10.00" fill="#000000">stdio.h</text>
</a>
</g>
</g>
<!-- Node1&#45;&gt;Node2 -->
<g id="edge2" class="edge">
<title>Node1&#45;&gt;Node2</title>
<path fill="none" stroke="#191970" d="M165.4771,-313.4343C164.3928,-292.7481 162,-242.3036 162,-200 162,-200 162,-200 162,-138.5 162,-100.0012 162,-55.0145 162,-29.7812"/>
<polygon fill="#191970" stroke="#191970" points="165.5001,-29.6718 162,-19.6719 158.5001,-29.6719 165.5001,-29.6718"/>
</g>
<!-- Node3 -->
<g id="node4" class="node">
<title>Node3</title>
<g id="a_node4"><a xlink:href="$datastructures_2basic_8h.html" xlink:title="Various data structures and pre&#45;processor macros.">
<polygon fill="none" stroke="#000000" points="958,-246.5 958,-276.5 1092,-276.5 1092,-246.5 958,-246.5"/>
<text text-anchor="start" x="966" y="-264.5" font-family="Helvetica,sans-Serif" font-size="10.00" fill="#000000">ViennaRNA/datastructures</text>
<text text-anchor="middle" x="1025" y="-253.5" font-family="Helvetica,sans-Serif" font-size="10.00" fill="#000000">/basic.h</text>
</a>
</g>
</g>
<!-- Node1&#45;&gt;Node3 -->
<g id="edge3" class="edge">
<title>Node1&#45;&gt;Node3</title>
<path fill="none" stroke="#191970" d="M237.0264,-317.9149C396.5816,-306.4915 782.3483,-278.8726 947.6755,-267.036"/>
<polygon fill="#191970" stroke="#191970" points="948.0415,-270.5189 957.766,-266.3136 947.5415,-263.5368 948.0415,-270.5189"/>
</g>
<!-- Node4 -->
<g id="node5" class="node">
<title>Node4</title>
<g id="a_node5"><a xlink:href="$constants_8h.html" xlink:title="Energy parameter constants.">
<polygon fill="none" stroke="#000000" points="1425,-62 1425,-81 1583,-81 1583,-62 1425,-62"/>
<text text-anchor="middle" x="1504" y="-69" font-family="Helvetica,sans-Serif" font-size="10.00" fill="#000000">ViennaRNA/params/constants.h</text>
</a>
</g>
</g>
<!-- Node3&#45;&gt;Node4 -->
<g id="edge4" class="edge">
<title>Node3&#45;&gt;Node4</title>
<path fill="none" stroke="#191970" d="M1092.3437,-256.0367C1178.4059,-248.2702 1321.9994,-232.4462 1370,-210 1427.129,-183.2852 1472.7786,-120.8203 1492.8799,-89.7371"/>
<polygon fill="#191970" stroke="#191970" points="1495.9075,-91.4977 1498.2824,-81.1724 1489.9869,-87.763 1495.9075,-91.4977"/>
</g>
<!-- Node6 -->
<g id="node7" class="node">
<title>Node6</title>
<g id="a_node7"><a xlink:href="$fold__compound_8h.html" xlink:title="The Basic Fold Compound API.">
<polygon fill="none" stroke="#000000" points="712,-190.5 712,-209.5 858,-209.5 858,-190.5 712,-190.5"/>
<text text-anchor="middle" x="785" y="-197.5" font-family="Helvetica,sans-Serif" font-size="10.00" fill="#000000">ViennaRNA/fold_compound.h</text>
</a>
</g>
</g>
<!-- Node3&#45;&gt;Node6 -->
<g id="edge6" class="edge">
<title>Node3&#45;&gt;Node6</title>
<path fill="none" stroke="#191970" d="M966.2894,-246.4554C925.0153,-235.8789 870.518,-221.914 832.0881,-212.0663"/>
<polygon fill="#191970" stroke="#191970" points="832.7473,-208.6222 822.1915,-209.5303 831.0097,-215.4031 832.7473,-208.6222"/>
</g>
<!-- Node7 -->
<g id="node8" class="node">
<title>Node7</title>
<g id="a_node8"><a xlink:href="$model_8h.html" xlink:title="The model details data structure and its corresponding modifiers.">
<polygon fill="none" stroke="#000000" points="1139,-62 1139,-81 1245,-81 1245,-62 1139,-62"/>
<text text-anchor="middle" x="1192" y="-69" font-family="Helvetica,sans-Serif" font-size="10.00" fill="#000000">ViennaRNA/model.h</text>
</a>
</g>
</g>
<!-- Node3&#45;&gt;Node7 -->
<g id="edge35" class="edge">
<title>Node3&#45;&gt;Node7</title>
<path fill="none" stroke="#191970" d="M1092.3798,-251.45C1187.9226,-235.6654 1355.1839,-201.8489 1391,-154 1399.2563,-142.97 1399.4341,-133.8946 1391,-123 1389.8126,-121.4661 1298.3717,-98.242 1239.8698,-83.5103"/>
<polygon fill="#191970" stroke="#191970" points="1240.6229,-80.0908 1230.0711,-81.0447 1238.9147,-86.8792 1240.6229,-80.0908"/>
</g>
<!-- Node8 -->
<g id="node9" class="node">
<title>Node8</title>
<g id="a_node9"><a xlink:href="$params_2basic_8h.html" xlink:title="Functions to deal with sets of energy parameters.">
<polygon fill="none" stroke="#000000" points="1244,-129 1244,-148 1382,-148 1382,-129 1244,-129"/>
<text text-anchor="middle" x="1313" y="-136" font-family="Helvetica,sans-Serif" font-size="10.00" fill="#000000">ViennaRNA/params/basic.h</text>
</a>
</g>
</g>
<!-- Node3&#45;&gt;Node8 -->
<g id="edge36" class="edge">
<title>Node3&#45;&gt;Node8</title>
<path fill="none" stroke="#191970" d="M1055.7002,-246.4178C1109.575,-222.1613 1220.3754,-174.8724 1277.4673,-151.8011"/>
<polygon fill="#191970" stroke="#191970" points="1278.8383,-155.0222 1286.8151,-148.0493 1276.231,-148.5259 1278.8383,-155.0222"/>
</g>
<!-- Node10 -->
<g id="node11" class="node">
<title>Node10</title>
<g id="a_node11"><a xlink:href="$dp__matrices_8h.html" xlink:title="Functions to deal with standard dynamic programming (DP) matrices.">
<polygon fill="none" stroke="#000000" points="190.5,-129 190.5,-148 323.5,-148 323.5,-129 190.5,-129"/>
<text text-anchor="middle" x="257" y="-136" font-family="Helvetica,sans-Serif" font-size="10.00" fill="#000000">ViennaRNA/dp_matrices.h</text>
</a>
</g>
</g>
<!-- Node3&#45;&gt;Node10 -->
<g id="edge37" class="edge">
<title>Node3&#45;&gt;Node10</title>
<path fill="none" stroke="#191970" d="M957.7426,-256.9224C866.1842,-249.801 697.7759,-234.3072 556,-210 461.8309,-193.8549 353.3397,-166.6132 296.3583,-150.8265"/>
<polygon fill="#191970" stroke="#191970" points="297.2393,-147.4387 286.6659,-148.1118 295.3512,-154.1793 297.2393,-147.4387"/>
</g>
<!-- Node11 -->
<g id="node12" class="node">
<title>Node11</title>
<g id="a_node12"><a xlink:href="$hard_8h.html" xlink:title="Functions and data structures for handling of secondary structure hard constraints.">
<polygon fill="none" stroke="#000000" points="478.5,-123.5 478.5,-153.5 597.5,-153.5 597.5,-123.5 478.5,-123.5"/>
<text text-anchor="start" x="486.5" y="-141.5" font-family="Helvetica,sans-Serif" font-size="10.00" fill="#000000">ViennaRNA/constraints</text>
<text text-anchor="middle" x="538" y="-130.5" font-family="Helvetica,sans-Serif" font-size="10.00" fill="#000000">/hard.h</text>
</a>
</g>
</g>
<!-- Node3&#45;&gt;Node11 -->
<g id="edge38" class="edge">
<title>Node3&#45;&gt;Node11</title>
<path fill="none" stroke="#191970" d="M957.9423,-255.7112C892.0513,-248.8771 789.1438,-235.1213 703,-210 657.854,-196.8345 608.7102,-174.4077 575.9035,-158.1765"/>
<polygon fill="#191970" stroke="#191970" points="577.1948,-154.909 566.6854,-153.5658 574.0633,-161.1695 577.1948,-154.909"/>
</g>
<!-- Node13 -->
<g id="node14" class="node">
<title>Node13</title>
<g id="a_node14"><a xlink:href="$soft_8h.html" xlink:title="Functions and data structures for secondary structure soft constraints.">
<polygon fill="none" stroke="#000000" points="341.5,-123.5 341.5,-153.5 460.5,-153.5 460.5,-123.5 341.5,-123.5"/>
<text text-anchor="start" x="349.5" y="-141.5" font-family="Helvetica,sans-Serif" font-size="10.00" fill="#000000">ViennaRNA/constraints</text>
<text text-anchor="middle" x="401" y="-130.5" font-family="Helvetica,sans-Serif" font-size="10.00" fill="#000000">/soft.h</text>
</a>
</g>
</g>
<!-- Node3&#45;&gt;Node13 -->
<g id="edge39" class="edge">
<title>Node3&#45;&gt;Node13</title>
<path fill="none" stroke="#191970" d="M957.6622,-256.1828C879.1406,-248.9109 746.0664,-233.9617 634,-210 568.2065,-195.9322 494.26,-173.0112 447.564,-156.9219"/>
<polygon fill="#191970" stroke="#191970" points="448.6207,-153.5838 438.0259,-153.598 446.3171,-160.1939 448.6207,-153.5838"/>
</g>
<!-- Node14 -->
<g id="node15" class="node">
<title>Node14</title>
<g id="a_node15"><a xlink:href="$grammar_8h.html" xlink:title="Implementations for the RNA folding grammar.">
<polygon fill="none" stroke="#000000" points="832.5,-129 832.5,-148 949.5,-148 949.5,-129 832.5,-129"/>
<text text-anchor="middle" x="891" y="-136" font-family="Helvetica,sans-Serif" font-size="10.00" fill="#000000">ViennaRNA/grammar.h</text>
</a>
</g>
</g>
<!-- Node3&#45;&gt;Node14 -->
<g id="edge40" class="edge">
<title>Node3&#45;&gt;Node14</title>
<path fill="none" stroke="#191970" d="M1008.569,-246.4178C983.3443,-223.2638 935.2568,-179.1238 909.0767,-155.0928"/>
<polygon fill="#191970" stroke="#191970" points="911.137,-152.2331 901.4033,-148.0493 906.4035,-157.39 911.137,-152.2331"/>
</g>
<!-- Node15 -->
<g id="node16" class="node">
<title>Node15</title>
<g id="a_node16"><a xlink:href="$structured__domains_8h.html" xlink:title="This module provides interfaces that deal with additional structured domains in the folding grammar.">
<polygon fill="none" stroke="#000000" points="967.5,-123.5 967.5,-153.5 1082.5,-153.5 1082.5,-123.5 967.5,-123.5"/>
<text text-anchor="start" x="975.5" y="-141.5" font-family="Helvetica,sans-Serif" font-size="10.00" fill="#000000">ViennaRNA/structured</text>
<text text-anchor="middle" x="1025" y="-130.5" font-family="Helvetica,sans-Serif" font-size="10.00" fill="#000000">_domains.h</text>
</a>
</g>
</g>
<!-- Node3&#45;&gt;Node15 -->
<g id="edge41" class="edge">
<title>Node3&#45;&gt;Node15</title>
<path fill="none" stroke="#191970" d="M1025,-246.4178C1025,-225.8539 1025,-188.7363 1025,-163.8546"/>
<polygon fill="#191970" stroke="#191970" points="1028.5001,-163.7055 1025,-153.7056 1021.5001,-163.7056 1028.5001,-163.7055"/>
</g>
<!-- Node16 -->
<g id="node17" class="node">
<title>Node16</title>
<g id="a_node17"><a xlink:href="$unstructured__domains_8h.html" xlink:title="Functions to modify unstructured domains, e.g. to incorporate ligands binding to unpaired stretches.">
<polygon fill="none" stroke="#000000" points="1100.5,-123.5 1100.5,-153.5 1225.5,-153.5 1225.5,-123.5 1100.5,-123.5"/>
<text text-anchor="start" x="1108.5" y="-141.5" font-family="Helvetica,sans-Serif" font-size="10.00" fill="#000000">ViennaRNA/unstructured</text>
<text text-anchor="middle" x="1163" y="-130.5" font-family="Helvetica,sans-Serif" font-size="10.00" fill="#000000">_domains.h</text>
</a>
</g>
</g>
<!-- Node3&#45;&gt;Node16 -->
<g id="edge42" class="edge">
<title>Node3&#45;&gt;Node16</title>
<path fill="none" stroke="#191970" d="M1037.3073,-246.4178C1058.9186,-224.8395 1103.3508,-185.0342 1133.2839,-160.2653"/>
<polygon fill="#191970" stroke="#191970" points="1135.7824,-162.7436 1141.311,-153.7056 1131.3529,-157.3232 1135.7824,-162.7436"/>
</g>
<!-- Node17 -->
<g id="node18" class="node">
<title>Node17</title>
<g id="a_node18"><a xlink:href="$utils_2structures_8h.html" xlink:title="Various utility&#45; and helper&#45;functions for secondary structure parsing, converting,...">
<polygon fill="none" stroke="#000000" points="1263,-62 1263,-81 1407,-81 1407,-62 1263,-62"/>
<text text-anchor="middle" x="1335" y="-69" font-family="Helvetica,sans-Serif" font-size="10.00" fill="#000000">ViennaRNA/utils/structures.h</text>
</a>
</g>
</g>
<!-- Node3&#45;&gt;Node17 -->
<g id="edge43" class="edge">
<title>Node3&#45;&gt;Node17</title>
<path fill="none" stroke="#191970" d="M1092.023,-256.977C1151.7226,-251.2867 1240.4281,-238.5195 1313,-210 1355.451,-193.3175 1377.2609,-194.0974 1399,-154 1405.5667,-141.8878 1405.3403,-135.2322 1399,-123 1390.5689,-106.734 1374.3757,-94.514 1360.263,-86.0695"/>
<polygon fill="#191970" stroke="#191970" points="1361.8206,-82.9296 1351.3919,-81.0608 1358.3791,-89.0251 1361.8206,-82.9296"/>
</g>
<!-- Node5 -->
<g id="node6" class="node">
<title>Node5</title>
<g id="a_node6"><a xlink:title=" ">
<polygon fill="none" stroke="#bfbfbf" points="1480,-.5 1480,-19.5 1528,-19.5 1528,-.5 1480,-.5"/>
<text text-anchor="middle" x="1504" y="-7.5" font-family="Helvetica,sans-Serif" font-size="10.00" fill="#000000">limits.h</text>
</a>
</g>
</g>
<!-- Node4&#45;&gt;Node5 -->
<g id="edge5" class="edge">
<title>Node4&#45;&gt;Node5</title>
<path fill="none" stroke="#191970" d="M1504,-61.8906C1504,-53.3657 1504,-40.6392 1504,-29.9235"/>
<polygon fill="#191970" stroke="#191970" points="1507.5001,-29.7448 1504,-19.7449 1500.5001,-29.7449 1507.5001,-29.7448"/>
</g>
<!-- Node6&#45;&gt;Node7 -->
<g id="edge7" class="edge">
<title>Node6&#45;&gt;Node7</title>
<path fill="none" stroke="#191970" d="M786.8809,-190.3219C790.6816,-173.5893 800.958,-139.4675 824,-123 871.617,-88.9695 1036.6064,-77.3072 1128.6641,-73.4008"/>
<polygon fill="#191970" stroke="#191970" points="1128.8498,-76.8962 1138.6996,-72.9934 1128.5658,-69.902 1128.8498,-76.8962"/>
</g>
<!-- Node6&#45;&gt;Node8 -->
<g id="edge8" class="edge">
<title>Node6&#45;&gt;Node8</title>
<path fill="none" stroke="#191970" d="M858.0046,-194.15C945.6874,-186.9911 1096.8873,-173.3835 1226,-154 1233.6801,-152.847 1241.7509,-151.4524 1249.7655,-149.9779"/>
<polygon fill="#191970" stroke="#191970" points="1250.6733,-153.3686 1259.8536,-148.0798 1249.3788,-146.4893 1250.6733,-153.3686"/>
</g>
<!-- Node9 -->
<g id="node10" class="node">
<title>Node9</title>
<g id="a_node10"><a xlink:href="$sequence_8h.html" xlink:title="Functions and data structures related to sequence representations ,.">
<polygon fill="none" stroke="#000000" points="616,-129 616,-148 738,-148 738,-129 616,-129"/>
<text text-anchor="middle" x="677" y="-136" font-family="Helvetica,sans-Serif" font-size="10.00" fill="#000000">ViennaRNA/sequence.h</text>
</a>
</g>
</g>
<!-- Node6&#45;&gt;Node9 -->
<g id="edge13" class="edge">
<title>Node6&#45;&gt;Node9</title>
<path fill="none" stroke="#191970" d="M763.0625,-190.3906C743.7769,-180.5067 716.226,-164.9749 697.4126,-153.4773"/>
<polygon fill="#191970" stroke="#191970" points="699.0433,-150.3693 688.7072,-148.0419 695.3359,-156.307 699.0433,-150.3693"/>
</g>
<!-- Node6&#45;&gt;Node10 -->
<g id="edge15" class="edge">
<title>Node6&#45;&gt;Node10</title>
<path fill="none" stroke="#191970" d="M711.8015,-195.3533C620.2906,-188.7153 459.3419,-174.9545 323,-154 315.6817,-152.8752 307.9984,-151.5064 300.5478,-150.0528"/>
<polygon fill="#191970" stroke="#191970" points="301.0844,-146.5905 290.5882,-148.0332 299.6931,-153.4508 301.0844,-146.5905"/>
</g>
<!-- Node6&#45;&gt;Node11 -->
<g id="edge18" class="edge">
<title>Node6&#45;&gt;Node11</title>
<path fill="none" stroke="#191970" d="M741.628,-190.4581C703.0443,-181.2991 646.2306,-167.2458 602.3729,-156.0631"/>
<polygon fill="#191970" stroke="#191970" points="603.2132,-152.6654 592.6578,-153.5784 601.4787,-159.4471 603.2132,-152.6654"/>
</g>
<!-- Node6&#45;&gt;Node13 -->
<g id="edge22" class="edge">
<title>Node6&#45;&gt;Node13</title>
<path fill="none" stroke="#191970" d="M711.8733,-191.9185C648.1219,-184.0315 553.2004,-171.0153 467.3668,-155.348"/>
<polygon fill="#191970" stroke="#191970" points="467.9547,-151.8975 457.4856,-153.5249 466.6845,-158.7813 467.9547,-151.8975"/>
</g>
<!-- Node6&#45;&gt;Node14 -->
<g id="edge26" class="edge">
<title>Node6&#45;&gt;Node14</title>
<path fill="none" stroke="#191970" d="M796.5,-190.3906C811.883,-180.3262 839.0735,-164.4057 860.4523,-152.8514"/>
<polygon fill="#191970" stroke="#191970" points="862.3158,-155.8247 869.5045,-148.0419 859.0314,-149.6431 862.3158,-155.8247"/>
</g>
<!-- Node6&#45;&gt;Node15 -->
<g id="edge28" class="edge">
<title>Node6&#45;&gt;Node15</title>
<path fill="none" stroke="#191970" d="M822.2367,-190.4581C858.2239,-181.2364 913.5734,-167.0531 957.3563,-155.8337"/>
<polygon fill="#191970" stroke="#191970" points="958.2602,-159.2152 967.0784,-153.3424 956.5226,-152.4343 958.2602,-159.2152"/>
</g>
<!-- Node6&#45;&gt;Node16 -->
<g id="edge29" class="edge">
<title>Node6&#45;&gt;Node16</title>
<path fill="none" stroke="#191970" d="M850.6275,-190.4751C911.146,-181.9875 1003.2273,-168.6674 1083,-154 1085.3557,-153.5669 1087.7525,-153.1127 1090.175,-152.6431"/>
<polygon fill="#191970" stroke="#191970" points="1091.1152,-156.0247 1100.2392,-150.6392 1089.7482,-149.1594 1091.1152,-156.0247"/>
</g>
<!-- Node8&#45;&gt;Node3 -->
<g id="edge10" class="edge">
<title>Node8&#45;&gt;Node3</title>
<path fill="none" stroke="#191970" d="M1294.4665,-148.0493C1250.5242,-168.285 1139.6589,-215.807 1074.5748,-242.4812"/>
<polygon fill="#191970" stroke="#191970" points="1072.8649,-239.3987 1064.9287,-246.4178 1075.5099,-245.8798 1072.8649,-239.3987"/>
</g>
<!-- Node8&#45;&gt;Node4 -->
<g id="edge9" class="edge">
<title>Node8&#45;&gt;Node4</title>
<path fill="none" stroke="#191970" d="M1340.3656,-128.9005C1373.6962,-117.2086 1430.1309,-97.4122 1467.2323,-84.3976"/>
<polygon fill="#191970" stroke="#191970" points="1468.4074,-87.6945 1476.6851,-81.0817 1466.0903,-81.0891 1468.4074,-87.6945"/>
</g>
<!-- Node8&#45;&gt;Node6 -->
<g id="edge11" class="edge">
<title>Node8&#45;&gt;Node6</title>
<path fill="none" stroke="#191970" d="M1277.3043,-148.0798C1266.636,-150.2316 1254.9228,-152.3602 1244,-154 1113.564,-173.5821 960.5858,-187.2694 868.2457,-194.3681"/>
<polygon fill="#191970" stroke="#191970" points="867.8265,-190.8898 858.121,-195.1386 868.3578,-197.8696 867.8265,-190.8898"/>
</g>
<!-- Node8&#45;&gt;Node7 -->
<g id="edge12" class="edge">
<title>Node8&#45;&gt;Node7</title>
<path fill="none" stroke="#191970" d="M1295.6637,-128.9005C1275.447,-117.7062 1241.8128,-99.0823 1218.3576,-86.0947"/>
<polygon fill="#191970" stroke="#191970" points="1219.7481,-82.8639 1209.3042,-81.0817 1216.3571,-88.9878 1219.7481,-82.8639"/>
</g>
<!-- Node9&#45;&gt;Node6 -->
<g id="edge14" class="edge">
<title>Node9&#45;&gt;Node6</title>
<path fill="none" stroke="#191970" d="M698.8058,-148.0419C718.0537,-157.9 745.6055,-173.4281 764.4587,-184.944"/>
<polygon fill="#191970" stroke="#191970" points="762.8508,-188.0662 773.1875,-190.3906 766.5564,-182.1275 762.8508,-188.0662"/>
</g>
<!-- Node10&#45;&gt;Node3 -->
<g id="edge16" class="edge">
<title>Node10&#45;&gt;Node3</title>
<path fill="none" stroke="#191970" d="M297.9277,-148.1118C358.2602,-163.3019 474.1768,-192.8855 574,-210 704.4134,-232.3592 857.3616,-247.261 947.5123,-255.0487"/>
<polygon fill="#191970" stroke="#191970" points="947.3884,-258.5508 957.6507,-255.9174 947.9861,-251.5764 947.3884,-258.5508"/>
</g>
<!-- Node10&#45;&gt;Node6 -->
<g id="edge17" class="edge">
<title>Node10&#45;&gt;Node6</title>
<path fill="none" stroke="#191970" d="M308.018,-148.0332C318.9381,-150.2115 330.3552,-152.364 341,-154 466.2636,-173.2519 612.2978,-186.4316 701.7489,-193.5941"/>
<polygon fill="#191970" stroke="#191970" points="701.5887,-197.0923 711.8345,-194.3954 702.1432,-190.1143 701.5887,-197.0923"/>
</g>
<!-- Node11&#45;&gt;Node6 -->
<g id="edge19" class="edge">
<title>Node11&#45;&gt;Node6</title>
<path fill="none" stroke="#191970" d="M597.7158,-151.951C642.2878,-162.682 702.0516,-177.5792 742.0144,-187.9298"/>
<polygon fill="#191970" stroke="#191970" points="741.1673,-191.3259 751.7265,-190.4581 742.9308,-184.5517 741.1673,-191.3259"/>
</g>
<!-- Node12 -->
<g id="node13" class="node">
<title>Node12</title>
<g id="a_node13"><a xlink:href="$constraints_2basic_8h.html" xlink:title="Functions and data structures for constraining secondary structure predictions and evaluation.">
<polygon fill="none" stroke="#000000" points="478.5,-56.5 478.5,-86.5 597.5,-86.5 597.5,-56.5 478.5,-56.5"/>
<text text-anchor="start" x="486.5" y="-74.5" font-family="Helvetica,sans-Serif" font-size="10.00" fill="#000000">ViennaRNA/constraints</text>
<text text-anchor="middle" x="538" y="-63.5" font-family="Helvetica,sans-Serif" font-size="10.00" fill="#000000">/basic.h</text>
</a>
</g>
</g>
<!-- Node11&#45;&gt;Node12 -->
<g id="edge20" class="edge">
<title>Node11&#45;&gt;Node12</title>
<path fill="none" stroke="#191970" d="M538,-123.2967C538,-115.5013 538,-105.7991 538,-96.9064"/>
<polygon fill="#191970" stroke="#191970" points="541.5001,-96.6431 538,-86.6432 534.5001,-96.6432 541.5001,-96.6431"/>
</g>
<!-- Node12&#45;&gt;Node6 -->
<g id="edge21" class="edge">
<title>Node12&#45;&gt;Node6</title>
<path fill="none" stroke="#191970" d="M597.5901,-80.447C650.9404,-89.4652 724.1703,-104.6523 747,-123 765.0906,-137.5389 775.2318,-162.8726 780.4017,-180.4941"/>
<polygon fill="#191970" stroke="#191970" points="777.057,-181.5361 783.0049,-190.3038 783.8228,-179.7406 777.057,-181.5361"/>
</g>
<!-- Node13&#45;&gt;Node3 -->
<g id="edge23" class="edge">
<title>Node13&#45;&gt;Node3</title>
<path fill="none" stroke="#191970" d="M451.25,-153.598C501.6992,-169.7056 581.5266,-194.9316 652,-210 753.458,-231.6934 872.1346,-245.9999 947.9623,-253.9101"/>
<polygon fill="#191970" stroke="#191970" points="947.6047,-257.3917 957.9113,-254.937 948.3235,-250.4287 947.6047,-257.3917"/>
</g>
<!-- Node13&#45;&gt;Node6 -->
<g id="edge24" class="edge">
<title>Node13&#45;&gt;Node6</title>
<path fill="none" stroke="#191970" d="M460.7232,-150.5387C466.5731,-151.7744 472.4055,-152.9569 478,-154 554.6647,-168.2941 642.4889,-180.7685 704.5674,-189.107"/>
<polygon fill="#191970" stroke="#191970" points="704.3137,-192.6041 714.6894,-190.4607 705.2417,-185.6659 704.3137,-192.6041"/>
</g>
<!-- Node13&#45;&gt;Node12 -->
<g id="edge25" class="edge">
<title>Node13&#45;&gt;Node12</title>
<path fill="none" stroke="#191970" d="M431.7455,-123.4639C451.2624,-113.9191 476.7257,-101.4663 497.8325,-91.144"/>
<polygon fill="#191970" stroke="#191970" points="499.4375,-94.2552 506.8831,-86.7177 496.3622,-87.9669 499.4375,-94.2552"/>
</g>
<!-- Node14&#45;&gt;Node6 -->
<g id="edge27" class="edge">
<title>Node14&#45;&gt;Node6</title>
<path fill="none" stroke="#191970" d="M879.6031,-148.0419C864.273,-158.0801 837.0961,-173.9972 815.6913,-185.571"/>
<polygon fill="#191970" stroke="#191970" points="813.812,-182.6061 806.625,-190.3906 817.0978,-188.787 813.812,-182.6061"/>
</g>
<!-- Node16&#45;&gt;Node3 -->
<g id="edge30" class="edge">
<title>Node16&#45;&gt;Node3</title>
<path fill="none" stroke="#191970" d="M1150.5691,-153.7056C1128.8711,-175.3531 1084.4232,-215.1643 1054.5454,-239.8759"/>
<polygon fill="#191970" stroke="#191970" points="1052.0668,-237.3813 1046.5358,-246.4178 1056.4948,-242.8028 1052.0668,-237.3813"/>
</g>
<!-- Node16&#45;&gt;Node6 -->
<g id="edge31" class="edge">
<title>Node16&#45;&gt;Node6</title>
<path fill="none" stroke="#191970" d="M1103.6214,-153.5126C1102.7428,-153.6777 1101.8686,-153.8403 1101,-154 1022.5111,-168.4314 932.1063,-181.5584 868.0899,-190.0616"/>
<polygon fill="#191970" stroke="#191970" points="867.5045,-186.6084 858.0481,-191.3861 868.4199,-193.5483 867.5045,-186.6084"/>
</g>
<!-- Node16&#45;&gt;Node17 -->
<g id="edge32" class="edge">
<title>Node16&#45;&gt;Node17</title>
<path fill="none" stroke="#191970" d="M1201.6002,-123.4639C1231.4581,-111.8332 1272.4015,-95.8843 1301.0258,-84.7342"/>
<polygon fill="#191970" stroke="#191970" points="1302.5508,-87.8963 1310.5984,-81.0053 1300.0099,-81.3737 1302.5508,-87.8963"/>
</g>
<!-- Node17&#45;&gt;Node2 -->
<g id="edge33" class="edge">
<title>Node17&#45;&gt;Node2</title>
<path fill="none" stroke="#191970" d="M1291.4627,-61.9511C1279.3855,-59.6353 1266.231,-57.4201 1254,-56 1041.4195,-31.3187 355.6557,-14.4186 195.6149,-10.7493"/>
<polygon fill="#191970" stroke="#191970" points="195.505,-7.246 185.4279,-10.5174 195.3456,-14.2441 195.505,-7.246"/>
</g>
<!-- Node17&#45;&gt;Node3 -->
<g id="edge34" class="edge">
<title>Node17&#45;&gt;Node3</title>
<path fill="none" stroke="#191970" d="M1366.1883,-81.0608C1384.9091,-89.3546 1406.7221,-103.1709 1417,-123 1423.3403,-135.2322 1423.5667,-141.8878 1417,-154 1395.2609,-194.0974 1373.451,-193.3175 1331,-210 1256.834,-239.146 1165.8178,-251.84 1102.3433,-257.3418"/>
<polygon fill="#191970" stroke="#191970" points="1101.6842,-253.8842 1092.0061,-258.1954 1102.2603,-260.8605 1101.6842,-253.8842"/>
</g>
<!-- Node18&#45;&gt;Node2 -->
<g id="edge45" class="edge">
<title>Node18&#45;&gt;Node2</title>
<path fill="none" stroke="#191970" d="M72.7997,-246.1461C89.3162,-202.4208 136.5786,-77.2999 154.7555,-29.1789"/>
<polygon fill="#191970" stroke="#191970" points="158.0952,-30.2421 158.3547,-19.6505 151.5468,-27.7685 158.0952,-30.2421"/>
</g>
</g>
</svg>
