<?xml version="1.0" encoding="UTF-8" standalone="no"?>
<!DOCTYPE svg PUBLIC "-//W3C//DTD SVG 1.1//EN"
 "http://www.w3.org/Graphics/SVG/1.1/DTD/svg11.dtd">
<!-- Generated by graphviz version 2.40.1 (0)
 -->
<!-- Title: ViennaRNA/grammar.h Pages: 1 -->
<svg width="4684pt" height="531pt"
 viewBox="0.00 0.00 4684.41 531.00" xmlns="http://www.w3.org/2000/svg" xmlns:xlink="http://www.w3.org/1999/xlink">
<g id="graph0" class="graph" transform="scale(1 1) rotate(0) translate(4 527)">
<title>ViennaRNA/grammar.h</title>
<!-- Node16 -->
<g id="node1" class="node">
<title>Node16</title>
<g id="a_node1"><a xlink:title="Implementations for the RNA folding grammar.">
<polygon fill="#bfbfbf" stroke="#000000" points="2524.906,-503.5 2524.906,-522.5 2641.906,-522.5 2641.906,-503.5 2524.906,-503.5"/>
<text text-anchor="middle" x="2583.406" y="-510.5" font-family="Helvetica,sans-Serif" font-size="10.00" fill="#000000">ViennaRNA/grammar.h</text>
</a>
</g>
</g>
<!-- Node17 -->
<g id="node2" class="node">
<title>Node17</title>
<g id="a_node2"><a xlink:href="$fold__compound_8h.html" xlink:title="The Basic Fold Compound API.">
<polygon fill="none" stroke="#000000" points="2510.406,-447.5 2510.406,-466.5 2656.406,-466.5 2656.406,-447.5 2510.406,-447.5"/>
<text text-anchor="middle" x="2583.406" y="-454.5" font-family="Helvetica,sans-Serif" font-size="10.00" fill="#000000">ViennaRNA/fold_compound.h</text>
</a>
</g>
</g>
<!-- Node16&#45;&gt;Node17 -->
<g id="edge1" class="edge">
<title>Node16&#45;&gt;Node17</title>
<path fill="none" stroke="#191970" d="M2576.9173,-493.1575C2576.325,-484.155 2576.7395,-473.9199 2578.1609,-466.6427"/>
<polygon fill="#191970" stroke="#191970" points="2573.4621,-493.739 2578.1392,-503.2455 2580.4113,-492.8972 2573.4621,-493.739"/>
</g>
<!-- Node30 -->
<g id="node14" class="node">
<title>Node30</title>
<g id="a_node14"><a xlink:href="$datastructures_2basic_8h.html" xlink:title="Various data structures and pre&#45;processor macros.">
<polygon fill="none" stroke="#ff0000" points="1653.406,-246.5 1653.406,-276.5 1787.406,-276.5 1787.406,-246.5 1653.406,-246.5"/>
<text text-anchor="start" x="1661.406" y="-264.5" font-family="Helvetica,sans-Serif" font-size="10.00" fill="#000000">ViennaRNA/datastructures</text>
<text text-anchor="middle" x="1720.406" y="-253.5" font-family="Helvetica,sans-Serif" font-size="10.00" fill="#000000">/basic.h</text>
</a>
</g>
</g>
<!-- Node16&#45;&gt;Node30 -->
<g id="edge116" class="edge">
<title>Node16&#45;&gt;Node30</title>
<path fill="none" stroke="#191970" d="M2514.4606,-508.3833C2323.3462,-495.0808 1796.6484,-454.8109 1732.406,-411 1694.0705,-384.8566 1686.3683,-358.3027 1696.406,-313 1699.2654,-300.095 1705.707,-286.5896 1711.1973,-276.6481"/>
<polygon fill="#191970" stroke="#191970" points="2514.4457,-511.8905 2524.6636,-509.09 2514.9294,-504.9073 2514.4457,-511.8905"/>
</g>
<!-- Node17&#45;&gt;Node16 -->
<g id="edge82" class="edge">
<title>Node17&#45;&gt;Node16</title>
<path fill="none" stroke="#191970" d="M2589.8855,-476.7046C2590.4881,-485.6944 2590.0839,-495.9382 2588.6728,-503.2455"/>
<polygon fill="#191970" stroke="#191970" points="2593.3428,-476.1421 2588.6511,-466.6427 2586.3949,-476.9945 2593.3428,-476.1421"/>
</g>
<!-- Node18 -->
<g id="node3" class="node">
<title>Node18</title>
<g id="a_node3"><a xlink:href="$2Dfold_8h.html" xlink:title="MFE structures for base pair distance classes.">
<polygon fill="none" stroke="#000000" points="1806.406,-118 1806.406,-137 1914.406,-137 1914.406,-118 1806.406,-118"/>
<text text-anchor="middle" x="1860.406" y="-125" font-family="Helvetica,sans-Serif" font-size="10.00" fill="#000000">ViennaRNA/2Dfold.h</text>
</a>
</g>
</g>
<!-- Node17&#45;&gt;Node18 -->
<g id="edge2" class="edge">
<title>Node17&#45;&gt;Node18</title>
<path fill="none" stroke="#191970" d="M2536.7056,-444.6563C2507.5436,-435.8979 2473.9612,-423.5173 2465.406,-411 2405.7804,-323.7601 2589.8302,-255.9465 2517.406,-179 2472.0876,-130.8519 1988.7759,-152.9389 1923.406,-143 1913.8293,-141.5439 1903.5772,-139.3169 1894.1841,-137.0013"/>
<polygon fill="#191970" stroke="#191970" points="2535.803,-448.0389 2546.3833,-447.4827 2537.7655,-441.3196 2535.803,-448.0389"/>
</g>
<!-- Node19 -->
<g id="node4" class="node">
<title>Node19</title>
<g id="a_node4"><a xlink:href="$2Dpfold_8h.html" xlink:title="Partition function implementations for base pair distance classes.">
<polygon fill="none" stroke="#000000" points="1674.906,-118 1674.906,-137 1787.906,-137 1787.906,-118 1674.906,-118"/>
<text text-anchor="middle" x="1731.406" y="-125" font-family="Helvetica,sans-Serif" font-size="10.00" fill="#000000">ViennaRNA/2Dpfold.h</text>
</a>
</g>
</g>
<!-- Node17&#45;&gt;Node19 -->
<g id="edge3" class="edge">
<title>Node17&#45;&gt;Node19</title>
<path fill="none" stroke="#191970" d="M2500.3925,-447.5715C2337.2176,-427.9103 1990.406,-380.058 1990.406,-328.5 1990.406,-328.5 1990.406,-328.5 1990.406,-261.5 1990.406,-211.1895 1834.2948,-158.2299 1764.4716,-137.059"/>
<polygon fill="#191970" stroke="#191970" points="2500.0502,-451.0554 2510.3954,-448.7691 2500.8825,-444.105 2500.0502,-451.0554"/>
</g>
<!-- Node20 -->
<g id="node5" class="node">
<title>Node20</title>
<g id="a_node5"><a xlink:href="$alphabet_8h.html" xlink:title="Functions to process, convert, and generally handle different nucleotide and/or base pair alphabets.">
<polygon fill="none" stroke="#ff0000" points="2928.406,-386 2928.406,-405 3044.406,-405 3044.406,-386 2928.406,-386"/>
<text text-anchor="middle" x="2986.406" y="-393" font-family="Helvetica,sans-Serif" font-size="10.00" fill="#000000">ViennaRNA/alphabet.h</text>
</a>
</g>
</g>
<!-- Node17&#45;&gt;Node20 -->
<g id="edge4" class="edge">
<title>Node17&#45;&gt;Node20</title>
<path fill="none" stroke="#191970" d="M2666.7119,-447.1548C2733.808,-438.8092 2830.4489,-425.85 2914.406,-411 2924.2269,-409.2629 2934.7473,-407.1454 2944.6292,-405.0406"/>
<polygon fill="#191970" stroke="#191970" points="2666.1128,-443.7022 2656.6181,-448.4033 2666.9721,-450.6492 2666.1128,-443.7022"/>
</g>
<!-- Node22 -->
<g id="node6" class="node">
<title>Node22</title>
<g id="a_node6"><a xlink:href="$boltzmann__sampling_8h.html" xlink:title="Boltzmann Sampling of secondary structures from the ensemble.">
<polygon fill="none" stroke="#000000" points="2726.406,-112.5 2726.406,-142.5 2842.406,-142.5 2842.406,-112.5 2726.406,-112.5"/>
<text text-anchor="start" x="2734.406" y="-130.5" font-family="Helvetica,sans-Serif" font-size="10.00" fill="#000000">ViennaRNA/boltzmann</text>
<text text-anchor="middle" x="2784.406" y="-119.5" font-family="Helvetica,sans-Serif" font-size="10.00" fill="#000000">_sampling.h</text>
</a>
</g>
</g>
<!-- Node17&#45;&gt;Node22 -->
<g id="edge5" class="edge">
<title>Node17&#45;&gt;Node22</title>
<path fill="none" stroke="#191970" d="M2666.4082,-449.3125C2726.8821,-442.262 2802.411,-429.991 2827.406,-411 2913.4759,-345.605 2959.3266,-269.6251 2900.406,-179 2887.3746,-158.9565 2864.5522,-146.652 2842.5791,-139.127"/>
<polygon fill="#191970" stroke="#191970" points="2666.0012,-445.8362 2656.4597,-450.4418 2666.7907,-452.7915 2666.0012,-445.8362"/>
</g>
<!-- Node24 -->
<g id="node8" class="node">
<title>Node24</title>
<g id="a_node8"><a xlink:href="$part__func_8h.html" xlink:title="Partition function implementations.">
<polygon fill="none" stroke="#000000" points="634.406,-56.5 634.406,-75.5 754.406,-75.5 754.406,-56.5 634.406,-56.5"/>
<text text-anchor="middle" x="694.406" y="-63.5" font-family="Helvetica,sans-Serif" font-size="10.00" fill="#000000">ViennaRNA/part_func.h</text>
</a>
</g>
</g>
<!-- Node17&#45;&gt;Node24 -->
<g id="edge86" class="edge">
<title>Node17&#45;&gt;Node24</title>
<path fill="none" stroke="#191970" d="M2500.2566,-456.2135C2074.7755,-452.0961 158.8364,-432.3966 101.406,-411 47.7348,-391.0039 2.406,-385.7752 2.406,-328.5 2.406,-328.5 2.406,-328.5 2.406,-194.5 2.406,-156.8735 -7.218,-136.4217 21.406,-112 44.5422,-92.2604 473.3451,-74.2649 634.1618,-68.1826"/>
<polygon fill="#191970" stroke="#191970" points="2500.2939,-459.7139 2510.3273,-456.3107 2500.3615,-452.7143 2500.2939,-459.7139"/>
</g>
<!-- Node26 -->
<g id="node10" class="node">
<title>Node26</title>
<g id="a_node10"><a xlink:href="$centroid_8h.html" xlink:title="Centroid structure computation.">
<polygon fill="none" stroke="#000000" points="391.406,-185 391.406,-204 505.406,-204 505.406,-185 391.406,-185"/>
<text text-anchor="middle" x="448.406" y="-192" font-family="Helvetica,sans-Serif" font-size="10.00" fill="#000000">ViennaRNA/centroid.h</text>
</a>
</g>
</g>
<!-- Node17&#45;&gt;Node26 -->
<g id="edge10" class="edge">
<title>Node17&#45;&gt;Node26</title>
<path fill="none" stroke="#191970" d="M2500.0295,-454.8399C2288.8571,-449.117 1736.7814,-432.5167 1554.406,-411 1130.8092,-361.0238 626.6252,-239.1665 486.279,-204.0912"/>
<polygon fill="#191970" stroke="#191970" points="2500.0365,-458.3413 2510.1273,-455.1123 2500.2254,-451.3438 2500.0365,-458.3413"/>
</g>
<!-- Node27 -->
<g id="node11" class="node">
<title>Node27</title>
<g id="a_node11"><a xlink:href="$combinatorics_8h.html" xlink:title="Various implementations that deal with combinatorial aspects of objects.">
<polygon fill="none" stroke="#000000" points="3062.406,-386 3062.406,-405 3202.406,-405 3202.406,-386 3062.406,-386"/>
<text text-anchor="middle" x="3132.406" y="-393" font-family="Helvetica,sans-Serif" font-size="10.00" fill="#000000">ViennaRNA/combinatorics.h</text>
</a>
</g>
</g>
<!-- Node17&#45;&gt;Node27 -->
<g id="edge12" class="edge">
<title>Node17&#45;&gt;Node27</title>
<path fill="none" stroke="#191970" d="M2666.5719,-451.2901C2760.7343,-444.262 2918.5908,-430.7761 3053.406,-411 3064.6073,-409.3569 3076.6292,-407.2018 3087.831,-405.0232"/>
<polygon fill="#191970" stroke="#191970" points="2666.2512,-447.8042 2656.5367,-452.0327 2666.7678,-454.7851 2666.2512,-447.8042"/>
</g>
<!-- Node28 -->
<g id="node12" class="node">
<title>Node28</title>
<g id="a_node12"><a xlink:href="$commands_8h.html" xlink:title="Parse and apply different commands that alter the behavior of secondary structure prediction and eval...">
<polygon fill="none" stroke="#000000" points="3220.406,-386 3220.406,-405 3348.406,-405 3348.406,-386 3220.406,-386"/>
<text text-anchor="middle" x="3284.406" y="-393" font-family="Helvetica,sans-Serif" font-size="10.00" fill="#000000">ViennaRNA/commands.h</text>
</a>
</g>
</g>
<!-- Node17&#45;&gt;Node28 -->
<g id="edge13" class="edge">
<title>Node17&#45;&gt;Node28</title>
<path fill="none" stroke="#191970" d="M2667.0264,-454.4937C2787.7461,-450.0565 3017.6355,-438.5377 3211.406,-411 3222.1809,-409.4687 3233.7444,-407.2735 3244.4189,-405.015"/>
<polygon fill="#191970" stroke="#191970" points="2666.6203,-451.006 2656.7529,-454.8638 2666.8724,-458.0014 2666.6203,-451.006"/>
</g>
<!-- Node29 -->
<g id="node13" class="node">
<title>Node29</title>
<g id="a_node13"><a xlink:href="$dp__matrices_8h.html" xlink:title="Functions to deal with standard dynamic programming (DP) matrices.">
<polygon fill="none" stroke="#000000" points="1714.906,-319 1714.906,-338 1847.906,-338 1847.906,-319 1714.906,-319"/>
<text text-anchor="middle" x="1781.406" y="-326" font-family="Helvetica,sans-Serif" font-size="10.00" fill="#000000">ViennaRNA/dp_matrices.h</text>
</a>
</g>
</g>
<!-- Node17&#45;&gt;Node29 -->
<g id="edge14" class="edge">
<title>Node17&#45;&gt;Node29</title>
<path fill="none" stroke="#191970" d="M2500.105,-455.1472C2320.8934,-450.5737 1910.606,-437.1738 1853.406,-411 1818.1791,-394.8807 1790.0294,-356.1754 1782.1644,-338.1013"/>
<polygon fill="#191970" stroke="#191970" points="2500.1913,-458.6504 2510.2764,-455.4036 2500.3678,-451.6526 2500.1913,-458.6504"/>
</g>
<!-- Node17&#45;&gt;Node30 -->
<g id="edge115" class="edge">
<title>Node17&#45;&gt;Node30</title>
<path fill="none" stroke="#191970" d="M2500.0094,-454.2051C2315.1366,-447.6901 1882.1537,-430.5539 1818.406,-411 1762.5864,-393.878 1734.3055,-394.7327 1705.406,-344 1693.3005,-322.7491 1703.5435,-293.8602 1712.0159,-276.5102"/>
<polygon fill="#191970" stroke="#191970" points="2500.108,-457.7107 2510.2246,-454.5632 2500.3533,-450.715 2500.108,-457.7107"/>
</g>
<!-- Node35 -->
<g id="node19" class="node">
<title>Node35</title>
<g id="a_node19"><a xlink:href="$equilibrium__probs_8h.html" xlink:title="Equilibrium Probability implementations.">
<polygon fill="none" stroke="#000000" points="30.406,-112.5 30.406,-142.5 148.406,-142.5 148.406,-112.5 30.406,-112.5"/>
<text text-anchor="start" x="38.406" y="-130.5" font-family="Helvetica,sans-Serif" font-size="10.00" fill="#000000">ViennaRNA/equilibrium</text>
<text text-anchor="middle" x="89.406" y="-119.5" font-family="Helvetica,sans-Serif" font-size="10.00" fill="#000000">_probs.h</text>
</a>
</g>
</g>
<!-- Node17&#45;&gt;Node35 -->
<g id="edge79" class="edge">
<title>Node17&#45;&gt;Node35</title>
<path fill="none" stroke="#191970" d="M2500.1972,-456.2239C2081.7868,-452.2217 225.5623,-433.2407 170.406,-411 120.3837,-390.8295 81.406,-382.4359 81.406,-328.5 81.406,-328.5 81.406,-328.5 81.406,-261.5 81.406,-218.3852 85.5839,-167.6056 87.9013,-142.7553"/>
<polygon fill="#191970" stroke="#191970" points="2500.3668,-459.7256 2510.3997,-456.3213 2500.4336,-452.7259 2500.3668,-459.7256"/>
</g>
<!-- Node36 -->
<g id="node20" class="node">
<title>Node36</title>
<g id="a_node20"><a xlink:href="$eval_8h.html" xlink:title="Functions and variables related to energy evaluation of sequence/structure pairs.">
<polygon fill="none" stroke="#000000" points="2290.406,-118 2290.406,-137 2388.406,-137 2388.406,-118 2290.406,-118"/>
<text text-anchor="middle" x="2339.406" y="-125" font-family="Helvetica,sans-Serif" font-size="10.00" fill="#000000">ViennaRNA/eval.h</text>
</a>
</g>
</g>
<!-- Node17&#45;&gt;Node36 -->
<g id="edge80" class="edge">
<title>Node17&#45;&gt;Node36</title>
<path fill="none" stroke="#191970" d="M2666.6974,-456.3632C3028.3262,-453.427 4445.7638,-440.0789 4481.406,-411 4510.5605,-387.2141 4500.406,-366.1265 4500.406,-328.5 4500.406,-328.5 4500.406,-328.5 4500.406,-261.5 4500.406,-153.5768 2669.0987,-150.0502 2561.406,-143 2502.0344,-139.1132 2433.7575,-134.2936 2388.7747,-131.07"/>
<polygon fill="#191970" stroke="#191970" points="2666.5346,-452.8643 2656.5632,-456.445 2666.5912,-459.8641 2666.5346,-452.8643"/>
</g>
<!-- Node40 -->
<g id="node23" class="node">
<title>Node40</title>
<g id="a_node23"><a xlink:href="$gquad_8h.html" xlink:title="G&#45;quadruplexes.">
<polygon fill="none" stroke="#000000" points="204.406,-118 204.406,-137 310.406,-137 310.406,-118 204.406,-118"/>
<text text-anchor="middle" x="257.406" y="-125" font-family="Helvetica,sans-Serif" font-size="10.00" fill="#000000">ViennaRNA/gquad.h</text>
</a>
</g>
</g>
<!-- Node17&#45;&gt;Node40 -->
<g id="edge81" class="edge">
<title>Node17&#45;&gt;Node40</title>
<path fill="none" stroke="#191970" d="M2499.9018,-455.6256C2081.254,-448.7052 230.3286,-417.7395 217.406,-411 177.2063,-390.0348 157.406,-373.8382 157.406,-328.5 157.406,-328.5 157.406,-328.5 157.406,-261.5 157.406,-221.4944 169.121,-210.7913 193.406,-179 206.8251,-161.4332 227.4564,-146.2592 241.6471,-137.0203"/>
<polygon fill="#191970" stroke="#191970" points="2500.0549,-459.1286 2510.1114,-455.7943 2500.1706,-452.1295 2500.0549,-459.1286"/>
</g>
<!-- Node43 -->
<g id="node26" class="node">
<title>Node43</title>
<g id="a_node26"><a xlink:href="$mfe_8h.html" xlink:title="Compute Minimum Free energy (MFE) and backtrace corresponding secondary structures from RNA sequence ...">
<polygon fill="none" stroke="#000000" points="2603.406,-185 2603.406,-204 2699.406,-204 2699.406,-185 2603.406,-185"/>
<text text-anchor="middle" x="2651.406" y="-192" font-family="Helvetica,sans-Serif" font-size="10.00" fill="#000000">ViennaRNA/mfe.h</text>
</a>
</g>
</g>
<!-- Node17&#45;&gt;Node43 -->
<g id="edge83" class="edge">
<title>Node17&#45;&gt;Node43</title>
<path fill="none" stroke="#191970" d="M2656.81,-445.4613C2695.3132,-437.7503 2736.8497,-426.2188 2748.406,-411 2801.709,-340.8041 2698.1133,-236.6786 2662.6862,-204.4019"/>
<polygon fill="#191970" stroke="#191970" points="2655.7385,-442.1035 2646.584,-447.4368 2657.0664,-448.9764 2655.7385,-442.1035"/>
</g>
<!-- Node45 -->
<g id="node28" class="node">
<title>Node45</title>
<g id="a_node28"><a xlink:href="$part__func__window_8h.html" xlink:title="Partition function and equilibrium probability implementation for the sliding window algorithm.">
<polygon fill="none" stroke="#000000" points="223.406,-179.5 223.406,-209.5 335.406,-209.5 335.406,-179.5 223.406,-179.5"/>
<text text-anchor="start" x="231.406" y="-197.5" font-family="Helvetica,sans-Serif" font-size="10.00" fill="#000000">ViennaRNA/part_func</text>
<text text-anchor="middle" x="279.406" y="-186.5" font-family="Helvetica,sans-Serif" font-size="10.00" fill="#000000">_window.h</text>
</a>
</g>
</g>
<!-- Node17&#45;&gt;Node45 -->
<g id="edge87" class="edge">
<title>Node17&#45;&gt;Node45</title>
<path fill="none" stroke="#191970" d="M2499.9557,-455.6055C2095.7631,-448.8122 360.4077,-419.1799 349.406,-411 283.6273,-362.0929 278.493,-250.2313 278.9085,-209.6016"/>
<polygon fill="#191970" stroke="#191970" points="2500.0504,-459.1075 2510.1078,-455.7761 2500.1681,-452.1085 2500.0504,-459.1075"/>
</g>
<!-- Node51 -->
<g id="node30" class="node">
<title>Node51</title>
<g id="a_node30"><a xlink:href="$subopt_8h.html" xlink:title="RNAsubopt and density of states declarations.">
<polygon fill="none" stroke="#000000" points="328.906,-118 328.906,-137 437.906,-137 437.906,-118 328.906,-118"/>
<text text-anchor="middle" x="383.406" y="-125" font-family="Helvetica,sans-Serif" font-size="10.00" fill="#000000">ViennaRNA/subopt.h</text>
</a>
</g>
</g>
<!-- Node17&#45;&gt;Node51 -->
<g id="edge91" class="edge">
<title>Node17&#45;&gt;Node51</title>
<path fill="none" stroke="#191970" d="M2500.0906,-455.6241C2094.4903,-448.8871 344.932,-419.3673 318.406,-411 255.6304,-391.1982 195.406,-394.3247 195.406,-328.5 195.406,-328.5 195.406,-328.5 195.406,-261.5 195.406,-223.8735 188.7396,-206.5135 214.406,-179 223.4812,-169.2717 297.881,-149.0746 344.8915,-137.0673"/>
<polygon fill="#191970" stroke="#191970" points="2500.2195,-459.1266 2510.2763,-455.7931 2500.3358,-452.1276 2500.2195,-459.1266"/>
</g>
<!-- Node52 -->
<g id="node31" class="node">
<title>Node52</title>
<g id="a_node31"><a xlink:href="$unstructured__domains_8h.html" xlink:title="Functions to modify unstructured domains, e.g. to incorporate ligands binding to unpaired stretches.">
<polygon fill="none" stroke="#000000" points="2246.906,-179.5 2246.906,-209.5 2371.906,-209.5 2371.906,-179.5 2246.906,-179.5"/>
<text text-anchor="start" x="2254.906" y="-197.5" font-family="Helvetica,sans-Serif" font-size="10.00" fill="#000000">ViennaRNA/unstructured</text>
<text text-anchor="middle" x="2309.406" y="-186.5" font-family="Helvetica,sans-Serif" font-size="10.00" fill="#000000">_domains.h</text>
</a>
</g>
</g>
<!-- Node17&#45;&gt;Node52 -->
<g id="edge92" class="edge">
<title>Node17&#45;&gt;Node52</title>
<path fill="none" stroke="#191970" d="M2545.4417,-443.2241C2528.1766,-435.0471 2508.2779,-423.7895 2492.406,-411 2412.6041,-346.6958 2338.0646,-247.3968 2315.6298,-209.7098"/>
<polygon fill="#191970" stroke="#191970" points="2544.168,-446.4897 2554.7201,-447.4401 2547.0638,-440.1167 2544.168,-446.4897"/>
</g>
<!-- Node53 -->
<g id="node32" class="node">
<title>Node53</title>
<g id="a_node32"><a xlink:href="$params_2basic_8h.html" xlink:title="Functions to deal with sets of energy parameters.">
<polygon fill="none" stroke="#ff0000" points="713.406,-185 713.406,-204 851.406,-204 851.406,-185 713.406,-185"/>
<text text-anchor="middle" x="782.406" y="-192" font-family="Helvetica,sans-Serif" font-size="10.00" fill="#000000">ViennaRNA/params/basic.h</text>
</a>
</g>
</g>
<!-- Node17&#45;&gt;Node53 -->
<g id="edge93" class="edge">
<title>Node17&#45;&gt;Node53</title>
<path fill="none" stroke="#191970" d="M2500.0927,-454.505C2314.2949,-448.4697 1871.1252,-432.0168 1723.406,-411 1403.0999,-365.4283 1330.1688,-316.4746 1014.406,-246 946.55,-230.8553 867.7338,-214.1865 821.5147,-204.0307"/>
<polygon fill="#191970" stroke="#191970" points="2500.243,-458.0115 2510.3507,-454.836 2500.4689,-451.0152 2500.243,-458.0115"/>
</g>
<!-- Node56 -->
<g id="node33" class="node">
<title>Node56</title>
<g id="a_node33"><a xlink:href="$external_8h.html" xlink:title="Energy evaluation of exterior loops for MFE and partition function calculations.">
<polygon fill="none" stroke="#ff0000" points="2094.406,-118 2094.406,-137 2234.406,-137 2234.406,-118 2094.406,-118"/>
<text text-anchor="middle" x="2164.406" y="-125" font-family="Helvetica,sans-Serif" font-size="10.00" fill="#000000">ViennaRNA/loops/external.h</text>
</a>
</g>
</g>
<!-- Node17&#45;&gt;Node56 -->
<g id="edge94" class="edge">
<title>Node17&#45;&gt;Node56</title>
<path fill="none" stroke="#191970" d="M2577.3066,-437.8839C2570.5199,-415.6097 2559.9164,-377.5681 2555.406,-344 2545.6374,-271.2985 2600.3989,-233.5952 2551.406,-179 2551.2411,-178.8162 2345.922,-151.5674 2234.4523,-136.7856"/>
<polygon fill="#191970" stroke="#191970" points="2573.9744,-438.9553 2580.2883,-447.4633 2580.6581,-436.8749 2573.9744,-438.9553"/>
</g>
<!-- Node60 -->
<g id="node34" class="node">
<title>Node60</title>
<g id="a_node34"><a xlink:href="$hairpin_8h.html" xlink:title="Energy evaluation of hairpin loops for MFE and partition function calculations.">
<polygon fill="none" stroke="#ff0000" points="582.406,-118 582.406,-137 716.406,-137 716.406,-118 582.406,-118"/>
<text text-anchor="middle" x="649.406" y="-125" font-family="Helvetica,sans-Serif" font-size="10.00" fill="#000000">ViennaRNA/loops/hairpin.h</text>
</a>
</g>
</g>
<!-- Node17&#45;&gt;Node60 -->
<g id="edge95" class="edge">
<title>Node17&#45;&gt;Node60</title>
<path fill="none" stroke="#191970" d="M2500.0605,-455.3345C2298.8499,-451.0096 1770.6157,-437.843 1330.406,-411 1222.7712,-404.4367 363.406,-436.3348 363.406,-328.5 363.406,-328.5 363.406,-328.5 363.406,-261.5 363.406,-223.8735 355.2725,-205.0677 382.406,-179 444.6996,-119.1532 488.6386,-159.6316 573.406,-143 583.0523,-141.1074 593.3771,-139.0338 603.209,-137.0363"/>
<polygon fill="#191970" stroke="#191970" points="2500.1846,-458.8378 2510.2571,-455.5521 2500.334,-451.8394 2500.1846,-458.8378"/>
</g>
<!-- Node62 -->
<g id="node35" class="node">
<title>Node62</title>
<g id="a_node35"><a xlink:href="$internal_8h.html" xlink:title="Energy evaluation of interior loops for MFE and partition function calculations.">
<polygon fill="none" stroke="#ff0000" points="2570.906,-118 2570.906,-137 2707.906,-137 2707.906,-118 2570.906,-118"/>
<text text-anchor="middle" x="2639.406" y="-125" font-family="Helvetica,sans-Serif" font-size="10.00" fill="#000000">ViennaRNA/loops/internal.h</text>
</a>
</g>
</g>
<!-- Node17&#45;&gt;Node62 -->
<g id="edge96" class="edge">
<title>Node17&#45;&gt;Node62</title>
<path fill="none" stroke="#191970" d="M2666.7906,-447.508C2719.8428,-439.9932 2782.3853,-427.9279 2803.406,-411 2825.2787,-393.3859 2875.5495,-253.5291 2883.406,-210 2885.8532,-196.4413 2892.0843,-189.7012 2883.406,-179 2881.8401,-177.0691 2756.8136,-151.3774 2686.3668,-137.0294"/>
<polygon fill="#191970" stroke="#191970" points="2666.0931,-444.071 2656.6651,-448.9044 2667.0495,-451.0054 2666.0931,-444.071"/>
</g>
<!-- Node64 -->
<g id="node36" class="node">
<title>Node64</title>
<g id="a_node36"><a xlink:href="$multibranch_8h.html" xlink:title="Energy evaluation of multibranch loops for MFE and partition function calculations.">
<polygon fill="none" stroke="#ff0000" points="1500.406,-118 1500.406,-137 1656.406,-137 1656.406,-118 1500.406,-118"/>
<text text-anchor="middle" x="1578.406" y="-125" font-family="Helvetica,sans-Serif" font-size="10.00" fill="#000000">ViennaRNA/loops/multibranch.h</text>
</a>
</g>
</g>
<!-- Node17&#45;&gt;Node64 -->
<g id="edge97" class="edge">
<title>Node17&#45;&gt;Node64</title>
<path fill="none" stroke="#191970" d="M2500.0495,-451.6638C2382.5277,-443.6945 2174.2254,-427.8115 2100.406,-411 1996.9615,-387.4417 1876.406,-434.5931 1876.406,-328.5 1876.406,-328.5 1876.406,-328.5 1876.406,-261.5 1876.406,-220.7508 1868.6429,-203.9255 1836.406,-179 1832.2845,-175.8132 1702.9204,-150.9971 1628.9768,-137.0099"/>
<polygon fill="#191970" stroke="#191970" points="2499.8756,-455.1599 2510.0883,-452.3402 2500.3463,-448.1757 2499.8756,-455.1599"/>
</g>
<!-- Node66 -->
<g id="node37" class="node">
<title>Node66</title>
<g id="a_node37"><a xlink:href="$ligand_8h.html" xlink:title="Functions for incorporation of ligands binding to hairpin and interior loop motifs using the soft con...">
<polygon fill="none" stroke="#ff0000" points="2389.906,-179.5 2389.906,-209.5 2508.906,-209.5 2508.906,-179.5 2389.906,-179.5"/>
<text text-anchor="start" x="2397.906" y="-197.5" font-family="Helvetica,sans-Serif" font-size="10.00" fill="#000000">ViennaRNA/constraints</text>
<text text-anchor="middle" x="2449.406" y="-186.5" font-family="Helvetica,sans-Serif" font-size="10.00" fill="#000000">/ligand.h</text>
</a>
</g>
</g>
<!-- Node17&#45;&gt;Node66 -->
<g id="edge105" class="edge">
<title>Node17&#45;&gt;Node66</title>
<path fill="none" stroke="#191970" d="M2556.328,-442.0462C2544.3825,-434.214 2531.1088,-423.6154 2522.406,-411 2479.0377,-348.1344 2501.8466,-317.2734 2474.406,-246 2469.5495,-233.3859 2462.7974,-219.6396 2457.5344,-209.5241"/>
<polygon fill="#191970" stroke="#191970" points="2554.7619,-445.1932 2565.1061,-447.484 2558.4482,-439.2425 2554.7619,-445.1932"/>
</g>
<!-- Node69 -->
<g id="node38" class="node">
<title>Node69</title>
<g id="a_node38"><a xlink:href="$soft_8h.html" xlink:title="Functions and data structures for secondary structure soft constraints.">
<polygon fill="none" stroke="#ff0000" points="2755.906,-179.5 2755.906,-209.5 2874.906,-209.5 2874.906,-179.5 2755.906,-179.5"/>
<text text-anchor="start" x="2763.906" y="-197.5" font-family="Helvetica,sans-Serif" font-size="10.00" fill="#000000">ViennaRNA/constraints</text>
<text text-anchor="middle" x="2815.406" y="-186.5" font-family="Helvetica,sans-Serif" font-size="10.00" fill="#000000">/soft.h</text>
</a>
</g>
</g>
<!-- Node17&#45;&gt;Node69 -->
<g id="edge107" class="edge">
<title>Node17&#45;&gt;Node69</title>
<path fill="none" stroke="#191970" d="M2656.3103,-445.6809C2698.2678,-438.0065 2745.4707,-426.4378 2760.406,-411 2815.445,-354.109 2811.6916,-248.5885 2812.8154,-209.5397"/>
<polygon fill="#191970" stroke="#191970" points="2655.5737,-442.2569 2646.3398,-447.4516 2656.7977,-449.149 2655.5737,-442.2569"/>
</g>
<!-- Node86 -->
<g id="node39" class="node">
<title>Node86</title>
<g id="a_node39"><a xlink:href="$mfe__window_8h.html" xlink:title="Compute local Minimum Free Energy (MFE) using a sliding window approach and backtrace corresponding s...">
<polygon fill="none" stroke="#ff0000" points="3366.406,-386 3366.406,-405 3500.406,-405 3500.406,-386 3366.406,-386"/>
<text text-anchor="middle" x="3433.406" y="-393" font-family="Helvetica,sans-Serif" font-size="10.00" fill="#000000">ViennaRNA/mfe_window.h</text>
</a>
</g>
</g>
<!-- Node17&#45;&gt;Node86 -->
<g id="edge84" class="edge">
<title>Node17&#45;&gt;Node86</title>
<path fill="none" stroke="#191970" d="M2666.9503,-455.9113C2809.2588,-453.1919 3107.5601,-443.7341 3357.406,-411 3368.7552,-409.5131 3380.9464,-407.3048 3392.1693,-405.018"/>
<polygon fill="#191970" stroke="#191970" points="2666.4964,-452.419 2656.5628,-456.103 2666.6257,-459.4178 2666.4964,-452.419"/>
</g>
<!-- Node88 -->
<g id="node40" class="node">
<title>Node88</title>
<g id="a_node40"><a xlink:href="$mm_8h.html" xlink:title="Several Maximum Matching implementations.">
<polygon fill="none" stroke="#000000" points="3518.406,-386 3518.406,-405 3614.406,-405 3614.406,-386 3518.406,-386"/>
<text text-anchor="middle" x="3566.406" y="-393" font-family="Helvetica,sans-Serif" font-size="10.00" fill="#000000">ViennaRNA/mm.h</text>
</a>
</g>
</g>
<!-- Node17&#45;&gt;Node88 -->
<g id="edge85" class="edge">
<title>Node17&#45;&gt;Node88</title>
<path fill="none" stroke="#191970" d="M2666.7361,-455.1636C2862.7201,-450.4719 3348.4496,-436.5743 3509.406,-411 3518.2175,-409.5999 3527.6231,-407.3613 3536.2013,-405.0158"/>
<polygon fill="#191970" stroke="#191970" points="2666.412,-451.6702 2656.4979,-455.4066 2666.5782,-458.6682 2666.412,-451.6702"/>
</g>
<!-- Node89 -->
<g id="node41" class="node">
<title>Node89</title>
<g id="a_node41"><a xlink:href="$perturbation__fold_8h.html" xlink:title="Find a vector of perturbation energies that minimizes the discripancies between predicted and observe...">
<polygon fill="none" stroke="#000000" points="3632.406,-380.5 3632.406,-410.5 3754.406,-410.5 3754.406,-380.5 3632.406,-380.5"/>
<text text-anchor="start" x="3640.406" y="-398.5" font-family="Helvetica,sans-Serif" font-size="10.00" fill="#000000">ViennaRNA/perturbation</text>
<text text-anchor="middle" x="3693.406" y="-387.5" font-family="Helvetica,sans-Serif" font-size="10.00" fill="#000000">_fold.h</text>
</a>
</g>
</g>
<!-- Node17&#45;&gt;Node89 -->
<g id="edge88" class="edge">
<title>Node17&#45;&gt;Node89</title>
<path fill="none" stroke="#191970" d="M2666.9453,-455.1788C2879.8916,-450.2353 3439.1778,-435.2836 3623.406,-411 3626.2443,-410.6259 3629.1376,-410.1939 3632.0532,-409.7174"/>
<polygon fill="#191970" stroke="#191970" points="2666.6814,-451.6838 2656.7648,-455.4136 2666.8429,-458.682 2666.6814,-451.6838"/>
</g>
<!-- Node90 -->
<g id="node42" class="node">
<title>Node90</title>
<g id="a_node42"><a xlink:href="$sequence_8h.html" xlink:title="Functions and data structures related to sequence representations ,.">
<polygon fill="none" stroke="#000000" points="3772.406,-386 3772.406,-405 3894.406,-405 3894.406,-386 3772.406,-386"/>
<text text-anchor="middle" x="3833.406" y="-393" font-family="Helvetica,sans-Serif" font-size="10.00" fill="#000000">ViennaRNA/sequence.h</text>
</a>
</g>
</g>
<!-- Node17&#45;&gt;Node90 -->
<g id="edge89" class="edge">
<title>Node17&#45;&gt;Node90</title>
<path fill="none" stroke="#191970" d="M2666.5394,-455.6228C2897.4541,-451.581 3543.1624,-438.2819 3754.406,-411 3765.1458,-409.613 3776.6705,-407.3785 3787.5594,-405.0328"/>
<polygon fill="#191970" stroke="#191970" points="2666.4564,-452.1236 2656.5188,-455.7969 2666.5781,-459.1225 2666.4564,-452.1236"/>
</g>
<!-- Node91 -->
<g id="node43" class="node">
<title>Node91</title>
<g id="a_node43"><a xlink:href="$constraints_2basic_8h.html" xlink:title="Functions and data structures for constraining secondary structure predictions and evaluation.">
<polygon fill="none" stroke="#ff0000" points="2620.906,-380.5 2620.906,-410.5 2739.906,-410.5 2739.906,-380.5 2620.906,-380.5"/>
<text text-anchor="start" x="2628.906" y="-398.5" font-family="Helvetica,sans-Serif" font-size="10.00" fill="#000000">ViennaRNA/constraints</text>
<text text-anchor="middle" x="2680.406" y="-387.5" font-family="Helvetica,sans-Serif" font-size="10.00" fill="#000000">/basic.h</text>
</a>
</g>
</g>
<!-- Node17&#45;&gt;Node91 -->
<g id="edge98" class="edge">
<title>Node17&#45;&gt;Node91</title>
<path fill="none" stroke="#191970" d="M2607.2941,-441.8545C2622.3333,-432.3193 2641.6684,-420.0605 2656.6771,-410.5446"/>
<polygon fill="#191970" stroke="#191970" points="2605.1337,-439.08 2598.5623,-447.3906 2608.882,-444.9919 2605.1337,-439.08"/>
</g>
<!-- Node92 -->
<g id="node44" class="node">
<title>Node92</title>
<g id="a_node44"><a xlink:href="$hard_8h.html" xlink:title="Functions and data structures for handling of secondary structure hard constraints.">
<polygon fill="none" stroke="#ff0000" points="2564.906,-313.5 2564.906,-343.5 2683.906,-343.5 2683.906,-313.5 2564.906,-313.5"/>
<text text-anchor="start" x="2572.906" y="-331.5" font-family="Helvetica,sans-Serif" font-size="10.00" fill="#000000">ViennaRNA/constraints</text>
<text text-anchor="middle" x="2624.406" y="-320.5" font-family="Helvetica,sans-Serif" font-size="10.00" fill="#000000">/hard.h</text>
</a>
</g>
</g>
<!-- Node17&#45;&gt;Node92 -->
<g id="edge104" class="edge">
<title>Node17&#45;&gt;Node92</title>
<path fill="none" stroke="#191970" d="M2584.671,-437.2718C2590.4436,-411.5195 2604.8098,-366.9952 2615.0063,-343.7016"/>
<polygon fill="#191970" stroke="#191970" points="2581.1861,-436.8576 2582.7143,-447.3416 2588.0576,-438.1929 2581.1861,-436.8576"/>
</g>
<!-- Node94 -->
<g id="node45" class="node">
<title>Node94</title>
<g id="a_node45"><a xlink:href="$SHAPE_8h.html" xlink:title="This module provides function to incorporate SHAPE reactivity data into the folding recursions by mea...">
<polygon fill="none" stroke="#ff0000" points="3912.906,-380.5 3912.906,-410.5 4031.906,-410.5 4031.906,-380.5 3912.906,-380.5"/>
<text text-anchor="start" x="3920.906" y="-398.5" font-family="Helvetica,sans-Serif" font-size="10.00" fill="#000000">ViennaRNA/constraints</text>
<text text-anchor="middle" x="3972.406" y="-387.5" font-family="Helvetica,sans-Serif" font-size="10.00" fill="#000000">/SHAPE.h</text>
</a>
</g>
</g>
<!-- Node17&#45;&gt;Node94 -->
<g id="edge106" class="edge">
<title>Node17&#45;&gt;Node94</title>
<path fill="none" stroke="#191970" d="M2666.7151,-456.1252C2917.47,-453.1712 3662.6791,-441.9585 3903.406,-411 3906.4504,-410.6085 3909.5581,-410.1456 3912.6879,-409.6291"/>
<polygon fill="#191970" stroke="#191970" points="2666.5339,-452.627 2656.5754,-456.2433 2666.6155,-459.6265 2666.5339,-452.627"/>
</g>
<!-- Node96 -->
<g id="node46" class="node">
<title>Node96</title>
<g id="a_node46"><a xlink:href="$landscape_2findpath_8h.html" xlink:title="A breadth&#45;first search heuristic for optimal direct folding paths.">
<polygon fill="none" stroke="#ff0000" points="4045.406,-313.5 4045.406,-343.5 4161.406,-343.5 4161.406,-313.5 4045.406,-313.5"/>
<text text-anchor="start" x="4053.406" y="-331.5" font-family="Helvetica,sans-Serif" font-size="10.00" fill="#000000">ViennaRNA/landscape</text>
<text text-anchor="middle" x="4103.406" y="-320.5" font-family="Helvetica,sans-Serif" font-size="10.00" fill="#000000">/findpath.h</text>
</a>
</g>
</g>
<!-- Node17&#45;&gt;Node96 -->
<g id="edge108" class="edge">
<title>Node17&#45;&gt;Node96</title>
<path fill="none" stroke="#191970" d="M2666.9882,-456.3379C2967.5722,-453.701 3979.1385,-442.5154 4040.406,-411 4068.4509,-396.574 4087.5931,-363.3188 4096.8988,-343.7187"/>
<polygon fill="#191970" stroke="#191970" points="2666.5674,-452.8413 2656.5982,-456.4281 2666.6282,-459.8411 2666.5674,-452.8413"/>
</g>
<!-- Node98 -->
<g id="node47" class="node">
<title>Node98</title>
<g id="a_node47"><a xlink:href="$landscape_2neighbor_8h.html" xlink:title="Methods to compute the neighbors of an RNA secondary structure.">
<polygon fill="none" stroke="#ff0000" points="4222.406,-380.5 4222.406,-410.5 4338.406,-410.5 4338.406,-380.5 4222.406,-380.5"/>
<text text-anchor="start" x="4230.406" y="-398.5" font-family="Helvetica,sans-Serif" font-size="10.00" fill="#000000">ViennaRNA/landscape</text>
<text text-anchor="middle" x="4280.406" y="-387.5" font-family="Helvetica,sans-Serif" font-size="10.00" fill="#000000">/neighbor.h</text>
</a>
</g>
</g>
<!-- Node17&#45;&gt;Node98 -->
<g id="edge109" class="edge">
<title>Node17&#45;&gt;Node98</title>
<path fill="none" stroke="#191970" d="M2666.8139,-455.6203C2977.8007,-450.3424 4059.7944,-430.7358 4213.406,-411 4216.248,-410.6349 4219.1461,-410.202 4222.0646,-409.7172"/>
<polygon fill="#191970" stroke="#191970" points="2666.4575,-452.1258 2656.5182,-455.7946 2666.5761,-459.1248 2666.4575,-452.1258"/>
</g>
<!-- Node101 -->
<g id="node48" class="node">
<title>Node101</title>
<g id="a_node48"><a xlink:href="$paths_8h.html" xlink:title="API for computing (optimal) (re&#45;)folding paths between secondary structures.">
<polygon fill="none" stroke="#000000" points="4088.406,-380.5 4088.406,-410.5 4204.406,-410.5 4204.406,-380.5 4088.406,-380.5"/>
<text text-anchor="start" x="4096.406" y="-398.5" font-family="Helvetica,sans-Serif" font-size="10.00" fill="#000000">ViennaRNA/landscape</text>
<text text-anchor="middle" x="4146.406" y="-387.5" font-family="Helvetica,sans-Serif" font-size="10.00" fill="#000000">/paths.h</text>
</a>
</g>
</g>
<!-- Node17&#45;&gt;Node101 -->
<g id="edge110" class="edge">
<title>Node17&#45;&gt;Node101</title>
<path fill="none" stroke="#191970" d="M2667.0142,-456.414C2939.2985,-454.1924 3798.8675,-444.6274 4074.406,-411 4078.9752,-410.4424 4083.6831,-409.735 4088.4004,-408.9312"/>
<polygon fill="#191970" stroke="#191970" points="2666.776,-452.9157 2656.8045,-456.4961 2666.8323,-459.9155 2666.776,-452.9157"/>
</g>
<!-- Node102 -->
<g id="node49" class="node">
<title>Node102</title>
<g id="a_node49"><a xlink:href="$landscape_2walk_8h.html" xlink:title="Methods to generate particular paths such as gradient or random walks through the energy landscape of...">
<polygon fill="none" stroke="#ff0000" points="4356.406,-380.5 4356.406,-410.5 4472.406,-410.5 4472.406,-380.5 4356.406,-380.5"/>
<text text-anchor="start" x="4364.406" y="-398.5" font-family="Helvetica,sans-Serif" font-size="10.00" fill="#000000">ViennaRNA/landscape</text>
<text text-anchor="middle" x="4414.406" y="-387.5" font-family="Helvetica,sans-Serif" font-size="10.00" fill="#000000">/walk.h</text>
</a>
</g>
</g>
<!-- Node17&#45;&gt;Node102 -->
<g id="edge112" class="edge">
<title>Node17&#45;&gt;Node102</title>
<path fill="none" stroke="#191970" d="M2667.0086,-455.8094C2994.4608,-451.0108 4180.0376,-432.3211 4347.406,-411 4350.2484,-410.6379 4353.1468,-410.2075 4356.0656,-409.7247"/>
<polygon fill="#191970" stroke="#191970" points="2666.5951,-452.315 2656.6473,-455.9608 2666.6974,-459.3142 2666.5951,-452.315"/>
</g>
<!-- Node103 -->
<g id="node50" class="node">
<title>Node103</title>
<g id="a_node50"><a xlink:href="$utils_2alignments_8h.html" xlink:title="Various utility&#45; and helper&#45;functions for sequence alignments and comparative structure prediction.">
<polygon fill="none" stroke="#ff0000" points="4528.406,-252 4528.406,-271 4676.406,-271 4676.406,-252 4528.406,-252"/>
<text text-anchor="middle" x="4602.406" y="-259" font-family="Helvetica,sans-Serif" font-size="10.00" fill="#000000">ViennaRNA/utils/alignments.h</text>
</a>
</g>
</g>
<!-- Node17&#45;&gt;Node103 -->
<g id="edge113" class="edge">
<title>Node17&#45;&gt;Node103</title>
<path fill="none" stroke="#191970" d="M2666.7282,-456.1137C3031.8245,-452.0936 4474.0137,-434.737 4514.406,-411 4568.9342,-378.9558 4593.2184,-298.8837 4600.1849,-271.1424"/>
<polygon fill="#191970" stroke="#191970" points="2666.461,-452.6163 2656.5,-456.2259 2666.5378,-459.6159 2666.461,-452.6163"/>
</g>
<!-- Node23 -->
<g id="node7" class="node">
<title>Node23</title>
<g id="a_node7"><a xlink:href="$alifold_8h.html" xlink:title="Functions for comparative structure prediction using RNA sequence alignments.">
<polygon fill="none" stroke="#000000" points="2240.906,-.5 2240.906,-19.5 2345.906,-19.5 2345.906,-.5 2240.906,-.5"/>
<text text-anchor="middle" x="2293.406" y="-7.5" font-family="Helvetica,sans-Serif" font-size="10.00" fill="#000000">ViennaRNA/alifold.h</text>
</a>
</g>
</g>
<!-- Node22&#45;&gt;Node23 -->
<g id="edge6" class="edge">
<title>Node22&#45;&gt;Node23</title>
<path fill="none" stroke="#191970" d="M2726.6092,-109.3693C2676.1877,-93.9375 2600.8991,-71.8205 2534.406,-56 2470.1758,-40.7179 2395.3756,-27.0782 2346.3513,-18.6944"/>
<polygon fill="#191970" stroke="#191970" points="2725.765,-112.7714 2736.352,-112.3627 2727.8209,-106.0801 2725.765,-112.7714"/>
</g>
<!-- Node22&#45;&gt;Node24 -->
<g id="edge7" class="edge">
<title>Node22&#45;&gt;Node24</title>
<path fill="none" stroke="#191970" d="M2716.7104,-112.038C2716.6088,-112.0252 2716.5074,-112.0126 2716.406,-112 2517.7831,-87.3589 1069.0808,-70.122 754.5533,-66.6462"/>
<polygon fill="#191970" stroke="#191970" points="2715.9015,-115.4567 2726.304,-113.4471 2716.9188,-108.531 2715.9015,-115.4567"/>
</g>
<!-- Node24&#45;&gt;Node23 -->
<g id="edge8" class="edge">
<title>Node24&#45;&gt;Node23</title>
<path fill="none" stroke="#191970" d="M764.4969,-59.1114C778.3744,-57.9255 792.8422,-56.8146 806.406,-56 1367.1616,-22.3214 2048.441,-12.6657 2240.6743,-10.5231"/>
<polygon fill="#191970" stroke="#191970" points="764.1743,-55.6262 754.5177,-59.985 764.7848,-62.5995 764.1743,-55.6262"/>
</g>
<!-- Node25 -->
<g id="node9" class="node">
<title>Node25</title>
<g id="a_node9"><a xlink:href="$part__func__co_8h.html" xlink:title="Partition function for two RNA sequences.">
<polygon fill="none" stroke="#000000" points="670.406,-.5 670.406,-19.5 806.406,-19.5 806.406,-.5 670.406,-.5"/>
<text text-anchor="middle" x="738.406" y="-7.5" font-family="Helvetica,sans-Serif" font-size="10.00" fill="#000000">ViennaRNA/part_func_co.h</text>
</a>
</g>
</g>
<!-- Node24&#45;&gt;Node25 -->
<g id="edge9" class="edge">
<title>Node24&#45;&gt;Node25</title>
<path fill="none" stroke="#191970" d="M708.3829,-48.2112C715.8189,-38.7472 724.672,-27.4797 730.8296,-19.6427"/>
<polygon fill="#191970" stroke="#191970" points="705.4964,-46.22 702.0702,-56.2455 711.0006,-50.5447 705.4964,-46.22"/>
</g>
<!-- Node26&#45;&gt;Node24 -->
<g id="edge11" class="edge">
<title>Node26&#45;&gt;Node24</title>
<path fill="none" stroke="#191970" d="M382.4363,-183.1965C309.4935,-170.3831 201.3901,-150.3249 195.406,-143 186.6893,-132.3302 186.1216,-122.1797 195.406,-112 224.4627,-80.1416 507.7744,-70.0394 634.118,-67.1028"/>
<polygon fill="#191970" stroke="#191970" points="382.0275,-186.6781 392.4812,-184.9544 383.2342,-179.7829 382.0275,-186.6781"/>
</g>
<!-- Node29&#45;&gt;Node17 -->
<g id="edge15" class="edge">
<title>Node29&#45;&gt;Node17</title>
<path fill="none" stroke="#191970" d="M1799.0907,-346.0268C1815.4044,-365.7788 1840.7201,-396.9586 1871.406,-411 1928.6828,-437.209 2339.9955,-450.6096 2510.1292,-455.1656"/>
<polygon fill="#191970" stroke="#191970" points="1801.5561,-343.5195 1792.4514,-338.1013 1796.1901,-348.0146 1801.5561,-343.5195"/>
</g>
<!-- Node29&#45;&gt;Node30 -->
<g id="edge16" class="edge">
<title>Node29&#45;&gt;Node30</title>
<path fill="none" stroke="#191970" d="M1760.4635,-311.9892C1749.4113,-301.1395 1736.6467,-287.0566 1728.3438,-276.5218"/>
<polygon fill="#191970" stroke="#191970" points="1758.0969,-314.5684 1767.7656,-318.9005 1762.9088,-309.4844 1758.0969,-314.5684"/>
</g>
<!-- Node30&#45;&gt;Node18 -->
<g id="edge17" class="edge">
<title>Node30&#45;&gt;Node18</title>
<path fill="none" stroke="#191970" d="M1797.0878,-243.7396C1828.7387,-234.7152 1860.1953,-222.929 1869.406,-210 1885.1225,-187.939 1872.9016,-153.7873 1865.3004,-137.2007"/>
<polygon fill="#191970" stroke="#191970" points="1795.9893,-240.4119 1787.2833,-246.4498 1797.8544,-247.1589 1795.9893,-240.4119"/>
</g>
<!-- Node30&#45;&gt;Node19 -->
<g id="edge18" class="edge">
<title>Node30&#45;&gt;Node19</title>
<path fill="none" stroke="#191970" d="M1786.5559,-243.3258C1815.2442,-233.9809 1844.177,-222.0436 1852.406,-210 1876.7901,-174.3122 1815.4306,-149.6415 1771.4529,-137.0934"/>
<polygon fill="#191970" stroke="#191970" points="1785.3446,-240.038 1776.8665,-246.3919 1787.4565,-246.7118 1785.3446,-240.038"/>
</g>
<!-- Node30&#45;&gt;Node23 -->
<g id="edge20" class="edge">
<title>Node30&#45;&gt;Node23</title>
<path fill="none" stroke="#191970" d="M1797.635,-246.6207C1836.1342,-238.0264 1882.9825,-225.768 1923.406,-210 1981.7648,-187.2359 1995.3491,-177.8429 2047.406,-143 2065.5191,-130.8765 2067.0573,-123.7638 2085.406,-112 2148.5518,-71.5157 2230.0851,-35.8833 2269.701,-19.5199"/>
<polygon fill="#191970" stroke="#191970" points="1796.5432,-243.2769 1787.5245,-248.8368 1798.042,-250.1145 1796.5432,-243.2769"/>
</g>
<!-- Node30&#45;&gt;Node24 -->
<g id="edge40" class="edge">
<title>Node30&#45;&gt;Node24</title>
<path fill="none" stroke="#191970" d="M1643.3712,-259.2196C1451.3605,-253.1625 965.1647,-235.3813 941.406,-210 931.9905,-199.9414 934.8039,-191.0929 941.406,-179 955.5843,-153.0301 983.2277,-168.9699 997.406,-143 1004.0082,-130.9071 1006.3875,-122.448 997.406,-112 981.7979,-93.8435 838.3401,-78.4779 754.5377,-70.9548"/>
<polygon fill="#191970" stroke="#191970" points="1643.2863,-262.7186 1653.391,-259.5335 1643.5055,-255.722 1643.2863,-262.7186"/>
</g>
<!-- Node30&#45;&gt;Node25 -->
<g id="edge41" class="edge">
<title>Node30&#45;&gt;Node25</title>
<path fill="none" stroke="#191970" d="M1643.0801,-258.9743C1456.8271,-252.5159 996.9825,-234.1888 974.406,-210 965.0051,-199.9277 968.8007,-191.586 974.406,-179 984.1366,-157.1513 1004.6754,-164.8487 1014.406,-143 1020.0113,-130.414 1022.2808,-123.3055 1014.406,-112 987.0334,-72.702 851.6995,-36.2524 781.2345,-19.5598"/>
<polygon fill="#191970" stroke="#191970" points="1643.2309,-262.4814 1653.3455,-259.3278 1643.4719,-255.4856 1643.2309,-262.4814"/>
</g>
<!-- Node30&#45;&gt;Node26 -->
<g id="edge21" class="edge">
<title>Node30&#45;&gt;Node26</title>
<path fill="none" stroke="#191970" d="M1642.789,-259.9182C1412.8845,-254.9561 737.8911,-238.3189 519.406,-210 508.5205,-208.5891 496.8337,-206.347 486.1474,-204.0016"/>
<polygon fill="#191970" stroke="#191970" points="1642.998,-263.4234 1653.0708,-260.1387 1643.1482,-256.425 1642.998,-263.4234"/>
</g>
<!-- Node30&#45;&gt;Node29 -->
<g id="edge24" class="edge">
<title>Node30&#45;&gt;Node29</title>
<path fill="none" stroke="#191970" d="M1746.9358,-283.6195C1758.6054,-295.5776 1770.9947,-309.7313 1777.5668,-318.9005"/>
<polygon fill="#191970" stroke="#191970" points="1749.3727,-281.1067 1739.8213,-276.5218 1744.4288,-286.0623 1749.3727,-281.1067"/>
</g>
<!-- Node31 -->
<g id="node15" class="node">
<title>Node31</title>
<g id="a_node15"><a xlink:href="$ali__plex_8h_source.html" xlink:title=" ">
<polygon fill="none" stroke="#000000" points="983.906,-185 983.906,-204 1096.906,-204 1096.906,-185 983.906,-185"/>
<text text-anchor="middle" x="1040.406" y="-192" font-family="Helvetica,sans-Serif" font-size="10.00" fill="#000000">ViennaRNA/ali_plex.h</text>
</a>
</g>
</g>
<!-- Node30&#45;&gt;Node31 -->
<g id="edge19" class="edge">
<title>Node30&#45;&gt;Node31</title>
<path fill="none" stroke="#191970" d="M1642.826,-258.7496C1525.745,-253.7556 1297.192,-240.7176 1105.406,-210 1095.7837,-208.4588 1085.4777,-206.2602 1075.9728,-204.0016"/>
<polygon fill="#191970" stroke="#191970" points="1642.9807,-262.2591 1653.1182,-259.1801 1643.2732,-255.2652 1642.9807,-262.2591"/>
</g>
<!-- Node32 -->
<g id="node16" class="node">
<title>Node32</title>
<g id="a_node16"><a xlink:href="$cofold_8h.html" xlink:title="MFE implementations for RNA&#45;RNA interaction.">
<polygon fill="none" stroke="#000000" points="1932.406,-118 1932.406,-137 2038.406,-137 2038.406,-118 1932.406,-118"/>
<text text-anchor="middle" x="1985.406" y="-125" font-family="Helvetica,sans-Serif" font-size="10.00" fill="#000000">ViennaRNA/cofold.h</text>
</a>
</g>
</g>
<!-- Node30&#45;&gt;Node32 -->
<g id="edge22" class="edge">
<title>Node30&#45;&gt;Node32</title>
<path fill="none" stroke="#191970" d="M1797.2585,-244.7317C1826.53,-236.5905 1859.5283,-225.2091 1887.406,-210 1924.5006,-189.7624 1960.5155,-154.1205 1976.62,-137.0878"/>
<polygon fill="#191970" stroke="#191970" points="1796.2296,-241.3841 1787.4873,-247.3693 1798.0539,-248.1422 1796.2296,-241.3841"/>
</g>
<!-- Node33 -->
<g id="node17" class="node">
<title>Node33</title>
<g id="a_node17"><a xlink:href="$data__structures_8h.html" xlink:title="Use ViennaRNA/datastructures/basic.h instead.">
<polygon fill="none" stroke="#000000" points="1114.906,-185 1114.906,-204 1261.906,-204 1261.906,-185 1114.906,-185"/>
<text text-anchor="middle" x="1188.406" y="-192" font-family="Helvetica,sans-Serif" font-size="10.00" fill="#000000">ViennaRNA/data_structures.h</text>
</a>
</g>
</g>
<!-- Node30&#45;&gt;Node33 -->
<g id="edge23" class="edge">
<title>Node30&#45;&gt;Node33</title>
<path fill="none" stroke="#191970" d="M1643.1902,-254.3118C1553.5584,-245.5817 1401.3998,-229.5682 1271.406,-210 1259.9545,-208.2762 1247.6667,-206.1402 1236.1492,-204.0106"/>
<polygon fill="#191970" stroke="#191970" points="1642.9788,-257.8077 1653.2698,-255.2885 1643.654,-250.8403 1642.9788,-257.8077"/>
</g>
<!-- Node34 -->
<g id="node18" class="node">
<title>Node34</title>
<g id="a_node18"><a xlink:href="$duplex_8h.html" xlink:title="Functions for simple RNA&#45;RNA duplex interactions.">
<polygon fill="none" stroke="#000000" points="1280.406,-185 1280.406,-204 1388.406,-204 1388.406,-185 1280.406,-185"/>
<text text-anchor="middle" x="1334.406" y="-192" font-family="Helvetica,sans-Serif" font-size="10.00" fill="#000000">ViennaRNA/duplex.h</text>
</a>
</g>
</g>
<!-- Node30&#45;&gt;Node34 -->
<g id="edge25" class="edge">
<title>Node30&#45;&gt;Node34</title>
<path fill="none" stroke="#191970" d="M1643.0417,-251.0088C1577.4048,-241.6677 1480.8776,-226.8924 1397.406,-210 1388.7949,-208.2573 1379.5826,-206.1377 1370.9349,-204.0325"/>
<polygon fill="#191970" stroke="#191970" points="1642.9124,-254.5252 1653.3041,-252.4608 1643.8931,-247.5943 1642.9124,-254.5252"/>
</g>
<!-- Node30&#45;&gt;Node35 -->
<g id="edge26" class="edge">
<title>Node30&#45;&gt;Node35</title>
<path fill="none" stroke="#191970" d="M1642.8628,-259.5775C1389.2618,-253.0962 597.8317,-231.2613 547.406,-210 528.8637,-202.1819 532.6697,-187.4485 514.406,-179 384.9119,-119.0983 336.9021,-161.3243 195.406,-143 180.1893,-141.0294 163.7716,-138.7191 148.5073,-136.4928"/>
<polygon fill="#191970" stroke="#191970" points="1643.0093,-263.0822 1653.0952,-259.8381 1643.1876,-256.0845 1643.0093,-263.0822"/>
</g>
<!-- Node30&#45;&gt;Node36 -->
<g id="edge29" class="edge">
<title>Node30&#45;&gt;Node36</title>
<path fill="none" stroke="#191970" d="M1797.6329,-256.5928C1904.6798,-249.0727 2092.2283,-233.1005 2156.406,-210 2180.3009,-201.3992 2181.7519,-190.4773 2204.406,-179 2239.0904,-161.4277 2281.2641,-146.2549 2309.143,-137.0177"/>
<polygon fill="#191970" stroke="#191970" points="1797.2652,-253.1098 1787.5317,-257.2941 1797.7501,-260.093 1797.2652,-253.1098"/>
</g>
<!-- Node37 -->
<g id="node21" class="node">
<title>Node37</title>
<g id="a_node21"><a xlink:href="$fold_8h.html" xlink:title="MFE calculations for single RNA sequences.">
<polygon fill="none" stroke="#000000" points="2252.906,-56.5 2252.906,-75.5 2347.906,-75.5 2347.906,-56.5 2252.906,-56.5"/>
<text text-anchor="middle" x="2300.406" y="-63.5" font-family="Helvetica,sans-Serif" font-size="10.00" fill="#000000">ViennaRNA/fold.h</text>
</a>
</g>
</g>
<!-- Node30&#45;&gt;Node37 -->
<g id="edge31" class="edge">
<title>Node30&#45;&gt;Node37</title>
<path fill="none" stroke="#191970" d="M1797.9174,-256.124C1896.185,-248.4955 2059.5407,-232.8671 2115.406,-210 2136.548,-201.346 2136.5795,-190.3484 2156.406,-179 2192.7238,-158.2123 2210.4236,-168.754 2243.406,-143 2267.9203,-123.8582 2287.035,-91.5954 2295.5582,-75.5943"/>
<polygon fill="#191970" stroke="#191970" points="1797.4402,-252.6502 1787.7367,-256.9038 1797.9749,-259.6297 1797.4402,-252.6502"/>
</g>
<!-- Node38 -->
<g id="node22" class="node">
<title>Node38</title>
<g id="a_node22"><a xlink:href="$fold__vars_8h.html" xlink:title="Here all all declarations of the global variables used throughout RNAlib.">
<polygon fill="none" stroke="#ff0000" points="1406.906,-185 1406.906,-204 1525.906,-204 1525.906,-185 1406.906,-185"/>
<text text-anchor="middle" x="1466.406" y="-192" font-family="Helvetica,sans-Serif" font-size="10.00" fill="#000000">ViennaRNA/fold_vars.h</text>
</a>
</g>
</g>
<!-- Node30&#45;&gt;Node38 -->
<g id="edge32" class="edge">
<title>Node30&#45;&gt;Node38</title>
<path fill="none" stroke="#191970" d="M1653.6305,-243.886C1605.2366,-231.1207 1541.6608,-214.3507 1502.441,-204.0053"/>
<polygon fill="#191970" stroke="#191970" points="1652.8415,-247.2975 1663.4034,-246.4639 1654.6269,-240.529 1652.8415,-247.2975"/>
</g>
<!-- Node30&#45;&gt;Node40 -->
<g id="edge33" class="edge">
<title>Node30&#45;&gt;Node40</title>
<path fill="none" stroke="#191970" d="M1642.9354,-259.3214C1395.0669,-252.1759 634.7098,-228.8299 585.406,-210 565.0445,-202.2236 567.3036,-187.8964 547.406,-179 453.7521,-137.1264 419.9336,-163.4607 319.406,-143 310.9256,-141.274 301.8573,-139.1608 293.3465,-137.0566"/>
<polygon fill="#191970" stroke="#191970" points="1643.1989,-262.8304 1653.2953,-259.6193 1643.4001,-255.8333 1643.1989,-262.8304"/>
</g>
<!-- Node41 -->
<g id="node24" class="node">
<title>Node41</title>
<g id="a_node24"><a xlink:href="$LPfold_8h.html" xlink:title="Partition function and equilibrium probability implementation for the sliding window algorithm.">
<polygon fill="none" stroke="#000000" points="456.406,-118 456.406,-137 564.406,-137 564.406,-118 456.406,-118"/>
<text text-anchor="middle" x="510.406" y="-125" font-family="Helvetica,sans-Serif" font-size="10.00" fill="#000000">ViennaRNA/LPfold.h</text>
</a>
</g>
</g>
<!-- Node30&#45;&gt;Node41 -->
<g id="edge34" class="edge">
<title>Node30&#45;&gt;Node41</title>
<path fill="none" stroke="#191970" d="M1642.9849,-260.0597C1415.9227,-255.5066 761.9153,-239.9238 670.406,-210 646.6219,-202.2225 645.3016,-191.1142 623.406,-179 593.5999,-162.5091 557.5417,-146.7568 534.3026,-137.113"/>
<polygon fill="#191970" stroke="#191970" points="1643.0805,-263.5622 1653.1482,-260.2619 1643.2198,-256.5636 1643.0805,-263.5622"/>
</g>
<!-- Node42 -->
<g id="node25" class="node">
<title>Node42</title>
<g id="a_node25"><a xlink:href="$MEA_8h.html" xlink:title="Computes a MEA (maximum expected accuracy) structure.">
<polygon fill="none" stroke="#000000" points="886.406,-118 886.406,-137 988.406,-137 988.406,-118 886.406,-118"/>
<text text-anchor="middle" x="937.406" y="-125" font-family="Helvetica,sans-Serif" font-size="10.00" fill="#000000">ViennaRNA/MEA.h</text>
</a>
</g>
</g>
<!-- Node30&#45;&gt;Node42 -->
<g id="edge35" class="edge">
<title>Node30&#45;&gt;Node42</title>
<path fill="none" stroke="#191970" d="M1643.1409,-259.4606C1444.2694,-253.8371 928.5063,-236.7324 903.406,-210 883.3644,-188.6553 911.4475,-153.86 927.52,-137.1089"/>
<polygon fill="#191970" stroke="#191970" points="1643.1283,-262.9616 1653.2226,-259.7435 1643.3247,-255.9643 1643.1283,-262.9616"/>
</g>
<!-- Node30&#45;&gt;Node43 -->
<g id="edge36" class="edge">
<title>Node30&#45;&gt;Node43</title>
<path fill="none" stroke="#191970" d="M1797.7821,-257.8044C1940.3038,-250.7074 2253.8485,-233.7429 2517.406,-210 2545.9786,-207.426 2577.8893,-203.7663 2603.4009,-200.6492"/>
<polygon fill="#191970" stroke="#191970" points="1797.2215,-254.3278 1787.4071,-258.3187 1797.5681,-261.3193 1797.2215,-254.3278"/>
</g>
<!-- Node44 -->
<g id="node27" class="node">
<title>Node44</title>
<g id="a_node27"><a xlink:href="$part__func__up_8h.html" xlink:title="Implementations for accessibility and RNA&#45;RNA interaction as a stepwise process.">
<polygon fill="none" stroke="#000000" points="1544.406,-185 1544.406,-204 1680.406,-204 1680.406,-185 1544.406,-185"/>
<text text-anchor="middle" x="1612.406" y="-192" font-family="Helvetica,sans-Serif" font-size="10.00" fill="#000000">ViennaRNA/part_func_up.h</text>
</a>
</g>
</g>
<!-- Node30&#45;&gt;Node44 -->
<g id="edge42" class="edge">
<title>Node30&#45;&gt;Node44</title>
<path fill="none" stroke="#191970" d="M1687.4329,-241.0445C1667.6313,-228.7601 1643.3593,-213.7025 1627.887,-204.1039"/>
<polygon fill="#191970" stroke="#191970" points="1685.826,-244.1663 1696.1687,-246.4639 1689.5162,-238.218 1685.826,-244.1663"/>
</g>
<!-- Node30&#45;&gt;Node45 -->
<g id="edge43" class="edge">
<title>Node30&#45;&gt;Node45</title>
<path fill="none" stroke="#191970" d="M1643.0749,-259.6527C1396.3541,-253.5811 629.6765,-233.2917 382.406,-210 367.193,-208.567 350.8009,-206.3913 335.6656,-204.1192"/>
<polygon fill="#191970" stroke="#191970" points="1643.2985,-263.1592 1653.3814,-259.9055 1643.4702,-256.1613 1643.2985,-263.1592"/>
</g>
<!-- Node46 -->
<g id="node29" class="node">
<title>Node46</title>
<g id="a_node29"><a xlink:href="$PKplex_8h_source.html" xlink:title=" ">
<polygon fill="none" stroke="#000000" points="1698.906,-185 1698.906,-204 1809.906,-204 1809.906,-185 1698.906,-185"/>
<text text-anchor="middle" x="1754.406" y="-192" font-family="Helvetica,sans-Serif" font-size="10.00" fill="#000000">ViennaRNA/PKplex.h</text>
</a>
</g>
</g>
<!-- Node30&#45;&gt;Node46 -->
<g id="edge45" class="edge">
<title>Node30&#45;&gt;Node46</title>
<path fill="none" stroke="#191970" d="M1732.7595,-237.1564C1738.581,-225.6846 1745.1898,-212.6613 1749.5572,-204.055"/>
<polygon fill="#191970" stroke="#191970" points="1729.5254,-235.7953 1728.1211,-246.2967 1735.7676,-238.963 1729.5254,-235.7953"/>
</g>
<!-- Node30&#45;&gt;Node51 -->
<g id="edge46" class="edge">
<title>Node30&#45;&gt;Node51</title>
<path fill="none" stroke="#191970" d="M1643.0112,-260.6646C1408.7905,-257.7474 717.821,-246.1433 623.406,-210 603.0506,-202.2077 604.8684,-188.812 585.406,-179 578.0742,-175.3036 479.6016,-150.9617 422.9084,-137.1069"/>
<polygon fill="#191970" stroke="#191970" points="1643.1086,-264.1659 1653.1508,-260.7889 1643.1945,-257.1664 1643.1086,-264.1659"/>
</g>
<!-- Node30&#45;&gt;Node52 -->
<g id="edge47" class="edge">
<title>Node30&#45;&gt;Node52</title>
<path fill="none" stroke="#191970" d="M1797.7453,-255.6226C1896.7545,-247.9004 2073.239,-232.6105 2223.406,-210 2230.9572,-208.863 2238.8893,-207.4818 2246.7685,-206.0175"/>
<polygon fill="#191970" stroke="#191970" points="1797.2292,-252.152 1787.5294,-256.414 1797.7699,-259.1311 1797.2292,-252.152"/>
</g>
<!-- Node30&#45;&gt;Node53 -->
<g id="edge50" class="edge">
<title>Node30&#45;&gt;Node53</title>
<path fill="none" stroke="#191970" d="M1643.0921,-260.1779C1491.4485,-256.8114 1144.9641,-245.4943 856.406,-210 844.1847,-208.4967 831.0473,-206.3111 819.2289,-204.0529"/>
<polygon fill="#191970" stroke="#191970" points="1643.1599,-263.6801 1653.2334,-260.3975 1643.3116,-256.6817 1643.1599,-263.6801"/>
</g>
<!-- Node30&#45;&gt;Node56 -->
<g id="edge70" class="edge">
<title>Node30&#45;&gt;Node56</title>
<path fill="none" stroke="#191970" d="M1797.6322,-256.1094C1888.2003,-248.811 2032.1102,-233.8824 2080.406,-210 2115.5857,-192.6035 2145.2459,-154.8955 2157.8772,-137.1288"/>
<polygon fill="#191970" stroke="#191970" points="1797.0995,-252.6406 1787.4071,-256.9193 1797.6522,-259.6187 1797.0995,-252.6406"/>
</g>
<!-- Node30&#45;&gt;Node60 -->
<g id="edge71" class="edge">
<title>Node30&#45;&gt;Node60</title>
<path fill="none" stroke="#191970" d="M1643.0603,-259.4746C1412.7735,-253.1947 745.0262,-233.081 704.406,-210 675.5204,-193.5868 658.9283,-155.0307 652.5112,-137.0479"/>
<polygon fill="#191970" stroke="#191970" points="1643.2732,-262.9815 1653.3645,-259.7543 1643.4632,-255.9841 1643.2732,-262.9815"/>
</g>
<!-- Node30&#45;&gt;Node62 -->
<g id="edge72" class="edge">
<title>Node30&#45;&gt;Node62</title>
<path fill="none" stroke="#191970" d="M1797.7636,-257.8936C1913.038,-251.7114 2123.8904,-237.0612 2194.406,-210 2216.4017,-201.5589 2215.4923,-187.6518 2237.406,-179 2296.471,-155.6805 2472.0934,-139.6427 2570.5459,-132.2112"/>
<polygon fill="#191970" stroke="#191970" points="1797.3956,-254.408 1787.594,-258.4303 1797.7646,-261.3983 1797.3956,-254.408"/>
</g>
<!-- Node30&#45;&gt;Node64 -->
<g id="edge73" class="edge">
<title>Node30&#45;&gt;Node64</title>
<path fill="none" stroke="#191970" d="M1771.8498,-242.2356C1805.0285,-226.8869 1838.5313,-203.902 1818.406,-179 1812.4711,-171.6565 1699.7001,-149.7932 1630.8811,-137.0371"/>
<polygon fill="#191970" stroke="#191970" points="1770.2706,-239.107 1762.5452,-246.3574 1773.1058,-245.5072 1770.2706,-239.107"/>
</g>
<!-- Node30&#45;&gt;Node66 -->
<g id="edge74" class="edge">
<title>Node30&#45;&gt;Node66</title>
<path fill="none" stroke="#191970" d="M1797.8843,-259.0467C1921.6163,-254.3237 2171.2027,-241.4941 2380.406,-210 2383.4412,-209.5431 2386.5417,-209.0276 2389.6656,-208.4693"/>
<polygon fill="#191970" stroke="#191970" points="1797.6132,-255.5543 1787.7512,-259.4261 1797.8751,-262.5494 1797.6132,-255.5543"/>
</g>
<!-- Node30&#45;&gt;Node69 -->
<g id="edge75" class="edge">
<title>Node30&#45;&gt;Node69</title>
<path fill="none" stroke="#191970" d="M1797.5571,-259.7669C1963.1247,-255.6263 2364.3337,-242.932 2699.406,-210 2717.7127,-208.2008 2737.6837,-205.5076 2755.8669,-202.8686"/>
<polygon fill="#191970" stroke="#191970" points="1797.3808,-256.2701 1787.4702,-260.0159 1797.5535,-263.268 1797.3808,-256.2701"/>
</g>
<!-- Node35&#45;&gt;Node24 -->
<g id="edge27" class="edge">
<title>Node35&#45;&gt;Node24</title>
<path fill="none" stroke="#191970" d="M158.5915,-112.5877C159.8721,-112.3839 161.1445,-112.1877 162.406,-112 332.5018,-86.6862 535.4229,-73.9049 634.2879,-68.785"/>
<polygon fill="#191970" stroke="#191970" points="157.9266,-109.1505 148.6576,-114.2823 159.1038,-116.0508 157.9266,-109.1505"/>
</g>
<!-- Node35&#45;&gt;Node25 -->
<g id="edge28" class="edge">
<title>Node35&#45;&gt;Node25</title>
<path fill="none" stroke="#191970" d="M158.3173,-115.0238C288.7666,-91.4062 569.1476,-40.6439 685.8057,-19.5232"/>
<polygon fill="#191970" stroke="#191970" points="157.6492,-111.5877 148.4327,-116.8133 158.8963,-118.4758 157.6492,-111.5877"/>
</g>
<!-- Node36&#45;&gt;Node37 -->
<g id="edge30" class="edge">
<title>Node36&#45;&gt;Node37</title>
<path fill="none" stroke="#191970" d="M2327.9387,-109.4169C2320.9551,-98.4043 2312.3058,-84.765 2306.5857,-75.7449"/>
<polygon fill="#191970" stroke="#191970" points="2325.001,-111.3199 2333.3123,-117.8906 2330.9126,-107.5711 2325.001,-111.3199"/>
</g>
<!-- Node43&#45;&gt;Node23 -->
<g id="edge37" class="edge">
<title>Node43&#45;&gt;Node23</title>
<path fill="none" stroke="#191970" d="M2623.5303,-180.1339C2553.3513,-143.9662 2370.7895,-49.8806 2311.964,-19.5641"/>
<polygon fill="#191970" stroke="#191970" points="2622.17,-183.3703 2632.6624,-184.8402 2625.3768,-177.148 2622.17,-183.3703"/>
</g>
<!-- Node43&#45;&gt;Node32 -->
<g id="edge38" class="edge">
<title>Node43&#45;&gt;Node32</title>
<path fill="none" stroke="#191970" d="M2592.9707,-184.6725C2579.3557,-182.5969 2564.8955,-180.5642 2551.406,-179 2345.0603,-155.0735 2291.7517,-166.9265 2085.406,-143 2070.1359,-141.2294 2053.6219,-138.8584 2038.4982,-136.5042"/>
<polygon fill="#191970" stroke="#191970" points="2592.7683,-188.1831 2603.1873,-186.2612 2593.8439,-181.2662 2592.7683,-188.1831"/>
</g>
<!-- Node43&#45;&gt;Node37 -->
<g id="edge39" class="edge">
<title>Node43&#45;&gt;Node37</title>
<path fill="none" stroke="#191970" d="M2614.6637,-181.6375C2585.3163,-171.3187 2543.1628,-156.3961 2506.406,-143 2441.118,-119.2057 2364.5424,-90.3256 2325.7274,-75.6175"/>
<polygon fill="#191970" stroke="#191970" points="2613.5042,-184.9398 2624.099,-184.9516 2615.824,-178.3354 2613.5042,-184.9398"/>
</g>
<!-- Node45&#45;&gt;Node41 -->
<g id="edge44" class="edge">
<title>Node45&#45;&gt;Node41</title>
<path fill="none" stroke="#191970" d="M340.9635,-176.6457C384.87,-163.9109 442.189,-147.2859 477.634,-137.0053"/>
<polygon fill="#191970" stroke="#191970" points="339.8761,-173.3167 331.2469,-179.4639 341.8261,-180.0397 339.8761,-173.3167"/>
</g>
<!-- Node52&#45;&gt;Node17 -->
<g id="edge48" class="edge">
<title>Node52&#45;&gt;Node17</title>
<path fill="none" stroke="#191970" d="M2330.9303,-217.4745C2365.4026,-259.6725 2435.5917,-350.7148 2510.406,-411 2529.2171,-426.1579 2553.6846,-439.164 2569.2421,-447.4401"/>
<polygon fill="#191970" stroke="#191970" points="2333.5863,-215.194 2324.5213,-209.7098 2328.1877,-219.65 2333.5863,-215.194"/>
</g>
<!-- Node52&#45;&gt;Node30 -->
<g id="edge49" class="edge">
<title>Node52&#45;&gt;Node30</title>
<path fill="none" stroke="#191970" d="M2236.4011,-210.7096C2071.6647,-235.0221 1885.0054,-250.3869 1787.4279,-257.2921"/>
<polygon fill="#191970" stroke="#191970" points="2237.3444,-214.1077 2246.7187,-209.1707 2236.3117,-207.1843 2237.3444,-214.1077"/>
</g>
<!-- Node53&#45;&gt;Node17 -->
<g id="edge58" class="edge">
<title>Node53&#45;&gt;Node17</title>
<path fill="none" stroke="#191970" d="M844.7587,-206.0093C895.543,-216.2642 968.791,-231.8019 1032.406,-246 1348.1688,-316.4746 1421.0999,-365.4283 1741.406,-411 1889.3544,-432.0494 2333.671,-448.5207 2510.1126,-454.533"/>
<polygon fill="#191970" stroke="#191970" points="845.4044,-202.5692 834.9109,-204.0307 844.0255,-209.432 845.4044,-202.5692"/>
</g>
<!-- Node53&#45;&gt;Node18 -->
<g id="edge51" class="edge">
<title>Node53&#45;&gt;Node18</title>
<path fill="none" stroke="#191970" d="M861.7246,-187.4376C896.3112,-184.5285 937.3443,-181.3068 974.406,-179 1339.3833,-156.2834 1434.3356,-194.2785 1796.406,-143 1806.2539,-141.6053 1816.7998,-139.3684 1826.4321,-137.0228"/>
<polygon fill="#191970" stroke="#191970" points="861.3494,-183.9567 851.6807,-188.2887 861.9405,-190.9317 861.3494,-183.9567"/>
</g>
<!-- Node53&#45;&gt;Node19 -->
<g id="edge52" class="edge">
<title>Node53&#45;&gt;Node19</title>
<path fill="none" stroke="#191970" d="M861.7341,-187.5852C896.3224,-184.7024 937.3542,-181.4603 974.406,-179 1281.2579,-158.625 1360.9459,-186.3274 1665.406,-143 1675.4273,-141.5739 1686.1639,-139.3567 1696.0043,-137.0409"/>
<polygon fill="#191970" stroke="#191970" points="861.3622,-184.104 851.6896,-188.4273 861.9471,-191.0795 861.3622,-184.104"/>
</g>
<!-- Node53&#45;&gt;Node23 -->
<g id="edge53" class="edge">
<title>Node53&#45;&gt;Node23</title>
<path fill="none" stroke="#191970" d="M788.6657,-175.266C796.1623,-155.649 810.7594,-126.1454 834.406,-112 957.1136,-38.5963 1993.4333,-15.3981 2240.6225,-10.8842"/>
<polygon fill="#191970" stroke="#191970" points="785.3502,-174.1436 785.3004,-184.7383 791.9462,-176.487 785.3502,-174.1436"/>
</g>
<!-- Node53&#45;&gt;Node24 -->
<g id="edge62" class="edge">
<title>Node53&#45;&gt;Node24</title>
<path fill="none" stroke="#191970" d="M770.0815,-176.5035C751.2167,-148.9566 715.8212,-97.2711 701.0971,-75.7705"/>
<polygon fill="#191970" stroke="#191970" points="767.2536,-178.5685 775.7917,-184.8416 773.0291,-174.6133 767.2536,-178.5685"/>
</g>
<!-- Node53&#45;&gt;Node25 -->
<g id="edge63" class="edge">
<title>Node53&#45;&gt;Node25</title>
<path fill="none" stroke="#191970" d="M781.9162,-174.6173C780.7443,-147.2578 776.7812,-96.7594 763.406,-56 759.0417,-42.7002 750.8812,-28.7554 745.0713,-19.7544"/>
<polygon fill="#191970" stroke="#191970" points="778.4257,-174.9563 782.2669,-184.8303 785.4216,-174.716 778.4257,-174.9563"/>
</g>
<!-- Node53&#45;&gt;Node30 -->
<g id="edge69" class="edge">
<title>Node53&#45;&gt;Node30</title>
<path fill="none" stroke="#191970" d="M846.6321,-205.8256C855.9619,-207.4241 865.431,-208.896 874.406,-210 1163.1371,-245.5155 1509.8639,-256.8249 1653.3326,-260.1839"/>
<polygon fill="#191970" stroke="#191970" points="847.0493,-202.3452 836.593,-204.0529 845.832,-209.2385 847.0493,-202.3452"/>
</g>
<!-- Node53&#45;&gt;Node32 -->
<g id="edge54" class="edge">
<title>Node53&#45;&gt;Node32</title>
<path fill="none" stroke="#191970" d="M861.7183,-187.3333C896.3038,-184.4057 937.3377,-181.1983 974.406,-179 1395.7469,-154.0124 1505.5402,-202.5035 1923.406,-143 1932.9624,-141.6392 1943.184,-139.4131 1952.5151,-137.0671"/>
<polygon fill="#191970" stroke="#191970" points="861.3407,-183.8527 851.6747,-188.1908 861.9363,-190.8273 861.3407,-183.8527"/>
</g>
<!-- Node53&#45;&gt;Node35 -->
<g id="edge55" class="edge">
<title>Node53&#45;&gt;Node35</title>
<path fill="none" stroke="#191970" d="M702.8597,-188.9838C589.8597,-180.8152 376.4611,-164.162 195.406,-143 180.166,-141.2187 163.74,-138.9758 148.4752,-136.7537"/>
<polygon fill="#191970" stroke="#191970" points="702.9198,-192.497 713.1452,-189.7239 703.4223,-185.5151 702.9198,-192.497"/>
</g>
<!-- Node53&#45;&gt;Node36 -->
<g id="edge56" class="edge">
<title>Node53&#45;&gt;Node36</title>
<path fill="none" stroke="#191970" d="M861.7086,-187.1629C896.2924,-184.2051 937.3276,-181.0212 974.406,-179 1537.7965,-148.2886 1681.6816,-196.0823 2243.406,-143 2258.7009,-141.5546 2275.2525,-139.1783 2290.2347,-136.7155"/>
<polygon fill="#191970" stroke="#191970" points="861.3271,-183.6827 851.6656,-188.0308 861.9299,-190.6567 861.3271,-183.6827"/>
</g>
<!-- Node53&#45;&gt;Node37 -->
<g id="edge57" class="edge">
<title>Node53&#45;&gt;Node37</title>
<path fill="none" stroke="#191970" d="M798.7774,-177.8394C820.8329,-155.843 859.3963,-119.0621 877.406,-112 942.7379,-86.3814 2012.2389,-70.0125 2252.6722,-66.6459"/>
<polygon fill="#191970" stroke="#191970" points="796.2953,-175.3718 791.7253,-184.9303 801.2586,-180.3079 796.2953,-175.3718"/>
</g>
<!-- Node53&#45;&gt;Node40 -->
<g id="edge59" class="edge">
<title>Node53&#45;&gt;Node40</title>
<path fill="none" stroke="#191970" d="M703.2194,-188.944C610.6567,-181.6998 453.0999,-167.0351 319.406,-143 310.4515,-141.3902 300.8723,-139.2214 291.9873,-137.0168"/>
<polygon fill="#191970" stroke="#191970" points="703.1104,-192.446 713.3505,-189.7275 703.6502,-185.4668 703.1104,-192.446"/>
</g>
<!-- Node53&#45;&gt;Node41 -->
<g id="edge60" class="edge">
<title>Node53&#45;&gt;Node41</title>
<path fill="none" stroke="#191970" d="M733.9316,-182.5596C681.2303,-169.578 598.0424,-149.0869 549.3951,-137.1039"/>
<polygon fill="#191970" stroke="#191970" points="733.177,-185.9783 743.7239,-184.9717 734.8513,-179.1814 733.177,-185.9783"/>
</g>
<!-- Node53&#45;&gt;Node42 -->
<g id="edge61" class="edge">
<title>Node53&#45;&gt;Node42</title>
<path fill="none" stroke="#191970" d="M813.8413,-180.9118C843.9675,-167.8895 888.6702,-148.5664 915.2395,-137.0817"/>
<polygon fill="#191970" stroke="#191970" points="812.4041,-177.72 804.6137,-184.9005 815.1816,-184.1454 812.4041,-177.72"/>
</g>
<!-- Node53&#45;&gt;Node51 -->
<g id="edge64" class="edge">
<title>Node53&#45;&gt;Node51</title>
<path fill="none" stroke="#191970" d="M702.9124,-184.2201C634.8251,-174.9524 534.2982,-160.1688 447.406,-143 438.6579,-141.2715 429.2993,-139.1574 420.5143,-137.0531"/>
<polygon fill="#191970" stroke="#191970" points="702.7564,-187.7308 713.1354,-185.6033 703.695,-180.794 702.7564,-187.7308"/>
</g>
<!-- Node53&#45;&gt;Node56 -->
<g id="edge65" class="edge">
<title>Node53&#45;&gt;Node56</title>
<path fill="none" stroke="#191970" d="M861.7137,-187.2552C896.2984,-184.3138 937.333,-181.1172 974.406,-179 1450.787,-151.7947 1571.8766,-182.3802 2047.406,-143 2064.9673,-141.5457 2083.9335,-139.3193 2101.3788,-137.0036"/>
<polygon fill="#191970" stroke="#191970" points="861.3344,-183.7748 851.6705,-188.1175 861.9333,-190.7491 861.3344,-183.7748"/>
</g>
<!-- Node53&#45;&gt;Node60 -->
<g id="edge66" class="edge">
<title>Node53&#45;&gt;Node60</title>
<path fill="none" stroke="#191970" d="M754.4191,-180.4013C728.5886,-167.389 690.9284,-148.4173 668.4263,-137.0817"/>
<polygon fill="#191970" stroke="#191970" points="752.8449,-183.5273 763.3503,-184.9005 755.9942,-177.2757 752.8449,-183.5273"/>
</g>
<!-- Node53&#45;&gt;Node62 -->
<g id="edge67" class="edge">
<title>Node53&#45;&gt;Node62</title>
<path fill="none" stroke="#191970" d="M861.7056,-187.1082C896.2889,-184.1407 937.3246,-180.9643 974.406,-179 1606.167,-145.5335 1765.3891,-171.2242 2397.406,-143 2455.9719,-140.3846 2522.4266,-136.0284 2570.8597,-132.599"/>
<polygon fill="#191970" stroke="#191970" points="861.3229,-183.6281 851.6629,-187.9795 861.928,-190.6019 861.3229,-183.6281"/>
</g>
<!-- Node53&#45;&gt;Node64 -->
<g id="edge68" class="edge">
<title>Node53&#45;&gt;Node64</title>
<path fill="none" stroke="#191970" d="M861.9073,-187.8083C1014.8774,-174.9327 1348.4419,-146.8563 1500.3036,-134.0739"/>
<polygon fill="#191970" stroke="#191970" points="861.3245,-184.3449 851.6533,-188.6714 861.9117,-191.3202 861.3245,-184.3449"/>
</g>
<!-- Node69&#45;&gt;Node17 -->
<g id="edge76" class="edge">
<title>Node69&#45;&gt;Node17</title>
<path fill="none" stroke="#191970" d="M2823.2205,-219.5691C2829.9223,-264.3817 2829.2525,-358.4425 2778.406,-411 2761.753,-428.2134 2704.983,-440.6164 2656.895,-448.1743"/>
<polygon fill="#191970" stroke="#191970" points="2826.6338,-218.7721 2821.4364,-209.5397 2819.7419,-219.9982 2826.6338,-218.7721"/>
</g>
<!-- Node69&#45;&gt;Node30 -->
<g id="edge78" class="edge">
<title>Node69&#45;&gt;Node30</title>
<path fill="none" stroke="#191970" d="M2745.6737,-206.7339C2736.2081,-207.968 2726.5973,-209.0966 2717.406,-210 2368.6944,-244.2726 1948.3523,-256.6262 1787.4218,-260.2308"/>
<polygon fill="#191970" stroke="#191970" points="2746.4192,-210.1652 2755.8613,-205.3592 2745.483,-203.228 2746.4192,-210.1652"/>
</g>
<!-- Node69&#45;&gt;Node62 -->
<g id="edge77" class="edge">
<title>Node69&#45;&gt;Node62</title>
<path fill="none" stroke="#191970" d="M2766.3834,-175.838C2733.2249,-163.2151 2690.8135,-147.0699 2664.3751,-137.0053"/>
<polygon fill="#191970" stroke="#191970" points="2765.3172,-179.1771 2775.9082,-179.4639 2767.8077,-172.6351 2765.3172,-179.1771"/>
</g>
<!-- Node90&#45;&gt;Node17 -->
<g id="edge90" class="edge">
<title>Node90&#45;&gt;Node17</title>
<path fill="none" stroke="#191970" d="M3794.9786,-407.1769C3787.5442,-408.6923 3779.7896,-410.0464 3772.406,-411 3555.6075,-438.9993 2881.1943,-452.2708 2656.7943,-455.9225"/>
<polygon fill="#191970" stroke="#191970" points="3795.8233,-410.5751 3804.8529,-405.0328 3794.3379,-403.7345 3795.8233,-410.5751"/>
</g>
<!-- Node91&#45;&gt;Node69 -->
<g id="edge103" class="edge">
<title>Node91&#45;&gt;Node69</title>
<path fill="none" stroke="#191970" d="M2696.2261,-371.9456C2724.2908,-330.1605 2782.0253,-244.2001 2805.3255,-209.5088"/>
<polygon fill="#191970" stroke="#191970" points="2693.2231,-370.1395 2690.5529,-380.3923 2699.034,-374.0424 2693.2231,-370.1395"/>
</g>
<!-- Node91&#45;&gt;Node92 -->
<g id="edge99" class="edge">
<title>Node91&#45;&gt;Node92</title>
<path fill="none" stroke="#191970" d="M2661.0575,-372.3509C2653.1149,-362.8482 2644.1424,-352.1132 2637.063,-343.6432"/>
<polygon fill="#191970" stroke="#191970" points="2658.6001,-374.8684 2667.6987,-380.2967 2663.9711,-370.3792 2658.6001,-374.8684"/>
</g>
<!-- Node92&#45;&gt;Node17 -->
<g id="edge100" class="edge">
<title>Node92&#45;&gt;Node17</title>
<path fill="none" stroke="#191970" d="M2621.8362,-353.7784C2614.8214,-382.4221 2599.8087,-427.6745 2590.2611,-447.3416"/>
<polygon fill="#191970" stroke="#191970" points="2625.3229,-354.2262 2624.105,-343.7016 2618.4939,-352.6886 2625.3229,-354.2262"/>
</g>
<!-- Node92&#45;&gt;Node30 -->
<g id="edge102" class="edge">
<title>Node92&#45;&gt;Node30</title>
<path fill="none" stroke="#191970" d="M2554.6963,-323.3335C2385.3467,-310.7821 1953.9879,-278.8119 1787.438,-266.4681"/>
<polygon fill="#191970" stroke="#191970" points="2554.5111,-326.8292 2564.7424,-324.078 2555.0285,-319.8484 2554.5111,-326.8292"/>
</g>
<!-- Node92&#45;&gt;Node62 -->
<g id="edge101" class="edge">
<title>Node92&#45;&gt;Node62</title>
<path fill="none" stroke="#191970" d="M2647.0846,-305.8602C2667.6119,-283.6322 2696.4107,-247.6643 2708.406,-210 2712.587,-196.8719 2714.5819,-191.3161 2708.406,-179 2698.6233,-159.4914 2677.5563,-145.4841 2661.2581,-137.0484"/>
<polygon fill="#191970" stroke="#191970" points="2644.2751,-303.7369 2639.9426,-313.4054 2649.3588,-308.549 2644.2751,-303.7369"/>
</g>
<!-- Node101&#45;&gt;Node96 -->
<g id="edge111" class="edge">
<title>Node101&#45;&gt;Node96</title>
<path fill="none" stroke="#191970" d="M4131.1785,-371.7735C4125.1726,-362.4154 4118.4509,-351.9421 4113.1248,-343.6432"/>
<polygon fill="#191970" stroke="#191970" points="4128.3018,-373.7712 4136.6486,-380.2967 4134.1929,-369.9903 4128.3018,-373.7712"/>
</g>
<!-- Node103&#45;&gt;Node23 -->
<g id="edge114" class="edge">
<title>Node103&#45;&gt;Node23</title>
<path fill="none" stroke="#191970" d="M4589.6012,-243.7567C4574.2337,-224.038 4546.4868,-193.1172 4514.406,-179 4309.7784,-88.9537 2662.5309,-23.6868 2345.9328,-11.9085"/>
<polygon fill="#191970" stroke="#191970" points="4586.947,-246.0501 4595.762,-251.9277 4592.5364,-241.8359 4586.947,-246.0501"/>
</g>
</g>
</svg>
