<?xml version="1.0" encoding="UTF-8" standalone="no"?>
<!DOCTYPE svg PUBLIC "-//W3C//DTD SVG 1.1//EN"
 "http://www.w3.org/Graphics/SVG/1.1/DTD/svg11.dtd">
<!-- Generated by graphviz version 2.40.1 (0)
 -->
<!-- Title: ViennaRNA/grammar.h Pages: 1 -->
<svg width="1064pt" height="397pt"
 viewBox="0.00 0.00 1063.98 397.00" xmlns="http://www.w3.org/2000/svg" xmlns:xlink="http://www.w3.org/1999/xlink">
<g id="graph0" class="graph" transform="scale(1 1) rotate(0) translate(4 393)">
<title>ViennaRNA/grammar.h</title>
<!-- Node0 -->
<g id="node1" class="node">
<title>Node0</title>
<g id="a_node1"><a xlink:title="Implementations for the RNA folding grammar.">
<polygon fill="#bfbfbf" stroke="#000000" points="588.5,-369.5 588.5,-388.5 705.5,-388.5 705.5,-369.5 588.5,-369.5"/>
<text text-anchor="middle" x="647" y="-376.5" font-family="Helvetica,sans-Serif" font-size="10.00" fill="#000000">ViennaRNA/grammar.h</text>
</a>
</g>
</g>
<!-- Node1 -->
<g id="node2" class="node">
<title>Node1</title>
<g id="a_node2"><a xlink:href="$fold__compound_8h.html" xlink:title="The Basic Fold Compound API.">
<polygon fill="none" stroke="#000000" points="574,-313.5 574,-332.5 720,-332.5 720,-313.5 574,-313.5"/>
<text text-anchor="middle" x="647" y="-320.5" font-family="Helvetica,sans-Serif" font-size="10.00" fill="#000000">ViennaRNA/fold_compound.h</text>
</a>
</g>
</g>
<!-- Node0&#45;&gt;Node1 -->
<g id="edge1" class="edge">
<title>Node0&#45;&gt;Node1</title>
<path fill="none" stroke="#191970" d="M641.7332,-369.2455C640.3221,-361.9382 639.9179,-351.6944 640.5205,-342.7046"/>
<polygon fill="#191970" stroke="#191970" points="644.0111,-342.9945 641.7549,-332.6427 637.0632,-342.1421 644.0111,-342.9945"/>
</g>
<!-- Node1&#45;&gt;Node0 -->
<g id="edge38" class="edge">
<title>Node1&#45;&gt;Node0</title>
<path fill="none" stroke="#191970" d="M652.2451,-332.6427C653.6665,-339.9199 654.081,-350.155 653.4887,-359.1575"/>
<polygon fill="#191970" stroke="#191970" points="649.9947,-358.8972 652.2668,-369.2455 656.9439,-359.739 649.9947,-358.8972"/>
</g>
<!-- Node2 -->
<g id="node3" class="node">
<title>Node2</title>
<g id="a_node3"><a xlink:href="$model_8h.html" xlink:title="The model details data structure and its corresponding modifiers.">
<polygon fill="none" stroke="#000000" points="0,-129 0,-148 106,-148 106,-129 0,-129"/>
<text text-anchor="middle" x="53" y="-136" font-family="Helvetica,sans-Serif" font-size="10.00" fill="#000000">ViennaRNA/model.h</text>
</a>
</g>
</g>
<!-- Node1&#45;&gt;Node2 -->
<g id="edge2" class="edge">
<title>Node1&#45;&gt;Node2</title>
<path fill="none" stroke="#191970" d="M573.8036,-316.1921C489.3362,-307.7884 355.9109,-292.6761 308,-277 215.4377,-246.7143 117.2604,-183.191 74.7305,-153.898"/>
<polygon fill="#191970" stroke="#191970" points="76.4998,-150.8653 66.2916,-148.0294 72.5033,-156.6123 76.4998,-150.8653"/>
</g>
<!-- Node3 -->
<g id="node4" class="node">
<title>Node3</title>
<g id="a_node4"><a xlink:href="$params_2basic_8h.html" xlink:title="Functions to deal with sets of energy parameters.">
<polygon fill="none" stroke="#000000" points="354,-257.5 354,-276.5 492,-276.5 492,-257.5 354,-257.5"/>
<text text-anchor="middle" x="423" y="-264.5" font-family="Helvetica,sans-Serif" font-size="10.00" fill="#000000">ViennaRNA/params/basic.h</text>
</a>
</g>
</g>
<!-- Node1&#45;&gt;Node3 -->
<g id="edge3" class="edge">
<title>Node1&#45;&gt;Node3</title>
<path fill="none" stroke="#191970" d="M603.518,-313.4369C563.7175,-303.9536 505.3196,-289.3909 465.7529,-279.1061"/>
<polygon fill="#191970" stroke="#191970" points="466.433,-275.6664 455.8729,-276.5237 464.6628,-282.4388 466.433,-275.6664"/>
</g>
<!-- Node7 -->
<g id="node8" class="node">
<title>Node7</title>
<g id="a_node8"><a xlink:href="$dp__matrices_8h.html" xlink:title="Functions to deal with standard dynamic programming (DP) matrices.">
<polygon fill="none" stroke="#000000" points="907.5,-129 907.5,-148 1040.5,-148 1040.5,-129 907.5,-129"/>
<text text-anchor="middle" x="974" y="-136" font-family="Helvetica,sans-Serif" font-size="10.00" fill="#000000">ViennaRNA/dp_matrices.h</text>
</a>
</g>
</g>
<!-- Node1&#45;&gt;Node7 -->
<g id="edge35" class="edge">
<title>Node1&#45;&gt;Node7</title>
<path fill="none" stroke="#191970" d="M673.2651,-313.4364C697.8019,-305.3722 734.6819,-292.6527 765,-277 836.2237,-240.2283 911.7637,-181.8587 949.7429,-154.1239"/>
<polygon fill="#191970" stroke="#191970" points="952.07,-156.7608 958.1313,-148.0711 947.974,-151.0843 952.07,-156.7608"/>
</g>
<!-- Node8 -->
<g id="node9" class="node">
<title>Node8</title>
<g id="a_node9"><a xlink:href="$hard_8h.html" xlink:title="Functions and data structures for handling of secondary structure hard constraints.">
<polygon fill="none" stroke="#000000" points="633.5,-123.5 633.5,-153.5 752.5,-153.5 752.5,-123.5 633.5,-123.5"/>
<text text-anchor="start" x="641.5" y="-141.5" font-family="Helvetica,sans-Serif" font-size="10.00" fill="#000000">ViennaRNA/constraints</text>
<text text-anchor="middle" x="693" y="-130.5" font-family="Helvetica,sans-Serif" font-size="10.00" fill="#000000">/hard.h</text>
</a>
</g>
</g>
<!-- Node1&#45;&gt;Node8 -->
<g id="edge36" class="edge">
<title>Node1&#45;&gt;Node8</title>
<path fill="none" stroke="#191970" d="M665.2048,-313.4647C679.7227,-306.1252 698.6794,-294.2779 708,-277 727.5883,-240.6885 710.8362,-191.9317 699.7922,-163.005"/>
<polygon fill="#191970" stroke="#191970" points="703.0512,-161.7286 696.1927,-153.6532 696.5184,-164.243 703.0512,-161.7286"/>
</g>
<!-- Node10 -->
<g id="node11" class="node">
<title>Node10</title>
<g id="a_node11"><a xlink:href="$soft_8h.html" xlink:title="Functions and data structures for secondary structure soft constraints.">
<polygon fill="none" stroke="#000000" points="770.5,-123.5 770.5,-153.5 889.5,-153.5 889.5,-123.5 770.5,-123.5"/>
<text text-anchor="start" x="778.5" y="-141.5" font-family="Helvetica,sans-Serif" font-size="10.00" fill="#000000">ViennaRNA/constraints</text>
<text text-anchor="middle" x="830" y="-130.5" font-family="Helvetica,sans-Serif" font-size="10.00" fill="#000000">/soft.h</text>
</a>
</g>
</g>
<!-- Node1&#45;&gt;Node10 -->
<g id="edge37" class="edge">
<title>Node1&#45;&gt;Node10</title>
<path fill="none" stroke="#191970" d="M670.0771,-313.3473C688.9404,-305.8432 715.1055,-293.8542 734,-277 770.5207,-244.423 797.2996,-192.9357 813.6473,-162.7655"/>
<polygon fill="#191970" stroke="#191970" points="816.8415,-164.22 818.5875,-153.77 810.7059,-160.8503 816.8415,-164.22"/>
</g>
<!-- Node11 -->
<g id="node12" class="node">
<title>Node11</title>
<g id="a_node12"><a xlink:href="$structured__domains_8h.html" xlink:title="This module provides interfaces that deal with additional structured domains in the folding grammar.">
<polygon fill="none" stroke="#000000" points="500.5,-123.5 500.5,-153.5 615.5,-153.5 615.5,-123.5 500.5,-123.5"/>
<text text-anchor="start" x="508.5" y="-141.5" font-family="Helvetica,sans-Serif" font-size="10.00" fill="#000000">ViennaRNA/structured</text>
<text text-anchor="middle" x="558" y="-130.5" font-family="Helvetica,sans-Serif" font-size="10.00" fill="#000000">_domains.h</text>
</a>
</g>
</g>
<!-- Node1&#45;&gt;Node11 -->
<g id="edge39" class="edge">
<title>Node1&#45;&gt;Node11</title>
<path fill="none" stroke="#191970" d="M622.5768,-313.3439C606.931,-305.8383 587.631,-293.8489 577,-277 555.1804,-242.4185 553.8511,-193.3681 555.4927,-163.8707"/>
<polygon fill="#191970" stroke="#191970" points="559.0053,-163.819 556.2308,-153.5939 552.0233,-163.3175 559.0053,-163.819"/>
</g>
<!-- Node12 -->
<g id="node13" class="node">
<title>Node12</title>
<g id="a_node13"><a xlink:href="$unstructured__domains_8h.html" xlink:title="Functions to modify unstructured domains, e.g. to incorporate ligands binding to unpaired stretches.">
<polygon fill="none" stroke="#000000" points="124.5,-123.5 124.5,-153.5 249.5,-153.5 249.5,-123.5 124.5,-123.5"/>
<text text-anchor="start" x="132.5" y="-141.5" font-family="Helvetica,sans-Serif" font-size="10.00" fill="#000000">ViennaRNA/unstructured</text>
<text text-anchor="middle" x="187" y="-130.5" font-family="Helvetica,sans-Serif" font-size="10.00" fill="#000000">_domains.h</text>
</a>
</g>
</g>
<!-- Node1&#45;&gt;Node12 -->
<g id="edge40" class="edge">
<title>Node1&#45;&gt;Node12</title>
<path fill="none" stroke="#191970" d="M573.7333,-317.2313C495.2231,-309.9127 376.6211,-295.9286 336,-277 282.9058,-252.2591 281.0646,-228.5931 237,-190 226.1326,-180.482 214.1229,-169.9935 204.4344,-160.9795"/>
<polygon fill="#191970" stroke="#191970" points="206.5694,-158.179 196.918,-153.8083 201.7372,-163.2437 206.5694,-158.179"/>
</g>
<!-- Node15 -->
<g id="node16" class="node">
<title>Node15</title>
<g id="a_node16"><a xlink:href="$sequence_8h.html" xlink:title="Functions and data structures related to sequence representations ,.">
<polygon fill="none" stroke="#000000" points="586,-257.5 586,-276.5 708,-276.5 708,-257.5 586,-257.5"/>
<text text-anchor="middle" x="647" y="-264.5" font-family="Helvetica,sans-Serif" font-size="10.00" fill="#000000">ViennaRNA/sequence.h</text>
</a>
</g>
</g>
<!-- Node1&#45;&gt;Node15 -->
<g id="edge33" class="edge">
<title>Node1&#45;&gt;Node15</title>
<path fill="none" stroke="#191970" d="M641.7332,-313.2455C640.3221,-305.9382 639.9179,-295.6944 640.5205,-286.7046"/>
<polygon fill="#191970" stroke="#191970" points="644.0111,-286.9945 641.7549,-276.6427 637.0632,-286.1421 644.0111,-286.9945"/>
</g>
<!-- Node3&#45;&gt;Node1 -->
<g id="edge31" class="edge">
<title>Node3&#45;&gt;Node1</title>
<path fill="none" stroke="#191970" d="M466.2218,-276.5011C505.8884,-285.9497 564.1846,-300.4845 603.8303,-310.7856"/>
<polygon fill="#191970" stroke="#191970" points="603.1751,-314.2318 613.7351,-313.3733 604.9445,-307.4591 603.1751,-314.2318"/>
</g>
<!-- Node3&#45;&gt;Node2 -->
<g id="edge32" class="edge">
<title>Node3&#45;&gt;Node2</title>
<path fill="none" stroke="#191970" d="M403.7367,-257.4808C371.623,-241.8722 304.8543,-210.5246 246,-190 232.1568,-185.1724 152.3902,-164.2515 99.8322,-150.6048"/>
<polygon fill="#191970" stroke="#191970" points="100.5927,-147.1863 90.0342,-148.0631 98.835,-153.962 100.5927,-147.1863"/>
</g>
<!-- Node4 -->
<g id="node5" class="node">
<title>Node4</title>
<g id="a_node5"><a xlink:href="$constants_8h.html" xlink:title="Energy parameter constants.">
<polygon fill="none" stroke="#000000" points="268,-129 268,-148 426,-148 426,-129 268,-129"/>
<text text-anchor="middle" x="347" y="-136" font-family="Helvetica,sans-Serif" font-size="10.00" fill="#000000">ViennaRNA/params/constants.h</text>
</a>
</g>
</g>
<!-- Node3&#45;&gt;Node4 -->
<g id="edge4" class="edge">
<title>Node3&#45;&gt;Node4</title>
<path fill="none" stroke="#191970" d="M414.3456,-257.222C406.6144,-248.2053 395.2658,-234.2504 387,-221 374.0929,-200.3095 362.3086,-174.8367 354.9258,-157.7157"/>
<polygon fill="#191970" stroke="#191970" points="358.0434,-156.1013 350.9271,-148.2522 351.5953,-158.8259 358.0434,-156.1013"/>
</g>
<!-- Node6 -->
<g id="node7" class="node">
<title>Node6</title>
<g id="a_node7"><a xlink:href="$datastructures_2basic_8h.html" xlink:title="Various data structures and pre&#45;processor macros.">
<polygon fill="none" stroke="#000000" points="396,-190.5 396,-220.5 530,-220.5 530,-190.5 396,-190.5"/>
<text text-anchor="start" x="404" y="-208.5" font-family="Helvetica,sans-Serif" font-size="10.00" fill="#000000">ViennaRNA/datastructures</text>
<text text-anchor="middle" x="463" y="-197.5" font-family="Helvetica,sans-Serif" font-size="10.00" fill="#000000">/basic.h</text>
</a>
</g>
</g>
<!-- Node3&#45;&gt;Node6 -->
<g id="edge6" class="edge">
<title>Node3&#45;&gt;Node6</title>
<path fill="none" stroke="#191970" d="M424.1875,-257.3906C427.6612,-249.761 434.3088,-238.7658 441.2337,-228.8588"/>
<polygon fill="#191970" stroke="#191970" points="444.2368,-230.6816 447.3178,-220.5446 438.5878,-226.5477 444.2368,-230.6816"/>
</g>
<!-- Node5 -->
<g id="node6" class="node">
<title>Node5</title>
<g id="a_node6"><a xlink:title=" ">
<polygon fill="none" stroke="#bfbfbf" points="323,-62 323,-81 371,-81 371,-62 323,-62"/>
<text text-anchor="middle" x="347" y="-69" font-family="Helvetica,sans-Serif" font-size="10.00" fill="#000000">limits.h</text>
</a>
</g>
</g>
<!-- Node4&#45;&gt;Node5 -->
<g id="edge5" class="edge">
<title>Node4&#45;&gt;Node5</title>
<path fill="none" stroke="#191970" d="M347,-128.9005C347,-119.149 347,-103.7597 347,-91.3695"/>
<polygon fill="#191970" stroke="#191970" points="350.5001,-91.0816 347,-81.0817 343.5001,-91.0817 350.5001,-91.0816"/>
</g>
<!-- Node6&#45;&gt;Node0 -->
<g id="edge22" class="edge">
<title>Node6&#45;&gt;Node0</title>
<path fill="none" stroke="#191970" d="M396.6,-220.5851C360.2416,-232.1459 326.0744,-250.632 345,-277 373.6631,-316.9348 507.9788,-350.564 587.5079,-367.4078"/>
<polygon fill="#191970" stroke="#191970" points="586.8944,-370.8552 597.3991,-369.4761 588.3272,-364.0034 586.8944,-370.8552"/>
</g>
<!-- Node6&#45;&gt;Node1 -->
<g id="edge8" class="edge">
<title>Node6&#45;&gt;Node1</title>
<path fill="none" stroke="#191970" d="M477.4057,-220.6917C492.7953,-236.2954 518.4435,-260.5612 544,-277 564.666,-290.293 589.8163,-301.6056 610.0911,-309.6858"/>
<polygon fill="#191970" stroke="#191970" points="609.0229,-313.0257 619.6115,-313.3874 611.5595,-306.5015 609.0229,-313.0257"/>
</g>
<!-- Node6&#45;&gt;Node2 -->
<g id="edge9" class="edge">
<title>Node6&#45;&gt;Node2</title>
<path fill="none" stroke="#191970" d="M395.9514,-197.5602C325.6265,-188.77 212.0475,-173.2637 115,-154 109.6266,-152.9334 104.0196,-151.7016 98.469,-150.4081"/>
<polygon fill="#191970" stroke="#191970" points="99.1426,-146.9704 88.6014,-148.0354 97.506,-153.7764 99.1426,-146.9704"/>
</g>
<!-- Node6&#45;&gt;Node3 -->
<g id="edge10" class="edge">
<title>Node6&#45;&gt;Node3</title>
<path fill="none" stroke="#191970" d="M459.112,-220.5446C454.4853,-229.2525 447.4191,-240.2574 440.6378,-249.3701"/>
<polygon fill="#191970" stroke="#191970" points="437.7568,-247.3712 434.3125,-257.3906 443.2532,-251.706 437.7568,-247.3712"/>
</g>
<!-- Node6&#45;&gt;Node4 -->
<g id="edge7" class="edge">
<title>Node6&#45;&gt;Node4</title>
<path fill="none" stroke="#191970" d="M436.9673,-190.4639C417.6794,-179.3234 391.5322,-164.2212 372.3972,-153.1691"/>
<polygon fill="#191970" stroke="#191970" points="374.0376,-150.0747 363.6277,-148.1039 370.5365,-156.1363 374.0376,-150.0747"/>
</g>
<!-- Node6&#45;&gt;Node7 -->
<g id="edge11" class="edge">
<title>Node6&#45;&gt;Node7</title>
<path fill="none" stroke="#191970" d="M530.1219,-198.7651C614.4469,-190.3582 763.2227,-174.5485 890,-154 897.2094,-152.8315 904.7779,-151.4508 912.3085,-150.0028"/>
<polygon fill="#191970" stroke="#191970" points="913.0132,-153.4314 922.1529,-148.0727 911.6663,-146.5621 913.0132,-153.4314"/>
</g>
<!-- Node6&#45;&gt;Node8 -->
<g id="edge14" class="edge">
<title>Node6&#45;&gt;Node8</title>
<path fill="none" stroke="#191970" d="M514.6165,-190.4639C549.1193,-180.4131 594.6921,-167.1375 631.1377,-156.5208"/>
<polygon fill="#191970" stroke="#191970" points="632.5363,-159.7589 641.1584,-153.6017 630.5785,-153.0382 632.5363,-159.7589"/>
</g>
<!-- Node6&#45;&gt;Node10 -->
<g id="edge18" class="edge">
<title>Node6&#45;&gt;Node10</title>
<path fill="none" stroke="#191970" d="M530.2665,-193.7976C589.1599,-184.0089 676.8136,-169.2328 753,-154 755.4415,-153.5118 757.9294,-153.0021 760.4453,-152.4774"/>
<polygon fill="#191970" stroke="#191970" points="761.1951,-155.8963 770.2487,-150.3934 759.7395,-149.0493 761.1951,-155.8963"/>
</g>
<!-- Node6&#45;&gt;Node11 -->
<g id="edge23" class="edge">
<title>Node6&#45;&gt;Node11</title>
<path fill="none" stroke="#191970" d="M484.557,-190.2967C497.4321,-181.2163 513.9755,-169.5488 528.1005,-159.587"/>
<polygon fill="#191970" stroke="#191970" points="530.3735,-162.2669 536.5283,-153.6432 526.339,-156.5464 530.3735,-162.2669"/>
</g>
<!-- Node6&#45;&gt;Node12 -->
<g id="edge24" class="edge">
<title>Node6&#45;&gt;Node12</title>
<path fill="none" stroke="#191970" d="M395.6734,-190.5473C352.2604,-180.3142 296.1236,-166.7094 252.9793,-155.9758"/>
<polygon fill="#191970" stroke="#191970" points="253.6957,-152.5473 243.1458,-153.5227 252.0013,-159.3392 253.6957,-152.5473"/>
</g>
<!-- Node13 -->
<g id="node14" class="node">
<title>Node13</title>
<g id="a_node14"><a xlink:href="$utils_2structures_8h.html" xlink:title="Various utility&#45; and helper&#45;functions for secondary structure parsing, converting,...">
<polygon fill="none" stroke="#000000" points="391,-62 391,-81 535,-81 535,-62 391,-62"/>
<text text-anchor="middle" x="463" y="-69" font-family="Helvetica,sans-Serif" font-size="10.00" fill="#000000">ViennaRNA/utils/structures.h</text>
</a>
</g>
</g>
<!-- Node6&#45;&gt;Node13 -->
<g id="edge30" class="edge">
<title>Node6&#45;&gt;Node13</title>
<path fill="none" stroke="#191970" d="M458.5366,-190.389C455.6616,-166.0735 455.4977,-118.2644 458.0448,-91.2698"/>
<polygon fill="#191970" stroke="#191970" points="461.5481,-91.4583 459.3025,-81.1042 454.6011,-90.5988 461.5481,-91.4583"/>
</g>
<!-- Node7&#45;&gt;Node1 -->
<g id="edge13" class="edge">
<title>Node7&#45;&gt;Node1</title>
<path fill="none" stroke="#191970" d="M966.8883,-148.0711C941.9033,-172.361 859.9336,-237.2804 783,-277 756.1164,-290.8796 724.0733,-302.4528 697.7474,-310.5191"/>
<polygon fill="#191970" stroke="#191970" points="696.5438,-307.2256 687.9603,-313.4364 698.5434,-313.9339 696.5438,-307.2256"/>
</g>
<!-- Node7&#45;&gt;Node6 -->
<g id="edge12" class="edge">
<title>Node7&#45;&gt;Node6</title>
<path fill="none" stroke="#191970" d="M939.624,-148.0727C929.48,-150.2 918.3685,-152.3194 908,-154 779.9504,-174.7547 629.4588,-190.6751 540.314,-199.016"/>
<polygon fill="#191970" stroke="#191970" points="539.9192,-195.5375 530.2854,-199.9464 540.566,-202.5075 539.9192,-195.5375"/>
</g>
<!-- Node8&#45;&gt;Node1 -->
<g id="edge15" class="edge">
<title>Node8&#45;&gt;Node1</title>
<path fill="none" stroke="#191970" d="M706.9494,-153.6532C724.3807,-180.2615 747.8978,-236.4072 726,-277 718.3542,-291.1733 704.2242,-301.6923 689.9221,-309.0663"/>
<polygon fill="#191970" stroke="#191970" points="688.1262,-306.043 680.5651,-313.4647 691.1041,-312.378 688.1262,-306.043"/>
</g>
<!-- Node9 -->
<g id="node10" class="node">
<title>Node9</title>
<g id="a_node10"><a xlink:href="$constraints_2basic_8h.html" xlink:title="Functions and data structures for constraining secondary structure predictions and evaluation.">
<polygon fill="none" stroke="#000000" points="770.5,-56.5 770.5,-86.5 889.5,-86.5 889.5,-56.5 770.5,-56.5"/>
<text text-anchor="start" x="778.5" y="-74.5" font-family="Helvetica,sans-Serif" font-size="10.00" fill="#000000">ViennaRNA/constraints</text>
<text text-anchor="middle" x="830" y="-63.5" font-family="Helvetica,sans-Serif" font-size="10.00" fill="#000000">/basic.h</text>
</a>
</g>
</g>
<!-- Node8&#45;&gt;Node9 -->
<g id="edge16" class="edge">
<title>Node8&#45;&gt;Node9</title>
<path fill="none" stroke="#191970" d="M723.7455,-123.4639C743.2624,-113.9191 768.7257,-101.4663 789.8325,-91.144"/>
<polygon fill="#191970" stroke="#191970" points="791.4375,-94.2552 798.8831,-86.7177 788.3622,-87.9669 791.4375,-94.2552"/>
</g>
<!-- Node9&#45;&gt;Node1 -->
<g id="edge17" class="edge">
<title>Node9&#45;&gt;Node1</title>
<path fill="none" stroke="#191970" d="M889.757,-77.2257C947.9137,-84.1798 1030.3193,-98.1802 1050,-123 1058.5604,-133.7957 1057.1549,-142.2257 1050,-154 983.0283,-264.2114 827.3133,-302.5735 730.2341,-315.9104"/>
<polygon fill="#191970" stroke="#191970" points="729.6133,-312.4618 720.1543,-317.2344 730.5249,-319.4022 729.6133,-312.4618"/>
</g>
<!-- Node10&#45;&gt;Node1 -->
<g id="edge20" class="edge">
<title>Node10&#45;&gt;Node1</title>
<path fill="none" stroke="#191970" d="M829.1118,-153.77C820.9818,-181.5698 792.4732,-240.8973 752,-277 735.8363,-291.4182 714.3518,-302.276 694.9425,-309.8114"/>
<polygon fill="#191970" stroke="#191970" points="693.4978,-306.6133 685.3183,-313.3473 695.9119,-313.1839 693.4978,-306.6133"/>
</g>
<!-- Node10&#45;&gt;Node6 -->
<g id="edge19" class="edge">
<title>Node10&#45;&gt;Node6</title>
<path fill="none" stroke="#191970" d="M773.1484,-153.5673C772.4288,-153.7133 771.7124,-153.8576 771,-154 692.9599,-169.6035 602.8877,-184.7276 540.3189,-194.5032"/>
<polygon fill="#191970" stroke="#191970" points="539.4762,-191.092 530.1318,-196.0852 540.5505,-198.0091 539.4762,-191.092"/>
</g>
<!-- Node10&#45;&gt;Node9 -->
<g id="edge21" class="edge">
<title>Node10&#45;&gt;Node9</title>
<path fill="none" stroke="#191970" d="M830,-123.2967C830,-115.5013 830,-105.7991 830,-96.9064"/>
<polygon fill="#191970" stroke="#191970" points="833.5001,-96.6431 830,-86.6432 826.5001,-96.6432 833.5001,-96.6431"/>
</g>
<!-- Node12&#45;&gt;Node1 -->
<g id="edge26" class="edge">
<title>Node12&#45;&gt;Node1</title>
<path fill="none" stroke="#191970" d="M211.931,-153.5831C225.0756,-163.8411 240.9875,-177.7274 255,-190 299.0646,-228.5931 300.9058,-252.2591 354,-277 390.6155,-294.0621 490.5908,-307.1067 563.6587,-314.8734"/>
<polygon fill="#191970" stroke="#191970" points="563.4705,-318.3728 573.7809,-315.9342 564.2002,-311.4109 563.4705,-318.3728"/>
</g>
<!-- Node12&#45;&gt;Node6 -->
<g id="edge25" class="edge">
<title>Node12&#45;&gt;Node6</title>
<path fill="none" stroke="#191970" d="M249.618,-152.3443C293.5813,-162.6787 352.2009,-176.8744 396.9082,-187.9962"/>
<polygon fill="#191970" stroke="#191970" points="396.2509,-191.4394 406.8007,-190.4639 397.9452,-184.6476 396.2509,-191.4394"/>
</g>
<!-- Node12&#45;&gt;Node13 -->
<g id="edge27" class="edge">
<title>Node12&#45;&gt;Node13</title>
<path fill="none" stroke="#191970" d="M248.9398,-123.4639C298.839,-111.3507 368.033,-94.5536 414.0949,-83.3719"/>
<polygon fill="#191970" stroke="#191970" points="414.9518,-86.7656 423.8439,-81.0053 413.3004,-79.9632 414.9518,-86.7656"/>
</g>
<!-- Node13&#45;&gt;Node6 -->
<g id="edge29" class="edge">
<title>Node13&#45;&gt;Node6</title>
<path fill="none" stroke="#191970" d="M466.6975,-81.1042C470.0786,-101.6073 470.6509,-150.2327 468.4144,-180.2559"/>
<polygon fill="#191970" stroke="#191970" points="464.9132,-180.1056 467.4634,-190.389 471.8826,-180.7598 464.9132,-180.1056"/>
</g>
<!-- Node14 -->
<g id="node15" class="node">
<title>Node14</title>
<g id="a_node15"><a xlink:title=" ">
<polygon fill="none" stroke="#bfbfbf" points="440,-.5 440,-19.5 486,-19.5 486,-.5 440,-.5"/>
<text text-anchor="middle" x="463" y="-7.5" font-family="Helvetica,sans-Serif" font-size="10.00" fill="#000000">stdio.h</text>
</a>
</g>
</g>
<!-- Node13&#45;&gt;Node14 -->
<g id="edge28" class="edge">
<title>Node13&#45;&gt;Node14</title>
<path fill="none" stroke="#191970" d="M463,-61.8906C463,-53.3657 463,-40.6392 463,-29.9235"/>
<polygon fill="#191970" stroke="#191970" points="466.5001,-29.7448 463,-19.7449 459.5001,-29.7449 466.5001,-29.7448"/>
</g>
<!-- Node15&#45;&gt;Node1 -->
<g id="edge34" class="edge">
<title>Node15&#45;&gt;Node1</title>
<path fill="none" stroke="#191970" d="M652.2451,-276.6427C653.6665,-283.9199 654.081,-294.155 653.4887,-303.1575"/>
<polygon fill="#191970" stroke="#191970" points="649.9947,-302.8972 652.2668,-313.2455 656.9439,-303.739 649.9947,-302.8972"/>
</g>
</g>
</svg>
