<?xml version="1.0" encoding="UTF-8" standalone="no"?>
<!DOCTYPE svg PUBLIC "-//W3C//DTD SVG 1.1//EN"
 "http://www.w3.org/Graphics/SVG/1.1/DTD/svg11.dtd">
<!-- Generated by graphviz version 2.40.1 (0)
 -->
<!-- Title: Extending the Folding Grammar with Additional Domains Pages: 1 -->
<svg width="458pt" height="64pt"
 viewBox="0.00 0.00 458.00 64.00" xmlns="http://www.w3.org/2000/svg" xmlns:xlink="http://www.w3.org/1999/xlink">
<g id="graph0" class="graph" transform="scale(1 1) rotate(0) translate(4 60)">
<title>Extending the Folding Grammar with Additional Domains</title>
<!-- Node3 -->
<g id="node1" class="node">
<title>Node3</title>
<g id="a_node1"><a xlink:href="$group__domains__struc.html" xlink:title="Add and modify structured domains to the RNA folding grammar.">
<polygon fill="none" stroke="#000000" points="444.5,-56 340.5,-56 340.5,-37 444.5,-37 444.5,-56"/>
<text text-anchor="middle" x="392.5" y="-44" font-family="Helvetica,sans-Serif" font-size="10.00" fill="#000000">Structured Domains</text>
</a>
</g>
</g>
<!-- Node1 -->
<g id="node2" class="node">
<title>Node1</title>
<g id="a_node2"><a xlink:href="$group__grammar.html" xlink:title="The RNA folding grammar as implemented in RNAlib.">
<polygon fill="none" stroke="#000000" points="136,-37 0,-37 0,-18 136,-18 136,-37"/>
<text text-anchor="middle" x="68" y="-25" font-family="Helvetica,sans-Serif" font-size="10.00" fill="#000000">The RNA Folding Grammar</text>
</a>
</g>
</g>
<!-- Node0 -->
<g id="node4" class="node">
<title>Node0</title>
<g id="a_node4"><a xlink:title="This module covers simple and straight&#45;forward extensions to the RNA folding grammar.">
<polygon fill="#bfbfbf" stroke="#000000" points="299,-48 172,-48 172,-7 299,-7 299,-48"/>
<text text-anchor="start" x="180" y="-36" font-family="Helvetica,sans-Serif" font-size="10.00" fill="#000000">Extending the Folding</text>
<text text-anchor="start" x="180" y="-25" font-family="Helvetica,sans-Serif" font-size="10.00" fill="#000000"> Grammar with Additional</text>
<text text-anchor="middle" x="235.5" y="-14" font-family="Helvetica,sans-Serif" font-size="10.00" fill="#000000"> Domains</text>
</a>
</g>
</g>
<!-- Node1&#45;&gt;Node0 -->
<g id="edge1" class="edge">
<title>Node1&#45;&gt;Node0</title>
<path fill="none" stroke="#000000" d="M146.143,-27.5C154.7231,-27.5 163.382,-27.5 171.7574,-27.5"/>
<polygon fill="#000000" stroke="#000000" points="146.1287,-24.0001 136.1287,-27.5 146.1286,-31.0001 146.1287,-24.0001"/>
</g>
<!-- Node2 -->
<g id="node3" class="node">
<title>Node2</title>
<g id="a_node3"><a xlink:href="$group__domains__up.html" xlink:title="Add and modify unstructured domains to the RNA folding grammar.">
<polygon fill="none" stroke="#000000" points="450,-19 335,-19 335,0 450,0 450,-19"/>
<text text-anchor="middle" x="392.5" y="-7" font-family="Helvetica,sans-Serif" font-size="10.00" fill="#000000">Unstructured Domains</text>
</a>
</g>
</g>
<!-- Node0&#45;&gt;Node3 -->
<g id="edge3" class="edge">
<title>Node0&#45;&gt;Node3</title>
<path fill="none" stroke="#000000" d="M309.3094,-36.4324C319.7498,-37.6958 330.3011,-38.9727 340.2213,-40.1733"/>
<polygon fill="#000000" stroke="#000000" points="309.706,-32.9549 299.3579,-35.228 308.8649,-39.9042 309.706,-32.9549"/>
</g>
<!-- Node0&#45;&gt;Node2 -->
<g id="edge2" class="edge">
<title>Node0&#45;&gt;Node2</title>
<path fill="none" stroke="#000000" d="M309.3256,-19.0359C317.8663,-18.0567 326.481,-17.0691 334.7635,-16.1195"/>
<polygon fill="#000000" stroke="#000000" points="308.8941,-15.5624 299.3579,-20.1787 309.6915,-22.5168 308.8941,-15.5624"/>
</g>
</g>
</svg>
