<?xml version="1.0" encoding="UTF-8" standalone="no"?>
<!DOCTYPE svg PUBLIC "-//W3C//DTD SVG 1.1//EN"
 "http://www.w3.org/Graphics/SVG/1.1/DTD/svg11.dtd">
<!-- Generated by graphviz version 2.40.1 (0)
 -->
<!-- Title: Global Partition Function and Equilibrium Probabilities Pages: 1 -->
<svg width="531pt" height="108pt"
 viewBox="0.00 0.00 531.00 108.00" xmlns="http://www.w3.org/2000/svg" xmlns:xlink="http://www.w3.org/1999/xlink">
<g id="graph0" class="graph" transform="scale(1 1) rotate(0) translate(4 104)">
<title>Global Partition Function and Equilibrium Probabilities</title>
<!-- Node1 -->
<g id="node1" class="node">
<title>Node1</title>
<g id="a_node1"><a xlink:href="$group__pf__fold.html" xlink:title="Compute the partition function to assess various equilibrium properties.">
<polygon fill="none" stroke="#000000" points="134,-64.5 0,-64.5 0,-34.5 134,-34.5 134,-64.5"/>
<text text-anchor="start" x="8" y="-52.5" font-family="Helvetica,sans-Serif" font-size="10.00" fill="#000000">Partition Function</text>
<text text-anchor="middle" x="67" y="-41.5" font-family="Helvetica,sans-Serif" font-size="10.00" fill="#000000"> and Equilibrium Properties</text>
</a>
</g>
</g>
<!-- Node0 -->
<g id="node4" class="node">
<title>Node0</title>
<g id="a_node4"><a xlink:title="Variations of the global partition function algorithm.">
<polygon fill="#bfbfbf" stroke="#000000" points="362,-64.5 219,-64.5 219,-34.5 362,-34.5 362,-64.5"/>
<text text-anchor="start" x="227" y="-52.5" font-family="Helvetica,sans-Serif" font-size="10.00" fill="#000000">Global Partition Function</text>
<text text-anchor="middle" x="290.5" y="-41.5" font-family="Helvetica,sans-Serif" font-size="10.00" fill="#000000"> and Equilibrium Probabilities</text>
</a>
</g>
</g>
<!-- Node1&#45;&gt;Node0 -->
<g id="edge1" class="edge">
<title>Node1&#45;&gt;Node0</title>
<path fill="none" stroke="#000000" d="M144.2632,-49.5C168.4536,-49.5 195.0343,-49.5 218.8225,-49.5"/>
<polygon fill="#000000" stroke="#000000" points="144.0574,-46.0001 134.0574,-49.5 144.0573,-53.0001 144.0574,-46.0001"/>
</g>
<!-- Node2 -->
<g id="node2" class="node">
<title>Node2</title>
<g id="a_node2"><a xlink:href="$group__kl__neighborhood__pf.html" xlink:title="Compute the partition function and stochastically sample secondary structures for a partitioning of t...">
<polygon fill="none" stroke="#000000" points="523,-100 399,-100 399,-59 523,-59 523,-100"/>
<text text-anchor="start" x="407" y="-88" font-family="Helvetica,sans-Serif" font-size="10.00" fill="#000000">Computing Partition</text>
<text text-anchor="start" x="407" y="-77" font-family="Helvetica,sans-Serif" font-size="10.00" fill="#000000"> Functions of a Distance</text>
<text text-anchor="middle" x="461" y="-66" font-family="Helvetica,sans-Serif" font-size="10.00" fill="#000000"> Based Partitioning</text>
</a>
</g>
</g>
<!-- Node3 -->
<g id="node3" class="node">
<title>Node3</title>
<g id="a_node3"><a xlink:href="$group__part__func__global__deprecated.html" xlink:title=" ">
<polygon fill="none" stroke="#000000" points="519,-41 403,-41 403,0 519,0 519,-41"/>
<text text-anchor="start" x="411" y="-29" font-family="Helvetica,sans-Serif" font-size="10.00" fill="#000000">Deprecated Interface</text>
<text text-anchor="start" x="411" y="-18" font-family="Helvetica,sans-Serif" font-size="10.00" fill="#000000"> for Global Partition</text>
<text text-anchor="middle" x="461" y="-7" font-family="Helvetica,sans-Serif" font-size="10.00" fill="#000000"> Function Computation</text>
</a>
</g>
</g>
<!-- Node0&#45;&gt;Node1 -->
<g id="edge4" class="edge">
<title>Node0&#45;&gt;Node1</title>
<path fill="none" stroke="#006400" stroke-dasharray="5,2" d="M218.8055,-37.283C212.7957,-36.5641 206.8015,-35.951 201,-35.5 179.2877,-33.8121 173.7053,-33.7245 152,-35.5 146.1867,-35.9755 140.1719,-36.6311 134.1519,-37.4008"/>
<text text-anchor="middle" x="176.5" y="-38.5" font-family="Helvetica,sans-Serif" font-size="10.00" fill="#000000">part_func.h</text>
</g>
<!-- Node0&#45;&gt;Node2 -->
<g id="edge2" class="edge">
<title>Node0&#45;&gt;Node2</title>
<path fill="none" stroke="#000000" d="M372.3803,-63.9071C381.3343,-65.4826 390.338,-67.0668 398.9953,-68.5901"/>
<polygon fill="#000000" stroke="#000000" points="372.7684,-60.4217 362.3132,-62.1358 371.5554,-67.3158 372.7684,-60.4217"/>
</g>
<!-- Node0&#45;&gt;Node3 -->
<g id="edge3" class="edge">
<title>Node0&#45;&gt;Node3</title>
<path fill="none" stroke="#000000" d="M372.2273,-35.5992C382.6112,-33.833 393.0648,-32.055 402.9707,-30.3701"/>
<polygon fill="#000000" stroke="#000000" points="371.5847,-32.1581 362.3132,-37.2854 372.7585,-39.059 371.5847,-32.1581"/>
</g>
</g>
</svg>
