<?xml version="1.0" encoding="UTF-8" standalone="no"?>
<!DOCTYPE svg PUBLIC "-//W3C//DTD SVG 1.1//EN"
 "http://www.w3.org/Graphics/SVG/1.1/DTD/svg11.dtd">
<!-- Generated by graphviz version 2.40.1 (0)
 -->
<!-- Title: Random Structure Samples from the Ensemble Pages: 1 -->
<svg width="515pt" height="98pt"
 viewBox="0.00 0.00 515.00 97.50" xmlns="http://www.w3.org/2000/svg" xmlns:xlink="http://www.w3.org/1999/xlink">
<g id="graph0" class="graph" transform="scale(1 1) rotate(0) translate(4 93.5)">
<title>Random Structure Samples from the Ensemble</title>
<!-- Node2 -->
<g id="node1" class="node">
<title>Node2</title>
<g id="a_node1"><a xlink:href="$group__kl__neighborhood__stochbt.html" xlink:title="Contains functions related to stochastic backtracking from a specified distance class.">
<polygon fill="none" stroke="#000000" points="507,-89.5 367,-89.5 367,-48.5 507,-48.5 507,-89.5"/>
<text text-anchor="start" x="375" y="-77.5" font-family="Helvetica,sans-Serif" font-size="10.00" fill="#000000">Stochastic Backtracking</text>
<text text-anchor="start" x="375" y="-66.5" font-family="Helvetica,sans-Serif" font-size="10.00" fill="#000000"> of Structures from Distance</text>
<text text-anchor="middle" x="437" y="-55.5" font-family="Helvetica,sans-Serif" font-size="10.00" fill="#000000"> Based Partitioning</text>
</a>
</g>
</g>
<!-- Node0 -->
<g id="node2" class="node">
<title>Node0</title>
<g id="a_node2"><a xlink:title="Functions to draw random structure samples from the ensemble according to their equilibrium probabili...">
<polygon fill="#bfbfbf" stroke="#000000" points="331,-57 194,-57 194,-27 331,-27 331,-57"/>
<text text-anchor="start" x="202" y="-45" font-family="Helvetica,sans-Serif" font-size="10.00" fill="#000000">Random Structure Samples</text>
<text text-anchor="middle" x="262.5" y="-34" font-family="Helvetica,sans-Serif" font-size="10.00" fill="#000000"> from the Ensemble</text>
</a>
</g>
</g>
<!-- Node0&#45;&gt;Node2 -->
<g id="edge2" class="edge">
<title>Node0&#45;&gt;Node2</title>
<path fill="none" stroke="#000000" d="M341.2057,-54.178C349.7756,-55.504 358.4565,-56.8471 366.9134,-58.1557"/>
<polygon fill="#000000" stroke="#000000" points="341.6341,-50.7027 331.2165,-52.6324 340.5637,-57.6204 341.6341,-50.7027"/>
</g>
<!-- Node3 -->
<g id="node4" class="node">
<title>Node3</title>
<g id="a_node4"><a xlink:href="$group__subopt__stochbt__deprecated.html" xlink:title=" ">
<polygon fill="none" stroke="#000000" points="507,-30 367,-30 367,0 507,0 507,-30"/>
<text text-anchor="start" x="375" y="-18" font-family="Helvetica,sans-Serif" font-size="10.00" fill="#000000">Deprecated Interface</text>
<text text-anchor="middle" x="437" y="-7" font-family="Helvetica,sans-Serif" font-size="10.00" fill="#000000"> for Stochastic Backtracking</text>
</a>
</g>
</g>
<!-- Node0&#45;&gt;Node3 -->
<g id="edge3" class="edge">
<title>Node0&#45;&gt;Node3</title>
<path fill="none" stroke="#000000" d="M341.2057,-29.822C349.7756,-28.496 358.4565,-27.1529 366.9134,-25.8443"/>
<polygon fill="#000000" stroke="#000000" points="340.5637,-26.3796 331.2165,-31.3676 341.6341,-33.2973 340.5637,-26.3796"/>
</g>
<!-- Node1 -->
<g id="node3" class="node">
<title>Node1</title>
<g id="a_node3"><a xlink:href="$group__subopt__and__representatives.html" xlink:title="Sample and enumerate suboptimal secondary structures from RNA sequence data.">
<polygon fill="none" stroke="#000000" points="158,-57 0,-57 0,-27 158,-27 158,-57"/>
<text text-anchor="start" x="8" y="-45" font-family="Helvetica,sans-Serif" font-size="10.00" fill="#000000">Suboptimals and Representative</text>
<text text-anchor="middle" x="79" y="-34" font-family="Helvetica,sans-Serif" font-size="10.00" fill="#000000"> Structures</text>
</a>
</g>
</g>
<!-- Node1&#45;&gt;Node0 -->
<g id="edge1" class="edge">
<title>Node1&#45;&gt;Node0</title>
<path fill="none" stroke="#000000" d="M168.2691,-42C176.9146,-42 185.5895,-42 193.9864,-42"/>
<polygon fill="#000000" stroke="#000000" points="168.152,-38.5001 158.1519,-42 168.1519,-45.5001 168.152,-38.5001"/>
</g>
</g>
</svg>
