<?xml version="1.0" encoding="UTF-8" standalone="no"?>
<!DOCTYPE svg PUBLIC "-//W3C//DTD SVG 1.1//EN"
 "http://www.w3.org/Graphics/SVG/1.1/DTD/svg11.dtd">
<!-- Generated by graphviz version 2.40.1 (0)
 -->
<!-- Title: Computing Partition Functions of a Distance Based Partitioning Pages: 1 -->
<svg width="335pt" height="86pt"
 viewBox="0.00 0.00 335.00 86.00" xmlns="http://www.w3.org/2000/svg" xmlns:xlink="http://www.w3.org/1999/xlink">
<g id="graph0" class="graph" transform="scale(1 1) rotate(0) translate(4 82)">
<title>Computing Partition Functions of a Distance Based Partitioning</title>
<!-- Node1 -->
<g id="node1" class="node">
<title>Node1</title>
<g id="a_node1"><a xlink:href="$group__kl__neighborhood.html" xlink:title=" ">
<polygon fill="none" stroke="#000000" points="167,-78 0,-78 0,-48 167,-48 167,-78"/>
<text text-anchor="start" x="8" y="-66" font-family="Helvetica,sans-Serif" font-size="10.00" fill="#000000">Distance Based Partitioning</text>
<text text-anchor="middle" x="83.5" y="-55" font-family="Helvetica,sans-Serif" font-size="10.00" fill="#000000"> of the Secondary Structure Space</text>
</a>
</g>
</g>
<!-- Node0 -->
<g id="node2" class="node">
<title>Node0</title>
<g id="a_node2"><a xlink:title="Compute the partition function and stochastically sample secondary structures for a partitioning of t...">
<polygon fill="#bfbfbf" stroke="#000000" points="327,-59.5 203,-59.5 203,-18.5 327,-18.5 327,-59.5"/>
<text text-anchor="start" x="211" y="-47.5" font-family="Helvetica,sans-Serif" font-size="10.00" fill="#000000">Computing Partition</text>
<text text-anchor="start" x="211" y="-36.5" font-family="Helvetica,sans-Serif" font-size="10.00" fill="#000000"> Functions of a Distance</text>
<text text-anchor="middle" x="265" y="-25.5" font-family="Helvetica,sans-Serif" font-size="10.00" fill="#000000"> Based Partitioning</text>
</a>
</g>
</g>
<!-- Node1&#45;&gt;Node0 -->
<g id="edge1" class="edge">
<title>Node1&#45;&gt;Node0</title>
<path fill="none" stroke="#000000" d="M177.2258,-50.6065C185.872,-49.4632 194.4822,-48.3247 202.7419,-47.2325"/>
<polygon fill="#000000" stroke="#000000" points="176.533,-47.1676 167.0782,-51.9483 177.4507,-54.1071 176.533,-47.1676"/>
</g>
<!-- Node2 -->
<g id="node3" class="node">
<title>Node2</title>
<g id="a_node3"><a xlink:href="$group__part__func__global.html" xlink:title="Variations of the global partition function algorithm.">
<polygon fill="none" stroke="#000000" points="155,-30 12,-30 12,0 155,0 155,-30"/>
<text text-anchor="start" x="20" y="-18" font-family="Helvetica,sans-Serif" font-size="10.00" fill="#000000">Global Partition Function</text>
<text text-anchor="middle" x="83.5" y="-7" font-family="Helvetica,sans-Serif" font-size="10.00" fill="#000000"> and Equilibrium Probabilities</text>
</a>
</g>
</g>
<!-- Node2&#45;&gt;Node0 -->
<g id="edge2" class="edge">
<title>Node2&#45;&gt;Node0</title>
<path fill="none" stroke="#000000" d="M165.2914,-25.8154C177.9186,-27.4851 190.7794,-29.1857 202.8831,-30.7862"/>
<polygon fill="#000000" stroke="#000000" points="165.6062,-22.3266 155.2336,-24.4854 164.6885,-29.2662 165.6062,-22.3266"/>
</g>
</g>
</svg>
