<?xml version="1.0" encoding="UTF-8" standalone="no"?>
<!DOCTYPE svg PUBLIC "-//W3C//DTD SVG 1.1//EN"
 "http://www.w3.org/Graphics/SVG/1.1/DTD/svg11.dtd">
<!-- Generated by graphviz version 2.40.1 (0)
 -->
<!-- Title: Minimum Free Energy (MFE) Algorithms Pages: 1 -->
<svg width="364pt" height="128pt"
 viewBox="0.00 0.00 364.00 128.50" xmlns="http://www.w3.org/2000/svg" xmlns:xlink="http://www.w3.org/1999/xlink">
<g id="graph0" class="graph" transform="scale(1 1) rotate(0) translate(4 124.4991)">
<title>Minimum Free Energy (MFE) Algorithms</title>
<!-- Node1 -->
<g id="node1" class="node">
<title>Node1</title>
<g id="a_node1"><a xlink:href="$group__mfe__global.html" xlink:title="Variations of the global Minimum Free Energy (MFE) prediction algorithm.">
<polygon fill="none" stroke="#000000" points="341.5,-117 226.5,-117 226.5,-98 341.5,-98 341.5,-117"/>
<text text-anchor="middle" x="284" y="-105" font-family="Helvetica,sans-Serif" font-size="10.00" fill="#000000">Global MFE Prediction</text>
</a>
</g>
</g>
<!-- Node2 -->
<g id="node2" class="node">
<title>Node2</title>
<g id="a_node2"><a xlink:href="$group__mfe__window.html" xlink:title="Variations of the local (sliding window) Minimum Free Energy (MFE) prediction algorithm.">
<polygon fill="none" stroke="#000000" points="340.5,-76.5 227.5,-76.5 227.5,-46.5 340.5,-46.5 340.5,-76.5"/>
<text text-anchor="start" x="235.5" y="-64.5" font-family="Helvetica,sans-Serif" font-size="10.00" fill="#000000">Local (sliding window)</text>
<text text-anchor="middle" x="284" y="-53.5" font-family="Helvetica,sans-Serif" font-size="10.00" fill="#000000"> MFE Prediction</text>
</a>
</g>
</g>
<!-- Node0 -->
<g id="node3" class="node">
<title>Node0</title>
<g id="a_node3"><a xlink:title="Predicting the Minimum Free Energy (MFE) and a corresponding (consensus) secondary structure.">
<polygon fill="#bfbfbf" stroke="#000000" points="113,-83.5 0,-83.5 0,-53.5 113,-53.5 113,-83.5"/>
<text text-anchor="start" x="8" y="-71.5" font-family="Helvetica,sans-Serif" font-size="10.00" fill="#000000">Minimum Free Energy</text>
<text text-anchor="middle" x="56.5" y="-60.5" font-family="Helvetica,sans-Serif" font-size="10.00" fill="#000000"> (MFE) Algorithms</text>
</a>
</g>
</g>
<!-- Node0&#45;&gt;Node1 -->
<g id="edge1" class="edge">
<title>Node0&#45;&gt;Node1</title>
<path fill="none" stroke="#000000" d="M83.3721,-89.6249C96.8557,-98.8973 113.925,-108.7433 131,-113.5 164.6743,-122.8808 204.1239,-121.0412 234.5304,-117.0331"/>
<polygon fill="#000000" stroke="#000000" points="85.2327,-86.6524 75.0652,-83.6736 81.1559,-92.3427 85.2327,-86.6524"/>
</g>
<!-- Node0&#45;&gt;Node1 -->
<g id="edge4" class="edge">
<title>Node0&#45;&gt;Node1</title>
<path fill="none" stroke="#006400" stroke-dasharray="5,2" d="M113.0283,-78.1906C148.2959,-84.2364 193.4868,-91.9834 228.5496,-97.9942"/>
<text text-anchor="middle" x="162.5" y="-93.5" font-family="Helvetica,sans-Serif" font-size="10.00" fill="#000000">mfe.h</text>
</g>
<!-- Node0&#45;&gt;Node2 -->
<g id="edge2" class="edge">
<title>Node0&#45;&gt;Node2</title>
<path fill="none" stroke="#000000" d="M123.0761,-66.4515C156.1739,-65.4331 195.7474,-64.2155 227.3683,-63.2425"/>
<polygon fill="#000000" stroke="#000000" points="122.9159,-62.9547 113.0283,-66.7607 123.1312,-69.9514 122.9159,-62.9547"/>
</g>
<!-- Node0&#45;&gt;Node2 -->
<g id="edge5" class="edge">
<title>Node0&#45;&gt;Node2</title>
<path fill="none" stroke="#006400" stroke-dasharray="5,2" d="M105.4225,-53.4187C113.876,-51.3747 122.6355,-49.6032 131,-48.5 162.7152,-44.317 198.3155,-46.912 227.1901,-50.8497"/>
<text text-anchor="middle" x="162.5" y="-51.5" font-family="Helvetica,sans-Serif" font-size="10.00" fill="#000000">mfe_window.h</text>
</g>
<!-- Node3 -->
<g id="node4" class="node">
<title>Node3</title>
<g id="a_node4"><a xlink:href="$group__mfe__backtracking.html" xlink:title="Backtracking related interfaces.">
<polygon fill="none" stroke="#000000" points="356,-19 212,-19 212,0 356,0 356,-19"/>
<text text-anchor="middle" x="284" y="-7" font-family="Helvetica,sans-Serif" font-size="10.00" fill="#000000">Backtracking MFE structures</text>
</a>
</g>
</g>
<!-- Node0&#45;&gt;Node3 -->
<g id="edge3" class="edge">
<title>Node0&#45;&gt;Node3</title>
<path fill="none" stroke="#000000" d="M104.5093,-49.9756C113.2534,-46.9243 122.3468,-43.9596 131,-41.5 163.107,-32.3739 199.6813,-24.6302 229.0181,-19.0473"/>
<polygon fill="#000000" stroke="#000000" points="103.0666,-46.7743 94.8274,-53.4351 105.4221,-53.3661 103.0666,-46.7743"/>
</g>
</g>
</svg>
