<?xml version="1.0" encoding="UTF-8" standalone="no"?>
<!DOCTYPE svg PUBLIC "-//W3C//DTD SVG 1.1//EN"
 "http://www.w3.org/Graphics/SVG/1.1/DTD/svg11.dtd">
<!-- Generated by graphviz version 2.40.1 (0)
 -->
<!-- Title: Utilities to deal with Nucleotide Alphabets Pages: 1 -->
<svg width="258pt" height="45pt"
 viewBox="0.00 0.00 258.00 45.00" xmlns="http://www.w3.org/2000/svg" xmlns:xlink="http://www.w3.org/1999/xlink">
<g id="graph0" class="graph" transform="scale(1 1) rotate(0) translate(4 41)">
<title>Utilities to deal with Nucleotide Alphabets</title>
<!-- Node0 -->
<g id="node1" class="node">
<title>Node0</title>
<g id="a_node1"><a xlink:title="Functions to cope with various aspects related to the nucleotide sequence alphabet.">
<polygon fill="#bfbfbf" stroke="#000000" points="113,-30 0,-30 0,0 113,0 113,-30"/>
<text text-anchor="start" x="8" y="-18" font-family="Helvetica,sans-Serif" font-size="10.00" fill="#000000">Utilities to deal with</text>
<text text-anchor="middle" x="56.5" y="-7" font-family="Helvetica,sans-Serif" font-size="10.00" fill="#000000"> Nucleotide Alphabets</text>
</a>
</g>
</g>
<!-- Node1 -->
<g id="node2" class="node">
<title>Node1</title>
<g id="a_node2"><a xlink:href="$group__utils.html" xlink:title=" ">
<polygon fill="none" stroke="#000000" points="250,-24.5 200,-24.5 200,-5.5 250,-5.5 250,-24.5"/>
<text text-anchor="middle" x="225" y="-12.5" font-family="Helvetica,sans-Serif" font-size="10.00" fill="#000000">Utilities</text>
</a>
</g>
</g>
<!-- Node0&#45;&gt;Node1 -->
<g id="edge2" class="edge">
<title>Node0&#45;&gt;Node1</title>
<path fill="none" stroke="#006400" stroke-dasharray="5,2" d="M113.0768,-15C142.5239,-15 177.0449,-15 199.8791,-15"/>
<text text-anchor="middle" x="156.5" y="-29" font-family="Helvetica,sans-Serif" font-size="10.00" fill="#000000">alphabet.h</text>
<text text-anchor="middle" x="156.5" y="-18" font-family="Helvetica,sans-Serif" font-size="10.00" fill="#000000">sequence.h</text>
</g>
<!-- Node1&#45;&gt;Node0 -->
<g id="edge1" class="edge">
<title>Node1&#45;&gt;Node0</title>
<path fill="none" stroke="#000000" d="M189.834,-13.2307C187.1835,-13.1383 184.5496,-13.0593 182,-13 159.4524,-12.4759 134.623,-12.7025 113.0423,-13.1585"/>
<polygon fill="#000000" stroke="#000000" points="189.8625,-16.7346 199.9954,-13.6403 190.1445,-9.7403 189.8625,-16.7346"/>
</g>
</g>
</svg>
