<?xml version="1.0" encoding="UTF-8" standalone="no"?>
<!DOCTYPE svg PUBLIC "-//W3C//DTD SVG 1.1//EN"
 "http://www.w3.org/Graphics/SVG/1.1/DTD/svg11.dtd">
<!-- Generated by graphviz version 2.40.1 (0)
 -->
<!-- Title: Distance Based Partitioning of the Secondary Structure Space Pages: 1 -->
<svg width="524pt" height="157pt"
 viewBox="0.00 0.00 524.00 156.50" xmlns="http://www.w3.org/2000/svg" xmlns:xlink="http://www.w3.org/1999/xlink">
<g id="graph0" class="graph" transform="scale(1 1) rotate(0) translate(4 152.5)">
<title>Distance Based Partitioning of the Secondary Structure Space</title>
<!-- Node4 -->
<g id="node1" class="node">
<title>Node4</title>
<g id="a_node1"><a xlink:href="$group__kl__neighborhood__stochbt.html" xlink:title="Contains functions related to stochastic backtracking from a specified distance class.">
<polygon fill="none" stroke="#000000" points="505.5,-148.5 365.5,-148.5 365.5,-107.5 505.5,-107.5 505.5,-148.5"/>
<text text-anchor="start" x="373.5" y="-136.5" font-family="Helvetica,sans-Serif" font-size="10.00" fill="#000000">Stochastic Backtracking</text>
<text text-anchor="start" x="373.5" y="-125.5" font-family="Helvetica,sans-Serif" font-size="10.00" fill="#000000"> of Structures from Distance</text>
<text text-anchor="middle" x="435.5" y="-114.5" font-family="Helvetica,sans-Serif" font-size="10.00" fill="#000000"> Based Partitioning</text>
</a>
</g>
</g>
<!-- Node1 -->
<g id="node2" class="node">
<title>Node1</title>
<g id="a_node2"><a xlink:href="$group__class__fold.html" xlink:title=" ">
<polygon fill="none" stroke="#000000" points="116,-84 0,-84 0,-54 116,-54 116,-84"/>
<text text-anchor="start" x="8" y="-72" font-family="Helvetica,sans-Serif" font-size="10.00" fill="#000000">Classified Dynamic</text>
<text text-anchor="middle" x="58" y="-61" font-family="Helvetica,sans-Serif" font-size="10.00" fill="#000000"> Programming Variants</text>
</a>
</g>
</g>
<!-- Node0 -->
<g id="node3" class="node">
<title>Node0</title>
<g id="a_node3"><a xlink:title=" ">
<polygon fill="#bfbfbf" stroke="#000000" points="319,-84 152,-84 152,-54 319,-54 319,-84"/>
<text text-anchor="start" x="160" y="-72" font-family="Helvetica,sans-Serif" font-size="10.00" fill="#000000">Distance Based Partitioning</text>
<text text-anchor="middle" x="235.5" y="-61" font-family="Helvetica,sans-Serif" font-size="10.00" fill="#000000"> of the Secondary Structure Space</text>
</a>
</g>
</g>
<!-- Node1&#45;&gt;Node0 -->
<g id="edge1" class="edge">
<title>Node1&#45;&gt;Node0</title>
<path fill="none" stroke="#000000" d="M126.1996,-69C134.586,-69 143.2315,-69 151.8137,-69"/>
<polygon fill="#000000" stroke="#000000" points="126.1202,-65.5001 116.1201,-69 126.1201,-72.5001 126.1202,-65.5001"/>
</g>
<!-- Node0&#45;&gt;Node4 -->
<g id="edge4" class="edge">
<title>Node0&#45;&gt;Node4</title>
<path fill="none" stroke="#000000" d="M296.3248,-86.9433C318.2363,-93.4072 343.1284,-100.7504 365.7428,-107.4216"/>
<polygon fill="#000000" stroke="#000000" points="297.0676,-83.5134 286.4859,-84.0408 295.087,-90.2273 297.0676,-83.5134"/>
</g>
<!-- Node3 -->
<g id="node4" class="node">
<title>Node3</title>
<g id="a_node4"><a xlink:href="$group__kl__neighborhood__pf.html" xlink:title="Compute the partition function and stochastically sample secondary structures for a partitioning of t...">
<polygon fill="none" stroke="#000000" points="497.5,-89.5 373.5,-89.5 373.5,-48.5 497.5,-48.5 497.5,-89.5"/>
<text text-anchor="start" x="381.5" y="-77.5" font-family="Helvetica,sans-Serif" font-size="10.00" fill="#000000">Computing Partition</text>
<text text-anchor="start" x="381.5" y="-66.5" font-family="Helvetica,sans-Serif" font-size="10.00" fill="#000000"> Functions of a Distance</text>
<text text-anchor="middle" x="435.5" y="-55.5" font-family="Helvetica,sans-Serif" font-size="10.00" fill="#000000"> Based Partitioning</text>
</a>
</g>
</g>
<!-- Node0&#45;&gt;Node3 -->
<g id="edge3" class="edge">
<title>Node0&#45;&gt;Node3</title>
<path fill="none" stroke="#000000" d="M329.4568,-69C344.3966,-69 359.5169,-69 373.4774,-69"/>
<polygon fill="#000000" stroke="#000000" points="329.1592,-65.5001 319.1592,-69 329.1591,-72.5001 329.1592,-65.5001"/>
</g>
<!-- Node2 -->
<g id="node5" class="node">
<title>Node2</title>
<g id="a_node5"><a xlink:href="$group__kl__neighborhood__mfe.html" xlink:title="Compute the minimum free energy (MFE) and secondary structures for a partitioning of the secondary st...">
<polygon fill="none" stroke="#000000" points="516,-30 355,-30 355,0 516,0 516,-30"/>
<text text-anchor="start" x="363" y="-18" font-family="Helvetica,sans-Serif" font-size="10.00" fill="#000000">Computing MFE representatives</text>
<text text-anchor="middle" x="435.5" y="-7" font-family="Helvetica,sans-Serif" font-size="10.00" fill="#000000"> of a Distance Based Partitioning</text>
</a>
</g>
</g>
<!-- Node0&#45;&gt;Node2 -->
<g id="edge2" class="edge">
<title>Node0&#45;&gt;Node2</title>
<path fill="none" stroke="#000000" d="M301.1374,-51.2779C326.5567,-44.4147 355.3483,-36.641 379.7411,-30.0549"/>
<polygon fill="#000000" stroke="#000000" points="299.9531,-47.9723 291.2112,-53.958 301.7778,-54.7303 299.9531,-47.9723"/>
</g>
</g>
</svg>
