<?xml version="1.0" encoding="UTF-8" standalone="no"?>
<!DOCTYPE svg PUBLIC "-//W3C//DTD SVG 1.1//EN"
 "http://www.w3.org/Graphics/SVG/1.1/DTD/svg11.dtd">
<!-- Generated by graphviz version 2.40.1 (0)
 -->
<!-- Title: The RNA Secondary Structure Landscape Pages: 1 -->
<svg width="343pt" height="108pt"
 viewBox="0.00 0.00 343.00 108.00" xmlns="http://www.w3.org/2000/svg" xmlns:xlink="http://www.w3.org/1999/xlink">
<g id="graph0" class="graph" transform="scale(1 1) rotate(0) translate(4 104)">
<title>The RNA Secondary Structure Landscape</title>
<!-- Node1 -->
<g id="node1" class="node">
<title>Node1</title>
<g id="a_node1"><a xlink:href="$group__neighbors.html" xlink:title="Different functions to generate structural neighbors of a secondary structure according to a particul...">
<polygon fill="none" stroke="#000000" points="335,-100 186,-100 186,-59 335,-59 335,-100"/>
<text text-anchor="start" x="194" y="-88" font-family="Helvetica,sans-Serif" font-size="10.00" fill="#000000">Neighborhood Relation</text>
<text text-anchor="start" x="194" y="-77" font-family="Helvetica,sans-Serif" font-size="10.00" fill="#000000"> and Move Sets for Secondary</text>
<text text-anchor="middle" x="260.5" y="-66" font-family="Helvetica,sans-Serif" font-size="10.00" fill="#000000"> Structures</text>
</a>
</g>
</g>
<!-- Node2 -->
<g id="node2" class="node">
<title>Node2</title>
<g id="a_node2"><a xlink:href="$group__paths.html" xlink:title="API for various RNA folding path algorithms.">
<polygon fill="none" stroke="#000000" points="328.5,-41 192.5,-41 192.5,0 328.5,0 328.5,-41"/>
<text text-anchor="start" x="200.5" y="-29" font-family="Helvetica,sans-Serif" font-size="10.00" fill="#000000">(Re&#45;)folding Paths,</text>
<text text-anchor="start" x="200.5" y="-18" font-family="Helvetica,sans-Serif" font-size="10.00" fill="#000000"> Saddle Points, Energy</text>
<text text-anchor="middle" x="260.5" y="-7" font-family="Helvetica,sans-Serif" font-size="10.00" fill="#000000"> Barriers, and Local Minima</text>
</a>
</g>
</g>
<!-- Node0 -->
<g id="node3" class="node">
<title>Node0</title>
<g id="a_node3"><a xlink:title=" ">
<polygon fill="#bfbfbf" stroke="#000000" points="150,-64.5 0,-64.5 0,-34.5 150,-34.5 150,-64.5"/>
<text text-anchor="start" x="8" y="-52.5" font-family="Helvetica,sans-Serif" font-size="10.00" fill="#000000">The RNA Secondary Structure</text>
<text text-anchor="middle" x="75" y="-41.5" font-family="Helvetica,sans-Serif" font-size="10.00" fill="#000000"> Landscape</text>
</a>
</g>
</g>
<!-- Node0&#45;&gt;Node1 -->
<g id="edge1" class="edge">
<title>Node0&#45;&gt;Node1</title>
<path fill="none" stroke="#000000" d="M160.1719,-63.2744C168.7302,-64.6585 177.3752,-66.0566 185.8128,-67.4212"/>
<polygon fill="#000000" stroke="#000000" points="160.6131,-59.8004 150.1825,-61.6589 159.4955,-66.7106 160.6131,-59.8004"/>
</g>
<!-- Node0&#45;&gt;Node2 -->
<g id="edge2" class="edge">
<title>Node0&#45;&gt;Node2</title>
<path fill="none" stroke="#000000" d="M160.0717,-36.2004C170.9016,-34.5073 181.872,-32.7922 192.387,-31.1484"/>
<polygon fill="#000000" stroke="#000000" points="159.5219,-32.7437 150.1825,-37.7464 160.6032,-39.6597 159.5219,-32.7437"/>
</g>
</g>
</svg>
