<?xml version="1.0" encoding="UTF-8" standalone="no"?>
<!DOCTYPE svg PUBLIC "-//W3C//DTD SVG 1.1//EN"
 "http://www.w3.org/Graphics/SVG/1.1/DTD/svg11.dtd">
<!-- Generated by graphviz version 2.40.1 (0)
 -->
<!-- Title: Suboptimals and Representative Structures Pages: 1 -->
<svg width="339pt" height="264pt"
 viewBox="0.00 0.00 339.00 264.00" xmlns="http://www.w3.org/2000/svg" xmlns:xlink="http://www.w3.org/1999/xlink">
<g id="graph0" class="graph" transform="scale(1 1) rotate(0) translate(4 260)">
<title>Suboptimals and Representative Structures</title>
<!-- Node1 -->
<g id="node1" class="node">
<title>Node1</title>
<g id="a_node1"><a xlink:href="$group__subopt__zuker.html" xlink:title=" ">
<polygon fill="none" stroke="#000000" points="324,-256 201,-256 201,-215 324,-215 324,-256"/>
<text text-anchor="start" x="209" y="-244" font-family="Helvetica,sans-Serif" font-size="10.00" fill="#000000">Suboptimal Structures</text>
<text text-anchor="start" x="209" y="-233" font-family="Helvetica,sans-Serif" font-size="10.00" fill="#000000"> sensu Stiegler et al.</text>
<text text-anchor="middle" x="262.5" y="-222" font-family="Helvetica,sans-Serif" font-size="10.00" fill="#000000"> 1984 / Zuker et al. 1989</text>
</a>
</g>
</g>
<!-- Node4 -->
<g id="node2" class="node">
<title>Node4</title>
<g id="a_node2"><a xlink:href="$group__mea__fold.html" xlink:title=" ">
<polygon fill="none" stroke="#000000" points="326.5,-197 198.5,-197 198.5,-156 326.5,-156 326.5,-197"/>
<text text-anchor="start" x="206.5" y="-185" font-family="Helvetica,sans-Serif" font-size="10.00" fill="#000000">Compute the Structure</text>
<text text-anchor="start" x="206.5" y="-174" font-family="Helvetica,sans-Serif" font-size="10.00" fill="#000000"> with Maximum Expected</text>
<text text-anchor="middle" x="262.5" y="-163" font-family="Helvetica,sans-Serif" font-size="10.00" fill="#000000"> Accuracy (MEA)</text>
</a>
</g>
</g>
<!-- Node3 -->
<g id="node3" class="node">
<title>Node3</title>
<g id="a_node3"><a xlink:href="$group__subopt__stochbt.html" xlink:title="Functions to draw random structure samples from the ensemble according to their equilibrium probabili...">
<polygon fill="none" stroke="#000000" points="331,-137.5 194,-137.5 194,-107.5 331,-107.5 331,-137.5"/>
<text text-anchor="start" x="202" y="-125.5" font-family="Helvetica,sans-Serif" font-size="10.00" fill="#000000">Random Structure Samples</text>
<text text-anchor="middle" x="262.5" y="-114.5" font-family="Helvetica,sans-Serif" font-size="10.00" fill="#000000"> from the Ensemble</text>
</a>
</g>
</g>
<!-- Node5 -->
<g id="node4" class="node">
<title>Node5</title>
<g id="a_node4"><a xlink:href="$group__centroid__fold.html" xlink:title=" ">
<polygon fill="none" stroke="#000000" points="319,-89.5 206,-89.5 206,-59.5 319,-59.5 319,-89.5"/>
<text text-anchor="start" x="214" y="-77.5" font-family="Helvetica,sans-Serif" font-size="10.00" fill="#000000">Compute the Centroid</text>
<text text-anchor="middle" x="262.5" y="-66.5" font-family="Helvetica,sans-Serif" font-size="10.00" fill="#000000"> Structure</text>
</a>
</g>
</g>
<!-- Node0 -->
<g id="node5" class="node">
<title>Node0</title>
<g id="a_node5"><a xlink:title="Sample and enumerate suboptimal secondary structures from RNA sequence data.">
<polygon fill="#bfbfbf" stroke="#000000" points="158,-137.5 0,-137.5 0,-107.5 158,-107.5 158,-137.5"/>
<text text-anchor="start" x="8" y="-125.5" font-family="Helvetica,sans-Serif" font-size="10.00" fill="#000000">Suboptimals and Representative</text>
<text text-anchor="middle" x="79" y="-114.5" font-family="Helvetica,sans-Serif" font-size="10.00" fill="#000000"> Structures</text>
</a>
</g>
</g>
<!-- Node0&#45;&gt;Node1 -->
<g id="edge1" class="edge">
<title>Node0&#45;&gt;Node1</title>
<path fill="none" stroke="#000000" d="M104.5953,-143.8639C127.1631,-162.0338 161.4338,-188.0406 194,-206.5 199.168,-209.4294 204.6905,-212.2424 210.2732,-214.8862"/>
<polygon fill="#000000" stroke="#000000" points="106.8018,-141.1471 96.8352,-137.5529 102.3851,-146.5778 106.8018,-141.1471"/>
</g>
<!-- Node0&#45;&gt;Node4 -->
<g id="edge4" class="edge">
<title>Node0&#45;&gt;Node4</title>
<path fill="none" stroke="#000000" d="M139.7306,-140.3717C158.4979,-145.8945 179.2277,-151.9948 198.226,-157.5856"/>
<polygon fill="#000000" stroke="#000000" points="140.6963,-137.0075 130.115,-137.542 138.7201,-143.7228 140.6963,-137.0075"/>
</g>
<!-- Node0&#45;&gt;Node3 -->
<g id="edge3" class="edge">
<title>Node0&#45;&gt;Node3</title>
<path fill="none" stroke="#000000" d="M168.2691,-122.5C176.9146,-122.5 185.5895,-122.5 193.9864,-122.5"/>
<polygon fill="#000000" stroke="#000000" points="168.152,-119.0001 158.1519,-122.5 168.1519,-126.0001 168.152,-119.0001"/>
</g>
<!-- Node0&#45;&gt;Node5 -->
<g id="edge5" class="edge">
<title>Node0&#45;&gt;Node5</title>
<path fill="none" stroke="#000000" d="M146.3018,-104.8952C165.8343,-99.7858 186.9615,-94.2594 205.7764,-89.3378"/>
<polygon fill="#000000" stroke="#000000" points="145.3458,-101.5274 136.5571,-107.4442 147.1173,-108.2995 145.3458,-101.5274"/>
</g>
<!-- Node2 -->
<g id="node6" class="node">
<title>Node2</title>
<g id="a_node6"><a xlink:href="$group__subopt__wuchty.html" xlink:title=" ">
<polygon fill="none" stroke="#000000" points="321.5,-41 203.5,-41 203.5,0 321.5,0 321.5,-41"/>
<text text-anchor="start" x="211.5" y="-29" font-family="Helvetica,sans-Serif" font-size="10.00" fill="#000000">Suboptimal Structures</text>
<text text-anchor="start" x="211.5" y="-18" font-family="Helvetica,sans-Serif" font-size="10.00" fill="#000000"> within an Energy Band</text>
<text text-anchor="middle" x="262.5" y="-7" font-family="Helvetica,sans-Serif" font-size="10.00" fill="#000000"> around the MFE</text>
</a>
</g>
</g>
<!-- Node0&#45;&gt;Node2 -->
<g id="edge2" class="edge">
<title>Node0&#45;&gt;Node2</title>
<path fill="none" stroke="#000000" d="M109.4461,-101.7213C132.2172,-86.6082 164.398,-66.1409 194,-50.5 200.0839,-47.2854 206.5847,-44.1161 213.0691,-41.1109"/>
<polygon fill="#000000" stroke="#000000" points="107.2711,-98.9652 100.9034,-107.4329 111.1619,-104.7844 107.2711,-98.9652"/>
</g>
</g>
</svg>
