<?xml version="1.0" encoding="UTF-8" standalone="no"?>
<!DOCTYPE svg PUBLIC "-//W3C//DTD SVG 1.1//EN"
 "http://www.w3.org/Graphics/SVG/1.1/DTD/svg11.dtd">
<!-- Generated by graphviz version 2.40.1 (0)
 -->
<!-- Title: Energy Parameters Pages: 1 -->
<svg width="457pt" height="38pt"
 viewBox="0.00 0.00 457.00 38.00" xmlns="http://www.w3.org/2000/svg" xmlns:xlink="http://www.w3.org/1999/xlink">
<g id="graph0" class="graph" transform="scale(1 1) rotate(0) translate(4 34)">
<title>Energy Parameters</title>
<!-- Node0 -->
<g id="node1" class="node">
<title>Node0</title>
<g id="a_node1"><a xlink:title="All relevant functions to retrieve and copy pre&#45;calculated energy parameter sets as well as reading/w...">
<polygon fill="#bfbfbf" stroke="#000000" points="273,-24.5 172,-24.5 172,-5.5 273,-5.5 273,-24.5"/>
<text text-anchor="middle" x="222.5" y="-12.5" font-family="Helvetica,sans-Serif" font-size="10.00" fill="#000000">Energy Parameters</text>
</a>
</g>
</g>
<!-- Node2 -->
<g id="node2" class="node">
<title>Node2</title>
<g id="a_node2"><a xlink:href="$group__energy__parameters__rw.html" xlink:title="Read and Write energy parameter sets from and to files or strings.">
<polygon fill="none" stroke="#000000" points="449,-30 309,-30 309,0 449,0 449,-30"/>
<text text-anchor="start" x="317" y="-18" font-family="Helvetica,sans-Serif" font-size="10.00" fill="#000000">Reading/Writing Energy</text>
<text text-anchor="middle" x="379" y="-7" font-family="Helvetica,sans-Serif" font-size="10.00" fill="#000000"> Parameter Sets from/to File</text>
</a>
</g>
</g>
<!-- Node0&#45;&gt;Node2 -->
<g id="edge2" class="edge">
<title>Node0&#45;&gt;Node2</title>
<path fill="none" stroke="#000000" d="M283.3337,-15C291.6863,-15 300.3179,-15 308.8209,-15"/>
<polygon fill="#000000" stroke="#000000" points="283.3111,-11.5001 273.3111,-15 283.311,-18.5001 283.3111,-11.5001"/>
</g>
<!-- Node1 -->
<g id="node3" class="node">
<title>Node1</title>
<g id="a_node3"><a xlink:href="$group__grammar.html" xlink:title="The RNA folding grammar as implemented in RNAlib.">
<polygon fill="none" stroke="#000000" points="136,-24.5 0,-24.5 0,-5.5 136,-5.5 136,-24.5"/>
<text text-anchor="middle" x="68" y="-12.5" font-family="Helvetica,sans-Serif" font-size="10.00" fill="#000000">The RNA Folding Grammar</text>
</a>
</g>
</g>
<!-- Node1&#45;&gt;Node0 -->
<g id="edge1" class="edge">
<title>Node1&#45;&gt;Node0</title>
<path fill="none" stroke="#000000" d="M146.3537,-15C155.0047,-15 163.6373,-15 171.8173,-15"/>
<polygon fill="#000000" stroke="#000000" points="146.2157,-11.5001 136.2157,-15 146.2156,-18.5001 146.2157,-11.5001"/>
</g>
</g>
</svg>
