<?xml version="1.0" encoding="UTF-8" standalone="no"?>
<!DOCTYPE svg PUBLIC "-//W3C//DTD SVG 1.1//EN"
 "http://www.w3.org/Graphics/SVG/1.1/DTD/svg11.dtd">
<!-- Generated by graphviz version 2.40.1 (0)
 -->
<!-- Title: Stochastic Backtracking of Structures from Distance Based Partitioning Pages: 1 -->
<svg width="351pt" height="86pt"
 viewBox="0.00 0.00 351.00 86.00" xmlns="http://www.w3.org/2000/svg" xmlns:xlink="http://www.w3.org/1999/xlink">
<g id="graph0" class="graph" transform="scale(1 1) rotate(0) translate(4 82)">
<title>Stochastic Backtracking of Structures from Distance Based Partitioning</title>
<!-- Node0 -->
<g id="node1" class="node">
<title>Node0</title>
<g id="a_node1"><a xlink:title="Contains functions related to stochastic backtracking from a specified distance class.">
<polygon fill="#bfbfbf" stroke="#000000" points="343,-59.5 203,-59.5 203,-18.5 343,-18.5 343,-59.5"/>
<text text-anchor="start" x="211" y="-47.5" font-family="Helvetica,sans-Serif" font-size="10.00" fill="#000000">Stochastic Backtracking</text>
<text text-anchor="start" x="211" y="-36.5" font-family="Helvetica,sans-Serif" font-size="10.00" fill="#000000"> of Structures from Distance</text>
<text text-anchor="middle" x="273" y="-25.5" font-family="Helvetica,sans-Serif" font-size="10.00" fill="#000000"> Based Partitioning</text>
</a>
</g>
</g>
<!-- Node1 -->
<g id="node2" class="node">
<title>Node1</title>
<g id="a_node2"><a xlink:href="$group__kl__neighborhood.html" xlink:title=" ">
<polygon fill="none" stroke="#000000" points="167,-78 0,-78 0,-48 167,-48 167,-78"/>
<text text-anchor="start" x="8" y="-66" font-family="Helvetica,sans-Serif" font-size="10.00" fill="#000000">Distance Based Partitioning</text>
<text text-anchor="middle" x="83.5" y="-55" font-family="Helvetica,sans-Serif" font-size="10.00" fill="#000000"> of the Secondary Structure Space</text>
</a>
</g>
</g>
<!-- Node1&#45;&gt;Node0 -->
<g id="edge1" class="edge">
<title>Node1&#45;&gt;Node0</title>
<path fill="none" stroke="#000000" d="M177.247,-51.127C185.8507,-50.0374 194.4655,-48.9463 202.8074,-47.8898"/>
<polygon fill="#000000" stroke="#000000" points="176.65,-47.6746 167.1691,-52.4034 177.5296,-54.6191 176.65,-47.6746"/>
</g>
<!-- Node2 -->
<g id="node3" class="node">
<title>Node2</title>
<g id="a_node3"><a xlink:href="$group__subopt__stochbt.html" xlink:title="Functions to draw random structure samples from the ensemble according to their equilibrium probabili...">
<polygon fill="none" stroke="#000000" points="152,-30 15,-30 15,0 152,0 152,-30"/>
<text text-anchor="start" x="23" y="-18" font-family="Helvetica,sans-Serif" font-size="10.00" fill="#000000">Random Structure Samples</text>
<text text-anchor="middle" x="83.5" y="-7" font-family="Helvetica,sans-Serif" font-size="10.00" fill="#000000"> from the Ensemble</text>
</a>
</g>
</g>
<!-- Node2&#45;&gt;Node0 -->
<g id="edge2" class="edge">
<title>Node2&#45;&gt;Node0</title>
<path fill="none" stroke="#000000" d="M162.3742,-24.9893C175.8394,-26.6947 189.7449,-28.4558 202.9609,-30.1296"/>
<polygon fill="#000000" stroke="#000000" points="162.5423,-21.4828 152.1818,-23.6985 161.6627,-28.4273 162.5423,-21.4828"/>
</g>
</g>
</svg>
