<?xml version="1.0" encoding="UTF-8" standalone="no"?>
<!DOCTYPE svg PUBLIC "-//W3C//DTD SVG 1.1//EN"
 "http://www.w3.org/Graphics/SVG/1.1/DTD/svg11.dtd">
<!-- Generated by graphviz version 2.40.1 (0)
 -->
<!-- Title: Buffers Pages: 1 -->
<svg width="380pt" height="40pt"
 viewBox="0.00 0.00 380.00 39.50" xmlns="http://www.w3.org/2000/svg" xmlns:xlink="http://www.w3.org/1999/xlink">
<g id="graph0" class="graph" transform="scale(1 1) rotate(0) translate(4 35.5)">
<title>Buffers</title>
<!-- Node1 -->
<g id="node1" class="node">
<title>Node1</title>
<g id="a_node1"><a xlink:href="$group__data__structures.html" xlink:title="All datastructures and typedefs shared among the ViennaRNA Package can be found here.">
<polygon fill="none" stroke="#000000" points="131,-19 0,-19 0,0 131,0 131,-19"/>
<text text-anchor="middle" x="65.5" y="-7" font-family="Helvetica,sans-Serif" font-size="10.00" fill="#000000">(Abstract) Data Structures</text>
</a>
</g>
</g>
<!-- Node0 -->
<g id="node3" class="node">
<title>Node0</title>
<g id="a_node3"><a xlink:title="Functions that provide dynamically buffered stream&#45;like data structures.">
<polygon fill="#bfbfbf" stroke="#000000" points="215,-19 168,-19 168,0 215,0 215,-19"/>
<text text-anchor="middle" x="191.5" y="-7" font-family="Helvetica,sans-Serif" font-size="10.00" fill="#000000">Buffers</text>
</a>
</g>
</g>
<!-- Node1&#45;&gt;Node0 -->
<g id="edge1" class="edge">
<title>Node1&#45;&gt;Node0</title>
<path fill="none" stroke="#000000" d="M141.1887,-9.5C150.7813,-9.5 159.9645,-9.5 167.7981,-9.5"/>
<polygon fill="#000000" stroke="#000000" points="141.0834,-6.0001 131.0833,-9.5 141.0833,-13.0001 141.0834,-6.0001"/>
</g>
<!-- Node2 -->
<g id="node2" class="node">
<title>Node2</title>
<g id="a_node2"><a xlink:href="$group__utils.html" xlink:title=" ">
<polygon fill="none" stroke="#000000" points="372,-19 322,-19 322,0 372,0 372,-19"/>
<text text-anchor="middle" x="347" y="-7" font-family="Helvetica,sans-Serif" font-size="10.00" fill="#000000">Utilities</text>
</a>
</g>
</g>
<!-- Node0&#45;&gt;Node2 -->
<g id="edge2" class="edge">
<title>Node0&#45;&gt;Node2</title>
<path fill="none" stroke="#006400" stroke-dasharray="5,2" d="M215.1171,-9.5C243.9193,-9.5 292.3971,-9.5 321.8691,-9.5"/>
<text text-anchor="middle" x="268.5" y="-23.5" font-family="Helvetica,sans-Serif" font-size="10.00" fill="#000000">char_stream.h</text>
<text text-anchor="middle" x="268.5" y="-12.5" font-family="Helvetica,sans-Serif" font-size="10.00" fill="#000000">stream_output.h</text>
</g>
</g>
</svg>
