<?xml version="1.0" encoding="UTF-8" standalone="no"?>
<!DOCTYPE svg PUBLIC "-//W3C//DTD SVG 1.1//EN"
 "http://www.w3.org/Graphics/SVG/1.1/DTD/svg11.dtd">
<!-- Generated by graphviz version 2.40.1 (0)
 -->
<!-- Title: Plotting Pages: 1 -->
<svg width="246pt" height="191pt"
 viewBox="0.00 0.00 246.00 191.00" xmlns="http://www.w3.org/2000/svg" xmlns:xlink="http://www.w3.org/1999/xlink">
<g id="graph0" class="graph" transform="scale(1 1) rotate(0) translate(4 187)">
<title>Plotting</title>
<!-- Node2 -->
<g id="node1" class="node">
<title>Node2</title>
<g id="a_node1"><a xlink:href="$group__plot__layout__utils.html" xlink:title="Functions to compute coordinate layouts for secondary structure plots.">
<polygon fill="none" stroke="#000000" points="238,-183 113,-183 113,-164 238,-164 238,-183"/>
<text text-anchor="middle" x="175.5" y="-171" font-family="Helvetica,sans-Serif" font-size="10.00" fill="#000000">Layouts and Coordinates</text>
</a>
</g>
</g>
<!-- Node5 -->
<g id="node2" class="node">
<title>Node5</title>
<g id="a_node2"><a xlink:href="$group__plotting__utils__deprecated.html" xlink:title=" ">
<polygon fill="none" stroke="#000000" points="229.5,-145.5 121.5,-145.5 121.5,-115.5 229.5,-115.5 229.5,-145.5"/>
<text text-anchor="start" x="129.5" y="-133.5" font-family="Helvetica,sans-Serif" font-size="10.00" fill="#000000">Deprecated Interface</text>
<text text-anchor="middle" x="175.5" y="-122.5" font-family="Helvetica,sans-Serif" font-size="10.00" fill="#000000"> for Plotting Utilities</text>
</a>
</g>
</g>
<!-- Node0 -->
<g id="node3" class="node">
<title>Node0</title>
<g id="a_node3"><a xlink:title="Functions for Creating Secondary Structure Plots, Dot&#45;Plots, and More.">
<polygon fill="#bfbfbf" stroke="#000000" points="50,-97 0,-97 0,-78 50,-78 50,-97"/>
<text text-anchor="middle" x="25" y="-85" font-family="Helvetica,sans-Serif" font-size="10.00" fill="#000000">Plotting</text>
</a>
</g>
</g>
<!-- Node0&#45;&gt;Node2 -->
<g id="edge2" class="edge">
<title>Node0&#45;&gt;Node2</title>
<path fill="none" stroke="#000000" d="M42.4537,-103.82C59.3488,-118.8466 86.2635,-140.8201 113,-154.5 120.2693,-158.2194 128.3934,-161.3495 136.3166,-163.9277"/>
<polygon fill="#000000" stroke="#000000" points="44.7679,-101.1938 35.0093,-97.0682 40.0652,-106.3789 44.7679,-101.1938"/>
</g>
<!-- Node0&#45;&gt;Node5 -->
<g id="edge5" class="edge">
<title>Node0&#45;&gt;Node5</title>
<path fill="none" stroke="#000000" d="M60.0515,-99.0759C62.7362,-99.9123 65.4085,-100.7291 68,-101.5 85.3237,-106.6531 104.3331,-111.9106 121.4859,-116.5087"/>
<polygon fill="#000000" stroke="#000000" points="60.9889,-95.7013 50.3985,-96.0078 58.8685,-102.3725 60.9889,-95.7013"/>
</g>
<!-- Node1 -->
<g id="node4" class="node">
<title>Node1</title>
<g id="a_node4"><a xlink:href="$group__utils.html" xlink:title=" ">
<polygon fill="none" stroke="#000000" points="200.5,-95 150.5,-95 150.5,-76 200.5,-76 200.5,-95"/>
<text text-anchor="middle" x="175.5" y="-83" font-family="Helvetica,sans-Serif" font-size="10.00" fill="#000000">Utilities</text>
</a>
</g>
</g>
<!-- Node0&#45;&gt;Node1 -->
<g id="edge6" class="edge">
<title>Node0&#45;&gt;Node1</title>
<path fill="none" stroke="#006400" stroke-dasharray="5,2" d="M50.1903,-87.1652C78.0554,-86.7949 122.6811,-86.2019 150.4784,-85.8325"/>
<text text-anchor="middle" x="81.5" y="-89.5" font-family="Helvetica,sans-Serif" font-size="10.00" fill="#000000">utils.h</text>
</g>
<!-- Node4 -->
<g id="node5" class="node">
<title>Node4</title>
<g id="a_node5"><a xlink:href="$group__alignment__plots.html" xlink:title="Functions to generate Alignment plots with annotated consensus structure.">
<polygon fill="none" stroke="#000000" points="218.5,-56 132.5,-56 132.5,-37 218.5,-37 218.5,-56"/>
<text text-anchor="middle" x="175.5" y="-44" font-family="Helvetica,sans-Serif" font-size="10.00" fill="#000000">Alignment Plots</text>
</a>
</g>
</g>
<!-- Node0&#45;&gt;Node4 -->
<g id="edge4" class="edge">
<title>Node0&#45;&gt;Node4</title>
<path fill="none" stroke="#000000" d="M60.0183,-77.9601C84.176,-71.379 116.1696,-62.6631 140.3547,-56.0745"/>
<polygon fill="#000000" stroke="#000000" points="58.9187,-74.6321 50.1903,-80.6375 60.7587,-81.3859 58.9187,-74.6321"/>
</g>
<!-- Node3 -->
<g id="node6" class="node">
<title>Node3</title>
<g id="a_node6"><a xlink:href="$group__annotation__utils.html" xlink:title="Functions to generate annotations for Secondary Structure Plots, Dot&#45;Plots, and Others.">
<polygon fill="none" stroke="#000000" points="207,-19 144,-19 144,0 207,0 207,-19"/>
<text text-anchor="middle" x="175.5" y="-7" font-family="Helvetica,sans-Serif" font-size="10.00" fill="#000000">Annotation</text>
</a>
</g>
</g>
<!-- Node0&#45;&gt;Node3 -->
<g id="edge3" class="edge">
<title>Node0&#45;&gt;Node3</title>
<path fill="none" stroke="#000000" d="M44.6086,-71.4209C61.7495,-58.0508 87.7769,-39.3566 113,-27.5 122.7081,-22.9366 133.8178,-19.2813 143.9521,-16.4885"/>
<polygon fill="#000000" stroke="#000000" points="42.1557,-68.8997 36.5065,-77.8628 46.5121,-74.3789 42.1557,-68.8997"/>
</g>
<!-- Node1&#45;&gt;Node0 -->
<g id="edge1" class="edge">
<title>Node1&#45;&gt;Node0</title>
<path fill="none" stroke="#000000" d="M140.2364,-85.0875C119.2514,-84.9449 92.1018,-84.9398 68,-85.5 62.1724,-85.6355 55.9041,-85.874 50.0046,-86.1403"/>
<polygon fill="#000000" stroke="#000000" points="140.2721,-88.5878 150.3003,-85.1695 140.3291,-81.5881 140.2721,-88.5878"/>
</g>
</g>
</svg>
