<?xml version="1.0" encoding="UTF-8" standalone="no"?>
<!DOCTYPE svg PUBLIC "-//W3C//DTD SVG 1.1//EN"
 "http://www.w3.org/Graphics/SVG/1.1/DTD/svg11.dtd">
<!-- Generated by graphviz version 2.40.1 (0)
 -->
<!-- Title: Command Files Pages: 1 -->
<svg width="260pt" height="75pt"
 viewBox="0.00 0.00 260.00 75.00" xmlns="http://www.w3.org/2000/svg" xmlns:xlink="http://www.w3.org/1999/xlink">
<g id="graph0" class="graph" transform="scale(1 1) rotate(0) translate(4 71)">
<title>Command Files</title>
<!-- Node0 -->
<g id="node1" class="node">
<title>Node0</title>
<g id="a_node1"><a xlink:title="Functions to parse and interpret the content of Command Files.">
<polygon fill="#bfbfbf" stroke="#000000" points="86,-45 0,-45 0,-26 86,-26 86,-45"/>
<text text-anchor="middle" x="43" y="-33" font-family="Helvetica,sans-Serif" font-size="10.00" fill="#000000">Command Files</text>
</a>
</g>
</g>
<!-- Node1 -->
<g id="node2" class="node">
<title>Node1</title>
<g id="a_node2"><a xlink:href="$group__file__utils.html" xlink:title="Functions to parse, write, and convert various file formats and to deal with file system related issu...">
<polygon fill="none" stroke="#000000" points="252,-67 179,-67 179,-48 252,-48 252,-67"/>
<text text-anchor="middle" x="215.5" y="-55" font-family="Helvetica,sans-Serif" font-size="10.00" fill="#000000">Files and I/O</text>
</a>
</g>
</g>
<!-- Node0&#45;&gt;Node1 -->
<g id="edge3" class="edge">
<title>Node0&#45;&gt;Node1</title>
<path fill="none" stroke="#006400" stroke-dasharray="5,2" d="M86.2522,-43.741C92.203,-44.7457 98.2446,-45.6985 104,-46.5 128.8527,-49.9611 156.9708,-52.7272 178.7528,-54.6199"/>
<text text-anchor="middle" x="132.5" y="-55.5" font-family="Helvetica,sans-Serif" font-size="10.00" fill="#000000">commands.h</text>
</g>
<!-- Node2 -->
<g id="node3" class="node">
<title>Node2</title>
<g id="a_node3"><a xlink:href="$group__utils.html" xlink:title=" ">
<polygon fill="none" stroke="#000000" points="240.5,-19 190.5,-19 190.5,0 240.5,0 240.5,-19"/>
<text text-anchor="middle" x="215.5" y="-7" font-family="Helvetica,sans-Serif" font-size="10.00" fill="#000000">Utilities</text>
</a>
</g>
</g>
<!-- Node0&#45;&gt;Node2 -->
<g id="edge2" class="edge">
<title>Node0&#45;&gt;Node2</title>
<path fill="none" stroke="#006400" stroke-dasharray="5,2" d="M86.0841,-29.0062C118.8157,-24.0727 162.7223,-17.4549 190.0528,-13.3355"/>
<text text-anchor="middle" x="132.5" y="-28.5" font-family="Helvetica,sans-Serif" font-size="10.00" fill="#000000">commands.h</text>
</g>
<!-- Node1&#45;&gt;Node0 -->
<g id="edge1" class="edge">
<title>Node1&#45;&gt;Node0</title>
<path fill="none" stroke="#000000" d="M168.7434,-50.5508C166.1248,-50.1884 163.53,-49.8357 161,-49.5 136.2548,-46.2165 108.5399,-42.9093 86.1908,-40.3343"/>
<polygon fill="#000000" stroke="#000000" points="168.4832,-54.0487 178.8744,-51.9819 169.4623,-47.1175 168.4832,-54.0487"/>
</g>
</g>
</svg>
