<?xml version="1.0" encoding="UTF-8" standalone="no"?>
<!DOCTYPE svg PUBLIC "-//W3C//DTD SVG 1.1//EN"
 "http://www.w3.org/Graphics/SVG/1.1/DTD/svg11.dtd">
<!-- Generated by graphviz version 2.40.1 (0)
 -->
<!-- Title: Utilities Pages: 1 -->
<svg width="327pt" height="718pt"
 viewBox="0.00 0.00 327.00 717.84" xmlns="http://www.w3.org/2000/svg" xmlns:xlink="http://www.w3.org/1999/xlink">
<g id="graph0" class="graph" transform="scale(1 1) rotate(0) translate(4 713.844)">
<title>Utilities</title>
<!-- Node12 -->
<g id="node1" class="node">
<title>Node12</title>
<g id="a_node1"><a xlink:href="$group__command__files.html" xlink:title="Functions to parse and interpret the content of Command Files.">
<polygon fill="none" stroke="#000000" points="287.5,-705.344 201.5,-705.344 201.5,-686.344 287.5,-686.344 287.5,-705.344"/>
<text text-anchor="middle" x="244.5" y="-693.344" font-family="Helvetica,sans-Serif" font-size="10.00" fill="#000000">Command Files</text>
</a>
</g>
</g>
<!-- Node10 -->
<g id="node2" class="node">
<title>Node10</title>
<g id="a_node2"><a xlink:href="$group__message__utils.html" xlink:title="Functions to print various kind of messages.">
<polygon fill="none" stroke="#000000" points="275.5,-668.344 213.5,-668.344 213.5,-649.344 275.5,-649.344 275.5,-668.344"/>
<text text-anchor="middle" x="244.5" y="-656.344" font-family="Helvetica,sans-Serif" font-size="10.00" fill="#000000">Messages</text>
</a>
</g>
</g>
<!-- Node9 -->
<g id="node3" class="node">
<title>Node9</title>
<g id="a_node3"><a xlink:href="$group__data__structures.html" xlink:title="All datastructures and typedefs shared among the ViennaRNA Package can be found here.">
<polygon fill="none" stroke="#000000" points="310,-631.344 179,-631.344 179,-612.344 310,-612.344 310,-631.344"/>
<text text-anchor="middle" x="244.5" y="-619.344" font-family="Helvetica,sans-Serif" font-size="10.00" fill="#000000">(Abstract) Data Structures</text>
</a>
</g>
</g>
<!-- Node8 -->
<g id="node4" class="node">
<title>Node8</title>
<g id="a_node4"><a xlink:href="$group__combinatorics__utils.html" xlink:title="Implementations to solve various combinatorial aspects for strings of objects.">
<polygon fill="none" stroke="#000000" points="309,-593.344 180,-593.344 180,-574.344 309,-574.344 309,-593.344"/>
<text text-anchor="middle" x="244.5" y="-581.344" font-family="Helvetica,sans-Serif" font-size="10.00" fill="#000000">Combinatorics Algorithms</text>
</a>
</g>
</g>
<!-- Node3 -->
<g id="node5" class="node">
<title>Node3</title>
<g id="a_node5"><a xlink:href="$group__struct__utils.html" xlink:title="Functions to create, parse, convert, manipulate, and compare secondary structure representations.">
<polygon fill="none" stroke="#000000" points="297.5,-553.844 191.5,-553.844 191.5,-523.844 297.5,-523.844 297.5,-553.844"/>
<text text-anchor="start" x="199.5" y="-541.844" font-family="Helvetica,sans-Serif" font-size="10.00" fill="#000000">Secondary Structure</text>
<text text-anchor="middle" x="244.5" y="-530.844" font-family="Helvetica,sans-Serif" font-size="10.00" fill="#000000"> Utilities</text>
</a>
</g>
</g>
<!-- Node11 -->
<g id="node6" class="node">
<title>Node11</title>
<g id="a_node6"><a xlink:href="$group__units.html" xlink:title="Functions to convert between various physical units.">
<polygon fill="none" stroke="#000000" points="288,-501.344 201,-501.344 201,-482.344 288,-482.344 288,-501.344"/>
<text text-anchor="middle" x="244.5" y="-489.344" font-family="Helvetica,sans-Serif" font-size="10.00" fill="#000000">Unit Conversion</text>
</a>
</g>
</g>
<!-- Node2 -->
<g id="node7" class="node">
<title>Node2</title>
<g id="a_node7"><a xlink:href="$group__string__utils.html" xlink:title="Functions to parse, convert, manipulate, create, and compare (nucleic acid sequence) strings.">
<polygon fill="none" stroke="#000000" points="307,-453.844 182,-453.844 182,-423.844 307,-423.844 307,-453.844"/>
<text text-anchor="start" x="190" y="-441.844" font-family="Helvetica,sans-Serif" font-size="10.00" fill="#000000">(Nucleic Acid Sequence)</text>
<text text-anchor="middle" x="244.5" y="-430.844" font-family="Helvetica,sans-Serif" font-size="10.00" fill="#000000"> String Utilitites</text>
</a>
</g>
</g>
<!-- Node1 -->
<g id="node8" class="node">
<title>Node1</title>
<g id="a_node8"><a xlink:href="$group__alphabet__utils.html" xlink:title="Functions to cope with various aspects related to the nucleotide sequence alphabet.">
<polygon fill="none" stroke="#000000" points="301,-389.844 188,-389.844 188,-359.844 301,-359.844 301,-389.844"/>
<text text-anchor="start" x="196" y="-377.844" font-family="Helvetica,sans-Serif" font-size="10.00" fill="#000000">Utilities to deal with</text>
<text text-anchor="middle" x="244.5" y="-366.844" font-family="Helvetica,sans-Serif" font-size="10.00" fill="#000000"> Nucleotide Alphabets</text>
</a>
</g>
</g>
<!-- Node6 -->
<g id="node9" class="node">
<title>Node6</title>
<g id="a_node9"><a xlink:href="$group__plotting__utils.html" xlink:title="Functions for Creating Secondary Structure Plots, Dot&#45;Plots, and More.">
<polygon fill="none" stroke="#000000" points="269.5,-322.344 219.5,-322.344 219.5,-303.344 269.5,-303.344 269.5,-322.344"/>
<text text-anchor="middle" x="244.5" y="-310.344" font-family="Helvetica,sans-Serif" font-size="10.00" fill="#000000">Plotting</text>
</a>
</g>
</g>
<!-- Node7 -->
<g id="node10" class="node">
<title>Node7</title>
<g id="a_node10"><a xlink:href="$group__search__utils.html" xlink:title="Implementations of various search algorithms to detect strings of objects within other strings of obj...">
<polygon fill="none" stroke="#000000" points="293,-263.344 196,-263.344 196,-244.344 293,-244.344 293,-263.344"/>
<text text-anchor="middle" x="244.5" y="-251.344" font-family="Helvetica,sans-Serif" font-size="10.00" fill="#000000">Search Algorithms</text>
</a>
</g>
</g>
<!-- Node5 -->
<g id="node11" class="node">
<title>Node5</title>
<g id="a_node11"><a xlink:href="$group__file__utils.html" xlink:title="Functions to parse, write, and convert various file formats and to deal with file system related issu...">
<polygon fill="none" stroke="#000000" points="281,-193.344 208,-193.344 208,-174.344 281,-174.344 281,-193.344"/>
<text text-anchor="middle" x="244.5" y="-181.344" font-family="Helvetica,sans-Serif" font-size="10.00" fill="#000000">Files and I/O</text>
</a>
</g>
</g>
<!-- Node0 -->
<g id="node12" class="node">
<title>Node0</title>
<g id="a_node12"><a xlink:title=" ">
<polygon fill="#bfbfbf" stroke="#000000" points="50,-386.344 0,-386.344 0,-367.344 50,-367.344 50,-386.344"/>
<text text-anchor="middle" x="25" y="-374.344" font-family="Helvetica,sans-Serif" font-size="10.00" fill="#000000">Utilities</text>
</a>
</g>
</g>
<!-- Node0&#45;&gt;Node12 -->
<g id="edge15" class="edge">
<title>Node0&#45;&gt;Node12</title>
<path fill="none" stroke="#006400" stroke-dasharray="5,2" d="M25.7902,-386.583C29.7616,-434.4575 48.1382,-643.3643 68,-663.844 102.1472,-699.0537 161.085,-703.0514 201.3841,-700.9151"/>
<text text-anchor="middle" x="110" y="-701.844" font-family="Helvetica,sans-Serif" font-size="10.00" fill="#000000">commands.h</text>
</g>
<!-- Node0&#45;&gt;Node10 -->
<g id="edge10" class="edge">
<title>Node0&#45;&gt;Node10</title>
<path fill="none" stroke="#000000" d="M25.3797,-396.6655C26.8589,-451.2413 34.0019,-601.8508 68,-634.844 106.5037,-672.2096 173.8875,-669.9511 213.3197,-664.6148"/>
<polygon fill="#000000" stroke="#000000" points="28.8761,-396.4692 25.1424,-386.5541 21.878,-396.6335 28.8761,-396.4692"/>
</g>
<!-- Node0&#45;&gt;Node9 -->
<g id="edge9" class="edge">
<title>Node0&#45;&gt;Node9</title>
<path fill="none" stroke="#000000" d="M25.708,-396.6522C27.9622,-447.3404 36.7796,-579.7377 68,-607.844 104.4377,-640.6472 163.9857,-638.0091 203.7017,-631.3592"/>
<polygon fill="#000000" stroke="#000000" points="29.194,-396.233 25.2932,-386.3824 22.1997,-396.5156 29.194,-396.233"/>
</g>
<!-- Node0&#45;&gt;Node8 -->
<g id="edge8" class="edge">
<title>Node0&#45;&gt;Node8</title>
<path fill="none" stroke="#000000" d="M26.0396,-396.5956C28.9718,-443.6691 39.067,-560.3036 68,-583.844 110.3087,-618.2672 179.1125,-604.8206 217.1121,-593.431"/>
<polygon fill="#000000" stroke="#000000" points="29.5251,-396.2429 25.4539,-386.4615 22.5368,-396.6468 29.5251,-396.2429"/>
</g>
<!-- Node0&#45;&gt;Node8 -->
<g id="edge13" class="edge">
<title>Node0&#45;&gt;Node8</title>
<path fill="none" stroke="#006400" stroke-dasharray="5,2" d="M26.1522,-386.7223C30.1636,-419.4085 44.5639,-523.2614 68,-545.844 76.6052,-554.1358 137.5913,-566.0335 185.4977,-574.2985"/>
<text text-anchor="middle" x="110" y="-570.844" font-family="Helvetica,sans-Serif" font-size="10.00" fill="#000000">combinatorics.h</text>
</g>
<!-- Node0&#45;&gt;Node3 -->
<g id="edge3" class="edge">
<title>Node0&#45;&gt;Node3</title>
<path fill="none" stroke="#000000" d="M28.2539,-396.3026C34.4984,-431.1721 49.2244,-502.1381 68,-517.844 101.8469,-546.1571 152.9533,-549.3918 191.4758,-546.7308"/>
<polygon fill="#000000" stroke="#000000" points="31.6879,-395.6201 26.5301,-386.3655 24.7909,-396.8166 31.6879,-395.6201"/>
</g>
<!-- Node0&#45;&gt;Node11 -->
<g id="edge11" class="edge">
<title>Node0&#45;&gt;Node11</title>
<path fill="none" stroke="#000000" d="M28.9331,-396.1876C35.7649,-427.6415 50.7557,-487.6048 68,-499.844 88.5739,-514.4464 155.5851,-506.9792 200.8594,-499.7758"/>
<polygon fill="#000000" stroke="#000000" points="32.3525,-395.4398 26.8666,-386.3759 25.5028,-396.8826 32.3525,-395.4398"/>
</g>
<!-- Node0&#45;&gt;Node11 -->
<g id="edge16" class="edge">
<title>Node0&#45;&gt;Node11</title>
<path fill="none" stroke="#006400" stroke-dasharray="5,2" d="M26.9271,-386.5918C31.0348,-404.6088 42.4446,-442.9987 68,-461.844 88.5753,-477.0169 155.5862,-485.0774 200.8599,-488.9011"/>
<text text-anchor="middle" x="110" y="-485.844" font-family="Helvetica,sans-Serif" font-size="10.00" fill="#000000">units.h</text>
</g>
<!-- Node0&#45;&gt;Node2 -->
<g id="edge2" class="edge">
<title>Node0&#45;&gt;Node2</title>
<path fill="none" stroke="#000000" d="M31.9641,-395.971C38.6407,-411.1872 50.3388,-431.4328 68,-440.844 102.4815,-459.2182 146.3971,-458.7939 181.7964,-453.7384"/>
<polygon fill="#000000" stroke="#000000" points="35.1086,-394.4092 28.1326,-386.4352 28.6133,-397.0191 35.1086,-394.4092"/>
</g>
<!-- Node0&#45;&gt;Node2 -->
<g id="edge20" class="edge">
<title>Node0&#45;&gt;Node2</title>
<path fill="none" stroke="#006400" stroke-dasharray="5,2" d="M44.8334,-386.4866C52.0205,-389.745 60.2723,-393.2185 68,-395.844 105.0291,-408.4248 147.5965,-418.9065 181.6493,-426.371"/>
<text text-anchor="middle" x="110" y="-421.844" font-family="Helvetica,sans-Serif" font-size="10.00" fill="#000000">strings.h</text>
</g>
<!-- Node0&#45;&gt;Node1 -->
<g id="edge1" class="edge">
<title>Node0&#45;&gt;Node1</title>
<path fill="none" stroke="#000000" d="M60.6231,-381.3084C63.1168,-381.5217 65.5944,-381.7046 68,-381.844 107.9527,-384.159 153.0378,-382.2948 187.6406,-379.9106"/>
<polygon fill="#000000" stroke="#000000" points="60.7209,-377.8009 50.4235,-380.2936 60.0278,-384.7665 60.7209,-377.8009"/>
</g>
<!-- Node0&#45;&gt;Node1 -->
<g id="edge12" class="edge">
<title>Node0&#45;&gt;Node1</title>
<path fill="none" stroke="#006400" stroke-dasharray="5,2" d="M40.2888,-367.2619C48.2312,-362.8438 58.2865,-358.0892 68,-355.844 108.5374,-346.4742 155.4036,-352.2703 190.6507,-359.8428"/>
<text text-anchor="middle" x="110" y="-369.844" font-family="Helvetica,sans-Serif" font-size="10.00" fill="#000000">alphabet.h</text>
<text text-anchor="middle" x="110" y="-358.844" font-family="Helvetica,sans-Serif" font-size="10.00" fill="#000000">sequence.h</text>
</g>
<!-- Node0&#45;&gt;Node6 -->
<g id="edge6" class="edge">
<title>Node0&#45;&gt;Node6</title>
<path fill="none" stroke="#000000" d="M44.1346,-360.9226C51.2458,-355.7223 59.6281,-350.3809 68,-346.844 119.0235,-325.2877 184.1436,-317.2785 219.2829,-314.3935"/>
<polygon fill="#000000" stroke="#000000" points="41.673,-358.4017 35.9033,-367.2877 45.9551,-363.9392 41.673,-358.4017"/>
</g>
<!-- Node0&#45;&gt;Node6 -->
<g id="edge18" class="edge">
<title>Node0&#45;&gt;Node6</title>
<path fill="none" stroke="#006400" stroke-dasharray="5,2" d="M27.7825,-367.1833C32.8556,-351.5955 45.2435,-321.3785 68,-308.844 116.0562,-282.3742 183.2009,-294.8764 219.245,-304.792"/>
<text text-anchor="middle" x="110" y="-311.844" font-family="Helvetica,sans-Serif" font-size="10.00" fill="#000000">utils.h</text>
</g>
<!-- Node0&#45;&gt;Node7 -->
<g id="edge7" class="edge">
<title>Node0&#45;&gt;Node7</title>
<path fill="none" stroke="#000000" d="M29.1464,-357.3579C34.5259,-337.0316 45.956,-305.8123 68,-288.844 104.513,-260.7381 157.5439,-253.4008 195.937,-252.2299"/>
<polygon fill="#000000" stroke="#000000" points="25.735,-356.5751 26.8059,-367.1157 32.5419,-358.2079 25.735,-356.5751"/>
</g>
<!-- Node0&#45;&gt;Node7 -->
<g id="edge21" class="edge">
<title>Node0&#45;&gt;Node7</title>
<path fill="none" stroke="#006400" stroke-dasharray="5,2" d="M26.5769,-367.216C31.4233,-338.9383 47.0499,-257.1582 68,-241.844 114.3666,-207.9508 187.1722,-229.9765 223.0505,-244.3119"/>
<text text-anchor="middle" x="110" y="-244.844" font-family="Helvetica,sans-Serif" font-size="10.00" fill="#000000">BoyerMoore.h</text>
</g>
<!-- Node0&#45;&gt;Node5 -->
<g id="edge5" class="edge">
<title>Node0&#45;&gt;Node5</title>
<path fill="none" stroke="#000000" d="M27.9659,-356.6804C33.9058,-319.0679 48.3916,-240.3366 68,-221.844 87.8388,-203.1341 162.2478,-192.3029 207.8807,-187.2838"/>
<polygon fill="#000000" stroke="#000000" points="24.4518,-356.5069 26.4006,-366.921 31.3715,-357.5646 24.4518,-356.5069"/>
</g>
<!-- Node0&#45;&gt;Node5 -->
<g id="edge14" class="edge">
<title>Node0&#45;&gt;Node5</title>
<path fill="none" stroke="#006400" stroke-dasharray="5,2" d="M25.3374,-367.2081C26.9134,-328.4929 34.937,-185.0465 68,-157.844 115.2385,-118.9787 194.6402,-155.5562 228.4625,-174.3028"/>
<text text-anchor="middle" x="110" y="-182.844" font-family="Helvetica,sans-Serif" font-size="10.00" fill="#000000">commands.h</text>
<text text-anchor="middle" x="110" y="-171.844" font-family="Helvetica,sans-Serif" font-size="10.00" fill="#000000">file_formats_msa.h</text>
<text text-anchor="middle" x="110" y="-160.844" font-family="Helvetica,sans-Serif" font-size="10.00" fill="#000000">utils.h</text>
</g>
<!-- Node14 -->
<g id="node13" class="node">
<title>Node14</title>
<g id="a_node13"><a xlink:href="$group__buffer__utils.html" xlink:title="Functions that provide dynamically buffered stream&#45;like data structures.">
<polygon fill="none" stroke="#000000" points="268,-124.344 221,-124.344 221,-105.344 268,-105.344 268,-124.344"/>
<text text-anchor="middle" x="244.5" y="-112.344" font-family="Helvetica,sans-Serif" font-size="10.00" fill="#000000">Buffers</text>
</a>
</g>
</g>
<!-- Node0&#45;&gt;Node14 -->
<g id="edge22" class="edge">
<title>Node0&#45;&gt;Node14</title>
<path fill="none" stroke="#006400" stroke-dasharray="5,2" d="M25.8393,-367.2533C29.8998,-321.9337 48.1246,-130.7337 68,-113.844 90.3581,-94.8445 178.0312,-104.8296 220.791,-111.0673"/>
<text text-anchor="middle" x="110" y="-127.844" font-family="Helvetica,sans-Serif" font-size="10.00" fill="#000000">char_stream.h</text>
<text text-anchor="middle" x="110" y="-116.844" font-family="Helvetica,sans-Serif" font-size="10.00" fill="#000000">stream_output.h</text>
</g>
<!-- Node4 -->
<g id="node14" class="node">
<title>Node4</title>
<g id="a_node14"><a xlink:href="$group__aln__utils.html" xlink:title="Functions to extract features from and to manipulate multiple sequence alignments.">
<polygon fill="none" stroke="#000000" points="316,-83.844 173,-83.844 173,-53.844 316,-53.844 316,-83.844"/>
<text text-anchor="start" x="181" y="-71.844" font-family="Helvetica,sans-Serif" font-size="10.00" fill="#000000">Multiple Sequence Alignment</text>
<text text-anchor="middle" x="244.5" y="-60.844" font-family="Helvetica,sans-Serif" font-size="10.00" fill="#000000"> Utilities</text>
</a>
</g>
</g>
<!-- Node0&#45;&gt;Node4 -->
<g id="edge4" class="edge">
<title>Node0&#45;&gt;Node4</title>
<path fill="none" stroke="#000000" d="M26.7301,-356.8598C32.1765,-296.06 49.6971,-116.3296 68,-97.844 82.6932,-83.0041 130.6673,-75.7527 172.8955,-72.2122"/>
<polygon fill="#000000" stroke="#000000" points="23.2228,-356.7893 25.8305,-367.0582 30.1957,-357.4045 23.2228,-356.7893"/>
</g>
<!-- Node0&#45;&gt;Node4 -->
<g id="edge19" class="edge">
<title>Node0&#45;&gt;Node4</title>
<path fill="none" stroke="#006400" stroke-dasharray="5,2" d="M25.5725,-367.0135C28.6612,-315.6566 44.0886,-79.7397 68,-58.844 106.5946,-25.1169 169.9453,-39.6487 209.3291,-53.8292"/>
<text text-anchor="middle" x="110" y="-61.844" font-family="Helvetica,sans-Serif" font-size="10.00" fill="#000000">alignments.h</text>
</g>
<!-- Node13 -->
<g id="node15" class="node">
<title>Node13</title>
<g id="a_node15"><a xlink:href="$group__file__formats__msa.html" xlink:title="Functions to read/write multiple sequence alignments (MSA) in various file formats.">
<polygon fill="none" stroke="#000000" points="319,-31.344 170,-31.344 170,-12.344 319,-12.344 319,-31.344"/>
<text text-anchor="middle" x="244.5" y="-19.344" font-family="Helvetica,sans-Serif" font-size="10.00" fill="#000000">Multiple Sequence Alignments</text>
</a>
</g>
</g>
<!-- Node0&#45;&gt;Node13 -->
<g id="edge17" class="edge">
<title>Node0&#45;&gt;Node13</title>
<path fill="none" stroke="#006400" stroke-dasharray="5,2" d="M25.4387,-367.0392C27.9791,-312.4375 41.6152,-47.4779 68,-23.844 108.7445,12.6524 178.4802,-.7742 216.9688,-12.2484"/>
<text text-anchor="middle" x="110" y="-26.844" font-family="Helvetica,sans-Serif" font-size="10.00" fill="#000000">file_formats_msa.h</text>
</g>
</g>
</svg>
