<?xml version="1.0" encoding="UTF-8" standalone="no"?>
<!DOCTYPE svg PUBLIC "-//W3C//DTD SVG 1.1//EN"
 "http://www.w3.org/Graphics/SVG/1.1/DTD/svg11.dtd">
<!-- Generated by graphviz version 2.40.1 (0)
 -->
<!-- Title: Experimental Structure Probing Data Pages: 1 -->
<svg width="291pt" height="76pt"
 viewBox="0.00 0.00 291.00 75.50" xmlns="http://www.w3.org/2000/svg" xmlns:xlink="http://www.w3.org/1999/xlink">
<g id="graph0" class="graph" transform="scale(1 1) rotate(0) translate(4 71.5)">
<title>Experimental Structure Probing Data</title>
<!-- Node2 -->
<g id="node1" class="node">
<title>Node2</title>
<g id="a_node1"><a xlink:href="$group__perturbation.html" xlink:title="Find a vector of perturbation energies that minimizes the discripancies between predicted and observe...">
<polygon fill="none" stroke="#000000" points="283,-67.5 152,-67.5 152,-37.5 283,-37.5 283,-67.5"/>
<text text-anchor="start" x="160" y="-55.5" font-family="Helvetica,sans-Serif" font-size="10.00" fill="#000000">Generate Soft Constraints</text>
<text text-anchor="middle" x="217.5" y="-44.5" font-family="Helvetica,sans-Serif" font-size="10.00" fill="#000000"> from Data</text>
</a>
</g>
</g>
<!-- Node0 -->
<g id="node2" class="node">
<title>Node0</title>
<g id="a_node2"><a xlink:title="Include Experimental Structure Probing Data to Guide Structure Predictions.">
<polygon fill="#bfbfbf" stroke="#000000" points="116,-45.5 0,-45.5 0,-15.5 116,-15.5 116,-45.5"/>
<text text-anchor="start" x="8" y="-33.5" font-family="Helvetica,sans-Serif" font-size="10.00" fill="#000000">Experimental Structure</text>
<text text-anchor="middle" x="58" y="-22.5" font-family="Helvetica,sans-Serif" font-size="10.00" fill="#000000"> Probing Data</text>
</a>
</g>
</g>
<!-- Node0&#45;&gt;Node2 -->
<g id="edge2" class="edge">
<title>Node0&#45;&gt;Node2</title>
<path fill="none" stroke="#000000" d="M126.0143,-39.8813C134.6095,-41.0668 143.3906,-42.278 151.9465,-43.4581"/>
<polygon fill="#000000" stroke="#000000" points="126.4188,-36.404 116.0344,-38.5047 125.4623,-43.3384 126.4188,-36.404"/>
</g>
<!-- Node1 -->
<g id="node3" class="node">
<title>Node1</title>
<g id="a_node3"><a xlink:href="$group__SHAPE__reactivities.html" xlink:title="Incorporate SHAPE reactivity structure probing data into the folding recursions by means of soft cons...">
<polygon fill="none" stroke="#000000" points="278.5,-19 156.5,-19 156.5,0 278.5,0 278.5,-19"/>
<text text-anchor="middle" x="217.5" y="-7" font-family="Helvetica,sans-Serif" font-size="10.00" fill="#000000">SHAPE Reactivity Data</text>
</a>
</g>
</g>
<!-- Node0&#45;&gt;Node1 -->
<g id="edge1" class="edge">
<title>Node0&#45;&gt;Node1</title>
<path fill="none" stroke="#000000" d="M125.9886,-21.5485C136.0525,-20.2235 146.3719,-18.8648 156.2866,-17.5594"/>
<polygon fill="#000000" stroke="#000000" points="125.4919,-18.0836 116.0344,-22.8591 126.4057,-25.0237 125.4919,-18.0836"/>
</g>
</g>
</svg>
