<?xml version="1.0" encoding="UTF-8" standalone="no"?>
<!DOCTYPE svg PUBLIC "-//W3C//DTD SVG 1.1//EN"
 "http://www.w3.org/Graphics/SVG/1.1/DTD/svg11.dtd">
<!-- Generated by graphviz version 2.40.1 (0)
 -->
<!-- Title: Global MFE Prediction Pages: 1 -->
<svg width="345pt" height="134pt"
 viewBox="0.00 0.00 345.00 134.00" xmlns="http://www.w3.org/2000/svg" xmlns:xlink="http://www.w3.org/1999/xlink">
<g id="graph0" class="graph" transform="scale(1 1) rotate(0) translate(4 130)">
<title>Global MFE Prediction</title>
<!-- Node3 -->
<g id="node1" class="node">
<title>Node3</title>
<g id="a_node1"><a xlink:href="$group__mfe__global__deprecated.html" xlink:title=" ">
<polygon fill="none" stroke="#000000" points="322.5,-126 190.5,-126 190.5,-96 322.5,-96 322.5,-126"/>
<text text-anchor="start" x="198.5" y="-114" font-family="Helvetica,sans-Serif" font-size="10.00" fill="#000000">Deprecated Interface</text>
<text text-anchor="middle" x="256.5" y="-103" font-family="Helvetica,sans-Serif" font-size="10.00" fill="#000000"> for Global MFE Prediction</text>
</a>
</g>
</g>
<!-- Node0 -->
<g id="node2" class="node">
<title>Node0</title>
<g id="a_node2"><a xlink:title="Variations of the global Minimum Free Energy (MFE) prediction algorithm.">
<polygon fill="#bfbfbf" stroke="#000000" points="115,-71.5 0,-71.5 0,-52.5 115,-52.5 115,-71.5"/>
<text text-anchor="middle" x="57.5" y="-59.5" font-family="Helvetica,sans-Serif" font-size="10.00" fill="#000000">Global MFE Prediction</text>
</a>
</g>
</g>
<!-- Node0&#45;&gt;Node3 -->
<g id="edge3" class="edge">
<title>Node0&#45;&gt;Node3</title>
<path fill="none" stroke="#000000" d="M106.2923,-74.0142C133.181,-80.635 166.8123,-88.9161 195.4315,-95.963"/>
<polygon fill="#000000" stroke="#000000" points="106.8884,-70.5565 96.3416,-71.564 105.2147,-77.3535 106.8884,-70.5565"/>
</g>
<!-- Node1 -->
<g id="node3" class="node">
<title>Node1</title>
<g id="a_node3"><a xlink:href="$group__mfe.html" xlink:title="Predicting the Minimum Free Energy (MFE) and a corresponding (consensus) secondary structure.">
<polygon fill="none" stroke="#000000" points="313,-78 200,-78 200,-48 313,-48 313,-78"/>
<text text-anchor="start" x="208" y="-66" font-family="Helvetica,sans-Serif" font-size="10.00" fill="#000000">Minimum Free Energy</text>
<text text-anchor="middle" x="256.5" y="-55" font-family="Helvetica,sans-Serif" font-size="10.00" fill="#000000"> (MFE) Algorithms</text>
</a>
</g>
</g>
<!-- Node0&#45;&gt;Node1 -->
<g id="edge4" class="edge">
<title>Node0&#45;&gt;Node1</title>
<path fill="none" stroke="#006400" stroke-dasharray="5,2" d="M115.059,-62.2892C141.6902,-62.4231 173.2279,-62.5815 199.7575,-62.7149"/>
<text text-anchor="middle" x="145.5" y="-65" font-family="Helvetica,sans-Serif" font-size="10.00" fill="#000000">mfe.h</text>
</g>
<!-- Node2 -->
<g id="node4" class="node">
<title>Node2</title>
<g id="a_node4"><a xlink:href="$group__kl__neighborhood__mfe.html" xlink:title="Compute the minimum free energy (MFE) and secondary structures for a partitioning of the secondary st...">
<polygon fill="none" stroke="#000000" points="337,-30 176,-30 176,0 337,0 337,-30"/>
<text text-anchor="start" x="184" y="-18" font-family="Helvetica,sans-Serif" font-size="10.00" fill="#000000">Computing MFE representatives</text>
<text text-anchor="middle" x="256.5" y="-7" font-family="Helvetica,sans-Serif" font-size="10.00" fill="#000000"> of a Distance Based Partitioning</text>
</a>
</g>
</g>
<!-- Node0&#45;&gt;Node2 -->
<g id="edge2" class="edge">
<title>Node0&#45;&gt;Node2</title>
<path fill="none" stroke="#000000" d="M107.7136,-50.1405C133.527,-44.0439 165.2615,-36.5488 192.7826,-30.0488"/>
<polygon fill="#000000" stroke="#000000" points="106.6983,-46.7839 97.7706,-52.4888 108.3074,-53.5965 106.6983,-46.7839"/>
</g>
<!-- Node1&#45;&gt;Node0 -->
<g id="edge1" class="edge">
<title>Node1&#45;&gt;Node0</title>
<path fill="none" stroke="#000000" d="M189.8873,-60.4661C171.4612,-60.0146 151.4565,-59.7556 133,-60 127.2311,-60.0764 121.2149,-60.1856 115.2069,-60.3141"/>
<polygon fill="#000000" stroke="#000000" points="189.8518,-63.9663 199.9418,-60.7348 190.0389,-56.9688 189.8518,-63.9663"/>
</g>
</g>
</svg>
