<?xml version="1.0" encoding="UTF-8" standalone="no"?>
<!DOCTYPE svg PUBLIC "-//W3C//DTD SVG 1.1//EN"
 "http://www.w3.org/Graphics/SVG/1.1/DTD/svg11.dtd">
<!-- Generated by graphviz version 2.40.1 (0)
 -->
<!-- Title: The RNA Folding Grammar Pages: 1 -->
<svg width="307pt" height="184pt"
 viewBox="0.00 0.00 307.00 183.50" xmlns="http://www.w3.org/2000/svg" xmlns:xlink="http://www.w3.org/1999/xlink">
<g id="graph0" class="graph" transform="scale(1 1) rotate(0) translate(4 179.5)">
<title>The RNA Folding Grammar</title>
<!-- Node1 -->
<g id="node1" class="node">
<title>Node1</title>
<g id="a_node1"><a xlink:href="$group__model__details.html" xlink:title="Functions and data structures to fine&#45;tune the implemented secondary structure evaluation model.">
<polygon fill="none" stroke="#000000" points="290.5,-175.5 180.5,-175.5 180.5,-145.5 290.5,-145.5 290.5,-175.5"/>
<text text-anchor="start" x="188.5" y="-163.5" font-family="Helvetica,sans-Serif" font-size="10.00" fill="#000000">Fine&#45;tuning of the</text>
<text text-anchor="middle" x="235.5" y="-152.5" font-family="Helvetica,sans-Serif" font-size="10.00" fill="#000000"> Implemented Models</text>
</a>
</g>
</g>
<!-- Node2 -->
<g id="node2" class="node">
<title>Node2</title>
<g id="a_node2"><a xlink:href="$group__energy__parameters.html" xlink:title="All relevant functions to retrieve and copy pre&#45;calculated energy parameter sets as well as reading/w...">
<polygon fill="none" stroke="#000000" points="286,-127 185,-127 185,-108 286,-108 286,-127"/>
<text text-anchor="middle" x="235.5" y="-115" font-family="Helvetica,sans-Serif" font-size="10.00" fill="#000000">Energy Parameters</text>
</a>
</g>
</g>
<!-- Node4 -->
<g id="node3" class="node">
<title>Node4</title>
<g id="a_node3"><a xlink:href="$group__constraints.html" xlink:title="This module provides general functions that allow for an easy control of constrained secondary struct...">
<polygon fill="none" stroke="#000000" points="292,-89.5 179,-89.5 179,-59.5 292,-59.5 292,-89.5"/>
<text text-anchor="start" x="187" y="-77.5" font-family="Helvetica,sans-Serif" font-size="10.00" fill="#000000">Constraining the RNA</text>
<text text-anchor="middle" x="235.5" y="-66.5" font-family="Helvetica,sans-Serif" font-size="10.00" fill="#000000"> Folding Grammar</text>
</a>
</g>
</g>
<!-- Node0 -->
<g id="node4" class="node">
<title>Node0</title>
<g id="a_node4"><a xlink:title="The RNA folding grammar as implemented in RNAlib.">
<polygon fill="#bfbfbf" stroke="#000000" points="136,-105 0,-105 0,-86 136,-86 136,-105"/>
<text text-anchor="middle" x="68" y="-93" font-family="Helvetica,sans-Serif" font-size="10.00" fill="#000000">The RNA Folding Grammar</text>
</a>
</g>
</g>
<!-- Node0&#45;&gt;Node1 -->
<g id="edge1" class="edge">
<title>Node0&#45;&gt;Node1</title>
<path fill="none" stroke="#000000" d="M101.3829,-108.7995C121.7573,-116.8819 148.3497,-127.3693 172,-136.5 179.5862,-139.4288 187.6961,-142.5223 195.4962,-145.479"/>
<polygon fill="#000000" stroke="#000000" points="102.5063,-105.4798 91.9206,-105.0414 99.9225,-111.9855 102.5063,-105.4798"/>
</g>
<!-- Node0&#45;&gt;Node2 -->
<g id="edge2" class="edge">
<title>Node0&#45;&gt;Node2</title>
<path fill="none" stroke="#000000" d="M146.143,-105.7636C159.3144,-107.4935 172.6716,-109.2479 184.9037,-110.8545"/>
<polygon fill="#000000" stroke="#000000" points="146.4993,-102.2804 136.1287,-104.4482 145.5877,-109.2208 146.4993,-102.2804"/>
</g>
<!-- Node0&#45;&gt;Node4 -->
<g id="edge4" class="edge">
<title>Node0&#45;&gt;Node4</title>
<path fill="none" stroke="#000000" d="M146.2076,-85.6949C157.246,-84.311 168.4133,-82.9109 178.9381,-81.5913"/>
<polygon fill="#000000" stroke="#000000" points="145.6156,-82.2416 136.1287,-86.9585 146.4864,-89.1872 145.6156,-82.2416"/>
</g>
<!-- Node3 -->
<g id="node5" class="node">
<title>Node3</title>
<g id="a_node5"><a xlink:href="$group__domains.html" xlink:title="This module covers simple and straight&#45;forward extensions to the RNA folding grammar.">
<polygon fill="none" stroke="#000000" points="299,-41 172,-41 172,0 299,0 299,-41"/>
<text text-anchor="start" x="180" y="-29" font-family="Helvetica,sans-Serif" font-size="10.00" fill="#000000">Extending the Folding</text>
<text text-anchor="start" x="180" y="-18" font-family="Helvetica,sans-Serif" font-size="10.00" fill="#000000"> Grammar with Additional</text>
<text text-anchor="middle" x="235.5" y="-7" font-family="Helvetica,sans-Serif" font-size="10.00" fill="#000000"> Domains</text>
</a>
</g>
</g>
<!-- Node0&#45;&gt;Node3 -->
<g id="edge3" class="edge">
<title>Node0&#45;&gt;Node3</title>
<path fill="none" stroke="#000000" d="M98.7009,-81.7533C124.0771,-70.3909 160.4977,-54.0831 189.3801,-41.1507"/>
<polygon fill="#000000" stroke="#000000" points="97.2513,-78.5675 89.5548,-85.8486 100.112,-84.9563 97.2513,-78.5675"/>
</g>
</g>
</svg>
