<?xml version="1.0" encoding="UTF-8" standalone="no"?>
<!DOCTYPE svg PUBLIC "-//W3C//DTD SVG 1.1//EN"
 "http://www.w3.org/Graphics/SVG/1.1/DTD/svg11.dtd">
<!-- Generated by graphviz version 2.40.1 (0)
 -->
<!-- Title: Ligands Binding to RNA Structures Pages: 1 -->
<svg width="277pt" height="108pt"
 viewBox="0.00 0.00 277.00 108.00" xmlns="http://www.w3.org/2000/svg" xmlns:xlink="http://www.w3.org/1999/xlink">
<g id="graph0" class="graph" transform="scale(1 1) rotate(0) translate(4 104)">
<title>Ligands Binding to RNA Structures</title>
<!-- Node0 -->
<g id="node1" class="node">
<title>Node0</title>
<g id="a_node1"><a xlink:title="Simple Extensions to Model Ligand Binding to RNA Structures.">
<polygon fill="#bfbfbf" stroke="#000000" points="97,-59 0,-59 0,-29 97,-29 97,-59"/>
<text text-anchor="start" x="8" y="-47" font-family="Helvetica,sans-Serif" font-size="10.00" fill="#000000">Ligands Binding to</text>
<text text-anchor="middle" x="48.5" y="-36" font-family="Helvetica,sans-Serif" font-size="10.00" fill="#000000"> RNA Structures</text>
</a>
</g>
</g>
<!-- Node2 -->
<g id="node2" class="node">
<title>Node2</title>
<g id="a_node2"><a xlink:href="$group__constraints__ligand.html" xlink:title=" ">
<polygon fill="none" stroke="#000000" points="269,-100 133,-100 133,-48 269,-48 269,-100"/>
<text text-anchor="start" x="141" y="-88" font-family="Helvetica,sans-Serif" font-size="10.00" fill="#000000">Incorporating Ligands</text>
<text text-anchor="start" x="141" y="-77" font-family="Helvetica,sans-Serif" font-size="10.00" fill="#000000"> Binding to Specific</text>
<text text-anchor="start" x="141" y="-66" font-family="Helvetica,sans-Serif" font-size="10.00" fill="#000000"> Sequence/Structure Motifs</text>
<text text-anchor="middle" x="201" y="-55" font-family="Helvetica,sans-Serif" font-size="10.00" fill="#000000"> using Soft Constraints</text>
</a>
</g>
</g>
<!-- Node0&#45;&gt;Node2 -->
<g id="edge2" class="edge">
<title>Node0&#45;&gt;Node2</title>
<path fill="none" stroke="#000000" d="M107.2044,-55.5484C115.5749,-57.1951 124.2438,-58.9004 132.777,-60.5791"/>
<polygon fill="#000000" stroke="#000000" points="107.6588,-52.0708 97.1712,-53.5747 106.3076,-58.9391 107.6588,-52.0708"/>
</g>
<!-- Node1 -->
<g id="node3" class="node">
<title>Node1</title>
<g id="a_node3"><a xlink:href="$group__ligands__up.html" xlink:title="Add ligand binding to loop regions using the Unstructured Domains feature.">
<polygon fill="none" stroke="#000000" points="260,-30 142,-30 142,0 260,0 260,-30"/>
<text text-anchor="start" x="150" y="-18" font-family="Helvetica,sans-Serif" font-size="10.00" fill="#000000">Ligands Binding to</text>
<text text-anchor="middle" x="201" y="-7" font-family="Helvetica,sans-Serif" font-size="10.00" fill="#000000"> Unstructured Domains</text>
</a>
</g>
</g>
<!-- Node0&#45;&gt;Node1 -->
<g id="edge1" class="edge">
<title>Node0&#45;&gt;Node1</title>
<path fill="none" stroke="#000000" d="M107.0282,-32.87C118.4405,-30.6998 130.4136,-28.423 141.846,-26.249"/>
<polygon fill="#000000" stroke="#000000" points="106.3413,-29.4379 97.1712,-34.7445 107.6491,-36.3146 106.3413,-29.4379"/>
</g>
</g>
</svg>
