<?xml version="1.0" encoding="UTF-8" standalone="no"?>
<!DOCTYPE svg PUBLIC "-//W3C//DTD SVG 1.1//EN"
 "http://www.w3.org/Graphics/SVG/1.1/DTD/svg11.dtd">
<!-- Generated by graphviz version 2.40.1 (0)
 -->
<!-- Title: Multiple Sequence Alignment Utilities Pages: 1 -->
<svg width="444pt" height="49pt"
 viewBox="0.00 0.00 444.00 49.00" xmlns="http://www.w3.org/2000/svg" xmlns:xlink="http://www.w3.org/1999/xlink">
<g id="graph0" class="graph" transform="scale(1 1) rotate(0) translate(4 45)">
<title>Multiple Sequence Alignment Utilities</title>
<!-- Node1 -->
<g id="node1" class="node">
<title>Node1</title>
<g id="a_node1"><a xlink:href="$group__utils.html" xlink:title=" ">
<polygon fill="none" stroke="#000000" points="50,-30 0,-30 0,-11 50,-11 50,-30"/>
<text text-anchor="middle" x="25" y="-18" font-family="Helvetica,sans-Serif" font-size="10.00" fill="#000000">Utilities</text>
</a>
</g>
</g>
<!-- Node0 -->
<g id="node2" class="node">
<title>Node0</title>
<g id="a_node2"><a xlink:title="Functions to extract features from and to manipulate multiple sequence alignments.">
<polygon fill="#bfbfbf" stroke="#000000" points="285,-35.5 142,-35.5 142,-5.5 285,-5.5 285,-35.5"/>
<text text-anchor="start" x="150" y="-23.5" font-family="Helvetica,sans-Serif" font-size="10.00" fill="#000000">Multiple Sequence Alignment</text>
<text text-anchor="middle" x="213.5" y="-12.5" font-family="Helvetica,sans-Serif" font-size="10.00" fill="#000000"> Utilities</text>
</a>
</g>
</g>
<!-- Node1&#45;&gt;Node0 -->
<g id="edge1" class="edge">
<title>Node1&#45;&gt;Node0</title>
<path fill="none" stroke="#000000" d="M60.3145,-20.5C83.2821,-20.5 114.0486,-20.5 141.9822,-20.5"/>
<polygon fill="#000000" stroke="#000000" points="60.0314,-17.0001 50.0313,-20.5 60.0313,-24.0001 60.0314,-17.0001"/>
</g>
<!-- Node0&#45;&gt;Node1 -->
<g id="edge3" class="edge">
<title>Node0&#45;&gt;Node1</title>
<path fill="none" stroke="#006400" stroke-dasharray="5,2" d="M141.863,-6.4122C118.2614,-3.6855 91.9356,-2.7016 68,-6.5 61.9519,-7.4598 55.5975,-9.1344 49.6849,-10.9991"/>
<text text-anchor="middle" x="96" y="-9.5" font-family="Helvetica,sans-Serif" font-size="10.00" fill="#000000">alignments.h</text>
</g>
<!-- Node2 -->
<g id="node3" class="node">
<title>Node2</title>
<g id="a_node3"><a xlink:href="$group__aln__utils__deprecated.html" xlink:title=" ">
<polygon fill="none" stroke="#000000" points="436,-41 322,-41 322,0 436,0 436,-41"/>
<text text-anchor="start" x="330" y="-29" font-family="Helvetica,sans-Serif" font-size="10.00" fill="#000000">Deprecated Interface</text>
<text text-anchor="start" x="330" y="-18" font-family="Helvetica,sans-Serif" font-size="10.00" fill="#000000"> for Multiple Sequence</text>
<text text-anchor="middle" x="379" y="-7" font-family="Helvetica,sans-Serif" font-size="10.00" fill="#000000"> Alignment Utilities</text>
</a>
</g>
</g>
<!-- Node0&#45;&gt;Node2 -->
<g id="edge2" class="edge">
<title>Node0&#45;&gt;Node2</title>
<path fill="none" stroke="#000000" d="M295.2848,-20.5C304.3067,-20.5 313.3439,-20.5 321.9674,-20.5"/>
<polygon fill="#000000" stroke="#000000" points="295.1282,-17.0001 285.1282,-20.5 295.1281,-24.0001 295.1282,-17.0001"/>
</g>
</g>
</svg>
