<?xml version="1.0" encoding="UTF-8" standalone="no"?>
<!DOCTYPE svg PUBLIC "-//W3C//DTD SVG 1.1//EN"
 "http://www.w3.org/Graphics/SVG/1.1/DTD/svg11.dtd">
<!-- Generated by graphviz version 2.40.1 (0)
 -->
<!-- Title: Nucleic Acid Sequences and Structures Pages: 1 -->
<svg width="301pt" height="38pt"
 viewBox="0.00 0.00 301.00 38.00" xmlns="http://www.w3.org/2000/svg" xmlns:xlink="http://www.w3.org/1999/xlink">
<g id="graph0" class="graph" transform="scale(1 1) rotate(0) translate(4 34)">
<title>Nucleic Acid Sequences and Structures</title>
<!-- Node0 -->
<g id="node1" class="node">
<title>Node0</title>
<g id="a_node1"><a xlink:title="Functions to read/write different file formats for nucleic acid sequences and secondary structures.">
<polygon fill="#bfbfbf" stroke="#000000" points="124,-30 0,-30 0,0 124,0 124,-30"/>
<text text-anchor="start" x="8" y="-18" font-family="Helvetica,sans-Serif" font-size="10.00" fill="#000000">Nucleic Acid Sequences</text>
<text text-anchor="middle" x="62" y="-7" font-family="Helvetica,sans-Serif" font-size="10.00" fill="#000000"> and Structures</text>
</a>
</g>
</g>
<!-- Node1 -->
<g id="node2" class="node">
<title>Node1</title>
<g id="a_node2"><a xlink:href="$group__file__utils.html" xlink:title="Functions to parse, write, and convert various file formats and to deal with file system related issu...">
<polygon fill="none" stroke="#000000" points="293,-24.5 220,-24.5 220,-5.5 293,-5.5 293,-24.5"/>
<text text-anchor="middle" x="256.5" y="-12.5" font-family="Helvetica,sans-Serif" font-size="10.00" fill="#000000">Files and I/O</text>
</a>
</g>
</g>
<!-- Node0&#45;&gt;Node1 -->
<g id="edge2" class="edge">
<title>Node0&#45;&gt;Node1</title>
<path fill="none" stroke="#006400" stroke-dasharray="5,2" d="M124.0758,-15C155.6496,-15 192.9402,-15 219.8911,-15"/>
<text text-anchor="middle" x="172" y="-18" font-family="Helvetica,sans-Serif" font-size="10.00" fill="#000000">file_formats.h</text>
</g>
<!-- Node1&#45;&gt;Node0 -->
<g id="edge1" class="edge">
<title>Node1&#45;&gt;Node0</title>
<path fill="none" stroke="#000000" d="M209.7347,-13.1722C207.1183,-13.1048 204.5264,-13.0463 202,-13 176.4809,-12.5319 148.3434,-12.7843 124.0286,-13.2448"/>
<polygon fill="#000000" stroke="#000000" points="209.7612,-16.6744 219.8601,-13.4709 209.9677,-9.6775 209.7612,-16.6744"/>
</g>
</g>
</svg>
