<?xml version="1.0" encoding="UTF-8" standalone="no"?>
<!DOCTYPE svg PUBLIC "-//W3C//DTD SVG 1.1//EN"
 "http://www.w3.org/Graphics/SVG/1.1/DTD/svg11.dtd">
<!-- Generated by graphviz version 2.40.1 (0)
 -->
<!-- Title: Local (sliding window) Partition Function and Equilibrium Probabilities Pages: 1 -->
<svg width="581pt" height="49pt"
 viewBox="0.00 0.00 581.00 49.00" xmlns="http://www.w3.org/2000/svg" xmlns:xlink="http://www.w3.org/1999/xlink">
<g id="graph0" class="graph" transform="scale(1 1) rotate(0) translate(4 45)">
<title>Local (sliding window) Partition Function and Equilibrium Probabilities</title>
<!-- Node1 -->
<g id="node1" class="node">
<title>Node1</title>
<g id="a_node1"><a xlink:href="$group__pf__fold.html" xlink:title="Compute the partition function to assess various equilibrium properties.">
<polygon fill="none" stroke="#000000" points="134,-35.5 0,-35.5 0,-5.5 134,-5.5 134,-35.5"/>
<text text-anchor="start" x="8" y="-23.5" font-family="Helvetica,sans-Serif" font-size="10.00" fill="#000000">Partition Function</text>
<text text-anchor="middle" x="67" y="-12.5" font-family="Helvetica,sans-Serif" font-size="10.00" fill="#000000"> and Equilibrium Properties</text>
</a>
</g>
</g>
<!-- Node0 -->
<g id="node3" class="node">
<title>Node0</title>
<g id="a_node3"><a xlink:title="Scanning version using a sliding window approach to compute equilibrium probabilities.">
<polygon fill="#bfbfbf" stroke="#000000" points="381,-41 257,-41 257,0 381,0 381,-41"/>
<text text-anchor="start" x="265" y="-29" font-family="Helvetica,sans-Serif" font-size="10.00" fill="#000000">Local (sliding window)</text>
<text text-anchor="start" x="265" y="-18" font-family="Helvetica,sans-Serif" font-size="10.00" fill="#000000"> Partition Function and</text>
<text text-anchor="middle" x="319" y="-7" font-family="Helvetica,sans-Serif" font-size="10.00" fill="#000000"> Equilibrium Probabilities</text>
</a>
</g>
</g>
<!-- Node1&#45;&gt;Node0 -->
<g id="edge1" class="edge">
<title>Node1&#45;&gt;Node0</title>
<path fill="none" stroke="#000000" d="M144.2034,-20.5C180.3067,-20.5 222.7317,-20.5 256.7439,-20.5"/>
<polygon fill="#000000" stroke="#000000" points="144.2004,-17.0001 134.2003,-20.5 144.2003,-24.0001 144.2004,-17.0001"/>
</g>
<!-- Node2 -->
<g id="node2" class="node">
<title>Node2</title>
<g id="a_node2"><a xlink:href="$group__part__func__window__deprecated.html" xlink:title=" ">
<polygon fill="none" stroke="#000000" points="573,-41 418,-41 418,0 573,0 573,-41"/>
<text text-anchor="start" x="426" y="-29" font-family="Helvetica,sans-Serif" font-size="10.00" fill="#000000">Deprecated Interface</text>
<text text-anchor="start" x="426" y="-18" font-family="Helvetica,sans-Serif" font-size="10.00" fill="#000000"> for Local (Sliding Window)</text>
<text text-anchor="middle" x="495.5" y="-7" font-family="Helvetica,sans-Serif" font-size="10.00" fill="#000000"> Partition Function Computation</text>
</a>
</g>
</g>
<!-- Node0&#45;&gt;Node1 -->
<g id="edge3" class="edge">
<title>Node0&#45;&gt;Node1</title>
<path fill="none" stroke="#006400" stroke-dasharray="5,2" d="M256.6855,-8.5206C250.7258,-7.6992 244.7593,-7.0001 239,-6.5 200.4783,-3.1548 190.5379,-3.3475 152,-6.5 146.1867,-6.9755 140.1719,-7.6311 134.1519,-8.4008"/>
<text text-anchor="middle" x="195.5" y="-9.5" font-family="Helvetica,sans-Serif" font-size="10.00" fill="#000000">part_func_window.h</text>
</g>
<!-- Node0&#45;&gt;Node2 -->
<g id="edge2" class="edge">
<title>Node0&#45;&gt;Node2</title>
<path fill="none" stroke="#000000" d="M391.3333,-20.5C400.044,-20.5 408.9686,-20.5 417.7524,-20.5"/>
<polygon fill="#000000" stroke="#000000" points="391.2273,-17.0001 381.2273,-20.5 391.2273,-24.0001 391.2273,-17.0001"/>
</g>
</g>
</svg>
