<?xml version="1.0" encoding="UTF-8" standalone="no"?>
<!DOCTYPE svg PUBLIC "-//W3C//DTD SVG 1.1//EN"
 "http://www.w3.org/Graphics/SVG/1.1/DTD/svg11.dtd">
<!-- Generated by graphviz version 2.40.1 (0)
 -->
<!-- Title: Local (sliding window) MFE Prediction Pages: 1 -->
<svg width="354pt" height="100pt"
 viewBox="0.00 0.00 354.00 99.50" xmlns="http://www.w3.org/2000/svg" xmlns:xlink="http://www.w3.org/1999/xlink">
<g id="graph0" class="graph" transform="scale(1 1) rotate(0) translate(4 95.5)">
<title>Local (sliding window) MFE Prediction</title>
<!-- Node0 -->
<g id="node1" class="node">
<title>Node0</title>
<g id="a_node1"><a xlink:title="Variations of the local (sliding window) Minimum Free Energy (MFE) prediction algorithm.">
<polygon fill="#bfbfbf" stroke="#000000" points="113,-60.5 0,-60.5 0,-30.5 113,-30.5 113,-60.5"/>
<text text-anchor="start" x="8" y="-48.5" font-family="Helvetica,sans-Serif" font-size="10.00" fill="#000000">Local (sliding window)</text>
<text text-anchor="middle" x="56.5" y="-37.5" font-family="Helvetica,sans-Serif" font-size="10.00" fill="#000000"> MFE Prediction</text>
</a>
</g>
</g>
<!-- Node1 -->
<g id="node2" class="node">
<title>Node1</title>
<g id="a_node2"><a xlink:href="$group__mfe.html" xlink:title="Predicting the Minimum Free Energy (MFE) and a corresponding (consensus) secondary structure.">
<polygon fill="none" stroke="#000000" points="335.5,-91.5 222.5,-91.5 222.5,-61.5 335.5,-61.5 335.5,-91.5"/>
<text text-anchor="start" x="230.5" y="-79.5" font-family="Helvetica,sans-Serif" font-size="10.00" fill="#000000">Minimum Free Energy</text>
<text text-anchor="middle" x="279" y="-68.5" font-family="Helvetica,sans-Serif" font-size="10.00" fill="#000000"> (MFE) Algorithms</text>
</a>
</g>
</g>
<!-- Node0&#45;&gt;Node1 -->
<g id="edge3" class="edge">
<title>Node0&#45;&gt;Node1</title>
<path fill="none" stroke="#006400" stroke-dasharray="5,2" d="M113.031,-53.9212C119.0951,-54.8024 125.1745,-55.6763 131,-56.5 161.1654,-60.765 194.8185,-65.3282 222.403,-69.0174"/>
<text text-anchor="middle" x="162.5" y="-67.5" font-family="Helvetica,sans-Serif" font-size="10.00" fill="#000000">mfe_window.h</text>
</g>
<!-- Node2 -->
<g id="node3" class="node">
<title>Node2</title>
<g id="a_node3"><a xlink:href="$group__mfe__window__deprecated.html" xlink:title=" ">
<polygon fill="none" stroke="#000000" points="346,-41 212,-41 212,0 346,0 346,-41"/>
<text text-anchor="start" x="220" y="-29" font-family="Helvetica,sans-Serif" font-size="10.00" fill="#000000">Deprecated Interface</text>
<text text-anchor="start" x="220" y="-18" font-family="Helvetica,sans-Serif" font-size="10.00" fill="#000000"> for Local (Sliding Window)</text>
<text text-anchor="middle" x="279" y="-7" font-family="Helvetica,sans-Serif" font-size="10.00" fill="#000000"> MFE Prediction</text>
</a>
</g>
</g>
<!-- Node0&#45;&gt;Node2 -->
<g id="edge2" class="edge">
<title>Node0&#45;&gt;Node2</title>
<path fill="none" stroke="#000000" d="M123.3888,-35.4532C125.9574,-35.1216 128.5014,-34.8024 131,-34.5 157.3908,-31.3057 186.5036,-28.4155 211.8758,-26.1017"/>
<polygon fill="#000000" stroke="#000000" points="122.8537,-31.9935 113.4045,-36.7853 123.7795,-38.932 122.8537,-31.9935"/>
</g>
<!-- Node1&#45;&gt;Node0 -->
<g id="edge1" class="edge">
<title>Node1&#45;&gt;Node0</title>
<path fill="none" stroke="#000000" d="M212.1601,-62.5062C206.0335,-61.4129 199.9107,-60.3899 194,-59.5 167.5438,-55.5169 138.0495,-52.3476 113.1824,-50.0389"/>
<polygon fill="#000000" stroke="#000000" points="211.9689,-66.0299 222.4378,-64.4016 213.2385,-59.146 211.9689,-66.0299"/>
</g>
</g>
</svg>
