<?xml version="1.0" encoding="UTF-8" standalone="no"?>
<!DOCTYPE svg PUBLIC "-//W3C//DTD SVG 1.1//EN"
 "http://www.w3.org/Graphics/SVG/1.1/DTD/svg11.dtd">
<!-- Generated by graphviz version 2.40.1 (0)
 -->
<!-- Title: (Abstract) Data Structures Pages: 1 -->
<svg width="397pt" height="187pt"
 viewBox="0.00 0.00 397.00 187.00" xmlns="http://www.w3.org/2000/svg" xmlns:xlink="http://www.w3.org/1999/xlink">
<g id="graph0" class="graph" transform="scale(1 1) rotate(0) translate(4 183)">
<title>(Abstract) Data Structures</title>
<!-- Node0 -->
<g id="node1" class="node">
<title>Node0</title>
<g id="a_node1"><a xlink:title="All datastructures and typedefs shared among the ViennaRNA Package can be found here.">
<polygon fill="#bfbfbf" stroke="#000000" points="217,-99 86,-99 86,-80 217,-80 217,-99"/>
<text text-anchor="middle" x="151.5" y="-87" font-family="Helvetica,sans-Serif" font-size="10.00" fill="#000000">(Abstract) Data Structures</text>
</a>
</g>
</g>
<!-- Node2 -->
<g id="node2" class="node">
<title>Node2</title>
<g id="a_node2"><a xlink:href="$group__fold__compound.html" xlink:title="This module provides interfaces that deal with the most basic data structure used in structure predic...">
<polygon fill="none" stroke="#000000" points="373.5,-179 268.5,-179 268.5,-160 373.5,-160 373.5,-179"/>
<text text-anchor="middle" x="321" y="-167" font-family="Helvetica,sans-Serif" font-size="10.00" fill="#000000">The Fold Compound</text>
</a>
</g>
</g>
<!-- Node0&#45;&gt;Node2 -->
<g id="edge2" class="edge">
<title>Node0&#45;&gt;Node2</title>
<path fill="none" stroke="#000000" d="M172.5984,-104.907C192.4743,-118.7952 223.5222,-138.9131 253,-151.5 260.6372,-154.761 269.0149,-157.5597 277.201,-159.9115"/>
<polygon fill="#000000" stroke="#000000" points="174.4782,-101.9492 164.2982,-99.0137 170.4257,-107.6568 174.4782,-101.9492"/>
</g>
<!-- Node6 -->
<g id="node4" class="node">
<title>Node6</title>
<g id="a_node4"><a xlink:href="$group__buffer__utils.html" xlink:title="Functions that provide dynamically buffered stream&#45;like data structures.">
<polygon fill="none" stroke="#000000" points="344.5,-142 297.5,-142 297.5,-123 344.5,-123 344.5,-142"/>
<text text-anchor="middle" x="321" y="-130" font-family="Helvetica,sans-Serif" font-size="10.00" fill="#000000">Buffers</text>
</a>
</g>
</g>
<!-- Node0&#45;&gt;Node6 -->
<g id="edge6" class="edge">
<title>Node0&#45;&gt;Node6</title>
<path fill="none" stroke="#000000" d="M199.144,-101.5867C231.0668,-109.6851 271.7413,-120.0037 297.0799,-126.4318"/>
<polygon fill="#000000" stroke="#000000" points="199.6712,-98.1096 189.1175,-99.0431 197.9498,-104.8947 199.6712,-98.1096"/>
</g>
<!-- Node3 -->
<g id="node5" class="node">
<title>Node3</title>
<g id="a_node5"><a xlink:href="$group__dp__matrices.html" xlink:title="This module provides interfaces that deal with creation and destruction of dynamic programming matric...">
<polygon fill="none" stroke="#000000" points="389,-104.5 253,-104.5 253,-74.5 389,-74.5 389,-104.5"/>
<text text-anchor="start" x="261" y="-92.5" font-family="Helvetica,sans-Serif" font-size="10.00" fill="#000000">The Dynamic Programming</text>
<text text-anchor="middle" x="321" y="-81.5" font-family="Helvetica,sans-Serif" font-size="10.00" fill="#000000"> Matrices</text>
</a>
</g>
</g>
<!-- Node0&#45;&gt;Node3 -->
<g id="edge3" class="edge">
<title>Node0&#45;&gt;Node3</title>
<path fill="none" stroke="#000000" d="M227.0388,-89.5C235.6304,-89.5 244.3498,-89.5 252.8382,-89.5"/>
<polygon fill="#000000" stroke="#000000" points="227.0332,-86.0001 217.0331,-89.5 227.0331,-93.0001 227.0332,-86.0001"/>
</g>
<!-- Node5 -->
<g id="node6" class="node">
<title>Node5</title>
<g id="a_node6"><a xlink:href="$group__heap__utils.html" xlink:title="Interface for an abstract implementation of a heap data structure.">
<polygon fill="none" stroke="#000000" points="343.5,-56 298.5,-56 298.5,-37 343.5,-37 343.5,-56"/>
<text text-anchor="middle" x="321" y="-44" font-family="Helvetica,sans-Serif" font-size="10.00" fill="#000000">Heaps</text>
</a>
</g>
</g>
<!-- Node0&#45;&gt;Node5 -->
<g id="edge5" class="edge">
<title>Node0&#45;&gt;Node5</title>
<path fill="none" stroke="#000000" d="M198.8474,-77.4886C231.2325,-69.2729 272.7325,-58.7449 298.0689,-52.3173"/>
<polygon fill="#000000" stroke="#000000" points="197.9498,-74.1053 189.1175,-79.9569 199.6712,-80.8904 197.9498,-74.1053"/>
</g>
<!-- Node4 -->
<g id="node7" class="node">
<title>Node4</title>
<g id="a_node7"><a xlink:href="$group__hash__table__utils.html" xlink:title="Various implementations of hash table functions.">
<polygon fill="none" stroke="#000000" points="356.5,-19 285.5,-19 285.5,0 356.5,0 356.5,-19"/>
<text text-anchor="middle" x="321" y="-7" font-family="Helvetica,sans-Serif" font-size="10.00" fill="#000000">Hash Tables</text>
</a>
</g>
</g>
<!-- Node0&#45;&gt;Node4 -->
<g id="edge4" class="edge">
<title>Node0&#45;&gt;Node4</title>
<path fill="none" stroke="#000000" d="M172.5984,-74.093C192.4743,-60.2048 223.5222,-40.0869 253,-27.5 263.2203,-23.136 274.767,-19.6 285.4056,-16.8549"/>
<polygon fill="#000000" stroke="#000000" points="170.4257,-71.3432 164.2982,-79.9863 174.4782,-77.0508 170.4257,-71.3432"/>
</g>
<!-- Node1 -->
<g id="node3" class="node">
<title>Node1</title>
<g id="a_node3"><a xlink:href="$group__utils.html" xlink:title=" ">
<polygon fill="none" stroke="#000000" points="50,-99 0,-99 0,-80 50,-80 50,-99"/>
<text text-anchor="middle" x="25" y="-87" font-family="Helvetica,sans-Serif" font-size="10.00" fill="#000000">Utilities</text>
</a>
</g>
</g>
<!-- Node1&#45;&gt;Node0 -->
<g id="edge1" class="edge">
<title>Node1&#45;&gt;Node0</title>
<path fill="none" stroke="#000000" d="M60.3308,-89.5C68.3358,-89.5 77.0872,-89.5 85.8995,-89.5"/>
<polygon fill="#000000" stroke="#000000" points="60.2952,-86.0001 50.2951,-89.5 60.2951,-93.0001 60.2952,-86.0001"/>
</g>
</g>
</svg>
