<?xml version="1.0" encoding="UTF-8" standalone="no"?>
<!DOCTYPE svg PUBLIC "-//W3C//DTD SVG 1.1//EN"
 "http://www.w3.org/Graphics/SVG/1.1/DTD/svg11.dtd">
<!-- Generated by graphviz version 2.40.1 (0)
 -->
<!-- Title: Secondary Structure Utilities Pages: 1 -->
<svg width="365pt" height="290pt"
 viewBox="0.00 0.00 365.00 289.50" xmlns="http://www.w3.org/2000/svg" xmlns:xlink="http://www.w3.org/1999/xlink">
<g id="graph0" class="graph" transform="scale(1 1) rotate(0) translate(4 285.5)">
<title>Secondary Structure Utilities</title>
<!-- Node4 -->
<g id="node1" class="node">
<title>Node4</title>
<g id="a_node1"><a xlink:href="$group__struct__utils__plist.html" xlink:title=" ">
<polygon fill="none" stroke="#000000" points="355,-281.5 230,-281.5 230,-251.5 355,-251.5 355,-281.5"/>
<text text-anchor="start" x="238" y="-269.5" font-family="Helvetica,sans-Serif" font-size="10.00" fill="#000000">Pair List Representation</text>
<text text-anchor="middle" x="292.5" y="-258.5" font-family="Helvetica,sans-Serif" font-size="10.00" fill="#000000"> of Secondary Structures</text>
</a>
</g>
</g>
<!-- Node6 -->
<g id="node2" class="node">
<title>Node6</title>
<g id="a_node2"><a xlink:href="$group__struct__utils__tree.html" xlink:title=" ">
<polygon fill="none" stroke="#000000" points="355,-233.5 230,-233.5 230,-203.5 355,-203.5 355,-233.5"/>
<text text-anchor="start" x="238" y="-221.5" font-family="Helvetica,sans-Serif" font-size="10.00" fill="#000000">Tree Representation</text>
<text text-anchor="middle" x="292.5" y="-210.5" font-family="Helvetica,sans-Serif" font-size="10.00" fill="#000000"> of Secondary Structures</text>
</a>
</g>
</g>
<!-- Node2 -->
<g id="node3" class="node">
<title>Node2</title>
<g id="a_node3"><a xlink:href="$group__struct__utils__dot__bracket.html" xlink:title=" ">
<polygon fill="none" stroke="#000000" points="355,-185.5 230,-185.5 230,-155.5 355,-155.5 355,-185.5"/>
<text text-anchor="start" x="238" y="-173.5" font-family="Helvetica,sans-Serif" font-size="10.00" fill="#000000">Dot&#45;Bracket Notation</text>
<text text-anchor="middle" x="292.5" y="-162.5" font-family="Helvetica,sans-Serif" font-size="10.00" fill="#000000"> of Secondary Structures</text>
</a>
</g>
</g>
<!-- Node0 -->
<g id="node4" class="node">
<title>Node0</title>
<g id="a_node4"><a xlink:title="Functions to create, parse, convert, manipulate, and compare secondary structure representations.">
<polygon fill="#bfbfbf" stroke="#000000" points="192,-161.5 86,-161.5 86,-131.5 192,-131.5 192,-161.5"/>
<text text-anchor="start" x="94" y="-149.5" font-family="Helvetica,sans-Serif" font-size="10.00" fill="#000000">Secondary Structure</text>
<text text-anchor="middle" x="139" y="-138.5" font-family="Helvetica,sans-Serif" font-size="10.00" fill="#000000"> Utilities</text>
</a>
</g>
</g>
<!-- Node0&#45;&gt;Node4 -->
<g id="edge4" class="edge">
<title>Node0&#45;&gt;Node4</title>
<path fill="none" stroke="#000000" d="M155.5036,-169.7918C171.7788,-191.2686 198.4499,-222.7266 228,-242.5 233.0643,-245.8887 238.6706,-248.8798 244.4021,-251.4971"/>
<polygon fill="#000000" stroke="#000000" points="158.1544,-167.4902 149.3883,-161.5398 152.5303,-171.658 158.1544,-167.4902"/>
</g>
<!-- Node0&#45;&gt;Node6 -->
<g id="edge6" class="edge">
<title>Node0&#45;&gt;Node6</title>
<path fill="none" stroke="#000000" d="M173.7227,-166.6739C189.9475,-175.7229 209.687,-186.2027 228,-194.5 234.8563,-197.6065 242.2443,-200.6375 249.487,-203.442"/>
<polygon fill="#000000" stroke="#000000" points="175.0433,-163.4006 164.6133,-161.5387 171.6057,-169.4984 175.0433,-163.4006"/>
</g>
<!-- Node0&#45;&gt;Node2 -->
<g id="edge2" class="edge">
<title>Node0&#45;&gt;Node2</title>
<path fill="none" stroke="#000000" d="M202.3664,-156.4074C211.4432,-157.8266 220.7777,-159.2861 229.8408,-160.7031"/>
<polygon fill="#000000" stroke="#000000" points="202.6767,-152.9135 192.2561,-154.8267 201.5953,-159.8295 202.6767,-152.9135"/>
</g>
<!-- Node3 -->
<g id="node5" class="node">
<title>Node3</title>
<g id="a_node5"><a xlink:href="$group__struct__utils__pair__table.html" xlink:title=" ">
<polygon fill="none" stroke="#000000" points="357,-137.5 228,-137.5 228,-107.5 357,-107.5 357,-137.5"/>
<text text-anchor="start" x="236" y="-125.5" font-family="Helvetica,sans-Serif" font-size="10.00" fill="#000000">Pair Table Representation</text>
<text text-anchor="middle" x="292.5" y="-114.5" font-family="Helvetica,sans-Serif" font-size="10.00" fill="#000000"> of Secondary Structures</text>
</a>
</g>
</g>
<!-- Node0&#45;&gt;Node3 -->
<g id="edge3" class="edge">
<title>Node0&#45;&gt;Node3</title>
<path fill="none" stroke="#000000" d="M202.4103,-136.5857C210.8486,-135.2663 219.5089,-133.9123 227.966,-132.59"/>
<polygon fill="#000000" stroke="#000000" points="201.5953,-133.1705 192.2561,-138.1733 202.6767,-140.0865 201.5953,-133.1705"/>
</g>
<!-- Node5 -->
<g id="node7" class="node">
<title>Node5</title>
<g id="a_node7"><a xlink:href="$group__struct__utils__helix__list.html" xlink:title=" ">
<polygon fill="none" stroke="#000000" points="356,-89.5 229,-89.5 229,-59.5 356,-59.5 356,-89.5"/>
<text text-anchor="start" x="237" y="-77.5" font-family="Helvetica,sans-Serif" font-size="10.00" fill="#000000">Helix List Representation</text>
<text text-anchor="middle" x="292.5" y="-66.5" font-family="Helvetica,sans-Serif" font-size="10.00" fill="#000000"> of Secondary Structures</text>
</a>
</g>
</g>
<!-- Node0&#45;&gt;Node5 -->
<g id="edge5" class="edge">
<title>Node0&#45;&gt;Node5</title>
<path fill="none" stroke="#000000" d="M173.7227,-126.3261C189.9475,-117.2771 209.687,-106.7973 228,-98.5 234.8563,-95.3935 242.2443,-92.3625 249.487,-89.558"/>
<polygon fill="#000000" stroke="#000000" points="171.6057,-123.5016 164.6133,-131.4613 175.0433,-129.5994 171.6057,-123.5016"/>
</g>
<!-- Node7 -->
<g id="node8" class="node">
<title>Node7</title>
<g id="a_node8"><a xlink:href="$group__struct__utils__deprecated.html" xlink:title=" ">
<polygon fill="none" stroke="#000000" points="354,-41 231,-41 231,0 354,0 354,-41"/>
<text text-anchor="start" x="239" y="-29" font-family="Helvetica,sans-Serif" font-size="10.00" fill="#000000">Deprecated Interface</text>
<text text-anchor="start" x="239" y="-18" font-family="Helvetica,sans-Serif" font-size="10.00" fill="#000000"> for Secondary Structure</text>
<text text-anchor="middle" x="292.5" y="-7" font-family="Helvetica,sans-Serif" font-size="10.00" fill="#000000"> Utilities</text>
</a>
</g>
</g>
<!-- Node0&#45;&gt;Node7 -->
<g id="edge7" class="edge">
<title>Node0&#45;&gt;Node7</title>
<path fill="none" stroke="#000000" d="M156.1487,-123.3749C172.7068,-102.2783 199.4167,-71.3093 228,-50.5 232.6926,-47.0837 237.8362,-43.9106 243.1071,-41.0066"/>
<polygon fill="#000000" stroke="#000000" points="153.2347,-121.4224 149.9044,-131.4802 158.78,-125.6944 153.2347,-121.4224"/>
</g>
<!-- Node1 -->
<g id="node6" class="node">
<title>Node1</title>
<g id="a_node6"><a xlink:href="$group__utils.html" xlink:title=" ">
<polygon fill="none" stroke="#000000" points="50,-156 0,-156 0,-137 50,-137 50,-156"/>
<text text-anchor="middle" x="25" y="-144" font-family="Helvetica,sans-Serif" font-size="10.00" fill="#000000">Utilities</text>
</a>
</g>
</g>
<!-- Node1&#45;&gt;Node0 -->
<g id="edge1" class="edge">
<title>Node1&#45;&gt;Node0</title>
<path fill="none" stroke="#000000" d="M60.2636,-146.5C68.4159,-146.5 77.2659,-146.5 85.9906,-146.5"/>
<polygon fill="#000000" stroke="#000000" points="60.0178,-143.0001 50.0178,-146.5 60.0177,-150.0001 60.0178,-143.0001"/>
</g>
</g>
</svg>
