<?xml version="1.0" encoding="UTF-8" standalone="no"?>
<!DOCTYPE svg PUBLIC "-//W3C//DTD SVG 1.1//EN"
 "http://www.w3.org/Graphics/SVG/1.1/DTD/svg11.dtd">
<!-- Generated by graphviz version 2.40.1 (0)
 -->
<!-- Title: Constraining the RNA Folding Grammar Pages: 1 -->
<svg width="420pt" height="64pt"
 viewBox="0.00 0.00 420.00 64.00" xmlns="http://www.w3.org/2000/svg" xmlns:xlink="http://www.w3.org/1999/xlink">
<g id="graph0" class="graph" transform="scale(1 1) rotate(0) translate(4 60)">
<title>Constraining the RNA Folding Grammar</title>
<!-- Node0 -->
<g id="node1" class="node">
<title>Node0</title>
<g id="a_node1"><a xlink:title="This module provides general functions that allow for an easy control of constrained secondary struct...">
<polygon fill="#bfbfbf" stroke="#000000" points="285,-42.5 172,-42.5 172,-12.5 285,-12.5 285,-42.5"/>
<text text-anchor="start" x="180" y="-30.5" font-family="Helvetica,sans-Serif" font-size="10.00" fill="#000000">Constraining the RNA</text>
<text text-anchor="middle" x="228.5" y="-19.5" font-family="Helvetica,sans-Serif" font-size="10.00" fill="#000000"> Folding Grammar</text>
</a>
</g>
</g>
<!-- Node3 -->
<g id="node3" class="node">
<title>Node3</title>
<g id="a_node3"><a xlink:href="$group__soft__constraints.html" xlink:title="Functions and data structures for secondary structure soft constraints.">
<polygon fill="none" stroke="#000000" points="410.5,-56 322.5,-56 322.5,-37 410.5,-37 410.5,-56"/>
<text text-anchor="middle" x="366.5" y="-44" font-family="Helvetica,sans-Serif" font-size="10.00" fill="#000000">Soft Constraints</text>
</a>
</g>
</g>
<!-- Node0&#45;&gt;Node3 -->
<g id="edge3" class="edge">
<title>Node0&#45;&gt;Node3</title>
<path fill="none" stroke="#000000" d="M294.9602,-36.6503C304.1637,-37.9175 313.4276,-39.1929 322.0956,-40.3864"/>
<polygon fill="#000000" stroke="#000000" points="295.412,-33.1796 285.0281,-35.2828 294.4572,-40.1142 295.412,-33.1796"/>
</g>
<!-- Node2 -->
<g id="node4" class="node">
<title>Node2</title>
<g id="a_node4"><a xlink:href="$group__hard__constraints.html" xlink:title="This module covers all functionality for hard constraints in secondary structure prediction.">
<polygon fill="none" stroke="#000000" points="412,-19 321,-19 321,0 412,0 412,-19"/>
<text text-anchor="middle" x="366.5" y="-7" font-family="Helvetica,sans-Serif" font-size="10.00" fill="#000000">Hard Constraints</text>
</a>
</g>
</g>
<!-- Node0&#45;&gt;Node2 -->
<g id="edge2" class="edge">
<title>Node0&#45;&gt;Node2</title>
<path fill="none" stroke="#000000" d="M295.1654,-18.8045C303.8484,-17.6719 312.5807,-16.533 320.8115,-15.4594"/>
<polygon fill="#000000" stroke="#000000" points="294.4913,-15.3627 285.0281,-20.1268 295.3968,-22.3039 294.4913,-15.3627"/>
</g>
<!-- Node1 -->
<g id="node2" class="node">
<title>Node1</title>
<g id="a_node2"><a xlink:href="$group__grammar.html" xlink:title="The RNA folding grammar as implemented in RNAlib.">
<polygon fill="none" stroke="#000000" points="136,-37 0,-37 0,-18 136,-18 136,-37"/>
<text text-anchor="middle" x="68" y="-25" font-family="Helvetica,sans-Serif" font-size="10.00" fill="#000000">The RNA Folding Grammar</text>
</a>
</g>
</g>
<!-- Node1&#45;&gt;Node0 -->
<g id="edge1" class="edge">
<title>Node1&#45;&gt;Node0</title>
<path fill="none" stroke="#000000" d="M146.2222,-27.5C154.9065,-27.5 163.6225,-27.5 171.9631,-27.5"/>
<polygon fill="#000000" stroke="#000000" points="146.0665,-24.0001 136.0664,-27.5 146.0664,-31.0001 146.0665,-24.0001"/>
</g>
</g>
</svg>
