<?xml version="1.0" encoding="UTF-8" standalone="no"?>
<!DOCTYPE svg PUBLIC "-//W3C//DTD SVG 1.1//EN"
 "http://www.w3.org/Graphics/SVG/1.1/DTD/svg11.dtd">
<!-- Generated by graphviz version 2.40.1 (0)
 -->
<!-- Title: Computing MFE representatives of a Distance Based Partitioning Pages: 1 -->
<svg width="372pt" height="76pt"
 viewBox="0.00 0.00 372.00 75.50" xmlns="http://www.w3.org/2000/svg" xmlns:xlink="http://www.w3.org/1999/xlink">
<g id="graph0" class="graph" transform="scale(1 1) rotate(0) translate(4 71.5)">
<title>Computing MFE representatives of a Distance Based Partitioning</title>
<!-- Node1 -->
<g id="node1" class="node">
<title>Node1</title>
<g id="a_node1"><a xlink:href="$group__kl__neighborhood.html" xlink:title=" ">
<polygon fill="none" stroke="#000000" points="167,-67.5 0,-67.5 0,-37.5 167,-37.5 167,-67.5"/>
<text text-anchor="start" x="8" y="-55.5" font-family="Helvetica,sans-Serif" font-size="10.00" fill="#000000">Distance Based Partitioning</text>
<text text-anchor="middle" x="83.5" y="-44.5" font-family="Helvetica,sans-Serif" font-size="10.00" fill="#000000"> of the Secondary Structure Space</text>
</a>
</g>
</g>
<!-- Node0 -->
<g id="node3" class="node">
<title>Node0</title>
<g id="a_node3"><a xlink:title="Compute the minimum free energy (MFE) and secondary structures for a partitioning of the secondary st...">
<polygon fill="#bfbfbf" stroke="#000000" points="364,-45.5 203,-45.5 203,-15.5 364,-15.5 364,-45.5"/>
<text text-anchor="start" x="211" y="-33.5" font-family="Helvetica,sans-Serif" font-size="10.00" fill="#000000">Computing MFE representatives</text>
<text text-anchor="middle" x="283.5" y="-22.5" font-family="Helvetica,sans-Serif" font-size="10.00" fill="#000000"> of a Distance Based Partitioning</text>
</a>
</g>
</g>
<!-- Node1&#45;&gt;Node0 -->
<g id="edge1" class="edge">
<title>Node1&#45;&gt;Node0</title>
<path fill="none" stroke="#000000" d="M177.1526,-42.1982C185.7027,-41.2577 194.3149,-40.3104 202.7378,-39.3838"/>
<polygon fill="#000000" stroke="#000000" points="176.7165,-38.725 167.1592,-43.2975 177.4819,-45.683 176.7165,-38.725"/>
</g>
<!-- Node2 -->
<g id="node2" class="node">
<title>Node2</title>
<g id="a_node2"><a xlink:href="$group__mfe__global.html" xlink:title="Variations of the global Minimum Free Energy (MFE) prediction algorithm.">
<polygon fill="none" stroke="#000000" points="141,-19 26,-19 26,0 141,0 141,-19"/>
<text text-anchor="middle" x="83.5" y="-7" font-family="Helvetica,sans-Serif" font-size="10.00" fill="#000000">Global MFE Prediction</text>
</a>
</g>
</g>
<!-- Node2&#45;&gt;Node0 -->
<g id="edge2" class="edge">
<title>Node2&#45;&gt;Node0</title>
<path fill="none" stroke="#000000" d="M151.2265,-16.6113C167.8289,-18.3545 185.7607,-20.2374 202.9016,-22.0372"/>
<polygon fill="#000000" stroke="#000000" points="151.3908,-13.1094 141.08,-15.5459 150.6598,-20.0711 151.3908,-13.1094"/>
</g>
</g>
</svg>
