<?xml version="1.0" encoding="UTF-8" standalone="no"?>
<!DOCTYPE svg PUBLIC "-//W3C//DTD SVG 1.1//EN"
 "http://www.w3.org/Graphics/SVG/1.1/DTD/svg11.dtd">
<!-- Generated by graphviz version 2.40.1 (0)
 -->
<!-- Title: Reading/Writing Energy Parameter Sets from/to File Pages: 1 -->
<svg width="467pt" height="38pt"
 viewBox="0.00 0.00 467.00 38.00" xmlns="http://www.w3.org/2000/svg" xmlns:xlink="http://www.w3.org/1999/xlink">
<g id="graph0" class="graph" transform="scale(1 1) rotate(0) translate(4 34)">
<title>Reading/Writing Energy Parameter Sets from/to File</title>
<!-- Node1 -->
<g id="node1" class="node">
<title>Node1</title>
<g id="a_node1"><a xlink:href="$group__energy__parameters.html" xlink:title="All relevant functions to retrieve and copy pre&#45;calculated energy parameter sets as well as reading/w...">
<polygon fill="none" stroke="#000000" points="101,-24.5 0,-24.5 0,-5.5 101,-5.5 101,-24.5"/>
<text text-anchor="middle" x="50.5" y="-12.5" font-family="Helvetica,sans-Serif" font-size="10.00" fill="#000000">Energy Parameters</text>
</a>
</g>
</g>
<!-- Node0 -->
<g id="node2" class="node">
<title>Node0</title>
<g id="a_node2"><a xlink:title="Read and Write energy parameter sets from and to files or strings.">
<polygon fill="#bfbfbf" stroke="#000000" points="277,-30 137,-30 137,0 277,0 277,-30"/>
<text text-anchor="start" x="145" y="-18" font-family="Helvetica,sans-Serif" font-size="10.00" fill="#000000">Reading/Writing Energy</text>
<text text-anchor="middle" x="207" y="-7" font-family="Helvetica,sans-Serif" font-size="10.00" fill="#000000"> Parameter Sets from/to File</text>
</a>
</g>
</g>
<!-- Node1&#45;&gt;Node0 -->
<g id="edge1" class="edge">
<title>Node1&#45;&gt;Node0</title>
<path fill="none" stroke="#000000" d="M111.3337,-15C119.6863,-15 128.3179,-15 136.8209,-15"/>
<polygon fill="#000000" stroke="#000000" points="111.3111,-11.5001 101.3111,-15 111.311,-18.5001 111.3111,-11.5001"/>
</g>
<!-- Node2 -->
<g id="node3" class="node">
<title>Node2</title>
<g id="a_node3"><a xlink:href="$group__energy__parameters__convert.html" xlink:title="Convert energy parameter files into the latest format.">
<polygon fill="none" stroke="#000000" points="459,-30 313,-30 313,0 459,0 459,-30"/>
<text text-anchor="start" x="321" y="-18" font-family="Helvetica,sans-Serif" font-size="10.00" fill="#000000">Converting Energy Parameter</text>
<text text-anchor="middle" x="386" y="-7" font-family="Helvetica,sans-Serif" font-size="10.00" fill="#000000"> Files</text>
</a>
</g>
</g>
<!-- Node0&#45;&gt;Node2 -->
<g id="edge2" class="edge">
<title>Node0&#45;&gt;Node2</title>
<path fill="none" stroke="#000000" d="M287.4336,-15C295.858,-15 304.3906,-15 312.7288,-15"/>
<polygon fill="#000000" stroke="#000000" points="287.2318,-11.5001 277.2318,-15 287.2318,-18.5001 287.2318,-11.5001"/>
</g>
</g>
</svg>
