<?xml version="1.0" encoding="UTF-8" standalone="no"?>
<!DOCTYPE svg PUBLIC "-//W3C//DTD SVG 1.1//EN"
 "http://www.w3.org/Graphics/SVG/1.1/DTD/svg11.dtd">
<!-- Generated by graphviz version 2.40.1 (0)
 -->
<!-- Title: RNA&#45;RNA Interaction Pages: 1 -->
<svg width="363pt" height="176pt"
 viewBox="0.00 0.00 363.00 175.50" xmlns="http://www.w3.org/2000/svg" xmlns:xlink="http://www.w3.org/1999/xlink">
<g id="graph0" class="graph" transform="scale(1 1) rotate(0) translate(4 171.5)">
<title>RNA&#45;RNA Interaction</title>
<!-- Node2 -->
<g id="node1" class="node">
<title>Node2</title>
<g id="a_node1"><a xlink:href="$group__up__cofold.html" xlink:title="RNA&#45;RNA interaction as a stepwise process.">
<polygon fill="none" stroke="#000000" points="355,-167.5 221,-167.5 221,-115.5 355,-115.5 355,-167.5"/>
<text text-anchor="start" x="229" y="-155.5" font-family="Helvetica,sans-Serif" font-size="10.00" fill="#000000">Partition Function</text>
<text text-anchor="start" x="229" y="-144.5" font-family="Helvetica,sans-Serif" font-size="10.00" fill="#000000"> for two Hybridized</text>
<text text-anchor="start" x="229" y="-133.5" font-family="Helvetica,sans-Serif" font-size="10.00" fill="#000000"> Sequences as a Stepwise</text>
<text text-anchor="middle" x="288" y="-122.5" font-family="Helvetica,sans-Serif" font-size="10.00" fill="#000000"> Process</text>
</a>
</g>
</g>
<!-- Node3 -->
<g id="node2" class="node">
<title>Node3</title>
<g id="a_node2"><a xlink:href="$group__pf__fold.html" xlink:title="Compute the partition function to assess various equilibrium properties.">
<polygon fill="none" stroke="#000000" points="355,-97.5 221,-97.5 221,-67.5 355,-67.5 355,-97.5"/>
<text text-anchor="start" x="229" y="-85.5" font-family="Helvetica,sans-Serif" font-size="10.00" fill="#000000">Partition Function</text>
<text text-anchor="middle" x="288" y="-74.5" font-family="Helvetica,sans-Serif" font-size="10.00" fill="#000000"> and Equilibrium Properties</text>
</a>
</g>
</g>
<!-- Node0 -->
<g id="node3" class="node">
<title>Node0</title>
<g id="a_node3"><a xlink:title=" ">
<polygon fill="#bfbfbf" stroke="#000000" points="112,-75 0,-75 0,-56 112,-56 112,-75"/>
<text text-anchor="middle" x="56" y="-63" font-family="Helvetica,sans-Serif" font-size="10.00" fill="#000000">RNA&#45;RNA Interaction</text>
</a>
</g>
</g>
<!-- Node0&#45;&gt;Node2 -->
<g id="edge2" class="edge">
<title>Node0&#45;&gt;Node2</title>
<path fill="none" stroke="#000000" d="M93.8919,-78.4115C105.4705,-82.3271 118.2483,-86.6185 130,-90.5 159.6963,-100.3085 192.6019,-110.9639 220.6621,-119.9864"/>
<polygon fill="#000000" stroke="#000000" points="94.6757,-74.9816 84.0814,-75.0869 92.429,-81.6113 94.6757,-74.9816"/>
</g>
<!-- Node0&#45;&gt;Node3 -->
<g id="edge3" class="edge">
<title>Node0&#45;&gt;Node3</title>
<path fill="none" stroke="#006400" stroke-dasharray="5,2" d="M112.1607,-69.6152C144.882,-72.0129 186.351,-75.0516 220.7986,-77.5758"/>
<text text-anchor="middle" x="166.5" y="-78.5" font-family="Helvetica,sans-Serif" font-size="10.00" fill="#000000">concentrations.h</text>
</g>
<!-- Node1 -->
<g id="node4" class="node">
<title>Node1</title>
<g id="a_node4"><a xlink:href="$group__pf__cofold.html" xlink:title="Partition Function Cofolding.">
<polygon fill="none" stroke="#000000" points="338.5,-41 237.5,-41 237.5,0 338.5,0 338.5,-41"/>
<text text-anchor="start" x="245.5" y="-29" font-family="Helvetica,sans-Serif" font-size="10.00" fill="#000000">Partition Function</text>
<text text-anchor="start" x="245.5" y="-18" font-family="Helvetica,sans-Serif" font-size="10.00" fill="#000000"> for Two Hybridized</text>
<text text-anchor="middle" x="288" y="-7" font-family="Helvetica,sans-Serif" font-size="10.00" fill="#000000"> Sequences</text>
</a>
</g>
</g>
<!-- Node0&#45;&gt;Node1 -->
<g id="edge1" class="edge">
<title>Node0&#45;&gt;Node1</title>
<path fill="none" stroke="#000000" d="M115.0487,-54.0466C152.7995,-46.7242 201.2532,-37.3259 237.2659,-30.3407"/>
<polygon fill="#000000" stroke="#000000" points="114.3518,-50.6164 105.2012,-55.9567 115.6848,-57.4884 114.3518,-50.6164"/>
</g>
<!-- Node0&#45;&gt;Node1 -->
<g id="edge4" class="edge">
<title>Node0&#45;&gt;Node1</title>
<path fill="none" stroke="#006400" stroke-dasharray="5,2" d="M65.4053,-55.6991C78.4734,-42.8661 103.5199,-21.0046 130,-12.5 164.6489,-1.3718 205.7569,-3.9062 237.3559,-8.9413"/>
<text text-anchor="middle" x="166.5" y="-26.5" font-family="Helvetica,sans-Serif" font-size="10.00" fill="#000000">concentrations.h</text>
<text text-anchor="middle" x="166.5" y="-15.5" font-family="Helvetica,sans-Serif" font-size="10.00" fill="#000000">part_func_up.h</text>
</g>
</g>
</svg>
