<?xml version="1.0" encoding="UTF-8" standalone="no"?>
<!DOCTYPE svg PUBLIC "-//W3C//DTD SVG 1.1//EN"
 "http://www.w3.org/Graphics/SVG/1.1/DTD/svg11.dtd">
<!-- Generated by graphviz version 2.40.1 (0)
 -->
<!-- Title: Unit Conversion Pages: 1 -->
<svg width="211pt" height="29pt"
 viewBox="0.00 0.00 211.00 28.50" xmlns="http://www.w3.org/2000/svg" xmlns:xlink="http://www.w3.org/1999/xlink">
<g id="graph0" class="graph" transform="scale(1 1) rotate(0) translate(4 24.5)">
<title>Unit Conversion</title>
<!-- Node0 -->
<g id="node1" class="node">
<title>Node0</title>
<g id="a_node1"><a xlink:title="Functions to convert between various physical units.">
<polygon fill="#bfbfbf" stroke="#000000" points="87,-19 0,-19 0,0 87,0 87,-19"/>
<text text-anchor="middle" x="43.5" y="-7" font-family="Helvetica,sans-Serif" font-size="10.00" fill="#000000">Unit Conversion</text>
</a>
</g>
</g>
<!-- Node1 -->
<g id="node2" class="node">
<title>Node1</title>
<g id="a_node2"><a xlink:href="$group__utils.html" xlink:title=" ">
<polygon fill="none" stroke="#000000" points="203,-19 153,-19 153,0 203,0 203,-19"/>
<text text-anchor="middle" x="178" y="-7" font-family="Helvetica,sans-Serif" font-size="10.00" fill="#000000">Utilities</text>
</a>
</g>
</g>
<!-- Node0&#45;&gt;Node1 -->
<g id="edge2" class="edge">
<title>Node0&#45;&gt;Node1</title>
<path fill="none" stroke="#006400" stroke-dasharray="5,2" d="M87.1683,-9.5C108.9526,-9.5 134.5169,-9.5 152.9652,-9.5"/>
<text text-anchor="middle" x="120" y="-12.5" font-family="Helvetica,sans-Serif" font-size="10.00" fill="#000000">units.h</text>
</g>
<!-- Node1&#45;&gt;Node0 -->
<g id="edge1" class="edge">
<title>Node1&#45;&gt;Node0</title>
<path fill="none" stroke="#000000" d="M142.834,-7.7307C140.1835,-7.6383 137.5496,-7.5593 135,-7.5 119.4328,-7.1382 102.3753,-7.3465 87.2499,-7.7414"/>
<polygon fill="#000000" stroke="#000000" points="142.8625,-11.2346 152.9954,-8.1403 143.1445,-4.2403 142.8625,-11.2346"/>
</g>
</g>
</svg>
