<?xml version="1.0" encoding="UTF-8" standalone="no"?>
<!DOCTYPE svg PUBLIC "-//W3C//DTD SVG 1.1//EN"
 "http://www.w3.org/Graphics/SVG/1.1/DTD/svg11.dtd">
<!-- Generated by graphviz version 2.40.1 (0)
 -->
<!-- Title: (Re&#45;)folding Paths, Saddle Points, Energy Barriers, and Local Minima Pages: 1 -->
<svg width="503pt" height="179pt"
 viewBox="0.00 0.00 503.00 179.00" xmlns="http://www.w3.org/2000/svg" xmlns:xlink="http://www.w3.org/1999/xlink">
<g id="graph0" class="graph" transform="scale(1 1) rotate(0) translate(4 175)">
<title>(Re&#45;)folding Paths, Saddle Points, Energy Barriers, and Local Minima</title>
<!-- Node3 -->
<g id="node1" class="node">
<title>Node3</title>
<g id="a_node1"><a xlink:href="$group__paths__walk.html" xlink:title="Implementation of gradient&#45; and random walks starting from a single secondary structure.">
<polygon fill="none" stroke="#000000" points="495,-171 358,-171 358,-130 495,-130 495,-171"/>
<text text-anchor="start" x="366" y="-159" font-family="Helvetica,sans-Serif" font-size="10.00" fill="#000000">Folding Paths that</text>
<text text-anchor="start" x="366" y="-148" font-family="Helvetica,sans-Serif" font-size="10.00" fill="#000000"> start at a single Secondary</text>
<text text-anchor="middle" x="426.5" y="-137" font-family="Helvetica,sans-Serif" font-size="10.00" fill="#000000"> Structure</text>
</a>
</g>
</g>
<!-- Node0 -->
<g id="node2" class="node">
<title>Node0</title>
<g id="a_node2"><a xlink:title="API for various RNA folding path algorithms.">
<polygon fill="#bfbfbf" stroke="#000000" points="322,-106 186,-106 186,-65 322,-65 322,-106"/>
<text text-anchor="start" x="194" y="-94" font-family="Helvetica,sans-Serif" font-size="10.00" fill="#000000">(Re&#45;)folding Paths,</text>
<text text-anchor="start" x="194" y="-83" font-family="Helvetica,sans-Serif" font-size="10.00" fill="#000000"> Saddle Points, Energy</text>
<text text-anchor="middle" x="254" y="-72" font-family="Helvetica,sans-Serif" font-size="10.00" fill="#000000"> Barriers, and Local Minima</text>
</a>
</g>
</g>
<!-- Node0&#45;&gt;Node3 -->
<g id="edge3" class="edge">
<title>Node0&#45;&gt;Node3</title>
<path fill="none" stroke="#000000" d="M318.2422,-109.7072C335.9158,-116.3668 354.9107,-123.5243 371.9791,-129.9559"/>
<polygon fill="#000000" stroke="#000000" points="319.1719,-106.3174 308.5801,-106.0664 316.7036,-112.8678 319.1719,-106.3174"/>
</g>
<!-- Node4 -->
<g id="node3" class="node">
<title>Node4</title>
<g id="a_node3"><a xlink:href="$group__paths__deprecated.html" xlink:title=" ">
<polygon fill="none" stroke="#000000" points="494.5,-111.5 358.5,-111.5 358.5,-59.5 494.5,-59.5 494.5,-111.5"/>
<text text-anchor="start" x="366.5" y="-99.5" font-family="Helvetica,sans-Serif" font-size="10.00" fill="#000000">Deprecated Interface</text>
<text text-anchor="start" x="366.5" y="-88.5" font-family="Helvetica,sans-Serif" font-size="10.00" fill="#000000"> for (Re&#45;)folding Paths,</text>
<text text-anchor="start" x="366.5" y="-77.5" font-family="Helvetica,sans-Serif" font-size="10.00" fill="#000000"> Saddle Points, and Energy</text>
<text text-anchor="middle" x="426.5" y="-66.5" font-family="Helvetica,sans-Serif" font-size="10.00" fill="#000000"> Barriers</text>
</a>
</g>
</g>
<!-- Node0&#45;&gt;Node4 -->
<g id="edge4" class="edge">
<title>Node0&#45;&gt;Node4</title>
<path fill="none" stroke="#000000" d="M332.2805,-85.5C340.9481,-85.5 349.7239,-85.5 358.2538,-85.5"/>
<polygon fill="#000000" stroke="#000000" points="332.1766,-82.0001 322.1766,-85.5 332.1765,-89.0001 332.1766,-82.0001"/>
</g>
<!-- Node2 -->
<g id="node4" class="node">
<title>Node2</title>
<g id="a_node4"><a xlink:href="$group__paths__direct.html" xlink:title="Heuristics to explore direct, optimal (re&#45;)folding paths between two secondary structures.">
<polygon fill="none" stroke="#000000" points="489,-41 364,-41 364,0 489,0 489,-41"/>
<text text-anchor="start" x="372" y="-29" font-family="Helvetica,sans-Serif" font-size="10.00" fill="#000000">Direct Refolding Paths</text>
<text text-anchor="start" x="372" y="-18" font-family="Helvetica,sans-Serif" font-size="10.00" fill="#000000"> between two Secondary</text>
<text text-anchor="middle" x="426.5" y="-7" font-family="Helvetica,sans-Serif" font-size="10.00" fill="#000000"> Structures</text>
</a>
</g>
</g>
<!-- Node0&#45;&gt;Node2 -->
<g id="edge2" class="edge">
<title>Node0&#45;&gt;Node2</title>
<path fill="none" stroke="#000000" d="M318.2422,-61.2928C335.9158,-54.6332 354.9107,-47.4757 371.9791,-41.0441"/>
<polygon fill="#000000" stroke="#000000" points="316.7036,-58.1322 308.5801,-64.9336 319.1719,-64.6826 316.7036,-58.1322"/>
</g>
<!-- Node1 -->
<g id="node5" class="node">
<title>Node1</title>
<g id="a_node5"><a xlink:href="$group__landscape.html" xlink:title=" ">
<polygon fill="none" stroke="#000000" points="150,-100.5 0,-100.5 0,-70.5 150,-70.5 150,-100.5"/>
<text text-anchor="start" x="8" y="-88.5" font-family="Helvetica,sans-Serif" font-size="10.00" fill="#000000">The RNA Secondary Structure</text>
<text text-anchor="middle" x="75" y="-77.5" font-family="Helvetica,sans-Serif" font-size="10.00" fill="#000000"> Landscape</text>
</a>
</g>
</g>
<!-- Node1&#45;&gt;Node0 -->
<g id="edge1" class="edge">
<title>Node1&#45;&gt;Node0</title>
<path fill="none" stroke="#000000" d="M160.2069,-85.5C168.8246,-85.5 177.4954,-85.5 185.899,-85.5"/>
<polygon fill="#000000" stroke="#000000" points="160.1341,-82.0001 150.1341,-85.5 160.1341,-89.0001 160.1341,-82.0001"/>
</g>
</g>
</svg>
