<?xml version="1.0" encoding="UTF-8" standalone="no"?>
<!DOCTYPE svg PUBLIC "-//W3C//DTD SVG 1.1//EN"
 "http://www.w3.org/Graphics/SVG/1.1/DTD/svg11.dtd">
<!-- Generated by graphviz version 2.40.1 (0)
 -->
<!-- Title: Partition Function for Two Hybridized Sequences Pages: 1 -->
<svg width="352pt" height="89pt"
 viewBox="0.00 0.00 352.00 89.00" xmlns="http://www.w3.org/2000/svg" xmlns:xlink="http://www.w3.org/1999/xlink">
<g id="graph0" class="graph" transform="scale(1 1) rotate(0) translate(4 85)">
<title>Partition Function for Two Hybridized Sequences</title>
<!-- Node2 -->
<g id="node1" class="node">
<title>Node2</title>
<g id="a_node1"><a xlink:href="$group__pf__fold.html" xlink:title="Compute the partition function to assess various equilibrium properties.">
<polygon fill="none" stroke="#000000" points="344,-30 210,-30 210,0 344,0 344,-30"/>
<text text-anchor="start" x="218" y="-18" font-family="Helvetica,sans-Serif" font-size="10.00" fill="#000000">Partition Function</text>
<text text-anchor="middle" x="277" y="-7" font-family="Helvetica,sans-Serif" font-size="10.00" fill="#000000"> and Equilibrium Properties</text>
</a>
</g>
</g>
<!-- Node1 -->
<g id="node2" class="node">
<title>Node1</title>
<g id="a_node2"><a xlink:href="$group__cofold.html" xlink:title=" ">
<polygon fill="none" stroke="#000000" points="333,-75.5 221,-75.5 221,-56.5 333,-56.5 333,-75.5"/>
<text text-anchor="middle" x="277" y="-63.5" font-family="Helvetica,sans-Serif" font-size="10.00" fill="#000000">RNA&#45;RNA Interaction</text>
</a>
</g>
</g>
<!-- Node0 -->
<g id="node3" class="node">
<title>Node0</title>
<g id="a_node3"><a xlink:title="Partition Function Cofolding.">
<polygon fill="#bfbfbf" stroke="#000000" points="101,-61.5 0,-61.5 0,-20.5 101,-20.5 101,-61.5"/>
<text text-anchor="start" x="8" y="-49.5" font-family="Helvetica,sans-Serif" font-size="10.00" fill="#000000">Partition Function</text>
<text text-anchor="start" x="8" y="-38.5" font-family="Helvetica,sans-Serif" font-size="10.00" fill="#000000"> for Two Hybridized</text>
<text text-anchor="middle" x="50.5" y="-27.5" font-family="Helvetica,sans-Serif" font-size="10.00" fill="#000000"> Sequences</text>
</a>
</g>
</g>
<!-- Node1&#45;&gt;Node0 -->
<g id="edge1" class="edge">
<title>Node1&#45;&gt;Node0</title>
<path fill="none" stroke="#000000" d="M210.8271,-57.2397C204.4672,-56.457 198.1123,-55.6977 192,-55 161.9549,-51.5704 128.2636,-48.2173 101.2953,-45.6529"/>
<polygon fill="#000000" stroke="#000000" points="210.4345,-60.7178 220.7911,-58.4835 211.3017,-53.7717 210.4345,-60.7178"/>
</g>
<!-- Node0&#45;&gt;Node2 -->
<g id="edge2" class="edge">
<title>Node0&#45;&gt;Node2</title>
<path fill="none" stroke="#006400" stroke-dasharray="5,2" d="M101.0001,-35.0858C107.0651,-34.3804 113.1718,-33.6723 119,-33 148.7573,-29.5673 181.6723,-25.811 209.7229,-22.622"/>
<text text-anchor="middle" x="155.5" y="-36" font-family="Helvetica,sans-Serif" font-size="10.00" fill="#000000">concentrations.h</text>
</g>
<!-- Node0&#45;&gt;Node1 -->
<g id="edge3" class="edge">
<title>Node0&#45;&gt;Node1</title>
<path fill="none" stroke="#006400" stroke-dasharray="5,2" d="M101.3161,-49.571C107.2688,-50.4532 113.2628,-51.2861 119,-52 152.7492,-56.1996 190.7071,-59.6055 220.9586,-62.0061"/>
<text text-anchor="middle" x="155.5" y="-73" font-family="Helvetica,sans-Serif" font-size="10.00" fill="#000000">concentrations.h</text>
<text text-anchor="middle" x="155.5" y="-62" font-family="Helvetica,sans-Serif" font-size="10.00" fill="#000000">part_func_up.h</text>
</g>
</g>
</svg>
