<?xml version="1.0" encoding="UTF-8" standalone="no"?>
<!DOCTYPE svg PUBLIC "-//W3C//DTD SVG 1.1//EN"
 "http://www.w3.org/Graphics/SVG/1.1/DTD/svg11.dtd">
<!-- Generated by graphviz version 2.40.1 (0)
 -->
<!-- Title: Combinatorics Algorithms Pages: 1 -->
<svg width="293pt" height="29pt"
 viewBox="0.00 0.00 293.00 28.50" xmlns="http://www.w3.org/2000/svg" xmlns:xlink="http://www.w3.org/1999/xlink">
<g id="graph0" class="graph" transform="scale(1 1) rotate(0) translate(4 24.5)">
<title>Combinatorics Algorithms</title>
<!-- Node0 -->
<g id="node1" class="node">
<title>Node0</title>
<g id="a_node1"><a xlink:title="Implementations to solve various combinatorial aspects for strings of objects.">
<polygon fill="#bfbfbf" stroke="#000000" points="129,-19 0,-19 0,0 129,0 129,-19"/>
<text text-anchor="middle" x="64.5" y="-7" font-family="Helvetica,sans-Serif" font-size="10.00" fill="#000000">Combinatorics Algorithms</text>
</a>
</g>
</g>
<!-- Node1 -->
<g id="node2" class="node">
<title>Node1</title>
<g id="a_node2"><a xlink:href="$group__utils.html" xlink:title=" ">
<polygon fill="none" stroke="#000000" points="285,-19 235,-19 235,0 285,0 285,-19"/>
<text text-anchor="middle" x="260" y="-7" font-family="Helvetica,sans-Serif" font-size="10.00" fill="#000000">Utilities</text>
</a>
</g>
</g>
<!-- Node0&#45;&gt;Node1 -->
<g id="edge2" class="edge">
<title>Node0&#45;&gt;Node1</title>
<path fill="none" stroke="#006400" stroke-dasharray="5,2" d="M129.0558,-9.5C165.0912,-9.5 207.9561,-9.5 234.5765,-9.5"/>
<text text-anchor="middle" x="182" y="-12.5" font-family="Helvetica,sans-Serif" font-size="10.00" fill="#000000">combinatorics.h</text>
</g>
<!-- Node1&#45;&gt;Node0 -->
<g id="edge1" class="edge">
<title>Node1&#45;&gt;Node0</title>
<path fill="none" stroke="#000000" d="M224.834,-7.7307C222.1835,-7.6383 219.5496,-7.5593 217,-7.5 188.1468,-6.8294 156.2172,-7.0924 129.0618,-7.6156"/>
<polygon fill="#000000" stroke="#000000" points="224.8625,-11.2346 234.9954,-8.1403 225.1445,-4.2403 224.8625,-11.2346"/>
</g>
</g>
</svg>
