<?xml version="1.0" encoding="UTF-8" standalone="no"?>
<!DOCTYPE svg PUBLIC "-//W3C//DTD SVG 1.1//EN"
 "http://www.w3.org/Graphics/SVG/1.1/DTD/svg11.dtd">
<!-- Generated by graphviz version 2.40.1 (0)
 -->
<!-- Title: Search Algorithms Pages: 1 -->
<svg width="252pt" height="29pt"
 viewBox="0.00 0.00 252.00 28.50" xmlns="http://www.w3.org/2000/svg" xmlns:xlink="http://www.w3.org/1999/xlink">
<g id="graph0" class="graph" transform="scale(1 1) rotate(0) translate(4 24.5)">
<title>Search Algorithms</title>
<!-- Node0 -->
<g id="node1" class="node">
<title>Node0</title>
<g id="a_node1"><a xlink:title="Implementations of various search algorithms to detect strings of objects within other strings of obj...">
<polygon fill="#bfbfbf" stroke="#000000" points="97,-19 0,-19 0,0 97,0 97,-19"/>
<text text-anchor="middle" x="48.5" y="-7" font-family="Helvetica,sans-Serif" font-size="10.00" fill="#000000">Search Algorithms</text>
</a>
</g>
</g>
<!-- Node1 -->
<g id="node2" class="node">
<title>Node1</title>
<g id="a_node2"><a xlink:href="$group__utils.html" xlink:title=" ">
<polygon fill="none" stroke="#000000" points="244,-19 194,-19 194,0 244,0 244,-19"/>
<text text-anchor="middle" x="219" y="-7" font-family="Helvetica,sans-Serif" font-size="10.00" fill="#000000">Utilities</text>
</a>
</g>
</g>
<!-- Node0&#45;&gt;Node1 -->
<g id="edge2" class="edge">
<title>Node0&#45;&gt;Node1</title>
<path fill="none" stroke="#006400" stroke-dasharray="5,2" d="M97.3585,-9.5C128.8475,-9.5 168.4914,-9.5 193.7963,-9.5"/>
<text text-anchor="middle" x="145.5" y="-12.5" font-family="Helvetica,sans-Serif" font-size="10.00" fill="#000000">BoyerMoore.h</text>
</g>
<!-- Node1&#45;&gt;Node0 -->
<g id="edge1" class="edge">
<title>Node1&#45;&gt;Node0</title>
<path fill="none" stroke="#000000" d="M183.834,-7.7307C181.1835,-7.6383 178.5496,-7.5593 176,-7.5 149.9947,-6.8956 121.0015,-7.2673 97.2416,-7.8465"/>
<polygon fill="#000000" stroke="#000000" points="183.8625,-11.2346 193.9954,-8.1403 184.1445,-4.2403 183.8625,-11.2346"/>
</g>
</g>
</svg>
