<?xml version="1.0" encoding="UTF-8" standalone="no"?>
<!DOCTYPE svg PUBLIC "-//W3C//DTD SVG 1.1//EN"
 "http://www.w3.org/Graphics/SVG/1.1/DTD/svg11.dtd">
<!-- Generated by graphviz version 2.40.1 (0)
 -->
<!-- Title: ViennaRNA/loops/hairpin.h Pages: 1 -->
<svg width="1487pt" height="397pt"
 viewBox="0.00 0.00 1487.00 397.00" xmlns="http://www.w3.org/2000/svg" xmlns:xlink="http://www.w3.org/1999/xlink">
<g id="graph0" class="graph" transform="scale(1 1) rotate(0) translate(4 393)">
<title>ViennaRNA/loops/hairpin.h</title>
<!-- Node0 -->
<g id="node1" class="node">
<title>Node0</title>
<g id="a_node1"><a xlink:title="Energy evaluation of hairpin loops for MFE and partition function calculations.">
<polygon fill="#bfbfbf" stroke="#000000" points="461,-369.5 461,-388.5 595,-388.5 595,-369.5 461,-369.5"/>
<text text-anchor="middle" x="528" y="-376.5" font-family="Helvetica,sans-Serif" font-size="10.00" fill="#000000">ViennaRNA/loops/hairpin.h</text>
</a>
</g>
</g>
<!-- Node1 -->
<g id="node2" class="node">
<title>Node1</title>
<g id="a_node2"><a xlink:title=" ">
<polygon fill="none" stroke="#bfbfbf" points="288.5,-313.5 288.5,-332.5 335.5,-332.5 335.5,-313.5 288.5,-313.5"/>
<text text-anchor="middle" x="312" y="-320.5" font-family="Helvetica,sans-Serif" font-size="10.00" fill="#000000">math.h</text>
</a>
</g>
</g>
<!-- Node0&#45;&gt;Node1 -->
<g id="edge1" class="edge">
<title>Node0&#45;&gt;Node1</title>
<path fill="none" stroke="#191970" d="M486.8956,-369.4445C451.606,-361.0798 399.1756,-348.2716 345.4147,-333.3"/>
<polygon fill="#191970" stroke="#191970" points="346.2938,-329.9116 335.7201,-330.5803 344.403,-336.6514 346.2938,-329.9116"/>
</g>
<!-- Node2 -->
<g id="node3" class="node">
<title>Node2</title>
<g id="a_node3"><a xlink:title=" ">
<polygon fill="none" stroke="#bfbfbf" points="353.5,-313.5 353.5,-332.5 402.5,-332.5 402.5,-313.5 353.5,-313.5"/>
<text text-anchor="middle" x="378" y="-320.5" font-family="Helvetica,sans-Serif" font-size="10.00" fill="#000000">string.h</text>
</a>
</g>
</g>
<!-- Node0&#45;&gt;Node2 -->
<g id="edge2" class="edge">
<title>Node0&#45;&gt;Node2</title>
<path fill="none" stroke="#191970" d="M502.2141,-369.3733C477.4461,-360.1265 439.8576,-346.0935 412.5173,-335.8865"/>
<polygon fill="#191970" stroke="#191970" points="413.5436,-332.5337 402.951,-332.315 411.0953,-339.0916 413.5436,-332.5337"/>
</g>
<!-- Node3 -->
<g id="node4" class="node">
<title>Node3</title>
<g id="a_node4"><a xlink:href="$utils_2basic_8h.html" xlink:title="General utility&#45; and helper&#45;functions used throughout the ViennaRNA Package.">
<polygon fill="none" stroke="#000000" points="421,-313.5 421,-332.5 545,-332.5 545,-313.5 421,-313.5"/>
<text text-anchor="middle" x="483" y="-320.5" font-family="Helvetica,sans-Serif" font-size="10.00" fill="#000000">ViennaRNA/utils/basic.h</text>
</a>
</g>
</g>
<!-- Node0&#45;&gt;Node3 -->
<g id="edge3" class="edge">
<title>Node0&#45;&gt;Node3</title>
<path fill="none" stroke="#191970" d="M520.1616,-369.2455C513.838,-361.3761 504.7776,-350.101 497.1864,-340.6542"/>
<polygon fill="#191970" stroke="#191970" points="499.7408,-338.2454 490.7486,-332.6427 494.2842,-342.6302 499.7408,-338.2454"/>
</g>
<!-- Node6 -->
<g id="node7" class="node">
<title>Node6</title>
<g id="a_node7"><a xlink:href="$datastructures_2basic_8h.html" xlink:title="Various data structures and pre&#45;processor macros.">
<polygon fill="none" stroke="#000000" points="464,-246.5 464,-276.5 598,-276.5 598,-246.5 464,-246.5"/>
<text text-anchor="start" x="472" y="-264.5" font-family="Helvetica,sans-Serif" font-size="10.00" fill="#000000">ViennaRNA/datastructures</text>
<text text-anchor="middle" x="531" y="-253.5" font-family="Helvetica,sans-Serif" font-size="10.00" fill="#000000">/basic.h</text>
</a>
</g>
</g>
<!-- Node0&#45;&gt;Node6 -->
<g id="edge47" class="edge">
<title>Node0&#45;&gt;Node6</title>
<path fill="none" stroke="#191970" d="M535.3819,-369.4183C541.7273,-360.5336 550.4061,-346.6624 554,-333 558.2046,-317.016 552.6074,-299.3324 545.8838,-285.5504"/>
<polygon fill="#191970" stroke="#191970" points="548.9553,-283.8718 541.1556,-276.7013 542.7813,-287.1706 548.9553,-283.8718"/>
</g>
<!-- Node9 -->
<g id="node10" class="node">
<title>Node9</title>
<g id="a_node10"><a xlink:href="$fold__compound_8h.html" xlink:title="The Basic Fold Compound API.">
<polygon fill="none" stroke="#000000" points="593,-190.5 593,-209.5 739,-209.5 739,-190.5 593,-190.5"/>
<text text-anchor="middle" x="666" y="-197.5" font-family="Helvetica,sans-Serif" font-size="10.00" fill="#000000">ViennaRNA/fold_compound.h</text>
</a>
</g>
</g>
<!-- Node0&#45;&gt;Node9 -->
<g id="edge48" class="edge">
<title>Node0&#45;&gt;Node9</title>
<path fill="none" stroke="#191970" d="M537.0826,-369.3712C545.5864,-360.2272 558.5184,-345.9865 569,-333 601.1323,-293.1887 635.7579,-244.0199 653.6773,-218.048"/>
<polygon fill="#191970" stroke="#191970" points="656.7107,-219.8137 659.4878,-209.5893 650.9408,-215.8502 656.7107,-219.8137"/>
</g>
<!-- Node11 -->
<g id="node12" class="node">
<title>Node11</title>
<g id="a_node12"><a xlink:href="$params_2basic_8h.html" xlink:title="Functions to deal with sets of energy parameters.">
<polygon fill="none" stroke="#000000" points="1256,-129 1256,-148 1394,-148 1394,-129 1256,-129"/>
<text text-anchor="middle" x="1325" y="-136" font-family="Helvetica,sans-Serif" font-size="10.00" fill="#000000">ViennaRNA/params/basic.h</text>
</a>
</g>
</g>
<!-- Node0&#45;&gt;Node11 -->
<g id="edge49" class="edge">
<title>Node0&#45;&gt;Node11</title>
<path fill="none" stroke="#191970" d="M595.116,-370.7032C758.156,-349.4992 1169.8396,-289.3516 1281,-210 1299.1002,-197.0792 1311.2546,-174.1616 1318.121,-157.7533"/>
<polygon fill="#191970" stroke="#191970" points="1321.5197,-158.6699 1321.879,-148.0812 1314.9949,-156.1348 1321.5197,-158.6699"/>
</g>
<!-- Node4 -->
<g id="node5" class="node">
<title>Node4</title>
<g id="a_node5"><a xlink:title=" ">
<polygon fill="none" stroke="#bfbfbf" points="107,-.5 107,-19.5 153,-19.5 153,-.5 107,-.5"/>
<text text-anchor="middle" x="130" y="-7.5" font-family="Helvetica,sans-Serif" font-size="10.00" fill="#000000">stdio.h</text>
</a>
</g>
</g>
<!-- Node3&#45;&gt;Node4 -->
<g id="edge4" class="edge">
<title>Node3&#45;&gt;Node4</title>
<path fill="none" stroke="#191970" d="M435.1881,-313.4974C328.4375,-291.6206 80,-236.7586 80,-200 80,-200 80,-200 80,-138.5 80,-100.8735 84.0128,-90.5128 99,-56 103.3382,-46.01 109.8934,-35.8691 115.8602,-27.6603"/>
<polygon fill="#191970" stroke="#191970" points="118.7127,-29.6912 121.9711,-19.6098 113.1371,-25.4589 118.7127,-29.6912"/>
</g>
<!-- Node5 -->
<g id="node6" class="node">
<title>Node5</title>
<g id="a_node6"><a xlink:title=" ">
<polygon fill="none" stroke="#bfbfbf" points="0,-252 0,-271 52,-271 52,-252 0,-252"/>
<text text-anchor="middle" x="26" y="-259" font-family="Helvetica,sans-Serif" font-size="10.00" fill="#000000">stdarg.h</text>
</a>
</g>
</g>
<!-- Node3&#45;&gt;Node5 -->
<g id="edge5" class="edge">
<title>Node3&#45;&gt;Node5</title>
<path fill="none" stroke="#191970" d="M420.9647,-314.2475C417.5955,-313.8147 414.2572,-313.396 411,-313 257.9611,-294.3931 215.8626,-313.1704 66,-277 63.1494,-276.312 60.2294,-275.4689 57.3287,-274.5348"/>
<polygon fill="#191970" stroke="#191970" points="58.2654,-271.1532 47.6706,-271.101 55.9203,-277.7488 58.2654,-271.1532"/>
</g>
<!-- Node3&#45;&gt;Node6 -->
<g id="edge6" class="edge">
<title>Node3&#45;&gt;Node6</title>
<path fill="none" stroke="#191970" d="M490.5,-313.3906C496.515,-305.6839 505.2101,-294.5434 513.0028,-284.5589"/>
<polygon fill="#191970" stroke="#191970" points="515.8642,-286.5812 519.2579,-276.5446 510.346,-282.2743 515.8642,-286.5812"/>
</g>
<!-- Node7 -->
<g id="node8" class="node">
<title>Node7</title>
<g id="a_node8"><a xlink:href="$constants_8h.html" xlink:title="Energy parameter constants.">
<polygon fill="none" stroke="#000000" points="1321,-62 1321,-81 1479,-81 1479,-62 1321,-62"/>
<text text-anchor="middle" x="1400" y="-69" font-family="Helvetica,sans-Serif" font-size="10.00" fill="#000000">ViennaRNA/params/constants.h</text>
</a>
</g>
</g>
<!-- Node6&#45;&gt;Node7 -->
<g id="edge7" class="edge">
<title>Node6&#45;&gt;Node7</title>
<path fill="none" stroke="#191970" d="M598.2089,-259.9818C757.222,-255.8916 1152.7854,-242.6625 1281,-210 1338.8151,-195.2717 1370.7929,-204.2216 1403,-154 1415.1024,-135.1283 1411.2951,-108.5174 1406.502,-90.6707"/>
<polygon fill="#191970" stroke="#191970" points="1409.8439,-89.6299 1403.6014,-81.0694 1403.143,-91.6543 1409.8439,-89.6299"/>
</g>
<!-- Node6&#45;&gt;Node9 -->
<g id="edge9" class="edge">
<title>Node6&#45;&gt;Node9</title>
<path fill="none" stroke="#191970" d="M564.0247,-246.4554C585.957,-236.464 614.5273,-223.4487 635.8453,-213.7372"/>
<polygon fill="#191970" stroke="#191970" points="637.4306,-216.8611 645.0798,-209.5303 634.5286,-210.4909 637.4306,-216.8611"/>
</g>
<!-- Node10 -->
<g id="node11" class="node">
<title>Node10</title>
<g id="a_node11"><a xlink:href="$model_8h.html" xlink:title="The model details data structure and its corresponding modifiers.">
<polygon fill="none" stroke="#000000" points="1175,-62 1175,-81 1281,-81 1281,-62 1175,-62"/>
<text text-anchor="middle" x="1228" y="-69" font-family="Helvetica,sans-Serif" font-size="10.00" fill="#000000">ViennaRNA/model.h</text>
</a>
</g>
</g>
<!-- Node6&#45;&gt;Node10 -->
<g id="edge38" class="edge">
<title>Node6&#45;&gt;Node10</title>
<path fill="none" stroke="#191970" d="M598.1942,-260.1266C751.6615,-255.5751 1121.4207,-236.1418 1209,-154 1226.0367,-138.0211 1229.2433,-110.0886 1229.2254,-91.201"/>
<polygon fill="#191970" stroke="#191970" points="1232.7186,-90.9264 1228.9075,-81.0408 1225.722,-91.1454 1232.7186,-90.9264"/>
</g>
<!-- Node6&#45;&gt;Node11 -->
<g id="edge39" class="edge">
<title>Node6&#45;&gt;Node11</title>
<path fill="none" stroke="#191970" d="M598.1323,-258.8629C762.3952,-252.289 1174.9842,-233.9633 1233,-210 1261.6586,-198.1626 1287.4773,-172.4043 1304.7748,-155.2567"/>
<polygon fill="#191970" stroke="#191970" points="1307.417,-157.5676 1312.1022,-148.065 1302.5137,-152.5718 1307.417,-157.5676"/>
</g>
<!-- Node13 -->
<g id="node14" class="node">
<title>Node13</title>
<g id="a_node14"><a xlink:href="$dp__matrices_8h.html" xlink:title="Functions to deal with standard dynamic programming (DP) matrices.">
<polygon fill="none" stroke="#000000" points="307.5,-129 307.5,-148 440.5,-148 440.5,-129 307.5,-129"/>
<text text-anchor="middle" x="374" y="-136" font-family="Helvetica,sans-Serif" font-size="10.00" fill="#000000">ViennaRNA/dp_matrices.h</text>
</a>
</g>
</g>
<!-- Node6&#45;&gt;Node13 -->
<g id="edge40" class="edge">
<title>Node6&#45;&gt;Node13</title>
<path fill="none" stroke="#191970" d="M507.1345,-246.4178C474.6521,-223.1636 417.9037,-178.7412 390.0284,-154.7819"/>
<polygon fill="#191970" stroke="#191970" points="392.1863,-152.0189 382.3632,-148.0493 387.5668,-157.2782 392.1863,-152.0189"/>
</g>
<!-- Node14 -->
<g id="node15" class="node">
<title>Node14</title>
<g id="a_node15"><a xlink:href="$hard_8h.html" xlink:title="Functions and data structures for handling of secondary structure hard constraints.">
<polygon fill="none" stroke="#000000" points="595.5,-123.5 595.5,-153.5 714.5,-153.5 714.5,-123.5 595.5,-123.5"/>
<text text-anchor="start" x="603.5" y="-141.5" font-family="Helvetica,sans-Serif" font-size="10.00" fill="#000000">ViennaRNA/constraints</text>
<text text-anchor="middle" x="655" y="-130.5" font-family="Helvetica,sans-Serif" font-size="10.00" fill="#000000">/hard.h</text>
</a>
</g>
</g>
<!-- Node6&#45;&gt;Node14 -->
<g id="edge41" class="edge">
<title>Node6&#45;&gt;Node14</title>
<path fill="none" stroke="#191970" d="M540.1742,-246.4985C549.9143,-231.2679 566.3185,-207.4996 584,-190 595.4319,-178.6857 609.5171,-167.9408 622.1199,-159.2214"/>
<polygon fill="#191970" stroke="#191970" points="624.2268,-162.022 630.5573,-153.5264 620.3106,-156.22 624.2268,-162.022"/>
</g>
<!-- Node16 -->
<g id="node17" class="node">
<title>Node16</title>
<g id="a_node17"><a xlink:href="$soft_8h.html" xlink:title="Functions and data structures for secondary structure soft constraints.">
<polygon fill="none" stroke="#000000" points="458.5,-123.5 458.5,-153.5 577.5,-153.5 577.5,-123.5 458.5,-123.5"/>
<text text-anchor="start" x="466.5" y="-141.5" font-family="Helvetica,sans-Serif" font-size="10.00" fill="#000000">ViennaRNA/constraints</text>
<text text-anchor="middle" x="518" y="-130.5" font-family="Helvetica,sans-Serif" font-size="10.00" fill="#000000">/soft.h</text>
</a>
</g>
</g>
<!-- Node6&#45;&gt;Node16 -->
<g id="edge42" class="edge">
<title>Node6&#45;&gt;Node16</title>
<path fill="none" stroke="#191970" d="M524.7917,-246.4178C520.142,-225.8539 515.8961,-188.7363 515.0966,-163.8546"/>
<polygon fill="#191970" stroke="#191970" points="518.5947,-163.664 514.978,-153.7056 511.5952,-163.7458 518.5947,-163.664"/>
</g>
<!-- Node17 -->
<g id="node18" class="node">
<title>Node17</title>
<g id="a_node18"><a xlink:href="$grammar_8h.html" xlink:title="Implementations for the RNA folding grammar.">
<polygon fill="none" stroke="#000000" points="949.5,-129 949.5,-148 1066.5,-148 1066.5,-129 949.5,-129"/>
<text text-anchor="middle" x="1008" y="-136" font-family="Helvetica,sans-Serif" font-size="10.00" fill="#000000">ViennaRNA/grammar.h</text>
</a>
</g>
</g>
<!-- Node6&#45;&gt;Node17 -->
<g id="edge43" class="edge">
<title>Node6&#45;&gt;Node17</title>
<path fill="none" stroke="#191970" d="M597.1499,-246.4401C640.2117,-236.4791 697.5494,-222.9193 748,-210 824.7428,-190.3478 913.6331,-165.4354 965.08,-150.8036"/>
<polygon fill="#191970" stroke="#191970" points="966.197,-154.1247 974.8555,-148.0189 964.2792,-147.3925 966.197,-154.1247"/>
</g>
<!-- Node18 -->
<g id="node19" class="node">
<title>Node18</title>
<g id="a_node19"><a xlink:href="$structured__domains_8h.html" xlink:title="This module provides interfaces that deal with additional structured domains in the folding grammar.">
<polygon fill="none" stroke="#000000" points="1084.5,-123.5 1084.5,-153.5 1199.5,-153.5 1199.5,-123.5 1084.5,-123.5"/>
<text text-anchor="start" x="1092.5" y="-141.5" font-family="Helvetica,sans-Serif" font-size="10.00" fill="#000000">ViennaRNA/structured</text>
<text text-anchor="middle" x="1142" y="-130.5" font-family="Helvetica,sans-Serif" font-size="10.00" fill="#000000">_domains.h</text>
</a>
</g>
</g>
<!-- Node6&#45;&gt;Node18 -->
<g id="edge44" class="edge">
<title>Node6&#45;&gt;Node18</title>
<path fill="none" stroke="#191970" d="M598.3007,-249.1209C699.5331,-230.302 897.2016,-192.7867 1074.6579,-154.2612"/>
<polygon fill="#191970" stroke="#191970" points="1075.4048,-157.6807 1084.4316,-152.1338 1073.916,-150.8408 1075.4048,-157.6807"/>
</g>
<!-- Node19 -->
<g id="node20" class="node">
<title>Node19</title>
<g id="a_node20"><a xlink:href="$unstructured__domains_8h.html" xlink:title="Functions to modify unstructured domains, e.g. to incorporate ligands binding to unpaired stretches.">
<polygon fill="none" stroke="#000000" points="164.5,-123.5 164.5,-153.5 289.5,-153.5 289.5,-123.5 164.5,-123.5"/>
<text text-anchor="start" x="172.5" y="-141.5" font-family="Helvetica,sans-Serif" font-size="10.00" fill="#000000">ViennaRNA/unstructured</text>
<text text-anchor="middle" x="227" y="-130.5" font-family="Helvetica,sans-Serif" font-size="10.00" fill="#000000">_domains.h</text>
</a>
</g>
</g>
<!-- Node6&#45;&gt;Node19 -->
<g id="edge45" class="edge">
<title>Node6&#45;&gt;Node19</title>
<path fill="none" stroke="#191970" d="M489.1094,-246.4178C430.9901,-223.9949 326.7867,-181.8903 268.7474,-157.428"/>
<polygon fill="#191970" stroke="#191970" points="270.0727,-154.1884 259.4994,-153.513 267.3438,-160.6345 270.0727,-154.1884"/>
</g>
<!-- Node20 -->
<g id="node21" class="node">
<title>Node20</title>
<g id="a_node21"><a xlink:href="$utils_2structures_8h.html" xlink:title="Various utility&#45; and helper&#45;functions for secondary structure parsing, converting,...">
<polygon fill="none" stroke="#000000" points="108,-62 108,-81 252,-81 252,-62 108,-62"/>
<text text-anchor="middle" x="180" y="-69" font-family="Helvetica,sans-Serif" font-size="10.00" fill="#000000">ViennaRNA/utils/structures.h</text>
</a>
</g>
</g>
<!-- Node6&#45;&gt;Node20 -->
<g id="edge46" class="edge">
<title>Node6&#45;&gt;Node20</title>
<path fill="none" stroke="#191970" d="M463.805,-252.9108C363.8198,-238.0437 183.8654,-204.2084 146,-154 131.4409,-134.695 145.2157,-106.8978 159.6222,-89.0164"/>
<polygon fill="#191970" stroke="#191970" points="162.6109,-90.9209 166.6238,-81.1154 157.372,-86.2783 162.6109,-90.9209"/>
</g>
<!-- Node8 -->
<g id="node9" class="node">
<title>Node8</title>
<g id="a_node9"><a xlink:title=" ">
<polygon fill="none" stroke="#bfbfbf" points="1376,-.5 1376,-19.5 1424,-19.5 1424,-.5 1376,-.5"/>
<text text-anchor="middle" x="1400" y="-7.5" font-family="Helvetica,sans-Serif" font-size="10.00" fill="#000000">limits.h</text>
</a>
</g>
</g>
<!-- Node7&#45;&gt;Node8 -->
<g id="edge8" class="edge">
<title>Node7&#45;&gt;Node8</title>
<path fill="none" stroke="#191970" d="M1400,-61.8906C1400,-53.3657 1400,-40.6392 1400,-29.9235"/>
<polygon fill="#191970" stroke="#191970" points="1403.5001,-29.7448 1400,-19.7449 1396.5001,-29.7449 1403.5001,-29.7448"/>
</g>
<!-- Node9&#45;&gt;Node10 -->
<g id="edge10" class="edge">
<title>Node9&#45;&gt;Node10</title>
<path fill="none" stroke="#191970" d="M680.97,-190.3722C710.4195,-171.606 775.173,-131.2454 800,-123 866.0935,-101.0494 1062.2906,-83.7962 1164.4933,-76.0115"/>
<polygon fill="#191970" stroke="#191970" points="1164.9732,-79.4854 1174.6816,-75.2432 1164.4467,-72.5052 1164.9732,-79.4854"/>
</g>
<!-- Node9&#45;&gt;Node11 -->
<g id="edge11" class="edge">
<title>Node9&#45;&gt;Node11</title>
<path fill="none" stroke="#191970" d="M739.1262,-194.4919C842.1024,-186.8593 1035.4118,-171.9571 1200,-154 1214.829,-152.3821 1230.6931,-150.4174 1245.9914,-148.4378"/>
<polygon fill="#191970" stroke="#191970" points="1246.4834,-151.9033 1255.9462,-147.1383 1245.5772,-144.9622 1246.4834,-151.9033"/>
</g>
<!-- Node12 -->
<g id="node13" class="node">
<title>Node12</title>
<g id="a_node13"><a xlink:href="$sequence_8h.html" xlink:title="Functions and data structures related to sequence representations ,.">
<polygon fill="none" stroke="#000000" points="809,-129 809,-148 931,-148 931,-129 809,-129"/>
<text text-anchor="middle" x="870" y="-136" font-family="Helvetica,sans-Serif" font-size="10.00" fill="#000000">ViennaRNA/sequence.h</text>
</a>
</g>
</g>
<!-- Node9&#45;&gt;Node12 -->
<g id="edge16" class="edge">
<title>Node9&#45;&gt;Node12</title>
<path fill="none" stroke="#191970" d="M692.8125,-190.3906C726.1353,-179.7169 783.2341,-162.4566 823.6621,-150.8033"/>
<polygon fill="#191970" stroke="#191970" points="824.6504,-154.161 833.2995,-148.0419 822.7223,-147.4317 824.6504,-154.161"/>
</g>
<!-- Node9&#45;&gt;Node13 -->
<g id="edge18" class="edge">
<title>Node9&#45;&gt;Node13</title>
<path fill="none" stroke="#191970" d="M615.6461,-190.4581C562.0492,-179.6181 477.9002,-161.9224 424.3196,-150.2439"/>
<polygon fill="#191970" stroke="#191970" points="424.8742,-146.7825 414.3572,-148.0643 423.3781,-153.6207 424.8742,-146.7825"/>
</g>
<!-- Node9&#45;&gt;Node14 -->
<g id="edge21" class="edge">
<title>Node9&#45;&gt;Node14</title>
<path fill="none" stroke="#191970" d="M659.2188,-190.3906C656.5383,-183.2234 654.1959,-173.0862 652.8519,-163.671"/>
<polygon fill="#191970" stroke="#191970" points="656.3141,-163.1267 651.7938,-153.5446 649.352,-163.8542 656.3141,-163.1267"/>
</g>
<!-- Node9&#45;&gt;Node16 -->
<g id="edge25" class="edge">
<title>Node9&#45;&gt;Node16</title>
<path fill="none" stroke="#191970" d="M637.8125,-190.3906C615.0557,-181.6435 582.9484,-168.4728 557.6406,-157.5897"/>
<polygon fill="#191970" stroke="#191970" points="558.8749,-154.3101 548.3078,-153.5446 556.0912,-160.7328 558.8749,-154.3101"/>
</g>
<!-- Node9&#45;&gt;Node17 -->
<g id="edge29" class="edge">
<title>Node9&#45;&gt;Node17</title>
<path fill="none" stroke="#191970" d="M721.9279,-190.4774C775.692,-181.8171 858.957,-168.2458 931,-154 936.7833,-152.8564 942.8264,-151.5872 948.8832,-150.2814"/>
<polygon fill="#191970" stroke="#191970" points="950.0212,-153.6156 959.0458,-148.0652 948.5297,-146.7763 950.0212,-153.6156"/>
</g>
<!-- Node9&#45;&gt;Node18 -->
<g id="edge31" class="edge">
<title>Node9&#45;&gt;Node18</title>
<path fill="none" stroke="#191970" d="M739.3223,-194.421C819.4706,-187.7256 951.8076,-174.9237 1074.5408,-154.1375"/>
<polygon fill="#191970" stroke="#191970" points="1075.2253,-157.5713 1084.4897,-152.4311 1074.0419,-150.672 1075.2253,-157.5713"/>
</g>
<!-- Node9&#45;&gt;Node19 -->
<g id="edge32" class="edge">
<title>Node9&#45;&gt;Node19</title>
<path fill="none" stroke="#191970" d="M592.6625,-193.4941C518.7042,-186.0995 401.3297,-172.8005 296.4791,-155.2539"/>
<polygon fill="#191970" stroke="#191970" points="296.8172,-151.7614 286.3732,-153.5427 295.6485,-158.6632 296.8172,-151.7614"/>
</g>
<!-- Node11&#45;&gt;Node6 -->
<g id="edge13" class="edge">
<title>Node11&#45;&gt;Node6</title>
<path fill="none" stroke="#191970" d="M1322.9733,-148.065C1313.3191,-164.1878 1284.0478,-196.3497 1251,-210 1193.101,-233.9151 782.0541,-252.2152 608.2223,-258.8231"/>
<polygon fill="#191970" stroke="#191970" points="607.982,-255.3296 598.121,-259.204 608.2458,-262.3246 607.982,-255.3296"/>
</g>
<!-- Node11&#45;&gt;Node7 -->
<g id="edge12" class="edge">
<title>Node11&#45;&gt;Node7</title>
<path fill="none" stroke="#191970" d="M1335.7457,-128.9005C1347.664,-118.2535 1367.1057,-100.8856 1381.4868,-88.0385"/>
<polygon fill="#191970" stroke="#191970" points="1384.1484,-90.354 1389.2743,-81.0817 1379.4849,-85.1337 1384.1484,-90.354"/>
</g>
<!-- Node11&#45;&gt;Node9 -->
<g id="edge14" class="edge">
<title>Node11&#45;&gt;Node9</title>
<path fill="none" stroke="#191970" d="M1266.6406,-148.0266C1250.8943,-150.1437 1233.8554,-152.2701 1218,-154 1052.4052,-172.0669 857.7368,-187.0415 749.3908,-194.6311"/>
<polygon fill="#191970" stroke="#191970" points="748.9117,-191.1559 739.1791,-195.3424 749.3981,-198.139 748.9117,-191.1559"/>
</g>
<!-- Node11&#45;&gt;Node10 -->
<g id="edge15" class="edge">
<title>Node11&#45;&gt;Node10</title>
<path fill="none" stroke="#191970" d="M1311.1023,-128.9005C1295.1836,-117.9052 1268.8879,-99.7422 1250.1401,-86.7927"/>
<polygon fill="#191970" stroke="#191970" points="1252.0892,-83.8852 1241.872,-81.0817 1248.1108,-89.6448 1252.0892,-83.8852"/>
</g>
<!-- Node12&#45;&gt;Node9 -->
<g id="edge17" class="edge">
<title>Node12&#45;&gt;Node9</title>
<path fill="none" stroke="#191970" d="M843.3981,-148.0419C810.1759,-158.6877 753.0922,-175.9459 712.5941,-187.6229"/>
<polygon fill="#191970" stroke="#191970" points="711.5861,-184.2708 702.9375,-190.3906 713.5148,-190.9999 711.5861,-184.2708"/>
</g>
<!-- Node13&#45;&gt;Node6 -->
<g id="edge19" class="edge">
<title>Node13&#45;&gt;Node6</title>
<path fill="none" stroke="#191970" d="M390.0146,-148.0493C418.2614,-167.5787 476.1225,-212.5225 508.3707,-239.6136"/>
<polygon fill="#191970" stroke="#191970" points="506.4798,-242.6004 516.363,-246.4178 511.0175,-237.2703 506.4798,-242.6004"/>
</g>
<!-- Node13&#45;&gt;Node9 -->
<g id="edge20" class="edge">
<title>Node13&#45;&gt;Node9</title>
<path fill="none" stroke="#191970" d="M424.4646,-148.0643C478.1035,-158.9137 562.2524,-176.61 615.7909,-188.2802"/>
<polygon fill="#191970" stroke="#191970" points="615.2276,-191.7397 625.7447,-190.4581 616.7239,-184.9015 615.2276,-191.7397"/>
</g>
<!-- Node14&#45;&gt;Node9 -->
<g id="edge22" class="edge">
<title>Node14&#45;&gt;Node9</title>
<path fill="none" stroke="#191970" d="M663.588,-153.5446C665.9953,-161.6241 667.9422,-171.681 668.8302,-180.3693"/>
<polygon fill="#191970" stroke="#191970" points="665.3365,-180.5829 669.3438,-190.3906 672.3273,-180.2246 665.3365,-180.5829"/>
</g>
<!-- Node15 -->
<g id="node16" class="node">
<title>Node15</title>
<g id="a_node16"><a xlink:href="$constraints_2basic_8h.html" xlink:title="Functions and data structures for constraining secondary structure predictions and evaluation.">
<polygon fill="none" stroke="#000000" points="595.5,-56.5 595.5,-86.5 714.5,-86.5 714.5,-56.5 595.5,-56.5"/>
<text text-anchor="start" x="603.5" y="-74.5" font-family="Helvetica,sans-Serif" font-size="10.00" fill="#000000">ViennaRNA/constraints</text>
<text text-anchor="middle" x="655" y="-63.5" font-family="Helvetica,sans-Serif" font-size="10.00" fill="#000000">/basic.h</text>
</a>
</g>
</g>
<!-- Node14&#45;&gt;Node15 -->
<g id="edge23" class="edge">
<title>Node14&#45;&gt;Node15</title>
<path fill="none" stroke="#191970" d="M655,-123.2967C655,-115.5013 655,-105.7991 655,-96.9064"/>
<polygon fill="#191970" stroke="#191970" points="658.5001,-96.6431 655,-86.6432 651.5001,-96.6432 658.5001,-96.6431"/>
</g>
<!-- Node15&#45;&gt;Node9 -->
<g id="edge24" class="edge">
<title>Node15&#45;&gt;Node9</title>
<path fill="none" stroke="#191970" d="M686.1954,-86.6198C700.1665,-95.1874 715.2217,-107.3517 723,-123 729.1327,-135.3376 728.9419,-141.5693 723,-154 716.8552,-166.8551 705.1701,-177.2694 693.9715,-184.9168"/>
<polygon fill="#191970" stroke="#191970" points="691.7959,-182.1512 685.21,-190.4505 695.5339,-188.0696 691.7959,-182.1512"/>
</g>
<!-- Node16&#45;&gt;Node6 -->
<g id="edge26" class="edge">
<title>Node16&#45;&gt;Node6</title>
<path fill="none" stroke="#191970" d="M524.2362,-153.7056C528.8842,-174.3355 533.1225,-211.4615 533.9081,-236.2943"/>
<polygon fill="#191970" stroke="#191970" points="530.4096,-236.4572 534.0202,-246.4178 537.4092,-236.3796 530.4096,-236.4572"/>
</g>
<!-- Node16&#45;&gt;Node9 -->
<g id="edge27" class="edge">
<title>Node16&#45;&gt;Node9</title>
<path fill="none" stroke="#191970" d="M560.102,-153.5446C585.3822,-163.5542 616.7166,-176.5988 638.7941,-186.316"/>
<polygon fill="#191970" stroke="#191970" points="637.3787,-189.517 647.9375,-190.3906 640.2281,-183.1231 637.3787,-189.517"/>
</g>
<!-- Node16&#45;&gt;Node15 -->
<g id="edge28" class="edge">
<title>Node16&#45;&gt;Node15</title>
<path fill="none" stroke="#191970" d="M548.7455,-123.4639C568.2624,-113.9191 593.7257,-101.4663 614.8325,-91.144"/>
<polygon fill="#191970" stroke="#191970" points="616.4375,-94.2552 623.8831,-86.7177 613.3622,-87.9669 616.4375,-94.2552"/>
</g>
<!-- Node17&#45;&gt;Node9 -->
<g id="edge30" class="edge">
<title>Node17&#45;&gt;Node9</title>
<path fill="none" stroke="#191970" d="M976.5748,-148.0652C967.6882,-150.1236 958.0276,-152.2149 949,-154 881.0375,-167.4389 803.0884,-180.2776 746.1614,-188.9593"/>
<polygon fill="#191970" stroke="#191970" points="745.5044,-185.5189 736.1415,-190.4774 746.553,-192.4399 745.5044,-185.5189"/>
</g>
<!-- Node19&#45;&gt;Node6 -->
<g id="edge33" class="edge">
<title>Node19&#45;&gt;Node6</title>
<path fill="none" stroke="#191970" d="M268.7112,-153.513C326.7354,-175.8953 430.9388,-217.9978 489.0731,-242.4964"/>
<polygon fill="#191970" stroke="#191970" points="487.7646,-245.7431 498.3379,-246.4178 490.4931,-239.2967 487.7646,-245.7431"/>
</g>
<!-- Node19&#45;&gt;Node9 -->
<g id="edge34" class="edge">
<title>Node19&#45;&gt;Node9</title>
<path fill="none" stroke="#191970" d="M289.7362,-150.778C295.5815,-151.9409 301.404,-153.0414 307,-154 401.2501,-170.1444 509.9975,-183.0385 582.9437,-191.0201"/>
<polygon fill="#191970" stroke="#191970" points="582.674,-194.5113 592.9939,-192.1135 583.4312,-187.5524 582.674,-194.5113"/>
</g>
<!-- Node19&#45;&gt;Node20 -->
<g id="edge35" class="edge">
<title>Node19&#45;&gt;Node20</title>
<path fill="none" stroke="#191970" d="M216.335,-123.2967C209.2965,-113.2631 200.0423,-100.0709 192.6348,-89.5113"/>
<polygon fill="#191970" stroke="#191970" points="195.3109,-87.2316 186.7027,-81.055 189.5803,-91.2516 195.3109,-87.2316"/>
</g>
<!-- Node20&#45;&gt;Node4 -->
<g id="edge36" class="edge">
<title>Node20&#45;&gt;Node4</title>
<path fill="none" stroke="#191970" d="M172.1875,-61.8906C164.746,-52.7376 153.3666,-38.7409 144.3008,-27.59"/>
<polygon fill="#191970" stroke="#191970" points="146.9467,-25.2962 137.9226,-19.7449 141.5153,-29.712 146.9467,-25.2962"/>
</g>
<!-- Node20&#45;&gt;Node6 -->
<g id="edge37" class="edge">
<title>Node20&#45;&gt;Node6</title>
<path fill="none" stroke="#191970" d="M177.4948,-81.1154C168.4825,-97.5732 147.0584,-131.536 164,-154 199.1399,-200.5945 356.6503,-233.0881 453.6033,-249.4066"/>
<polygon fill="#191970" stroke="#191970" points="453.2224,-252.8912 463.6609,-251.0782 454.3701,-245.9859 453.2224,-252.8912"/>
</g>
</g>
</svg>
