<?xml version="1.0" encoding="UTF-8" standalone="no"?>
<!DOCTYPE svg PUBLIC "-//W3C//DTD SVG 1.1//EN"
 "http://www.w3.org/Graphics/SVG/1.1/DTD/svg11.dtd">
<!-- Generated by graphviz version 2.40.1 (0)
 -->
<!-- Title: ViennaRNA/constraints/hard.h Pages: 1 -->
<svg width="1135pt" height="408pt"
 viewBox="0.00 0.00 1134.50 408.00" xmlns="http://www.w3.org/2000/svg" xmlns:xlink="http://www.w3.org/1999/xlink">
<g id="graph0" class="graph" transform="scale(1 1) rotate(0) translate(4 404)">
<title>ViennaRNA/constraints/hard.h</title>
<!-- Node0 -->
<g id="node1" class="node">
<title>Node0</title>
<g id="a_node1"><a xlink:title="Functions and data structures for handling of secondary structure hard constraints.">
<polygon fill="#bfbfbf" stroke="#000000" points="570.5,-369.5 570.5,-399.5 689.5,-399.5 689.5,-369.5 570.5,-369.5"/>
<text text-anchor="start" x="578.5" y="-387.5" font-family="Helvetica,sans-Serif" font-size="10.00" fill="#000000">ViennaRNA/constraints</text>
<text text-anchor="middle" x="630" y="-376.5" font-family="Helvetica,sans-Serif" font-size="10.00" fill="#000000">/hard.h</text>
</a>
</g>
</g>
<!-- Node1 -->
<g id="node2" class="node">
<title>Node1</title>
<g id="a_node2"><a xlink:href="$fold__compound_8h.html" xlink:title="The Basic Fold Compound API.">
<polygon fill="none" stroke="#000000" points="557,-313.5 557,-332.5 703,-332.5 703,-313.5 557,-313.5"/>
<text text-anchor="middle" x="630" y="-320.5" font-family="Helvetica,sans-Serif" font-size="10.00" fill="#000000">ViennaRNA/fold_compound.h</text>
</a>
</g>
</g>
<!-- Node0&#45;&gt;Node1 -->
<g id="edge1" class="edge">
<title>Node0&#45;&gt;Node1</title>
<path fill="none" stroke="#191970" d="M624.0843,-369.2977C623.1446,-361.2945 622.9987,-351.3843 623.6466,-342.7889"/>
<polygon fill="#191970" stroke="#191970" points="627.1218,-343.2044 624.8917,-332.8469 620.176,-342.3345 627.1218,-343.2044"/>
</g>
<!-- Node9 -->
<g id="node10" class="node">
<title>Node9</title>
<g id="a_node10"><a xlink:href="$constraints_2basic_8h.html" xlink:title="Functions and data structures for constraining secondary structure predictions and evaluation.">
<polygon fill="none" stroke="#000000" points="1007.5,-56.5 1007.5,-86.5 1126.5,-86.5 1126.5,-56.5 1007.5,-56.5"/>
<text text-anchor="start" x="1015.5" y="-74.5" font-family="Helvetica,sans-Serif" font-size="10.00" fill="#000000">ViennaRNA/constraints</text>
<text text-anchor="middle" x="1067" y="-63.5" font-family="Helvetica,sans-Serif" font-size="10.00" fill="#000000">/basic.h</text>
</a>
</g>
</g>
<!-- Node0&#45;&gt;Node9 -->
<g id="edge40" class="edge">
<title>Node0&#45;&gt;Node9</title>
<path fill="none" stroke="#191970" d="M689.6781,-382.2145C817.2533,-375.702 1105,-351.6323 1105,-267 1105,-267 1105,-267 1105,-205.5 1105,-166.0468 1089.5648,-122.4537 1078.3691,-96.0231"/>
<polygon fill="#191970" stroke="#191970" points="1081.5399,-94.5383 1074.3268,-86.778 1075.1262,-97.3427 1081.5399,-94.5383"/>
</g>
<!-- Node1&#45;&gt;Node0 -->
<g id="edge35" class="edge">
<title>Node1&#45;&gt;Node0</title>
<path fill="none" stroke="#191970" d="M635.1083,-332.8469C636.4704,-339.9883 636.9849,-349.9858 636.6519,-359.2849"/>
<polygon fill="#191970" stroke="#191970" points="633.1584,-359.068 635.9157,-369.2977 640.1396,-359.5813 633.1584,-359.068"/>
</g>
<!-- Node2 -->
<g id="node3" class="node">
<title>Node2</title>
<g id="a_node3"><a xlink:href="$model_8h.html" xlink:title="The model details data structure and its corresponding modifiers.">
<polygon fill="none" stroke="#000000" points="0,-129 0,-148 106,-148 106,-129 0,-129"/>
<text text-anchor="middle" x="53" y="-136" font-family="Helvetica,sans-Serif" font-size="10.00" fill="#000000">ViennaRNA/model.h</text>
</a>
</g>
</g>
<!-- Node1&#45;&gt;Node2 -->
<g id="edge2" class="edge">
<title>Node1&#45;&gt;Node2</title>
<path fill="none" stroke="#191970" d="M556.8809,-317.8857C465.1973,-310.7824 313.6493,-296.5614 261,-277 183.3943,-248.1663 105.9105,-185.361 71.4888,-155.2521"/>
<polygon fill="#191970" stroke="#191970" points="73.497,-152.3551 63.6915,-148.3423 68.8544,-157.5941 73.497,-152.3551"/>
</g>
<!-- Node3 -->
<g id="node4" class="node">
<title>Node3</title>
<g id="a_node4"><a xlink:href="$params_2basic_8h.html" xlink:title="Functions to deal with sets of energy parameters.">
<polygon fill="none" stroke="#000000" points="301,-257.5 301,-276.5 439,-276.5 439,-257.5 301,-257.5"/>
<text text-anchor="middle" x="370" y="-264.5" font-family="Helvetica,sans-Serif" font-size="10.00" fill="#000000">ViennaRNA/params/basic.h</text>
</a>
</g>
</g>
<!-- Node1&#45;&gt;Node3 -->
<g id="edge3" class="edge">
<title>Node1&#45;&gt;Node3</title>
<path fill="none" stroke="#191970" d="M580.3703,-313.4369C533.8887,-303.8328 464.9839,-289.0191 418.7812,-278.7152"/>
<polygon fill="#191970" stroke="#191970" points="419.5185,-275.2936 408.9953,-276.5237 417.9887,-282.1245 419.5185,-275.2936"/>
</g>
<!-- Node7 -->
<g id="node8" class="node">
<title>Node7</title>
<g id="a_node8"><a xlink:href="$dp__matrices_8h.html" xlink:title="Functions to deal with standard dynamic programming (DP) matrices.">
<polygon fill="none" stroke="#000000" points="500.5,-129 500.5,-148 633.5,-148 633.5,-129 500.5,-129"/>
<text text-anchor="middle" x="567" y="-136" font-family="Helvetica,sans-Serif" font-size="10.00" fill="#000000">ViennaRNA/dp_matrices.h</text>
</a>
</g>
</g>
<!-- Node1&#45;&gt;Node7 -->
<g id="edge34" class="edge">
<title>Node1&#45;&gt;Node7</title>
<path fill="none" stroke="#191970" d="M621.0087,-313.1077C614.4525,-300.154 607.5763,-276.7676 601,-257 589.3104,-221.8625 574.2885,-181.406 568.0446,-158.0116"/>
<polygon fill="#191970" stroke="#191970" points="571.4542,-157.2209 565.7867,-148.2694 564.635,-158.8014 571.4542,-157.2209"/>
</g>
<!-- Node8 -->
<g id="node9" class="node">
<title>Node8</title>
<g id="a_node9"><a xlink:href="$soft_8h.html" xlink:title="Functions and data structures for secondary structure soft constraints.">
<polygon fill="none" stroke="#000000" points="919.5,-123.5 919.5,-153.5 1038.5,-153.5 1038.5,-123.5 919.5,-123.5"/>
<text text-anchor="start" x="927.5" y="-141.5" font-family="Helvetica,sans-Serif" font-size="10.00" fill="#000000">ViennaRNA/constraints</text>
<text text-anchor="middle" x="979" y="-130.5" font-family="Helvetica,sans-Serif" font-size="10.00" fill="#000000">/soft.h</text>
</a>
</g>
</g>
<!-- Node1&#45;&gt;Node8 -->
<g id="edge36" class="edge">
<title>Node1&#45;&gt;Node8</title>
<path fill="none" stroke="#191970" d="M645.0474,-313.3402C695.6834,-284.3064 859.671,-197.4135 937.4749,-158.1466"/>
<polygon fill="#191970" stroke="#191970" points="939.1581,-161.2179 946.5225,-153.6012 936.0156,-154.9629 939.1581,-161.2179"/>
</g>
<!-- Node10 -->
<g id="node11" class="node">
<title>Node10</title>
<g id="a_node11"><a xlink:href="$grammar_8h.html" xlink:title="Implementations for the RNA folding grammar.">
<polygon fill="none" stroke="#000000" points="651.5,-129 651.5,-148 768.5,-148 768.5,-129 651.5,-129"/>
<text text-anchor="middle" x="710" y="-136" font-family="Helvetica,sans-Serif" font-size="10.00" fill="#000000">ViennaRNA/grammar.h</text>
</a>
</g>
</g>
<!-- Node1&#45;&gt;Node10 -->
<g id="edge37" class="edge">
<title>Node1&#45;&gt;Node10</title>
<path fill="none" stroke="#191970" d="M630.9636,-313.3402C639.335,-284.0732 677.1675,-196.0142 697.6115,-157.2099"/>
<polygon fill="#191970" stroke="#191970" points="700.8892,-158.513 702.6422,-148.0641 694.7559,-155.1392 700.8892,-158.513"/>
</g>
<!-- Node11 -->
<g id="node12" class="node">
<title>Node11</title>
<g id="a_node12"><a xlink:href="$structured__domains_8h.html" xlink:title="This module provides interfaces that deal with additional structured domains in the folding grammar.">
<polygon fill="none" stroke="#000000" points="786.5,-123.5 786.5,-153.5 901.5,-153.5 901.5,-123.5 786.5,-123.5"/>
<text text-anchor="start" x="794.5" y="-141.5" font-family="Helvetica,sans-Serif" font-size="10.00" fill="#000000">ViennaRNA/structured</text>
<text text-anchor="middle" x="844" y="-130.5" font-family="Helvetica,sans-Serif" font-size="10.00" fill="#000000">_domains.h</text>
</a>
</g>
</g>
<!-- Node1&#45;&gt;Node11 -->
<g id="edge38" class="edge">
<title>Node1&#45;&gt;Node11</title>
<path fill="none" stroke="#191970" d="M641.2043,-313.3402C674.2238,-284.8725 771.7621,-200.7799 818.4859,-160.4969"/>
<polygon fill="#191970" stroke="#191970" points="821.0391,-162.9169 826.3275,-153.7363 816.4683,-157.6153 821.0391,-162.9169"/>
</g>
<!-- Node12 -->
<g id="node13" class="node">
<title>Node12</title>
<g id="a_node13"><a xlink:href="$unstructured__domains_8h.html" xlink:title="Functions to modify unstructured domains, e.g. to incorporate ligands binding to unpaired stretches.">
<polygon fill="none" stroke="#000000" points="124.5,-123.5 124.5,-153.5 249.5,-153.5 249.5,-123.5 124.5,-123.5"/>
<text text-anchor="start" x="132.5" y="-141.5" font-family="Helvetica,sans-Serif" font-size="10.00" fill="#000000">ViennaRNA/unstructured</text>
<text text-anchor="middle" x="187" y="-130.5" font-family="Helvetica,sans-Serif" font-size="10.00" fill="#000000">_domains.h</text>
</a>
</g>
</g>
<!-- Node1&#45;&gt;Node12 -->
<g id="edge39" class="edge">
<title>Node1&#45;&gt;Node12</title>
<path fill="none" stroke="#191970" d="M556.8348,-319.9277C468.8579,-315.002 327.68,-303.1002 283,-277 237.3907,-250.3569 205.0601,-195.3897 192.0524,-163.293"/>
<polygon fill="#191970" stroke="#191970" points="195.2701,-161.9032 188.5157,-153.7405 188.7055,-164.3337 195.2701,-161.9032"/>
</g>
<!-- Node15 -->
<g id="node16" class="node">
<title>Node15</title>
<g id="a_node16"><a xlink:href="$sequence_8h.html" xlink:title="Functions and data structures related to sequence representations ,.">
<polygon fill="none" stroke="#000000" points="457,-257.5 457,-276.5 579,-276.5 579,-257.5 457,-257.5"/>
<text text-anchor="middle" x="518" y="-264.5" font-family="Helvetica,sans-Serif" font-size="10.00" fill="#000000">ViennaRNA/sequence.h</text>
</a>
</g>
</g>
<!-- Node1&#45;&gt;Node15 -->
<g id="edge32" class="edge">
<title>Node1&#45;&gt;Node15</title>
<path fill="none" stroke="#191970" d="M605.5045,-313.3733C586.121,-304.545 559.4953,-291.354 540.6174,-281.2951"/>
<polygon fill="#191970" stroke="#191970" points="542.2435,-278.1954 531.785,-276.5011 538.9042,-284.3476 542.2435,-278.1954"/>
</g>
<!-- Node3&#45;&gt;Node1 -->
<g id="edge30" class="edge">
<title>Node3&#45;&gt;Node1</title>
<path fill="none" stroke="#191970" d="M419.4388,-276.5237C465.8589,-286.1135 534.764,-300.9262 581.0288,-311.2425"/>
<polygon fill="#191970" stroke="#191970" points="580.3062,-314.6673 590.8294,-313.4369 581.8358,-307.8364 580.3062,-314.6673"/>
</g>
<!-- Node3&#45;&gt;Node2 -->
<g id="edge31" class="edge">
<title>Node3&#45;&gt;Node2</title>
<path fill="none" stroke="#191970" d="M346.4325,-257.4466C290.7263,-234.8654 150.7874,-178.1394 86.3857,-152.0333"/>
<polygon fill="#191970" stroke="#191970" points="87.3051,-148.6294 76.7227,-148.1163 84.6754,-155.1167 87.3051,-148.6294"/>
</g>
<!-- Node4 -->
<g id="node5" class="node">
<title>Node4</title>
<g id="a_node5"><a xlink:href="$constants_8h.html" xlink:title="Energy parameter constants.">
<polygon fill="none" stroke="#000000" points="268,-129 268,-148 426,-148 426,-129 268,-129"/>
<text text-anchor="middle" x="347" y="-136" font-family="Helvetica,sans-Serif" font-size="10.00" fill="#000000">ViennaRNA/params/constants.h</text>
</a>
</g>
</g>
<!-- Node3&#45;&gt;Node4 -->
<g id="edge4" class="edge">
<title>Node3&#45;&gt;Node4</title>
<path fill="none" stroke="#191970" d="M368.2713,-257.3416C364.525,-236.4114 355.5921,-186.504 350.5755,-158.4762"/>
<polygon fill="#191970" stroke="#191970" points="353.956,-157.4973 348.7488,-148.2705 347.0655,-158.7307 353.956,-157.4973"/>
</g>
<!-- Node6 -->
<g id="node7" class="node">
<title>Node6</title>
<g id="a_node7"><a xlink:href="$datastructures_2basic_8h.html" xlink:title="Various data structures and pre&#45;processor macros.">
<polygon fill="none" stroke="#000000" points="396,-190.5 396,-220.5 530,-220.5 530,-190.5 396,-190.5"/>
<text text-anchor="start" x="404" y="-208.5" font-family="Helvetica,sans-Serif" font-size="10.00" fill="#000000">ViennaRNA/datastructures</text>
<text text-anchor="middle" x="463" y="-197.5" font-family="Helvetica,sans-Serif" font-size="10.00" fill="#000000">/basic.h</text>
</a>
</g>
</g>
<!-- Node3&#45;&gt;Node6 -->
<g id="edge6" class="edge">
<title>Node3&#45;&gt;Node6</title>
<path fill="none" stroke="#191970" d="M379.4688,-257.3906C390.5326,-248.9903 408.9598,-236.5103 425.7619,-225.8945"/>
<polygon fill="#191970" stroke="#191970" points="427.7143,-228.8019 434.3526,-220.5446 424.0138,-222.86 427.7143,-228.8019"/>
</g>
<!-- Node5 -->
<g id="node6" class="node">
<title>Node5</title>
<g id="a_node6"><a xlink:title=" ">
<polygon fill="none" stroke="#bfbfbf" points="323,-62 323,-81 371,-81 371,-62 323,-62"/>
<text text-anchor="middle" x="347" y="-69" font-family="Helvetica,sans-Serif" font-size="10.00" fill="#000000">limits.h</text>
</a>
</g>
</g>
<!-- Node4&#45;&gt;Node5 -->
<g id="edge5" class="edge">
<title>Node4&#45;&gt;Node5</title>
<path fill="none" stroke="#191970" d="M347,-128.9005C347,-119.149 347,-103.7597 347,-91.3695"/>
<polygon fill="#191970" stroke="#191970" points="350.5001,-91.0816 347,-81.0817 343.5001,-91.0817 350.5001,-91.0816"/>
</g>
<!-- Node6&#45;&gt;Node0 -->
<g id="edge14" class="edge">
<title>Node6&#45;&gt;Node0</title>
<path fill="none" stroke="#191970" d="M395.7913,-210.6252C335.7708,-217.9568 261.6557,-235.5071 292,-277 323.8939,-320.6119 470.889,-354.9469 560.1957,-372.2302"/>
<polygon fill="#191970" stroke="#191970" points="559.775,-375.7131 570.2542,-374.1521 561.0888,-368.8375 559.775,-375.7131"/>
</g>
<!-- Node6&#45;&gt;Node1 -->
<g id="edge8" class="edge">
<title>Node6&#45;&gt;Node1</title>
<path fill="none" stroke="#191970" d="M519.6015,-220.5766C542.5838,-228.6855 568.3006,-240.4935 588,-257 603.2249,-269.7573 614.7618,-289.4788 621.8555,-304.0439"/>
<polygon fill="#191970" stroke="#191970" points="618.6879,-305.533 626.0474,-313.1546 625.0471,-302.6071 618.6879,-305.533"/>
</g>
<!-- Node6&#45;&gt;Node2 -->
<g id="edge9" class="edge">
<title>Node6&#45;&gt;Node2</title>
<path fill="none" stroke="#191970" d="M395.9514,-197.5602C325.6265,-188.77 212.0475,-173.2637 115,-154 109.6266,-152.9334 104.0196,-151.7016 98.469,-150.4081"/>
<polygon fill="#191970" stroke="#191970" points="99.1426,-146.9704 88.6014,-148.0354 97.506,-153.7764 99.1426,-146.9704"/>
</g>
<!-- Node6&#45;&gt;Node3 -->
<g id="edge10" class="edge">
<title>Node6&#45;&gt;Node3</title>
<path fill="none" stroke="#191970" d="M446.1467,-220.5446C432.765,-230.1502 414.0062,-242.5508 398.3729,-252.1236"/>
<polygon fill="#191970" stroke="#191970" points="396.3683,-249.2447 389.5938,-257.3906 399.9695,-255.2473 396.3683,-249.2447"/>
</g>
<!-- Node6&#45;&gt;Node4 -->
<g id="edge7" class="edge">
<title>Node6&#45;&gt;Node4</title>
<path fill="none" stroke="#191970" d="M436.9673,-190.4639C417.6794,-179.3234 391.5322,-164.2212 372.3972,-153.1691"/>
<polygon fill="#191970" stroke="#191970" points="374.0376,-150.0747 363.6277,-148.1039 370.5365,-156.1363 374.0376,-150.0747"/>
</g>
<!-- Node6&#45;&gt;Node7 -->
<g id="edge11" class="edge">
<title>Node6&#45;&gt;Node7</title>
<path fill="none" stroke="#191970" d="M480.8384,-190.2967C496.7273,-179.199 519.9706,-164.237 538.404,-153.2472"/>
<polygon fill="#191970" stroke="#191970" points="540.4135,-156.1266 547.2764,-148.055 536.8779,-150.085 540.4135,-156.1266"/>
</g>
<!-- Node6&#45;&gt;Node8 -->
<g id="edge15" class="edge">
<title>Node6&#45;&gt;Node8</title>
<path fill="none" stroke="#191970" d="M530.3076,-199.5261C616.7522,-191.7306 771.0024,-176.3899 902,-154 904.4542,-153.5805 906.9528,-153.1285 909.4776,-152.6517"/>
<polygon fill="#191970" stroke="#191970" points="910.1762,-156.0814 919.3069,-150.7073 908.8178,-149.2145 910.1762,-156.0814"/>
</g>
<!-- Node6&#45;&gt;Node10 -->
<g id="edge20" class="edge">
<title>Node6&#45;&gt;Node10</title>
<path fill="none" stroke="#191970" d="M518.4316,-190.4639C562.7133,-178.4522 623.974,-161.835 665.1921,-150.6544"/>
<polygon fill="#191970" stroke="#191970" points="666.2232,-154.0012 674.9581,-148.0053 664.3906,-147.2454 666.2232,-154.0012"/>
</g>
<!-- Node6&#45;&gt;Node11 -->
<g id="edge22" class="edge">
<title>Node6&#45;&gt;Node11</title>
<path fill="none" stroke="#191970" d="M530.2197,-195.876C591.9122,-186.7324 686.0416,-172.0008 776.5772,-154.2152"/>
<polygon fill="#191970" stroke="#191970" points="777.3279,-157.6345 786.4577,-152.2589 775.9683,-150.7678 777.3279,-157.6345"/>
</g>
<!-- Node6&#45;&gt;Node12 -->
<g id="edge23" class="edge">
<title>Node6&#45;&gt;Node12</title>
<path fill="none" stroke="#191970" d="M395.6734,-190.5473C352.2604,-180.3142 296.1236,-166.7094 252.9793,-155.9758"/>
<polygon fill="#191970" stroke="#191970" points="253.6957,-152.5473 243.1458,-153.5227 252.0013,-159.3392 253.6957,-152.5473"/>
</g>
<!-- Node13 -->
<g id="node14" class="node">
<title>Node13</title>
<g id="a_node14"><a xlink:href="$utils_2structures_8h.html" xlink:title="Various utility&#45; and helper&#45;functions for secondary structure parsing, converting,...">
<polygon fill="none" stroke="#000000" points="391,-62 391,-81 535,-81 535,-62 391,-62"/>
<text text-anchor="middle" x="463" y="-69" font-family="Helvetica,sans-Serif" font-size="10.00" fill="#000000">ViennaRNA/utils/structures.h</text>
</a>
</g>
</g>
<!-- Node6&#45;&gt;Node13 -->
<g id="edge29" class="edge">
<title>Node6&#45;&gt;Node13</title>
<path fill="none" stroke="#191970" d="M458.5366,-190.389C455.6616,-166.0735 455.4977,-118.2644 458.0448,-91.2698"/>
<polygon fill="#191970" stroke="#191970" points="461.5481,-91.4583 459.3025,-81.1042 454.6011,-90.5988 461.5481,-91.4583"/>
</g>
<!-- Node7&#45;&gt;Node1 -->
<g id="edge13" class="edge">
<title>Node7&#45;&gt;Node1</title>
<path fill="none" stroke="#191970" d="M575.7083,-148.2694C587.4469,-168.4583 605.4591,-216.2977 619,-257 624.0864,-272.289 629.3521,-289.7428 631.8954,-302.8601"/>
<polygon fill="#191970" stroke="#191970" points="628.48,-303.702 633.3568,-313.1077 635.4099,-302.7137 628.48,-303.702"/>
</g>
<!-- Node7&#45;&gt;Node6 -->
<g id="edge12" class="edge">
<title>Node7&#45;&gt;Node6</title>
<path fill="none" stroke="#191970" d="M556.9939,-148.1039C543.8943,-157.7457 520.8305,-172.8959 500.7545,-185.2103"/>
<polygon fill="#191970" stroke="#191970" points="498.8206,-182.2897 492.0802,-190.4639 502.4469,-188.2772 498.8206,-182.2897"/>
</g>
<!-- Node8&#45;&gt;Node1 -->
<g id="edge17" class="edge">
<title>Node8&#45;&gt;Node1</title>
<path fill="none" stroke="#191970" d="M954.0483,-153.7686C891.4659,-188.862 728.7604,-274.855 660.5844,-308.8438"/>
<polygon fill="#191970" stroke="#191970" points="658.646,-305.8978 651.2347,-313.469 661.7499,-312.1721 658.646,-305.8978"/>
</g>
<!-- Node8&#45;&gt;Node6 -->
<g id="edge16" class="edge">
<title>Node8&#45;&gt;Node6</title>
<path fill="none" stroke="#191970" d="M922.5208,-153.5606C921.6761,-153.7106 920.8355,-153.8572 920,-154 787.5991,-176.6297 631.4448,-192.0585 540.1348,-199.774"/>
<polygon fill="#191970" stroke="#191970" points="539.8176,-196.2883 530.1439,-200.6092 540.4007,-203.2639 539.8176,-196.2883"/>
</g>
<!-- Node8&#45;&gt;Node9 -->
<g id="edge18" class="edge">
<title>Node8&#45;&gt;Node9</title>
<path fill="none" stroke="#191970" d="M998.9686,-123.2967C1010.7825,-114.302 1025.9306,-102.7687 1038.9327,-92.8694"/>
<polygon fill="#191970" stroke="#191970" points="1041.2743,-95.4857 1047.1105,-86.6432 1037.0338,-89.9162 1041.2743,-95.4857"/>
</g>
<!-- Node9&#45;&gt;Node1 -->
<g id="edge19" class="edge">
<title>Node9&#45;&gt;Node1</title>
<path fill="none" stroke="#191970" d="M1067.4448,-86.6949C1067.1679,-104.7578 1064.0585,-134.8573 1048,-154 963.0925,-255.2147 808.4547,-296.4277 712.9367,-312.7618"/>
<polygon fill="#191970" stroke="#191970" points="712.3171,-309.3167 703.0236,-314.4041 713.4612,-316.2226 712.3171,-309.3167"/>
</g>
<!-- Node10&#45;&gt;Node1 -->
<g id="edge21" class="edge">
<title>Node10&#45;&gt;Node1</title>
<path fill="none" stroke="#191970" d="M709.0637,-148.0641C700.7567,-177.2027 662.9374,-265.2511 642.4556,-304.1628"/>
<polygon fill="#191970" stroke="#191970" points="639.1611,-302.8905 637.4134,-313.3402 645.2962,-306.2612 639.1611,-302.8905"/>
</g>
<!-- Node12&#45;&gt;Node1 -->
<g id="edge25" class="edge">
<title>Node12&#45;&gt;Node1</title>
<path fill="none" stroke="#191970" d="M198.6822,-153.7405C216.2177,-183.1603 250.4546,-247.4735 301,-277 341.8048,-300.8365 463.0944,-312.8306 546.4794,-318.4839"/>
<polygon fill="#191970" stroke="#191970" points="546.4979,-321.9926 556.7067,-319.1585 546.9588,-315.0078 546.4979,-321.9926"/>
</g>
<!-- Node12&#45;&gt;Node6 -->
<g id="edge24" class="edge">
<title>Node12&#45;&gt;Node6</title>
<path fill="none" stroke="#191970" d="M249.618,-152.3443C293.5813,-162.6787 352.2009,-176.8744 396.9082,-187.9962"/>
<polygon fill="#191970" stroke="#191970" points="396.2509,-191.4394 406.8007,-190.4639 397.9452,-184.6476 396.2509,-191.4394"/>
</g>
<!-- Node12&#45;&gt;Node13 -->
<g id="edge26" class="edge">
<title>Node12&#45;&gt;Node13</title>
<path fill="none" stroke="#191970" d="M248.9398,-123.4639C298.839,-111.3507 368.033,-94.5536 414.0949,-83.3719"/>
<polygon fill="#191970" stroke="#191970" points="414.9518,-86.7656 423.8439,-81.0053 413.3004,-79.9632 414.9518,-86.7656"/>
</g>
<!-- Node13&#45;&gt;Node6 -->
<g id="edge28" class="edge">
<title>Node13&#45;&gt;Node6</title>
<path fill="none" stroke="#191970" d="M466.6975,-81.1042C470.0786,-101.6073 470.6509,-150.2327 468.4144,-180.2559"/>
<polygon fill="#191970" stroke="#191970" points="464.9132,-180.1056 467.4634,-190.389 471.8826,-180.7598 464.9132,-180.1056"/>
</g>
<!-- Node14 -->
<g id="node15" class="node">
<title>Node14</title>
<g id="a_node15"><a xlink:title=" ">
<polygon fill="none" stroke="#bfbfbf" points="440,-.5 440,-19.5 486,-19.5 486,-.5 440,-.5"/>
<text text-anchor="middle" x="463" y="-7.5" font-family="Helvetica,sans-Serif" font-size="10.00" fill="#000000">stdio.h</text>
</a>
</g>
</g>
<!-- Node13&#45;&gt;Node14 -->
<g id="edge27" class="edge">
<title>Node13&#45;&gt;Node14</title>
<path fill="none" stroke="#191970" d="M463,-61.8906C463,-53.3657 463,-40.6392 463,-29.9235"/>
<polygon fill="#191970" stroke="#191970" points="466.5001,-29.7448 463,-19.7449 459.5001,-29.7449 466.5001,-29.7448"/>
</g>
<!-- Node15&#45;&gt;Node1 -->
<g id="edge33" class="edge">
<title>Node15&#45;&gt;Node1</title>
<path fill="none" stroke="#191970" d="M542.5305,-276.6427C561.754,-285.3993 588.0855,-298.4388 606.9226,-308.46"/>
<polygon fill="#191970" stroke="#191970" points="605.298,-311.5604 615.7579,-313.2455 608.6318,-305.4053 605.298,-311.5604"/>
</g>
</g>
</svg>
