<?xml version="1.0" encoding="UTF-8" standalone="no"?>
<!DOCTYPE svg PUBLIC "-//W3C//DTD SVG 1.1//EN"
 "http://www.w3.org/Graphics/SVG/1.1/DTD/svg11.dtd">
<!-- Generated by graphviz version 2.40.1 (0)
 -->
<!-- Title: ViennaRNA/loops/internal.h Pages: 1 -->
<svg width="1507pt" height="397pt"
 viewBox="0.00 0.00 1506.50 397.00" xmlns="http://www.w3.org/2000/svg" xmlns:xlink="http://www.w3.org/1999/xlink">
<g id="graph0" class="graph" transform="scale(1 1) rotate(0) translate(4 393)">
<title>ViennaRNA/loops/internal.h</title>
<!-- Node0 -->
<g id="node1" class="node">
<title>Node0</title>
<g id="a_node1"><a xlink:title="Energy evaluation of interior loops for MFE and partition function calculations.">
<polygon fill="#bfbfbf" stroke="#000000" points="767,-369.5 767,-388.5 904,-388.5 904,-369.5 767,-369.5"/>
<text text-anchor="middle" x="835.5" y="-376.5" font-family="Helvetica,sans-Serif" font-size="10.00" fill="#000000">ViennaRNA/loops/internal.h</text>
</a>
</g>
</g>
<!-- Node1 -->
<g id="node2" class="node">
<title>Node1</title>
<g id="a_node2"><a xlink:href="$utils_2basic_8h.html" xlink:title="General utility&#45; and helper&#45;functions used throughout the ViennaRNA Package.">
<polygon fill="none" stroke="#000000" points="874.5,-313.5 874.5,-332.5 998.5,-332.5 998.5,-313.5 874.5,-313.5"/>
<text text-anchor="middle" x="936.5" y="-320.5" font-family="Helvetica,sans-Serif" font-size="10.00" fill="#000000">ViennaRNA/utils/basic.h</text>
</a>
</g>
</g>
<!-- Node0&#45;&gt;Node1 -->
<g id="edge1" class="edge">
<title>Node0&#45;&gt;Node1</title>
<path fill="none" stroke="#191970" d="M853.0929,-369.2455C868.879,-360.4928 892.2639,-347.527 910.2587,-337.5496"/>
<polygon fill="#191970" stroke="#191970" points="912.0603,-340.5528 919.1087,-332.6427 908.6659,-334.4308 912.0603,-340.5528"/>
</g>
<!-- Node4 -->
<g id="node5" class="node">
<title>Node4</title>
<g id="a_node5"><a xlink:href="$datastructures_2basic_8h.html" xlink:title="Various data structures and pre&#45;processor macros.">
<polygon fill="none" stroke="#000000" points="768.5,-246.5 768.5,-276.5 902.5,-276.5 902.5,-246.5 768.5,-246.5"/>
<text text-anchor="start" x="776.5" y="-264.5" font-family="Helvetica,sans-Serif" font-size="10.00" fill="#000000">ViennaRNA/datastructures</text>
<text text-anchor="middle" x="835.5" y="-253.5" font-family="Helvetica,sans-Serif" font-size="10.00" fill="#000000">/basic.h</text>
</a>
</g>
</g>
<!-- Node0&#45;&gt;Node4 -->
<g id="edge47" class="edge">
<title>Node0&#45;&gt;Node4</title>
<path fill="none" stroke="#191970" d="M835.5,-369.3845C835.5,-351.544 835.5,-312.7839 835.5,-286.9138"/>
<polygon fill="#191970" stroke="#191970" points="839.0001,-286.7143 835.5,-276.7143 832.0001,-286.7143 839.0001,-286.7143"/>
</g>
<!-- Node7 -->
<g id="node8" class="node">
<title>Node7</title>
<g id="a_node8"><a xlink:href="$fold__compound_8h.html" xlink:title="The Basic Fold Compound API.">
<polygon fill="none" stroke="#000000" points="524.5,-190.5 524.5,-209.5 670.5,-209.5 670.5,-190.5 524.5,-190.5"/>
<text text-anchor="middle" x="597.5" y="-197.5" font-family="Helvetica,sans-Serif" font-size="10.00" fill="#000000">ViennaRNA/fold_compound.h</text>
</a>
</g>
</g>
<!-- Node0&#45;&gt;Node7 -->
<g id="edge48" class="edge">
<title>Node0&#45;&gt;Node7</title>
<path fill="none" stroke="#191970" d="M822.7041,-369.3762C783.8008,-340.117 666.6588,-252.0144 618.5119,-215.8031"/>
<polygon fill="#191970" stroke="#191970" points="620.4549,-212.885 610.3592,-209.6714 616.2474,-218.4794 620.4549,-212.885"/>
</g>
<!-- Node9 -->
<g id="node10" class="node">
<title>Node9</title>
<g id="a_node10"><a xlink:href="$params_2basic_8h.html" xlink:title="Functions to deal with sets of energy parameters.">
<polygon fill="none" stroke="#000000" points="1147.5,-129 1147.5,-148 1285.5,-148 1285.5,-129 1147.5,-129"/>
<text text-anchor="middle" x="1216.5" y="-136" font-family="Helvetica,sans-Serif" font-size="10.00" fill="#000000">ViennaRNA/params/basic.h</text>
</a>
</g>
</g>
<!-- Node0&#45;&gt;Node9 -->
<g id="edge49" class="edge">
<title>Node0&#45;&gt;Node9</title>
<path fill="none" stroke="#191970" d="M892.4282,-369.4692C926.8953,-362.3315 971.0809,-350.7009 1007.5,-333 1089.4448,-293.1719 1109.7617,-277.0046 1171.5,-210 1186.3381,-193.8963 1199.1743,-172.2576 1207.297,-157.017"/>
<polygon fill="#191970" stroke="#191970" points="1210.4499,-158.5394 1211.9278,-148.0481 1204.2301,-155.3279 1210.4499,-158.5394"/>
</g>
<!-- Node12 -->
<g id="node13" class="node">
<title>Node12</title>
<g id="a_node13"><a xlink:href="$hard_8h.html" xlink:title="Functions and data structures for handling of secondary structure hard constraints.">
<polygon fill="none" stroke="#000000" points="0,-123.5 0,-153.5 119,-153.5 119,-123.5 0,-123.5"/>
<text text-anchor="start" x="8" y="-141.5" font-family="Helvetica,sans-Serif" font-size="10.00" fill="#000000">ViennaRNA/constraints</text>
<text text-anchor="middle" x="59.5" y="-130.5" font-family="Helvetica,sans-Serif" font-size="10.00" fill="#000000">/hard.h</text>
</a>
</g>
</g>
<!-- Node0&#45;&gt;Node12 -->
<g id="edge50" class="edge">
<title>Node0&#45;&gt;Node12</title>
<path fill="none" stroke="#191970" d="M792.4349,-369.4736C753.5883,-360.6799 694.973,-346.9133 644.5,-333 443.5413,-277.6041 209.7544,-193.919 109.4083,-157.0535"/>
<polygon fill="#191970" stroke="#191970" points="110.4274,-153.699 99.8339,-153.5292 108.0093,-160.2681 110.4274,-153.699"/>
</g>
<!-- Node14 -->
<g id="node15" class="node">
<title>Node14</title>
<g id="a_node15"><a xlink:href="$soft_8h.html" xlink:title="Functions and data structures for secondary structure soft constraints.">
<polygon fill="none" stroke="#000000" points="137,-123.5 137,-153.5 256,-153.5 256,-123.5 137,-123.5"/>
<text text-anchor="start" x="145" y="-141.5" font-family="Helvetica,sans-Serif" font-size="10.00" fill="#000000">ViennaRNA/constraints</text>
<text text-anchor="middle" x="196.5" y="-130.5" font-family="Helvetica,sans-Serif" font-size="10.00" fill="#000000">/soft.h</text>
</a>
</g>
</g>
<!-- Node0&#45;&gt;Node14 -->
<g id="edge51" class="edge">
<title>Node0&#45;&gt;Node14</title>
<path fill="none" stroke="#191970" d="M807.7669,-369.4213C735.3236,-344.2967 534.589,-274.0152 369.5,-210 325.6009,-192.9776 275.9812,-172.3222 241.1759,-157.5979"/>
<polygon fill="#191970" stroke="#191970" points="242.3419,-154.2907 231.7689,-153.6101 239.6097,-160.7355 242.3419,-154.2907"/>
</g>
<!-- Node19 -->
<g id="node20" class="node">
<title>Node19</title>
<g id="a_node20"><a xlink:href="$default_8h_source.html" xlink:title=" ">
<polygon fill="none" stroke="#000000" points="1344.5,-190.5 1344.5,-209.5 1488.5,-209.5 1488.5,-190.5 1344.5,-190.5"/>
<text text-anchor="middle" x="1416.5" y="-197.5" font-family="Helvetica,sans-Serif" font-size="10.00" fill="#000000">ViennaRNA/params/default.h</text>
</a>
</g>
</g>
<!-- Node0&#45;&gt;Node19 -->
<g id="edge45" class="edge">
<title>Node0&#45;&gt;Node19</title>
<path fill="none" stroke="#191970" d="M904.3667,-377.8099C1014.202,-374.9541 1223.3985,-365.3167 1289.5,-333 1343.0741,-306.8079 1386.0793,-248.0331 1405.4178,-218.1658"/>
<polygon fill="#191970" stroke="#191970" points="1408.4703,-219.8868 1410.8482,-209.5623 1402.5508,-216.1505 1408.4703,-219.8868"/>
</g>
<!-- Node2 -->
<g id="node3" class="node">
<title>Node2</title>
<g id="a_node3"><a xlink:title=" ">
<polygon fill="none" stroke="#bfbfbf" points="1167.5,-.5 1167.5,-19.5 1213.5,-19.5 1213.5,-.5 1167.5,-.5"/>
<text text-anchor="middle" x="1190.5" y="-7.5" font-family="Helvetica,sans-Serif" font-size="10.00" fill="#000000">stdio.h</text>
</a>
</g>
</g>
<!-- Node1&#45;&gt;Node2 -->
<g id="edge2" class="edge">
<title>Node1&#45;&gt;Node2</title>
<path fill="none" stroke="#191970" d="M998.7755,-314.074C1082.7555,-298.3249 1229.2867,-256.8995 1294.5,-154 1308.8397,-131.3735 1283.4192,-63.526 1277.5,-56 1263.8016,-38.5831 1241.654,-27.0073 1223.1337,-19.8244"/>
<polygon fill="#191970" stroke="#191970" points="1224.1641,-16.4753 1213.5698,-16.3689 1221.7854,-23.0588 1224.1641,-16.4753"/>
</g>
<!-- Node3 -->
<g id="node4" class="node">
<title>Node3</title>
<g id="a_node4"><a xlink:title=" ">
<polygon fill="none" stroke="#bfbfbf" points="920.5,-252 920.5,-271 972.5,-271 972.5,-252 920.5,-252"/>
<text text-anchor="middle" x="946.5" y="-259" font-family="Helvetica,sans-Serif" font-size="10.00" fill="#000000">stdarg.h</text>
</a>
</g>
</g>
<!-- Node1&#45;&gt;Node3 -->
<g id="edge3" class="edge">
<title>Node1&#45;&gt;Node3</title>
<path fill="none" stroke="#191970" d="M938.0625,-313.3906C939.4487,-304.8657 941.518,-292.1392 943.2604,-281.4235"/>
<polygon fill="#191970" stroke="#191970" points="946.7651,-281.677 944.9155,-271.2449 939.8558,-280.5535 946.7651,-281.677"/>
</g>
<!-- Node1&#45;&gt;Node4 -->
<g id="edge4" class="edge">
<title>Node1&#45;&gt;Node4</title>
<path fill="none" stroke="#191970" d="M920.7188,-313.3906C906.9231,-304.9903 886.4274,-292.5103 868.9934,-281.8945"/>
<polygon fill="#191970" stroke="#191970" points="870.5689,-278.756 860.2074,-276.5446 866.9283,-284.7349 870.5689,-278.756"/>
</g>
<!-- Node5 -->
<g id="node6" class="node">
<title>Node5</title>
<g id="a_node6"><a xlink:href="$constants_8h.html" xlink:title="Energy parameter constants.">
<polygon fill="none" stroke="#000000" points="1340.5,-62 1340.5,-81 1498.5,-81 1498.5,-62 1340.5,-62"/>
<text text-anchor="middle" x="1419.5" y="-69" font-family="Helvetica,sans-Serif" font-size="10.00" fill="#000000">ViennaRNA/params/constants.h</text>
</a>
</g>
</g>
<!-- Node4&#45;&gt;Node5 -->
<g id="edge5" class="edge">
<title>Node4&#45;&gt;Node5</title>
<path fill="none" stroke="#191970" d="M902.5932,-247.5756C905.6004,-247.0275 908.5799,-246.4994 911.5,-246 1026.4884,-226.334 1059.4633,-242.5096 1171.5,-210 1229.1863,-193.2612 1241.9408,-183.0764 1294.5,-154 1332.3932,-133.037 1373.8876,-104.4321 1398.2593,-87.0011"/>
<polygon fill="#191970" stroke="#191970" points="1400.3564,-89.804 1406.4252,-81.1196 1396.2653,-84.124 1400.3564,-89.804"/>
</g>
<!-- Node4&#45;&gt;Node7 -->
<g id="edge7" class="edge">
<title>Node4&#45;&gt;Node7</title>
<path fill="none" stroke="#191970" d="M777.2787,-246.4554C736.3485,-235.8789 682.3054,-221.914 644.1957,-212.0663"/>
<polygon fill="#191970" stroke="#191970" points="644.9392,-208.6436 634.3816,-209.5303 643.1879,-215.4209 644.9392,-208.6436"/>
</g>
<!-- Node8 -->
<g id="node9" class="node">
<title>Node8</title>
<g id="a_node9"><a xlink:href="$model_8h.html" xlink:title="The model details data structure and its corresponding modifiers.">
<polygon fill="none" stroke="#000000" points="1162.5,-62 1162.5,-81 1268.5,-81 1268.5,-62 1162.5,-62"/>
<text text-anchor="middle" x="1215.5" y="-69" font-family="Helvetica,sans-Serif" font-size="10.00" fill="#000000">ViennaRNA/model.h</text>
</a>
</g>
</g>
<!-- Node4&#45;&gt;Node8 -->
<g id="edge36" class="edge">
<title>Node4&#45;&gt;Node8</title>
<path fill="none" stroke="#191970" d="M902.51,-247.194C936.1483,-238.7025 976.9778,-226.3639 1011.5,-210 1073.3246,-180.6945 1081.8415,-161.3524 1138.5,-123 1156.647,-110.7162 1177.2902,-96.9188 1192.6313,-86.6991"/>
<polygon fill="#191970" stroke="#191970" points="1194.6072,-89.5884 1200.9923,-81.1338 1190.7284,-83.7613 1194.6072,-89.5884"/>
</g>
<!-- Node4&#45;&gt;Node9 -->
<g id="edge37" class="edge">
<title>Node4&#45;&gt;Node9</title>
<path fill="none" stroke="#191970" d="M900.103,-246.4412C900.906,-246.2925 901.7052,-246.1454 902.5,-246 1000.8231,-228.0091 1033.8926,-252.2068 1124.5,-210 1152.4577,-196.9767 1178.3005,-171.7624 1195.7769,-155.0277"/>
<polygon fill="#191970" stroke="#191970" points="1198.3363,-157.4246 1203.1955,-148.0098 1193.5257,-152.3394 1198.3363,-157.4246"/>
</g>
<!-- Node11 -->
<g id="node12" class="node">
<title>Node11</title>
<g id="a_node12"><a xlink:href="$dp__matrices_8h.html" xlink:title="Functions to deal with standard dynamic programming (DP) matrices.">
<polygon fill="none" stroke="#000000" points="769,-129 769,-148 902,-148 902,-129 769,-129"/>
<text text-anchor="middle" x="835.5" y="-136" font-family="Helvetica,sans-Serif" font-size="10.00" fill="#000000">ViennaRNA/dp_matrices.h</text>
</a>
</g>
</g>
<!-- Node4&#45;&gt;Node11 -->
<g id="edge38" class="edge">
<title>Node4&#45;&gt;Node11</title>
<path fill="none" stroke="#191970" d="M830.8857,-246.4178C828.2062,-224.1659 828.048,-182.5314 830.4111,-157.9908"/>
<polygon fill="#191970" stroke="#191970" points="833.8858,-158.4107 831.6743,-148.0493 826.9417,-157.5283 833.8858,-158.4107"/>
</g>
<!-- Node4&#45;&gt;Node12 -->
<g id="edge39" class="edge">
<title>Node4&#45;&gt;Node12</title>
<path fill="none" stroke="#191970" d="M768.4076,-256.5578C677.5513,-249.3025 510.5293,-233.9727 369.5,-210 284.4761,-195.5473 187.8414,-172.1248 125.3917,-156.0517"/>
<polygon fill="#191970" stroke="#191970" points="126.2272,-152.6527 115.6694,-153.5376 124.4747,-159.4298 126.2272,-152.6527"/>
</g>
<!-- Node4&#45;&gt;Node14 -->
<g id="edge40" class="edge">
<title>Node4&#45;&gt;Node14</title>
<path fill="none" stroke="#191970" d="M768.4232,-256.0502C689.4479,-248.601 554.9264,-233.4283 441.5,-210 372.4554,-195.7388 294.6303,-172.7844 245.4894,-156.7428"/>
<polygon fill="#191970" stroke="#191970" points="246.3467,-153.3401 235.7536,-153.5308 244.1536,-159.9877 246.3467,-153.3401"/>
</g>
<!-- Node15 -->
<g id="node16" class="node">
<title>Node15</title>
<g id="a_node16"><a xlink:href="$grammar_8h.html" xlink:title="Implementations for the RNA folding grammar.">
<polygon fill="none" stroke="#000000" points="274,-129 274,-148 391,-148 391,-129 274,-129"/>
<text text-anchor="middle" x="332.5" y="-136" font-family="Helvetica,sans-Serif" font-size="10.00" fill="#000000">ViennaRNA/grammar.h</text>
</a>
</g>
</g>
<!-- Node4&#45;&gt;Node15 -->
<g id="edge41" class="edge">
<title>Node4&#45;&gt;Node15</title>
<path fill="none" stroke="#191970" d="M768.432,-254.9127C703.0698,-247.5125 601.2799,-233.3732 515.5,-210 459.8488,-194.8362 397.8703,-168.5078 362.2058,-152.3808"/>
<polygon fill="#191970" stroke="#191970" points="363.4221,-149.0886 352.8715,-148.1205 360.5155,-155.4567 363.4221,-149.0886"/>
</g>
<!-- Node16 -->
<g id="node17" class="node">
<title>Node16</title>
<g id="a_node17"><a xlink:href="$structured__domains_8h.html" xlink:title="This module provides interfaces that deal with additional structured domains in the folding grammar.">
<polygon fill="none" stroke="#000000" points="920,-123.5 920,-153.5 1035,-153.5 1035,-123.5 920,-123.5"/>
<text text-anchor="start" x="928" y="-141.5" font-family="Helvetica,sans-Serif" font-size="10.00" fill="#000000">ViennaRNA/structured</text>
<text text-anchor="middle" x="977.5" y="-130.5" font-family="Helvetica,sans-Serif" font-size="10.00" fill="#000000">_domains.h</text>
</a>
</g>
</g>
<!-- Node4&#45;&gt;Node16 -->
<g id="edge42" class="edge">
<title>Node4&#45;&gt;Node16</title>
<path fill="none" stroke="#191970" d="M852.912,-246.4178C877.8235,-224.8395 923.7776,-185.0342 952.3726,-160.2653"/>
<polygon fill="#191970" stroke="#191970" points="954.6785,-162.8984 959.9456,-153.7056 950.0954,-157.6074 954.6785,-162.8984"/>
</g>
<!-- Node17 -->
<g id="node18" class="node">
<title>Node17</title>
<g id="a_node18"><a xlink:href="$unstructured__domains_8h.html" xlink:title="Functions to modify unstructured domains, e.g. to incorporate ligands binding to unpaired stretches.">
<polygon fill="none" stroke="#000000" points="626,-123.5 626,-153.5 751,-153.5 751,-123.5 626,-123.5"/>
<text text-anchor="start" x="634" y="-141.5" font-family="Helvetica,sans-Serif" font-size="10.00" fill="#000000">ViennaRNA/unstructured</text>
<text text-anchor="middle" x="688.5" y="-130.5" font-family="Helvetica,sans-Serif" font-size="10.00" fill="#000000">_domains.h</text>
</a>
</g>
</g>
<!-- Node4&#45;&gt;Node17 -->
<g id="edge43" class="edge">
<title>Node4&#45;&gt;Node17</title>
<path fill="none" stroke="#191970" d="M812.8607,-246.4178C784.5949,-224.9317 737.0821,-185.3741 709.5688,-160.5837"/>
<polygon fill="#191970" stroke="#191970" points="711.7861,-157.8686 702.0435,-153.7056 707.0636,-163.0356 711.7861,-157.8686"/>
</g>
<!-- Node18 -->
<g id="node19" class="node">
<title>Node18</title>
<g id="a_node19"><a xlink:href="$utils_2structures_8h.html" xlink:title="Various utility&#45; and helper&#45;functions for secondary structure parsing, converting,...">
<polygon fill="none" stroke="#000000" points="1000.5,-62 1000.5,-81 1144.5,-81 1144.5,-62 1000.5,-62"/>
<text text-anchor="middle" x="1072.5" y="-69" font-family="Helvetica,sans-Serif" font-size="10.00" fill="#000000">ViennaRNA/utils/structures.h</text>
</a>
</g>
</g>
<!-- Node4&#45;&gt;Node18 -->
<g id="edge44" class="edge">
<title>Node4&#45;&gt;Node18</title>
<path fill="none" stroke="#191970" d="M881.6411,-246.3959C926.4909,-230.5392 993.4163,-201.2312 1034.5,-154 1050.1687,-135.9867 1057.5303,-108.9738 1062.9642,-90.8146"/>
<polygon fill="#191970" stroke="#191970" points="1066.3755,-91.6367 1066.072,-81.0462 1059.7049,-89.5144 1066.3755,-91.6367"/>
</g>
<!-- Node6 -->
<g id="node7" class="node">
<title>Node6</title>
<g id="a_node7"><a xlink:title=" ">
<polygon fill="none" stroke="#bfbfbf" points="1395.5,-.5 1395.5,-19.5 1443.5,-19.5 1443.5,-.5 1395.5,-.5"/>
<text text-anchor="middle" x="1419.5" y="-7.5" font-family="Helvetica,sans-Serif" font-size="10.00" fill="#000000">limits.h</text>
</a>
</g>
</g>
<!-- Node5&#45;&gt;Node6 -->
<g id="edge6" class="edge">
<title>Node5&#45;&gt;Node6</title>
<path fill="none" stroke="#191970" d="M1419.5,-61.8906C1419.5,-53.3657 1419.5,-40.6392 1419.5,-29.9235"/>
<polygon fill="#191970" stroke="#191970" points="1423.0001,-29.7448 1419.5,-19.7449 1416.0001,-29.7449 1423.0001,-29.7448"/>
</g>
<!-- Node7&#45;&gt;Node8 -->
<g id="edge8" class="edge">
<title>Node7&#45;&gt;Node8</title>
<path fill="none" stroke="#191970" d="M596.6259,-190.3744C595.7071,-173.723 596.5611,-139.7231 616.5,-123 662.3185,-84.5712 1094.4252,-96.2887 1153.5,-87 1159.4683,-86.0616 1165.7028,-84.8211 1171.8202,-83.4495"/>
<polygon fill="#191970" stroke="#191970" points="1173.016,-86.7629 1181.937,-81.0476 1171.399,-79.9522 1173.016,-86.7629"/>
</g>
<!-- Node7&#45;&gt;Node9 -->
<g id="edge9" class="edge">
<title>Node7&#45;&gt;Node9</title>
<path fill="none" stroke="#191970" d="M670.6115,-192.2733C787.6942,-180.3613 1016.169,-157.6638 1137.1053,-145.9323"/>
<polygon fill="#191970" stroke="#191970" points="1137.7843,-149.383 1147.4002,-144.9351 1137.1093,-142.4157 1137.7843,-149.383"/>
</g>
<!-- Node10 -->
<g id="node11" class="node">
<title>Node10</title>
<g id="a_node11"><a xlink:href="$sequence_8h.html" xlink:title="Functions and data structures related to sequence representations ,.">
<polygon fill="none" stroke="#000000" points="447.5,-129 447.5,-148 569.5,-148 569.5,-129 447.5,-129"/>
<text text-anchor="middle" x="508.5" y="-136" font-family="Helvetica,sans-Serif" font-size="10.00" fill="#000000">ViennaRNA/sequence.h</text>
</a>
</g>
</g>
<!-- Node7&#45;&gt;Node10 -->
<g id="edge14" class="edge">
<title>Node7&#45;&gt;Node10</title>
<path fill="none" stroke="#191970" d="M578.5313,-190.3906C562.6698,-180.7324 540.5823,-165.6812 525.3423,-154.271"/>
<polygon fill="#191970" stroke="#191970" points="527.3166,-151.3738 517.2593,-148.0419 523.0437,-156.9184 527.3166,-151.3738"/>
</g>
<!-- Node7&#45;&gt;Node11 -->
<g id="edge16" class="edge">
<title>Node7&#45;&gt;Node11</title>
<path fill="none" stroke="#191970" d="M629.625,-190.3906C669.1804,-179.6267 736.6189,-162.1642 783.5451,-150.5088"/>
<polygon fill="#191970" stroke="#191970" points="784.6565,-153.8395 793.5243,-148.0419 782.9766,-147.0441 784.6565,-153.8395"/>
</g>
<!-- Node7&#45;&gt;Node12 -->
<g id="edge19" class="edge">
<title>Node7&#45;&gt;Node12</title>
<path fill="none" stroke="#191970" d="M524.1448,-196.1011C431.8845,-190.3236 268.8036,-177.7174 125.8684,-155.1601"/>
<polygon fill="#191970" stroke="#191970" points="126.0407,-151.6432 115.6132,-153.5188 124.9343,-158.5553 126.0407,-151.6432"/>
</g>
<!-- Node7&#45;&gt;Node14 -->
<g id="edge23" class="edge">
<title>Node7&#45;&gt;Node14</title>
<path fill="none" stroke="#191970" d="M524.4127,-192.5621C457.2536,-184.8775 355,-171.7696 262.9979,-155.3424"/>
<polygon fill="#191970" stroke="#191970" points="263.4469,-151.8669 252.984,-153.5336 262.2026,-158.7554 263.4469,-151.8669"/>
</g>
<!-- Node7&#45;&gt;Node15 -->
<g id="edge27" class="edge">
<title>Node7&#45;&gt;Node15</title>
<path fill="none" stroke="#191970" d="M551.3352,-190.4581C502.8019,-179.6857 427.0689,-162.1428 378.5736,-150.4631"/>
<polygon fill="#191970" stroke="#191970" points="379.2009,-147.0139 368.6583,-148.0643 377.5548,-153.8177 379.2009,-147.0139"/>
</g>
<!-- Node7&#45;&gt;Node16 -->
<g id="edge29" class="edge">
<title>Node7&#45;&gt;Node16</title>
<path fill="none" stroke="#191970" d="M670.5122,-190.9809C731.8281,-183.0139 821.9387,-170.3925 909.9338,-154.0156"/>
<polygon fill="#191970" stroke="#191970" points="910.6378,-157.4447 919.8194,-152.158 909.345,-150.5651 910.6378,-157.4447"/>
</g>
<!-- Node7&#45;&gt;Node17 -->
<g id="edge30" class="edge">
<title>Node7&#45;&gt;Node17</title>
<path fill="none" stroke="#191970" d="M606.6563,-190.3906C617.3479,-182.0673 635.1382,-169.7389 651.4718,-159.1872"/>
<polygon fill="#191970" stroke="#191970" points="653.7829,-161.8652 660.3418,-153.5446 650.0257,-155.9589 653.7829,-161.8652"/>
</g>
<!-- Node9&#45;&gt;Node4 -->
<g id="edge11" class="edge">
<title>Node9&#45;&gt;Node4</title>
<path fill="none" stroke="#191970" d="M1214.1797,-148.0098C1204.1667,-163.7531 1174.7396,-194.9822 1142.5,-210 1051.8926,-252.2068 1018.8231,-228.0091 920.5,-246 918.0081,-246.456 915.472,-246.9286 912.9081,-247.4131"/>
<polygon fill="#191970" stroke="#191970" points="912.0774,-244.0085 902.9157,-249.3295 913.396,-250.8832 912.0774,-244.0085"/>
</g>
<!-- Node9&#45;&gt;Node5 -->
<g id="edge10" class="edge">
<title>Node9&#45;&gt;Node5</title>
<path fill="none" stroke="#191970" d="M1245.585,-128.9005C1281.1604,-117.1589 1341.5008,-97.2436 1380.9245,-84.2318"/>
<polygon fill="#191970" stroke="#191970" points="1382.0698,-87.5396 1390.469,-81.0817 1379.8759,-80.8923 1382.0698,-87.5396"/>
</g>
<!-- Node9&#45;&gt;Node7 -->
<g id="edge12" class="edge">
<title>Node9&#45;&gt;Node7</title>
<path fill="none" stroke="#191970" d="M1147.3504,-145.8235C1032.7156,-157.499 803.951,-180.2314 680.6826,-192.2"/>
<polygon fill="#191970" stroke="#191970" points="680.1569,-188.7345 670.5415,-193.1834 680.8326,-195.7018 680.1569,-188.7345"/>
</g>
<!-- Node9&#45;&gt;Node8 -->
<g id="edge13" class="edge">
<title>Node9&#45;&gt;Node8</title>
<path fill="none" stroke="#191970" d="M1216.3567,-128.9005C1216.2112,-119.149 1215.9815,-103.7597 1215.7966,-91.3695"/>
<polygon fill="#191970" stroke="#191970" points="1219.292,-91.0283 1215.643,-81.0817 1212.2927,-91.1328 1219.292,-91.0283"/>
</g>
<!-- Node10&#45;&gt;Node7 -->
<g id="edge15" class="edge">
<title>Node10&#45;&gt;Node7</title>
<path fill="none" stroke="#191970" d="M527.3579,-148.0419C543.1903,-157.6749 565.2792,-172.722 580.551,-184.1491"/>
<polygon fill="#191970" stroke="#191970" points="578.5977,-187.0624 588.6563,-190.3906 582.8686,-181.5163 578.5977,-187.0624"/>
</g>
<!-- Node11&#45;&gt;Node4 -->
<g id="edge17" class="edge">
<title>Node11&#45;&gt;Node4</title>
<path fill="none" stroke="#191970" d="M839.3257,-148.0493C842.5176,-166.8307 843.0965,-209.1173 841.0624,-236.4249"/>
<polygon fill="#191970" stroke="#191970" points="837.5746,-236.1319 840.1143,-246.4178 844.5433,-236.7931 837.5746,-236.1319"/>
</g>
<!-- Node11&#45;&gt;Node7 -->
<g id="edge18" class="edge">
<title>Node11&#45;&gt;Node7</title>
<path fill="none" stroke="#191970" d="M803.5407,-148.0643C764.0119,-158.8235 696.4596,-176.3162 649.4683,-187.9878"/>
<polygon fill="#191970" stroke="#191970" points="648.3435,-184.6605 639.4757,-190.4581 650.0234,-191.4559 648.3435,-184.6605"/>
</g>
<!-- Node12&#45;&gt;Node7 -->
<g id="edge20" class="edge">
<title>Node12&#45;&gt;Node7</title>
<path fill="none" stroke="#191970" d="M119.1773,-150.8021C125.0357,-151.9894 130.8825,-153.0886 136.5,-154 267.743,-175.2926 421.3156,-188.068 513.972,-194.5725"/>
<polygon fill="#191970" stroke="#191970" points="513.9127,-198.0767 524.1311,-195.2777 514.3975,-191.0935 513.9127,-198.0767"/>
</g>
<!-- Node13 -->
<g id="node14" class="node">
<title>Node13</title>
<g id="a_node14"><a xlink:href="$constraints_2basic_8h.html" xlink:title="Functions and data structures for constraining secondary structure predictions and evaluation.">
<polygon fill="none" stroke="#000000" points="137,-56.5 137,-86.5 256,-86.5 256,-56.5 137,-56.5"/>
<text text-anchor="start" x="145" y="-74.5" font-family="Helvetica,sans-Serif" font-size="10.00" fill="#000000">ViennaRNA/constraints</text>
<text text-anchor="middle" x="196.5" y="-63.5" font-family="Helvetica,sans-Serif" font-size="10.00" fill="#000000">/basic.h</text>
</a>
</g>
</g>
<!-- Node12&#45;&gt;Node13 -->
<g id="edge21" class="edge">
<title>Node12&#45;&gt;Node13</title>
<path fill="none" stroke="#191970" d="M90.2455,-123.4639C109.7624,-113.9191 135.2257,-101.4663 156.3325,-91.144"/>
<polygon fill="#191970" stroke="#191970" points="157.9375,-94.2552 165.3831,-86.7177 154.8622,-87.9669 157.9375,-94.2552"/>
</g>
<!-- Node13&#45;&gt;Node7 -->
<g id="edge22" class="edge">
<title>Node13&#45;&gt;Node7</title>
<path fill="none" stroke="#191970" d="M256.1215,-79.7983C297.856,-87.2117 354.0515,-100.4809 399.5,-123 419.3402,-132.8305 418.8256,-143.8418 438.5,-154 469.0107,-169.7531 505.6801,-180.8222 536.1115,-188.1479"/>
<polygon fill="#191970" stroke="#191970" points="535.6416,-191.632 546.1747,-190.4901 537.2285,-184.8142 535.6416,-191.632"/>
</g>
<!-- Node14&#45;&gt;Node4 -->
<g id="edge24" class="edge">
<title>Node14&#45;&gt;Node4</title>
<path fill="none" stroke="#191970" d="M248.9778,-153.5308C301.8653,-169.5803 385.6987,-194.7563 459.5,-210 562.0482,-231.1814 681.8394,-245.6148 758.2189,-253.6934"/>
<polygon fill="#191970" stroke="#191970" points="757.9284,-257.182 768.2387,-254.7431 758.6579,-250.2201 757.9284,-257.182"/>
</g>
<!-- Node14&#45;&gt;Node7 -->
<g id="edge25" class="edge">
<title>Node14&#45;&gt;Node7</title>
<path fill="none" stroke="#191970" d="M256.2157,-150.5795C262.067,-151.8076 267.9017,-152.9773 273.5,-154 354.9714,-168.8835 448.4433,-181.4012 514.0437,-189.6025"/>
<polygon fill="#191970" stroke="#191970" points="513.9712,-193.1204 524.3267,-190.8814 514.8352,-186.1739 513.9712,-193.1204"/>
</g>
<!-- Node14&#45;&gt;Node13 -->
<g id="edge26" class="edge">
<title>Node14&#45;&gt;Node13</title>
<path fill="none" stroke="#191970" d="M196.5,-123.2967C196.5,-115.5013 196.5,-105.7991 196.5,-96.9064"/>
<polygon fill="#191970" stroke="#191970" points="200.0001,-96.6431 196.5,-86.6432 193.0001,-96.6432 200.0001,-96.6431"/>
</g>
<!-- Node15&#45;&gt;Node7 -->
<g id="edge28" class="edge">
<title>Node15&#45;&gt;Node7</title>
<path fill="none" stroke="#191970" d="M378.7656,-148.0643C427.3366,-158.846 503.0695,-176.3895 551.5271,-188.0612"/>
<polygon fill="#191970" stroke="#191970" points="550.8911,-191.5082 561.4338,-190.4581 552.5373,-184.7045 550.8911,-191.5082"/>
</g>
<!-- Node17&#45;&gt;Node4 -->
<g id="edge31" class="edge">
<title>Node17&#45;&gt;Node4</title>
<path fill="none" stroke="#191970" d="M711.0483,-153.513C739.3493,-175.0185 787.0445,-214.7293 814.5666,-239.5384"/>
<polygon fill="#191970" stroke="#191970" points="812.3477,-242.252 822.0892,-246.4178 817.0717,-237.0864 812.3477,-242.252"/>
</g>
<!-- Node17&#45;&gt;Node7 -->
<g id="edge32" class="edge">
<title>Node17&#45;&gt;Node7</title>
<path fill="none" stroke="#191970" d="M672.136,-153.5446C659.0667,-163.1502 640.7111,-175.5508 625.3891,-185.1236"/>
<polygon fill="#191970" stroke="#191970" points="623.4844,-182.1858 616.7813,-190.3906 627.1379,-188.1567 623.4844,-182.1858"/>
</g>
<!-- Node17&#45;&gt;Node18 -->
<g id="edge33" class="edge">
<title>Node17&#45;&gt;Node18</title>
<path fill="none" stroke="#191970" d="M751.1837,-124.6309C753.9917,-124.0678 756.7738,-123.5215 759.5,-123 841.0077,-107.4084 935.0089,-92.3283 998.5546,-82.5597"/>
<polygon fill="#191970" stroke="#191970" points="999.1307,-86.0124 1008.4853,-81.0382 998.0705,-79.0931 999.1307,-86.0124"/>
</g>
<!-- Node18&#45;&gt;Node2 -->
<g id="edge34" class="edge">
<title>Node18&#45;&gt;Node2</title>
<path fill="none" stroke="#191970" d="M1090.9375,-61.8906C1110.3347,-51.7811 1141.069,-35.7628 1163.2617,-24.1962"/>
<polygon fill="#191970" stroke="#191970" points="1164.9418,-27.2675 1172.192,-19.5419 1161.7064,-21.06 1164.9418,-27.2675"/>
</g>
<!-- Node18&#45;&gt;Node4 -->
<g id="edge35" class="edge">
<title>Node18&#45;&gt;Node4</title>
<path fill="none" stroke="#191970" d="M1076.8286,-81.0462C1078.164,-97.7003 1071.3318,-132.3503 1052.5,-154 1014.0643,-198.187 953.0107,-226.6868 905.367,-243.1611"/>
<polygon fill="#191970" stroke="#191970" points="904.0905,-239.8975 895.7227,-246.3959 906.3166,-246.5341 904.0905,-239.8975"/>
</g>
<!-- Node19&#45;&gt;Node5 -->
<g id="edge46" class="edge">
<title>Node19&#45;&gt;Node5</title>
<path fill="none" stroke="#191970" d="M1416.7255,-190.3416C1417.2141,-169.4114 1418.3793,-119.504 1419.0336,-91.4762"/>
<polygon fill="#191970" stroke="#191970" points="1422.5374,-91.3495 1419.2719,-81.2705 1415.5394,-91.186 1422.5374,-91.3495"/>
</g>
</g>
</svg>
