<?xml version="1.0" encoding="UTF-8" standalone="no"?>
<!DOCTYPE svg PUBLIC "-//W3C//DTD SVG 1.1//EN"
 "http://www.w3.org/Graphics/SVG/1.1/DTD/svg11.dtd">
<!-- Generated by graphviz version 2.40.1 (0)
 -->
<!-- Title: ViennaRNA/io/file_formats.h Pages: 1 -->
<svg width="1365pt" height="341pt"
 viewBox="0.00 0.00 1365.41 341.00" xmlns="http://www.w3.org/2000/svg" xmlns:xlink="http://www.w3.org/1999/xlink">
<g id="graph0" class="graph" transform="scale(1 1) rotate(0) translate(4 337)">
<title>ViennaRNA/io/file_formats.h</title>
<!-- Node0 -->
<g id="node1" class="node">
<title>Node0</title>
<g id="a_node1"><a xlink:title="Read and write different file formats for RNA sequences, structures.">
<polygon fill="#bfbfbf" stroke="#000000" points="927,-313.5 927,-332.5 1069,-332.5 1069,-313.5 927,-313.5"/>
<text text-anchor="middle" x="998" y="-320.5" font-family="Helvetica,sans-Serif" font-size="10.00" fill="#000000">ViennaRNA/io/file_formats.h</text>
</a>
</g>
</g>
<!-- Node1 -->
<g id="node2" class="node">
<title>Node1</title>
<g id="a_node2"><a xlink:title=" ">
<polygon fill="none" stroke="#bfbfbf" points="630,-.5 630,-19.5 676,-19.5 676,-.5 630,-.5"/>
<text text-anchor="middle" x="653" y="-7.5" font-family="Helvetica,sans-Serif" font-size="10.00" fill="#000000">stdio.h</text>
</a>
</g>
</g>
<!-- Node0&#45;&gt;Node1 -->
<g id="edge1" class="edge">
<title>Node0&#45;&gt;Node1</title>
<path fill="none" stroke="#191970" d="M1067.6807,-313.4643C1171.5742,-297.2644 1355,-260.1464 1355,-200 1355,-200 1355,-200 1355,-138.5 1355,-100.8735 1364.6362,-80.4074 1336,-56 1311.0119,-34.7019 820.0939,-15.8925 686.3813,-11.1492"/>
<polygon fill="#191970" stroke="#191970" points="686.4373,-7.6491 676.3203,-10.795 686.1909,-14.6448 686.4373,-7.6491"/>
</g>
<!-- Node2 -->
<g id="node3" class="node">
<title>Node2</title>
<g id="a_node3"><a xlink:href="$datastructures_2basic_8h.html" xlink:title="Various data structures and pre&#45;processor macros.">
<polygon fill="none" stroke="#000000" points="574,-246.5 574,-276.5 708,-276.5 708,-246.5 574,-246.5"/>
<text text-anchor="start" x="582" y="-264.5" font-family="Helvetica,sans-Serif" font-size="10.00" fill="#000000">ViennaRNA/datastructures</text>
<text text-anchor="middle" x="641" y="-253.5" font-family="Helvetica,sans-Serif" font-size="10.00" fill="#000000">/basic.h</text>
</a>
</g>
</g>
<!-- Node0&#45;&gt;Node2 -->
<g id="edge2" class="edge">
<title>Node0&#45;&gt;Node2</title>
<path fill="none" stroke="#191970" d="M942.6105,-313.4581C882.4401,-303.0926 785.8809,-286.4585 718.2689,-274.811"/>
<polygon fill="#191970" stroke="#191970" points="718.5432,-271.3068 708.0941,-273.0582 717.3547,-278.2052 718.5432,-271.3068"/>
</g>
<!-- Node3 -->
<g id="node4" class="node">
<title>Node3</title>
<g id="a_node4"><a xlink:href="$constants_8h.html" xlink:title="Energy parameter constants.">
<polygon fill="none" stroke="#000000" points="1169,-62 1169,-81 1327,-81 1327,-62 1169,-62"/>
<text text-anchor="middle" x="1248" y="-69" font-family="Helvetica,sans-Serif" font-size="10.00" fill="#000000">ViennaRNA/params/constants.h</text>
</a>
</g>
</g>
<!-- Node2&#45;&gt;Node3 -->
<g id="edge3" class="edge">
<title>Node2&#45;&gt;Node3</title>
<path fill="none" stroke="#191970" d="M708.2998,-259.2809C835.0764,-254.4331 1104.4146,-240.7729 1192,-210 1234.6818,-195.0039 1255.5448,-193.8283 1277,-154 1288.4045,-132.8294 1274.5954,-106.2744 1262.4069,-89.102"/>
<polygon fill="#191970" stroke="#191970" points="1265.1459,-86.9212 1256.323,-81.0554 1259.5622,-91.1429 1265.1459,-86.9212"/>
</g>
<!-- Node5 -->
<g id="node6" class="node">
<title>Node5</title>
<g id="a_node6"><a xlink:href="$fold__compound_8h.html" xlink:title="The Basic Fold Compound API.">
<polygon fill="none" stroke="#000000" points="568,-190.5 568,-209.5 714,-209.5 714,-190.5 568,-190.5"/>
<text text-anchor="middle" x="641" y="-197.5" font-family="Helvetica,sans-Serif" font-size="10.00" fill="#000000">ViennaRNA/fold_compound.h</text>
</a>
</g>
</g>
<!-- Node2&#45;&gt;Node5 -->
<g id="edge5" class="edge">
<title>Node2&#45;&gt;Node5</title>
<path fill="none" stroke="#191970" d="M641,-246.2977C641,-238.3834 641,-228.6043 641,-220.0759"/>
<polygon fill="#191970" stroke="#191970" points="644.5001,-219.8469 641,-209.8469 637.5001,-219.847 644.5001,-219.8469"/>
</g>
<!-- Node6 -->
<g id="node7" class="node">
<title>Node6</title>
<g id="a_node7"><a xlink:href="$model_8h.html" xlink:title="The model details data structure and its corresponding modifiers.">
<polygon fill="none" stroke="#000000" points="1045,-62 1045,-81 1151,-81 1151,-62 1045,-62"/>
<text text-anchor="middle" x="1098" y="-69" font-family="Helvetica,sans-Serif" font-size="10.00" fill="#000000">ViennaRNA/model.h</text>
</a>
</g>
</g>
<!-- Node2&#45;&gt;Node6 -->
<g id="edge34" class="edge">
<title>Node2&#45;&gt;Node6</title>
<path fill="none" stroke="#191970" d="M708.183,-260.2606C853.5834,-256.0114 1190.0004,-237.204 1260,-154 1268.8698,-143.457 1268.1338,-134.1206 1260,-123 1253.0148,-113.4497 1191.2062,-95.6544 1146.0037,-83.6921"/>
<polygon fill="#191970" stroke="#191970" points="1146.6244,-80.2366 1136.0635,-81.0841 1144.8479,-87.0074 1146.6244,-80.2366"/>
</g>
<!-- Node7 -->
<g id="node8" class="node">
<title>Node7</title>
<g id="a_node8"><a xlink:href="$params_2basic_8h.html" xlink:title="Functions to deal with sets of energy parameters.">
<polygon fill="none" stroke="#000000" points="1113,-129 1113,-148 1251,-148 1251,-129 1113,-129"/>
<text text-anchor="middle" x="1182" y="-136" font-family="Helvetica,sans-Serif" font-size="10.00" fill="#000000">ViennaRNA/params/basic.h</text>
</a>
</g>
</g>
<!-- Node2&#45;&gt;Node7 -->
<g id="edge35" class="edge">
<title>Node2&#45;&gt;Node7</title>
<path fill="none" stroke="#191970" d="M702.4597,-246.4793C808.5791,-221.6709 1024.336,-172.6504 1126.3206,-150.2117"/>
<polygon fill="#191970" stroke="#191970" points="1127.105,-153.623 1136.1221,-148.0604 1125.6042,-146.7857 1127.105,-153.623"/>
</g>
<!-- Node9 -->
<g id="node10" class="node">
<title>Node9</title>
<g id="a_node10"><a xlink:href="$dp__matrices_8h.html" xlink:title="Functions to deal with standard dynamic programming (DP) matrices.">
<polygon fill="none" stroke="#000000" points="202.5,-129 202.5,-148 335.5,-148 335.5,-129 202.5,-129"/>
<text text-anchor="middle" x="269" y="-136" font-family="Helvetica,sans-Serif" font-size="10.00" fill="#000000">ViennaRNA/dp_matrices.h</text>
</a>
</g>
</g>
<!-- Node2&#45;&gt;Node9 -->
<g id="edge36" class="edge">
<title>Node2&#45;&gt;Node9</title>
<path fill="none" stroke="#191970" d="M590.7712,-246.4178C514.0163,-222.0109 369.7696,-174.2852 303.6072,-151.3749"/>
<polygon fill="#191970" stroke="#191970" points="304.6498,-148.0318 294.055,-148.0493 302.3482,-154.6426 304.6498,-148.0318"/>
</g>
<!-- Node10 -->
<g id="node11" class="node">
<title>Node10</title>
<g id="a_node11"><a xlink:href="$hard_8h.html" xlink:title="Functions and data structures for handling of secondary structure hard constraints.">
<polygon fill="none" stroke="#000000" points="707.5,-123.5 707.5,-153.5 826.5,-153.5 826.5,-123.5 707.5,-123.5"/>
<text text-anchor="start" x="715.5" y="-141.5" font-family="Helvetica,sans-Serif" font-size="10.00" fill="#000000">ViennaRNA/constraints</text>
<text text-anchor="middle" x="767" y="-130.5" font-family="Helvetica,sans-Serif" font-size="10.00" fill="#000000">/hard.h</text>
</a>
</g>
</g>
<!-- Node2&#45;&gt;Node10 -->
<g id="edge37" class="edge">
<title>Node2&#45;&gt;Node10</title>
<path fill="none" stroke="#191970" d="M672.2183,-246.3537C688.6301,-237.3528 708.3274,-224.8072 723,-210 736.6334,-196.2415 747.9692,-177.5001 755.7189,-162.6567"/>
<polygon fill="#191970" stroke="#191970" points="758.9281,-164.0648 760.2818,-153.5568 752.6707,-160.9271 758.9281,-164.0648"/>
</g>
<!-- Node12 -->
<g id="node13" class="node">
<title>Node12</title>
<g id="a_node13"><a xlink:href="$soft_8h.html" xlink:title="Functions and data structures for secondary structure soft constraints.">
<polygon fill="none" stroke="#000000" points="353.5,-123.5 353.5,-153.5 472.5,-153.5 472.5,-123.5 353.5,-123.5"/>
<text text-anchor="start" x="361.5" y="-141.5" font-family="Helvetica,sans-Serif" font-size="10.00" fill="#000000">ViennaRNA/constraints</text>
<text text-anchor="middle" x="413" y="-130.5" font-family="Helvetica,sans-Serif" font-size="10.00" fill="#000000">/soft.h</text>
</a>
</g>
</g>
<!-- Node2&#45;&gt;Node12 -->
<g id="edge38" class="edge">
<title>Node2&#45;&gt;Node12</title>
<path fill="none" stroke="#191970" d="M608.4285,-246.4178C564.8028,-224.3185 488.2263,-183.1015 444.9325,-158.4981"/>
<polygon fill="#191970" stroke="#191970" points="446.6406,-155.443 436.2231,-153.513 443.1633,-161.5183 446.6406,-155.443"/>
</g>
<!-- Node13 -->
<g id="node14" class="node">
<title>Node13</title>
<g id="a_node14"><a xlink:href="$grammar_8h.html" xlink:title="Implementations for the RNA folding grammar.">
<polygon fill="none" stroke="#000000" points="844.5,-129 844.5,-148 961.5,-148 961.5,-129 844.5,-129"/>
<text text-anchor="middle" x="903" y="-136" font-family="Helvetica,sans-Serif" font-size="10.00" fill="#000000">ViennaRNA/grammar.h</text>
</a>
</g>
</g>
<!-- Node2&#45;&gt;Node13 -->
<g id="edge39" class="edge">
<title>Node2&#45;&gt;Node13</title>
<path fill="none" stroke="#191970" d="M673.1263,-246.4178C724.3677,-222.3617 823.8623,-175.6524 873.4387,-152.378"/>
<polygon fill="#191970" stroke="#191970" points="875.0946,-155.4672 882.6593,-148.0493 872.1198,-149.1307 875.0946,-155.4672"/>
</g>
<!-- Node14 -->
<g id="node15" class="node">
<title>Node14</title>
<g id="a_node15"><a xlink:href="$structured__domains_8h.html" xlink:title="This module provides interfaces that deal with additional structured domains in the folding grammar.">
<polygon fill="none" stroke="#000000" points="979.5,-123.5 979.5,-153.5 1094.5,-153.5 1094.5,-123.5 979.5,-123.5"/>
<text text-anchor="start" x="987.5" y="-141.5" font-family="Helvetica,sans-Serif" font-size="10.00" fill="#000000">ViennaRNA/structured</text>
<text text-anchor="middle" x="1037" y="-130.5" font-family="Helvetica,sans-Serif" font-size="10.00" fill="#000000">_domains.h</text>
</a>
</g>
</g>
<!-- Node2&#45;&gt;Node14 -->
<g id="edge40" class="edge">
<title>Node2&#45;&gt;Node14</title>
<path fill="none" stroke="#191970" d="M689.5574,-246.4178C762.6412,-223.7175 900.6682,-180.8455 978.9578,-156.5283"/>
<polygon fill="#191970" stroke="#191970" points="980.1538,-159.8218 988.6655,-153.513 978.0773,-153.1369 980.1538,-159.8218"/>
</g>
<!-- Node15 -->
<g id="node16" class="node">
<title>Node15</title>
<g id="a_node16"><a xlink:href="$unstructured__domains_8h.html" xlink:title="Functions to modify unstructured domains, e.g. to incorporate ligands binding to unpaired stretches.">
<polygon fill="none" stroke="#000000" points="59.5,-123.5 59.5,-153.5 184.5,-153.5 184.5,-123.5 59.5,-123.5"/>
<text text-anchor="start" x="67.5" y="-141.5" font-family="Helvetica,sans-Serif" font-size="10.00" fill="#000000">ViennaRNA/unstructured</text>
<text text-anchor="middle" x="122" y="-130.5" font-family="Helvetica,sans-Serif" font-size="10.00" fill="#000000">_domains.h</text>
</a>
</g>
</g>
<!-- Node2&#45;&gt;Node15 -->
<g id="edge41" class="edge">
<title>Node2&#45;&gt;Node15</title>
<path fill="none" stroke="#191970" d="M573.812,-246.6633C474.8488,-223.8689 291.0216,-180.327 191.0228,-156.0168"/>
<polygon fill="#191970" stroke="#191970" points="191.5676,-152.5472 181.0234,-153.5817 189.9113,-159.3484 191.5676,-152.5472"/>
</g>
<!-- Node16 -->
<g id="node17" class="node">
<title>Node16</title>
<g id="a_node17"><a xlink:href="$utils_2structures_8h.html" xlink:title="Various utility&#45; and helper&#45;functions for secondary structure parsing, converting,...">
<polygon fill="none" stroke="#000000" points="0,-62 0,-81 144,-81 144,-62 0,-62"/>
<text text-anchor="middle" x="72" y="-69" font-family="Helvetica,sans-Serif" font-size="10.00" fill="#000000">ViennaRNA/utils/structures.h</text>
</a>
</g>
</g>
<!-- Node2&#45;&gt;Node16 -->
<g id="edge42" class="edge">
<title>Node2&#45;&gt;Node16</title>
<path fill="none" stroke="#191970" d="M573.9122,-259.8626C431.6468,-254.7882 107.6443,-234.3845 41,-154 25.6333,-135.4651 38.6216,-107.24 52.4689,-89.0818"/>
<polygon fill="#191970" stroke="#191970" points="55.4556,-90.9684 59.2152,-81.063 50.0992,-86.4619 55.4556,-90.9684"/>
</g>
<!-- Node4 -->
<g id="node5" class="node">
<title>Node4</title>
<g id="a_node5"><a xlink:title=" ">
<polygon fill="none" stroke="#bfbfbf" points="1224,-.5 1224,-19.5 1272,-19.5 1272,-.5 1224,-.5"/>
<text text-anchor="middle" x="1248" y="-7.5" font-family="Helvetica,sans-Serif" font-size="10.00" fill="#000000">limits.h</text>
</a>
</g>
</g>
<!-- Node3&#45;&gt;Node4 -->
<g id="edge4" class="edge">
<title>Node3&#45;&gt;Node4</title>
<path fill="none" stroke="#191970" d="M1248,-61.8906C1248,-53.3657 1248,-40.6392 1248,-29.9235"/>
<polygon fill="#191970" stroke="#191970" points="1251.5001,-29.7448 1248,-19.7449 1244.5001,-29.7449 1251.5001,-29.7448"/>
</g>
<!-- Node5&#45;&gt;Node6 -->
<g id="edge6" class="edge">
<title>Node5&#45;&gt;Node6</title>
<path fill="none" stroke="#191970" d="M645.0965,-190.4729C652.8779,-173.6583 671.5124,-138.9872 699,-123 754.6155,-90.6531 936.8239,-78.1915 1034.6171,-73.7465"/>
<polygon fill="#191970" stroke="#191970" points="1034.8366,-77.2404 1044.6731,-73.3042 1034.529,-70.2471 1034.8366,-77.2404"/>
</g>
<!-- Node5&#45;&gt;Node7 -->
<g id="edge7" class="edge">
<title>Node5&#45;&gt;Node7</title>
<path fill="none" stroke="#191970" d="M714.2805,-194.4424C804.2557,-187.4501 961.1684,-173.8975 1095,-154 1102.8641,-152.8308 1111.1371,-151.4033 1119.3395,-149.8929"/>
<polygon fill="#191970" stroke="#191970" points="1120.0979,-153.3116 1129.2773,-148.0212 1118.8023,-146.4326 1120.0979,-153.3116"/>
</g>
<!-- Node8 -->
<g id="node9" class="node">
<title>Node8</title>
<g id="a_node9"><a xlink:href="$sequence_8h.html" xlink:title="Functions and data structures related to sequence representations ,.">
<polygon fill="none" stroke="#000000" points="491,-129 491,-148 613,-148 613,-129 491,-129"/>
<text text-anchor="middle" x="552" y="-136" font-family="Helvetica,sans-Serif" font-size="10.00" fill="#000000">ViennaRNA/sequence.h</text>
</a>
</g>
</g>
<!-- Node5&#45;&gt;Node8 -->
<g id="edge12" class="edge">
<title>Node5&#45;&gt;Node8</title>
<path fill="none" stroke="#191970" d="M622.0313,-190.3906C606.1698,-180.7324 584.0823,-165.6812 568.8423,-154.271"/>
<polygon fill="#191970" stroke="#191970" points="570.8166,-151.3738 560.7593,-148.0419 566.5437,-156.9184 570.8166,-151.3738"/>
</g>
<!-- Node5&#45;&gt;Node9 -->
<g id="edge14" class="edge">
<title>Node5&#45;&gt;Node9</title>
<path fill="none" stroke="#191970" d="M567.7421,-190.7148C505.4889,-182.0298 414.073,-168.2851 335,-154 328.3189,-152.793 321.3191,-151.4508 314.4651,-150.0754"/>
<polygon fill="#191970" stroke="#191970" points="315.0808,-146.6289 304.5814,-148.0484 313.6744,-153.4862 315.0808,-146.6289"/>
</g>
<!-- Node5&#45;&gt;Node10 -->
<g id="edge17" class="edge">
<title>Node5&#45;&gt;Node10</title>
<path fill="none" stroke="#191970" d="M655.625,-190.3906C671.6964,-181.7205 697.9435,-168.7046 720.9772,-157.8779"/>
<polygon fill="#191970" stroke="#191970" points="722.6929,-160.9398 730.2798,-153.5446 719.7372,-154.5945 722.6929,-160.9398"/>
</g>
<!-- Node5&#45;&gt;Node12 -->
<g id="edge21" class="edge">
<title>Node5&#45;&gt;Node12</title>
<path fill="none" stroke="#191970" d="M600.5759,-190.4581C565.0471,-181.3568 513.0106,-167.4228 472.7122,-156.2748"/>
<polygon fill="#191970" stroke="#191970" points="473.5712,-152.881 462.9994,-153.5784 471.6987,-159.6259 473.5712,-152.881"/>
</g>
<!-- Node5&#45;&gt;Node13 -->
<g id="edge25" class="edge">
<title>Node5&#45;&gt;Node13</title>
<path fill="none" stroke="#191970" d="M676.6007,-190.4581C720.5604,-179.6406 795.5957,-161.9959 847.2071,-150.3168"/>
<polygon fill="#191970" stroke="#191970" points="848.2152,-153.6774 857.2009,-148.0643 846.676,-146.8487 848.2152,-153.6774"/>
</g>
<!-- Node5&#45;&gt;Node14 -->
<g id="edge27" class="edge">
<title>Node5&#45;&gt;Node14</title>
<path fill="none" stroke="#191970" d="M714.0603,-191.7762C778.8461,-184.0357 876.2144,-171.3101 969.5777,-154.1751"/>
<polygon fill="#191970" stroke="#191970" points="970.2794,-157.6048 979.4732,-152.3394 969.0025,-150.7222 970.2794,-157.6048"/>
</g>
<!-- Node5&#45;&gt;Node15 -->
<g id="edge28" class="edge">
<title>Node5&#45;&gt;Node15</title>
<path fill="none" stroke="#191970" d="M567.7266,-195.4794C479.2388,-189.1758 326.0447,-176.1466 191.087,-155.1017"/>
<polygon fill="#191970" stroke="#191970" points="191.4142,-151.61 180.9906,-153.5066 190.3219,-158.5243 191.4142,-151.61"/>
</g>
<!-- Node7&#45;&gt;Node2 -->
<g id="edge9" class="edge">
<title>Node7&#45;&gt;Node2</title>
<path fill="none" stroke="#191970" d="M1143.8439,-148.0447C1055.4675,-168.9455 835.7514,-218.9713 718.117,-245.0521"/>
<polygon fill="#191970" stroke="#191970" points="717.1044,-241.6914 708.0973,-247.2702 718.6174,-248.526 717.1044,-241.6914"/>
</g>
<!-- Node7&#45;&gt;Node3 -->
<g id="edge8" class="edge">
<title>Node7&#45;&gt;Node3</title>
<path fill="none" stroke="#191970" d="M1191.4562,-128.9005C1201.8463,-118.353 1218.7338,-101.2096 1231.3524,-88.3998"/>
<polygon fill="#191970" stroke="#191970" points="1234.037,-90.6619 1238.5614,-81.0817 1229.0502,-85.7495 1234.037,-90.6619"/>
</g>
<!-- Node7&#45;&gt;Node5 -->
<g id="edge10" class="edge">
<title>Node7&#45;&gt;Node5</title>
<path fill="none" stroke="#191970" d="M1146.7071,-148.0212C1135.9321,-150.1998 1124.0616,-152.3554 1113,-154 977.7062,-174.1149 818.8241,-187.7455 724.1464,-194.6693"/>
<polygon fill="#191970" stroke="#191970" points="723.7783,-191.1867 714.057,-195.3994 724.2836,-198.1684 723.7783,-191.1867"/>
</g>
<!-- Node7&#45;&gt;Node6 -->
<g id="edge11" class="edge">
<title>Node7&#45;&gt;Node6</title>
<path fill="none" stroke="#191970" d="M1169.9648,-128.9005C1156.3668,-118.0544 1134.0246,-100.2339 1117.8376,-87.3229"/>
<polygon fill="#191970" stroke="#191970" points="1120.0131,-84.5811 1110.0128,-81.0817 1115.6481,-90.0535 1120.0131,-84.5811"/>
</g>
<!-- Node8&#45;&gt;Node5 -->
<g id="edge13" class="edge">
<title>Node8&#45;&gt;Node5</title>
<path fill="none" stroke="#191970" d="M570.8579,-148.0419C586.6903,-157.6749 608.7792,-172.722 624.051,-184.1491"/>
<polygon fill="#191970" stroke="#191970" points="622.0977,-187.0624 632.1563,-190.3906 626.3686,-181.5163 622.0977,-187.0624"/>
</g>
<!-- Node9&#45;&gt;Node2 -->
<g id="edge15" class="edge">
<title>Node9&#45;&gt;Node2</title>
<path fill="none" stroke="#191970" d="M301.7064,-148.0493C366.8773,-168.4512 512.8501,-216.5895 590.4322,-243.1342"/>
<polygon fill="#191970" stroke="#191970" points="589.4051,-246.482 599.9998,-246.4178 591.6775,-239.8611 589.4051,-246.482"/>
</g>
<!-- Node9&#45;&gt;Node5 -->
<g id="edge16" class="edge">
<title>Node9&#45;&gt;Node5</title>
<path fill="none" stroke="#191970" d="M322.1105,-148.0484C332.4062,-150.1077 343.056,-152.2035 353,-154 426.8677,-167.3447 511.5067,-180.2179 569.8862,-188.9351"/>
<polygon fill="#191970" stroke="#191970" points="569.7029,-192.4464 580.1097,-190.4596 570.7353,-185.523 569.7029,-192.4464"/>
</g>
<!-- Node10&#45;&gt;Node5 -->
<g id="edge18" class="edge">
<title>Node10&#45;&gt;Node5</title>
<path fill="none" stroke="#191970" d="M742.074,-153.5446C722.8451,-163.5093 696.2156,-176.4819 675.0461,-186.185"/>
<polygon fill="#191970" stroke="#191970" points="673.4183,-183.0799 665.75,-190.3906 676.3037,-189.4576 673.4183,-183.0799"/>
</g>
<!-- Node11 -->
<g id="node12" class="node">
<title>Node11</title>
<g id="a_node12"><a xlink:href="$constraints_2basic_8h.html" xlink:title="Functions and data structures for constraining secondary structure predictions and evaluation.">
<polygon fill="none" stroke="#000000" points="581.5,-56.5 581.5,-86.5 700.5,-86.5 700.5,-56.5 581.5,-56.5"/>
<text text-anchor="start" x="589.5" y="-74.5" font-family="Helvetica,sans-Serif" font-size="10.00" fill="#000000">ViennaRNA/constraints</text>
<text text-anchor="middle" x="641" y="-63.5" font-family="Helvetica,sans-Serif" font-size="10.00" fill="#000000">/basic.h</text>
</a>
</g>
</g>
<!-- Node10&#45;&gt;Node11 -->
<g id="edge19" class="edge">
<title>Node10&#45;&gt;Node11</title>
<path fill="none" stroke="#191970" d="M738.7231,-123.4639C720.9343,-114.0047 697.7741,-101.6894 678.4657,-91.4222"/>
<polygon fill="#191970" stroke="#191970" points="680.091,-88.3225 669.6184,-86.7177 676.8045,-94.503 680.091,-88.3225"/>
</g>
<!-- Node11&#45;&gt;Node5 -->
<g id="edge20" class="edge">
<title>Node11&#45;&gt;Node5</title>
<path fill="none" stroke="#191970" d="M641,-86.7016C641,-109.9952 641,-154.5195 641,-180.2718"/>
<polygon fill="#191970" stroke="#191970" points="637.5001,-180.3416 641,-190.3416 644.5001,-180.3416 637.5001,-180.3416"/>
</g>
<!-- Node12&#45;&gt;Node2 -->
<g id="edge22" class="edge">
<title>Node12&#45;&gt;Node2</title>
<path fill="none" stroke="#191970" d="M445.4349,-153.513C488.9916,-175.5723 565.5683,-216.7866 608.9317,-241.4247"/>
<polygon fill="#191970" stroke="#191970" points="607.2392,-244.4888 617.657,-246.4178 610.716,-238.4132 607.2392,-244.4888"/>
</g>
<!-- Node12&#45;&gt;Node5 -->
<g id="edge23" class="edge">
<title>Node12&#45;&gt;Node5</title>
<path fill="none" stroke="#191970" d="M472.8727,-153.0746C513.1,-163.5736 564.9638,-177.5895 600.4383,-187.5627"/>
<polygon fill="#191970" stroke="#191970" points="599.8624,-191.037 610.4375,-190.3906 601.7675,-184.3012 599.8624,-191.037"/>
</g>
<!-- Node12&#45;&gt;Node11 -->
<g id="edge24" class="edge">
<title>Node12&#45;&gt;Node11</title>
<path fill="none" stroke="#191970" d="M464.1677,-123.4639C498.3705,-113.4131 543.5469,-100.1375 579.6756,-89.5208"/>
<polygon fill="#191970" stroke="#191970" points="581.0017,-92.7792 589.6092,-86.6017 579.028,-86.0631 581.0017,-92.7792"/>
</g>
<!-- Node13&#45;&gt;Node5 -->
<g id="edge26" class="edge">
<title>Node13&#45;&gt;Node5</title>
<path fill="none" stroke="#191970" d="M867.3083,-148.0643C823.3058,-158.8912 748.2653,-176.5365 696.6862,-188.2074"/>
<polygon fill="#191970" stroke="#191970" points="695.6851,-184.8451 686.6993,-190.4581 697.2242,-191.6738 695.6851,-184.8451"/>
</g>
<!-- Node15&#45;&gt;Node2 -->
<g id="edge29" class="edge">
<title>Node15&#45;&gt;Node2</title>
<path fill="none" stroke="#191970" d="M184.6874,-152.3009C282.6152,-174.8191 470.951,-219.42 572.389,-244.0834"/>
<polygon fill="#191970" stroke="#191970" points="571.6827,-247.5136 582.2269,-246.4793 573.3391,-240.7124 571.6827,-247.5136"/>
</g>
<!-- Node15&#45;&gt;Node5 -->
<g id="edge30" class="edge">
<title>Node15&#45;&gt;Node5</title>
<path fill="none" stroke="#191970" d="M184.7153,-150.9038C190.5646,-152.0427 196.3938,-153.1032 202,-154 325.4044,-173.7414 469.3576,-186.7635 557.9002,-193.761"/>
<polygon fill="#191970" stroke="#191970" points="557.6433,-197.2515 567.8861,-194.5433 558.19,-190.2729 557.6433,-197.2515"/>
</g>
<!-- Node15&#45;&gt;Node16 -->
<g id="edge31" class="edge">
<title>Node15&#45;&gt;Node16</title>
<path fill="none" stroke="#191970" d="M110.6542,-123.2967C103.0909,-113.1618 93.1224,-99.804 85.2031,-89.1921"/>
<polygon fill="#191970" stroke="#191970" points="87.9165,-86.976 79.1306,-81.055 82.3064,-91.1626 87.9165,-86.976"/>
</g>
<!-- Node16&#45;&gt;Node1 -->
<g id="edge32" class="edge">
<title>Node16&#45;&gt;Node1</title>
<path fill="none" stroke="#191970" d="M144.1168,-63.8663C270.6944,-50.4678 528.0965,-23.2213 619.7078,-13.524"/>
<polygon fill="#191970" stroke="#191970" points="620.2154,-16.99 629.7914,-12.4567 619.4785,-10.0288 620.2154,-16.99"/>
</g>
<!-- Node16&#45;&gt;Node2 -->
<g id="edge33" class="edge">
<title>Node16&#45;&gt;Node2</title>
<path fill="none" stroke="#191970" d="M69.9719,-81.063C61.6316,-97.7432 41.1188,-132.4321 59,-154 122.5792,-230.6875 420.388,-252.7845 563.6919,-259.0609"/>
<polygon fill="#191970" stroke="#191970" points="563.5983,-262.5599 573.7374,-259.486 563.8943,-255.5662 563.5983,-262.5599"/>
</g>
</g>
</svg>
