<?xml version="1.0" encoding="UTF-8" standalone="no"?>
<!DOCTYPE svg PUBLIC "-//W3C//DTD SVG 1.1//EN"
 "http://www.w3.org/Graphics/SVG/1.1/DTD/svg11.dtd">
<!-- Generated by graphviz version 2.40.1 (0)
 -->
<!-- Title: ViennaRNA/landscape/neighbor.h Pages: 1 -->
<svg width="242pt" height="95pt"
 viewBox="0.00 0.00 242.00 95.00" xmlns="http://www.w3.org/2000/svg" xmlns:xlink="http://www.w3.org/1999/xlink">
<g id="graph0" class="graph" transform="scale(1 1) rotate(0) translate(4 91)">
<title>ViennaRNA/landscape/neighbor.h</title>
<!-- Node18 -->
<g id="node1" class="node">
<title>Node18</title>
<g id="a_node1"><a xlink:title="Methods to compute the neighbors of an RNA secondary structure.">
<polygon fill="#bfbfbf" stroke="#000000" points="63,-56.5 63,-86.5 179,-86.5 179,-56.5 63,-56.5"/>
<text text-anchor="start" x="71" y="-74.5" font-family="Helvetica,sans-Serif" font-size="10.00" fill="#000000">ViennaRNA/landscape</text>
<text text-anchor="middle" x="121" y="-63.5" font-family="Helvetica,sans-Serif" font-size="10.00" fill="#000000">/neighbor.h</text>
</a>
</g>
</g>
<!-- Node19 -->
<g id="node2" class="node">
<title>Node19</title>
<g id="a_node2"><a xlink:href="$neighbor_8h.html" xlink:title="Use ViennaRNA/landscape/neighbor.h instead.">
<polygon fill="none" stroke="#000000" points="0,-.5 0,-19.5 116,-19.5 116,-.5 0,-.5"/>
<text text-anchor="middle" x="58" y="-7.5" font-family="Helvetica,sans-Serif" font-size="10.00" fill="#000000">ViennaRNA/neighbor.h</text>
</a>
</g>
</g>
<!-- Node18&#45;&gt;Node19 -->
<g id="edge1" class="edge">
<title>Node18&#45;&gt;Node19</title>
<path fill="none" stroke="#191970" d="M98.2135,-49.256C87.8802,-39.1688 76.1892,-27.7561 68.0871,-19.8469"/>
<polygon fill="#191970" stroke="#191970" points="95.8263,-51.8169 105.427,-56.2977 100.7161,-46.8078 95.8263,-51.8169"/>
</g>
<!-- Node20 -->
<g id="node3" class="node">
<title>Node20</title>
<g id="a_node3"><a xlink:href="$walk_8h.html" xlink:title="Use ViennaRNA/landscape/walk.h instead.">
<polygon fill="none" stroke="#000000" points="134,-.5 134,-19.5 234,-19.5 234,-.5 134,-.5"/>
<text text-anchor="middle" x="184" y="-7.5" font-family="Helvetica,sans-Serif" font-size="10.00" fill="#000000">ViennaRNA/walk.h</text>
</a>
</g>
</g>
<!-- Node18&#45;&gt;Node20 -->
<g id="edge2" class="edge">
<title>Node18&#45;&gt;Node20</title>
<path fill="none" stroke="#191970" d="M143.7865,-49.256C154.1198,-39.1688 165.8108,-27.7561 173.9129,-19.8469"/>
<polygon fill="#191970" stroke="#191970" points="141.2839,-46.8078 136.573,-56.2977 146.1737,-51.8169 141.2839,-46.8078"/>
</g>
</g>
</svg>
