<?xml version="1.0" encoding="UTF-8" standalone="no"?>
<!DOCTYPE svg PUBLIC "-//W3C//DTD SVG 1.1//EN"
 "http://www.w3.org/Graphics/SVG/1.1/DTD/svg11.dtd">
<!-- Generated by graphviz version 2.40.1 (0)
 -->
<!-- Title: ViennaRNA/loop_energies.h Pages: 1 -->
<svg width="1473pt" height="509pt"
 viewBox="0.00 0.00 1472.82 509.00" xmlns="http://www.w3.org/2000/svg" xmlns:xlink="http://www.w3.org/1999/xlink">
<g id="graph0" class="graph" transform="scale(1 1) rotate(0) translate(4 505)">
<title>ViennaRNA/loop_energies.h</title>
<!-- Node0 -->
<g id="node1" class="node">
<title>Node0</title>
<g id="a_node1"><a xlink:title="Use ViennaRNA/loops/all.h instead.">
<polygon fill="#bfbfbf" stroke="#000000" points="329.8177,-481.5 329.8177,-500.5 469.8177,-500.5 469.8177,-481.5 329.8177,-481.5"/>
<text text-anchor="middle" x="399.8177" y="-488.5" font-family="Helvetica,sans-Serif" font-size="10.00" fill="#000000">ViennaRNA/loop_energies.h</text>
</a>
</g>
</g>
<!-- Node1 -->
<g id="node2" class="node">
<title>Node1</title>
<g id="a_node2"><a xlink:href="$all_8h.html" xlink:title="Energy evaluation for MFE and partition function calculations.">
<polygon fill="none" stroke="#000000" points="341.8177,-425.5 341.8177,-444.5 457.8177,-444.5 457.8177,-425.5 341.8177,-425.5"/>
<text text-anchor="middle" x="399.8177" y="-432.5" font-family="Helvetica,sans-Serif" font-size="10.00" fill="#000000">ViennaRNA/loops/all.h</text>
</a>
</g>
</g>
<!-- Node0&#45;&gt;Node1 -->
<g id="edge1" class="edge">
<title>Node0&#45;&gt;Node1</title>
<path fill="none" stroke="#191970" d="M399.8177,-481.2455C399.8177,-473.9382 399.8177,-463.6944 399.8177,-454.7046"/>
<polygon fill="#191970" stroke="#191970" points="403.3178,-454.6426 399.8177,-444.6427 396.3178,-454.6427 403.3178,-454.6426"/>
</g>
<!-- Node2 -->
<g id="node3" class="node">
<title>Node2</title>
<g id="a_node3"><a xlink:href="$external_8h.html" xlink:title="Energy evaluation of exterior loops for MFE and partition function calculations.">
<polygon fill="none" stroke="#000000" points="23.8177,-313.5 23.8177,-332.5 163.8177,-332.5 163.8177,-313.5 23.8177,-313.5"/>
<text text-anchor="middle" x="93.8177" y="-320.5" font-family="Helvetica,sans-Serif" font-size="10.00" fill="#000000">ViennaRNA/loops/external.h</text>
</a>
</g>
</g>
<!-- Node1&#45;&gt;Node2 -->
<g id="edge2" class="edge">
<title>Node1&#45;&gt;Node2</title>
<path fill="none" stroke="#191970" d="M362.2542,-425.4905C330.1634,-417.0124 282.9577,-403.6976 242.8177,-389 200.0921,-373.3557 152.2459,-351.3207 122.5738,-337.0983"/>
<polygon fill="#191970" stroke="#191970" points="123.7689,-333.7888 113.2415,-332.595 120.7267,-340.0932 123.7689,-333.7888"/>
</g>
<!-- Node19 -->
<g id="node20" class="node">
<title>Node19</title>
<g id="a_node20"><a xlink:href="$hairpin_8h.html" xlink:title="Energy evaluation of hairpin loops for MFE and partition function calculations.">
<polygon fill="none" stroke="#000000" points="251.8177,-369.5 251.8177,-388.5 385.8177,-388.5 385.8177,-369.5 251.8177,-369.5"/>
<text text-anchor="middle" x="318.8177" y="-376.5" font-family="Helvetica,sans-Serif" font-size="10.00" fill="#000000">ViennaRNA/loops/hairpin.h</text>
</a>
</g>
</g>
<!-- Node1&#45;&gt;Node19 -->
<g id="edge46" class="edge">
<title>Node1&#45;&gt;Node19</title>
<path fill="none" stroke="#191970" d="M385.7086,-425.2455C373.3968,-416.7337 355.3219,-404.2375 341.0639,-394.3801"/>
<polygon fill="#191970" stroke="#191970" points="342.9811,-391.4506 332.7651,-388.6427 339.0003,-397.2085 342.9811,-391.4506"/>
</g>
<!-- Node24 -->
<g id="node25" class="node">
<title>Node24</title>
<g id="a_node25"><a xlink:href="$internal_8h.html" xlink:title="Energy evaluation of interior loops for MFE and partition function calculations.">
<polygon fill="none" stroke="#000000" points="623.3177,-369.5 623.3177,-388.5 760.3177,-388.5 760.3177,-369.5 623.3177,-369.5"/>
<text text-anchor="middle" x="691.8177" y="-376.5" font-family="Helvetica,sans-Serif" font-size="10.00" fill="#000000">ViennaRNA/loops/internal.h</text>
</a>
</g>
</g>
<!-- Node1&#45;&gt;Node24 -->
<g id="edge56" class="edge">
<title>Node1&#45;&gt;Node24</title>
<path fill="none" stroke="#191970" d="M449.6825,-425.4369C500.181,-415.7522 578.3012,-400.7703 632.0782,-390.4569"/>
<polygon fill="#191970" stroke="#191970" points="632.9968,-393.8446 642.1585,-388.5237 631.6783,-386.9699 632.9968,-393.8446"/>
</g>
<!-- Node26 -->
<g id="node27" class="node">
<title>Node26</title>
<g id="a_node27"><a xlink:href="$multibranch_8h.html" xlink:title="Energy evaluation of multibranch loops for MFE and partition function calculations.">
<polygon fill="none" stroke="#000000" points="403.8177,-369.5 403.8177,-388.5 559.8177,-388.5 559.8177,-369.5 403.8177,-369.5"/>
<text text-anchor="middle" x="481.8177" y="-376.5" font-family="Helvetica,sans-Serif" font-size="10.00" fill="#000000">ViennaRNA/loops/multibranch.h</text>
</a>
</g>
</g>
<!-- Node1&#45;&gt;Node26 -->
<g id="edge65" class="edge">
<title>Node1&#45;&gt;Node26</title>
<path fill="none" stroke="#191970" d="M414.101,-425.2455C426.5647,-416.7337 444.8628,-404.2375 459.2968,-394.3801"/>
<polygon fill="#191970" stroke="#191970" points="461.4139,-397.1726 467.6981,-388.6427 457.4661,-391.392 461.4139,-397.1726"/>
</g>
<!-- Node3 -->
<g id="node4" class="node">
<title>Node3</title>
<g id="a_node4"><a xlink:href="$datastructures_2basic_8h.html" xlink:title="Various data structures and pre&#45;processor macros.">
<polygon fill="none" stroke="#000000" points="437.8177,-246.5 437.8177,-276.5 571.8177,-276.5 571.8177,-246.5 437.8177,-246.5"/>
<text text-anchor="start" x="445.8177" y="-264.5" font-family="Helvetica,sans-Serif" font-size="10.00" fill="#000000">ViennaRNA/datastructures</text>
<text text-anchor="middle" x="504.8177" y="-253.5" font-family="Helvetica,sans-Serif" font-size="10.00" fill="#000000">/basic.h</text>
</a>
</g>
</g>
<!-- Node2&#45;&gt;Node3 -->
<g id="edge3" class="edge">
<title>Node2&#45;&gt;Node3</title>
<path fill="none" stroke="#191970" d="M157.5855,-313.4581C230.305,-302.5767 349.1913,-284.7872 427.2264,-273.1104"/>
<polygon fill="#191970" stroke="#191970" points="428.1104,-276.5171 437.4823,-271.5757 427.0744,-269.5942 428.1104,-276.5171"/>
</g>
<!-- Node6 -->
<g id="node7" class="node">
<title>Node6</title>
<g id="a_node7"><a xlink:href="$fold__compound_8h.html" xlink:title="The Basic Fold Compound API.">
<polygon fill="none" stroke="#000000" points="611.8177,-190.5 611.8177,-209.5 757.8177,-209.5 757.8177,-190.5 611.8177,-190.5"/>
<text text-anchor="middle" x="684.8177" y="-197.5" font-family="Helvetica,sans-Serif" font-size="10.00" fill="#000000">ViennaRNA/fold_compound.h</text>
</a>
</g>
</g>
<!-- Node2&#45;&gt;Node6 -->
<g id="edge44" class="edge">
<title>Node2&#45;&gt;Node6</title>
<path fill="none" stroke="#191970" d="M115.8249,-313.3719C154.4896,-296.8719 237.478,-263.302 310.8177,-246 409.2294,-222.7831 525.1378,-210.833 601.5428,-205.0078"/>
<polygon fill="#191970" stroke="#191970" points="601.8775,-208.4927 611.59,-204.2598 601.3577,-201.512 601.8775,-208.4927"/>
</g>
<!-- Node8 -->
<g id="node9" class="node">
<title>Node8</title>
<g id="a_node9"><a xlink:href="$params_2basic_8h.html" xlink:title="Functions to deal with sets of energy parameters.">
<polygon fill="none" stroke="#000000" points="59.8177,-129 59.8177,-148 197.8177,-148 197.8177,-129 59.8177,-129"/>
<text text-anchor="middle" x="128.8177" y="-136" font-family="Helvetica,sans-Serif" font-size="10.00" fill="#000000">ViennaRNA/params/basic.h</text>
</a>
</g>
</g>
<!-- Node2&#45;&gt;Node8 -->
<g id="edge45" class="edge">
<title>Node2&#45;&gt;Node8</title>
<path fill="none" stroke="#191970" d="M95.6502,-313.3402C101.1667,-284.26 117.6943,-197.136 125.1263,-157.959"/>
<polygon fill="#191970" stroke="#191970" points="128.5782,-158.5413 127.0033,-148.0641 121.7008,-157.2366 128.5782,-158.5413"/>
</g>
<!-- Node4 -->
<g id="node5" class="node">
<title>Node4</title>
<g id="a_node5"><a xlink:href="$constants_8h.html" xlink:title="Energy parameter constants.">
<polygon fill="none" stroke="#000000" points="173.8177,-62 173.8177,-81 331.8177,-81 331.8177,-62 173.8177,-62"/>
<text text-anchor="middle" x="252.8177" y="-69" font-family="Helvetica,sans-Serif" font-size="10.00" fill="#000000">ViennaRNA/params/constants.h</text>
</a>
</g>
</g>
<!-- Node3&#45;&gt;Node4 -->
<g id="edge4" class="edge">
<title>Node3&#45;&gt;Node4</title>
<path fill="none" stroke="#191970" d="M466.9031,-246.392C395.7651,-217.9605 249.0912,-158.903 245.8177,-154 233.274,-135.2124 238.7693,-108.4007 244.8828,-90.4971"/>
<polygon fill="#191970" stroke="#191970" points="248.1679,-91.7049 248.4222,-81.1131 241.6183,-89.2346 248.1679,-91.7049"/>
</g>
<!-- Node3&#45;&gt;Node6 -->
<g id="edge6" class="edge">
<title>Node3&#45;&gt;Node6</title>
<path fill="none" stroke="#191970" d="M548.8506,-246.4554C579.0158,-236.149 618.5985,-222.6249 647.2707,-212.8286"/>
<polygon fill="#191970" stroke="#191970" points="648.5928,-216.0756 656.9241,-209.5303 646.3295,-209.4515 648.5928,-216.0756"/>
</g>
<!-- Node7 -->
<g id="node8" class="node">
<title>Node7</title>
<g id="a_node8"><a xlink:href="$model_8h.html" xlink:title="The model details data structure and its corresponding modifiers.">
<polygon fill="none" stroke="#000000" points="49.8177,-62 49.8177,-81 155.8177,-81 155.8177,-62 49.8177,-62"/>
<text text-anchor="middle" x="102.8177" y="-69" font-family="Helvetica,sans-Serif" font-size="10.00" fill="#000000">ViennaRNA/model.h</text>
</a>
</g>
</g>
<!-- Node3&#45;&gt;Node7 -->
<g id="edge35" class="edge">
<title>Node3&#45;&gt;Node7</title>
<path fill="none" stroke="#191970" d="M437.4425,-255.693C322.8294,-244.2536 97.7285,-214.4843 50.8177,-154 33.7797,-132.0322 59.9924,-104.3035 80.9819,-87.2422"/>
<polygon fill="#191970" stroke="#191970" points="83.202,-89.9496 88.9511,-81.0502 78.9071,-84.422 83.202,-89.9496"/>
</g>
<!-- Node3&#45;&gt;Node8 -->
<g id="edge36" class="edge">
<title>Node3&#45;&gt;Node8</title>
<path fill="none" stroke="#191970" d="M442.5309,-246.4264C406.3672,-236.5687 360.2417,-223.1276 319.8177,-210 261.7937,-191.1568 195.2349,-166.8061 157.8369,-151.9368"/>
<polygon fill="#191970" stroke="#191970" points="158.6767,-148.5015 148.0934,-148.0067 156.0581,-154.9933 158.6767,-148.5015"/>
</g>
<!-- Node10 -->
<g id="node11" class="node">
<title>Node10</title>
<g id="a_node11"><a xlink:href="$dp__matrices_8h.html" xlink:title="Functions to deal with standard dynamic programming (DP) matrices.">
<polygon fill="none" stroke="#000000" points="387.3177,-129 387.3177,-148 520.3177,-148 520.3177,-129 387.3177,-129"/>
<text text-anchor="middle" x="453.8177" y="-136" font-family="Helvetica,sans-Serif" font-size="10.00" fill="#000000">ViennaRNA/dp_matrices.h</text>
</a>
</g>
</g>
<!-- Node3&#45;&gt;Node10 -->
<g id="edge37" class="edge">
<title>Node3&#45;&gt;Node10</title>
<path fill="none" stroke="#191970" d="M493.9498,-246.4178C482.0439,-224.1659 464.6226,-182.5314 456.8104,-157.9908"/>
<polygon fill="#191970" stroke="#191970" points="460.0789,-156.6924 453.9514,-148.0493 453.3516,-158.6271 460.0789,-156.6924"/>
</g>
<!-- Node11 -->
<g id="node12" class="node">
<title>Node11</title>
<g id="a_node12"><a xlink:href="$hard_8h.html" xlink:title="Functions and data structures for handling of secondary structure hard constraints.">
<polygon fill="none" stroke="#000000" points="1027.3177,-123.5 1027.3177,-153.5 1146.3177,-153.5 1146.3177,-123.5 1027.3177,-123.5"/>
<text text-anchor="start" x="1035.3177" y="-141.5" font-family="Helvetica,sans-Serif" font-size="10.00" fill="#000000">ViennaRNA/constraints</text>
<text text-anchor="middle" x="1086.8177" y="-130.5" font-family="Helvetica,sans-Serif" font-size="10.00" fill="#000000">/hard.h</text>
</a>
</g>
</g>
<!-- Node3&#45;&gt;Node11 -->
<g id="edge38" class="edge">
<title>Node3&#45;&gt;Node11</title>
<path fill="none" stroke="#191970" d="M571.9193,-247.6237C574.9242,-247.0626 577.9009,-246.5186 580.8177,-246 685.714,-227.3488 713.5128,-231.7165 817.8177,-210 890.4121,-194.8857 972.6287,-172.2013 1026.8495,-156.4524"/>
<polygon fill="#191970" stroke="#191970" points="1028.02,-159.7569 1036.6393,-153.5959 1026.0592,-153.0371 1028.02,-159.7569"/>
</g>
<!-- Node13 -->
<g id="node14" class="node">
<title>Node13</title>
<g id="a_node14"><a xlink:href="$soft_8h.html" xlink:title="Functions and data structures for secondary structure soft constraints.">
<polygon fill="none" stroke="#000000" points="890.3177,-123.5 890.3177,-153.5 1009.3177,-153.5 1009.3177,-123.5 890.3177,-123.5"/>
<text text-anchor="start" x="898.3177" y="-141.5" font-family="Helvetica,sans-Serif" font-size="10.00" fill="#000000">ViennaRNA/constraints</text>
<text text-anchor="middle" x="949.8177" y="-130.5" font-family="Helvetica,sans-Serif" font-size="10.00" fill="#000000">/soft.h</text>
</a>
</g>
</g>
<!-- Node3&#45;&gt;Node13 -->
<g id="edge39" class="edge">
<title>Node3&#45;&gt;Node13</title>
<path fill="none" stroke="#191970" d="M569.4273,-246.4757C570.2282,-246.3161 571.0252,-246.1575 571.8177,-246 654.4033,-229.5867 676.9387,-233.4173 757.8177,-210 807.3528,-195.6578 862.2062,-173.3182 900.6731,-157.4295"/>
<polygon fill="#191970" stroke="#191970" points="902.1824,-160.5929 910.0866,-153.5378 899.508,-154.124 902.1824,-160.5929"/>
</g>
<!-- Node14 -->
<g id="node15" class="node">
<title>Node14</title>
<g id="a_node15"><a xlink:href="$grammar_8h.html" xlink:title="Implementations for the RNA folding grammar.">
<polygon fill="none" stroke="#000000" points="538.3177,-129 538.3177,-148 655.3177,-148 655.3177,-129 538.3177,-129"/>
<text text-anchor="middle" x="596.8177" y="-136" font-family="Helvetica,sans-Serif" font-size="10.00" fill="#000000">ViennaRNA/grammar.h</text>
</a>
</g>
</g>
<!-- Node3&#45;&gt;Node14 -->
<g id="edge40" class="edge">
<title>Node3&#45;&gt;Node14</title>
<path fill="none" stroke="#191970" d="M516.0987,-246.4178C533.1172,-223.6648 565.2937,-180.6461 583.4597,-156.3591"/>
<polygon fill="#191970" stroke="#191970" points="586.4883,-158.1534 589.6751,-148.0493 580.8828,-153.9607 586.4883,-158.1534"/>
</g>
<!-- Node15 -->
<g id="node16" class="node">
<title>Node15</title>
<g id="a_node16"><a xlink:href="$structured__domains_8h.html" xlink:title="This module provides interfaces that deal with additional structured domains in the folding grammar.">
<polygon fill="none" stroke="#000000" points="254.3177,-123.5 254.3177,-153.5 369.3177,-153.5 369.3177,-123.5 254.3177,-123.5"/>
<text text-anchor="start" x="262.3177" y="-141.5" font-family="Helvetica,sans-Serif" font-size="10.00" fill="#000000">ViennaRNA/structured</text>
<text text-anchor="middle" x="311.8177" y="-130.5" font-family="Helvetica,sans-Serif" font-size="10.00" fill="#000000">_domains.h</text>
</a>
</g>
</g>
<!-- Node3&#45;&gt;Node15 -->
<g id="edge41" class="edge">
<title>Node3&#45;&gt;Node15</title>
<path fill="none" stroke="#191970" d="M481.1521,-246.4178C446.7662,-224.5035 382.8825,-183.79 344.1714,-159.1192"/>
<polygon fill="#191970" stroke="#191970" points="345.6887,-155.9359 335.3747,-153.513 341.9266,-161.839 345.6887,-155.9359"/>
</g>
<!-- Node16 -->
<g id="node17" class="node">
<title>Node16</title>
<g id="a_node17"><a xlink:href="$unstructured__domains_8h.html" xlink:title="Functions to modify unstructured domains, e.g. to incorporate ligands binding to unpaired stretches.">
<polygon fill="none" stroke="#000000" points="1164.3177,-123.5 1164.3177,-153.5 1289.3177,-153.5 1289.3177,-123.5 1164.3177,-123.5"/>
<text text-anchor="start" x="1172.3177" y="-141.5" font-family="Helvetica,sans-Serif" font-size="10.00" fill="#000000">ViennaRNA/unstructured</text>
<text text-anchor="middle" x="1226.8177" y="-130.5" font-family="Helvetica,sans-Serif" font-size="10.00" fill="#000000">_domains.h</text>
</a>
</g>
</g>
<!-- Node3&#45;&gt;Node16 -->
<g id="edge42" class="edge">
<title>Node3&#45;&gt;Node16</title>
<path fill="none" stroke="#191970" d="M569.0103,-246.466C569.9512,-246.3076 570.8874,-246.1522 571.8177,-246 700.4278,-224.9629 734.1399,-230.6189 862.8177,-210 989.8499,-189.6448 1020.854,-180.1657 1146.8177,-154 1149.1628,-153.5129 1151.5506,-153.0127 1153.9655,-152.5042"/>
<polygon fill="#191970" stroke="#191970" points="1154.9477,-155.8739 1164.0058,-150.3783 1153.4976,-149.0257 1154.9477,-155.8739"/>
</g>
<!-- Node17 -->
<g id="node18" class="node">
<title>Node17</title>
<g id="a_node18"><a xlink:href="$utils_2structures_8h.html" xlink:title="Various utility&#45; and helper&#45;functions for secondary structure parsing, converting,...">
<polygon fill="none" stroke="#000000" points="1292.8177,-62 1292.8177,-81 1436.8177,-81 1436.8177,-62 1292.8177,-62"/>
<text text-anchor="middle" x="1364.8177" y="-69" font-family="Helvetica,sans-Serif" font-size="10.00" fill="#000000">ViennaRNA/utils/structures.h</text>
</a>
</g>
</g>
<!-- Node3&#45;&gt;Node17 -->
<g id="edge43" class="edge">
<title>Node3&#45;&gt;Node17</title>
<path fill="none" stroke="#191970" d="M568.6007,-246.4958C569.6795,-246.3257 570.7524,-246.1603 571.8177,-246 889.9563,-198.1289 1011.8062,-315.9055 1289.8177,-154 1316.0896,-138.7 1336.009,-108.6279 1349.2313,-89.3262"/>
<polygon fill="#191970" stroke="#191970" points="1352.1443,-91.268 1355.0082,-81.0676 1346.4083,-87.2557 1352.1443,-91.268"/>
</g>
<!-- Node5 -->
<g id="node6" class="node">
<title>Node5</title>
<g id="a_node6"><a xlink:title=" ">
<polygon fill="none" stroke="#bfbfbf" points="228.8177,-.5 228.8177,-19.5 276.8177,-19.5 276.8177,-.5 228.8177,-.5"/>
<text text-anchor="middle" x="252.8177" y="-7.5" font-family="Helvetica,sans-Serif" font-size="10.00" fill="#000000">limits.h</text>
</a>
</g>
</g>
<!-- Node4&#45;&gt;Node5 -->
<g id="edge5" class="edge">
<title>Node4&#45;&gt;Node5</title>
<path fill="none" stroke="#191970" d="M252.8177,-61.8906C252.8177,-53.3657 252.8177,-40.6392 252.8177,-29.9235"/>
<polygon fill="#191970" stroke="#191970" points="256.3178,-29.7448 252.8177,-19.7449 249.3178,-29.7449 256.3178,-29.7448"/>
</g>
<!-- Node6&#45;&gt;Node7 -->
<g id="edge7" class="edge">
<title>Node6&#45;&gt;Node7</title>
<path fill="none" stroke="#191970" d="M685.5474,-190.3701C686.2198,-173.712 684.8791,-139.702 664.8177,-123 622.0117,-87.362 219.8195,-95.7874 164.8177,-87 158.8517,-86.0468 152.6185,-84.7979 146.5019,-83.4221"/>
<polygon fill="#191970" stroke="#191970" points="146.924,-79.9249 136.3855,-81.0168 145.3047,-86.7351 146.924,-79.9249"/>
</g>
<!-- Node6&#45;&gt;Node8 -->
<g id="edge8" class="edge">
<title>Node6&#45;&gt;Node8</title>
<path fill="none" stroke="#191970" d="M611.5951,-193.5535C522.6681,-185.1327 368.4692,-169.615 236.8177,-154 224.8159,-152.5765 212.1335,-150.9861 199.8313,-149.3813"/>
<polygon fill="#191970" stroke="#191970" points="199.982,-145.8709 189.6102,-148.0332 199.0666,-152.8108 199.982,-145.8709"/>
</g>
<!-- Node9 -->
<g id="node10" class="node">
<title>Node9</title>
<g id="a_node10"><a xlink:href="$sequence_8h.html" xlink:title="Functions and data structures related to sequence representations ,.">
<polygon fill="none" stroke="#000000" points="711.8177,-129 711.8177,-148 833.8177,-148 833.8177,-129 711.8177,-129"/>
<text text-anchor="middle" x="772.8177" y="-136" font-family="Helvetica,sans-Serif" font-size="10.00" fill="#000000">ViennaRNA/sequence.h</text>
</a>
</g>
</g>
<!-- Node6&#45;&gt;Node9 -->
<g id="edge13" class="edge">
<title>Node6&#45;&gt;Node9</title>
<path fill="none" stroke="#191970" d="M693.5052,-190.3906C705.6636,-180.5519 727.468,-165.1167 745.2532,-153.6351"/>
<polygon fill="#191970" stroke="#191970" points="747.5265,-156.3391 754.1149,-148.0419 743.7903,-150.4195 747.5265,-156.3391"/>
</g>
<!-- Node6&#45;&gt;Node10 -->
<g id="edge15" class="edge">
<title>Node6&#45;&gt;Node10</title>
<path fill="none" stroke="#191970" d="M643.9281,-190.4581C601.7066,-179.7759 536.4193,-162.436 494.3379,-150.7575"/>
<polygon fill="#191970" stroke="#191970" points="495.2612,-147.3815 484.6884,-148.0643 493.3793,-154.1238 495.2612,-147.3815"/>
</g>
<!-- Node6&#45;&gt;Node11 -->
<g id="edge18" class="edge">
<title>Node6&#45;&gt;Node11</title>
<path fill="none" stroke="#191970" d="M757.9021,-190.9371C823.9521,-182.8013 923.5876,-169.7347 1009.8177,-154 1012.267,-153.5531 1014.7616,-153.0779 1017.283,-152.582"/>
<polygon fill="#191970" stroke="#191970" points="1018.0023,-156.0074 1027.1024,-150.5818 1016.605,-149.1483 1018.0023,-156.0074"/>
</g>
<!-- Node6&#45;&gt;Node13 -->
<g id="edge22" class="edge">
<title>Node6&#45;&gt;Node13</title>
<path fill="none" stroke="#191970" d="M720.8839,-190.4581C761.729,-180.5263 829.0503,-164.8394 880.1853,-153.2983"/>
<polygon fill="#191970" stroke="#191970" points="881.1962,-156.6584 890.1838,-151.0483 879.6594,-149.8292 881.1962,-156.6584"/>
</g>
<!-- Node6&#45;&gt;Node14 -->
<g id="edge26" class="edge">
<title>Node6&#45;&gt;Node14</title>
<path fill="none" stroke="#191970" d="M666.0052,-190.3906C650.3926,-180.7889 628.7132,-165.8571 613.6683,-154.4716"/>
<polygon fill="#191970" stroke="#191970" points="615.713,-151.6278 605.6728,-148.2449 611.412,-157.1506 615.713,-151.6278"/>
</g>
<!-- Node6&#45;&gt;Node15 -->
<g id="edge28" class="edge">
<title>Node6&#45;&gt;Node15</title>
<path fill="none" stroke="#191970" d="M611.5894,-190.6288C551.7346,-182.5927 464.7236,-170.0554 379.3611,-154.0159"/>
<polygon fill="#191970" stroke="#191970" points="379.9777,-150.5705 369.5006,-152.1459 378.6733,-157.448 379.9777,-150.5705"/>
</g>
<!-- Node6&#45;&gt;Node16 -->
<g id="edge29" class="edge">
<title>Node6&#45;&gt;Node16</title>
<path fill="none" stroke="#191970" d="M757.9142,-195.0972C849.2808,-188.6458 1010.0625,-175.5291 1146.8177,-154 1149.1837,-153.6275 1151.5893,-153.225 1154.0193,-152.7991"/>
<polygon fill="#191970" stroke="#191970" points="1154.9108,-156.1936 1164.1069,-150.9322 1153.6369,-149.3105 1154.9108,-156.1936"/>
</g>
<!-- Node8&#45;&gt;Node3 -->
<g id="edge10" class="edge">
<title>Node8&#45;&gt;Node3</title>
<path fill="none" stroke="#191970" d="M159.7315,-148.0067C200.6442,-162.1787 274.3385,-189.3853 337.8177,-210 374.4519,-221.8969 415.7688,-234.0513 448.2102,-243.5627"/>
<polygon fill="#191970" stroke="#191970" points="447.3974,-246.9716 457.9782,-246.4264 449.3668,-240.2544 447.3974,-246.9716"/>
</g>
<!-- Node8&#45;&gt;Node4 -->
<g id="edge9" class="edge">
<title>Node8&#45;&gt;Node4</title>
<path fill="none" stroke="#191970" d="M146.5839,-128.9005C167.3939,-117.6564 202.0765,-98.9166 226.1264,-85.9219"/>
<polygon fill="#191970" stroke="#191970" points="227.9504,-88.9147 235.0845,-81.0817 224.6228,-82.7561 227.9504,-88.9147"/>
</g>
<!-- Node8&#45;&gt;Node6 -->
<g id="edge11" class="edge">
<title>Node8&#45;&gt;Node6</title>
<path fill="none" stroke="#191970" d="M198.1123,-146.8599C216.6078,-149.2674 236.5051,-151.828 254.8177,-154 375.416,-168.304 514.9347,-182.5263 601.5984,-191.2866"/>
<polygon fill="#191970" stroke="#191970" points="601.3382,-194.778 611.6394,-192.3011 602.042,-187.8135 601.3382,-194.778"/>
</g>
<!-- Node8&#45;&gt;Node7 -->
<g id="edge12" class="edge">
<title>Node8&#45;&gt;Node7</title>
<path fill="none" stroke="#191970" d="M125.0925,-128.9005C121.2311,-118.95 115.0917,-103.1292 110.2353,-90.6147"/>
<polygon fill="#191970" stroke="#191970" points="113.4167,-89.1381 106.5359,-81.0817 106.8908,-91.6706 113.4167,-89.1381"/>
</g>
<!-- Node9&#45;&gt;Node6 -->
<g id="edge14" class="edge">
<title>Node9&#45;&gt;Node6</title>
<path fill="none" stroke="#191970" d="M763.9626,-148.2449C751.7877,-158.0768 730.1412,-173.3968 712.4499,-184.8212"/>
<polygon fill="#191970" stroke="#191970" points="710.2167,-182.0919 703.6302,-190.3906 713.9543,-188.0106 710.2167,-182.0919"/>
</g>
<!-- Node10&#45;&gt;Node3 -->
<g id="edge16" class="edge">
<title>Node10&#45;&gt;Node3</title>
<path fill="none" stroke="#191970" d="M461.6028,-148.0493C472.6307,-166.9138 490.855,-209.492 500.1059,-236.7865"/>
<polygon fill="#191970" stroke="#191970" points="496.8046,-237.9545 503.1783,-246.4178 503.4735,-235.8271 496.8046,-237.9545"/>
</g>
<!-- Node10&#45;&gt;Node6 -->
<g id="edge17" class="edge">
<title>Node10&#45;&gt;Node6</title>
<path fill="none" stroke="#191970" d="M494.7073,-148.0419C536.8739,-158.7103 602.0463,-176.0189 644.1331,-187.6969"/>
<polygon fill="#191970" stroke="#191970" points="643.2137,-191.074 653.7864,-190.3906 645.0952,-184.3315 643.2137,-191.074"/>
</g>
<!-- Node11&#45;&gt;Node6 -->
<g id="edge19" class="edge">
<title>Node11&#45;&gt;Node6</title>
<path fill="none" stroke="#191970" d="M1030.3338,-153.534C1029.4906,-153.6924 1028.6515,-153.8479 1027.8177,-154 939.8669,-170.0487 837.9703,-183.3217 768.1655,-191.4183"/>
<polygon fill="#191970" stroke="#191970" points="767.6396,-187.9556 758.1048,-192.575 768.4392,-194.9098 767.6396,-187.9556"/>
</g>
<!-- Node12 -->
<g id="node13" class="node">
<title>Node12</title>
<g id="a_node13"><a xlink:href="$constraints_2basic_8h.html" xlink:title="Functions and data structures for constraining secondary structure predictions and evaluation.">
<polygon fill="none" stroke="#000000" points="890.3177,-56.5 890.3177,-86.5 1009.3177,-86.5 1009.3177,-56.5 890.3177,-56.5"/>
<text text-anchor="start" x="898.3177" y="-74.5" font-family="Helvetica,sans-Serif" font-size="10.00" fill="#000000">ViennaRNA/constraints</text>
<text text-anchor="middle" x="949.8177" y="-63.5" font-family="Helvetica,sans-Serif" font-size="10.00" fill="#000000">/basic.h</text>
</a>
</g>
</g>
<!-- Node11&#45;&gt;Node12 -->
<g id="edge20" class="edge">
<title>Node11&#45;&gt;Node12</title>
<path fill="none" stroke="#191970" d="M1056.0722,-123.4639C1036.5553,-113.9191 1011.092,-101.4663 989.9852,-91.144"/>
<polygon fill="#191970" stroke="#191970" points="991.4555,-87.9669 980.9345,-86.7177 988.3802,-94.2552 991.4555,-87.9669"/>
</g>
<!-- Node12&#45;&gt;Node6 -->
<g id="edge21" class="edge">
<title>Node12&#45;&gt;Node6</title>
<path fill="none" stroke="#191970" d="M929.49,-86.7003C915.9267,-96.8901 897.7298,-110.6531 881.8177,-123 864.3242,-136.5739 862.4835,-143.8252 842.8177,-154 812.4972,-169.6873 776.0583,-180.752 745.8187,-188.0917"/>
<polygon fill="#191970" stroke="#191970" points="744.7543,-184.7464 735.8189,-190.4393 746.3542,-191.5611 744.7543,-184.7464"/>
</g>
<!-- Node13&#45;&gt;Node3 -->
<g id="edge23" class="edge">
<title>Node13&#45;&gt;Node3</title>
<path fill="none" stroke="#191970" d="M923.3541,-153.5378C889.5416,-169.4743 829.5507,-194.4424 775.8177,-210 694.9387,-233.4173 672.4033,-229.5867 589.8177,-246 587.1844,-246.5233 584.5003,-247.0592 581.785,-247.6024"/>
<polygon fill="#191970" stroke="#191970" points="580.9697,-244.1961 571.8522,-249.5925 582.3449,-251.0597 580.9697,-244.1961"/>
</g>
<!-- Node13&#45;&gt;Node6 -->
<g id="edge24" class="edge">
<title>Node13&#45;&gt;Node6</title>
<path fill="none" stroke="#191970" d="M890.7467,-153.5784C845.9883,-164.2601 784.972,-178.385 740.9457,-188.2372"/>
<polygon fill="#191970" stroke="#191970" points="739.9814,-184.8662 730.9825,-190.4581 741.5044,-191.6985 739.9814,-184.8662"/>
</g>
<!-- Node13&#45;&gt;Node12 -->
<g id="edge25" class="edge">
<title>Node13&#45;&gt;Node12</title>
<path fill="none" stroke="#191970" d="M949.8177,-123.2967C949.8177,-115.5013 949.8177,-105.7991 949.8177,-96.9064"/>
<polygon fill="#191970" stroke="#191970" points="953.3178,-96.6431 949.8177,-86.6432 946.3178,-96.6432 953.3178,-96.6431"/>
</g>
<!-- Node14&#45;&gt;Node6 -->
<g id="edge27" class="edge">
<title>Node14&#45;&gt;Node6</title>
<path fill="none" stroke="#191970" d="M615.5204,-148.0419C631.1962,-157.6749 653.0404,-172.722 668.1264,-184.1491"/>
<polygon fill="#191970" stroke="#191970" points="666.0921,-187.0011 676.1302,-190.3906 670.3968,-181.4811 666.0921,-187.0011"/>
</g>
<!-- Node16&#45;&gt;Node3 -->
<g id="edge30" class="edge">
<title>Node16&#45;&gt;Node3</title>
<path fill="none" stroke="#191970" d="M1167.0533,-153.5344C1166.3043,-153.6908 1165.5589,-153.846 1164.8177,-154 1038.854,-180.1657 1007.8499,-189.6448 880.8177,-210 752.1399,-230.6189 718.4278,-224.9629 589.8177,-246 587.3176,-246.4089 584.7746,-246.8415 582.2048,-247.292"/>
<polygon fill="#191970" stroke="#191970" points="581.4102,-243.8789 572.1947,-249.1063 582.6586,-250.7666 581.4102,-243.8789"/>
</g>
<!-- Node16&#45;&gt;Node6 -->
<g id="edge31" class="edge">
<title>Node16&#45;&gt;Node6</title>
<path fill="none" stroke="#191970" d="M1167.8282,-153.5136C1166.8188,-153.6807 1165.8147,-153.843 1164.8177,-154 1026.8015,-175.7276 864.3136,-188.887 768.1284,-195.2739"/>
<polygon fill="#191970" stroke="#191970" points="767.6325,-191.7988 757.8827,-195.9452 768.0902,-198.7838 767.6325,-191.7988"/>
</g>
<!-- Node16&#45;&gt;Node17 -->
<g id="edge32" class="edge">
<title>Node16&#45;&gt;Node17</title>
<path fill="none" stroke="#191970" d="M1257.7876,-123.4639C1281.1508,-112.1209 1312.9736,-96.6707 1335.8371,-85.5703"/>
<polygon fill="#191970" stroke="#191970" points="1337.5693,-88.62 1345.0365,-81.1039 1334.512,-82.323 1337.5693,-88.62"/>
</g>
<!-- Node17&#45;&gt;Node3 -->
<g id="edge34" class="edge">
<title>Node17&#45;&gt;Node3</title>
<path fill="none" stroke="#191970" d="M1365.4144,-81.0676C1360.159,-98.7322 1338.2503,-136.277 1307.8177,-154 1029.8062,-315.9055 907.9563,-198.1289 589.8177,-246 587.3126,-246.3769 584.7652,-246.7822 582.1918,-247.2096"/>
<polygon fill="#191970" stroke="#191970" points="581.4222,-243.7908 572.1709,-248.9544 582.6231,-250.6871 581.4222,-243.7908"/>
</g>
<!-- Node18 -->
<g id="node19" class="node">
<title>Node18</title>
<g id="a_node19"><a xlink:title=" ">
<polygon fill="none" stroke="#bfbfbf" points="1391.8177,-.5 1391.8177,-19.5 1437.8177,-19.5 1437.8177,-.5 1391.8177,-.5"/>
<text text-anchor="middle" x="1414.8177" y="-7.5" font-family="Helvetica,sans-Serif" font-size="10.00" fill="#000000">stdio.h</text>
</a>
</g>
</g>
<!-- Node17&#45;&gt;Node18 -->
<g id="edge33" class="edge">
<title>Node17&#45;&gt;Node18</title>
<path fill="none" stroke="#191970" d="M1372.6302,-61.8906C1380.0717,-52.7376 1391.4511,-38.7409 1400.5169,-27.59"/>
<polygon fill="#191970" stroke="#191970" points="1403.3024,-29.712 1406.895,-19.7449 1397.871,-25.2962 1403.3024,-29.712"/>
</g>
<!-- Node19&#45;&gt;Node3 -->
<g id="edge53" class="edge">
<title>Node19&#45;&gt;Node3</title>
<path fill="none" stroke="#191970" d="M334.0388,-369.3845C364.1257,-350.378 431.7978,-307.6282 472.3412,-282.0161"/>
<polygon fill="#191970" stroke="#191970" points="474.4615,-284.8165 481.0466,-276.5167 470.7229,-278.8985 474.4615,-284.8165"/>
</g>
<!-- Node19&#45;&gt;Node6 -->
<g id="edge54" class="edge">
<title>Node19&#45;&gt;Node6</title>
<path fill="none" stroke="#191970" d="M323.6678,-369.3249C336.7714,-344.2844 375.5214,-277.1398 428.8177,-246 457.6385,-229.1606 538.5496,-216.4294 601.7744,-208.6775"/>
<polygon fill="#191970" stroke="#191970" points="602.2487,-212.1457 611.7591,-207.4762 601.4125,-205.1958 602.2487,-212.1457"/>
</g>
<!-- Node19&#45;&gt;Node8 -->
<g id="edge55" class="edge">
<title>Node19&#45;&gt;Node8</title>
<path fill="none" stroke="#191970" d="M251.7107,-373.4493C166.9035,-365.7429 30.0673,-350.7307 14.8177,-333 -36.013,-273.8992 61.2469,-189.0343 106.9388,-154.2649"/>
<polygon fill="#191970" stroke="#191970" points="109.1594,-156.9749 115.0772,-148.1868 104.9707,-151.3664 109.1594,-156.9749"/>
</g>
<!-- Node20 -->
<g id="node21" class="node">
<title>Node20</title>
<g id="a_node21"><a xlink:title=" ">
<polygon fill="none" stroke="#bfbfbf" points="182.3177,-313.5 182.3177,-332.5 229.3177,-332.5 229.3177,-313.5 182.3177,-313.5"/>
<text text-anchor="middle" x="205.8177" y="-320.5" font-family="Helvetica,sans-Serif" font-size="10.00" fill="#000000">math.h</text>
</a>
</g>
</g>
<!-- Node19&#45;&gt;Node20 -->
<g id="edge47" class="edge">
<title>Node19&#45;&gt;Node20</title>
<path fill="none" stroke="#191970" d="M299.3923,-369.3733C281.4155,-360.4644 254.4736,-347.1127 234.1086,-337.0203"/>
<polygon fill="#191970" stroke="#191970" points="235.5038,-333.8055 224.9896,-332.5011 232.3955,-340.0776 235.5038,-333.8055"/>
</g>
<!-- Node21 -->
<g id="node22" class="node">
<title>Node21</title>
<g id="a_node22"><a xlink:title=" ">
<polygon fill="none" stroke="#bfbfbf" points="247.3177,-313.5 247.3177,-332.5 296.3177,-332.5 296.3177,-313.5 247.3177,-313.5"/>
<text text-anchor="middle" x="271.8177" y="-320.5" font-family="Helvetica,sans-Serif" font-size="10.00" fill="#000000">string.h</text>
</a>
</g>
</g>
<!-- Node19&#45;&gt;Node21 -->
<g id="edge48" class="edge">
<title>Node19&#45;&gt;Node21</title>
<path fill="none" stroke="#191970" d="M310.6309,-369.2455C303.9588,-361.2958 294.3698,-349.8706 286.3924,-340.3656"/>
<polygon fill="#191970" stroke="#191970" points="289.0203,-338.0524 279.9106,-332.6427 283.6585,-342.5525 289.0203,-338.0524"/>
</g>
<!-- Node22 -->
<g id="node23" class="node">
<title>Node22</title>
<g id="a_node23"><a xlink:href="$utils_2basic_8h.html" xlink:title="General utility&#45; and helper&#45;functions used throughout the ViennaRNA Package.">
<polygon fill="none" stroke="#000000" points="542.8177,-313.5 542.8177,-332.5 666.8177,-332.5 666.8177,-313.5 542.8177,-313.5"/>
<text text-anchor="middle" x="604.8177" y="-320.5" font-family="Helvetica,sans-Serif" font-size="10.00" fill="#000000">ViennaRNA/utils/basic.h</text>
</a>
</g>
</g>
<!-- Node19&#45;&gt;Node22 -->
<g id="edge49" class="edge">
<title>Node19&#45;&gt;Node22</title>
<path fill="none" stroke="#191970" d="M367.6579,-369.4369C417.1187,-359.7522 493.6337,-344.7703 546.3057,-334.4569"/>
<polygon fill="#191970" stroke="#191970" points="547.0379,-337.8801 556.1789,-332.5237 545.6927,-331.0105 547.0379,-337.8801"/>
</g>
<!-- Node22&#45;&gt;Node3 -->
<g id="edge52" class="edge">
<title>Node22&#45;&gt;Node3</title>
<path fill="none" stroke="#191970" d="M589.1927,-313.3906C575.5336,-304.9903 555.2409,-292.5103 537.9795,-281.8945"/>
<polygon fill="#191970" stroke="#191970" points="539.632,-278.8019 529.2804,-276.5446 535.965,-284.7646 539.632,-278.8019"/>
</g>
<!-- Node22&#45;&gt;Node18 -->
<g id="edge50" class="edge">
<title>Node22&#45;&gt;Node18</title>
<path fill="none" stroke="#191970" d="M667.0127,-320.6555C864.5588,-312.3911 1464.8177,-280.6442 1464.8177,-200 1464.8177,-200 1464.8177,-200 1464.8177,-138.5 1464.8177,-100.8735 1460.8049,-90.5128 1445.8177,-56 1441.4795,-46.01 1434.9243,-35.8691 1428.9575,-27.6603"/>
<polygon fill="#191970" stroke="#191970" points="1431.6806,-25.4589 1422.8466,-19.6098 1426.1049,-29.6912 1431.6806,-25.4589"/>
</g>
<!-- Node23 -->
<g id="node24" class="node">
<title>Node23</title>
<g id="a_node24"><a xlink:title=" ">
<polygon fill="none" stroke="#bfbfbf" points="589.8177,-252 589.8177,-271 641.8177,-271 641.8177,-252 589.8177,-252"/>
<text text-anchor="middle" x="615.8177" y="-259" font-family="Helvetica,sans-Serif" font-size="10.00" fill="#000000">stdarg.h</text>
</a>
</g>
</g>
<!-- Node22&#45;&gt;Node23 -->
<g id="edge51" class="edge">
<title>Node22&#45;&gt;Node23</title>
<path fill="none" stroke="#191970" d="M606.5364,-313.3906C608.0612,-304.8657 610.3375,-292.1392 612.2541,-281.4235"/>
<polygon fill="#191970" stroke="#191970" points="615.7593,-281.7049 614.0747,-271.2449 608.8686,-280.4724 615.7593,-281.7049"/>
</g>
<!-- Node24&#45;&gt;Node3 -->
<g id="edge60" class="edge">
<title>Node24&#45;&gt;Node3</title>
<path fill="none" stroke="#191970" d="M641.9615,-369.4276C601.9216,-360.8616 549.8277,-347.4548 533.8177,-333 520.4884,-320.9656 513.1667,-301.9272 509.2159,-286.521"/>
<polygon fill="#191970" stroke="#191970" points="512.5874,-285.5597 506.9869,-276.5661 505.7566,-287.0892 512.5874,-285.5597"/>
</g>
<!-- Node24&#45;&gt;Node6 -->
<g id="edge61" class="edge">
<title>Node24&#45;&gt;Node6</title>
<path fill="none" stroke="#191970" d="M696.5026,-369.4115C700.6779,-360.2959 706.4791,-346.0744 708.8177,-333 715.626,-294.9374 718.0255,-283.5543 708.8177,-246 706.4434,-236.3164 701.6355,-226.4071 696.9424,-218.2776"/>
<polygon fill="#191970" stroke="#191970" points="699.8649,-216.3486 691.6385,-209.672 693.9058,-220.0214 699.8649,-216.3486"/>
</g>
<!-- Node24&#45;&gt;Node8 -->
<g id="edge62" class="edge">
<title>Node24&#45;&gt;Node8</title>
<path fill="none" stroke="#191970" d="M644.0281,-369.4302C607.9251,-361.5211 557.475,-349.0055 514.8177,-333 400.3702,-290.0582 377.2651,-266.4037 268.8177,-210 252.2335,-201.3746 248.4018,-198.6254 231.8177,-190 207.0121,-177.0986 178.5697,-162.9236 157.867,-152.7167"/>
<polygon fill="#191970" stroke="#191970" points="159.1764,-149.4603 148.6584,-148.1867 156.0865,-155.7415 159.1764,-149.4603"/>
</g>
<!-- Node24&#45;&gt;Node11 -->
<g id="edge63" class="edge">
<title>Node24&#45;&gt;Node11</title>
<path fill="none" stroke="#191970" d="M707.7914,-369.2742C766.5784,-333.4811 971.6972,-208.5924 1053.1272,-159.0128"/>
<polygon fill="#191970" stroke="#191970" points="1055.2542,-161.8155 1061.9754,-153.6255 1051.6138,-155.8365 1055.2542,-161.8155"/>
</g>
<!-- Node24&#45;&gt;Node13 -->
<g id="edge64" class="edge">
<title>Node24&#45;&gt;Node13</title>
<path fill="none" stroke="#191970" d="M702.2511,-369.2742C740.2593,-333.8442 871.9173,-211.1164 926.1692,-160.5444"/>
<polygon fill="#191970" stroke="#191970" points="928.6633,-163.0043 933.5916,-153.6255 923.8902,-157.884 928.6633,-163.0043"/>
</g>
<!-- Node24&#45;&gt;Node22 -->
<g id="edge57" class="edge">
<title>Node24&#45;&gt;Node22</title>
<path fill="none" stroke="#191970" d="M676.6634,-369.2455C663.315,-360.6534 643.6591,-348.0014 628.2794,-338.1018"/>
<polygon fill="#191970" stroke="#191970" points="630.1013,-335.1121 619.7983,-332.6427 626.3125,-340.9982 630.1013,-335.1121"/>
</g>
<!-- Node25 -->
<g id="node26" class="node">
<title>Node25</title>
<g id="a_node26"><a xlink:href="$default_8h_source.html" xlink:title=" ">
<polygon fill="none" stroke="#000000" points="1292.8177,-190.5 1292.8177,-209.5 1436.8177,-209.5 1436.8177,-190.5 1292.8177,-190.5"/>
<text text-anchor="middle" x="1364.8177" y="-197.5" font-family="Helvetica,sans-Serif" font-size="10.00" fill="#000000">ViennaRNA/params/default.h</text>
</a>
</g>
</g>
<!-- Node24&#45;&gt;Node25 -->
<g id="edge58" class="edge">
<title>Node24&#45;&gt;Node25</title>
<path fill="none" stroke="#191970" d="M760.4862,-376.4035C835.6548,-372.1981 959.1554,-361.2641 1061.8177,-333 1169.0086,-303.4891 1287.294,-242.5892 1338.6418,-214.6234"/>
<polygon fill="#191970" stroke="#191970" points="1340.6322,-217.5235 1347.7148,-209.6439 1337.2643,-211.387 1340.6322,-217.5235"/>
</g>
<!-- Node25&#45;&gt;Node4 -->
<g id="edge59" class="edge">
<title>Node25&#45;&gt;Node4</title>
<path fill="none" stroke="#191970" d="M1360.054,-190.4909C1350.8916,-173.3778 1329.0151,-137.7993 1298.8177,-123 1256.2155,-102.1214 587.5693,-81.0489 342.2043,-73.9817"/>
<polygon fill="#191970" stroke="#191970" points="341.9928,-70.4743 331.8964,-73.6859 341.7919,-77.4714 341.9928,-70.4743"/>
</g>
<!-- Node26&#45;&gt;Node3 -->
<g id="edge67" class="edge">
<title>Node26&#45;&gt;Node3</title>
<path fill="none" stroke="#191970" d="M483.6999,-369.3845C487.2076,-351.4644 494.8469,-312.4375 499.9107,-286.5681"/>
<polygon fill="#191970" stroke="#191970" points="503.3533,-287.2004 501.8396,-276.7143 496.4837,-285.8557 503.3533,-287.2004"/>
</g>
<!-- Node26&#45;&gt;Node6 -->
<g id="edge68" class="edge">
<title>Node26&#45;&gt;Node6</title>
<path fill="none" stroke="#191970" d="M559.9672,-369.9531C607.0009,-362.7768 660.6323,-350.9276 675.8177,-333 702.7565,-301.1966 696.247,-248.3183 690.0183,-219.7567"/>
<polygon fill="#191970" stroke="#191970" points="693.3611,-218.6862 687.6316,-209.7742 686.553,-220.3139 693.3611,-218.6862"/>
</g>
<!-- Node26&#45;&gt;Node8 -->
<g id="edge69" class="edge">
<title>Node26&#45;&gt;Node8</title>
<path fill="none" stroke="#191970" d="M467.5425,-369.2742C413.0918,-332.1769 218.1646,-199.3724 151.4227,-153.9008"/>
<polygon fill="#191970" stroke="#191970" points="153.1187,-150.8213 142.8838,-148.0833 149.1774,-156.6063 153.1187,-150.8213"/>
</g>
<!-- Node26&#45;&gt;Node22 -->
<g id="edge66" class="edge">
<title>Node26&#45;&gt;Node22</title>
<path fill="none" stroke="#191970" d="M502.9621,-369.3733C522.7068,-360.3838 552.3875,-346.8706 574.6232,-336.7471"/>
<polygon fill="#191970" stroke="#191970" points="576.2983,-339.8302 583.9491,-332.5011 573.3977,-333.4594 576.2983,-339.8302"/>
</g>
</g>
</svg>
