<?xml version="1.0" encoding="UTF-8" standalone="no"?>
<!DOCTYPE svg PUBLIC "-//W3C//DTD SVG 1.1//EN"
 "http://www.w3.org/Graphics/SVG/1.1/DTD/svg11.dtd">
<!-- Generated by graphviz version 2.40.1 (0)
 -->
<!-- Title: ViennaRNA/LPfold.h Pages: 1 -->
<svg width="1434pt" height="408pt"
 viewBox="0.00 0.00 1434.00 408.00" xmlns="http://www.w3.org/2000/svg" xmlns:xlink="http://www.w3.org/1999/xlink">
<g id="graph0" class="graph" transform="scale(1 1) rotate(0) translate(4 404)">
<title>ViennaRNA/LPfold.h</title>
<!-- Node0 -->
<g id="node1" class="node">
<title>Node0</title>
<g id="a_node1"><a xlink:title="Partition function and equilibrium probability implementation for the sliding window algorithm.">
<polygon fill="#bfbfbf" stroke="#000000" points="521,-380.5 521,-399.5 629,-399.5 629,-380.5 521,-380.5"/>
<text text-anchor="middle" x="575" y="-387.5" font-family="Helvetica,sans-Serif" font-size="10.00" fill="#000000">ViennaRNA/LPfold.h</text>
</a>
</g>
</g>
<!-- Node1 -->
<g id="node2" class="node">
<title>Node1</title>
<g id="a_node2"><a xlink:title=" ">
<polygon fill="none" stroke="#bfbfbf" points="27,-.5 27,-19.5 73,-19.5 73,-.5 27,-.5"/>
<text text-anchor="middle" x="50" y="-7.5" font-family="Helvetica,sans-Serif" font-size="10.00" fill="#000000">stdio.h</text>
</a>
</g>
</g>
<!-- Node0&#45;&gt;Node1 -->
<g id="edge1" class="edge">
<title>Node0&#45;&gt;Node1</title>
<path fill="none" stroke="#191970" d="M520.9054,-383.6246C377.7671,-366.0284 0,-314.5623 0,-261.5 0,-261.5 0,-261.5 0,-138.5 0,-100.8735 4.0128,-90.5128 19,-56 23.3382,-46.01 29.8934,-35.8691 35.8602,-27.6603"/>
<polygon fill="#191970" stroke="#191970" points="38.7127,-29.6912 41.9711,-19.6098 33.1371,-25.4589 38.7127,-29.6912"/>
</g>
<!-- Node2 -->
<g id="node3" class="node">
<title>Node2</title>
<g id="a_node3"><a xlink:href="$datastructures_2basic_8h.html" xlink:title="Various data structures and pre&#45;processor macros.">
<polygon fill="none" stroke="#000000" points="508,-246.5 508,-276.5 642,-276.5 642,-246.5 508,-246.5"/>
<text text-anchor="start" x="516" y="-264.5" font-family="Helvetica,sans-Serif" font-size="10.00" fill="#000000">ViennaRNA/datastructures</text>
<text text-anchor="middle" x="575" y="-253.5" font-family="Helvetica,sans-Serif" font-size="10.00" fill="#000000">/basic.h</text>
</a>
</g>
</g>
<!-- Node0&#45;&gt;Node2 -->
<g id="edge2" class="edge">
<title>Node0&#45;&gt;Node2</title>
<path fill="none" stroke="#191970" d="M581.5397,-380.2849C587.1594,-371.3105 594.8408,-357.3824 598,-344 601.1655,-330.5908 600.8723,-326.4751 598,-313 596.0339,-303.7762 592.2917,-294.2033 588.3881,-285.8496"/>
<polygon fill="#191970" stroke="#191970" points="591.4203,-284.087 583.8282,-276.6971 585.1549,-287.2086 591.4203,-284.087"/>
</g>
<!-- Node7 -->
<g id="node8" class="node">
<title>Node7</title>
<g id="a_node8"><a xlink:href="$params_2basic_8h.html" xlink:title="Functions to deal with sets of energy parameters.">
<polygon fill="none" stroke="#000000" points="1230,-129 1230,-148 1368,-148 1368,-129 1230,-129"/>
<text text-anchor="middle" x="1299" y="-136" font-family="Helvetica,sans-Serif" font-size="10.00" fill="#000000">ViennaRNA/params/basic.h</text>
</a>
</g>
</g>
<!-- Node0&#45;&gt;Node7 -->
<g id="edge43" class="edge">
<title>Node0&#45;&gt;Node7</title>
<path fill="none" stroke="#191970" d="M602.4976,-380.448C714.1569,-341.6603 1133.786,-195.8913 1261.7337,-151.4454"/>
<polygon fill="#191970" stroke="#191970" points="1263.1772,-154.6492 1271.475,-148.0615 1260.8802,-148.0368 1263.1772,-154.6492"/>
</g>
<!-- Node17 -->
<g id="node18" class="node">
<title>Node17</title>
<g id="a_node18"><a xlink:href="$part__func__window_8h.html" xlink:title="Partition function and equilibrium probability implementation for the sliding window algorithm.">
<polygon fill="none" stroke="#000000" points="477,-313.5 477,-343.5 589,-343.5 589,-313.5 477,-313.5"/>
<text text-anchor="start" x="485" y="-331.5" font-family="Helvetica,sans-Serif" font-size="10.00" fill="#000000">ViennaRNA/part_func</text>
<text text-anchor="middle" x="533" y="-320.5" font-family="Helvetica,sans-Serif" font-size="10.00" fill="#000000">_window.h</text>
</a>
</g>
</g>
<!-- Node0&#45;&gt;Node17 -->
<g id="edge44" class="edge">
<title>Node0&#45;&gt;Node17</title>
<path fill="none" stroke="#191970" d="M568.4375,-380.3906C563.227,-372.761 555.7181,-361.7658 548.9523,-351.8588"/>
<polygon fill="#191970" stroke="#191970" points="551.8043,-349.8287 543.2744,-343.5446 546.0237,-353.7765 551.8043,-349.8287"/>
</g>
<!-- Node3 -->
<g id="node4" class="node">
<title>Node3</title>
<g id="a_node4"><a xlink:href="$constants_8h.html" xlink:title="Energy parameter constants.">
<polygon fill="none" stroke="#000000" points="1268,-62 1268,-81 1426,-81 1426,-62 1268,-62"/>
<text text-anchor="middle" x="1347" y="-69" font-family="Helvetica,sans-Serif" font-size="10.00" fill="#000000">ViennaRNA/params/constants.h</text>
</a>
</g>
</g>
<!-- Node2&#45;&gt;Node3 -->
<g id="edge3" class="edge">
<title>Node2&#45;&gt;Node3</title>
<path fill="none" stroke="#191970" d="M642.0053,-257.5572C826.1296,-246.0379 1329.3214,-209.6925 1377,-154 1393.0132,-135.2953 1376.8657,-107.3407 1362.773,-89.2615"/>
<polygon fill="#191970" stroke="#191970" points="1365.2354,-86.7465 1356.1698,-81.2633 1359.8373,-91.2031 1365.2354,-86.7465"/>
</g>
<!-- Node5 -->
<g id="node6" class="node">
<title>Node5</title>
<g id="a_node6"><a xlink:href="$fold__compound_8h.html" xlink:title="The Basic Fold Compound API.">
<polygon fill="none" stroke="#000000" points="676,-190.5 676,-209.5 822,-209.5 822,-190.5 676,-190.5"/>
<text text-anchor="middle" x="749" y="-197.5" font-family="Helvetica,sans-Serif" font-size="10.00" fill="#000000">ViennaRNA/fold_compound.h</text>
</a>
</g>
</g>
<!-- Node2&#45;&gt;Node5 -->
<g id="edge5" class="edge">
<title>Node2&#45;&gt;Node5</title>
<path fill="none" stroke="#191970" d="M617.5652,-246.4554C646.5975,-236.194 684.6541,-222.7429 712.3409,-212.9571"/>
<polygon fill="#191970" stroke="#191970" points="713.7741,-216.1628 722.0362,-209.5303 711.4414,-209.5629 713.7741,-216.1628"/>
</g>
<!-- Node6 -->
<g id="node7" class="node">
<title>Node6</title>
<g id="a_node7"><a xlink:href="$model_8h.html" xlink:title="The model details data structure and its corresponding modifiers.">
<polygon fill="none" stroke="#000000" points="696,-62 696,-81 802,-81 802,-62 696,-62"/>
<text text-anchor="middle" x="749" y="-69" font-family="Helvetica,sans-Serif" font-size="10.00" fill="#000000">ViennaRNA/model.h</text>
</a>
</g>
</g>
<!-- Node2&#45;&gt;Node6 -->
<g id="edge34" class="edge">
<title>Node2&#45;&gt;Node6</title>
<path fill="none" stroke="#191970" d="M507.6428,-251.5221C409.8508,-234.3641 246.7744,-194.0763 310,-123 334.5378,-95.4154 570.2596,-80.2007 685.7943,-74.3462"/>
<polygon fill="#191970" stroke="#191970" points="686.1043,-77.8351 695.9176,-73.8416 685.7558,-70.8438 686.1043,-77.8351"/>
</g>
<!-- Node2&#45;&gt;Node7 -->
<g id="edge35" class="edge">
<title>Node2&#45;&gt;Node7</title>
<path fill="none" stroke="#191970" d="M642.1094,-252.3109C713.8128,-242.8386 830.5281,-227.0793 931,-210 1040.0535,-191.4619 1166.7779,-165.078 1239.5557,-150.0879"/>
<polygon fill="#191970" stroke="#191970" points="1240.3699,-153.4938 1249.4595,-148.0504 1238.9593,-146.6374 1240.3699,-153.4938"/>
</g>
<!-- Node9 -->
<g id="node10" class="node">
<title>Node9</title>
<g id="a_node10"><a xlink:href="$dp__matrices_8h.html" xlink:title="Functions to deal with standard dynamic programming (DP) matrices.">
<polygon fill="none" stroke="#000000" points="319.5,-129 319.5,-148 452.5,-148 452.5,-129 319.5,-129"/>
<text text-anchor="middle" x="386" y="-136" font-family="Helvetica,sans-Serif" font-size="10.00" fill="#000000">ViennaRNA/dp_matrices.h</text>
</a>
</g>
</g>
<!-- Node2&#45;&gt;Node9 -->
<g id="edge36" class="edge">
<title>Node2&#45;&gt;Node9</title>
<path fill="none" stroke="#191970" d="M547.2106,-246.4178C508.3462,-222.9631 439.193,-177.9737 405.3898,-154.1668"/>
<polygon fill="#191970" stroke="#191970" points="407.0156,-151.0261 396.8476,-148.0493 402.9399,-156.7173 407.0156,-151.0261"/>
</g>
<!-- Node10 -->
<g id="node11" class="node">
<title>Node10</title>
<g id="a_node11"><a xlink:href="$hard_8h.html" xlink:title="Functions and data structures for handling of secondary structure hard constraints.">
<polygon fill="none" stroke="#000000" points="955.5,-123.5 955.5,-153.5 1074.5,-153.5 1074.5,-123.5 955.5,-123.5"/>
<text text-anchor="start" x="963.5" y="-141.5" font-family="Helvetica,sans-Serif" font-size="10.00" fill="#000000">ViennaRNA/constraints</text>
<text text-anchor="middle" x="1015" y="-130.5" font-family="Helvetica,sans-Serif" font-size="10.00" fill="#000000">/hard.h</text>
</a>
</g>
</g>
<!-- Node2&#45;&gt;Node10 -->
<g id="edge37" class="edge">
<title>Node2&#45;&gt;Node10</title>
<path fill="none" stroke="#191970" d="M642.0655,-251.2587C694.1587,-242.5262 767.9083,-228.4553 831,-210 880.3686,-195.559 935.0949,-173.4746 971.9274,-157.6729"/>
<polygon fill="#191970" stroke="#191970" points="973.566,-160.7777 981.3564,-153.5971 970.7885,-154.3522 973.566,-160.7777"/>
</g>
<!-- Node12 -->
<g id="node13" class="node">
<title>Node12</title>
<g id="a_node13"><a xlink:href="$soft_8h.html" xlink:title="Functions and data structures for secondary structure soft constraints.">
<polygon fill="none" stroke="#000000" points="1092.5,-123.5 1092.5,-153.5 1211.5,-153.5 1211.5,-123.5 1092.5,-123.5"/>
<text text-anchor="start" x="1100.5" y="-141.5" font-family="Helvetica,sans-Serif" font-size="10.00" fill="#000000">ViennaRNA/constraints</text>
<text text-anchor="middle" x="1152" y="-130.5" font-family="Helvetica,sans-Serif" font-size="10.00" fill="#000000">/soft.h</text>
</a>
</g>
</g>
<!-- Node2&#45;&gt;Node12 -->
<g id="edge38" class="edge">
<title>Node2&#45;&gt;Node12</title>
<path fill="none" stroke="#191970" d="M642.0843,-250.412C701.0471,-240.9492 788.9025,-226.3113 865,-210 939.6221,-194.0049 1024.4477,-171.5603 1082.4924,-156.1062"/>
<polygon fill="#191970" stroke="#191970" points="1083.5278,-159.4526 1092.2902,-153.4969 1081.7263,-152.6883 1083.5278,-159.4526"/>
</g>
<!-- Node13 -->
<g id="node14" class="node">
<title>Node13</title>
<g id="a_node14"><a xlink:href="$grammar_8h.html" xlink:title="Implementations for the RNA folding grammar.">
<polygon fill="none" stroke="#000000" points="603.5,-129 603.5,-148 720.5,-148 720.5,-129 603.5,-129"/>
<text text-anchor="middle" x="662" y="-136" font-family="Helvetica,sans-Serif" font-size="10.00" fill="#000000">ViennaRNA/grammar.h</text>
</a>
</g>
</g>
<!-- Node2&#45;&gt;Node13 -->
<g id="edge39" class="edge">
<title>Node2&#45;&gt;Node13</title>
<path fill="none" stroke="#191970" d="M585.6679,-246.4178C601.7615,-223.6648 632.1893,-180.6461 649.368,-156.3591"/>
<polygon fill="#191970" stroke="#191970" points="652.3284,-158.2346 655.2456,-148.0493 646.6135,-154.1923 652.3284,-158.2346"/>
</g>
<!-- Node14 -->
<g id="node15" class="node">
<title>Node14</title>
<g id="a_node15"><a xlink:href="$structured__domains_8h.html" xlink:title="This module provides interfaces that deal with additional structured domains in the folding grammar.">
<polygon fill="none" stroke="#000000" points="470.5,-123.5 470.5,-153.5 585.5,-153.5 585.5,-123.5 470.5,-123.5"/>
<text text-anchor="start" x="478.5" y="-141.5" font-family="Helvetica,sans-Serif" font-size="10.00" fill="#000000">ViennaRNA/structured</text>
<text text-anchor="middle" x="528" y="-130.5" font-family="Helvetica,sans-Serif" font-size="10.00" fill="#000000">_domains.h</text>
</a>
</g>
</g>
<!-- Node2&#45;&gt;Node14 -->
<g id="edge40" class="edge">
<title>Node2&#45;&gt;Node14</title>
<path fill="none" stroke="#191970" d="M569.2369,-246.4178C561.3086,-225.6694 546.9411,-188.0692 537.4337,-163.1881"/>
<polygon fill="#191970" stroke="#191970" points="540.6492,-161.7975 533.8103,-153.7056 534.1103,-164.2962 540.6492,-161.7975"/>
</g>
<!-- Node15 -->
<g id="node16" class="node">
<title>Node15</title>
<g id="a_node16"><a xlink:href="$unstructured__domains_8h.html" xlink:title="Functions to modify unstructured domains, e.g. to incorporate ligands binding to unpaired stretches.">
<polygon fill="none" stroke="#000000" points="137.5,-123.5 137.5,-153.5 262.5,-153.5 262.5,-123.5 137.5,-123.5"/>
<text text-anchor="start" x="145.5" y="-141.5" font-family="Helvetica,sans-Serif" font-size="10.00" fill="#000000">ViennaRNA/unstructured</text>
<text text-anchor="middle" x="200" y="-130.5" font-family="Helvetica,sans-Serif" font-size="10.00" fill="#000000">_domains.h</text>
</a>
</g>
</g>
<!-- Node2&#45;&gt;Node15 -->
<g id="edge41" class="edge">
<title>Node2&#45;&gt;Node15</title>
<path fill="none" stroke="#191970" d="M507.9493,-255.1246C430.4817,-246.5863 308.6993,-230.1519 268,-210 244.9642,-198.594 223.9592,-178.0827 211.2291,-161.945"/>
<polygon fill="#191970" stroke="#191970" points="213.7836,-159.5098 205.0478,-153.5151 208.1386,-163.6491 213.7836,-159.5098"/>
</g>
<!-- Node16 -->
<g id="node17" class="node">
<title>Node16</title>
<g id="a_node17"><a xlink:href="$utils_2structures_8h.html" xlink:title="Various utility&#45; and helper&#45;functions for secondary structure parsing, converting,...">
<polygon fill="none" stroke="#000000" points="28,-62 28,-81 172,-81 172,-62 28,-62"/>
<text text-anchor="middle" x="100" y="-69" font-family="Helvetica,sans-Serif" font-size="10.00" fill="#000000">ViennaRNA/utils/structures.h</text>
</a>
</g>
</g>
<!-- Node2&#45;&gt;Node16 -->
<g id="edge42" class="edge">
<title>Node2&#45;&gt;Node16</title>
<path fill="none" stroke="#191970" d="M507.9176,-257.3695C438.3932,-251.5748 327.5235,-238.3727 236,-210 180.9358,-192.9298 157.2635,-197.1203 119,-154 103.2872,-136.2928 96.3214,-109.3994 95.3371,-91.1713"/>
<polygon fill="#191970" stroke="#191970" points="98.8376,-91.1473 95.4725,-81.1012 91.8383,-91.0532 98.8376,-91.1473"/>
</g>
<!-- Node4 -->
<g id="node5" class="node">
<title>Node4</title>
<g id="a_node5"><a xlink:title=" ">
<polygon fill="none" stroke="#bfbfbf" points="1323,-.5 1323,-19.5 1371,-19.5 1371,-.5 1323,-.5"/>
<text text-anchor="middle" x="1347" y="-7.5" font-family="Helvetica,sans-Serif" font-size="10.00" fill="#000000">limits.h</text>
</a>
</g>
</g>
<!-- Node3&#45;&gt;Node4 -->
<g id="edge4" class="edge">
<title>Node3&#45;&gt;Node4</title>
<path fill="none" stroke="#191970" d="M1347,-61.8906C1347,-53.3657 1347,-40.6392 1347,-29.9235"/>
<polygon fill="#191970" stroke="#191970" points="1350.5001,-29.7448 1347,-19.7449 1343.5001,-29.7449 1350.5001,-29.7448"/>
</g>
<!-- Node5&#45;&gt;Node6 -->
<g id="edge6" class="edge">
<title>Node5&#45;&gt;Node6</title>
<path fill="none" stroke="#191970" d="M749,-190.3416C749,-169.4114 749,-119.504 749,-91.4762"/>
<polygon fill="#191970" stroke="#191970" points="752.5001,-91.2704 749,-81.2705 745.5001,-91.2705 752.5001,-91.2704"/>
</g>
<!-- Node5&#45;&gt;Node7 -->
<g id="edge7" class="edge">
<title>Node5&#45;&gt;Node7</title>
<path fill="none" stroke="#191970" d="M822.1967,-194.6569C913.6975,-187.7871 1074.7587,-174.2729 1212,-154 1219.8652,-152.8382 1228.1388,-151.4147 1236.3414,-149.9062"/>
<polygon fill="#191970" stroke="#191970" points="1237.0994,-153.325 1246.2795,-148.0357 1235.8046,-146.4458 1237.0994,-153.325"/>
</g>
<!-- Node8 -->
<g id="node9" class="node">
<title>Node8</title>
<g id="a_node9"><a xlink:href="$sequence_8h.html" xlink:title="Functions and data structures related to sequence representations ,.">
<polygon fill="none" stroke="#000000" points="777,-129 777,-148 899,-148 899,-129 777,-129"/>
<text text-anchor="middle" x="838" y="-136" font-family="Helvetica,sans-Serif" font-size="10.00" fill="#000000">ViennaRNA/sequence.h</text>
</a>
</g>
</g>
<!-- Node5&#45;&gt;Node8 -->
<g id="edge12" class="edge">
<title>Node5&#45;&gt;Node8</title>
<path fill="none" stroke="#191970" d="M757.8438,-190.3906C770.1622,-180.5519 792.2176,-165.1167 810.1894,-153.6351"/>
<polygon fill="#191970" stroke="#191970" points="812.5156,-156.3087 819.1421,-148.0419 808.8067,-150.372 812.5156,-156.3087"/>
</g>
<!-- Node5&#45;&gt;Node9 -->
<g id="edge14" class="edge">
<title>Node5&#45;&gt;Node9</title>
<path fill="none" stroke="#191970" d="M676.8754,-190.4715C616.4786,-181.7031 528.3274,-167.9753 452,-154 445.3218,-152.7772 438.3237,-151.4256 431.4706,-150.0451"/>
<polygon fill="#191970" stroke="#191970" points="432.0877,-146.5989 421.5878,-148.0136 430.6782,-153.4555 432.0877,-146.5989"/>
</g>
<!-- Node5&#45;&gt;Node10 -->
<g id="edge17" class="edge">
<title>Node5&#45;&gt;Node10</title>
<path fill="none" stroke="#191970" d="M785.2214,-190.4581C826.2279,-180.5263 893.8044,-164.8394 945.127,-153.2983"/>
<polygon fill="#191970" stroke="#191970" points="946.1701,-156.6514 955.1621,-151.0483 944.6386,-149.821 946.1701,-156.6514"/>
</g>
<!-- Node5&#45;&gt;Node12 -->
<g id="edge21" class="edge">
<title>Node5&#45;&gt;Node12</title>
<path fill="none" stroke="#191970" d="M822.3256,-190.952C888.5793,-182.8252 988.5134,-169.7635 1075,-154 1077.4494,-153.5536 1079.9441,-153.0788 1082.4656,-152.5832"/>
<polygon fill="#191970" stroke="#191970" points="1083.1845,-156.0088 1092.2852,-150.584 1081.7879,-149.1495 1083.1845,-156.0088"/>
</g>
<!-- Node5&#45;&gt;Node13 -->
<g id="edge25" class="edge">
<title>Node5&#45;&gt;Node13</title>
<path fill="none" stroke="#191970" d="M730.3438,-190.3906C714.8873,-180.7889 693.4507,-165.8571 678.5909,-154.4716"/>
<polygon fill="#191970" stroke="#191970" points="680.7158,-151.6898 670.6966,-148.2449 676.3807,-157.1859 680.7158,-151.6898"/>
</g>
<!-- Node5&#45;&gt;Node14 -->
<g id="edge27" class="edge">
<title>Node5&#45;&gt;Node14</title>
<path fill="none" stroke="#191970" d="M714.4688,-190.3906C681.7204,-181.2774 631.718,-167.3627 591.7335,-156.2358"/>
<polygon fill="#191970" stroke="#191970" points="592.635,-152.8537 582.0627,-153.5446 590.7583,-159.5975 592.635,-152.8537"/>
</g>
<!-- Node5&#45;&gt;Node15 -->
<g id="edge28" class="edge">
<title>Node5&#45;&gt;Node15</title>
<path fill="none" stroke="#191970" d="M675.7567,-193.7252C586.8078,-185.4858 432.5858,-170.1596 301,-154 291.8626,-152.8779 282.3083,-151.6353 272.8686,-150.3562"/>
<polygon fill="#191970" stroke="#191970" points="273.0791,-146.8523 262.6956,-148.9579 272.1258,-153.7871 273.0791,-146.8523"/>
</g>
<!-- Node7&#45;&gt;Node2 -->
<g id="edge9" class="edge">
<title>Node7&#45;&gt;Node2</title>
<path fill="none" stroke="#191970" d="M1260.9648,-148.0504C1196.7379,-162.5787 1063.1828,-190.59 949,-210 846.9583,-227.3462 728.1615,-243.3307 652.2422,-252.7503"/>
<polygon fill="#191970" stroke="#191970" points="651.7774,-249.281 642.2811,-253.9789 652.6343,-256.2284 651.7774,-249.281"/>
</g>
<!-- Node7&#45;&gt;Node3 -->
<g id="edge8" class="edge">
<title>Node7&#45;&gt;Node3</title>
<path fill="none" stroke="#191970" d="M1305.8772,-128.9005C1313.2198,-118.6515 1325.0241,-102.1747 1334.1062,-89.4976"/>
<polygon fill="#191970" stroke="#191970" points="1337.1568,-91.2492 1340.1355,-81.0817 1331.4664,-87.1724 1337.1568,-91.2492"/>
</g>
<!-- Node7&#45;&gt;Node5 -->
<g id="edge10" class="edge">
<title>Node7&#45;&gt;Node5</title>
<path fill="none" stroke="#191970" d="M1263.7093,-148.0357C1252.9342,-150.214 1241.0632,-152.3658 1230,-154 1091.4932,-174.4598 928.7252,-188.0357 832.4073,-194.8452"/>
<polygon fill="#191970" stroke="#191970" points="831.8791,-191.3735 822.1477,-195.5626 832.3675,-198.3565 831.8791,-191.3735"/>
</g>
<!-- Node7&#45;&gt;Node6 -->
<g id="edge11" class="edge">
<title>Node7&#45;&gt;Node6</title>
<path fill="none" stroke="#191970" d="M1254.5709,-128.9729C1243.6282,-126.8196 1231.9171,-124.677 1221,-123 1075.4723,-100.6451 903.2441,-84.4142 812.419,-76.6444"/>
<polygon fill="#191970" stroke="#191970" points="812.5472,-73.1427 802.2869,-75.7838 811.9548,-80.1176 812.5472,-73.1427"/>
</g>
<!-- Node8&#45;&gt;Node5 -->
<g id="edge13" class="edge">
<title>Node8&#45;&gt;Node5</title>
<path fill="none" stroke="#191970" d="M829.2407,-148.0419C816.9669,-157.855 794.9245,-173.2864 776.9341,-184.786"/>
<polygon fill="#191970" stroke="#191970" points="774.5929,-182.1219 767.9688,-190.3906 778.3035,-188.0575 774.5929,-182.1219"/>
</g>
<!-- Node9&#45;&gt;Node2 -->
<g id="edge15" class="edge">
<title>Node9&#45;&gt;Node2</title>
<path fill="none" stroke="#191970" d="M404.4989,-148.0493C438.252,-167.828 509.1621,-213.6742 548.1667,-240.6423"/>
<polygon fill="#191970" stroke="#191970" points="546.2361,-243.5631 556.4391,-246.4178 550.2433,-237.8235 546.2361,-243.5631"/>
</g>
<!-- Node9&#45;&gt;Node5 -->
<g id="edge16" class="edge">
<title>Node9&#45;&gt;Node5</title>
<path fill="none" stroke="#191970" d="M439.1168,-148.0136C449.4122,-150.0746 460.0603,-152.1801 470,-154 542.0041,-167.1837 624.5307,-180.1472 681.111,-188.9346"/>
<polygon fill="#191970" stroke="#191970" points="680.5955,-192.3965 691.014,-190.4715 681.669,-185.4793 680.5955,-192.3965"/>
</g>
<!-- Node10&#45;&gt;Node5 -->
<g id="edge18" class="edge">
<title>Node10&#45;&gt;Node5</title>
<path fill="none" stroke="#191970" d="M955.6839,-153.5784C910.7518,-164.2601 849.5058,-178.385 805.3193,-188.2372"/>
<polygon fill="#191970" stroke="#191970" points="804.3232,-184.8731 795.3199,-190.4581 805.8409,-191.7066 804.3232,-184.8731"/>
</g>
<!-- Node11 -->
<g id="node12" class="node">
<title>Node11</title>
<g id="a_node12"><a xlink:href="$constraints_2basic_8h.html" xlink:title="Functions and data structures for constraining secondary structure predictions and evaluation.">
<polygon fill="none" stroke="#000000" points="955.5,-56.5 955.5,-86.5 1074.5,-86.5 1074.5,-56.5 955.5,-56.5"/>
<text text-anchor="start" x="963.5" y="-74.5" font-family="Helvetica,sans-Serif" font-size="10.00" fill="#000000">ViennaRNA/constraints</text>
<text text-anchor="middle" x="1015" y="-63.5" font-family="Helvetica,sans-Serif" font-size="10.00" fill="#000000">/basic.h</text>
</a>
</g>
</g>
<!-- Node10&#45;&gt;Node11 -->
<g id="edge19" class="edge">
<title>Node10&#45;&gt;Node11</title>
<path fill="none" stroke="#191970" d="M1015,-123.2967C1015,-115.5013 1015,-105.7991 1015,-96.9064"/>
<polygon fill="#191970" stroke="#191970" points="1018.5001,-96.6431 1015,-86.6432 1011.5001,-96.6432 1018.5001,-96.6431"/>
</g>
<!-- Node11&#45;&gt;Node5 -->
<g id="edge20" class="edge">
<title>Node11&#45;&gt;Node5</title>
<path fill="none" stroke="#191970" d="M994.294,-86.594C980.4978,-96.739 962.0258,-110.4919 946,-123 928.818,-136.4105 927.303,-143.878 908,-154 877.8185,-169.8264 841.4781,-180.8614 811.1622,-188.1477"/>
<polygon fill="#191970" stroke="#191970" points="810.0793,-184.806 801.1297,-190.4766 811.6622,-191.6247 810.0793,-184.806"/>
</g>
<!-- Node12&#45;&gt;Node2 -->
<g id="edge22" class="edge">
<title>Node12&#45;&gt;Node2</title>
<path fill="none" stroke="#191970" d="M1105.233,-153.6402C1051.7388,-169.0907 961.6954,-193.1318 883,-210 805.1829,-226.6799 715.0704,-241.6099 652.4313,-251.0455"/>
<polygon fill="#191970" stroke="#191970" points="651.605,-247.6301 642.2322,-252.5697 652.6397,-254.5532 651.605,-247.6301"/>
</g>
<!-- Node12&#45;&gt;Node5 -->
<g id="edge23" class="edge">
<title>Node12&#45;&gt;Node5</title>
<path fill="none" stroke="#191970" d="M1095.5162,-153.5345C1094.6729,-153.6928 1093.8338,-153.848 1093,-154 1004.6499,-170.1031 902.2666,-183.3868 832.2496,-191.4704"/>
<polygon fill="#191970" stroke="#191970" points="831.6967,-188.0108 822.1595,-192.6251 832.4927,-194.9654 831.6967,-188.0108"/>
</g>
<!-- Node12&#45;&gt;Node11 -->
<g id="edge24" class="edge">
<title>Node12&#45;&gt;Node11</title>
<path fill="none" stroke="#191970" d="M1121.2545,-123.4639C1101.7376,-113.9191 1076.2743,-101.4663 1055.1675,-91.144"/>
<polygon fill="#191970" stroke="#191970" points="1056.6378,-87.9669 1046.1169,-86.7177 1053.5625,-94.2552 1056.6378,-87.9669"/>
</g>
<!-- Node13&#45;&gt;Node5 -->
<g id="edge26" class="edge">
<title>Node13&#45;&gt;Node5</title>
<path fill="none" stroke="#191970" d="M680.5476,-148.0419C696.0667,-157.6749 717.6662,-172.722 732.5665,-184.1491"/>
<polygon fill="#191970" stroke="#191970" points="730.4519,-186.939 740.4688,-190.3906 734.7907,-181.4458 730.4519,-186.939"/>
</g>
<!-- Node15&#45;&gt;Node2 -->
<g id="edge29" class="edge">
<title>Node15&#45;&gt;Node2</title>
<path fill="none" stroke="#191970" d="M218.0509,-153.5151C234.2493,-170.1736 258.6983,-196.4818 286,-210 322.6803,-228.1619 425.2207,-243.3043 497.7576,-252.3682"/>
<polygon fill="#191970" stroke="#191970" points="497.4302,-255.8543 507.7838,-253.6065 498.2883,-248.9071 497.4302,-255.8543"/>
</g>
<!-- Node15&#45;&gt;Node5 -->
<g id="edge30" class="edge">
<title>Node15&#45;&gt;Node5</title>
<path fill="none" stroke="#191970" d="M262.7606,-146.5308C280.9786,-149.0565 300.815,-151.7668 319,-154 439.5381,-168.8029 579.0711,-182.9064 665.7545,-191.5038"/>
<polygon fill="#191970" stroke="#191970" points="665.5015,-194.9958 675.7979,-192.4988 666.1917,-188.0299 665.5015,-194.9958"/>
</g>
<!-- Node15&#45;&gt;Node16 -->
<g id="edge31" class="edge">
<title>Node15&#45;&gt;Node16</title>
<path fill="none" stroke="#191970" d="M177.3085,-123.2967C160.9717,-112.351 139.0241,-97.6462 122.6881,-86.701"/>
<polygon fill="#191970" stroke="#191970" points="124.517,-83.7135 114.2612,-81.055 120.6207,-89.5289 124.517,-83.7135"/>
</g>
<!-- Node16&#45;&gt;Node1 -->
<g id="edge32" class="edge">
<title>Node16&#45;&gt;Node1</title>
<path fill="none" stroke="#191970" d="M92.1875,-61.8906C84.746,-52.7376 73.3666,-38.7409 64.3008,-27.59"/>
<polygon fill="#191970" stroke="#191970" points="66.9467,-25.2962 57.9226,-19.7449 61.5153,-29.712 66.9467,-25.2962"/>
</g>
<!-- Node16&#45;&gt;Node2 -->
<g id="edge33" class="edge">
<title>Node16&#45;&gt;Node2</title>
<path fill="none" stroke="#191970" d="M106.2292,-81.1012C111.8067,-97.8403 118.0261,-132.6177 137,-154 175.2635,-197.1203 198.9358,-192.9298 254,-210 335.2243,-235.1799 431.6857,-248.4114 497.5785,-255.1208"/>
<polygon fill="#191970" stroke="#191970" points="497.5878,-258.6388 507.8844,-256.1424 498.2784,-251.6729 497.5878,-258.6388"/>
</g>
<!-- Node17&#45;&gt;Node2 -->
<g id="edge45" class="edge">
<title>Node17&#45;&gt;Node2</title>
<path fill="none" stroke="#191970" d="M542.5305,-313.2967C547.7393,-304.9873 554.3063,-294.5115 560.1692,-285.1587"/>
<polygon fill="#191970" stroke="#191970" points="563.1614,-286.975 565.5073,-276.6432 557.2304,-283.2571 563.1614,-286.975"/>
</g>
<!-- Node17&#45;&gt;Node5 -->
<g id="edge46" class="edge">
<title>Node17&#45;&gt;Node5</title>
<path fill="none" stroke="#191970" d="M574.4051,-313.4342C597.6325,-304.2521 626.7296,-291.507 651,-277 680.9301,-259.11 712.0128,-233.2306 730.9365,-216.5098"/>
<polygon fill="#191970" stroke="#191970" points="733.3786,-219.0212 738.4956,-209.7439 728.7101,-213.8053 733.3786,-219.0212"/>
</g>
<!-- Node17&#45;&gt;Node16 -->
<g id="edge47" class="edge">
<title>Node17&#45;&gt;Node16</title>
<path fill="none" stroke="#191970" d="M476.6894,-317.2593C403.1712,-301.0051 272.0805,-266.5293 172,-210 138.7986,-191.2466 124.3422,-187.9599 107,-154 96.9717,-134.3623 96.4482,-108.6368 97.6394,-91.1703"/>
<polygon fill="#191970" stroke="#191970" points="101.1411,-91.3144 98.5871,-81.032 94.1715,-90.6628 101.1411,-91.3144"/>
</g>
</g>
</svg>
