<?xml version="1.0" encoding="UTF-8" standalone="no"?>
<!DOCTYPE svg PUBLIC "-//W3C//DTD SVG 1.1//EN"
 "http://www.w3.org/Graphics/SVG/1.1/DTD/svg11.dtd">
<!-- Generated by graphviz version 2.40.1 (0)
 -->
<!-- Title: ViennaRNA/MEA.h Pages: 1 -->
<svg width="1432pt" height="341pt"
 viewBox="0.00 0.00 1432.00 341.00" xmlns="http://www.w3.org/2000/svg" xmlns:xlink="http://www.w3.org/1999/xlink">
<g id="graph0" class="graph" transform="scale(1 1) rotate(0) translate(4 337)">
<title>ViennaRNA/MEA.h</title>
<!-- Node0 -->
<g id="node1" class="node">
<title>Node0</title>
<g id="a_node1"><a xlink:title="Computes a MEA (maximum expected accuracy) structure.">
<polygon fill="#bfbfbf" stroke="#000000" points="291,-313.5 291,-332.5 393,-332.5 393,-313.5 291,-313.5"/>
<text text-anchor="middle" x="342" y="-320.5" font-family="Helvetica,sans-Serif" font-size="10.00" fill="#000000">ViennaRNA/MEA.h</text>
</a>
</g>
</g>
<!-- Node1 -->
<g id="node2" class="node">
<title>Node1</title>
<g id="a_node2"><a xlink:href="$datastructures_2basic_8h.html" xlink:title="Various data structures and pre&#45;processor macros.">
<polygon fill="none" stroke="#000000" points="598,-246.5 598,-276.5 732,-276.5 732,-246.5 598,-246.5"/>
<text text-anchor="start" x="606" y="-264.5" font-family="Helvetica,sans-Serif" font-size="10.00" fill="#000000">ViennaRNA/datastructures</text>
<text text-anchor="middle" x="665" y="-253.5" font-family="Helvetica,sans-Serif" font-size="10.00" fill="#000000">/basic.h</text>
</a>
</g>
</g>
<!-- Node0&#45;&gt;Node1 -->
<g id="edge1" class="edge">
<title>Node0&#45;&gt;Node1</title>
<path fill="none" stroke="#191970" d="M392.1144,-313.4581C444.4843,-303.4867 527.3213,-287.7144 588.0018,-276.1606"/>
<polygon fill="#191970" stroke="#191970" points="588.7522,-279.5807 597.921,-274.272 587.4428,-272.7043 588.7522,-279.5807"/>
</g>
<!-- Node6 -->
<g id="node7" class="node">
<title>Node6</title>
<g id="a_node7"><a xlink:href="$params_2basic_8h.html" xlink:title="Functions to deal with sets of energy parameters.">
<polygon fill="none" stroke="#000000" points="85,-129 85,-148 223,-148 223,-129 85,-129"/>
<text text-anchor="middle" x="154" y="-136" font-family="Helvetica,sans-Serif" font-size="10.00" fill="#000000">ViennaRNA/params/basic.h</text>
</a>
</g>
</g>
<!-- Node0&#45;&gt;Node6 -->
<g id="edge42" class="edge">
<title>Node0&#45;&gt;Node6</title>
<path fill="none" stroke="#191970" d="M327.2993,-313.3539C300.3926,-295.2444 242.292,-253.9971 202,-210 187.0904,-193.7194 173.4115,-172.4331 164.5036,-157.3316"/>
<polygon fill="#191970" stroke="#191970" points="167.3946,-155.338 159.3739,-148.4157 161.3272,-158.829 167.3946,-155.338"/>
</g>
<!-- Node2 -->
<g id="node3" class="node">
<title>Node2</title>
<g id="a_node3"><a xlink:href="$constants_8h.html" xlink:title="Energy parameter constants.">
<polygon fill="none" stroke="#000000" points="0,-62 0,-81 158,-81 158,-62 0,-62"/>
<text text-anchor="middle" x="79" y="-69" font-family="Helvetica,sans-Serif" font-size="10.00" fill="#000000">ViennaRNA/params/constants.h</text>
</a>
</g>
</g>
<!-- Node1&#45;&gt;Node2 -->
<g id="edge2" class="edge">
<title>Node1&#45;&gt;Node2</title>
<path fill="none" stroke="#191970" d="M597.6919,-256.5674C487.8259,-248.0874 274.8932,-229.7428 202,-210 142.8494,-193.9793 109.3933,-205.3843 76,-154 63.7836,-135.2019 67.6162,-108.5746 72.4462,-90.7041"/>
<polygon fill="#191970" stroke="#191970" points="75.8095,-91.6738 75.3696,-81.0881 69.1122,-89.6377 75.8095,-91.6738"/>
</g>
<!-- Node4 -->
<g id="node5" class="node">
<title>Node4</title>
<g id="a_node5"><a xlink:href="$fold__compound_8h.html" xlink:title="The Basic Fold Compound API.">
<polygon fill="none" stroke="#000000" points="592,-190.5 592,-209.5 738,-209.5 738,-190.5 592,-190.5"/>
<text text-anchor="middle" x="665" y="-197.5" font-family="Helvetica,sans-Serif" font-size="10.00" fill="#000000">ViennaRNA/fold_compound.h</text>
</a>
</g>
</g>
<!-- Node1&#45;&gt;Node4 -->
<g id="edge4" class="edge">
<title>Node1&#45;&gt;Node4</title>
<path fill="none" stroke="#191970" d="M665,-246.2977C665,-238.3834 665,-228.6043 665,-220.0759"/>
<polygon fill="#191970" stroke="#191970" points="668.5001,-219.8469 665,-209.8469 661.5001,-219.847 668.5001,-219.8469"/>
</g>
<!-- Node5 -->
<g id="node6" class="node">
<title>Node5</title>
<g id="a_node6"><a xlink:href="$model_8h.html" xlink:title="The model details data structure and its corresponding modifiers.">
<polygon fill="none" stroke="#000000" points="198,-62 198,-81 304,-81 304,-62 198,-62"/>
<text text-anchor="middle" x="251" y="-69" font-family="Helvetica,sans-Serif" font-size="10.00" fill="#000000">ViennaRNA/model.h</text>
</a>
</g>
</g>
<!-- Node1&#45;&gt;Node5 -->
<g id="edge33" class="edge">
<title>Node1&#45;&gt;Node5</title>
<path fill="none" stroke="#191970" d="M597.7777,-251.5444C497.6249,-235.3704 316.1539,-200.4605 271,-154 254.7622,-137.2923 250.9521,-109.7593 250.413,-91.1419"/>
<polygon fill="#191970" stroke="#191970" points="253.9131,-91.1184 250.4111,-81.1191 246.9131,-91.1198 253.9131,-91.1184"/>
</g>
<!-- Node1&#45;&gt;Node6 -->
<g id="edge34" class="edge">
<title>Node1&#45;&gt;Node6</title>
<path fill="none" stroke="#191970" d="M597.7925,-258.4937C491.952,-252.7807 292.1961,-238.3168 228,-210 200.5438,-197.8891 175.403,-173.5465 162.2603,-156.6502"/>
<polygon fill="#191970" stroke="#191970" points="164.8851,-154.2999 156.2547,-148.1545 159.1691,-158.3406 164.8851,-154.2999"/>
</g>
<!-- Node8 -->
<g id="node9" class="node">
<title>Node8</title>
<g id="a_node9"><a xlink:href="$dp__matrices_8h.html" xlink:title="Functions to deal with standard dynamic programming (DP) matrices.">
<polygon fill="none" stroke="#000000" points="279.5,-129 279.5,-148 412.5,-148 412.5,-129 279.5,-129"/>
<text text-anchor="middle" x="346" y="-136" font-family="Helvetica,sans-Serif" font-size="10.00" fill="#000000">ViennaRNA/dp_matrices.h</text>
</a>
</g>
</g>
<!-- Node1&#45;&gt;Node8 -->
<g id="edge35" class="edge">
<title>Node1&#45;&gt;Node8</title>
<path fill="none" stroke="#191970" d="M621.2701,-246.4178C555.576,-222.2114 433.3778,-175.0677 376.4601,-151.9444"/>
<polygon fill="#191970" stroke="#191970" points="377.5209,-148.5968 366.9403,-148.0493 374.8701,-155.0755 377.5209,-148.5968"/>
</g>
<!-- Node9 -->
<g id="node10" class="node">
<title>Node9</title>
<g id="a_node10"><a xlink:href="$hard_8h.html" xlink:title="Functions and data structures for handling of secondary structure hard constraints.">
<polygon fill="none" stroke="#000000" points="782.5,-123.5 782.5,-153.5 901.5,-153.5 901.5,-123.5 782.5,-123.5"/>
<text text-anchor="start" x="790.5" y="-141.5" font-family="Helvetica,sans-Serif" font-size="10.00" fill="#000000">ViennaRNA/constraints</text>
<text text-anchor="middle" x="842" y="-130.5" font-family="Helvetica,sans-Serif" font-size="10.00" fill="#000000">/hard.h</text>
</a>
</g>
</g>
<!-- Node1&#45;&gt;Node9 -->
<g id="edge36" class="edge">
<title>Node1&#45;&gt;Node9</title>
<path fill="none" stroke="#191970" d="M690.1122,-246.486C706.5263,-236.4882 728.3075,-222.8703 747,-210 770.2954,-193.9604 795.8681,-174.6084 814.6072,-160.0844"/>
<polygon fill="#191970" stroke="#191970" points="816.9636,-162.6855 822.7035,-153.7802 812.663,-157.1624 816.9636,-162.6855"/>
</g>
<!-- Node11 -->
<g id="node12" class="node">
<title>Node11</title>
<g id="a_node12"><a xlink:href="$soft_8h.html" xlink:title="Functions and data structures for secondary structure soft constraints.">
<polygon fill="none" stroke="#000000" points="919.5,-123.5 919.5,-153.5 1038.5,-153.5 1038.5,-123.5 919.5,-123.5"/>
<text text-anchor="start" x="927.5" y="-141.5" font-family="Helvetica,sans-Serif" font-size="10.00" fill="#000000">ViennaRNA/constraints</text>
<text text-anchor="middle" x="979" y="-130.5" font-family="Helvetica,sans-Serif" font-size="10.00" fill="#000000">/soft.h</text>
</a>
</g>
</g>
<!-- Node1&#45;&gt;Node11 -->
<g id="edge37" class="edge">
<title>Node1&#45;&gt;Node11</title>
<path fill="none" stroke="#191970" d="M698.8883,-246.4178C753.6553,-223.9024 861.6633,-181.5427 926.4462,-157.1263"/>
<polygon fill="#191970" stroke="#191970" points="927.937,-160.3051 936.0682,-153.513 925.4761,-153.752 927.937,-160.3051"/>
</g>
<!-- Node12 -->
<g id="node13" class="node">
<title>Node12</title>
<g id="a_node13"><a xlink:href="$grammar_8h.html" xlink:title="Implementations for the RNA folding grammar.">
<polygon fill="none" stroke="#000000" points="430.5,-129 430.5,-148 547.5,-148 547.5,-129 430.5,-129"/>
<text text-anchor="middle" x="489" y="-136" font-family="Helvetica,sans-Serif" font-size="10.00" fill="#000000">ViennaRNA/grammar.h</text>
</a>
</g>
</g>
<!-- Node1&#45;&gt;Node12 -->
<g id="edge38" class="edge">
<title>Node1&#45;&gt;Node12</title>
<path fill="none" stroke="#191970" d="M639.5,-246.2954C623.1201,-236.3314 601.5214,-222.8222 583,-210 556.6852,-191.7826 527.5131,-169.1984 508.7516,-154.3456"/>
<polygon fill="#191970" stroke="#191970" points="510.9164,-151.5953 500.9116,-148.1088 506.5585,-157.0734 510.9164,-151.5953"/>
</g>
<!-- Node13 -->
<g id="node14" class="node">
<title>Node13</title>
<g id="a_node14"><a xlink:href="$structured__domains_8h.html" xlink:title="This module provides interfaces that deal with additional structured domains in the folding grammar.">
<polygon fill="none" stroke="#000000" points="1056.5,-123.5 1056.5,-153.5 1171.5,-153.5 1171.5,-123.5 1056.5,-123.5"/>
<text text-anchor="start" x="1064.5" y="-141.5" font-family="Helvetica,sans-Serif" font-size="10.00" fill="#000000">ViennaRNA/structured</text>
<text text-anchor="middle" x="1114" y="-130.5" font-family="Helvetica,sans-Serif" font-size="10.00" fill="#000000">_domains.h</text>
</a>
</g>
</g>
<!-- Node1&#45;&gt;Node13 -->
<g id="edge39" class="edge">
<title>Node1&#45;&gt;Node13</title>
<path fill="none" stroke="#191970" d="M720.0562,-246.4178C803.3434,-223.6019 961.0174,-180.4084 1049.5401,-156.1583"/>
<polygon fill="#191970" stroke="#191970" points="1050.4766,-159.5308 1059.1965,-153.513 1048.627,-152.7795 1050.4766,-159.5308"/>
</g>
<!-- Node14 -->
<g id="node15" class="node">
<title>Node14</title>
<g id="a_node15"><a xlink:href="$unstructured__domains_8h.html" xlink:title="Functions to modify unstructured domains, e.g. to incorporate ligands binding to unpaired stretches.">
<polygon fill="none" stroke="#000000" points="1189.5,-123.5 1189.5,-153.5 1314.5,-153.5 1314.5,-123.5 1189.5,-123.5"/>
<text text-anchor="start" x="1197.5" y="-141.5" font-family="Helvetica,sans-Serif" font-size="10.00" fill="#000000">ViennaRNA/unstructured</text>
<text text-anchor="middle" x="1252" y="-130.5" font-family="Helvetica,sans-Serif" font-size="10.00" fill="#000000">_domains.h</text>
</a>
</g>
</g>
<!-- Node1&#45;&gt;Node14 -->
<g id="edge40" class="edge">
<title>Node1&#45;&gt;Node14</title>
<path fill="none" stroke="#191970" d="M732.0436,-246.4983C829.1417,-225.9185 1014.2681,-187.6468 1172,-154 1174.3425,-153.5003 1176.728,-152.9895 1179.141,-152.4719"/>
<polygon fill="#191970" stroke="#191970" points="1180.1328,-155.8388 1189.1753,-150.3176 1178.6634,-148.9948 1180.1328,-155.8388"/>
</g>
<!-- Node15 -->
<g id="node16" class="node">
<title>Node15</title>
<g id="a_node16"><a xlink:href="$utils_2structures_8h.html" xlink:title="Various utility&#45; and helper&#45;functions for secondary structure parsing, converting,...">
<polygon fill="none" stroke="#000000" points="1280,-62 1280,-81 1424,-81 1424,-62 1280,-62"/>
<text text-anchor="middle" x="1352" y="-69" font-family="Helvetica,sans-Serif" font-size="10.00" fill="#000000">ViennaRNA/utils/structures.h</text>
</a>
</g>
</g>
<!-- Node1&#45;&gt;Node15 -->
<g id="edge41" class="edge">
<title>Node1&#45;&gt;Node15</title>
<path fill="none" stroke="#191970" d="M732.2784,-258.9035C880.2491,-252.0033 1227.3675,-228.3257 1315,-154 1333.4174,-138.3792 1339.753,-110.152 1344.0967,-91.1196"/>
<polygon fill="#191970" stroke="#191970" points="1347.5611,-91.6826 1346.5003,-81.141 1340.7558,-90.0433 1347.5611,-91.6826"/>
</g>
<!-- Node3 -->
<g id="node4" class="node">
<title>Node3</title>
<g id="a_node4"><a xlink:title=" ">
<polygon fill="none" stroke="#bfbfbf" points="55,-.5 55,-19.5 103,-19.5 103,-.5 55,-.5"/>
<text text-anchor="middle" x="79" y="-7.5" font-family="Helvetica,sans-Serif" font-size="10.00" fill="#000000">limits.h</text>
</a>
</g>
</g>
<!-- Node2&#45;&gt;Node3 -->
<g id="edge3" class="edge">
<title>Node2&#45;&gt;Node3</title>
<path fill="none" stroke="#191970" d="M79,-61.8906C79,-53.3657 79,-40.6392 79,-29.9235"/>
<polygon fill="#191970" stroke="#191970" points="82.5001,-29.7448 79,-19.7449 75.5001,-29.7449 82.5001,-29.7448"/>
</g>
<!-- Node4&#45;&gt;Node5 -->
<g id="edge5" class="edge">
<title>Node4&#45;&gt;Node5</title>
<path fill="none" stroke="#191970" d="M649.3971,-190.3945C635.0028,-181.3822 613.1752,-167.331 595,-154 577.4248,-141.1091 576.8523,-131.9972 557,-123 514.7362,-103.8458 390.7918,-87.15 314.2322,-78.2773"/>
<polygon fill="#191970" stroke="#191970" points="314.5517,-74.7911 304.2183,-77.13 313.7549,-81.7456 314.5517,-74.7911"/>
</g>
<!-- Node4&#45;&gt;Node6 -->
<g id="edge6" class="edge">
<title>Node4&#45;&gt;Node6</title>
<path fill="none" stroke="#191970" d="M591.9415,-192.5412C511.0113,-183.6916 376.9802,-168.3274 262,-154 250.2451,-152.5353 237.8326,-150.9416 225.7625,-149.3519"/>
<polygon fill="#191970" stroke="#191970" points="226.0996,-145.8661 215.7262,-148.0205 225.179,-152.8053 226.0996,-145.8661"/>
</g>
<!-- Node7 -->
<g id="node8" class="node">
<title>Node7</title>
<g id="a_node8"><a xlink:href="$sequence_8h.html" xlink:title="Functions and data structures related to sequence representations ,.">
<polygon fill="none" stroke="#000000" points="604,-129 604,-148 726,-148 726,-129 604,-129"/>
<text text-anchor="middle" x="665" y="-136" font-family="Helvetica,sans-Serif" font-size="10.00" fill="#000000">ViennaRNA/sequence.h</text>
</a>
</g>
</g>
<!-- Node4&#45;&gt;Node7 -->
<g id="edge11" class="edge">
<title>Node4&#45;&gt;Node7</title>
<path fill="none" stroke="#191970" d="M659.9375,-190.3906C658.2741,-181.8657 657.8404,-169.1392 658.6365,-158.4235"/>
<polygon fill="#191970" stroke="#191970" points="662.1414,-158.6023 659.9112,-148.2449 655.1956,-157.7324 662.1414,-158.6023"/>
</g>
<!-- Node4&#45;&gt;Node8 -->
<g id="edge13" class="edge">
<title>Node4&#45;&gt;Node8</title>
<path fill="none" stroke="#191970" d="M606.3457,-190.4297C555.0676,-181.2683 478.9337,-166.9635 413,-154 406.6701,-152.7555 400.0478,-151.4339 393.5233,-150.1078"/>
<polygon fill="#191970" stroke="#191970" points="393.9065,-146.6135 383.4068,-148.0304 392.4984,-153.4704 393.9065,-146.6135"/>
</g>
<!-- Node4&#45;&gt;Node9 -->
<g id="edge16" class="edge">
<title>Node4&#45;&gt;Node9</title>
<path fill="none" stroke="#191970" d="M687.5938,-190.3906C711.682,-181.4123 750.5472,-167.7735 783.3025,-156.7316"/>
<polygon fill="#191970" stroke="#191970" points="784.4361,-160.0431 792.8038,-153.5446 782.2099,-153.4065 784.4361,-160.0431"/>
</g>
<!-- Node4&#45;&gt;Node11 -->
<g id="edge20" class="edge">
<title>Node4&#45;&gt;Node11</title>
<path fill="none" stroke="#191970" d="M712.3288,-190.469C760.2777,-181.5637 836.2705,-167.6312 902,-154 904.4379,-153.4944 906.9229,-152.9701 909.4363,-152.4332"/>
<polygon fill="#191970" stroke="#191970" points="910.1988,-155.8493 919.2325,-150.3138 908.7185,-149.0076 910.1988,-155.8493"/>
</g>
<!-- Node4&#45;&gt;Node12 -->
<g id="edge24" class="edge">
<title>Node4&#45;&gt;Node12</title>
<path fill="none" stroke="#191970" d="M632.4375,-190.3906C600.5678,-179.9652 552.5542,-163.2559 520.9139,-151.6252"/>
<polygon fill="#191970" stroke="#191970" points="521.8506,-148.2397 511.2576,-148.0419 519.4152,-154.8024 521.8506,-148.2397"/>
</g>
<!-- Node4&#45;&gt;Node13 -->
<g id="edge26" class="edge">
<title>Node4&#45;&gt;Node13</title>
<path fill="none" stroke="#191970" d="M738.0663,-193.6606C813.1335,-186.5965 933.5278,-173.7399 1046.2968,-154.1926"/>
<polygon fill="#191970" stroke="#191970" points="1047.2407,-157.5805 1056.485,-152.4044 1046.0305,-150.6859 1047.2407,-157.5805"/>
</g>
<!-- Node4&#45;&gt;Node14 -->
<g id="edge27" class="edge">
<title>Node4&#45;&gt;Node14</title>
<path fill="none" stroke="#191970" d="M738.2551,-196.03C837.147,-190.2397 1018.4207,-177.5137 1172,-154 1174.3676,-153.6375 1176.7745,-153.2435 1179.2056,-152.8248"/>
<polygon fill="#191970" stroke="#191970" points="1180.0889,-156.2214 1189.2967,-150.9804 1178.8303,-149.3354 1180.0889,-156.2214"/>
</g>
<!-- Node6&#45;&gt;Node1 -->
<g id="edge8" class="edge">
<title>Node6&#45;&gt;Node1</title>
<path fill="none" stroke="#191970" d="M167.2389,-148.1545C184.171,-164.1112 213.4593,-195.6464 246,-210 305.8907,-236.4177 483.7679,-250.7783 587.5568,-257.2246"/>
<polygon fill="#191970" stroke="#191970" points="587.4769,-260.7261 597.6717,-257.8424 587.9037,-253.7392 587.4769,-260.7261"/>
</g>
<!-- Node6&#45;&gt;Node2 -->
<g id="edge7" class="edge">
<title>Node6&#45;&gt;Node2</title>
<path fill="none" stroke="#191970" d="M143.2543,-128.9005C131.336,-118.2535 111.8943,-100.8856 97.5132,-88.0385"/>
<polygon fill="#191970" stroke="#191970" points="99.5151,-85.1337 89.7257,-81.0817 94.8516,-90.354 99.5151,-85.1337"/>
</g>
<!-- Node6&#45;&gt;Node4 -->
<g id="edge9" class="edge">
<title>Node6&#45;&gt;Node4</title>
<path fill="none" stroke="#191970" d="M223.0031,-146.6834C241.5861,-149.0982 261.5989,-151.7071 280,-154 383.9899,-166.9579 503.5629,-180.764 581.5619,-189.8316"/>
<polygon fill="#191970" stroke="#191970" points="581.4738,-193.3449 591.8113,-191.0238 582.2827,-186.3917 581.4738,-193.3449"/>
</g>
<!-- Node6&#45;&gt;Node5 -->
<g id="edge10" class="edge">
<title>Node6&#45;&gt;Node5</title>
<path fill="none" stroke="#191970" d="M167.8977,-128.9005C183.8164,-117.9052 210.1121,-99.7422 228.8599,-86.7927"/>
<polygon fill="#191970" stroke="#191970" points="230.8892,-89.6448 237.128,-81.0817 226.9108,-83.8852 230.8892,-89.6448"/>
</g>
<!-- Node7&#45;&gt;Node4 -->
<g id="edge12" class="edge">
<title>Node7&#45;&gt;Node4</title>
<path fill="none" stroke="#191970" d="M670.0888,-148.2449C671.7392,-156.814 672.1598,-169.5519 671.3508,-180.2462"/>
<polygon fill="#191970" stroke="#191970" points="667.8503,-180.0293 670.0625,-190.3906 674.7945,-180.9113 667.8503,-180.0293"/>
</g>
<!-- Node8&#45;&gt;Node1 -->
<g id="edge14" class="edge">
<title>Node8&#45;&gt;Node1</title>
<path fill="none" stroke="#191970" d="M374.5916,-148.0493C430.627,-168.3266 554.6741,-216.0023 621.1269,-242.6452"/>
<polygon fill="#191970" stroke="#191970" points="619.915,-245.9303 630.4986,-246.4178 622.529,-239.4366 619.915,-245.9303"/>
</g>
<!-- Node8&#45;&gt;Node4 -->
<g id="edge15" class="edge">
<title>Node8&#45;&gt;Node4</title>
<path fill="none" stroke="#191970" d="M400.9895,-148.0304C411.03,-150.0283 421.3544,-152.1036 431,-154 492.4265,-166.0773 562.7063,-179.3188 610.167,-188.4809"/>
<polygon fill="#191970" stroke="#191970" points="609.7503,-191.9651 620.2333,-190.4297 611.0809,-185.0927 609.7503,-191.9651"/>
</g>
<!-- Node9&#45;&gt;Node4 -->
<g id="edge17" class="edge">
<title>Node9&#45;&gt;Node4</title>
<path fill="none" stroke="#191970" d="M804.598,-153.5446C776.115,-163.8684 737.011,-177.4207 707.3766,-187.221"/>
<polygon fill="#191970" stroke="#191970" points="706.1287,-183.9468 697.7188,-190.3906 708.3116,-190.5978 706.1287,-183.9468"/>
</g>
<!-- Node10 -->
<g id="node11" class="node">
<title>Node10</title>
<g id="a_node11"><a xlink:href="$constraints_2basic_8h.html" xlink:title="Functions and data structures for constraining secondary structure predictions and evaluation.">
<polygon fill="none" stroke="#000000" points="782.5,-56.5 782.5,-86.5 901.5,-86.5 901.5,-56.5 782.5,-56.5"/>
<text text-anchor="start" x="790.5" y="-74.5" font-family="Helvetica,sans-Serif" font-size="10.00" fill="#000000">ViennaRNA/constraints</text>
<text text-anchor="middle" x="842" y="-63.5" font-family="Helvetica,sans-Serif" font-size="10.00" fill="#000000">/basic.h</text>
</a>
</g>
</g>
<!-- Node9&#45;&gt;Node10 -->
<g id="edge18" class="edge">
<title>Node9&#45;&gt;Node10</title>
<path fill="none" stroke="#191970" d="M842,-123.2967C842,-115.5013 842,-105.7991 842,-96.9064"/>
<polygon fill="#191970" stroke="#191970" points="845.5001,-96.6431 842,-86.6432 838.5001,-96.6432 845.5001,-96.6431"/>
</g>
<!-- Node10&#45;&gt;Node4 -->
<g id="edge19" class="edge">
<title>Node10&#45;&gt;Node4</title>
<path fill="none" stroke="#191970" d="M821.6723,-86.7003C808.109,-96.8901 789.9121,-110.6531 774,-123 756.5065,-136.5739 752.937,-141.0179 735,-154 720.1642,-164.7375 702.9846,-176.0429 689.3576,-184.7589"/>
<polygon fill="#191970" stroke="#191970" points="687.1309,-182.0266 680.5635,-190.3405 690.8821,-187.9367 687.1309,-182.0266"/>
</g>
<!-- Node11&#45;&gt;Node1 -->
<g id="edge21" class="edge">
<title>Node11&#45;&gt;Node1</title>
<path fill="none" stroke="#191970" d="M945.28,-153.513C890.6224,-175.9876 782.6247,-218.3454 717.7533,-242.7986"/>
<polygon fill="#191970" stroke="#191970" points="716.2477,-239.6252 708.1168,-246.4178 718.709,-246.1783 716.2477,-239.6252"/>
</g>
<!-- Node11&#45;&gt;Node4 -->
<g id="edge22" class="edge">
<title>Node11&#45;&gt;Node4</title>
<path fill="none" stroke="#191970" d="M922.1454,-153.5528C921.4267,-153.7034 920.7114,-153.8525 920,-154 858.3786,-166.7792 787.7367,-179.8234 736.3783,-188.7416"/>
<polygon fill="#191970" stroke="#191970" points="735.6309,-185.3188 726.3721,-190.469 736.8218,-192.2168 735.6309,-185.3188"/>
</g>
<!-- Node11&#45;&gt;Node10 -->
<g id="edge23" class="edge">
<title>Node11&#45;&gt;Node10</title>
<path fill="none" stroke="#191970" d="M948.2545,-123.4639C928.7376,-113.9191 903.2743,-101.4663 882.1675,-91.144"/>
<polygon fill="#191970" stroke="#191970" points="883.6378,-87.9669 873.1169,-86.7177 880.5625,-94.2552 883.6378,-87.9669"/>
</g>
<!-- Node12&#45;&gt;Node4 -->
<g id="edge25" class="edge">
<title>Node12&#45;&gt;Node4</title>
<path fill="none" stroke="#191970" d="M521.3562,-148.0419C553.156,-158.4402 601.1699,-175.1468 632.8808,-186.7993"/>
<polygon fill="#191970" stroke="#191970" points="631.9695,-190.1943 642.5625,-190.3906 634.404,-183.6312 631.9695,-190.1943"/>
</g>
<!-- Node14&#45;&gt;Node1 -->
<g id="edge28" class="edge">
<title>Node14&#45;&gt;Node1</title>
<path fill="none" stroke="#191970" d="M1192.2332,-153.523C1191.485,-153.683 1190.7403,-153.8421 1190,-154 1031.2886,-187.8558 844.8414,-226.394 742.2607,-246.8796"/>
<polygon fill="#191970" stroke="#191970" points="741.4193,-243.4784 732.2961,-248.8652 742.7873,-250.3434 741.4193,-243.4784"/>
</g>
<!-- Node14&#45;&gt;Node4 -->
<g id="edge29" class="edge">
<title>Node14&#45;&gt;Node4</title>
<path fill="none" stroke="#191970" d="M1193.0124,-153.5255C1192.0024,-153.6889 1190.9977,-153.8472 1190,-154 1035.3474,-177.678 852.6119,-190.4171 748.5461,-196.1504"/>
<polygon fill="#191970" stroke="#191970" points="748.2113,-192.6633 738.4156,-196.6999 748.5906,-199.653 748.2113,-192.6633"/>
</g>
<!-- Node14&#45;&gt;Node15 -->
<g id="edge30" class="edge">
<title>Node14&#45;&gt;Node15</title>
<path fill="none" stroke="#191970" d="M1274.6915,-123.2967C1291.0283,-112.351 1312.9759,-97.6462 1329.3119,-86.701"/>
<polygon fill="#191970" stroke="#191970" points="1331.3793,-89.5289 1337.7388,-81.055 1327.483,-83.7135 1331.3793,-89.5289"/>
</g>
<!-- Node15&#45;&gt;Node1 -->
<g id="edge32" class="edge">
<title>Node15&#45;&gt;Node1</title>
<path fill="none" stroke="#191970" d="M1357.0246,-81.141C1359.7745,-98.5866 1355.0321,-135.3134 1333,-154 1245.412,-228.288 898.6013,-251.9792 742.1568,-258.893"/>
<polygon fill="#191970" stroke="#191970" points="741.9723,-255.3976 732.1321,-259.3245 742.2734,-262.3912 741.9723,-255.3976"/>
</g>
<!-- Node16 -->
<g id="node17" class="node">
<title>Node16</title>
<g id="a_node17"><a xlink:title=" ">
<polygon fill="none" stroke="#bfbfbf" points="1329,-.5 1329,-19.5 1375,-19.5 1375,-.5 1329,-.5"/>
<text text-anchor="middle" x="1352" y="-7.5" font-family="Helvetica,sans-Serif" font-size="10.00" fill="#000000">stdio.h</text>
</a>
</g>
</g>
<!-- Node15&#45;&gt;Node16 -->
<g id="edge31" class="edge">
<title>Node15&#45;&gt;Node16</title>
<path fill="none" stroke="#191970" d="M1352,-61.8906C1352,-53.3657 1352,-40.6392 1352,-29.9235"/>
<polygon fill="#191970" stroke="#191970" points="1355.5001,-29.7448 1352,-19.7449 1348.5001,-29.7449 1355.5001,-29.7448"/>
</g>
</g>
</svg>
