<?xml version="1.0" encoding="UTF-8" standalone="no"?>
<!DOCTYPE svg PUBLIC "-//W3C//DTD SVG 1.1//EN"
 "http://www.w3.org/Graphics/SVG/1.1/DTD/svg11.dtd">
<!-- Generated by graphviz version 2.40.1 (0)
 -->
<!-- Title: ViennaRNA/mfe.h Pages: 1 -->
<svg width="1331pt" height="341pt"
 viewBox="0.00 0.00 1330.91 341.00" xmlns="http://www.w3.org/2000/svg" xmlns:xlink="http://www.w3.org/1999/xlink">
<g id="graph0" class="graph" transform="scale(1 1) rotate(0) translate(4 337)">
<title>ViennaRNA/mfe.h</title>
<!-- Node0 -->
<g id="node1" class="node">
<title>Node0</title>
<g id="a_node1"><a xlink:title="Compute Minimum Free energy (MFE) and backtrace corresponding secondary structures from RNA sequence ...">
<polygon fill="#bfbfbf" stroke="#000000" points="680.5214,-313.5 680.5214,-332.5 776.5214,-332.5 776.5214,-313.5 680.5214,-313.5"/>
<text text-anchor="middle" x="728.5214" y="-320.5" font-family="Helvetica,sans-Serif" font-size="10.00" fill="#000000">ViennaRNA/mfe.h</text>
</a>
</g>
</g>
<!-- Node1 -->
<g id="node2" class="node">
<title>Node1</title>
<g id="a_node2"><a xlink:title=" ">
<polygon fill="none" stroke="#bfbfbf" points="670.5214,-.5 670.5214,-19.5 716.5214,-19.5 716.5214,-.5 670.5214,-.5"/>
<text text-anchor="middle" x="693.5214" y="-7.5" font-family="Helvetica,sans-Serif" font-size="10.00" fill="#000000">stdio.h</text>
</a>
</g>
</g>
<!-- Node0&#45;&gt;Node1 -->
<g id="edge1" class="edge">
<title>Node0&#45;&gt;Node1</title>
<path fill="none" stroke="#191970" d="M776.9672,-318.0673C918.3542,-303.0255 1320.5214,-255.3731 1320.5214,-200 1320.5214,-200 1320.5214,-200 1320.5214,-138.5 1320.5214,-100.8735 1330.0564,-80.5256 1301.5214,-56 1257.7845,-18.4086 847.9261,-11.4837 726.97,-10.2553"/>
<polygon fill="#191970" stroke="#191970" points="726.8586,-6.7542 716.8258,-10.159 726.792,-13.7539 726.8586,-6.7542"/>
</g>
<!-- Node2 -->
<g id="node3" class="node">
<title>Node2</title>
<g id="a_node3"><a xlink:href="$datastructures_2basic_8h.html" xlink:title="Various data structures and pre&#45;processor macros.">
<polygon fill="none" stroke="#000000" points="661.5214,-246.5 661.5214,-276.5 795.5214,-276.5 795.5214,-246.5 661.5214,-246.5"/>
<text text-anchor="start" x="669.5214" y="-264.5" font-family="Helvetica,sans-Serif" font-size="10.00" fill="#000000">ViennaRNA/datastructures</text>
<text text-anchor="middle" x="728.5214" y="-253.5" font-family="Helvetica,sans-Serif" font-size="10.00" fill="#000000">/basic.h</text>
</a>
</g>
</g>
<!-- Node0&#45;&gt;Node2 -->
<g id="edge2" class="edge">
<title>Node0&#45;&gt;Node2</title>
<path fill="none" stroke="#191970" d="M728.5214,-313.3906C728.5214,-306.2234 728.5214,-296.0862 728.5214,-286.671"/>
<polygon fill="#191970" stroke="#191970" points="732.0215,-286.5446 728.5214,-276.5446 725.0215,-286.5446 732.0215,-286.5446"/>
</g>
<!-- Node5 -->
<g id="node6" class="node">
<title>Node5</title>
<g id="a_node6"><a xlink:href="$fold__compound_8h.html" xlink:title="The Basic Fold Compound API.">
<polygon fill="none" stroke="#000000" points="557.5214,-190.5 557.5214,-209.5 703.5214,-209.5 703.5214,-190.5 557.5214,-190.5"/>
<text text-anchor="middle" x="630.5214" y="-197.5" font-family="Helvetica,sans-Serif" font-size="10.00" fill="#000000">ViennaRNA/fold_compound.h</text>
</a>
</g>
</g>
<!-- Node0&#45;&gt;Node5 -->
<g id="edge43" class="edge">
<title>Node0&#45;&gt;Node5</title>
<path fill="none" stroke="#191970" d="M703.2015,-313.4698C686.5181,-305.9584 665.4428,-293.9127 652.5214,-277 639.7656,-260.3042 634.4033,-236.4867 632.1506,-219.7741"/>
<polygon fill="#191970" stroke="#191970" points="635.5955,-219.077 631.0351,-209.5138 628.6365,-219.8336 635.5955,-219.077"/>
</g>
<!-- Node3 -->
<g id="node4" class="node">
<title>Node3</title>
<g id="a_node4"><a xlink:href="$constants_8h.html" xlink:title="Energy parameter constants.">
<polygon fill="none" stroke="#000000" points="1134.5214,-62 1134.5214,-81 1292.5214,-81 1292.5214,-62 1134.5214,-62"/>
<text text-anchor="middle" x="1213.5214" y="-69" font-family="Helvetica,sans-Serif" font-size="10.00" fill="#000000">ViennaRNA/params/constants.h</text>
</a>
</g>
</g>
<!-- Node2&#45;&gt;Node3 -->
<g id="edge3" class="edge">
<title>Node2&#45;&gt;Node3</title>
<path fill="none" stroke="#191970" d="M795.7641,-257.0176C898.6705,-249.5446 1090.0762,-233.0521 1154.5214,-210 1198.1717,-194.3863 1220.2131,-194.6384 1242.5214,-154 1254.093,-132.9203 1240.2442,-106.3437 1228.0012,-89.1416"/>
<polygon fill="#191970" stroke="#191970" points="1230.7192,-86.9333 1221.8884,-81.0793 1225.1412,-91.1625 1230.7192,-86.9333"/>
</g>
<!-- Node2&#45;&gt;Node5 -->
<g id="edge5" class="edge">
<title>Node2&#45;&gt;Node5</title>
<path fill="none" stroke="#191970" d="M704.5479,-246.4554C689.3438,-236.9141 669.7455,-224.6151 654.5339,-215.0691"/>
<polygon fill="#191970" stroke="#191970" points="656.0386,-211.8813 645.7079,-209.5303 652.3177,-217.8105 656.0386,-211.8813"/>
</g>
<!-- Node6 -->
<g id="node7" class="node">
<title>Node6</title>
<g id="a_node7"><a xlink:href="$model_8h.html" xlink:title="The model details data structure and its corresponding modifiers.">
<polygon fill="none" stroke="#000000" points="1010.5214,-62 1010.5214,-81 1116.5214,-81 1116.5214,-62 1010.5214,-62"/>
<text text-anchor="middle" x="1063.5214" y="-69" font-family="Helvetica,sans-Serif" font-size="10.00" fill="#000000">ViennaRNA/model.h</text>
</a>
</g>
</g>
<!-- Node2&#45;&gt;Node6 -->
<g id="edge34" class="edge">
<title>Node2&#45;&gt;Node6</title>
<path fill="none" stroke="#191970" d="M795.7192,-257.1077C918.6917,-247.519 1172.2358,-220.0434 1225.5214,-154 1234.1729,-143.2772 1233.6552,-134.1206 1225.5214,-123 1218.5362,-113.4497 1156.7276,-95.6544 1111.5251,-83.6921"/>
<polygon fill="#191970" stroke="#191970" points="1112.1458,-80.2366 1101.5849,-81.0841 1110.3693,-87.0074 1112.1458,-80.2366"/>
</g>
<!-- Node7 -->
<g id="node8" class="node">
<title>Node7</title>
<g id="a_node8"><a xlink:href="$params_2basic_8h.html" xlink:title="Functions to deal with sets of energy parameters.">
<polygon fill="none" stroke="#000000" points="1078.5214,-129 1078.5214,-148 1216.5214,-148 1216.5214,-129 1078.5214,-129"/>
<text text-anchor="middle" x="1147.5214" y="-136" font-family="Helvetica,sans-Serif" font-size="10.00" fill="#000000">ViennaRNA/params/basic.h</text>
</a>
</g>
</g>
<!-- Node2&#45;&gt;Node7 -->
<g id="edge35" class="edge">
<title>Node2&#45;&gt;Node7</title>
<path fill="none" stroke="#191970" d="M775.2848,-246.4178C856.1466,-221.8104 1020.8376,-173.4997 1101.3154,-150.8154"/>
<polygon fill="#191970" stroke="#191970" points="1102.4847,-154.1225 1111.1661,-148.0493 1100.5923,-147.3831 1102.4847,-154.1225"/>
</g>
<!-- Node9 -->
<g id="node10" class="node">
<title>Node9</title>
<g id="a_node10"><a xlink:href="$dp__matrices_8h.html" xlink:title="Functions to deal with standard dynamic programming (DP) matrices.">
<polygon fill="none" stroke="#000000" points="25.0214,-129 25.0214,-148 158.0214,-148 158.0214,-129 25.0214,-129"/>
<text text-anchor="middle" x="91.5214" y="-136" font-family="Helvetica,sans-Serif" font-size="10.00" fill="#000000">ViennaRNA/dp_matrices.h</text>
</a>
</g>
</g>
<!-- Node2&#45;&gt;Node9 -->
<g id="edge36" class="edge">
<title>Node2&#45;&gt;Node9</title>
<path fill="none" stroke="#191970" d="M661.3109,-252.3838C596.4642,-242.7279 495.9124,-226.6099 409.5214,-210 311.407,-191.1361 197.5885,-165.3606 136.1395,-150.4655"/>
<polygon fill="#191970" stroke="#191970" points="136.9203,-147.0534 126.3755,-148.0821 135.2602,-153.8537 136.9203,-147.0534"/>
</g>
<!-- Node10 -->
<g id="node11" class="node">
<title>Node10</title>
<g id="a_node11"><a xlink:href="$hard_8h.html" xlink:title="Functions and data structures for handling of secondary structure hard constraints.">
<polygon fill="none" stroke="#000000" points="319.0214,-123.5 319.0214,-153.5 438.0214,-153.5 438.0214,-123.5 319.0214,-123.5"/>
<text text-anchor="start" x="327.0214" y="-141.5" font-family="Helvetica,sans-Serif" font-size="10.00" fill="#000000">ViennaRNA/constraints</text>
<text text-anchor="middle" x="378.5214" y="-130.5" font-family="Helvetica,sans-Serif" font-size="10.00" fill="#000000">/hard.h</text>
</a>
</g>
</g>
<!-- Node2&#45;&gt;Node10 -->
<g id="edge37" class="edge">
<title>Node2&#45;&gt;Node10</title>
<path fill="none" stroke="#191970" d="M669.1885,-246.4387C633.8224,-236.9885 588.2268,-223.9737 548.5214,-210 503.9365,-194.309 454.2426,-172.9392 420.1572,-157.6574"/>
<polygon fill="#191970" stroke="#191970" points="421.5295,-154.4368 410.9745,-153.5183 418.6529,-160.8185 421.5295,-154.4368"/>
</g>
<!-- Node12 -->
<g id="node13" class="node">
<title>Node12</title>
<g id="a_node13"><a xlink:href="$soft_8h.html" xlink:title="Functions and data structures for secondary structure soft constraints.">
<polygon fill="none" stroke="#000000" points="808.0214,-123.5 808.0214,-153.5 927.0214,-153.5 927.0214,-123.5 808.0214,-123.5"/>
<text text-anchor="start" x="816.0214" y="-141.5" font-family="Helvetica,sans-Serif" font-size="10.00" fill="#000000">ViennaRNA/constraints</text>
<text text-anchor="middle" x="867.5214" y="-130.5" font-family="Helvetica,sans-Serif" font-size="10.00" fill="#000000">/soft.h</text>
</a>
</g>
</g>
<!-- Node2&#45;&gt;Node12 -->
<g id="edge38" class="edge">
<title>Node2&#45;&gt;Node12</title>
<path fill="none" stroke="#191970" d="M740.9513,-246.4178C762.7381,-224.8395 807.4938,-185.0342 837.6283,-160.2653"/>
<polygon fill="#191970" stroke="#191970" points="840.1509,-162.7256 845.7088,-153.7056 835.739,-157.2909 840.1509,-162.7256"/>
</g>
<!-- Node13 -->
<g id="node14" class="node">
<title>Node13</title>
<g id="a_node14"><a xlink:href="$grammar_8h.html" xlink:title="Implementations for the RNA folding grammar.">
<polygon fill="none" stroke="#000000" points="673.0214,-129 673.0214,-148 790.0214,-148 790.0214,-129 673.0214,-129"/>
<text text-anchor="middle" x="731.5214" y="-136" font-family="Helvetica,sans-Serif" font-size="10.00" fill="#000000">ViennaRNA/grammar.h</text>
</a>
</g>
</g>
<!-- Node2&#45;&gt;Node13 -->
<g id="edge39" class="edge">
<title>Node2&#45;&gt;Node13</title>
<path fill="none" stroke="#191970" d="M728.8892,-246.4178C729.4295,-224.2662 730.4383,-182.9061 731.0379,-158.3234"/>
<polygon fill="#191970" stroke="#191970" points="734.5435,-158.1317 731.2885,-148.0493 727.5456,-157.9609 734.5435,-158.1317"/>
</g>
<!-- Node14 -->
<g id="node15" class="node">
<title>Node14</title>
<g id="a_node15"><a xlink:href="$structured__domains_8h.html" xlink:title="This module provides interfaces that deal with additional structured domains in the folding grammar.">
<polygon fill="none" stroke="#000000" points="945.0214,-123.5 945.0214,-153.5 1060.0214,-153.5 1060.0214,-123.5 945.0214,-123.5"/>
<text text-anchor="start" x="953.0214" y="-141.5" font-family="Helvetica,sans-Serif" font-size="10.00" fill="#000000">ViennaRNA/structured</text>
<text text-anchor="middle" x="1002.5214" y="-130.5" font-family="Helvetica,sans-Serif" font-size="10.00" fill="#000000">_domains.h</text>
</a>
</g>
</g>
<!-- Node2&#45;&gt;Node14 -->
<g id="edge40" class="edge">
<title>Node2&#45;&gt;Node14</title>
<path fill="none" stroke="#191970" d="M762.1192,-246.4178C811.8633,-224.0874 905.0906,-182.2372 959.6805,-157.7315"/>
<polygon fill="#191970" stroke="#191970" points="961.3882,-160.8014 969.0778,-153.513 958.5215,-154.4154 961.3882,-160.8014"/>
</g>
<!-- Node15 -->
<g id="node16" class="node">
<title>Node15</title>
<g id="a_node16"><a xlink:href="$unstructured__domains_8h.html" xlink:title="Functions to modify unstructured domains, e.g. to incorporate ligands binding to unpaired stretches.">
<polygon fill="none" stroke="#000000" points="176.0214,-123.5 176.0214,-153.5 301.0214,-153.5 301.0214,-123.5 176.0214,-123.5"/>
<text text-anchor="start" x="184.0214" y="-141.5" font-family="Helvetica,sans-Serif" font-size="10.00" fill="#000000">ViennaRNA/unstructured</text>
<text text-anchor="middle" x="238.5214" y="-130.5" font-family="Helvetica,sans-Serif" font-size="10.00" fill="#000000">_domains.h</text>
</a>
</g>
</g>
<!-- Node2&#45;&gt;Node15 -->
<g id="edge41" class="edge">
<title>Node2&#45;&gt;Node15</title>
<path fill="none" stroke="#191970" d="M661.3289,-249.4605C611.8012,-239.5946 543.1292,-224.8795 483.5214,-210 416.9895,-193.3921 341.4212,-171.7606 291.9301,-156.6585"/>
<polygon fill="#191970" stroke="#191970" points="292.6709,-153.2247 282.084,-153.6339 290.6154,-159.9161 292.6709,-153.2247"/>
</g>
<!-- Node16 -->
<g id="node17" class="node">
<title>Node16</title>
<g id="a_node17"><a xlink:href="$utils_2structures_8h.html" xlink:title="Various utility&#45; and helper&#45;functions for secondary structure parsing, converting,...">
<polygon fill="none" stroke="#000000" points="41.5214,-62 41.5214,-81 185.5214,-81 185.5214,-62 41.5214,-62"/>
<text text-anchor="middle" x="113.5214" y="-69" font-family="Helvetica,sans-Serif" font-size="10.00" fill="#000000">ViennaRNA/utils/structures.h</text>
</a>
</g>
</g>
<!-- Node2&#45;&gt;Node16 -->
<g id="edge42" class="edge">
<title>Node2&#45;&gt;Node16</title>
<path fill="none" stroke="#191970" d="M661.4094,-256.7299C490.191,-243.4649 48.1201,-203.8152 6.5214,-154 -17.0017,-125.8306 30.5197,-99.6981 69.6804,-84.6809"/>
<polygon fill="#191970" stroke="#191970" points="71.228,-87.8412 79.4081,-81.108 68.8145,-81.2704 71.228,-87.8412"/>
</g>
<!-- Node4 -->
<g id="node5" class="node">
<title>Node4</title>
<g id="a_node5"><a xlink:title=" ">
<polygon fill="none" stroke="#bfbfbf" points="1189.5214,-.5 1189.5214,-19.5 1237.5214,-19.5 1237.5214,-.5 1189.5214,-.5"/>
<text text-anchor="middle" x="1213.5214" y="-7.5" font-family="Helvetica,sans-Serif" font-size="10.00" fill="#000000">limits.h</text>
</a>
</g>
</g>
<!-- Node3&#45;&gt;Node4 -->
<g id="edge4" class="edge">
<title>Node3&#45;&gt;Node4</title>
<path fill="none" stroke="#191970" d="M1213.5214,-61.8906C1213.5214,-53.3657 1213.5214,-40.6392 1213.5214,-29.9235"/>
<polygon fill="#191970" stroke="#191970" points="1217.0215,-29.7448 1213.5214,-19.7449 1210.0215,-29.7449 1217.0215,-29.7448"/>
</g>
<!-- Node5&#45;&gt;Node6 -->
<g id="edge6" class="edge">
<title>Node5&#45;&gt;Node6</title>
<path fill="none" stroke="#191970" d="M631.6123,-190.3428C634.0538,-173.6425 641.5883,-139.5692 663.5214,-123 689.8455,-103.1137 894.2201,-84.5945 1000.206,-76.2084"/>
<polygon fill="#191970" stroke="#191970" points="1000.7606,-79.6758 1010.4564,-75.4047 1000.2134,-72.6972 1000.7606,-79.6758"/>
</g>
<!-- Node5&#45;&gt;Node7 -->
<g id="edge7" class="edge">
<title>Node5&#45;&gt;Node7</title>
<path fill="none" stroke="#191970" d="M703.9071,-193.8378C789.7145,-186.5266 935.6923,-172.9022 1060.5214,-154 1068.2,-152.8373 1076.27,-151.4372 1084.2842,-149.9602"/>
<polygon fill="#191970" stroke="#191970" points="1085.1926,-153.3507 1094.372,-148.0602 1083.897,-146.4716 1085.1926,-153.3507"/>
</g>
<!-- Node8 -->
<g id="node9" class="node">
<title>Node8</title>
<g id="a_node9"><a xlink:href="$sequence_8h.html" xlink:title="Functions and data structures related to sequence representations ,.">
<polygon fill="none" stroke="#000000" points="494.5214,-129 494.5214,-148 616.5214,-148 616.5214,-129 494.5214,-129"/>
<text text-anchor="middle" x="555.5214" y="-136" font-family="Helvetica,sans-Serif" font-size="10.00" fill="#000000">ViennaRNA/sequence.h</text>
</a>
</g>
</g>
<!-- Node5&#45;&gt;Node8 -->
<g id="edge12" class="edge">
<title>Node5&#45;&gt;Node8</title>
<path fill="none" stroke="#191970" d="M613.7401,-190.3906C600.4111,-180.9683 582.3249,-166.4134 569.7107,-155.1137"/>
<polygon fill="#191970" stroke="#191970" points="572.0253,-152.4866 562.3166,-148.2449 567.261,-157.6152 572.0253,-152.4866"/>
</g>
<!-- Node5&#45;&gt;Node9 -->
<g id="edge14" class="edge">
<title>Node5&#45;&gt;Node9</title>
<path fill="none" stroke="#191970" d="M557.2956,-195.5673C463.9162,-189.0861 297.9663,-175.4139 157.5214,-154 150.2018,-152.884 142.5177,-151.52 135.0667,-150.0688"/>
<polygon fill="#191970" stroke="#191970" points="135.6028,-146.6064 125.1069,-148.051 134.2128,-153.467 135.6028,-146.6064"/>
</g>
<!-- Node5&#45;&gt;Node10 -->
<g id="edge17" class="edge">
<title>Node5&#45;&gt;Node10</title>
<path fill="none" stroke="#191970" d="M586.3736,-190.4581C547.0452,-181.2991 489.0891,-167.2458 444.3222,-156.0631"/>
<polygon fill="#191970" stroke="#191970" points="444.9559,-152.6137 434.405,-153.5784 443.2546,-159.4039 444.9559,-152.6137"/>
</g>
<!-- Node5&#45;&gt;Node12 -->
<g id="edge21" class="edge">
<title>Node5&#45;&gt;Node12</title>
<path fill="none" stroke="#191970" d="M662.4901,-190.3906C697.0768,-180.9369 753.0874,-166.3163 797.8735,-155.0008"/>
<polygon fill="#191970" stroke="#191970" points="798.9859,-158.33 807.8283,-152.4938 797.2764,-151.5419 798.9859,-158.33"/>
</g>
<!-- Node5&#45;&gt;Node13 -->
<g id="edge25" class="edge">
<title>Node5&#45;&gt;Node13</title>
<path fill="none" stroke="#191970" d="M641.2401,-190.3906C655.7396,-180.3713 681.469,-164.5483 701.8652,-153.0071"/>
<polygon fill="#191970" stroke="#191970" points="703.7602,-155.9582 710.8017,-148.0419 700.3604,-149.8393 703.7602,-155.9582"/>
</g>
<!-- Node5&#45;&gt;Node14 -->
<g id="edge27" class="edge">
<title>Node5&#45;&gt;Node14</title>
<path fill="none" stroke="#191970" d="M703.8193,-190.572C763.4114,-182.5331 849.8627,-170.0256 934.7626,-154.0571"/>
<polygon fill="#191970" stroke="#191970" points="935.6665,-157.4481 944.8381,-152.1441 934.3607,-150.571 935.6665,-157.4481"/>
</g>
<!-- Node5&#45;&gt;Node15 -->
<g id="edge28" class="edge">
<title>Node5&#45;&gt;Node15</title>
<path fill="none" stroke="#191970" d="M557.3326,-191.9257C492.6323,-183.9736 395.7142,-170.8498 307.9969,-155.3259"/>
<polygon fill="#191970" stroke="#191970" points="308.3584,-151.8351 297.8985,-153.5205 307.1264,-158.7258 308.3584,-151.8351"/>
</g>
<!-- Node7&#45;&gt;Node2 -->
<g id="edge9" class="edge">
<title>Node7&#45;&gt;Node2</title>
<path fill="none" stroke="#191970" d="M1118.8175,-148.0493C1052.3819,-168.5759 887.1833,-217.1788 794.363,-243.6183"/>
<polygon fill="#191970" stroke="#191970" points="793.1754,-240.3172 784.5133,-246.4178 795.0892,-247.0505 793.1754,-240.3172"/>
</g>
<!-- Node7&#45;&gt;Node3 -->
<g id="edge8" class="edge">
<title>Node7&#45;&gt;Node3</title>
<path fill="none" stroke="#191970" d="M1156.9776,-128.9005C1167.3677,-118.353 1184.2552,-101.2096 1196.8738,-88.3998"/>
<polygon fill="#191970" stroke="#191970" points="1199.5584,-90.6619 1204.0827,-81.0817 1194.5716,-85.7495 1199.5584,-90.6619"/>
</g>
<!-- Node7&#45;&gt;Node5 -->
<g id="edge10" class="edge">
<title>Node7&#45;&gt;Node5</title>
<path fill="none" stroke="#191970" d="M1111.8227,-148.0602C1101.1545,-150.2126 1089.4421,-152.3463 1078.5214,-154 952.1233,-173.1397 804.0415,-186.8683 713.7193,-194.1105"/>
<polygon fill="#191970" stroke="#191970" points="713.2298,-190.6383 703.5383,-194.9189 713.7839,-197.6163 713.2298,-190.6383"/>
</g>
<!-- Node7&#45;&gt;Node6 -->
<g id="edge11" class="edge">
<title>Node7&#45;&gt;Node6</title>
<path fill="none" stroke="#191970" d="M1135.4862,-128.9005C1121.8882,-118.0544 1099.546,-100.2339 1083.359,-87.3229"/>
<polygon fill="#191970" stroke="#191970" points="1085.5345,-84.5811 1075.5342,-81.0817 1081.1695,-90.0535 1085.5345,-84.5811"/>
</g>
<!-- Node8&#45;&gt;Node5 -->
<g id="edge13" class="edge">
<title>Node8&#45;&gt;Node5</title>
<path fill="none" stroke="#191970" d="M572.2071,-148.0419C585.5917,-157.4949 603.8142,-172.1614 616.464,-183.5046"/>
<polygon fill="#191970" stroke="#191970" points="614.1598,-186.1413 623.8651,-190.3906 618.928,-181.0164 614.1598,-186.1413"/>
</g>
<!-- Node9&#45;&gt;Node2 -->
<g id="edge15" class="edge">
<title>Node9&#45;&gt;Node2</title>
<path fill="none" stroke="#191970" d="M137.6928,-148.0227C202.5336,-162.3932 323.8023,-190.0586 427.5214,-210 503.5203,-224.6118 590.4781,-238.8431 651.3838,-248.6291"/>
<polygon fill="#191970" stroke="#191970" points="650.8788,-252.0928 661.3071,-250.2214 651.9879,-245.1812 650.8788,-252.0928"/>
</g>
<!-- Node9&#45;&gt;Node5 -->
<g id="edge16" class="edge">
<title>Node9&#45;&gt;Node5</title>
<path fill="none" stroke="#191970" d="M142.5367,-148.051C153.4569,-150.2289 164.8747,-152.3767 175.5214,-154 304.9137,-173.7287 455.9548,-186.8863 547.414,-193.9033"/>
<polygon fill="#191970" stroke="#191970" points="547.2074,-197.3976 557.4442,-194.6666 547.7386,-190.4178 547.2074,-197.3976"/>
</g>
<!-- Node10&#45;&gt;Node5 -->
<g id="edge18" class="edge">
<title>Node10&#45;&gt;Node5</title>
<path fill="none" stroke="#191970" d="M438.3666,-151.7234C483.981,-162.4874 545.6538,-177.553 586.7476,-187.9788"/>
<polygon fill="#191970" stroke="#191970" points="585.9174,-191.3791 596.4722,-190.4581 587.6468,-184.596 585.9174,-191.3791"/>
</g>
<!-- Node11 -->
<g id="node12" class="node">
<title>Node11</title>
<g id="a_node12"><a xlink:href="$constraints_2basic_8h.html" xlink:title="Functions and data structures for constraining secondary structure predictions and evaluation.">
<polygon fill="none" stroke="#000000" points="407.0214,-56.5 407.0214,-86.5 526.0214,-86.5 526.0214,-56.5 407.0214,-56.5"/>
<text text-anchor="start" x="415.0214" y="-74.5" font-family="Helvetica,sans-Serif" font-size="10.00" fill="#000000">ViennaRNA/constraints</text>
<text text-anchor="middle" x="466.5214" y="-63.5" font-family="Helvetica,sans-Serif" font-size="10.00" fill="#000000">/basic.h</text>
</a>
</g>
</g>
<!-- Node10&#45;&gt;Node11 -->
<g id="edge19" class="edge">
<title>Node10&#45;&gt;Node11</title>
<path fill="none" stroke="#191970" d="M398.4899,-123.2967C410.3039,-114.302 425.452,-102.7687 438.4541,-92.8694"/>
<polygon fill="#191970" stroke="#191970" points="440.7956,-95.4857 446.6318,-86.6432 436.5552,-89.9162 440.7956,-95.4857"/>
</g>
<!-- Node11&#45;&gt;Node5 -->
<g id="edge20" class="edge">
<title>Node11&#45;&gt;Node5</title>
<path fill="none" stroke="#191970" d="M465.7789,-86.6353C465.7288,-104.921 468.4821,-135.5244 485.5214,-154 497.8369,-167.3536 538.7874,-179.6388 574.0415,-188.1478"/>
<polygon fill="#191970" stroke="#191970" points="573.2696,-191.5617 583.8054,-190.4454 574.873,-184.7478 573.2696,-191.5617"/>
</g>
<!-- Node12&#45;&gt;Node2 -->
<g id="edge22" class="edge">
<title>Node12&#45;&gt;Node2</title>
<path fill="none" stroke="#191970" d="M854.9669,-153.7056C833.0928,-175.3531 788.3213,-215.1643 758.2426,-239.8759"/>
<polygon fill="#191970" stroke="#191970" points="755.7401,-237.3992 750.1798,-246.4178 760.1505,-242.8351 755.7401,-237.3992"/>
</g>
<!-- Node12&#45;&gt;Node5 -->
<g id="edge23" class="edge">
<title>Node12&#45;&gt;Node5</title>
<path fill="none" stroke="#191970" d="M815.3154,-153.5784C775.7562,-164.1701 721.7531,-178.1473 682.2961,-187.9874"/>
<polygon fill="#191970" stroke="#191970" points="681.2042,-184.6521 672.3419,-190.4581 682.8906,-191.446 681.2042,-184.6521"/>
</g>
<!-- Node12&#45;&gt;Node11 -->
<g id="edge24" class="edge">
<title>Node12&#45;&gt;Node11</title>
<path fill="none" stroke="#191970" d="M807.7333,-124.8117C804.6218,-124.18 801.5371,-123.5719 798.5214,-123 708.3098,-105.8907 603.5065,-90.3496 536.1681,-80.9176"/>
<polygon fill="#191970" stroke="#191970" points="536.4885,-77.4285 526.1009,-79.5139 535.5217,-84.3614 536.4885,-77.4285"/>
</g>
<!-- Node13&#45;&gt;Node5 -->
<g id="edge26" class="edge">
<title>Node13&#45;&gt;Node5</title>
<path fill="none" stroke="#191970" d="M720.9002,-148.0419C706.4514,-158.035 680.7353,-173.8546 660.3152,-185.415"/>
<polygon fill="#191970" stroke="#191970" points="658.4047,-182.4726 651.3651,-190.3906 661.806,-188.5907 658.4047,-182.4726"/>
</g>
<!-- Node15&#45;&gt;Node2 -->
<g id="edge29" class="edge">
<title>Node15&#45;&gt;Node2</title>
<path fill="none" stroke="#191970" d="M295.6895,-153.6339C348.966,-168.7563 430.4059,-192.2479 501.5214,-210 551.5477,-222.4877 607.9583,-234.8596 652.0843,-244.3465"/>
<polygon fill="#191970" stroke="#191970" points="651.3654,-247.7718 661.8772,-246.4482 652.8343,-240.9277 651.3654,-247.7718"/>
</g>
<!-- Node15&#45;&gt;Node5 -->
<g id="edge30" class="edge">
<title>Node15&#45;&gt;Node5</title>
<path fill="none" stroke="#191970" d="M301.2756,-150.6756C307.1175,-151.8581 312.9342,-152.9912 318.5214,-154 396.8492,-168.1429 486.5652,-180.6943 549.6853,-189.0986"/>
<polygon fill="#191970" stroke="#191970" points="549.5998,-192.6179 559.9732,-190.4632 550.5202,-185.6786 549.5998,-192.6179"/>
</g>
<!-- Node15&#45;&gt;Node16 -->
<g id="edge31" class="edge">
<title>Node15&#45;&gt;Node16</title>
<path fill="none" stroke="#191970" d="M210.4689,-123.4639C189.4955,-112.2222 160.9958,-96.9463 140.3286,-85.8686"/>
<polygon fill="#191970" stroke="#191970" points="141.9064,-82.7433 131.4391,-81.1039 138.5994,-88.913 141.9064,-82.7433"/>
</g>
<!-- Node16&#45;&gt;Node1 -->
<g id="edge32" class="edge">
<title>Node16&#45;&gt;Node1</title>
<path fill="none" stroke="#191970" d="M185.8061,-63.8353C312.2874,-50.4239 568.977,-23.206 660.3258,-13.5199"/>
<polygon fill="#191970" stroke="#191970" points="660.8053,-16.9887 670.3805,-12.4537 660.0671,-10.0278 660.8053,-16.9887"/>
</g>
<!-- Node16&#45;&gt;Node2 -->
<g id="edge33" class="edge">
<title>Node16&#45;&gt;Node2</title>
<path fill="none" stroke="#191970" d="M91.2548,-81.108C57.0844,-95.2835 -.9952,-123.4434 24.5214,-154 64.6192,-202.0179 476.8131,-240.5906 651.2816,-255.1919"/>
<polygon fill="#191970" stroke="#191970" points="651.1643,-258.6941 661.4202,-256.0358 651.745,-251.7182 651.1643,-258.6941"/>
</g>
</g>
</svg>
