<?xml version="1.0" encoding="UTF-8" standalone="no"?>
<!DOCTYPE svg PUBLIC "-//W3C//DTD SVG 1.1//EN"
 "http://www.w3.org/Graphics/SVG/1.1/DTD/svg11.dtd">
<!-- Generated by graphviz version 2.40.1 (0)
 -->
<!-- Title: ViennaRNA/mfe_window.h Pages: 1 -->
<svg width="1251pt" height="397pt"
 viewBox="0.00 0.00 1250.50 397.00" xmlns="http://www.w3.org/2000/svg" xmlns:xlink="http://www.w3.org/1999/xlink">
<g id="graph0" class="graph" transform="scale(1 1) rotate(0) translate(4 393)">
<title>ViennaRNA/mfe_window.h</title>
<!-- Node0 -->
<g id="node1" class="node">
<title>Node0</title>
<g id="a_node1"><a xlink:title="Compute local Minimum Free Energy (MFE) using a sliding window approach and backtrace corresponding s...">
<polygon fill="#bfbfbf" stroke="#000000" points="211,-369.5 211,-388.5 345,-388.5 345,-369.5 211,-369.5"/>
<text text-anchor="middle" x="278" y="-376.5" font-family="Helvetica,sans-Serif" font-size="10.00" fill="#000000">ViennaRNA/mfe_window.h</text>
</a>
</g>
</g>
<!-- Node1 -->
<g id="node2" class="node">
<title>Node1</title>
<g id="a_node2"><a xlink:title=" ">
<polygon fill="none" stroke="#bfbfbf" points="307,-.5 307,-19.5 353,-19.5 353,-.5 307,-.5"/>
<text text-anchor="middle" x="330" y="-7.5" font-family="Helvetica,sans-Serif" font-size="10.00" fill="#000000">stdio.h</text>
</a>
</g>
</g>
<!-- Node0&#45;&gt;Node1 -->
<g id="edge1" class="edge">
<title>Node0&#45;&gt;Node1</title>
<path fill="none" stroke="#191970" d="M227.6563,-369.4462C147.5443,-352.7879 0,-315.5213 0,-267 0,-267 0,-267 0,-138.5 0,-93.9329 19.3965,-79.9207 57,-56 96.2946,-31.0035 232.5357,-17.4917 296.4315,-12.4008"/>
<polygon fill="#191970" stroke="#191970" points="297.0616,-15.8626 306.7617,-11.6012 296.5214,-8.8834 297.0616,-15.8626"/>
</g>
<!-- Node2 -->
<g id="node3" class="node">
<title>Node2</title>
<g id="a_node3"><a xlink:href="$fold__compound_8h.html" xlink:title="The Basic Fold Compound API.">
<polygon fill="none" stroke="#000000" points="483,-313.5 483,-332.5 629,-332.5 629,-313.5 483,-313.5"/>
<text text-anchor="middle" x="556" y="-320.5" font-family="Helvetica,sans-Serif" font-size="10.00" fill="#000000">ViennaRNA/fold_compound.h</text>
</a>
</g>
</g>
<!-- Node0&#45;&gt;Node2 -->
<g id="edge2" class="edge">
<title>Node0&#45;&gt;Node2</title>
<path fill="none" stroke="#191970" d="M325.474,-369.4369C373.4514,-359.7724 447.617,-344.8326 498.8051,-334.5213"/>
<polygon fill="#191970" stroke="#191970" points="499.6099,-337.9296 508.7218,-332.5237 498.2275,-331.0674 499.6099,-337.9296"/>
</g>
<!-- Node3 -->
<g id="node4" class="node">
<title>Node3</title>
<g id="a_node4"><a xlink:href="$model_8h.html" xlink:title="The model details data structure and its corresponding modifiers.">
<polygon fill="none" stroke="#000000" points="204,-129 204,-148 310,-148 310,-129 204,-129"/>
<text text-anchor="middle" x="257" y="-136" font-family="Helvetica,sans-Serif" font-size="10.00" fill="#000000">ViennaRNA/model.h</text>
</a>
</g>
</g>
<!-- Node2&#45;&gt;Node3 -->
<g id="edge3" class="edge">
<title>Node2&#45;&gt;Node3</title>
<path fill="none" stroke="#191970" d="M532.6342,-313.4839C512.2098,-304.8533 481.9951,-291.3219 457,-277 388.0832,-237.5115 312.4886,-181.2974 277.2194,-154.2421"/>
<polygon fill="#191970" stroke="#191970" points="279.2065,-151.3546 269.1501,-148.0198 274.9319,-156.898 279.2065,-151.3546"/>
</g>
<!-- Node4 -->
<g id="node5" class="node">
<title>Node4</title>
<g id="a_node5"><a xlink:href="$params_2basic_8h.html" xlink:title="Functions to deal with sets of energy parameters.">
<polygon fill="none" stroke="#000000" points="487,-257.5 487,-276.5 625,-276.5 625,-257.5 487,-257.5"/>
<text text-anchor="middle" x="556" y="-264.5" font-family="Helvetica,sans-Serif" font-size="10.00" fill="#000000">ViennaRNA/params/basic.h</text>
</a>
</g>
</g>
<!-- Node2&#45;&gt;Node4 -->
<g id="edge4" class="edge">
<title>Node2&#45;&gt;Node4</title>
<path fill="none" stroke="#191970" d="M550.7332,-313.2455C549.3221,-305.9382 548.9179,-295.6944 549.5205,-286.7046"/>
<polygon fill="#191970" stroke="#191970" points="553.0111,-286.9945 550.7549,-276.6427 546.0632,-286.1421 553.0111,-286.9945"/>
</g>
<!-- Node8 -->
<g id="node9" class="node">
<title>Node8</title>
<g id="a_node9"><a xlink:href="$dp__matrices_8h.html" xlink:title="Functions to deal with standard dynamic programming (DP) matrices.">
<polygon fill="none" stroke="#000000" points="966.5,-129 966.5,-148 1099.5,-148 1099.5,-129 966.5,-129"/>
<text text-anchor="middle" x="1033" y="-136" font-family="Helvetica,sans-Serif" font-size="10.00" fill="#000000">ViennaRNA/dp_matrices.h</text>
</a>
</g>
</g>
<!-- Node2&#45;&gt;Node8 -->
<g id="edge37" class="edge">
<title>Node2&#45;&gt;Node8</title>
<path fill="none" stroke="#191970" d="M592.9545,-313.4989C626.7999,-305.344 677.7529,-292.4733 721,-277 826.3164,-239.319 945.4275,-179.531 1001.2709,-152.5397"/>
<polygon fill="#191970" stroke="#191970" points="1003.1303,-155.5294 1010.6287,-148.0444 1000.0993,-149.2196 1003.1303,-155.5294"/>
</g>
<!-- Node9 -->
<g id="node10" class="node">
<title>Node9</title>
<g id="a_node10"><a xlink:href="$hard_8h.html" xlink:title="Functions and data structures for handling of secondary structure hard constraints.">
<polygon fill="none" stroke="#000000" points="66.5,-123.5 66.5,-153.5 185.5,-153.5 185.5,-123.5 66.5,-123.5"/>
<text text-anchor="start" x="74.5" y="-141.5" font-family="Helvetica,sans-Serif" font-size="10.00" fill="#000000">ViennaRNA/constraints</text>
<text text-anchor="middle" x="126" y="-130.5" font-family="Helvetica,sans-Serif" font-size="10.00" fill="#000000">/hard.h</text>
</a>
</g>
</g>
<!-- Node2&#45;&gt;Node9 -->
<g id="edge38" class="edge">
<title>Node2&#45;&gt;Node9</title>
<path fill="none" stroke="#191970" d="M482.665,-321.1374C391.3056,-317.5228 241.9766,-307.0387 197,-277 156.752,-250.1194 134.2253,-195.6399 126.7864,-163.6033"/>
<polygon fill="#191970" stroke="#191970" points="130.1977,-162.8107 124.8382,-153.6714 123.3286,-164.1581 130.1977,-162.8107"/>
</g>
<!-- Node11 -->
<g id="node12" class="node">
<title>Node11</title>
<g id="a_node12"><a xlink:href="$soft_8h.html" xlink:title="Functions and data structures for secondary structure soft constraints.">
<polygon fill="none" stroke="#000000" points="328.5,-123.5 328.5,-153.5 447.5,-153.5 447.5,-123.5 328.5,-123.5"/>
<text text-anchor="start" x="336.5" y="-141.5" font-family="Helvetica,sans-Serif" font-size="10.00" fill="#000000">ViennaRNA/constraints</text>
<text text-anchor="middle" x="388" y="-130.5" font-family="Helvetica,sans-Serif" font-size="10.00" fill="#000000">/soft.h</text>
</a>
</g>
</g>
<!-- Node2&#45;&gt;Node11 -->
<g id="edge39" class="edge">
<title>Node2&#45;&gt;Node11</title>
<path fill="none" stroke="#191970" d="M526.6457,-313.4469C508.3019,-305.4291 485.465,-292.7654 469,-277 433.7974,-243.2931 405.6676,-193.2954 393.3694,-163.4953"/>
<polygon fill="#191970" stroke="#191970" points="396.5274,-161.9534 389.694,-153.8568 389.9868,-164.4476 396.5274,-161.9534"/>
</g>
<!-- Node12 -->
<g id="node13" class="node">
<title>Node12</title>
<g id="a_node13"><a xlink:href="$grammar_8h.html" xlink:title="Implementations for the RNA folding grammar.">
<polygon fill="none" stroke="#000000" points="698.5,-129 698.5,-148 815.5,-148 815.5,-129 698.5,-129"/>
<text text-anchor="middle" x="757" y="-136" font-family="Helvetica,sans-Serif" font-size="10.00" fill="#000000">ViennaRNA/grammar.h</text>
</a>
</g>
</g>
<!-- Node2&#45;&gt;Node12 -->
<g id="edge40" class="edge">
<title>Node2&#45;&gt;Node12</title>
<path fill="none" stroke="#191970" d="M580.6807,-313.381C617.1346,-299.4916 684.1854,-269.9681 720,-221 733.9671,-201.9033 741.3195,-175.3423 746.9793,-157.5685"/>
<polygon fill="#191970" stroke="#191970" points="750.3231,-158.6067 750.2405,-148.0122 743.6983,-156.3458 750.3231,-158.6067"/>
</g>
<!-- Node13 -->
<g id="node14" class="node">
<title>Node13</title>
<g id="a_node14"><a xlink:href="$structured__domains_8h.html" xlink:title="This module provides interfaces that deal with additional structured domains in the folding grammar.">
<polygon fill="none" stroke="#000000" points="833.5,-123.5 833.5,-153.5 948.5,-153.5 948.5,-123.5 833.5,-123.5"/>
<text text-anchor="start" x="841.5" y="-141.5" font-family="Helvetica,sans-Serif" font-size="10.00" fill="#000000">ViennaRNA/structured</text>
<text text-anchor="middle" x="891" y="-130.5" font-family="Helvetica,sans-Serif" font-size="10.00" fill="#000000">_domains.h</text>
</a>
</g>
</g>
<!-- Node2&#45;&gt;Node13 -->
<g id="edge41" class="edge">
<title>Node2&#45;&gt;Node13</title>
<path fill="none" stroke="#191970" d="M597.7092,-313.4403C627.2207,-305.7869 667.2133,-293.5843 700,-277 764.799,-244.223 831.4504,-190.4201 866.3112,-160.433"/>
<polygon fill="#191970" stroke="#191970" points="868.8071,-162.9012 874.0652,-153.7032 864.2188,-157.6147 868.8071,-162.9012"/>
</g>
<!-- Node14 -->
<g id="node15" class="node">
<title>Node14</title>
<g id="a_node15"><a xlink:href="$unstructured__domains_8h.html" xlink:title="Functions to modify unstructured domains, e.g. to incorporate ligands binding to unpaired stretches.">
<polygon fill="none" stroke="#000000" points="1117.5,-123.5 1117.5,-153.5 1242.5,-153.5 1242.5,-123.5 1117.5,-123.5"/>
<text text-anchor="start" x="1125.5" y="-141.5" font-family="Helvetica,sans-Serif" font-size="10.00" fill="#000000">ViennaRNA/unstructured</text>
<text text-anchor="middle" x="1180" y="-130.5" font-family="Helvetica,sans-Serif" font-size="10.00" fill="#000000">_domains.h</text>
</a>
</g>
</g>
<!-- Node2&#45;&gt;Node14 -->
<g id="edge42" class="edge">
<title>Node2&#45;&gt;Node14</title>
<path fill="none" stroke="#191970" d="M604.1278,-313.4677C647.385,-305.2517 712.2596,-292.3139 768,-277 898.6678,-241.1008 1048.6595,-185.6706 1126.7267,-157.0358"/>
<polygon fill="#191970" stroke="#191970" points="1128.1565,-160.2395 1136.3416,-153.5124 1125.7479,-153.667 1128.1565,-160.2395"/>
</g>
<!-- Node16 -->
<g id="node17" class="node">
<title>Node16</title>
<g id="a_node17"><a xlink:href="$sequence_8h.html" xlink:title="Functions and data structures related to sequence representations ,.">
<polygon fill="none" stroke="#000000" points="215,-257.5 215,-276.5 337,-276.5 337,-257.5 215,-257.5"/>
<text text-anchor="middle" x="276" y="-264.5" font-family="Helvetica,sans-Serif" font-size="10.00" fill="#000000">ViennaRNA/sequence.h</text>
</a>
</g>
</g>
<!-- Node2&#45;&gt;Node16 -->
<g id="edge35" class="edge">
<title>Node2&#45;&gt;Node16</title>
<path fill="none" stroke="#191970" d="M502.9549,-313.4369C452.834,-303.7925 378.2252,-288.8948 328.339,-278.5858"/>
<polygon fill="#191970" stroke="#191970" points="328.899,-275.1275 318.3966,-276.5237 327.4774,-281.9817 328.899,-275.1275"/>
</g>
<!-- Node4&#45;&gt;Node2 -->
<g id="edge33" class="edge">
<title>Node4&#45;&gt;Node2</title>
<path fill="none" stroke="#191970" d="M561.2451,-276.6427C562.6665,-283.9199 563.081,-294.155 562.4887,-303.1575"/>
<polygon fill="#191970" stroke="#191970" points="558.9947,-302.8972 561.2668,-313.2455 565.9439,-303.739 558.9947,-302.8972"/>
</g>
<!-- Node4&#45;&gt;Node3 -->
<g id="edge34" class="edge">
<title>Node4&#45;&gt;Node3</title>
<path fill="none" stroke="#191970" d="M534.2337,-257.4402C500.8705,-242.8076 435.0588,-214.0248 379,-190 348.5921,-176.9682 313.8218,-162.3149 289.2011,-151.9805"/>
<polygon fill="#191970" stroke="#191970" points="290.5423,-148.7477 279.9668,-148.1073 287.8346,-155.2029 290.5423,-148.7477"/>
</g>
<!-- Node5 -->
<g id="node6" class="node">
<title>Node5</title>
<g id="a_node6"><a xlink:href="$constants_8h.html" xlink:title="Energy parameter constants.">
<polygon fill="none" stroke="#000000" points="466,-129 466,-148 624,-148 624,-129 466,-129"/>
<text text-anchor="middle" x="545" y="-136" font-family="Helvetica,sans-Serif" font-size="10.00" fill="#000000">ViennaRNA/params/constants.h</text>
</a>
</g>
</g>
<!-- Node4&#45;&gt;Node5 -->
<g id="edge5" class="edge">
<title>Node4&#45;&gt;Node5</title>
<path fill="none" stroke="#191970" d="M555.1732,-257.3416C553.3815,-236.4114 549.1093,-186.504 546.71,-158.4762"/>
<polygon fill="#191970" stroke="#191970" points="550.1766,-157.9355 545.8364,-148.2705 543.2021,-158.5326 550.1766,-157.9355"/>
</g>
<!-- Node7 -->
<g id="node8" class="node">
<title>Node7</title>
<g id="a_node8"><a xlink:href="$datastructures_2basic_8h.html" xlink:title="Various data structures and pre&#45;processor macros.">
<polygon fill="none" stroke="#000000" points="586,-190.5 586,-220.5 720,-220.5 720,-190.5 586,-190.5"/>
<text text-anchor="start" x="594" y="-208.5" font-family="Helvetica,sans-Serif" font-size="10.00" fill="#000000">ViennaRNA/datastructures</text>
<text text-anchor="middle" x="653" y="-197.5" font-family="Helvetica,sans-Serif" font-size="10.00" fill="#000000">/basic.h</text>
</a>
</g>
</g>
<!-- Node4&#45;&gt;Node7 -->
<g id="edge7" class="edge">
<title>Node4&#45;&gt;Node7</title>
<path fill="none" stroke="#191970" d="M566.0938,-257.3906C577.704,-248.9903 596.9429,-236.5103 614.4354,-225.8945"/>
<polygon fill="#191970" stroke="#191970" points="616.591,-228.6834 623.374,-220.5446 612.996,-222.6771 616.591,-228.6834"/>
</g>
<!-- Node6 -->
<g id="node7" class="node">
<title>Node6</title>
<g id="a_node7"><a xlink:title=" ">
<polygon fill="none" stroke="#bfbfbf" points="521,-62 521,-81 569,-81 569,-62 521,-62"/>
<text text-anchor="middle" x="545" y="-69" font-family="Helvetica,sans-Serif" font-size="10.00" fill="#000000">limits.h</text>
</a>
</g>
</g>
<!-- Node5&#45;&gt;Node6 -->
<g id="edge6" class="edge">
<title>Node5&#45;&gt;Node6</title>
<path fill="none" stroke="#191970" d="M545,-128.9005C545,-119.149 545,-103.7597 545,-91.3695"/>
<polygon fill="#191970" stroke="#191970" points="548.5001,-91.0816 545,-81.0817 541.5001,-91.0817 548.5001,-91.0816"/>
</g>
<!-- Node7&#45;&gt;Node2 -->
<g id="edge9" class="edge">
<title>Node7&#45;&gt;Node2</title>
<path fill="none" stroke="#191970" d="M652.2817,-220.635C650.8419,-236.1926 646.5731,-260.4211 634,-277 623.3009,-291.1078 606.919,-301.7056 591.9253,-309.1513"/>
<polygon fill="#191970" stroke="#191970" points="590.4216,-305.9905 582.8322,-313.3831 593.3752,-312.3369 590.4216,-305.9905"/>
</g>
<!-- Node7&#45;&gt;Node3 -->
<g id="edge10" class="edge">
<title>Node7&#45;&gt;Node3</title>
<path fill="none" stroke="#191970" d="M585.8246,-196.9913C518.1494,-187.9861 410.8781,-172.5273 319,-154 313.6978,-152.9308 308.1667,-151.7068 302.6861,-150.4256"/>
<polygon fill="#191970" stroke="#191970" points="303.4774,-147.0161 292.936,-148.0789 301.8393,-153.8218 303.4774,-147.0161"/>
</g>
<!-- Node7&#45;&gt;Node4 -->
<g id="edge11" class="edge">
<title>Node7&#45;&gt;Node4</title>
<path fill="none" stroke="#191970" d="M635.1682,-220.5446C621.0309,-230.24 601.2302,-242.7829 584.8856,-252.3912"/>
<polygon fill="#191970" stroke="#191970" points="583.1321,-249.3621 576.2188,-257.3906 586.6298,-255.4257 583.1321,-249.3621"/>
</g>
<!-- Node7&#45;&gt;Node5 -->
<g id="edge8" class="edge">
<title>Node7&#45;&gt;Node5</title>
<path fill="none" stroke="#191970" d="M628.7627,-190.4639C610.9682,-179.4247 586.9031,-164.4954 569.1331,-153.4715"/>
<polygon fill="#191970" stroke="#191970" points="570.8237,-150.4015 560.4809,-148.1039 567.1335,-156.3498 570.8237,-150.4015"/>
</g>
<!-- Node7&#45;&gt;Node8 -->
<g id="edge12" class="edge">
<title>Node7&#45;&gt;Node8</title>
<path fill="none" stroke="#191970" d="M720.1693,-193.7157C780.2424,-183.7346 870.4908,-168.7358 949,-154 955.5849,-152.764 962.4835,-151.4141 969.3856,-150.0429"/>
<polygon fill="#191970" stroke="#191970" points="970.3438,-153.4207 979.4645,-148.0296 968.9726,-146.5564 970.3438,-153.4207"/>
</g>
<!-- Node7&#45;&gt;Node9 -->
<g id="edge15" class="edge">
<title>Node7&#45;&gt;Node9</title>
<path fill="none" stroke="#191970" d="M585.9343,-200.264C498.4198,-192.9179 340.3898,-177.8973 195.7112,-154.0041"/>
<polygon fill="#191970" stroke="#191970" points="196.2003,-150.5374 185.7605,-152.343 195.0477,-157.4418 196.2003,-150.5374"/>
</g>
<!-- Node7&#45;&gt;Node11 -->
<g id="edge19" class="edge">
<title>Node7&#45;&gt;Node11</title>
<path fill="none" stroke="#191970" d="M587.7883,-190.4639C546.3693,-180.3057 493.0661,-166.8535 451.903,-156.1814"/>
<polygon fill="#191970" stroke="#191970" points="452.541,-152.731 441.982,-153.6017 450.7794,-159.5057 452.541,-152.731"/>
</g>
<!-- Node7&#45;&gt;Node12 -->
<g id="edge23" class="edge">
<title>Node7&#45;&gt;Node12</title>
<path fill="none" stroke="#191970" d="M676.3396,-190.4639C693.3179,-179.526 716.2242,-164.769 733.2882,-153.7759"/>
<polygon fill="#191970" stroke="#191970" points="735.5814,-156.462 742.0924,-148.1039 731.7904,-150.5774 735.5814,-156.462"/>
</g>
<!-- Node7&#45;&gt;Node13 -->
<g id="edge25" class="edge">
<title>Node7&#45;&gt;Node13</title>
<path fill="none" stroke="#191970" d="M706.4118,-190.4639C742.2674,-180.3701 789.6759,-167.024 827.4689,-156.3848"/>
<polygon fill="#191970" stroke="#191970" points="828.6778,-159.6806 837.3552,-153.6017 826.7809,-152.9425 828.6778,-159.6806"/>
</g>
<!-- Node7&#45;&gt;Node14 -->
<g id="edge26" class="edge">
<title>Node7&#45;&gt;Node14</title>
<path fill="none" stroke="#191970" d="M720.043,-199.546C807.7442,-191.6767 965.7822,-176.1698 1100,-154 1102.3632,-153.6097 1104.7663,-153.192 1107.1942,-152.7531"/>
<polygon fill="#191970" stroke="#191970" points="1108.1002,-156.1439 1117.2753,-150.8459 1106.7989,-149.2659 1108.1002,-156.1439"/>
</g>
<!-- Node15 -->
<g id="node16" class="node">
<title>Node15</title>
<g id="a_node16"><a xlink:href="$utils_2structures_8h.html" xlink:title="Various utility&#45; and helper&#45;functions for secondary structure parsing, converting,...">
<polygon fill="none" stroke="#000000" points="589,-62 589,-81 733,-81 733,-62 589,-62"/>
<text text-anchor="middle" x="661" y="-69" font-family="Helvetica,sans-Serif" font-size="10.00" fill="#000000">ViennaRNA/utils/structures.h</text>
</a>
</g>
</g>
<!-- Node7&#45;&gt;Node15 -->
<g id="edge32" class="edge">
<title>Node7&#45;&gt;Node15</title>
<path fill="none" stroke="#191970" d="M649.4388,-190.389C648.0155,-166.0735 650.7058,-118.2644 654.8646,-91.2698"/>
<polygon fill="#191970" stroke="#191970" points="658.3675,-91.5715 656.7291,-81.1042 651.4824,-90.3086 658.3675,-91.5715"/>
</g>
<!-- Node8&#45;&gt;Node2 -->
<g id="edge14" class="edge">
<title>Node8&#45;&gt;Node2</title>
<path fill="none" stroke="#191970" d="M1019.3857,-148.0444C977.7804,-172.2718 850.6397,-237.0565 739,-277 699.4695,-291.1436 653.5005,-303.1126 617.4408,-311.2934"/>
<polygon fill="#191970" stroke="#191970" points="616.5453,-307.907 607.5464,-313.4989 618.0684,-314.7393 616.5453,-307.907"/>
</g>
<!-- Node8&#45;&gt;Node7 -->
<g id="edge13" class="edge">
<title>Node8&#45;&gt;Node7</title>
<path fill="none" stroke="#191970" d="M997.0119,-148.0296C987.2963,-150.0684 976.8009,-152.1604 967,-154 886.591,-169.0924 793.8677,-184.4607 730.0679,-194.4314"/>
<polygon fill="#191970" stroke="#191970" points="729.4263,-190.989 720.0831,-195.9844 730.5022,-197.9058 729.4263,-190.989"/>
</g>
<!-- Node9&#45;&gt;Node2 -->
<g id="edge16" class="edge">
<title>Node9&#45;&gt;Node2</title>
<path fill="none" stroke="#191970" d="M135.0047,-153.6714C147.3587,-182.9701 170.2023,-247.0807 215,-277 256.3027,-304.585 385.6059,-315.6795 472.6365,-320.1072"/>
<polygon fill="#191970" stroke="#191970" points="472.6083,-323.6099 482.7673,-320.6024 472.9501,-316.6183 472.6083,-323.6099"/>
</g>
<!-- Node10 -->
<g id="node11" class="node">
<title>Node10</title>
<g id="a_node11"><a xlink:href="$constraints_2basic_8h.html" xlink:title="Functions and data structures for constraining secondary structure predictions and evaluation.">
<polygon fill="none" stroke="#000000" points="66.5,-56.5 66.5,-86.5 185.5,-86.5 185.5,-56.5 66.5,-56.5"/>
<text text-anchor="start" x="74.5" y="-74.5" font-family="Helvetica,sans-Serif" font-size="10.00" fill="#000000">ViennaRNA/constraints</text>
<text text-anchor="middle" x="126" y="-63.5" font-family="Helvetica,sans-Serif" font-size="10.00" fill="#000000">/basic.h</text>
</a>
</g>
</g>
<!-- Node9&#45;&gt;Node10 -->
<g id="edge17" class="edge">
<title>Node9&#45;&gt;Node10</title>
<path fill="none" stroke="#191970" d="M126,-123.2967C126,-115.5013 126,-105.7991 126,-96.9064"/>
<polygon fill="#191970" stroke="#191970" points="129.5001,-96.6431 126,-86.6432 122.5001,-96.6432 129.5001,-96.6431"/>
</g>
<!-- Node10&#45;&gt;Node2 -->
<g id="edge18" class="edge">
<title>Node10&#45;&gt;Node2</title>
<path fill="none" stroke="#191970" d="M94.3579,-86.5161C80.1842,-95.0591 64.9065,-107.2327 57,-123 50.8241,-135.3161 51.6762,-141.2924 57,-154 87.117,-225.8876 111.813,-243.1082 182,-277 231.7351,-301.016 378.5613,-313.3629 472.7678,-318.9862"/>
<polygon fill="#191970" stroke="#191970" points="472.662,-322.4859 482.8489,-319.5744 473.0697,-315.4978 472.662,-322.4859"/>
</g>
<!-- Node11&#45;&gt;Node2 -->
<g id="edge21" class="edge">
<title>Node11&#45;&gt;Node2</title>
<path fill="none" stroke="#191970" d="M400.3351,-153.8568C417.1327,-181.279 447.6468,-239.3189 487,-277 500.5064,-289.9325 518.3006,-300.7779 532.5796,-308.6838"/>
<polygon fill="#191970" stroke="#191970" points="530.9148,-311.7625 541.3749,-313.4469 534.2483,-305.6071 530.9148,-311.7625"/>
</g>
<!-- Node11&#45;&gt;Node7 -->
<g id="edge20" class="edge">
<title>Node11&#45;&gt;Node7</title>
<path fill="none" stroke="#191970" d="M447.8849,-152.2318C490.1027,-162.5511 546.4786,-176.7668 589.4777,-187.9173"/>
<polygon fill="#191970" stroke="#191970" points="588.7103,-191.3341 599.2694,-190.4639 590.4723,-184.5595 588.7103,-191.3341"/>
</g>
<!-- Node11&#45;&gt;Node10 -->
<g id="edge22" class="edge">
<title>Node11&#45;&gt;Node10</title>
<path fill="none" stroke="#191970" d="M329.2021,-123.4639C289.3949,-113.2842 236.6524,-99.7966 194.8777,-89.1138"/>
<polygon fill="#191970" stroke="#191970" points="195.6098,-85.6884 185.0544,-86.6017 193.8754,-92.4702 195.6098,-85.6884"/>
</g>
<!-- Node12&#45;&gt;Node2 -->
<g id="edge24" class="edge">
<title>Node12&#45;&gt;Node2</title>
<path fill="none" stroke="#191970" d="M761.1115,-148.0122C762.0186,-164.314 754.7868,-198.0481 738,-221 704.7735,-266.4294 644.6624,-295.123 602.5267,-310.1235"/>
<polygon fill="#191970" stroke="#191970" points="601.3524,-306.8261 593.0287,-313.381 603.6234,-313.4474 601.3524,-306.8261"/>
</g>
<!-- Node14&#45;&gt;Node2 -->
<g id="edge28" class="edge">
<title>Node14&#45;&gt;Node2</title>
<path fill="none" stroke="#191970" d="M1146.8659,-153.5124C1079.5251,-180.8934 922.2565,-239.5654 786,-277 734.1788,-291.2371 674.4628,-303.4206 628.7958,-311.6654"/>
<polygon fill="#191970" stroke="#191970" points="627.9155,-308.2671 618.6849,-313.4677 629.1439,-315.1585 627.9155,-308.2671"/>
</g>
<!-- Node14&#45;&gt;Node7 -->
<g id="edge27" class="edge">
<title>Node14&#45;&gt;Node7</title>
<path fill="none" stroke="#191970" d="M1120.6293,-153.5574C1119.7482,-153.7084 1118.8714,-153.8561 1118,-154 982.5707,-176.3699 822.8892,-191.9561 730.1983,-199.7572"/>
<polygon fill="#191970" stroke="#191970" points="729.7362,-196.2835 720.0613,-200.6017 730.3174,-203.2594 729.7362,-196.2835"/>
</g>
<!-- Node14&#45;&gt;Node15 -->
<g id="edge29" class="edge">
<title>Node14&#45;&gt;Node15</title>
<path fill="none" stroke="#191970" d="M1117.3461,-124.4644C1114.53,-123.9464 1111.7381,-123.4551 1109,-123 982.0224,-101.8962 833.3573,-86.6575 743.2366,-78.455"/>
<polygon fill="#191970" stroke="#191970" points="743.3568,-74.9517 733.0825,-77.5381 742.7271,-81.9233 743.3568,-74.9517"/>
</g>
<!-- Node15&#45;&gt;Node1 -->
<g id="edge30" class="edge">
<title>Node15&#45;&gt;Node1</title>
<path fill="none" stroke="#191970" d="M610.0843,-61.9815C599.4812,-60.0021 588.3762,-57.9312 578,-56 501.1545,-41.6979 410.9,-24.9763 363.2964,-16.1626"/>
<polygon fill="#191970" stroke="#191970" points="363.7218,-12.682 353.2518,-14.303 362.4475,-19.565 363.7218,-12.682"/>
</g>
<!-- Node15&#45;&gt;Node7 -->
<g id="edge31" class="edge">
<title>Node15&#45;&gt;Node7</title>
<path fill="none" stroke="#191970" d="M664.1242,-81.1042C666.2811,-101.6073 663.9504,-150.2327 659.9215,-180.2559"/>
<polygon fill="#191970" stroke="#191970" points="656.4239,-179.9736 658.3655,-190.389 663.3428,-181.0361 656.4239,-179.9736"/>
</g>
<!-- Node16&#45;&gt;Node2 -->
<g id="edge36" class="edge">
<title>Node16&#45;&gt;Node2</title>
<path fill="none" stroke="#191970" d="M328.8401,-276.5237C378.8941,-286.1537 453.5031,-301.0505 503.4567,-311.372"/>
<polygon fill="#191970" stroke="#191970" points="502.9116,-314.8333 513.414,-313.4369 504.333,-307.9792 502.9116,-314.8333"/>
</g>
</g>
</svg>
