<?xml version="1.0" encoding="UTF-8" standalone="no"?>
<!DOCTYPE svg PUBLIC "-//W3C//DTD SVG 1.1//EN"
 "http://www.w3.org/Graphics/SVG/1.1/DTD/svg11.dtd">
<!-- Generated by graphviz version 2.40.1 (0)
 -->
<!-- Title: ViennaRNA/landscape/move.h Pages: 1 -->
<svg width="546pt" height="229pt"
 viewBox="0.00 0.00 546.00 229.00" xmlns="http://www.w3.org/2000/svg" xmlns:xlink="http://www.w3.org/1999/xlink">
<g id="graph0" class="graph" transform="scale(1 1) rotate(0) translate(4 225)">
<title>ViennaRNA/landscape/move.h</title>
<!-- Node1 -->
<g id="node1" class="node">
<title>Node1</title>
<g id="a_node1"><a xlink:title="Methods to operate with structural neighbors of RNA secondary structures.">
<polygon fill="#bfbfbf" stroke="#000000" points="154,-190.5 154,-220.5 270,-220.5 270,-190.5 154,-190.5"/>
<text text-anchor="start" x="162" y="-208.5" font-family="Helvetica,sans-Serif" font-size="10.00" fill="#000000">ViennaRNA/landscape</text>
<text text-anchor="middle" x="212" y="-197.5" font-family="Helvetica,sans-Serif" font-size="10.00" fill="#000000">/move.h</text>
</a>
</g>
</g>
<!-- Node2 -->
<g id="node2" class="node">
<title>Node2</title>
<g id="a_node2"><a xlink:href="$eval_8h.html" xlink:title="Functions and variables related to energy evaluation of sequence/structure pairs.">
<polygon fill="none" stroke="#000000" points="0,-129 0,-148 98,-148 98,-129 0,-129"/>
<text text-anchor="middle" x="49" y="-136" font-family="Helvetica,sans-Serif" font-size="10.00" fill="#000000">ViennaRNA/eval.h</text>
</a>
</g>
</g>
<!-- Node1&#45;&gt;Node2 -->
<g id="edge1" class="edge">
<title>Node1&#45;&gt;Node2</title>
<path fill="none" stroke="#191970" d="M165.8352,-186.5243C135.3414,-173.99 96.6632,-158.0916 72.3648,-148.1039"/>
<polygon fill="#191970" stroke="#191970" points="164.8398,-189.8992 175.4196,-190.4639 167.5011,-183.4248 164.8398,-189.8992"/>
</g>
<!-- Node4 -->
<g id="node4" class="node">
<title>Node4</title>
<g id="a_node4"><a xlink:href="$neighbor_8h.html" xlink:title="Use ViennaRNA/landscape/neighbor.h instead.">
<polygon fill="none" stroke="#000000" points="135,-62 135,-81 251,-81 251,-62 135,-62"/>
<text text-anchor="middle" x="193" y="-69" font-family="Helvetica,sans-Serif" font-size="10.00" fill="#000000">ViennaRNA/neighbor.h</text>
</a>
</g>
</g>
<!-- Node1&#45;&gt;Node4 -->
<g id="edge3" class="edge">
<title>Node1&#45;&gt;Node4</title>
<path fill="none" stroke="#191970" d="M173.0797,-184.8045C161.9346,-176.781 151.1481,-166.4802 145,-154 138.9114,-141.6405 139.9521,-135.8197 145,-123 151.8962,-105.4864 167.8655,-90.4072 179.4963,-81.1712"/>
<polygon fill="#191970" stroke="#191970" points="171.3413,-187.8523 181.6014,-190.4946 175.2285,-182.0307 171.3413,-187.8523"/>
</g>
<!-- Node5 -->
<g id="node5" class="node">
<title>Node5</title>
<g id="a_node5"><a xlink:href="$landscape_2neighbor_8h.html" xlink:title="Methods to compute the neighbors of an RNA secondary structure.">
<polygon fill="none" stroke="#000000" points="154,-123.5 154,-153.5 270,-153.5 270,-123.5 154,-123.5"/>
<text text-anchor="start" x="162" y="-141.5" font-family="Helvetica,sans-Serif" font-size="10.00" fill="#000000">ViennaRNA/landscape</text>
<text text-anchor="middle" x="212" y="-130.5" font-family="Helvetica,sans-Serif" font-size="10.00" fill="#000000">/neighbor.h</text>
</a>
</g>
</g>
<!-- Node1&#45;&gt;Node5 -->
<g id="edge4" class="edge">
<title>Node1&#45;&gt;Node5</title>
<path fill="none" stroke="#191970" d="M212,-180.0249C212,-171.128 212,-161.4287 212,-153.6432"/>
<polygon fill="#191970" stroke="#191970" points="208.5001,-180.2966 212,-190.2967 215.5001,-180.2967 208.5001,-180.2966"/>
</g>
<!-- Node7 -->
<g id="node7" class="node">
<title>Node7</title>
<g id="a_node7"><a xlink:href="$paths_8h.html" xlink:title="API for computing (optimal) (re&#45;)folding paths between secondary structures.">
<polygon fill="none" stroke="#000000" points="422,-123.5 422,-153.5 538,-153.5 538,-123.5 422,-123.5"/>
<text text-anchor="start" x="430" y="-141.5" font-family="Helvetica,sans-Serif" font-size="10.00" fill="#000000">ViennaRNA/landscape</text>
<text text-anchor="middle" x="480" y="-130.5" font-family="Helvetica,sans-Serif" font-size="10.00" fill="#000000">/paths.h</text>
</a>
</g>
</g>
<!-- Node1&#45;&gt;Node7 -->
<g id="edge7" class="edge">
<title>Node1&#45;&gt;Node7</title>
<path fill="none" stroke="#191970" d="M279.8742,-188.5314C323.7298,-177.5675 380.1962,-163.4509 421.9615,-153.0096"/>
<polygon fill="#191970" stroke="#191970" points="279.0045,-185.1411 270.152,-190.962 280.7023,-191.9321 279.0045,-185.1411"/>
</g>
<!-- Node10 -->
<g id="node10" class="node">
<title>Node10</title>
<g id="a_node10"><a xlink:href="$landscape_2walk_8h.html" xlink:title="Methods to generate particular paths such as gradient or random walks through the energy landscape of...">
<polygon fill="none" stroke="#000000" points="288,-123.5 288,-153.5 404,-153.5 404,-123.5 288,-123.5"/>
<text text-anchor="start" x="296" y="-141.5" font-family="Helvetica,sans-Serif" font-size="10.00" fill="#000000">ViennaRNA/landscape</text>
<text text-anchor="middle" x="346" y="-130.5" font-family="Helvetica,sans-Serif" font-size="10.00" fill="#000000">/walk.h</text>
</a>
</g>
</g>
<!-- Node1&#45;&gt;Node10 -->
<g id="edge10" class="edge">
<title>Node1&#45;&gt;Node10</title>
<path fill="none" stroke="#191970" d="M251.1736,-185.9132C271.7099,-175.645 296.4877,-163.2561 315.5645,-153.7177"/>
<polygon fill="#191970" stroke="#191970" points="249.4512,-182.8612 242.0722,-190.4639 252.5818,-189.1222 249.4512,-182.8612"/>
</g>
<!-- Node3 -->
<g id="node3" class="node">
<title>Node3</title>
<g id="a_node3"><a xlink:href="$fold_8h.html" xlink:title="MFE calculations for single RNA sequences.">
<polygon fill="none" stroke="#000000" points="1.5,-62 1.5,-81 96.5,-81 96.5,-62 1.5,-62"/>
<text text-anchor="middle" x="49" y="-69" font-family="Helvetica,sans-Serif" font-size="10.00" fill="#000000">ViennaRNA/fold.h</text>
</a>
</g>
</g>
<!-- Node2&#45;&gt;Node3 -->
<g id="edge2" class="edge">
<title>Node2&#45;&gt;Node3</title>
<path fill="none" stroke="#191970" d="M49,-118.6079C49,-106.214 49,-90.8263 49,-81.0817"/>
<polygon fill="#191970" stroke="#191970" points="45.5001,-118.9005 49,-128.9005 52.5001,-118.9006 45.5001,-118.9005"/>
</g>
<!-- Node5&#45;&gt;Node4 -->
<g id="edge5" class="edge">
<title>Node5&#45;&gt;Node4</title>
<path fill="none" stroke="#191970" d="M204.9009,-113.4663C201.6962,-102.1655 198.1014,-89.4891 195.7096,-81.055"/>
<polygon fill="#191970" stroke="#191970" points="201.5931,-114.6309 207.6886,-123.2967 208.3275,-112.7211 201.5931,-114.6309"/>
</g>
<!-- Node6 -->
<g id="node6" class="node">
<title>Node6</title>
<g id="a_node6"><a xlink:href="$walk_8h.html" xlink:title="Use ViennaRNA/landscape/walk.h instead.">
<polygon fill="none" stroke="#000000" points="283,-62 283,-81 383,-81 383,-62 283,-62"/>
<text text-anchor="middle" x="333" y="-69" font-family="Helvetica,sans-Serif" font-size="10.00" fill="#000000">ViennaRNA/walk.h</text>
</a>
</g>
</g>
<!-- Node5&#45;&gt;Node6 -->
<g id="edge6" class="edge">
<title>Node5&#45;&gt;Node6</title>
<path fill="none" stroke="#191970" d="M248.0455,-118.5409C270.3904,-106.1681 298.0866,-90.8322 315.6556,-81.1039"/>
<polygon fill="#191970" stroke="#191970" points="246.2077,-115.5578 239.1548,-123.4639 249.5986,-121.6816 246.2077,-115.5578"/>
</g>
<!-- Node8 -->
<g id="node8" class="node">
<title>Node8</title>
<g id="a_node8"><a xlink:href="$landscape_2findpath_8h.html" xlink:title="A breadth&#45;first search heuristic for optimal direct folding paths.">
<polygon fill="none" stroke="#000000" points="422,-56.5 422,-86.5 538,-86.5 538,-56.5 422,-56.5"/>
<text text-anchor="start" x="430" y="-74.5" font-family="Helvetica,sans-Serif" font-size="10.00" fill="#000000">ViennaRNA/landscape</text>
<text text-anchor="middle" x="480" y="-63.5" font-family="Helvetica,sans-Serif" font-size="10.00" fill="#000000">/findpath.h</text>
</a>
</g>
</g>
<!-- Node7&#45;&gt;Node8 -->
<g id="edge8" class="edge">
<title>Node7&#45;&gt;Node8</title>
<path fill="none" stroke="#191970" d="M480,-113.0249C480,-104.128 480,-94.4287 480,-86.6432"/>
<polygon fill="#191970" stroke="#191970" points="476.5001,-113.2966 480,-123.2967 483.5001,-113.2967 476.5001,-113.2966"/>
</g>
<!-- Node9 -->
<g id="node9" class="node">
<title>Node9</title>
<g id="a_node9"><a xlink:href="$findpath_8h.html" xlink:title="Use ViennaRNA/landscape/findpath.h instead.">
<polygon fill="none" stroke="#000000" points="422.5,-.5 422.5,-19.5 537.5,-19.5 537.5,-.5 422.5,-.5"/>
<text text-anchor="middle" x="480" y="-7.5" font-family="Helvetica,sans-Serif" font-size="10.00" fill="#000000">ViennaRNA/findpath.h</text>
</a>
</g>
</g>
<!-- Node8&#45;&gt;Node9 -->
<g id="edge9" class="edge">
<title>Node8&#45;&gt;Node9</title>
<path fill="none" stroke="#191970" d="M480,-46.2849C480,-36.9858 480,-26.9883 480,-19.8469"/>
<polygon fill="#191970" stroke="#191970" points="476.5001,-46.2977 480,-56.2977 483.5001,-46.2978 476.5001,-46.2977"/>
</g>
<!-- Node10&#45;&gt;Node6 -->
<g id="edge11" class="edge">
<title>Node10&#45;&gt;Node6</title>
<path fill="none" stroke="#191970" d="M341.1427,-113.4663C338.95,-102.1655 336.4904,-89.4891 334.8539,-81.055"/>
<polygon fill="#191970" stroke="#191970" points="337.7093,-114.1464 343.0501,-123.2967 344.5812,-112.813 337.7093,-114.1464"/>
</g>
</g>
</svg>
