<?xml version="1.0" encoding="UTF-8" standalone="no"?>
<!DOCTYPE svg PUBLIC "-//W3C//DTD SVG 1.1//EN"
 "http://www.w3.org/Graphics/SVG/1.1/DTD/svg11.dtd">
<!-- Generated by graphviz version 2.40.1 (0)
 -->
<!-- Title: ViennaRNA/multibranch_loops.h Pages: 1 -->
<svg width="1487pt" height="464pt"
 viewBox="0.00 0.00 1487.00 464.00" xmlns="http://www.w3.org/2000/svg" xmlns:xlink="http://www.w3.org/1999/xlink">
<g id="graph0" class="graph" transform="scale(1 1) rotate(0) translate(4 460)">
<title>ViennaRNA/multibranch_loops.h</title>
<!-- Node0 -->
<g id="node1" class="node">
<title>Node0</title>
<g id="a_node1"><a xlink:title="Use ViennaRNA/loops/multibranch.h instead.">
<polygon fill="#bfbfbf" stroke="#000000" points="567,-425.5 567,-455.5 689,-455.5 689,-425.5 567,-425.5"/>
<text text-anchor="start" x="575" y="-443.5" font-family="Helvetica,sans-Serif" font-size="10.00" fill="#000000">ViennaRNA/multibranch</text>
<text text-anchor="middle" x="628" y="-432.5" font-family="Helvetica,sans-Serif" font-size="10.00" fill="#000000">_loops.h</text>
</a>
</g>
</g>
<!-- Node1 -->
<g id="node2" class="node">
<title>Node1</title>
<g id="a_node2"><a xlink:href="$multibranch_8h.html" xlink:title="Energy evaluation of multibranch loops for MFE and partition function calculations.">
<polygon fill="none" stroke="#000000" points="550,-369.5 550,-388.5 706,-388.5 706,-369.5 550,-369.5"/>
<text text-anchor="middle" x="628" y="-376.5" font-family="Helvetica,sans-Serif" font-size="10.00" fill="#000000">ViennaRNA/loops/multibranch.h</text>
</a>
</g>
</g>
<!-- Node0&#45;&gt;Node1 -->
<g id="edge1" class="edge">
<title>Node0&#45;&gt;Node1</title>
<path fill="none" stroke="#191970" d="M628,-425.2977C628,-417.3834 628,-407.6043 628,-399.0759"/>
<polygon fill="#191970" stroke="#191970" points="631.5001,-398.8469 628,-388.8469 624.5001,-398.847 631.5001,-398.8469"/>
</g>
<!-- Node2 -->
<g id="node3" class="node">
<title>Node2</title>
<g id="a_node3"><a xlink:href="$utils_2basic_8h.html" xlink:title="General utility&#45; and helper&#45;functions used throughout the ViennaRNA Package.">
<polygon fill="none" stroke="#000000" points="228,-313.5 228,-332.5 352,-332.5 352,-313.5 228,-313.5"/>
<text text-anchor="middle" x="290" y="-320.5" font-family="Helvetica,sans-Serif" font-size="10.00" fill="#000000">ViennaRNA/utils/basic.h</text>
</a>
</g>
</g>
<!-- Node1&#45;&gt;Node2 -->
<g id="edge2" class="edge">
<title>Node1&#45;&gt;Node2</title>
<path fill="none" stroke="#191970" d="M570.2798,-369.4369C511.34,-359.6717 419.893,-344.5207 357.6034,-334.2006"/>
<polygon fill="#191970" stroke="#191970" points="357.9198,-330.7053 347.4822,-332.5237 356.7756,-337.6112 357.9198,-330.7053"/>
</g>
<!-- Node5 -->
<g id="node6" class="node">
<title>Node5</title>
<g id="a_node6"><a xlink:href="$datastructures_2basic_8h.html" xlink:title="Various data structures and pre&#45;processor macros.">
<polygon fill="none" stroke="#000000" points="463,-246.5 463,-276.5 597,-276.5 597,-246.5 463,-246.5"/>
<text text-anchor="start" x="471" y="-264.5" font-family="Helvetica,sans-Serif" font-size="10.00" fill="#000000">ViennaRNA/datastructures</text>
<text text-anchor="middle" x="530" y="-253.5" font-family="Helvetica,sans-Serif" font-size="10.00" fill="#000000">/basic.h</text>
</a>
</g>
</g>
<!-- Node1&#45;&gt;Node5 -->
<g id="edge46" class="edge">
<title>Node1&#45;&gt;Node5</title>
<path fill="none" stroke="#191970" d="M619.9802,-369.3845C604.6355,-350.9865 570.7355,-310.341 549.2057,-284.5272"/>
<polygon fill="#191970" stroke="#191970" points="551.7823,-282.1521 542.6894,-276.7143 546.4066,-286.6357 551.7823,-282.1521"/>
</g>
<!-- Node8 -->
<g id="node9" class="node">
<title>Node8</title>
<g id="a_node9"><a xlink:href="$fold__compound_8h.html" xlink:title="The Basic Fold Compound API.">
<polygon fill="none" stroke="#000000" points="593,-190.5 593,-209.5 739,-209.5 739,-190.5 593,-190.5"/>
<text text-anchor="middle" x="666" y="-197.5" font-family="Helvetica,sans-Serif" font-size="10.00" fill="#000000">ViennaRNA/fold_compound.h</text>
</a>
</g>
</g>
<!-- Node1&#45;&gt;Node8 -->
<g id="edge47" class="edge">
<title>Node1&#45;&gt;Node8</title>
<path fill="none" stroke="#191970" d="M630.043,-369.3762C636.0483,-341.0883 653.7299,-257.7987 661.8441,-219.5767"/>
<polygon fill="#191970" stroke="#191970" points="665.2939,-220.1803 663.9469,-209.6714 658.4464,-218.7266 665.2939,-220.1803"/>
</g>
<!-- Node10 -->
<g id="node11" class="node">
<title>Node10</title>
<g id="a_node11"><a xlink:href="$params_2basic_8h.html" xlink:title="Functions to deal with sets of energy parameters.">
<polygon fill="none" stroke="#000000" points="1256,-129 1256,-148 1394,-148 1394,-129 1256,-129"/>
<text text-anchor="middle" x="1325" y="-136" font-family="Helvetica,sans-Serif" font-size="10.00" fill="#000000">ViennaRNA/params/basic.h</text>
</a>
</g>
</g>
<!-- Node1&#45;&gt;Node10 -->
<g id="edge48" class="edge">
<title>Node1&#45;&gt;Node10</title>
<path fill="none" stroke="#191970" d="M687.295,-369.4807C829.496,-345.7476 1185.2171,-280.7497 1281,-210 1298.888,-196.7871 1311.0832,-173.9255 1318.0171,-157.6102"/>
<polygon fill="#191970" stroke="#191970" points="1321.3945,-158.5875 1321.821,-148.0013 1314.8859,-156.011 1321.3945,-158.5875"/>
</g>
<!-- Node3 -->
<g id="node4" class="node">
<title>Node3</title>
<g id="a_node4"><a xlink:title=" ">
<polygon fill="none" stroke="#bfbfbf" points="107,-.5 107,-19.5 153,-19.5 153,-.5 107,-.5"/>
<text text-anchor="middle" x="130" y="-7.5" font-family="Helvetica,sans-Serif" font-size="10.00" fill="#000000">stdio.h</text>
</a>
</g>
</g>
<!-- Node2&#45;&gt;Node3 -->
<g id="edge3" class="edge">
<title>Node2&#45;&gt;Node3</title>
<path fill="none" stroke="#191970" d="M227.8454,-313.5478C165.9215,-300.1889 80,-269.1872 80,-200 80,-200 80,-200 80,-138.5 80,-100.8735 84.0128,-90.5128 99,-56 103.3382,-46.01 109.8934,-35.8691 115.8602,-27.6603"/>
<polygon fill="#191970" stroke="#191970" points="118.7127,-29.6912 121.9711,-19.6098 113.1371,-25.4589 118.7127,-29.6912"/>
</g>
<!-- Node4 -->
<g id="node5" class="node">
<title>Node4</title>
<g id="a_node5"><a xlink:title=" ">
<polygon fill="none" stroke="#bfbfbf" points="0,-252 0,-271 52,-271 52,-252 0,-252"/>
<text text-anchor="middle" x="26" y="-259" font-family="Helvetica,sans-Serif" font-size="10.00" fill="#000000">stdarg.h</text>
</a>
</g>
</g>
<!-- Node2&#45;&gt;Node4 -->
<g id="edge4" class="edge">
<title>Node2&#45;&gt;Node4</title>
<path fill="none" stroke="#191970" d="M229.9086,-313.4724C184.4196,-305.5852 120.6542,-293.0784 66,-277 63.41,-276.2381 60.7515,-275.3811 58.0957,-274.4713"/>
<polygon fill="#191970" stroke="#191970" points="59.2117,-271.153 48.6177,-271.0207 56.817,-277.7306 59.2117,-271.153"/>
</g>
<!-- Node2&#45;&gt;Node5 -->
<g id="edge5" class="edge">
<title>Node2&#45;&gt;Node5</title>
<path fill="none" stroke="#191970" d="M327.2367,-313.4581C362.9791,-304.2991 417.8213,-290.2458 461.4612,-279.0631"/>
<polygon fill="#191970" stroke="#191970" points="462.3392,-282.4512 471.1574,-276.5784 460.6015,-275.6703 462.3392,-282.4512"/>
</g>
<!-- Node6 -->
<g id="node7" class="node">
<title>Node6</title>
<g id="a_node7"><a xlink:href="$constants_8h.html" xlink:title="Energy parameter constants.">
<polygon fill="none" stroke="#000000" points="1321,-62 1321,-81 1479,-81 1479,-62 1321,-62"/>
<text text-anchor="middle" x="1400" y="-69" font-family="Helvetica,sans-Serif" font-size="10.00" fill="#000000">ViennaRNA/params/constants.h</text>
</a>
</g>
</g>
<!-- Node5&#45;&gt;Node6 -->
<g id="edge6" class="edge">
<title>Node5&#45;&gt;Node6</title>
<path fill="none" stroke="#191970" d="M597.0042,-259.9943C756.0349,-255.9234 1152.5346,-242.7201 1281,-210 1338.8157,-195.2743 1370.7929,-204.2216 1403,-154 1415.1024,-135.1283 1411.2951,-108.5174 1406.502,-90.6707"/>
<polygon fill="#191970" stroke="#191970" points="1409.8439,-89.6299 1403.6014,-81.0694 1403.143,-91.6543 1409.8439,-89.6299"/>
</g>
<!-- Node5&#45;&gt;Node8 -->
<g id="edge8" class="edge">
<title>Node5&#45;&gt;Node8</title>
<path fill="none" stroke="#191970" d="M563.2693,-246.4554C585.3641,-236.464 614.146,-223.4487 635.6219,-213.7372"/>
<polygon fill="#191970" stroke="#191970" points="637.2553,-216.8398 644.9248,-209.5303 634.371,-210.4616 637.2553,-216.8398"/>
</g>
<!-- Node9 -->
<g id="node10" class="node">
<title>Node9</title>
<g id="a_node10"><a xlink:href="$model_8h.html" xlink:title="The model details data structure and its corresponding modifiers.">
<polygon fill="none" stroke="#000000" points="1175,-62 1175,-81 1281,-81 1281,-62 1175,-62"/>
<text text-anchor="middle" x="1228" y="-69" font-family="Helvetica,sans-Serif" font-size="10.00" fill="#000000">ViennaRNA/model.h</text>
</a>
</g>
</g>
<!-- Node5&#45;&gt;Node9 -->
<g id="edge37" class="edge">
<title>Node5&#45;&gt;Node9</title>
<path fill="none" stroke="#191970" d="M597.0054,-260.1483C750.5206,-255.6408 1121.2211,-236.2906 1209,-154 1226.0404,-138.025 1229.2462,-110.0916 1229.227,-91.2028"/>
<polygon fill="#191970" stroke="#191970" points="1232.7201,-90.927 1228.9083,-81.0417 1225.7236,-91.1465 1232.7201,-90.927"/>
</g>
<!-- Node5&#45;&gt;Node10 -->
<g id="edge38" class="edge">
<title>Node5&#45;&gt;Node10</title>
<path fill="none" stroke="#191970" d="M597.233,-258.8669C761.733,-252.3017 1174.9018,-233.9939 1233,-210 1261.6592,-198.164 1287.4777,-172.4053 1304.775,-155.2573"/>
<polygon fill="#191970" stroke="#191970" points="1307.4173,-157.568 1312.1024,-148.0653 1302.5139,-152.5723 1307.4173,-157.568"/>
</g>
<!-- Node12 -->
<g id="node13" class="node">
<title>Node12</title>
<g id="a_node13"><a xlink:href="$dp__matrices_8h.html" xlink:title="Functions to deal with standard dynamic programming (DP) matrices.">
<polygon fill="none" stroke="#000000" points="307.5,-129 307.5,-148 440.5,-148 440.5,-129 307.5,-129"/>
<text text-anchor="middle" x="374" y="-136" font-family="Helvetica,sans-Serif" font-size="10.00" fill="#000000">ViennaRNA/dp_matrices.h</text>
</a>
</g>
</g>
<!-- Node5&#45;&gt;Node12 -->
<g id="edge39" class="edge">
<title>Node5&#45;&gt;Node12</title>
<path fill="none" stroke="#191970" d="M506.2571,-246.4178C473.9637,-223.1636 417.5765,-178.7412 389.896,-154.7819"/>
<polygon fill="#191970" stroke="#191970" points="392.0945,-152.0538 382.2856,-148.0493 387.4563,-157.2966 392.0945,-152.0538"/>
</g>
<!-- Node13 -->
<g id="node14" class="node">
<title>Node13</title>
<g id="a_node14"><a xlink:href="$hard_8h.html" xlink:title="Functions and data structures for handling of secondary structure hard constraints.">
<polygon fill="none" stroke="#000000" points="595.5,-123.5 595.5,-153.5 714.5,-153.5 714.5,-123.5 595.5,-123.5"/>
<text text-anchor="start" x="603.5" y="-141.5" font-family="Helvetica,sans-Serif" font-size="10.00" fill="#000000">ViennaRNA/constraints</text>
<text text-anchor="middle" x="655" y="-130.5" font-family="Helvetica,sans-Serif" font-size="10.00" fill="#000000">/hard.h</text>
</a>
</g>
</g>
<!-- Node5&#45;&gt;Node13 -->
<g id="edge40" class="edge">
<title>Node5&#45;&gt;Node13</title>
<path fill="none" stroke="#191970" d="M539.5899,-246.2296C549.58,-231.001 566.2317,-207.4285 584,-190 595.4825,-178.7371 609.5765,-168.0011 622.1723,-159.2746"/>
<polygon fill="#191970" stroke="#191970" points="624.2804,-162.0742 630.6026,-153.5724 620.3585,-156.276 624.2804,-162.0742"/>
</g>
<!-- Node15 -->
<g id="node16" class="node">
<title>Node15</title>
<g id="a_node16"><a xlink:href="$soft_8h.html" xlink:title="Functions and data structures for secondary structure soft constraints.">
<polygon fill="none" stroke="#000000" points="458.5,-123.5 458.5,-153.5 577.5,-153.5 577.5,-123.5 458.5,-123.5"/>
<text text-anchor="start" x="466.5" y="-141.5" font-family="Helvetica,sans-Serif" font-size="10.00" fill="#000000">ViennaRNA/constraints</text>
<text text-anchor="middle" x="518" y="-130.5" font-family="Helvetica,sans-Serif" font-size="10.00" fill="#000000">/soft.h</text>
</a>
</g>
</g>
<!-- Node5&#45;&gt;Node15 -->
<g id="edge41" class="edge">
<title>Node5&#45;&gt;Node15</title>
<path fill="none" stroke="#191970" d="M523.9143,-246.4178C519.4318,-225.8539 515.4876,-188.7363 514.8905,-163.8546"/>
<polygon fill="#191970" stroke="#191970" points="518.3901,-163.693 514.8544,-153.7056 511.3901,-163.718 518.3901,-163.693"/>
</g>
<!-- Node16 -->
<g id="node17" class="node">
<title>Node16</title>
<g id="a_node17"><a xlink:href="$grammar_8h.html" xlink:title="Implementations for the RNA folding grammar.">
<polygon fill="none" stroke="#000000" points="949.5,-129 949.5,-148 1066.5,-148 1066.5,-129 949.5,-129"/>
<text text-anchor="middle" x="1008" y="-136" font-family="Helvetica,sans-Serif" font-size="10.00" fill="#000000">ViennaRNA/grammar.h</text>
</a>
</g>
</g>
<!-- Node5&#45;&gt;Node16 -->
<g id="edge42" class="edge">
<title>Node5&#45;&gt;Node16</title>
<path fill="none" stroke="#191970" d="M596.4586,-246.4606C639.7204,-236.5078 697.3226,-222.9495 748,-210 824.7529,-190.3874 913.64,-165.4622 965.0835,-150.8172"/>
<polygon fill="#191970" stroke="#191970" points="966.2014,-154.138 974.8583,-148.0299 964.2818,-147.4064 966.2014,-154.138"/>
</g>
<!-- Node17 -->
<g id="node18" class="node">
<title>Node17</title>
<g id="a_node18"><a xlink:href="$structured__domains_8h.html" xlink:title="This module provides interfaces that deal with additional structured domains in the folding grammar.">
<polygon fill="none" stroke="#000000" points="1084.5,-123.5 1084.5,-153.5 1199.5,-153.5 1199.5,-123.5 1084.5,-123.5"/>
<text text-anchor="start" x="1092.5" y="-141.5" font-family="Helvetica,sans-Serif" font-size="10.00" fill="#000000">ViennaRNA/structured</text>
<text text-anchor="middle" x="1142" y="-130.5" font-family="Helvetica,sans-Serif" font-size="10.00" fill="#000000">_domains.h</text>
</a>
</g>
</g>
<!-- Node5&#45;&gt;Node17 -->
<g id="edge43" class="edge">
<title>Node5&#45;&gt;Node17</title>
<path fill="none" stroke="#191970" d="M597.2885,-249.0644C698.5051,-230.1732 896.1534,-192.565 1074.458,-154.0855"/>
<polygon fill="#191970" stroke="#191970" points="1075.2456,-157.4961 1084.2794,-151.9608 1073.7654,-150.6544 1075.2456,-157.4961"/>
</g>
<!-- Node18 -->
<g id="node19" class="node">
<title>Node18</title>
<g id="a_node19"><a xlink:href="$unstructured__domains_8h.html" xlink:title="Functions to modify unstructured domains, e.g. to incorporate ligands binding to unpaired stretches.">
<polygon fill="none" stroke="#000000" points="164.5,-123.5 164.5,-153.5 289.5,-153.5 289.5,-123.5 164.5,-123.5"/>
<text text-anchor="start" x="172.5" y="-141.5" font-family="Helvetica,sans-Serif" font-size="10.00" fill="#000000">ViennaRNA/unstructured</text>
<text text-anchor="middle" x="227" y="-130.5" font-family="Helvetica,sans-Serif" font-size="10.00" fill="#000000">_domains.h</text>
</a>
</g>
</g>
<!-- Node5&#45;&gt;Node18 -->
<g id="edge44" class="edge">
<title>Node5&#45;&gt;Node18</title>
<path fill="none" stroke="#191970" d="M488.232,-246.4178C430.295,-223.9949 326.4339,-181.8903 268.5935,-157.428"/>
<polygon fill="#191970" stroke="#191970" points="269.9498,-154.2015 259.3773,-153.513 267.2129,-160.6443 269.9498,-154.2015"/>
</g>
<!-- Node19 -->
<g id="node20" class="node">
<title>Node19</title>
<g id="a_node20"><a xlink:href="$utils_2structures_8h.html" xlink:title="Various utility&#45; and helper&#45;functions for secondary structure parsing, converting,...">
<polygon fill="none" stroke="#000000" points="108,-62 108,-81 252,-81 252,-62 108,-62"/>
<text text-anchor="middle" x="180" y="-69" font-family="Helvetica,sans-Serif" font-size="10.00" fill="#000000">ViennaRNA/utils/structures.h</text>
</a>
</g>
</g>
<!-- Node5&#45;&gt;Node19 -->
<g id="edge45" class="edge">
<title>Node5&#45;&gt;Node19</title>
<path fill="none" stroke="#191970" d="M462.9666,-252.8855C363.235,-237.9828 183.7546,-204.0983 146,-154 131.4477,-134.6898 145.2207,-106.894 159.6249,-89.0143"/>
<polygon fill="#191970" stroke="#191970" points="162.6129,-90.9198 166.6255,-81.1142 157.3738,-86.2773 162.6129,-90.9198"/>
</g>
<!-- Node7 -->
<g id="node8" class="node">
<title>Node7</title>
<g id="a_node8"><a xlink:title=" ">
<polygon fill="none" stroke="#bfbfbf" points="1376,-.5 1376,-19.5 1424,-19.5 1424,-.5 1376,-.5"/>
<text text-anchor="middle" x="1400" y="-7.5" font-family="Helvetica,sans-Serif" font-size="10.00" fill="#000000">limits.h</text>
</a>
</g>
</g>
<!-- Node6&#45;&gt;Node7 -->
<g id="edge7" class="edge">
<title>Node6&#45;&gt;Node7</title>
<path fill="none" stroke="#191970" d="M1400,-61.8906C1400,-53.3657 1400,-40.6392 1400,-29.9235"/>
<polygon fill="#191970" stroke="#191970" points="1403.5001,-29.7448 1400,-19.7449 1396.5001,-29.7449 1403.5001,-29.7448"/>
</g>
<!-- Node8&#45;&gt;Node9 -->
<g id="edge9" class="edge">
<title>Node8&#45;&gt;Node9</title>
<path fill="none" stroke="#191970" d="M680.97,-190.3722C710.4195,-171.606 775.173,-131.2454 800,-123 866.0935,-101.0494 1062.2906,-83.7962 1164.4933,-76.0115"/>
<polygon fill="#191970" stroke="#191970" points="1164.9732,-79.4854 1174.6816,-75.2432 1164.4467,-72.5052 1164.9732,-79.4854"/>
</g>
<!-- Node8&#45;&gt;Node10 -->
<g id="edge10" class="edge">
<title>Node8&#45;&gt;Node10</title>
<path fill="none" stroke="#191970" d="M739.1262,-194.4919C842.1024,-186.8593 1035.4118,-171.9571 1200,-154 1214.829,-152.3821 1230.6931,-150.4174 1245.9914,-148.4378"/>
<polygon fill="#191970" stroke="#191970" points="1246.4834,-151.9033 1255.9462,-147.1383 1245.5772,-144.9622 1246.4834,-151.9033"/>
</g>
<!-- Node11 -->
<g id="node12" class="node">
<title>Node11</title>
<g id="a_node12"><a xlink:href="$sequence_8h.html" xlink:title="Functions and data structures related to sequence representations ,.">
<polygon fill="none" stroke="#000000" points="809,-129 809,-148 931,-148 931,-129 809,-129"/>
<text text-anchor="middle" x="870" y="-136" font-family="Helvetica,sans-Serif" font-size="10.00" fill="#000000">ViennaRNA/sequence.h</text>
</a>
</g>
</g>
<!-- Node8&#45;&gt;Node11 -->
<g id="edge15" class="edge">
<title>Node8&#45;&gt;Node11</title>
<path fill="none" stroke="#191970" d="M692.8125,-190.3906C726.1353,-179.7169 783.2341,-162.4566 823.6621,-150.8033"/>
<polygon fill="#191970" stroke="#191970" points="824.6504,-154.161 833.2995,-148.0419 822.7223,-147.4317 824.6504,-154.161"/>
</g>
<!-- Node8&#45;&gt;Node12 -->
<g id="edge17" class="edge">
<title>Node8&#45;&gt;Node12</title>
<path fill="none" stroke="#191970" d="M615.6461,-190.4581C562.0492,-179.6181 477.9002,-161.9224 424.3196,-150.2439"/>
<polygon fill="#191970" stroke="#191970" points="424.8742,-146.7825 414.3572,-148.0643 423.3781,-153.6207 424.8742,-146.7825"/>
</g>
<!-- Node8&#45;&gt;Node13 -->
<g id="edge20" class="edge">
<title>Node8&#45;&gt;Node13</title>
<path fill="none" stroke="#191970" d="M659.2188,-190.3906C656.5383,-183.2234 654.1959,-173.0862 652.8519,-163.671"/>
<polygon fill="#191970" stroke="#191970" points="656.3141,-163.1267 651.7938,-153.5446 649.352,-163.8542 656.3141,-163.1267"/>
</g>
<!-- Node8&#45;&gt;Node15 -->
<g id="edge24" class="edge">
<title>Node8&#45;&gt;Node15</title>
<path fill="none" stroke="#191970" d="M637.8125,-190.3906C615.0557,-181.6435 582.9484,-168.4728 557.6406,-157.5897"/>
<polygon fill="#191970" stroke="#191970" points="558.8749,-154.3101 548.3078,-153.5446 556.0912,-160.7328 558.8749,-154.3101"/>
</g>
<!-- Node8&#45;&gt;Node16 -->
<g id="edge28" class="edge">
<title>Node8&#45;&gt;Node16</title>
<path fill="none" stroke="#191970" d="M721.9279,-190.4774C775.692,-181.8171 858.957,-168.2458 931,-154 936.7833,-152.8564 942.8264,-151.5872 948.8832,-150.2814"/>
<polygon fill="#191970" stroke="#191970" points="950.0212,-153.6156 959.0458,-148.0652 948.5297,-146.7763 950.0212,-153.6156"/>
</g>
<!-- Node8&#45;&gt;Node17 -->
<g id="edge30" class="edge">
<title>Node8&#45;&gt;Node17</title>
<path fill="none" stroke="#191970" d="M739.1307,-194.3364C819.0724,-187.5676 951.0768,-174.7003 1074.3474,-153.9839"/>
<polygon fill="#191970" stroke="#191970" points="1075.0707,-157.4112 1084.342,-152.2835 1073.8966,-150.5104 1075.0707,-157.4112"/>
</g>
<!-- Node8&#45;&gt;Node18 -->
<g id="edge31" class="edge">
<title>Node8&#45;&gt;Node18</title>
<path fill="none" stroke="#191970" d="M592.6625,-193.4941C518.7042,-186.0995 401.3297,-172.8005 296.4791,-155.2539"/>
<polygon fill="#191970" stroke="#191970" points="296.8172,-151.7614 286.3732,-153.5427 295.6485,-158.6632 296.8172,-151.7614"/>
</g>
<!-- Node10&#45;&gt;Node5 -->
<g id="edge12" class="edge">
<title>Node10&#45;&gt;Node5</title>
<path fill="none" stroke="#191970" d="M1322.9734,-148.0653C1313.3195,-164.1887 1284.0485,-196.3513 1251,-210 1193.0187,-233.9456 781.3942,-252.228 607.3244,-258.8271"/>
<polygon fill="#191970" stroke="#191970" points="607.0707,-255.3341 597.2093,-259.2075 607.3338,-262.3291 607.0707,-255.3341"/>
</g>
<!-- Node10&#45;&gt;Node6 -->
<g id="edge11" class="edge">
<title>Node10&#45;&gt;Node6</title>
<path fill="none" stroke="#191970" d="M1335.7457,-128.9005C1347.664,-118.2535 1367.1057,-100.8856 1381.4868,-88.0385"/>
<polygon fill="#191970" stroke="#191970" points="1384.1484,-90.354 1389.2743,-81.0817 1379.4849,-85.1337 1384.1484,-90.354"/>
</g>
<!-- Node10&#45;&gt;Node8 -->
<g id="edge13" class="edge">
<title>Node10&#45;&gt;Node8</title>
<path fill="none" stroke="#191970" d="M1266.6406,-148.0266C1250.8943,-150.1437 1233.8554,-152.2701 1218,-154 1052.4052,-172.0669 857.7368,-187.0415 749.3908,-194.6311"/>
<polygon fill="#191970" stroke="#191970" points="748.9117,-191.1559 739.1791,-195.3424 749.3981,-198.139 748.9117,-191.1559"/>
</g>
<!-- Node10&#45;&gt;Node9 -->
<g id="edge14" class="edge">
<title>Node10&#45;&gt;Node9</title>
<path fill="none" stroke="#191970" d="M1311.1023,-128.9005C1295.1836,-117.9052 1268.8879,-99.7422 1250.1401,-86.7927"/>
<polygon fill="#191970" stroke="#191970" points="1252.0892,-83.8852 1241.872,-81.0817 1248.1108,-89.6448 1252.0892,-83.8852"/>
</g>
<!-- Node11&#45;&gt;Node8 -->
<g id="edge16" class="edge">
<title>Node11&#45;&gt;Node8</title>
<path fill="none" stroke="#191970" d="M843.3981,-148.0419C810.1759,-158.6877 753.0922,-175.9459 712.5941,-187.6229"/>
<polygon fill="#191970" stroke="#191970" points="711.5861,-184.2708 702.9375,-190.3906 713.5148,-190.9999 711.5861,-184.2708"/>
</g>
<!-- Node12&#45;&gt;Node5 -->
<g id="edge18" class="edge">
<title>Node12&#45;&gt;Node5</title>
<path fill="none" stroke="#191970" d="M389.9369,-148.0493C418.025,-167.5787 475.5207,-212.5225 507.5487,-239.6136"/>
<polygon fill="#191970" stroke="#191970" points="505.6155,-242.5665 515.4856,-246.4178 510.1715,-237.252 505.6155,-242.5665"/>
</g>
<!-- Node12&#45;&gt;Node8 -->
<g id="edge19" class="edge">
<title>Node12&#45;&gt;Node8</title>
<path fill="none" stroke="#191970" d="M424.4646,-148.0643C478.1035,-158.9137 562.2524,-176.61 615.7909,-188.2802"/>
<polygon fill="#191970" stroke="#191970" points="615.2276,-191.7397 625.7447,-190.4581 616.7239,-184.9015 615.2276,-191.7397"/>
</g>
<!-- Node13&#45;&gt;Node8 -->
<g id="edge21" class="edge">
<title>Node13&#45;&gt;Node8</title>
<path fill="none" stroke="#191970" d="M663.588,-153.5446C665.9953,-161.6241 667.9422,-171.681 668.8302,-180.3693"/>
<polygon fill="#191970" stroke="#191970" points="665.3365,-180.5829 669.3438,-190.3906 672.3273,-180.2246 665.3365,-180.5829"/>
</g>
<!-- Node14 -->
<g id="node15" class="node">
<title>Node14</title>
<g id="a_node15"><a xlink:href="$constraints_2basic_8h.html" xlink:title="Functions and data structures for constraining secondary structure predictions and evaluation.">
<polygon fill="none" stroke="#000000" points="595.5,-56.5 595.5,-86.5 714.5,-86.5 714.5,-56.5 595.5,-56.5"/>
<text text-anchor="start" x="603.5" y="-74.5" font-family="Helvetica,sans-Serif" font-size="10.00" fill="#000000">ViennaRNA/constraints</text>
<text text-anchor="middle" x="655" y="-63.5" font-family="Helvetica,sans-Serif" font-size="10.00" fill="#000000">/basic.h</text>
</a>
</g>
</g>
<!-- Node13&#45;&gt;Node14 -->
<g id="edge22" class="edge">
<title>Node13&#45;&gt;Node14</title>
<path fill="none" stroke="#191970" d="M655,-123.2967C655,-115.5013 655,-105.7991 655,-96.9064"/>
<polygon fill="#191970" stroke="#191970" points="658.5001,-96.6431 655,-86.6432 651.5001,-96.6432 658.5001,-96.6431"/>
</g>
<!-- Node14&#45;&gt;Node8 -->
<g id="edge23" class="edge">
<title>Node14&#45;&gt;Node8</title>
<path fill="none" stroke="#191970" d="M686.1954,-86.6198C700.1665,-95.1874 715.2217,-107.3517 723,-123 729.1327,-135.3376 728.9419,-141.5693 723,-154 716.8552,-166.8551 705.1701,-177.2694 693.9715,-184.9168"/>
<polygon fill="#191970" stroke="#191970" points="691.7959,-182.1512 685.21,-190.4505 695.5339,-188.0696 691.7959,-182.1512"/>
</g>
<!-- Node15&#45;&gt;Node5 -->
<g id="edge25" class="edge">
<title>Node15&#45;&gt;Node5</title>
<path fill="none" stroke="#191970" d="M524.1125,-153.7056C528.5929,-174.3355 532.5293,-211.4615 533.113,-236.2943"/>
<polygon fill="#191970" stroke="#191970" points="529.6133,-236.4282 533.1428,-246.4178 536.6133,-236.4075 529.6133,-236.4282"/>
</g>
<!-- Node15&#45;&gt;Node8 -->
<g id="edge26" class="edge">
<title>Node15&#45;&gt;Node8</title>
<path fill="none" stroke="#191970" d="M560.102,-153.5446C585.3822,-163.5542 616.7166,-176.5988 638.7941,-186.316"/>
<polygon fill="#191970" stroke="#191970" points="637.3787,-189.517 647.9375,-190.3906 640.2281,-183.1231 637.3787,-189.517"/>
</g>
<!-- Node15&#45;&gt;Node14 -->
<g id="edge27" class="edge">
<title>Node15&#45;&gt;Node14</title>
<path fill="none" stroke="#191970" d="M548.7455,-123.4639C568.2624,-113.9191 593.7257,-101.4663 614.8325,-91.144"/>
<polygon fill="#191970" stroke="#191970" points="616.4375,-94.2552 623.8831,-86.7177 613.3622,-87.9669 616.4375,-94.2552"/>
</g>
<!-- Node16&#45;&gt;Node8 -->
<g id="edge29" class="edge">
<title>Node16&#45;&gt;Node8</title>
<path fill="none" stroke="#191970" d="M976.5748,-148.0652C967.6882,-150.1236 958.0276,-152.2149 949,-154 881.0375,-167.4389 803.0884,-180.2776 746.1614,-188.9593"/>
<polygon fill="#191970" stroke="#191970" points="745.5044,-185.5189 736.1415,-190.4774 746.553,-192.4399 745.5044,-185.5189"/>
</g>
<!-- Node18&#45;&gt;Node5 -->
<g id="edge32" class="edge">
<title>Node18&#45;&gt;Node5</title>
<path fill="none" stroke="#191970" d="M268.5891,-153.513C326.4314,-175.8953 430.2925,-217.9978 488.2276,-242.4964"/>
<polygon fill="#191970" stroke="#191970" points="486.888,-245.73 497.4605,-246.4178 489.6245,-239.287 486.888,-245.73"/>
</g>
<!-- Node18&#45;&gt;Node8 -->
<g id="edge33" class="edge">
<title>Node18&#45;&gt;Node8</title>
<path fill="none" stroke="#191970" d="M289.7362,-150.778C295.5815,-151.9409 301.404,-153.0414 307,-154 401.2501,-170.1444 509.9975,-183.0385 582.9437,-191.0201"/>
<polygon fill="#191970" stroke="#191970" points="582.674,-194.5113 592.9939,-192.1135 583.4312,-187.5524 582.674,-194.5113"/>
</g>
<!-- Node18&#45;&gt;Node19 -->
<g id="edge34" class="edge">
<title>Node18&#45;&gt;Node19</title>
<path fill="none" stroke="#191970" d="M216.335,-123.2967C209.2965,-113.2631 200.0423,-100.0709 192.6348,-89.5113"/>
<polygon fill="#191970" stroke="#191970" points="195.3109,-87.2316 186.7027,-81.055 189.5803,-91.2516 195.3109,-87.2316"/>
</g>
<!-- Node19&#45;&gt;Node3 -->
<g id="edge35" class="edge">
<title>Node19&#45;&gt;Node3</title>
<path fill="none" stroke="#191970" d="M172.1875,-61.8906C164.746,-52.7376 153.3666,-38.7409 144.3008,-27.59"/>
<polygon fill="#191970" stroke="#191970" points="146.9467,-25.2962 137.9226,-19.7449 141.5153,-29.712 146.9467,-25.2962"/>
</g>
<!-- Node19&#45;&gt;Node5 -->
<g id="edge36" class="edge">
<title>Node19&#45;&gt;Node5</title>
<path fill="none" stroke="#191970" d="M177.4965,-81.1142C168.4867,-97.57 147.0664,-131.53 164,-154 199.0371,-200.4923 356.1318,-233.0209 452.8228,-249.3735"/>
<polygon fill="#191970" stroke="#191970" points="452.4133,-252.8535 462.8532,-251.0488 453.5665,-245.9492 452.4133,-252.8535"/>
</g>
</g>
</svg>
