<?xml version="1.0" encoding="UTF-8" standalone="no"?>
<!DOCTYPE svg PUBLIC "-//W3C//DTD SVG 1.1//EN"
 "http://www.w3.org/Graphics/SVG/1.1/DTD/svg11.dtd">
<!-- Generated by graphviz version 2.40.1 (0)
 -->
<!-- Title: ViennaRNA/params.h Pages: 1 -->
<svg width="1305pt" height="397pt"
 viewBox="0.00 0.00 1305.00 397.00" xmlns="http://www.w3.org/2000/svg" xmlns:xlink="http://www.w3.org/1999/xlink">
<g id="graph0" class="graph" transform="scale(1 1) rotate(0) translate(4 393)">
<title>ViennaRNA/params.h</title>
<!-- Node0 -->
<g id="node1" class="node">
<title>Node0</title>
<g id="a_node1"><a xlink:title="Use ViennaRNA/params/basic.h instead.">
<polygon fill="#bfbfbf" stroke="#000000" points="510,-369.5 510,-388.5 622,-388.5 622,-369.5 510,-369.5"/>
<text text-anchor="middle" x="566" y="-376.5" font-family="Helvetica,sans-Serif" font-size="10.00" fill="#000000">ViennaRNA/params.h</text>
</a>
</g>
</g>
<!-- Node1 -->
<g id="node2" class="node">
<title>Node1</title>
<g id="a_node2"><a xlink:href="$params_2basic_8h.html" xlink:title="Functions to deal with sets of energy parameters.">
<polygon fill="none" stroke="#000000" points="497,-313.5 497,-332.5 635,-332.5 635,-313.5 497,-313.5"/>
<text text-anchor="middle" x="566" y="-320.5" font-family="Helvetica,sans-Serif" font-size="10.00" fill="#000000">ViennaRNA/params/basic.h</text>
</a>
</g>
</g>
<!-- Node0&#45;&gt;Node1 -->
<g id="edge1" class="edge">
<title>Node0&#45;&gt;Node1</title>
<path fill="none" stroke="#191970" d="M566,-369.2455C566,-361.9382 566,-351.6944 566,-342.7046"/>
<polygon fill="#191970" stroke="#191970" points="569.5001,-342.6426 566,-332.6427 562.5001,-342.6427 569.5001,-342.6426"/>
</g>
<!-- Node2 -->
<g id="node3" class="node">
<title>Node2</title>
<g id="a_node3"><a xlink:href="$constants_8h.html" xlink:title="Energy parameter constants.">
<polygon fill="none" stroke="#000000" points="185,-190.5 185,-209.5 343,-209.5 343,-190.5 185,-190.5"/>
<text text-anchor="middle" x="264" y="-197.5" font-family="Helvetica,sans-Serif" font-size="10.00" fill="#000000">ViennaRNA/params/constants.h</text>
</a>
</g>
</g>
<!-- Node1&#45;&gt;Node2 -->
<g id="edge2" class="edge">
<title>Node1&#45;&gt;Node2</title>
<path fill="none" stroke="#191970" d="M496.9378,-316.1494C454.8511,-309.9825 400.9052,-298.431 357,-277 326.2892,-262.0094 296.9765,-234.8835 279.7365,-217.1584"/>
<polygon fill="#191970" stroke="#191970" points="282.1277,-214.5938 272.7032,-209.7534 277.0522,-219.4145 282.1277,-214.5938"/>
</g>
<!-- Node4 -->
<g id="node5" class="node">
<title>Node4</title>
<g id="a_node5"><a xlink:href="$datastructures_2basic_8h.html" xlink:title="Various data structures and pre&#45;processor macros.">
<polygon fill="none" stroke="#000000" points="620,-246.5 620,-276.5 754,-276.5 754,-246.5 620,-246.5"/>
<text text-anchor="start" x="628" y="-264.5" font-family="Helvetica,sans-Serif" font-size="10.00" fill="#000000">ViennaRNA/datastructures</text>
<text text-anchor="middle" x="687" y="-253.5" font-family="Helvetica,sans-Serif" font-size="10.00" fill="#000000">/basic.h</text>
</a>
</g>
</g>
<!-- Node1&#45;&gt;Node4 -->
<g id="edge4" class="edge">
<title>Node1&#45;&gt;Node4</title>
<path fill="none" stroke="#191970" d="M579.8438,-313.3906C595.1419,-304.7591 620.1754,-291.8202 642.2571,-281.0224"/>
<polygon fill="#191970" stroke="#191970" points="644.0285,-284.0534 651.503,-276.5446 640.9773,-277.7533 644.0285,-284.0534"/>
</g>
<!-- Node5 -->
<g id="node6" class="node">
<title>Node5</title>
<g id="a_node6"><a xlink:href="$fold__compound_8h.html" xlink:title="The Basic Fold Compound API.">
<polygon fill="none" stroke="#000000" points="493,-190.5 493,-209.5 639,-209.5 639,-190.5 493,-190.5"/>
<text text-anchor="middle" x="566" y="-197.5" font-family="Helvetica,sans-Serif" font-size="10.00" fill="#000000">ViennaRNA/fold_compound.h</text>
</a>
</g>
</g>
<!-- Node1&#45;&gt;Node5 -->
<g id="edge40" class="edge">
<title>Node1&#45;&gt;Node5</title>
<path fill="none" stroke="#191970" d="M562.157,-313.3484C558.7633,-293.2295 558.341,-246.4608 560.8901,-219.7098"/>
<polygon fill="#191970" stroke="#191970" points="564.3855,-219.9662 562.1646,-209.6068 557.4405,-219.0901 564.3855,-219.9662"/>
</g>
<!-- Node6 -->
<g id="node7" class="node">
<title>Node6</title>
<g id="a_node7"><a xlink:href="$model_8h.html" xlink:title="The model details data structure and its corresponding modifiers.">
<polygon fill="none" stroke="#000000" points="66,-129 66,-148 172,-148 172,-129 66,-129"/>
<text text-anchor="middle" x="119" y="-136" font-family="Helvetica,sans-Serif" font-size="10.00" fill="#000000">ViennaRNA/model.h</text>
</a>
</g>
</g>
<!-- Node1&#45;&gt;Node6 -->
<g id="edge41" class="edge">
<title>Node1&#45;&gt;Node6</title>
<path fill="none" stroke="#191970" d="M550.488,-313.3101C501.7427,-282.8665 354.7084,-191.0874 352,-190 279.9259,-161.0634 256.6868,-171.4214 181,-154 176.2493,-152.9065 171.303,-151.7318 166.3681,-150.5359"/>
<polygon fill="#191970" stroke="#191970" points="166.8672,-147.0546 156.3212,-148.0708 165.1991,-153.8529 166.8672,-147.0546"/>
</g>
<!-- Node3 -->
<g id="node4" class="node">
<title>Node3</title>
<g id="a_node4"><a xlink:title=" ">
<polygon fill="none" stroke="#bfbfbf" points="0,-129 0,-148 48,-148 48,-129 0,-129"/>
<text text-anchor="middle" x="24" y="-136" font-family="Helvetica,sans-Serif" font-size="10.00" fill="#000000">limits.h</text>
</a>
</g>
</g>
<!-- Node2&#45;&gt;Node3 -->
<g id="edge3" class="edge">
<title>Node2&#45;&gt;Node3</title>
<path fill="none" stroke="#191970" d="M205.0573,-190.4789C163.1124,-182.8437 105.7773,-170.647 57,-154 55.3526,-153.4378 53.6784,-152.8175 52.0021,-152.1581"/>
<polygon fill="#191970" stroke="#191970" points="53.1196,-148.8286 42.5508,-148.0859 50.3497,-155.2572 53.1196,-148.8286"/>
</g>
<!-- Node4&#45;&gt;Node1 -->
<g id="edge32" class="edge">
<title>Node4&#45;&gt;Node1</title>
<path fill="none" stroke="#191970" d="M663.2972,-276.5446C644.9614,-286.4644 619.5338,-299.3651 599.1987,-309.0537"/>
<polygon fill="#191970" stroke="#191970" points="597.531,-305.9701 589.9688,-313.3906 600.5079,-312.3056 597.531,-305.9701"/>
</g>
<!-- Node4&#45;&gt;Node2 -->
<g id="edge5" class="edge">
<title>Node4&#45;&gt;Node2</title>
<path fill="none" stroke="#191970" d="M619.9744,-251.7551C543.6822,-240.663 419.3475,-222.586 339.6432,-210.9978"/>
<polygon fill="#191970" stroke="#191970" points="340.0681,-207.5228 329.6686,-209.5476 339.0609,-214.45 340.0681,-207.5228"/>
</g>
<!-- Node4&#45;&gt;Node5 -->
<g id="edge6" class="edge">
<title>Node4&#45;&gt;Node5</title>
<path fill="none" stroke="#191970" d="M657.4001,-246.4554C638.0078,-236.599 612.8258,-223.7999 593.8057,-214.1327"/>
<polygon fill="#191970" stroke="#191970" points="595.2512,-210.9412 584.7507,-209.5303 592.0795,-217.1815 595.2512,-210.9412"/>
</g>
<!-- Node4&#45;&gt;Node6 -->
<g id="edge31" class="edge">
<title>Node4&#45;&gt;Node6</title>
<path fill="none" stroke="#191970" d="M619.9416,-253.917C565.712,-246.4885 487.9684,-232.877 423,-210 404.9982,-203.6611 403.0581,-196.1768 385,-190 297.8875,-160.2031 271.0483,-173.1767 181,-154 175.9081,-152.9156 170.5999,-151.7081 165.3258,-150.4589"/>
<polygon fill="#191970" stroke="#191970" points="165.8342,-146.9808 155.2912,-148.0267 164.1853,-153.7839 165.8342,-146.9808"/>
</g>
<!-- Node8 -->
<g id="node9" class="node">
<title>Node8</title>
<g id="a_node9"><a xlink:href="$dp__matrices_8h.html" xlink:title="Functions to deal with standard dynamic programming (DP) matrices.">
<polygon fill="none" stroke="#000000" points="911.5,-129 911.5,-148 1044.5,-148 1044.5,-129 911.5,-129"/>
<text text-anchor="middle" x="978" y="-136" font-family="Helvetica,sans-Serif" font-size="10.00" fill="#000000">ViennaRNA/dp_matrices.h</text>
</a>
</g>
</g>
<!-- Node4&#45;&gt;Node8 -->
<g id="edge33" class="edge">
<title>Node4&#45;&gt;Node8</title>
<path fill="none" stroke="#191970" d="M718.0681,-246.4178C772.5345,-222.1613 884.4883,-174.8724 942.1428,-151.8011"/>
<polygon fill="#191970" stroke="#191970" points="943.5821,-154.9954 951.5822,-148.0493 940.9965,-148.4904 943.5821,-154.9954"/>
</g>
<!-- Node9 -->
<g id="node10" class="node">
<title>Node9</title>
<g id="a_node10"><a xlink:href="$hard_8h.html" xlink:title="Functions and data structures for handling of secondary structure hard constraints.">
<polygon fill="none" stroke="#000000" points="506.5,-123.5 506.5,-153.5 625.5,-153.5 625.5,-123.5 506.5,-123.5"/>
<text text-anchor="start" x="514.5" y="-141.5" font-family="Helvetica,sans-Serif" font-size="10.00" fill="#000000">ViennaRNA/constraints</text>
<text text-anchor="middle" x="566" y="-130.5" font-family="Helvetica,sans-Serif" font-size="10.00" fill="#000000">/hard.h</text>
</a>
</g>
</g>
<!-- Node4&#45;&gt;Node9 -->
<g id="edge34" class="edge">
<title>Node4&#45;&gt;Node9</title>
<path fill="none" stroke="#191970" d="M681.4339,-246.4087C675.1415,-230.8869 663.6921,-206.6871 648,-190 636.3801,-177.6433 621.1818,-167.0269 607.0309,-158.6985"/>
<polygon fill="#191970" stroke="#191970" points="608.3598,-155.4295 597.931,-153.5606 604.9181,-161.525 608.3598,-155.4295"/>
</g>
<!-- Node11 -->
<g id="node12" class="node">
<title>Node11</title>
<g id="a_node12"><a xlink:href="$soft_8h.html" xlink:title="Functions and data structures for secondary structure soft constraints.">
<polygon fill="none" stroke="#000000" points="190.5,-123.5 190.5,-153.5 309.5,-153.5 309.5,-123.5 190.5,-123.5"/>
<text text-anchor="start" x="198.5" y="-141.5" font-family="Helvetica,sans-Serif" font-size="10.00" fill="#000000">ViennaRNA/constraints</text>
<text text-anchor="middle" x="250" y="-130.5" font-family="Helvetica,sans-Serif" font-size="10.00" fill="#000000">/soft.h</text>
</a>
</g>
</g>
<!-- Node4&#45;&gt;Node11 -->
<g id="edge35" class="edge">
<title>Node4&#45;&gt;Node11</title>
<path fill="none" stroke="#191970" d="M619.5761,-247.4668C577.6103,-237.6646 522.8361,-223.8922 475,-210 447.6009,-202.0429 441.2307,-198.5154 414,-190 377.2727,-178.5149 335.9745,-166.1985 303.9343,-156.4908"/>
<polygon fill="#191970" stroke="#191970" points="304.8889,-153.123 294.3033,-153.5657 302.8545,-159.8209 304.8889,-153.123"/>
</g>
<!-- Node12 -->
<g id="node13" class="node">
<title>Node12</title>
<g id="a_node13"><a xlink:href="$grammar_8h.html" xlink:title="Implementations for the RNA folding grammar.">
<polygon fill="none" stroke="#000000" points="643.5,-129 643.5,-148 760.5,-148 760.5,-129 643.5,-129"/>
<text text-anchor="middle" x="702" y="-136" font-family="Helvetica,sans-Serif" font-size="10.00" fill="#000000">ViennaRNA/grammar.h</text>
</a>
</g>
</g>
<!-- Node4&#45;&gt;Node12 -->
<g id="edge36" class="edge">
<title>Node4&#45;&gt;Node12</title>
<path fill="none" stroke="#191970" d="M688.8393,-246.4178C691.5529,-224.1659 696.6303,-182.5314 699.6231,-157.9908"/>
<polygon fill="#191970" stroke="#191970" points="703.0991,-158.3994 700.8355,-148.0493 696.1506,-157.552 703.0991,-158.3994"/>
</g>
<!-- Node13 -->
<g id="node14" class="node">
<title>Node13</title>
<g id="a_node14"><a xlink:href="$structured__domains_8h.html" xlink:title="This module provides interfaces that deal with additional structured domains in the folding grammar.">
<polygon fill="none" stroke="#000000" points="778.5,-123.5 778.5,-153.5 893.5,-153.5 893.5,-123.5 778.5,-123.5"/>
<text text-anchor="start" x="786.5" y="-141.5" font-family="Helvetica,sans-Serif" font-size="10.00" fill="#000000">ViennaRNA/structured</text>
<text text-anchor="middle" x="836" y="-130.5" font-family="Helvetica,sans-Serif" font-size="10.00" fill="#000000">_domains.h</text>
</a>
</g>
</g>
<!-- Node4&#45;&gt;Node13 -->
<g id="edge37" class="edge">
<title>Node4&#45;&gt;Node13</title>
<path fill="none" stroke="#191970" d="M705.2703,-246.4178C731.4099,-224.8395 779.6293,-185.0342 809.6339,-160.2653"/>
<polygon fill="#191970" stroke="#191970" points="812.0965,-162.7709 817.5802,-153.7056 807.6402,-157.3726 812.0965,-162.7709"/>
</g>
<!-- Node14 -->
<g id="node15" class="node">
<title>Node14</title>
<g id="a_node15"><a xlink:href="$unstructured__domains_8h.html" xlink:title="Functions to modify unstructured domains, e.g. to incorporate ligands binding to unpaired stretches.">
<polygon fill="none" stroke="#000000" points="1062.5,-123.5 1062.5,-153.5 1187.5,-153.5 1187.5,-123.5 1062.5,-123.5"/>
<text text-anchor="start" x="1070.5" y="-141.5" font-family="Helvetica,sans-Serif" font-size="10.00" fill="#000000">ViennaRNA/unstructured</text>
<text text-anchor="middle" x="1125" y="-130.5" font-family="Helvetica,sans-Serif" font-size="10.00" fill="#000000">_domains.h</text>
</a>
</g>
</g>
<!-- Node4&#45;&gt;Node14 -->
<g id="edge38" class="edge">
<title>Node4&#45;&gt;Node14</title>
<path fill="none" stroke="#191970" d="M736.0931,-246.4178C814.5924,-223.6019 968.3069,-180.4084 1057.215,-156.1583"/>
<polygon fill="#191970" stroke="#191970" points="1058.2035,-159.5166 1066.9332,-153.513 1056.365,-152.7624 1058.2035,-159.5166"/>
</g>
<!-- Node15 -->
<g id="node16" class="node">
<title>Node15</title>
<g id="a_node16"><a xlink:href="$utils_2structures_8h.html" xlink:title="Various utility&#45; and helper&#45;functions for secondary structure parsing, converting,...">
<polygon fill="none" stroke="#000000" points="1153,-62 1153,-81 1297,-81 1297,-62 1153,-62"/>
<text text-anchor="middle" x="1225" y="-69" font-family="Helvetica,sans-Serif" font-size="10.00" fill="#000000">ViennaRNA/utils/structures.h</text>
</a>
</g>
</g>
<!-- Node4&#45;&gt;Node15 -->
<g id="edge39" class="edge">
<title>Node4&#45;&gt;Node15</title>
<path fill="none" stroke="#191970" d="M754.0298,-255.0251C875.2266,-242.4647 1123.8644,-210.8981 1188,-154 1206.0653,-137.9733 1212.488,-109.8465 1216.9471,-90.9472"/>
<polygon fill="#191970" stroke="#191970" points="1220.3922,-91.5971 1219.4188,-81.0471 1213.6007,-89.9014 1220.3922,-91.5971"/>
</g>
<!-- Node5&#45;&gt;Node1 -->
<g id="edge8" class="edge">
<title>Node5&#45;&gt;Node1</title>
<path fill="none" stroke="#191970" d="M569.8354,-209.6068C573.2335,-229.686 573.6602,-276.4497 571.1155,-303.2305"/>
<polygon fill="#191970" stroke="#191970" points="567.6183,-302.9898 569.843,-313.3484 574.5636,-303.8633 567.6183,-302.9898"/>
</g>
<!-- Node5&#45;&gt;Node6 -->
<g id="edge7" class="edge">
<title>Node5&#45;&gt;Node6</title>
<path fill="none" stroke="#191970" d="M492.8544,-194.027C415.1007,-187.0336 288.7478,-173.8237 181,-154 175.4758,-152.9836 169.7118,-151.7631 164.019,-150.4589"/>
<polygon fill="#191970" stroke="#191970" points="164.4552,-146.9648 153.9158,-148.047 162.8298,-153.7734 164.4552,-146.9648"/>
</g>
<!-- Node7 -->
<g id="node8" class="node">
<title>Node7</title>
<g id="a_node8"><a xlink:href="$sequence_8h.html" xlink:title="Functions and data structures related to sequence representations ,.">
<polygon fill="none" stroke="#000000" points="328,-129 328,-148 450,-148 450,-129 328,-129"/>
<text text-anchor="middle" x="389" y="-136" font-family="Helvetica,sans-Serif" font-size="10.00" fill="#000000">ViennaRNA/sequence.h</text>
</a>
</g>
</g>
<!-- Node5&#45;&gt;Node7 -->
<g id="edge9" class="edge">
<title>Node5&#45;&gt;Node7</title>
<path fill="none" stroke="#191970" d="M533.2813,-190.3906C501.242,-179.9652 452.9567,-163.2559 421.1273,-151.6252"/>
<polygon fill="#191970" stroke="#191970" points="422.0061,-148.2189 411.4128,-148.0419 419.5836,-154.7864 422.0061,-148.2189"/>
</g>
<!-- Node5&#45;&gt;Node8 -->
<g id="edge11" class="edge">
<title>Node5&#45;&gt;Node8</title>
<path fill="none" stroke="#191970" d="M639.1439,-190.4947C705.544,-182.0671 805.9364,-168.8217 893,-154 900.1996,-152.7743 907.7598,-151.3723 915.2901,-149.9237"/>
<polygon fill="#191970" stroke="#191970" points="915.9941,-153.3524 925.1394,-148.0034 914.6545,-146.4818 915.9941,-153.3524"/>
</g>
<!-- Node5&#45;&gt;Node9 -->
<g id="edge14" class="edge">
<title>Node5&#45;&gt;Node9</title>
<path fill="none" stroke="#191970" d="M560.9375,-190.3906C559.539,-183.2234 559.0098,-173.0862 559.3497,-163.671"/>
<polygon fill="#191970" stroke="#191970" points="562.8515,-163.7767 560.1029,-153.5446 555.8707,-163.2574 562.8515,-163.7767"/>
</g>
<!-- Node5&#45;&gt;Node11 -->
<g id="edge18" class="edge">
<title>Node5&#45;&gt;Node11</title>
<path fill="none" stroke="#191970" d="M504.6679,-190.4773C455.1035,-181.9859 383.5276,-168.9312 317.8826,-155.6048"/>
<polygon fill="#191970" stroke="#191970" points="318.3217,-152.1223 307.8237,-153.5509 316.9213,-158.9808 318.3217,-152.1223"/>
</g>
<!-- Node5&#45;&gt;Node12 -->
<g id="edge22" class="edge">
<title>Node5&#45;&gt;Node12</title>
<path fill="none" stroke="#191970" d="M582.1875,-190.3906C603.026,-180.0554 639.3283,-163.5447 666.6146,-151.9284"/>
<polygon fill="#191970" stroke="#191970" points="667.9905,-155.1468 675.8499,-148.0419 665.2752,-148.6948 667.9905,-155.1468"/>
</g>
<!-- Node5&#45;&gt;Node13 -->
<g id="edge24" class="edge">
<title>Node5&#45;&gt;Node13</title>
<path fill="none" stroke="#191970" d="M608.3921,-190.4523C647.3828,-181.6576 707.0746,-168.1607 768.4059,-154.1307"/>
<polygon fill="#191970" stroke="#191970" points="769.2934,-157.5182 778.2603,-151.8751 767.7314,-150.6947 769.2934,-157.5182"/>
</g>
<!-- Node5&#45;&gt;Node14 -->
<g id="edge25" class="edge">
<title>Node5&#45;&gt;Node14</title>
<path fill="none" stroke="#191970" d="M639.2818,-195.3687C733.3778,-189.0787 901.3165,-176.0185 1044,-154 1046.6912,-153.5847 1049.433,-153.1312 1052.2034,-152.6488"/>
<polygon fill="#191970" stroke="#191970" points="1053.1173,-156.0396 1062.3212,-150.7918 1051.8536,-149.1546 1053.1173,-156.0396"/>
</g>
<!-- Node7&#45;&gt;Node5 -->
<g id="edge10" class="edge">
<title>Node7&#45;&gt;Node5</title>
<path fill="none" stroke="#191970" d="M421.5113,-148.0419C453.4803,-158.4402 501.7658,-175.1468 533.6662,-186.7993"/>
<polygon fill="#191970" stroke="#191970" points="532.8129,-190.215 543.4063,-190.3906 535.2345,-183.6472 532.8129,-190.215"/>
</g>
<!-- Node8&#45;&gt;Node4 -->
<g id="edge12" class="edge">
<title>Node8&#45;&gt;Node4</title>
<path fill="none" stroke="#191970" d="M959.2336,-148.0493C914.7065,-168.3266 802.313,-216.0023 736.6343,-242.6452"/>
<polygon fill="#191970" stroke="#191970" points="735.2574,-239.4266 727.2966,-246.4178 737.8796,-245.9169 735.2574,-239.4266"/>
</g>
<!-- Node8&#45;&gt;Node5 -->
<g id="edge13" class="edge">
<title>Node8&#45;&gt;Node5</title>
<path fill="none" stroke="#191970" d="M942.6303,-148.0034C932.4547,-150.1097 921.3545,-152.2372 911,-154 822.2088,-169.1158 719.5545,-182.5921 649.3907,-190.9907"/>
<polygon fill="#191970" stroke="#191970" points="648.7969,-187.5366 639.28,-192.1926 649.6232,-194.4877 648.7969,-187.5366"/>
</g>
<!-- Node9&#45;&gt;Node5 -->
<g id="edge15" class="edge">
<title>Node9&#45;&gt;Node5</title>
<path fill="none" stroke="#191970" d="M571.8971,-153.5446C572.8593,-161.6241 573.0074,-171.681 572.3414,-180.3693"/>
<polygon fill="#191970" stroke="#191970" points="568.8567,-180.028 571.0625,-190.3906 575.8003,-180.9142 568.8567,-180.028"/>
</g>
<!-- Node10 -->
<g id="node11" class="node">
<title>Node10</title>
<g id="a_node11"><a xlink:href="$constraints_2basic_8h.html" xlink:title="Functions and data structures for constraining secondary structure predictions and evaluation.">
<polygon fill="none" stroke="#000000" points="418.5,-56.5 418.5,-86.5 537.5,-86.5 537.5,-56.5 418.5,-56.5"/>
<text text-anchor="start" x="426.5" y="-74.5" font-family="Helvetica,sans-Serif" font-size="10.00" fill="#000000">ViennaRNA/constraints</text>
<text text-anchor="middle" x="478" y="-63.5" font-family="Helvetica,sans-Serif" font-size="10.00" fill="#000000">/basic.h</text>
</a>
</g>
</g>
<!-- Node9&#45;&gt;Node10 -->
<g id="edge16" class="edge">
<title>Node9&#45;&gt;Node10</title>
<path fill="none" stroke="#191970" d="M546.0314,-123.2967C534.2175,-114.302 519.0694,-102.7687 506.0673,-92.8694"/>
<polygon fill="#191970" stroke="#191970" points="507.9662,-89.9162 497.8895,-86.6432 503.7257,-95.4857 507.9662,-89.9162"/>
</g>
<!-- Node10&#45;&gt;Node5 -->
<g id="edge17" class="edge">
<title>Node10&#45;&gt;Node5</title>
<path fill="none" stroke="#191970" d="M478.1997,-86.5276C479.1232,-104.1556 482.881,-133.5636 497,-154 506.3088,-167.4739 520.9681,-178.0559 534.3852,-185.6557"/>
<polygon fill="#191970" stroke="#191970" points="532.9209,-188.841 543.3944,-190.4396 536.2038,-182.6585 532.9209,-188.841"/>
</g>
<!-- Node11&#45;&gt;Node4 -->
<g id="edge19" class="edge">
<title>Node11&#45;&gt;Node4</title>
<path fill="none" stroke="#191970" d="M309.6341,-153.5657C345.3811,-163.6413 391.4733,-177.3268 432,-190 459.2307,-198.5154 465.6009,-202.0429 493,-210 535.4697,-222.3338 583.4081,-234.5731 621.0662,-244.0234"/>
<polygon fill="#191970" stroke="#191970" points="620.3534,-247.453 630.9042,-246.4882 622.0546,-240.6628 620.3534,-247.453"/>
</g>
<!-- Node11&#45;&gt;Node5 -->
<g id="edge20" class="edge">
<title>Node11&#45;&gt;Node5</title>
<path fill="none" stroke="#191970" d="M309.7618,-150.14C315.9419,-151.475 322.1069,-152.7898 328,-154 389.6303,-166.6566 460.2242,-179.6541 508.5056,-188.5903"/>
<polygon fill="#191970" stroke="#191970" points="507.9882,-192.0539 518.4584,-190.434 509.2632,-185.171 507.9882,-192.0539"/>
</g>
<!-- Node11&#45;&gt;Node10 -->
<g id="edge21" class="edge">
<title>Node11&#45;&gt;Node10</title>
<path fill="none" stroke="#191970" d="M301.1677,-123.4639C335.3705,-113.4131 380.5469,-100.1375 416.6756,-89.5208"/>
<polygon fill="#191970" stroke="#191970" points="418.0017,-92.7792 426.6092,-86.6017 416.028,-86.0631 418.0017,-92.7792"/>
</g>
<!-- Node12&#45;&gt;Node5 -->
<g id="edge23" class="edge">
<title>Node12&#45;&gt;Node5</title>
<path fill="none" stroke="#191970" d="M685.9485,-148.0419C665.1775,-158.3501 628.8894,-174.858 601.5639,-186.4955"/>
<polygon fill="#191970" stroke="#191970" points="600.1708,-183.2845 592.3125,-190.3906 602.8871,-189.736 600.1708,-183.2845"/>
</g>
<!-- Node14&#45;&gt;Node4 -->
<g id="edge26" class="edge">
<title>Node14&#45;&gt;Node4</title>
<path fill="none" stroke="#191970" d="M1076.145,-153.513C997.7981,-176.2876 844.0943,-219.4796 755.0552,-243.768"/>
<polygon fill="#191970" stroke="#191970" points="754.0511,-240.4139 745.3217,-246.4178 755.8899,-247.1681 754.0511,-240.4139"/>
</g>
<!-- Node14&#45;&gt;Node5 -->
<g id="edge27" class="edge">
<title>Node14&#45;&gt;Node5</title>
<path fill="none" stroke="#191970" d="M1065.0525,-153.5163C1064.029,-153.6826 1063.0109,-153.844 1062,-154 918.1137,-176.2041 748.5445,-189.2982 649.5124,-195.5263"/>
<polygon fill="#191970" stroke="#191970" points="649.0318,-192.0493 639.2677,-196.1618 649.4653,-199.0359 649.0318,-192.0493"/>
</g>
<!-- Node14&#45;&gt;Node15 -->
<g id="edge28" class="edge">
<title>Node14&#45;&gt;Node15</title>
<path fill="none" stroke="#191970" d="M1147.6915,-123.2967C1164.0283,-112.351 1185.9759,-97.6462 1202.3119,-86.701"/>
<polygon fill="#191970" stroke="#191970" points="1204.3793,-89.5289 1210.7388,-81.055 1200.483,-83.7135 1204.3793,-89.5289"/>
</g>
<!-- Node15&#45;&gt;Node4 -->
<g id="edge30" class="edge">
<title>Node15&#45;&gt;Node4</title>
<path fill="none" stroke="#191970" d="M1229.9431,-81.0471C1232.5606,-98.34 1227.6108,-134.8279 1206,-154 1141.8255,-210.9327 892.9248,-242.503 764.495,-255.0479"/>
<polygon fill="#191970" stroke="#191970" points="763.951,-251.584 754.332,-256.0254 764.6212,-258.5518 763.951,-251.584"/>
</g>
<!-- Node16 -->
<g id="node17" class="node">
<title>Node16</title>
<g id="a_node17"><a xlink:title=" ">
<polygon fill="none" stroke="#bfbfbf" points="1202,-.5 1202,-19.5 1248,-19.5 1248,-.5 1202,-.5"/>
<text text-anchor="middle" x="1225" y="-7.5" font-family="Helvetica,sans-Serif" font-size="10.00" fill="#000000">stdio.h</text>
</a>
</g>
</g>
<!-- Node15&#45;&gt;Node16 -->
<g id="edge29" class="edge">
<title>Node15&#45;&gt;Node16</title>
<path fill="none" stroke="#191970" d="M1225,-61.8906C1225,-53.3657 1225,-40.6392 1225,-29.9235"/>
<polygon fill="#191970" stroke="#191970" points="1228.5001,-29.7448 1225,-19.7449 1221.5001,-29.7449 1228.5001,-29.7448"/>
</g>
</g>
</svg>
