<?xml version="1.0" encoding="UTF-8" standalone="no"?>
<!DOCTYPE svg PUBLIC "-//W3C//DTD SVG 1.1//EN"
 "http://www.w3.org/Graphics/SVG/1.1/DTD/svg11.dtd">
<!-- Generated by graphviz version 2.40.1 (0)
 -->
<!-- Title: ViennaRNA/part_func_co.h Pages: 1 -->
<svg width="1521pt" height="464pt"
 viewBox="0.00 0.00 1521.00 464.00" xmlns="http://www.w3.org/2000/svg" xmlns:xlink="http://www.w3.org/1999/xlink">
<g id="graph0" class="graph" transform="scale(1 1) rotate(0) translate(4 460)">
<title>ViennaRNA/part_func_co.h</title>
<!-- Node0 -->
<g id="node1" class="node">
<title>Node0</title>
<g id="a_node1"><a xlink:title="Partition function for two RNA sequences.">
<polygon fill="#bfbfbf" stroke="#000000" points="525,-436.5 525,-455.5 661,-455.5 661,-436.5 525,-436.5"/>
<text text-anchor="middle" x="593" y="-443.5" font-family="Helvetica,sans-Serif" font-size="10.00" fill="#000000">ViennaRNA/part_func_co.h</text>
</a>
</g>
</g>
<!-- Node1 -->
<g id="node2" class="node">
<title>Node1</title>
<g id="a_node2"><a xlink:href="$datastructures_2basic_8h.html" xlink:title="Various data structures and pre&#45;processor macros.">
<polygon fill="none" stroke="#000000" points="553,-246.5 553,-276.5 687,-276.5 687,-246.5 553,-246.5"/>
<text text-anchor="start" x="561" y="-264.5" font-family="Helvetica,sans-Serif" font-size="10.00" fill="#000000">ViennaRNA/datastructures</text>
<text text-anchor="middle" x="620" y="-253.5" font-family="Helvetica,sans-Serif" font-size="10.00" fill="#000000">/basic.h</text>
</a>
</g>
</g>
<!-- Node0&#45;&gt;Node1 -->
<g id="edge1" class="edge">
<title>Node0&#45;&gt;Node1</title>
<path fill="none" stroke="#191970" d="M587.6682,-436.2604C576.0861,-413.7314 551.0586,-356.615 569,-313 573.6651,-301.6593 582.169,-291.4898 590.9131,-283.2432"/>
<polygon fill="#191970" stroke="#191970" points="593.3711,-285.7425 598.5686,-276.5101 588.7481,-280.4862 593.3711,-285.7425"/>
</g>
<!-- Node6 -->
<g id="node7" class="node">
<title>Node6</title>
<g id="a_node7"><a xlink:href="$params_2basic_8h.html" xlink:title="Functions to deal with sets of energy parameters.">
<polygon fill="none" stroke="#000000" points="85,-129 85,-148 223,-148 223,-129 85,-129"/>
<text text-anchor="middle" x="154" y="-136" font-family="Helvetica,sans-Serif" font-size="10.00" fill="#000000">ViennaRNA/params/basic.h</text>
</a>
</g>
</g>
<!-- Node0&#45;&gt;Node6 -->
<g id="edge42" class="edge">
<title>Node0&#45;&gt;Node6</title>
<path fill="none" stroke="#191970" d="M524.7994,-444.0527C388.4097,-438.2987 95,-415.7777 95,-328.5 95,-328.5 95,-328.5 95,-261.5 95,-228.6194 99.4012,-219.462 114,-190 120.1425,-177.6037 129.5354,-165.3071 137.6759,-155.8397"/>
<polygon fill="#191970" stroke="#191970" points="140.3437,-158.1068 144.394,-148.3167 135.1226,-153.4442 140.3437,-158.1068"/>
</g>
<!-- Node15 -->
<g id="node16" class="node">
<title>Node15</title>
<g id="a_node16"><a xlink:href="$utils_2structures_8h.html" xlink:title="Various utility&#45; and helper&#45;functions for secondary structure parsing, converting,...">
<polygon fill="none" stroke="#000000" points="1327,-62 1327,-81 1471,-81 1471,-62 1327,-62"/>
<text text-anchor="middle" x="1399" y="-69" font-family="Helvetica,sans-Serif" font-size="10.00" fill="#000000">ViennaRNA/utils/structures.h</text>
</a>
</g>
</g>
<!-- Node0&#45;&gt;Node15 -->
<g id="edge62" class="edge">
<title>Node0&#45;&gt;Node15</title>
<path fill="none" stroke="#191970" d="M661.0234,-444.4561C873.8615,-438.7324 1513,-414.3939 1513,-328.5 1513,-328.5 1513,-328.5 1513,-200 1513,-147.9335 1459.9795,-107.1189 1426.256,-86.4249"/>
<polygon fill="#191970" stroke="#191970" points="1427.7037,-83.2145 1417.3161,-81.1291 1424.1359,-89.2371 1427.7037,-83.2145"/>
</g>
<!-- Node17 -->
<g id="node18" class="node">
<title>Node17</title>
<g id="a_node18"><a xlink:href="$part__func_8h.html" xlink:title="Partition function implementations.">
<polygon fill="none" stroke="#000000" points="675,-380.5 675,-399.5 795,-399.5 795,-380.5 675,-380.5"/>
<text text-anchor="middle" x="735" y="-387.5" font-family="Helvetica,sans-Serif" font-size="10.00" fill="#000000">ViennaRNA/part_func.h</text>
</a>
</g>
</g>
<!-- Node0&#45;&gt;Node17 -->
<g id="edge43" class="edge">
<title>Node0&#45;&gt;Node17</title>
<path fill="none" stroke="#191970" d="M617.4107,-436.3733C640.6142,-427.2226 675.7038,-413.3844 701.5142,-403.2057"/>
<polygon fill="#191970" stroke="#191970" points="702.8892,-406.4258 710.9079,-399.5011 700.3211,-399.9139 702.8892,-406.4258"/>
</g>
<!-- Node19 -->
<g id="node20" class="node">
<title>Node19</title>
<g id="a_node20"><a xlink:href="$equilibrium__probs_8h.html" xlink:title="Equilibrium Probability implementations.">
<polygon fill="none" stroke="#000000" points="578,-313.5 578,-343.5 696,-343.5 696,-313.5 578,-313.5"/>
<text text-anchor="start" x="586" y="-331.5" font-family="Helvetica,sans-Serif" font-size="10.00" fill="#000000">ViennaRNA/equilibrium</text>
<text text-anchor="middle" x="637" y="-320.5" font-family="Helvetica,sans-Serif" font-size="10.00" fill="#000000">_probs.h</text>
</a>
</g>
</g>
<!-- Node0&#45;&gt;Node19 -->
<g id="edge59" class="edge">
<title>Node0&#45;&gt;Node19</title>
<path fill="none" stroke="#191970" d="M596.6007,-436.3845C603.341,-418.3847 618.0556,-379.0901 627.7417,-353.2239"/>
<polygon fill="#191970" stroke="#191970" points="631.0735,-354.3067 631.3027,-343.7143 624.5181,-351.8518 631.0735,-354.3067"/>
</g>
<!-- Node21 -->
<g id="node22" class="node">
<title>Node21</title>
<g id="a_node22"><a xlink:href="$concentrations_8h.html" xlink:title="Concentration computations for RNA&#45;RNA interactions.">
<polygon fill="none" stroke="#000000" points="123.5,-190.5 123.5,-209.5 266.5,-209.5 266.5,-190.5 123.5,-190.5"/>
<text text-anchor="middle" x="195" y="-197.5" font-family="Helvetica,sans-Serif" font-size="10.00" fill="#000000">ViennaRNA/concentrations.h</text>
</a>
</g>
</g>
<!-- Node0&#45;&gt;Node21 -->
<g id="edge60" class="edge">
<title>Node0&#45;&gt;Node21</title>
<path fill="none" stroke="#191970" d="M524.9686,-437.8448C456.949,-426.6944 352.4537,-401.0991 281,-344 238.8778,-310.3399 212.6971,-250.0353 201.434,-219.2411"/>
<polygon fill="#191970" stroke="#191970" points="204.6885,-217.9452 198.0706,-209.6716 198.0845,-220.2664 204.6885,-217.9452"/>
</g>
<!-- Node2 -->
<g id="node3" class="node">
<title>Node2</title>
<g id="a_node3"><a xlink:href="$constants_8h.html" xlink:title="Energy parameter constants.">
<polygon fill="none" stroke="#000000" points="0,-62 0,-81 158,-81 158,-62 0,-62"/>
<text text-anchor="middle" x="79" y="-69" font-family="Helvetica,sans-Serif" font-size="10.00" fill="#000000">ViennaRNA/params/constants.h</text>
</a>
</g>
</g>
<!-- Node1&#45;&gt;Node2 -->
<g id="edge2" class="edge">
<title>Node1&#45;&gt;Node2</title>
<path fill="none" stroke="#191970" d="M552.807,-257.8208C423.8006,-250.2993 150.8707,-232.0019 114,-210 88.1711,-194.5871 84.8341,-182.7515 76,-154 69.6463,-133.3212 71.8278,-108.3475 74.6885,-91.332"/>
<polygon fill="#191970" stroke="#191970" points="78.1424,-91.9043 76.5835,-81.4247 71.267,-90.5891 78.1424,-91.9043"/>
</g>
<!-- Node4 -->
<g id="node5" class="node">
<title>Node4</title>
<g id="a_node5"><a xlink:href="$fold__compound_8h.html" xlink:title="The Basic Fold Compound API.">
<polygon fill="none" stroke="#000000" points="691,-190.5 691,-209.5 837,-209.5 837,-190.5 691,-190.5"/>
<text text-anchor="middle" x="764" y="-197.5" font-family="Helvetica,sans-Serif" font-size="10.00" fill="#000000">ViennaRNA/fold_compound.h</text>
</a>
</g>
</g>
<!-- Node1&#45;&gt;Node4 -->
<g id="edge4" class="edge">
<title>Node1&#45;&gt;Node4</title>
<path fill="none" stroke="#191970" d="M655.2264,-246.4554C678.8316,-236.374 709.6454,-223.2139 732.4476,-213.4755"/>
<polygon fill="#191970" stroke="#191970" points="733.8634,-216.6767 741.6851,-209.5303 731.114,-210.2393 733.8634,-216.6767"/>
</g>
<!-- Node5 -->
<g id="node6" class="node">
<title>Node5</title>
<g id="a_node6"><a xlink:href="$model_8h.html" xlink:title="The model details data structure and its corresponding modifiers.">
<polygon fill="none" stroke="#000000" points="198,-62 198,-81 304,-81 304,-62 198,-62"/>
<text text-anchor="middle" x="251" y="-69" font-family="Helvetica,sans-Serif" font-size="10.00" fill="#000000">ViennaRNA/model.h</text>
</a>
</g>
</g>
<!-- Node1&#45;&gt;Node5 -->
<g id="edge33" class="edge">
<title>Node1&#45;&gt;Node5</title>
<path fill="none" stroke="#191970" d="M570.914,-246.4695C538.7019,-236.4648 495.7135,-222.8456 458,-210 433.3786,-201.6137 427.7903,-197.873 403,-190 345.0432,-171.5937 313.3835,-197.6053 271,-154 254.7613,-137.2932 250.9514,-109.7599 250.4126,-91.1423"/>
<polygon fill="#191970" stroke="#191970" points="253.9127,-91.1186 250.4109,-81.1193 246.9127,-91.1199 253.9127,-91.1186"/>
</g>
<!-- Node1&#45;&gt;Node6 -->
<g id="edge34" class="edge">
<title>Node1&#45;&gt;Node6</title>
<path fill="none" stroke="#191970" d="M552.8816,-247.5276C509.978,-237.5889 453.4457,-223.6333 404,-210 374.452,-201.853 367.478,-198.3968 338,-190 288.6121,-175.9319 231.7848,-160.9077 194.3906,-150.7404"/>
<polygon fill="#191970" stroke="#191970" points="194.9501,-147.265 184.3812,-148.0063 193.1055,-154.0176 194.9501,-147.265"/>
</g>
<!-- Node8 -->
<g id="node9" class="node">
<title>Node8</title>
<g id="a_node9"><a xlink:href="$dp__matrices_8h.html" xlink:title="Functions to deal with standard dynamic programming (DP) matrices.">
<polygon fill="none" stroke="#000000" points="549.5,-129 549.5,-148 682.5,-148 682.5,-129 549.5,-129"/>
<text text-anchor="middle" x="616" y="-136" font-family="Helvetica,sans-Serif" font-size="10.00" fill="#000000">ViennaRNA/dp_matrices.h</text>
</a>
</g>
</g>
<!-- Node1&#45;&gt;Node8 -->
<g id="edge35" class="edge">
<title>Node1&#45;&gt;Node8</title>
<path fill="none" stroke="#191970" d="M614.8953,-246.4178C611.5074,-224.2662 609.9936,-182.9061 611.524,-158.3234"/>
<polygon fill="#191970" stroke="#191970" points="615.0384,-158.3317 612.4849,-148.0493 608.0688,-157.6799 615.0384,-158.3317"/>
</g>
<!-- Node9 -->
<g id="node10" class="node">
<title>Node9</title>
<g id="a_node10"><a xlink:href="$hard_8h.html" xlink:title="Functions and data structures for handling of secondary structure hard constraints.">
<polygon fill="none" stroke="#000000" points="1052.5,-123.5 1052.5,-153.5 1171.5,-153.5 1171.5,-123.5 1052.5,-123.5"/>
<text text-anchor="start" x="1060.5" y="-141.5" font-family="Helvetica,sans-Serif" font-size="10.00" fill="#000000">ViennaRNA/constraints</text>
<text text-anchor="middle" x="1112" y="-130.5" font-family="Helvetica,sans-Serif" font-size="10.00" fill="#000000">/hard.h</text>
</a>
</g>
</g>
<!-- Node1&#45;&gt;Node9 -->
<g id="edge36" class="edge">
<title>Node1&#45;&gt;Node9</title>
<path fill="none" stroke="#191970" d="M687.4065,-246.8526C732.4197,-236.8962 792.8831,-223.1857 846,-210 915.5791,-192.7278 994.8895,-171.1644 1048.6711,-156.2595"/>
<polygon fill="#191970" stroke="#191970" points="1049.7088,-159.6039 1058.4081,-153.5564 1047.8363,-152.8589 1049.7088,-159.6039"/>
</g>
<!-- Node11 -->
<g id="node12" class="node">
<title>Node11</title>
<g id="a_node12"><a xlink:href="$soft_8h.html" xlink:title="Functions and data structures for secondary structure soft constraints.">
<polygon fill="none" stroke="#000000" points="279.5,-123.5 279.5,-153.5 398.5,-153.5 398.5,-123.5 279.5,-123.5"/>
<text text-anchor="start" x="287.5" y="-141.5" font-family="Helvetica,sans-Serif" font-size="10.00" fill="#000000">ViennaRNA/constraints</text>
<text text-anchor="middle" x="339" y="-130.5" font-family="Helvetica,sans-Serif" font-size="10.00" fill="#000000">/soft.h</text>
</a>
</g>
</g>
<!-- Node1&#45;&gt;Node11 -->
<g id="edge37" class="edge">
<title>Node1&#45;&gt;Node11</title>
<path fill="none" stroke="#191970" d="M580.9296,-246.4178C527.2256,-224.0874 431.4668,-182.2372 377.8716,-157.7315"/>
<polygon fill="#191970" stroke="#191970" points="379.24,-154.5085 368.6921,-153.513 376.317,-160.869 379.24,-154.5085"/>
</g>
<!-- Node12 -->
<g id="node13" class="node">
<title>Node12</title>
<g id="a_node13"><a xlink:href="$grammar_8h.html" xlink:title="Implementations for the RNA folding grammar.">
<polygon fill="none" stroke="#000000" points="700.5,-129 700.5,-148 817.5,-148 817.5,-129 700.5,-129"/>
<text text-anchor="middle" x="759" y="-136" font-family="Helvetica,sans-Serif" font-size="10.00" fill="#000000">ViennaRNA/grammar.h</text>
</a>
</g>
</g>
<!-- Node1&#45;&gt;Node12 -->
<g id="edge38" class="edge">
<title>Node1&#45;&gt;Node12</title>
<path fill="none" stroke="#191970" d="M631.0828,-246.4992C642.7561,-231.2692 662.1648,-207.5013 682,-190 697.827,-176.0353 717.6636,-162.8535 733.239,-153.3222"/>
<polygon fill="#191970" stroke="#191970" points="735.0797,-156.2995 741.8546,-148.1538 731.4787,-150.2967 735.0797,-156.2995"/>
</g>
<!-- Node13 -->
<g id="node14" class="node">
<title>Node13</title>
<g id="a_node14"><a xlink:href="$structured__domains_8h.html" xlink:title="This module provides interfaces that deal with additional structured domains in the folding grammar.">
<polygon fill="none" stroke="#000000" points="416.5,-123.5 416.5,-153.5 531.5,-153.5 531.5,-123.5 416.5,-123.5"/>
<text text-anchor="start" x="424.5" y="-141.5" font-family="Helvetica,sans-Serif" font-size="10.00" fill="#000000">ViennaRNA/structured</text>
<text text-anchor="middle" x="474" y="-130.5" font-family="Helvetica,sans-Serif" font-size="10.00" fill="#000000">_domains.h</text>
</a>
</g>
</g>
<!-- Node1&#45;&gt;Node13 -->
<g id="edge39" class="edge">
<title>Node1&#45;&gt;Node13</title>
<path fill="none" stroke="#191970" d="M602.0975,-246.4178C576.4843,-224.8395 529.2357,-185.0342 499.8352,-160.2653"/>
<polygon fill="#191970" stroke="#191970" points="501.9517,-157.4719 492.0489,-153.7056 497.4416,-162.8253 501.9517,-157.4719"/>
</g>
<!-- Node14 -->
<g id="node15" class="node">
<title>Node14</title>
<g id="a_node15"><a xlink:href="$unstructured__domains_8h.html" xlink:title="Functions to modify unstructured domains, e.g. to incorporate ligands binding to unpaired stretches.">
<polygon fill="none" stroke="#000000" points="1189.5,-123.5 1189.5,-153.5 1314.5,-153.5 1314.5,-123.5 1189.5,-123.5"/>
<text text-anchor="start" x="1197.5" y="-141.5" font-family="Helvetica,sans-Serif" font-size="10.00" fill="#000000">ViennaRNA/unstructured</text>
<text text-anchor="middle" x="1252" y="-130.5" font-family="Helvetica,sans-Serif" font-size="10.00" fill="#000000">_domains.h</text>
</a>
</g>
</g>
<!-- Node1&#45;&gt;Node14 -->
<g id="edge40" class="edge">
<title>Node1&#45;&gt;Node14</title>
<path fill="none" stroke="#191970" d="M687.3226,-248.2038C791.4456,-228.5607 997.4594,-190.1957 1172,-154 1174.3453,-153.5136 1176.7332,-153.0142 1179.1482,-152.5062"/>
<polygon fill="#191970" stroke="#191970" points="1180.1299,-155.8761 1189.1889,-150.382 1178.681,-149.0277 1180.1299,-155.8761"/>
</g>
<!-- Node1&#45;&gt;Node15 -->
<g id="edge41" class="edge">
<title>Node1&#45;&gt;Node15</title>
<path fill="none" stroke="#191970" d="M687.1443,-256.6729C839.5694,-245.1737 1206.5085,-212.6503 1315,-154 1343.3515,-138.6732 1366.5495,-108.3851 1381.7808,-89.0804"/>
<polygon fill="#191970" stroke="#191970" points="1384.6756,-91.0653 1388.2082,-81.0767 1379.2177,-86.6822 1384.6756,-91.0653"/>
</g>
<!-- Node3 -->
<g id="node4" class="node">
<title>Node3</title>
<g id="a_node4"><a xlink:title=" ">
<polygon fill="none" stroke="#bfbfbf" points="55,-.5 55,-19.5 103,-19.5 103,-.5 55,-.5"/>
<text text-anchor="middle" x="79" y="-7.5" font-family="Helvetica,sans-Serif" font-size="10.00" fill="#000000">limits.h</text>
</a>
</g>
</g>
<!-- Node2&#45;&gt;Node3 -->
<g id="edge3" class="edge">
<title>Node2&#45;&gt;Node3</title>
<path fill="none" stroke="#191970" d="M79,-61.8906C79,-53.3657 79,-40.6392 79,-29.9235"/>
<polygon fill="#191970" stroke="#191970" points="82.5001,-29.7448 79,-19.7449 75.5001,-29.7449 82.5001,-29.7448"/>
</g>
<!-- Node4&#45;&gt;Node5 -->
<g id="edge5" class="edge">
<title>Node4&#45;&gt;Node5</title>
<path fill="none" stroke="#191970" d="M786.1066,-190.4742C800.6331,-182.902 818.4737,-170.7828 827,-154 833.2405,-141.7165 836.2984,-133.1669 827,-123 792.9566,-85.777 457.3808,-75.2582 314.6843,-72.456"/>
<polygon fill="#191970" stroke="#191970" points="314.4061,-68.9502 304.3414,-72.2599 314.2732,-75.949 314.4061,-68.9502"/>
</g>
<!-- Node4&#45;&gt;Node6 -->
<g id="edge6" class="edge">
<title>Node4&#45;&gt;Node6</title>
<path fill="none" stroke="#191970" d="M690.9584,-194.5698C592.9994,-186.6951 414.0473,-171.1585 262,-154 249.5489,-152.5949 236.3702,-150.9766 223.6445,-149.3272"/>
<polygon fill="#191970" stroke="#191970" points="223.9294,-145.8346 213.5585,-148.0012 223.0169,-152.7749 223.9294,-145.8346"/>
</g>
<!-- Node7 -->
<g id="node8" class="node">
<title>Node7</title>
<g id="a_node8"><a xlink:href="$sequence_8h.html" xlink:title="Functions and data structures related to sequence representations ,.">
<polygon fill="none" stroke="#000000" points="912,-129 912,-148 1034,-148 1034,-129 912,-129"/>
<text text-anchor="middle" x="973" y="-136" font-family="Helvetica,sans-Serif" font-size="10.00" fill="#000000">ViennaRNA/sequence.h</text>
</a>
</g>
</g>
<!-- Node4&#45;&gt;Node7 -->
<g id="edge11" class="edge">
<title>Node4&#45;&gt;Node7</title>
<path fill="none" stroke="#191970" d="M791.5938,-190.3906C825.7843,-179.7169 884.2864,-162.4566 925.6618,-150.8033"/>
<polygon fill="#191970" stroke="#191970" points="926.8379,-154.1086 935.5238,-148.0419 924.9504,-147.3679 926.8379,-154.1086"/>
</g>
<!-- Node4&#45;&gt;Node8 -->
<g id="edge13" class="edge">
<title>Node4&#45;&gt;Node8</title>
<path fill="none" stroke="#191970" d="M735.8125,-190.3906C709.159,-180.1457 669.6786,-163.8326 643.3193,-152.2339"/>
<polygon fill="#191970" stroke="#191970" points="644.4721,-148.9159 633.9133,-148.0419 641.6225,-155.3096 644.4721,-148.9159"/>
</g>
<!-- Node4&#45;&gt;Node9 -->
<g id="edge16" class="edge">
<title>Node4&#45;&gt;Node9</title>
<path fill="none" stroke="#191970" d="M821.0743,-190.4923C875.8515,-181.8417 960.6344,-168.2761 1034,-154 1036.7681,-153.4614 1039.595,-152.8946 1042.4542,-152.3091"/>
<polygon fill="#191970" stroke="#191970" points="1043.1894,-155.7311 1052.2622,-150.2599 1041.7577,-148.8791 1043.1894,-155.7311"/>
</g>
<!-- Node4&#45;&gt;Node11 -->
<g id="edge20" class="edge">
<title>Node4&#45;&gt;Node11</title>
<path fill="none" stroke="#191970" d="M690.7976,-193.261C619.1119,-185.8124 506.8614,-172.6 406.4372,-155.2851"/>
<polygon fill="#191970" stroke="#191970" points="406.8989,-151.8129 396.4461,-153.5418 405.6956,-158.7087 406.8989,-151.8129"/>
</g>
<!-- Node4&#45;&gt;Node12 -->
<g id="edge24" class="edge">
<title>Node4&#45;&gt;Node12</title>
<path fill="none" stroke="#191970" d="M758.1563,-190.3906C755.7998,-181.8657 754.3314,-169.1392 754.2563,-158.4235"/>
<polygon fill="#191970" stroke="#191970" points="757.7611,-158.3889 754.7035,-148.2449 750.7678,-158.0816 757.7611,-158.3889"/>
</g>
<!-- Node4&#45;&gt;Node13 -->
<g id="edge26" class="edge">
<title>Node4&#45;&gt;Node13</title>
<path fill="none" stroke="#191970" d="M716.0792,-190.4597C672.9919,-181.8039 607.7167,-168.4996 541.4981,-154.0812"/>
<polygon fill="#191970" stroke="#191970" points="542.2403,-150.6609 531.7238,-151.9463 540.7465,-157.4997 542.2403,-150.6609"/>
</g>
<!-- Node4&#45;&gt;Node14 -->
<g id="edge27" class="edge">
<title>Node4&#45;&gt;Node14</title>
<path fill="none" stroke="#191970" d="M837.1837,-193.6987C919.081,-186.4725 1055.3802,-173.1076 1172,-154 1174.3637,-153.6127 1176.7673,-153.1976 1179.1955,-152.761"/>
<polygon fill="#191970" stroke="#191970" points="1180.099,-156.1524 1189.2777,-150.8607 1178.8024,-149.2735 1180.099,-156.1524"/>
</g>
<!-- Node6&#45;&gt;Node1 -->
<g id="edge8" class="edge">
<title>Node6&#45;&gt;Node1</title>
<path fill="none" stroke="#191970" d="M197.8198,-148.0063C239.0336,-158.0742 301.9687,-174.6093 356,-190 385.478,-198.3968 392.452,-201.853 422,-210 465.751,-222.0631 515.0503,-234.3786 553.5726,-243.9404"/>
<polygon fill="#191970" stroke="#191970" points="553.0815,-247.4246 563.63,-246.4357 554.7671,-240.6306 553.0815,-247.4246"/>
</g>
<!-- Node6&#45;&gt;Node2 -->
<g id="edge7" class="edge">
<title>Node6&#45;&gt;Node2</title>
<path fill="none" stroke="#191970" d="M143.2543,-128.9005C131.336,-118.2535 111.8943,-100.8856 97.5132,-88.0385"/>
<polygon fill="#191970" stroke="#191970" points="99.5151,-85.1337 89.7257,-81.0817 94.8516,-90.354 99.5151,-85.1337"/>
</g>
<!-- Node6&#45;&gt;Node4 -->
<g id="edge9" class="edge">
<title>Node6&#45;&gt;Node4</title>
<path fill="none" stroke="#191970" d="M223.2794,-146.9913C241.7744,-149.4024 261.6753,-151.9321 280,-154 420.6629,-169.8738 584.3524,-184.3594 680.8468,-192.6746"/>
<polygon fill="#191970" stroke="#191970" points="680.5717,-196.1638 690.8349,-193.5341 681.1718,-189.1896 680.5717,-196.1638"/>
</g>
<!-- Node6&#45;&gt;Node5 -->
<g id="edge10" class="edge">
<title>Node6&#45;&gt;Node5</title>
<path fill="none" stroke="#191970" d="M167.8977,-128.9005C183.8164,-117.9052 210.1121,-99.7422 228.8599,-86.7927"/>
<polygon fill="#191970" stroke="#191970" points="230.8892,-89.6448 237.128,-81.0817 226.9108,-83.8852 230.8892,-89.6448"/>
</g>
<!-- Node7&#45;&gt;Node4 -->
<g id="edge12" class="edge">
<title>Node7&#45;&gt;Node4</title>
<path fill="none" stroke="#191970" d="M945.6224,-148.0419C911.5346,-158.6877 853.0478,-175.9459 811.6003,-187.6229"/>
<polygon fill="#191970" stroke="#191970" points="810.4042,-184.3232 801.7188,-190.3906 812.2922,-191.0638 810.4042,-184.3232"/>
</g>
<!-- Node8&#45;&gt;Node1 -->
<g id="edge14" class="edge">
<title>Node8&#45;&gt;Node1</title>
<path fill="none" stroke="#191970" d="M620.1362,-148.0493C623.9389,-166.8307 625.893,-209.1173 624.747,-236.4249"/>
<polygon fill="#191970" stroke="#191970" points="621.2531,-236.2193 624.1238,-246.4178 628.2395,-236.6551 621.2531,-236.2193"/>
</g>
<!-- Node8&#45;&gt;Node4 -->
<g id="edge15" class="edge">
<title>Node8&#45;&gt;Node4</title>
<path fill="none" stroke="#191970" d="M644.0119,-148.0419C670.6089,-158.2601 710.0898,-174.5701 736.5067,-186.1895"/>
<polygon fill="#191970" stroke="#191970" points="735.3786,-189.5185 745.9375,-190.3906 738.2271,-183.1243 735.3786,-189.5185"/>
</g>
<!-- Node9&#45;&gt;Node4 -->
<g id="edge17" class="edge">
<title>Node9&#45;&gt;Node4</title>
<path fill="none" stroke="#191970" d="M1054.1806,-153.5723C1053.4502,-153.7167 1052.7231,-153.8593 1052,-154 982.7898,-167.4675 903.4192,-180.3027 845.4846,-188.9759"/>
<polygon fill="#191970" stroke="#191970" points="844.6642,-185.5593 835.2879,-190.4923 845.694,-192.4831 844.6642,-185.5593"/>
</g>
<!-- Node10 -->
<g id="node11" class="node">
<title>Node10</title>
<g id="a_node11"><a xlink:href="$constraints_2basic_8h.html" xlink:title="Functions and data structures for constraining secondary structure predictions and evaluation.">
<polygon fill="none" stroke="#000000" points="824.5,-56.5 824.5,-86.5 943.5,-86.5 943.5,-56.5 824.5,-56.5"/>
<text text-anchor="start" x="832.5" y="-74.5" font-family="Helvetica,sans-Serif" font-size="10.00" fill="#000000">ViennaRNA/constraints</text>
<text text-anchor="middle" x="884" y="-63.5" font-family="Helvetica,sans-Serif" font-size="10.00" fill="#000000">/basic.h</text>
</a>
</g>
</g>
<!-- Node9&#45;&gt;Node10 -->
<g id="edge18" class="edge">
<title>Node9&#45;&gt;Node10</title>
<path fill="none" stroke="#191970" d="M1060.8323,-123.4639C1026.6295,-113.4131 981.4531,-100.1375 945.3244,-89.5208"/>
<polygon fill="#191970" stroke="#191970" points="945.972,-86.0631 935.3908,-86.6017 943.9983,-92.7792 945.972,-86.0631"/>
</g>
<!-- Node10&#45;&gt;Node4 -->
<g id="edge19" class="edge">
<title>Node10&#45;&gt;Node4</title>
<path fill="none" stroke="#191970" d="M883.2482,-86.629C881.6053,-104.6269 876.4046,-134.6626 860,-154 847.1887,-169.1017 828.2825,-179.6205 810.6284,-186.747"/>
<polygon fill="#191970" stroke="#191970" points="809.1269,-183.5722 800.9961,-190.3648 811.5882,-190.1252 809.1269,-183.5722"/>
</g>
<!-- Node11&#45;&gt;Node1 -->
<g id="edge21" class="edge">
<title>Node11&#45;&gt;Node1</title>
<path fill="none" stroke="#191970" d="M377.9039,-153.513C431.5208,-175.803 527.2796,-217.6509 580.9619,-242.1924"/>
<polygon fill="#191970" stroke="#191970" points="579.6101,-245.423 590.1581,-246.4178 582.5327,-239.0623 579.6101,-245.423"/>
</g>
<!-- Node11&#45;&gt;Node4 -->
<g id="edge22" class="edge">
<title>Node11&#45;&gt;Node4</title>
<path fill="none" stroke="#191970" d="M398.7002,-150.4623C404.8911,-151.7408 411.0755,-152.9541 417,-154 506.7878,-169.8508 610.2227,-182.6083 680.7,-190.6311"/>
<polygon fill="#191970" stroke="#191970" points="680.5234,-194.1334 690.8536,-191.7803 681.3107,-187.1778 680.5234,-194.1334"/>
</g>
<!-- Node11&#45;&gt;Node10 -->
<g id="edge23" class="edge">
<title>Node11&#45;&gt;Node10</title>
<path fill="none" stroke="#191970" d="M398.7579,-124.6414C401.8773,-124.0542 404.9719,-123.5023 408,-123 551.4537,-99.2056 721.1318,-83.8818 814.201,-76.5633"/>
<polygon fill="#191970" stroke="#191970" points="814.6412,-80.0397 824.3393,-75.774 814.0978,-73.0608 814.6412,-80.0397"/>
</g>
<!-- Node12&#45;&gt;Node4 -->
<g id="edge25" class="edge">
<title>Node12&#45;&gt;Node4</title>
<path fill="none" stroke="#191970" d="M764.881,-148.2449C767.2281,-156.814 768.6844,-169.5519 768.7448,-180.2462"/>
<polygon fill="#191970" stroke="#191970" points="765.2414,-180.2413 768.2813,-190.3906 772.2342,-180.5608 765.2414,-180.2413"/>
</g>
<!-- Node14&#45;&gt;Node1 -->
<g id="edge28" class="edge">
<title>Node14&#45;&gt;Node1</title>
<path fill="none" stroke="#191970" d="M1192.2357,-153.5351C1191.4867,-153.6913 1190.7412,-153.8463 1190,-154 1014.3873,-190.418 806.9138,-229.0321 697.0691,-248.5636"/>
<polygon fill="#191970" stroke="#191970" points="696.3062,-245.1442 687.0709,-250.3364 697.5284,-252.0367 696.3062,-245.1442"/>
</g>
<!-- Node14&#45;&gt;Node4 -->
<g id="edge29" class="edge">
<title>Node14&#45;&gt;Node4</title>
<path fill="none" stroke="#191970" d="M1192.6298,-153.5606C1191.7485,-153.7106 1190.8715,-153.8572 1190,-154 1071.7721,-173.3711 933.3183,-186.84 847.0522,-193.9942"/>
<polygon fill="#191970" stroke="#191970" points="846.7357,-190.5083 837.0553,-194.8142 847.308,-197.4848 846.7357,-190.5083"/>
</g>
<!-- Node14&#45;&gt;Node15 -->
<g id="edge30" class="edge">
<title>Node14&#45;&gt;Node15</title>
<path fill="none" stroke="#191970" d="M1284.9897,-123.4639C1310.0988,-112.0196 1344.3808,-96.3945 1368.7795,-85.274"/>
<polygon fill="#191970" stroke="#191970" points="1370.2809,-88.4361 1377.9287,-81.1039 1367.3777,-82.0665 1370.2809,-88.4361"/>
</g>
<!-- Node15&#45;&gt;Node1 -->
<g id="edge32" class="edge">
<title>Node15&#45;&gt;Node1</title>
<path fill="none" stroke="#191970" d="M1398.6144,-81.0767C1391.5343,-98.7567 1365.6937,-136.3259 1333,-154 1224.7109,-212.5409 858.9372,-245.0523 697.528,-256.6084"/>
<polygon fill="#191970" stroke="#191970" points="696.9248,-253.1422 687.1967,-257.3393 697.4188,-260.1248 696.9248,-253.1422"/>
</g>
<!-- Node16 -->
<g id="node17" class="node">
<title>Node16</title>
<g id="a_node17"><a xlink:title=" ">
<polygon fill="none" stroke="#bfbfbf" points="1376,-.5 1376,-19.5 1422,-19.5 1422,-.5 1376,-.5"/>
<text text-anchor="middle" x="1399" y="-7.5" font-family="Helvetica,sans-Serif" font-size="10.00" fill="#000000">stdio.h</text>
</a>
</g>
</g>
<!-- Node15&#45;&gt;Node16 -->
<g id="edge31" class="edge">
<title>Node15&#45;&gt;Node16</title>
<path fill="none" stroke="#191970" d="M1399,-61.8906C1399,-53.3657 1399,-40.6392 1399,-29.9235"/>
<polygon fill="#191970" stroke="#191970" points="1402.5001,-29.7448 1399,-19.7449 1395.5001,-29.7449 1402.5001,-29.7448"/>
</g>
<!-- Node17&#45;&gt;Node1 -->
<g id="edge44" class="edge">
<title>Node17&#45;&gt;Node1</title>
<path fill="none" stroke="#191970" d="M733.348,-380.4597C730.2246,-364.8208 722.1663,-333.4307 705,-313 694.1537,-300.0912 679.2028,-289.5335 664.8612,-281.4129"/>
<polygon fill="#191970" stroke="#191970" points="666.5169,-278.3293 656.0525,-276.6723 663.1997,-284.4934 666.5169,-278.3293"/>
</g>
<!-- Node17&#45;&gt;Node4 -->
<g id="edge45" class="edge">
<title>Node17&#45;&gt;Node4</title>
<path fill="none" stroke="#191970" d="M736.478,-380.3167C741.0146,-350.5938 754.8052,-260.242 760.9682,-219.8634"/>
<polygon fill="#191970" stroke="#191970" points="764.4412,-220.3053 762.4902,-209.8917 757.5214,-219.2491 764.4412,-220.3053"/>
</g>
<!-- Node17&#45;&gt;Node6 -->
<g id="edge47" class="edge">
<title>Node17&#45;&gt;Node6</title>
<path fill="none" stroke="#191970" d="M693.1038,-380.4909C659.1592,-372.2882 610.3511,-359.3569 569,-344 447.1329,-298.7411 421.1231,-275.7903 309,-210 294.2083,-201.3207 291.2737,-197.7999 276,-190 247.4405,-175.4154 213.7844,-161.435 189.0641,-151.7301"/>
<polygon fill="#191970" stroke="#191970" points="190.3136,-148.4608 179.7249,-148.1 187.7775,-154.9852 190.3136,-148.4608"/>
</g>
<!-- Node17&#45;&gt;Node15 -->
<g id="edge46" class="edge">
<title>Node17&#45;&gt;Node15</title>
<path fill="none" stroke="#191970" d="M795.2435,-385.8832C971.6952,-373.0269 1475,-330.324 1475,-261.5 1475,-261.5 1475,-261.5 1475,-200 1475,-154.7888 1439.7147,-111.5297 1417.2296,-88.5531"/>
<polygon fill="#191970" stroke="#191970" points="1419.4629,-85.8396 1409.8889,-81.3019 1414.5436,-90.8196 1419.4629,-85.8396"/>
</g>
<!-- Node18 -->
<g id="node19" class="node">
<title>Node18</title>
<g id="a_node19"><a xlink:href="$centroid_8h.html" xlink:title="Centroid structure computation.">
<polygon fill="none" stroke="#000000" points="790,-319 790,-338 904,-338 904,-319 790,-319"/>
<text text-anchor="middle" x="847" y="-326" font-family="Helvetica,sans-Serif" font-size="10.00" fill="#000000">ViennaRNA/centroid.h</text>
</a>
</g>
</g>
<!-- Node17&#45;&gt;Node18 -->
<g id="edge48" class="edge">
<title>Node17&#45;&gt;Node18</title>
<path fill="none" stroke="#191970" d="M752.5,-380.3906C770.7465,-370.3713 799.5624,-354.5483 820.5806,-343.0071"/>
<polygon fill="#191970" stroke="#191970" points="822.542,-345.923 829.6229,-338.0419 819.1728,-339.7872 822.542,-345.923"/>
</g>
<!-- Node17&#45;&gt;Node19 -->
<g id="edge52" class="edge">
<title>Node17&#45;&gt;Node19</title>
<path fill="none" stroke="#191970" d="M719.6875,-380.3906C706.3016,-371.9903 686.4147,-359.5103 669.4986,-348.8945"/>
<polygon fill="#191970" stroke="#191970" points="671.3042,-345.8956 660.9735,-343.5446 667.5833,-351.8248 671.3042,-345.8956"/>
</g>
<!-- Node20 -->
<g id="node21" class="node">
<title>Node20</title>
<g id="a_node21"><a xlink:href="$boltzmann__sampling_8h.html" xlink:title="Boltzmann Sampling of secondary structures from the ensemble.">
<polygon fill="none" stroke="#000000" points="1293,-246.5 1293,-276.5 1409,-276.5 1409,-246.5 1293,-246.5"/>
<text text-anchor="start" x="1301" y="-264.5" font-family="Helvetica,sans-Serif" font-size="10.00" fill="#000000">ViennaRNA/boltzmann</text>
<text text-anchor="middle" x="1351" y="-253.5" font-family="Helvetica,sans-Serif" font-size="10.00" fill="#000000">_sampling.h</text>
</a>
</g>
</g>
<!-- Node17&#45;&gt;Node20 -->
<g id="edge57" class="edge">
<title>Node17&#45;&gt;Node20</title>
<path fill="none" stroke="#191970" d="M781.5959,-380.4394C875.6624,-361.1127 1094.9729,-315.921 1279,-277 1280.2666,-276.7321 1281.5456,-276.4612 1282.8342,-276.1878"/>
<polygon fill="#191970" stroke="#191970" points="1283.7965,-279.5615 1292.8488,-274.0564 1282.3393,-272.7149 1283.7965,-279.5615"/>
</g>
<!-- Node18&#45;&gt;Node1 -->
<g id="edge49" class="edge">
<title>Node18&#45;&gt;Node1</title>
<path fill="none" stroke="#191970" d="M814.4764,-318.9005C779.674,-308.6284 723.6766,-292.1006 680.6876,-279.4122"/>
<polygon fill="#191970" stroke="#191970" points="681.4764,-275.9958 670.8946,-276.5218 679.4948,-282.7095 681.4764,-275.9958"/>
</g>
<!-- Node18&#45;&gt;Node4 -->
<g id="edge50" class="edge">
<title>Node18&#45;&gt;Node4</title>
<path fill="none" stroke="#191970" d="M840.7615,-318.8416C827.002,-297.5393 793.8544,-246.2203 775.951,-218.5025"/>
<polygon fill="#191970" stroke="#191970" points="778.6767,-216.2715 770.3109,-209.7705 772.7966,-220.0696 778.6767,-216.2715"/>
</g>
<!-- Node18&#45;&gt;Node15 -->
<g id="edge51" class="edge">
<title>Node18&#45;&gt;Node15</title>
<path fill="none" stroke="#191970" d="M904.1215,-327.6219C1041.9169,-324.9132 1383.7766,-314.4491 1418,-277 1465.8051,-224.6892 1428.4016,-130.5459 1408.9176,-90.433"/>
<polygon fill="#191970" stroke="#191970" points="1411.9209,-88.6143 1404.3048,-81.2491 1405.6656,-91.7562 1411.9209,-88.6143"/>
</g>
<!-- Node19&#45;&gt;Node1 -->
<g id="edge53" class="edge">
<title>Node19&#45;&gt;Node1</title>
<path fill="none" stroke="#191970" d="M633.1424,-313.2967C631.1428,-305.4156 628.6486,-295.5857 626.3721,-286.6135"/>
<polygon fill="#191970" stroke="#191970" points="629.6943,-285.4752 623.8423,-276.6432 622.9093,-287.1968 629.6943,-285.4752"/>
</g>
<!-- Node19&#45;&gt;Node4 -->
<g id="edge54" class="edge">
<title>Node19&#45;&gt;Node4</title>
<path fill="none" stroke="#191970" d="M655.6244,-313.3114C667.5204,-303.3538 683.08,-289.8456 696,-277 715.4217,-257.6902 736.0111,-233.8401 749.3789,-217.8448"/>
<polygon fill="#191970" stroke="#191970" points="752.3225,-219.778 756.0092,-209.8453 746.933,-215.311 752.3225,-219.778"/>
</g>
<!-- Node19&#45;&gt;Node6 -->
<g id="edge56" class="edge">
<title>Node19&#45;&gt;Node6</title>
<path fill="none" stroke="#191970" d="M596.6008,-313.4118C540.0787,-291.9827 434.4998,-250.7874 347,-210 329.7018,-201.9366 326.5591,-197.4784 309,-190 272.2761,-174.3594 229.0741,-160.3481 197.6216,-150.9033"/>
<polygon fill="#191970" stroke="#191970" points="198.4283,-147.4919 187.8457,-148.001 196.436,-154.2024 198.4283,-147.4919"/>
</g>
<!-- Node19&#45;&gt;Node15 -->
<g id="edge55" class="edge">
<title>Node19&#45;&gt;Node15</title>
<path fill="none" stroke="#191970" d="M696.265,-317.7264C797.8319,-298.8297 1011.3842,-257.2037 1189,-210 1268.3325,-188.9163 1304.6019,-209.59 1365,-154 1383.0194,-137.4151 1391.7494,-109.8532 1395.7914,-91.1958"/>
<polygon fill="#191970" stroke="#191970" points="1399.2722,-91.6266 1397.7041,-81.1485 1392.3957,-90.3175 1399.2722,-91.6266"/>
</g>
<!-- Node20&#45;&gt;Node4 -->
<g id="edge58" class="edge">
<title>Node20&#45;&gt;Node4</title>
<path fill="none" stroke="#191970" d="M1292.8402,-255.4066C1188.2949,-244.4534 968.2918,-221.4037 847.602,-208.759"/>
<polygon fill="#191970" stroke="#191970" points="847.6179,-205.2416 837.3076,-207.6804 846.8885,-212.2035 847.6179,-205.2416"/>
</g>
<!-- Node21&#45;&gt;Node6 -->
<g id="edge61" class="edge">
<title>Node21&#45;&gt;Node6</title>
<path fill="none" stroke="#191970" d="M188.5938,-190.3906C182.6114,-181.417 173.5253,-167.7879 166.1661,-156.7491"/>
<polygon fill="#191970" stroke="#191970" points="168.9558,-154.6239 160.4966,-148.2449 163.1314,-158.5068 168.9558,-154.6239"/>
</g>
</g>
</svg>
