<?xml version="1.0" encoding="UTF-8" standalone="no"?>
<!DOCTYPE svg PUBLIC "-//W3C//DTD SVG 1.1//EN"
 "http://www.w3.org/Graphics/SVG/1.1/DTD/svg11.dtd">
<!-- Generated by graphviz version 2.40.1 (0)
 -->
<!-- Title: ViennaRNA/part_func.h Pages: 1 -->
<svg width="1413pt" height="408pt"
 viewBox="0.00 0.00 1413.38 408.00" xmlns="http://www.w3.org/2000/svg" xmlns:xlink="http://www.w3.org/1999/xlink">
<g id="graph0" class="graph" transform="scale(1 1) rotate(0) translate(4 404)">
<title>ViennaRNA/part_func.h</title>
<!-- Node0 -->
<g id="node1" class="node">
<title>Node0</title>
<g id="a_node1"><a xlink:title="Partition function implementations.">
<polygon fill="#bfbfbf" stroke="#000000" points="771,-380.5 771,-399.5 891,-399.5 891,-380.5 771,-380.5"/>
<text text-anchor="middle" x="831" y="-387.5" font-family="Helvetica,sans-Serif" font-size="10.00" fill="#000000">ViennaRNA/part_func.h</text>
</a>
</g>
</g>
<!-- Node1 -->
<g id="node2" class="node">
<title>Node1</title>
<g id="a_node2"><a xlink:href="$datastructures_2basic_8h.html" xlink:title="Various data structures and pre&#45;processor macros.">
<polygon fill="none" stroke="#000000" points="569,-246.5 569,-276.5 703,-276.5 703,-246.5 569,-246.5"/>
<text text-anchor="start" x="577" y="-264.5" font-family="Helvetica,sans-Serif" font-size="10.00" fill="#000000">ViennaRNA/datastructures</text>
<text text-anchor="middle" x="636" y="-253.5" font-family="Helvetica,sans-Serif" font-size="10.00" fill="#000000">/basic.h</text>
</a>
</g>
</g>
<!-- Node0&#45;&gt;Node1 -->
<g id="edge1" class="edge">
<title>Node0&#45;&gt;Node1</title>
<path fill="none" stroke="#191970" d="M770.9604,-384.3488C718.5644,-378.0279 648.2812,-365.7071 631,-344 618.24,-327.9721 621.268,-304.1613 626.4425,-286.234"/>
<polygon fill="#191970" stroke="#191970" points="629.774,-287.307 629.5424,-276.7147 623.118,-285.1394 629.774,-287.307"/>
</g>
<!-- Node4 -->
<g id="node5" class="node">
<title>Node4</title>
<g id="a_node5"><a xlink:href="$fold__compound_8h.html" xlink:title="The Basic Fold Compound API.">
<polygon fill="none" stroke="#000000" points="749,-190.5 749,-209.5 895,-209.5 895,-190.5 749,-190.5"/>
<text text-anchor="middle" x="822" y="-197.5" font-family="Helvetica,sans-Serif" font-size="10.00" fill="#000000">ViennaRNA/fold_compound.h</text>
</a>
</g>
</g>
<!-- Node0&#45;&gt;Node4 -->
<g id="edge42" class="edge">
<title>Node0&#45;&gt;Node4</title>
<path fill="none" stroke="#191970" d="M863.8645,-380.3583C928.5439,-359.7514 1061.9928,-308.1929 1013,-246 999.2644,-228.5636 950.1235,-216.9666 905.1295,-209.7785"/>
<polygon fill="#191970" stroke="#191970" points="905.4248,-206.2828 895.0091,-208.2226 904.3611,-213.2015 905.4248,-206.2828"/>
</g>
<!-- Node6 -->
<g id="node7" class="node">
<title>Node6</title>
<g id="a_node7"><a xlink:href="$params_2basic_8h.html" xlink:title="Functions to deal with sets of energy parameters.">
<polygon fill="none" stroke="#000000" points="1252,-129 1252,-148 1390,-148 1390,-129 1252,-129"/>
<text text-anchor="middle" x="1321" y="-136" font-family="Helvetica,sans-Serif" font-size="10.00" fill="#000000">ViennaRNA/params/basic.h</text>
</a>
</g>
</g>
<!-- Node0&#45;&gt;Node6 -->
<g id="edge44" class="edge">
<title>Node0&#45;&gt;Node6</title>
<path fill="none" stroke="#191970" d="M876.019,-380.4629C908.5061,-372.7521 952.9806,-360.4703 990,-344 1115.3424,-288.2339 1249.842,-191.8398 1300.3114,-154.1991"/>
<polygon fill="#191970" stroke="#191970" points="1302.5744,-156.8768 1308.4732,-148.076 1298.3736,-151.2774 1302.5744,-156.8768"/>
</g>
<!-- Node15 -->
<g id="node16" class="node">
<title>Node15</title>
<g id="a_node16"><a xlink:href="$utils_2structures_8h.html" xlink:title="Various utility&#45; and helper&#45;functions for secondary structure parsing, converting,...">
<polygon fill="none" stroke="#000000" points="28,-62 28,-81 172,-81 172,-62 28,-62"/>
<text text-anchor="middle" x="100" y="-69" font-family="Helvetica,sans-Serif" font-size="10.00" fill="#000000">ViennaRNA/utils/structures.h</text>
</a>
</g>
</g>
<!-- Node0&#45;&gt;Node15 -->
<g id="edge43" class="edge">
<title>Node0&#45;&gt;Node15</title>
<path fill="none" stroke="#191970" d="M770.9022,-387.0475C580.0176,-376.8784 0,-339.5566 0,-261.5 0,-261.5 0,-261.5 0,-200 0,-150.5568 46.68,-108.6918 76.2539,-87.1297"/>
<polygon fill="#191970" stroke="#191970" points="78.6505,-89.7228 84.8122,-81.1039 74.6206,-83.9992 78.6505,-89.7228"/>
</g>
<!-- Node17 -->
<g id="node18" class="node">
<title>Node17</title>
<g id="a_node18"><a xlink:href="$centroid_8h.html" xlink:title="Centroid structure computation.">
<polygon fill="none" stroke="#000000" points="640,-319 640,-338 754,-338 754,-319 640,-319"/>
<text text-anchor="middle" x="697" y="-326" font-family="Helvetica,sans-Serif" font-size="10.00" fill="#000000">ViennaRNA/centroid.h</text>
</a>
</g>
</g>
<!-- Node0&#45;&gt;Node17 -->
<g id="edge45" class="edge">
<title>Node0&#45;&gt;Node17</title>
<path fill="none" stroke="#191970" d="M810.0625,-380.3906C787.7402,-370.1457 752.1963,-353.8326 726.9243,-342.2339"/>
<polygon fill="#191970" stroke="#191970" points="728.3389,-339.0322 717.7905,-338.0419 725.419,-345.3942 728.3389,-339.0322"/>
</g>
<!-- Node18 -->
<g id="node19" class="node">
<title>Node18</title>
<g id="a_node19"><a xlink:href="$equilibrium__probs_8h.html" xlink:title="Equilibrium Probability implementations.">
<polygon fill="none" stroke="#000000" points="772,-313.5 772,-343.5 890,-343.5 890,-313.5 772,-313.5"/>
<text text-anchor="start" x="780" y="-331.5" font-family="Helvetica,sans-Serif" font-size="10.00" fill="#000000">ViennaRNA/equilibrium</text>
<text text-anchor="middle" x="831" y="-320.5" font-family="Helvetica,sans-Serif" font-size="10.00" fill="#000000">_probs.h</text>
</a>
</g>
</g>
<!-- Node0&#45;&gt;Node18 -->
<g id="edge49" class="edge">
<title>Node0&#45;&gt;Node18</title>
<path fill="none" stroke="#191970" d="M831,-380.3906C831,-373.2234 831,-363.0862 831,-353.671"/>
<polygon fill="#191970" stroke="#191970" points="834.5001,-353.5446 831,-343.5446 827.5001,-353.5446 834.5001,-353.5446"/>
</g>
<!-- Node19 -->
<g id="node20" class="node">
<title>Node19</title>
<g id="a_node20"><a xlink:href="$boltzmann__sampling_8h.html" xlink:title="Boltzmann Sampling of secondary structures from the ensemble.">
<polygon fill="none" stroke="#000000" points="888,-246.5 888,-276.5 1004,-276.5 1004,-246.5 888,-246.5"/>
<text text-anchor="start" x="896" y="-264.5" font-family="Helvetica,sans-Serif" font-size="10.00" fill="#000000">ViennaRNA/boltzmann</text>
<text text-anchor="middle" x="946" y="-253.5" font-family="Helvetica,sans-Serif" font-size="10.00" fill="#000000">_sampling.h</text>
</a>
</g>
</g>
<!-- Node0&#45;&gt;Node19 -->
<g id="edge54" class="edge">
<title>Node0&#45;&gt;Node19</title>
<path fill="none" stroke="#191970" d="M849.7435,-380.4449C864.4568,-372.2593 884.7653,-359.374 899,-344 914.8216,-326.9121 927.4942,-303.5597 935.675,-286.0609"/>
<polygon fill="#191970" stroke="#191970" points="939.0536,-287.0816 939.9626,-276.5259 932.6693,-284.2108 939.0536,-287.0816"/>
</g>
<!-- Node2 -->
<g id="node3" class="node">
<title>Node2</title>
<g id="a_node3"><a xlink:href="$constants_8h.html" xlink:title="Energy parameter constants.">
<polygon fill="none" stroke="#000000" points="478,-62 478,-81 636,-81 636,-62 478,-62"/>
<text text-anchor="middle" x="557" y="-69" font-family="Helvetica,sans-Serif" font-size="10.00" fill="#000000">ViennaRNA/params/constants.h</text>
</a>
</g>
</g>
<!-- Node1&#45;&gt;Node2 -->
<g id="edge2" class="edge">
<title>Node1&#45;&gt;Node2</title>
<path fill="none" stroke="#191970" d="M568.8359,-247.1194C488.3226,-228.36 360.733,-193.266 333,-154 325.0516,-142.7461 324.4182,-133.7787 333,-123 350.0223,-101.62 412.9569,-88.3753 467.7991,-80.681"/>
<polygon fill="#191970" stroke="#191970" points="468.4927,-84.1191 477.9323,-79.3082 467.5529,-77.1825 468.4927,-84.1191"/>
</g>
<!-- Node1&#45;&gt;Node4 -->
<g id="edge4" class="edge">
<title>Node1&#45;&gt;Node4</title>
<path fill="none" stroke="#191970" d="M681.5007,-246.4554C712.8075,-236.104 753.9309,-222.5067 783.5889,-212.7004"/>
<polygon fill="#191970" stroke="#191970" points="784.7809,-215.9927 793.1766,-209.5303 782.5834,-209.3466 784.7809,-215.9927"/>
</g>
<!-- Node5 -->
<g id="node6" class="node">
<title>Node5</title>
<g id="a_node6"><a xlink:href="$model_8h.html" xlink:title="The model details data structure and its corresponding modifiers.">
<polygon fill="none" stroke="#000000" points="1268,-62 1268,-81 1374,-81 1374,-62 1268,-62"/>
<text text-anchor="middle" x="1321" y="-69" font-family="Helvetica,sans-Serif" font-size="10.00" fill="#000000">ViennaRNA/model.h</text>
</a>
</g>
</g>
<!-- Node1&#45;&gt;Node5 -->
<g id="edge33" class="edge">
<title>Node1&#45;&gt;Node5</title>
<path fill="none" stroke="#191970" d="M703.2012,-257.0042C881.0421,-244.4276 1353.5092,-206.3494 1399,-154 1420.5005,-129.2579 1381.1535,-101.8475 1350.939,-85.6761"/>
<polygon fill="#191970" stroke="#191970" points="1352.4251,-82.5045 1341.9328,-81.0336 1349.2177,-88.7265 1352.4251,-82.5045"/>
</g>
<!-- Node1&#45;&gt;Node6 -->
<g id="edge34" class="edge">
<title>Node1&#45;&gt;Node6</title>
<path fill="none" stroke="#191970" d="M703.0079,-249.7958C755.5956,-240.6661 830.3278,-226.7436 895,-210 922.6204,-202.8491 928.1988,-196.4124 956,-190 1070.5315,-163.5832 1101.781,-171.5631 1218,-154 1227.1034,-152.6243 1236.6922,-151.114 1246.2174,-149.5927"/>
<polygon fill="#191970" stroke="#191970" points="1246.7779,-153.0477 1256.0976,-148.0086 1245.6696,-146.1359 1246.7779,-153.0477"/>
</g>
<!-- Node8 -->
<g id="node9" class="node">
<title>Node8</title>
<g id="a_node9"><a xlink:href="$dp__matrices_8h.html" xlink:title="Functions to deal with standard dynamic programming (DP) matrices.">
<polygon fill="none" stroke="#000000" points="475.5,-129 475.5,-148 608.5,-148 608.5,-129 475.5,-129"/>
<text text-anchor="middle" x="542" y="-136" font-family="Helvetica,sans-Serif" font-size="10.00" fill="#000000">ViennaRNA/dp_matrices.h</text>
</a>
</g>
</g>
<!-- Node1&#45;&gt;Node8 -->
<g id="edge35" class="edge">
<title>Node1&#45;&gt;Node8</title>
<path fill="none" stroke="#191970" d="M619.8595,-246.4178C599.8198,-223.765 567.0417,-181.0248 550.9358,-156.6811"/>
<polygon fill="#191970" stroke="#191970" points="553.7779,-154.6269 545.4721,-148.0493 547.8631,-158.3708 553.7779,-154.6269"/>
</g>
<!-- Node9 -->
<g id="node10" class="node">
<title>Node9</title>
<g id="a_node10"><a xlink:href="$hard_8h.html" xlink:title="Functions and data structures for handling of secondary structure hard constraints.">
<polygon fill="none" stroke="#000000" points="898.5,-123.5 898.5,-153.5 1017.5,-153.5 1017.5,-123.5 898.5,-123.5"/>
<text text-anchor="start" x="906.5" y="-141.5" font-family="Helvetica,sans-Serif" font-size="10.00" fill="#000000">ViennaRNA/constraints</text>
<text text-anchor="middle" x="958" y="-130.5" font-family="Helvetica,sans-Serif" font-size="10.00" fill="#000000">/hard.h</text>
</a>
</g>
</g>
<!-- Node1&#45;&gt;Node9 -->
<g id="edge36" class="edge">
<title>Node1&#45;&gt;Node9</title>
<path fill="none" stroke="#191970" d="M657.0668,-246.3978C684.8127,-226.6044 731.1358,-193.9281 740,-190 743.5173,-188.4414 826.0227,-169.1225 888.4966,-154.6013"/>
<polygon fill="#191970" stroke="#191970" points="889.3876,-157.9876 898.3361,-152.3154 887.8034,-151.1692 889.3876,-157.9876"/>
</g>
<!-- Node11 -->
<g id="node12" class="node">
<title>Node11</title>
<g id="a_node12"><a xlink:href="$soft_8h.html" xlink:title="Functions and data structures for secondary structure soft constraints.">
<polygon fill="none" stroke="#000000" points="626.5,-123.5 626.5,-153.5 745.5,-153.5 745.5,-123.5 626.5,-123.5"/>
<text text-anchor="start" x="634.5" y="-141.5" font-family="Helvetica,sans-Serif" font-size="10.00" fill="#000000">ViennaRNA/constraints</text>
<text text-anchor="middle" x="686" y="-130.5" font-family="Helvetica,sans-Serif" font-size="10.00" fill="#000000">/soft.h</text>
</a>
</g>
</g>
<!-- Node1&#45;&gt;Node11 -->
<g id="edge37" class="edge">
<title>Node1&#45;&gt;Node11</title>
<path fill="none" stroke="#191970" d="M637.5167,-246.4178C643.4789,-225.5772 658.5641,-187.7346 670.5907,-162.8571"/>
<polygon fill="#191970" stroke="#191970" points="673.8267,-164.2124 675.1898,-153.7056 667.5721,-161.0691 673.8267,-164.2124"/>
</g>
<!-- Node12 -->
<g id="node13" class="node">
<title>Node12</title>
<g id="a_node13"><a xlink:href="$grammar_8h.html" xlink:title="Implementations for the RNA folding grammar.">
<polygon fill="none" stroke="#000000" points="763.5,-129 763.5,-148 880.5,-148 880.5,-129 763.5,-129"/>
<text text-anchor="middle" x="822" y="-136" font-family="Helvetica,sans-Serif" font-size="10.00" fill="#000000">ViennaRNA/grammar.h</text>
</a>
</g>
</g>
<!-- Node1&#45;&gt;Node12 -->
<g id="edge38" class="edge">
<title>Node1&#45;&gt;Node12</title>
<path fill="none" stroke="#191970" d="M648.0165,-246.4685C661.1752,-230.7699 683.5463,-206.2175 707,-190 730.6161,-173.6702 760.245,-160.5478 783.5135,-151.6362"/>
<polygon fill="#191970" stroke="#191970" points="784.9125,-154.8501 793.0603,-148.0777 782.4676,-148.2909 784.9125,-154.8501"/>
</g>
<!-- Node13 -->
<g id="node14" class="node">
<title>Node13</title>
<g id="a_node14"><a xlink:href="$structured__domains_8h.html" xlink:title="This module provides interfaces that deal with additional structured domains in the folding grammar.">
<polygon fill="none" stroke="#000000" points="342.5,-123.5 342.5,-153.5 457.5,-153.5 457.5,-123.5 342.5,-123.5"/>
<text text-anchor="start" x="350.5" y="-141.5" font-family="Helvetica,sans-Serif" font-size="10.00" fill="#000000">ViennaRNA/structured</text>
<text text-anchor="middle" x="400" y="-130.5" font-family="Helvetica,sans-Serif" font-size="10.00" fill="#000000">_domains.h</text>
</a>
</g>
</g>
<!-- Node1&#45;&gt;Node13 -->
<g id="edge39" class="edge">
<title>Node1&#45;&gt;Node13</title>
<path fill="none" stroke="#191970" d="M607.0618,-246.4178C564.4825,-224.2261 484.9145,-182.7563 437.7794,-158.1901"/>
<polygon fill="#191970" stroke="#191970" points="439.2909,-155.0311 428.8054,-153.513 436.0556,-161.2386 439.2909,-155.0311"/>
</g>
<!-- Node14 -->
<g id="node15" class="node">
<title>Node14</title>
<g id="a_node15"><a xlink:href="$unstructured__domains_8h.html" xlink:title="Functions to modify unstructured domains, e.g. to incorporate ligands binding to unpaired stretches.">
<polygon fill="none" stroke="#000000" points="160.5,-123.5 160.5,-153.5 285.5,-153.5 285.5,-123.5 160.5,-123.5"/>
<text text-anchor="start" x="168.5" y="-141.5" font-family="Helvetica,sans-Serif" font-size="10.00" fill="#000000">ViennaRNA/unstructured</text>
<text text-anchor="middle" x="223" y="-130.5" font-family="Helvetica,sans-Serif" font-size="10.00" fill="#000000">_domains.h</text>
</a>
</g>
</g>
<!-- Node1&#45;&gt;Node14 -->
<g id="edge40" class="edge">
<title>Node1&#45;&gt;Node14</title>
<path fill="none" stroke="#191970" d="M568.9898,-256.4682C482.6636,-248.8713 338.3552,-232.8889 291,-210 267.8567,-198.8138 246.8625,-178.2803 234.1639,-162.0782"/>
<polygon fill="#191970" stroke="#191970" points="236.7155,-159.6361 228.0016,-153.6096 231.0553,-163.7548 236.7155,-159.6361"/>
</g>
<!-- Node1&#45;&gt;Node15 -->
<g id="edge41" class="edge">
<title>Node1&#45;&gt;Node15</title>
<path fill="none" stroke="#191970" d="M568.8362,-258.704C492.206,-254.0091 364.1587,-241.6931 259,-210 203.8029,-193.3645 184.8911,-192.5203 142,-154 122.2993,-136.3069 107.5579,-109.2207 101.2028,-90.9575"/>
<polygon fill="#191970" stroke="#191970" points="104.5088,-89.7869 98.4075,-81.1253 97.7756,-91.7012 104.5088,-89.7869"/>
</g>
<!-- Node3 -->
<g id="node4" class="node">
<title>Node3</title>
<g id="a_node4"><a xlink:title=" ">
<polygon fill="none" stroke="#bfbfbf" points="533,-.5 533,-19.5 581,-19.5 581,-.5 533,-.5"/>
<text text-anchor="middle" x="557" y="-7.5" font-family="Helvetica,sans-Serif" font-size="10.00" fill="#000000">limits.h</text>
</a>
</g>
</g>
<!-- Node2&#45;&gt;Node3 -->
<g id="edge3" class="edge">
<title>Node2&#45;&gt;Node3</title>
<path fill="none" stroke="#191970" d="M557,-61.8906C557,-53.3657 557,-40.6392 557,-29.9235"/>
<polygon fill="#191970" stroke="#191970" points="560.5001,-29.7448 557,-19.7449 553.5001,-29.7449 560.5001,-29.7448"/>
</g>
<!-- Node4&#45;&gt;Node5 -->
<g id="edge5" class="edge">
<title>Node4&#45;&gt;Node5</title>
<path fill="none" stroke="#191970" d="M895.1927,-191.5477C997.5285,-179.6143 1172.4561,-158.7472 1186,-154 1209.3383,-145.8197 1266.6384,-108.3288 1298.5757,-86.8089"/>
<polygon fill="#191970" stroke="#191970" points="1300.5424,-89.7041 1306.8618,-81.2003 1296.6186,-83.9072 1300.5424,-89.7041"/>
</g>
<!-- Node4&#45;&gt;Node6 -->
<g id="edge6" class="edge">
<title>Node4&#45;&gt;Node6</title>
<path fill="none" stroke="#191970" d="M895.4272,-190.5141C896.9635,-190.341 898.4891,-190.1695 900,-190 1046.1781,-173.6015 1083.4872,-175.5167 1229,-154 1237.2339,-152.7825 1245.8985,-151.3425 1254.4959,-149.8387"/>
<polygon fill="#191970" stroke="#191970" points="1255.2956,-153.2514 1264.5277,-148.0534 1254.0692,-146.3597 1255.2956,-153.2514"/>
</g>
<!-- Node7 -->
<g id="node8" class="node">
<title>Node7</title>
<g id="a_node8"><a xlink:href="$sequence_8h.html" xlink:title="Functions and data structures related to sequence representations ,.">
<polygon fill="none" stroke="#000000" points="1036,-129 1036,-148 1158,-148 1158,-129 1036,-129"/>
<text text-anchor="middle" x="1097" y="-136" font-family="Helvetica,sans-Serif" font-size="10.00" fill="#000000">ViennaRNA/sequence.h</text>
</a>
</g>
</g>
<!-- Node4&#45;&gt;Node7 -->
<g id="edge11" class="edge">
<title>Node4&#45;&gt;Node7</title>
<path fill="none" stroke="#191970" d="M859.6177,-190.4581C906.0567,-179.5956 985.286,-161.8488 1039.384,-150.1711"/>
<polygon fill="#191970" stroke="#191970" points="1040.1388,-153.5889 1049.1792,-148.0643 1038.6668,-146.7454 1040.1388,-153.5889"/>
</g>
<!-- Node4&#45;&gt;Node8 -->
<g id="edge13" class="edge">
<title>Node4&#45;&gt;Node8</title>
<path fill="none" stroke="#191970" d="M773.5079,-190.4581C722.1332,-179.6406 641.6654,-161.9959 590.3485,-150.3168"/>
<polygon fill="#191970" stroke="#191970" points="591.0194,-146.88 580.491,-148.0643 589.46,-153.7041 591.0194,-146.88"/>
</g>
<!-- Node4&#45;&gt;Node9 -->
<g id="edge16" class="edge">
<title>Node4&#45;&gt;Node9</title>
<path fill="none" stroke="#191970" d="M838.1875,-190.3906C855.824,-181.6435 884.5373,-168.4728 909.4867,-157.5897"/>
<polygon fill="#191970" stroke="#191970" points="911.0463,-160.7285 918.8336,-153.5446 908.266,-154.3043 911.0463,-160.7285"/>
</g>
<!-- Node4&#45;&gt;Node11 -->
<g id="edge20" class="edge">
<title>Node4&#45;&gt;Node11</title>
<path fill="none" stroke="#191970" d="M795.6875,-190.3906C774.8229,-181.7205 745.6199,-168.7046 722.5301,-157.8779"/>
<polygon fill="#191970" stroke="#191970" points="723.9084,-154.6581 713.3723,-153.5446 720.9144,-160.9855 723.9084,-154.6581"/>
</g>
<!-- Node4&#45;&gt;Node12 -->
<g id="edge24" class="edge">
<title>Node4&#45;&gt;Node12</title>
<path fill="none" stroke="#191970" d="M816.9375,-190.3906C815.2741,-181.8657 814.8404,-169.1392 815.6365,-158.4235"/>
<polygon fill="#191970" stroke="#191970" points="819.1414,-158.6023 816.9112,-148.2449 812.1956,-157.7324 819.1414,-158.6023"/>
</g>
<!-- Node4&#45;&gt;Node13 -->
<g id="edge26" class="edge">
<title>Node4&#45;&gt;Node13</title>
<path fill="none" stroke="#191970" d="M748.7093,-192.7429C678.7536,-185.3125 570.2294,-172.4772 467.4477,-154.1631"/>
<polygon fill="#191970" stroke="#191970" points="467.9828,-150.7032 457.5205,-152.3737 466.741,-157.5922 467.9828,-150.7032"/>
</g>
<!-- Node4&#45;&gt;Node14 -->
<g id="edge27" class="edge">
<title>Node4&#45;&gt;Node14</title>
<path fill="none" stroke="#191970" d="M748.6626,-194.656C651.2754,-186.9399 474.3225,-171.6517 324,-154 314.8568,-152.9264 305.2989,-151.7142 295.857,-150.4525"/>
<polygon fill="#191970" stroke="#191970" points="296.0629,-146.9483 285.6824,-149.0682 295.1192,-153.8844 296.0629,-146.9483"/>
</g>
<!-- Node6&#45;&gt;Node1 -->
<g id="edge8" class="edge">
<title>Node6&#45;&gt;Node1</title>
<path fill="none" stroke="#191970" d="M1273.645,-148.0086C1261.4124,-150.0485 1248.2656,-152.1464 1236,-154 1119.781,-171.5631 1088.5315,-163.5832 974,-190 946.1988,-196.4124 940.6204,-202.8491 913,-210 846.5039,-227.2158 769.3723,-241.4492 713.3428,-250.5568"/>
<polygon fill="#191970" stroke="#191970" points="712.4518,-247.155 703.1338,-252.1973 713.5625,-254.0663 712.4518,-247.155"/>
</g>
<!-- Node6&#45;&gt;Node2 -->
<g id="edge7" class="edge">
<title>Node6&#45;&gt;Node2</title>
<path fill="none" stroke="#191970" d="M1251.6446,-131.2801C1225.1663,-128.5866 1194.6934,-125.5625 1167,-123 982.1624,-105.8967 765.5958,-88.1589 646.6341,-78.6137"/>
<polygon fill="#191970" stroke="#191970" points="646.7321,-75.1104 636.4844,-77.8002 646.1728,-82.088 646.7321,-75.1104"/>
</g>
<!-- Node6&#45;&gt;Node4 -->
<g id="edge9" class="edge">
<title>Node6&#45;&gt;Node4</title>
<path fill="none" stroke="#191970" d="M1281.9987,-148.0534C1270.7455,-150.1815 1258.4559,-152.306 1247,-154 1101.4872,-175.5167 1064.1781,-173.6015 918,-190 913.8356,-190.4672 909.5595,-190.9497 905.2327,-191.4388"/>
<polygon fill="#191970" stroke="#191970" points="904.6168,-187.986 895.0735,-192.5879 905.4036,-194.9417 904.6168,-187.986"/>
</g>
<!-- Node6&#45;&gt;Node5 -->
<g id="edge10" class="edge">
<title>Node6&#45;&gt;Node5</title>
<path fill="none" stroke="#191970" d="M1321,-128.9005C1321,-119.149 1321,-103.7597 1321,-91.3695"/>
<polygon fill="#191970" stroke="#191970" points="1324.5001,-91.0816 1321,-81.0817 1317.5001,-91.0817 1324.5001,-91.0816"/>
</g>
<!-- Node7&#45;&gt;Node4 -->
<g id="edge12" class="edge">
<title>Node7&#45;&gt;Node4</title>
<path fill="none" stroke="#191970" d="M1059.2866,-148.0643C1012.8026,-158.9363 933.5681,-176.6836 879.5046,-188.3529"/>
<polygon fill="#191970" stroke="#191970" points="878.7568,-184.9337 869.7163,-190.4581 880.2287,-191.7772 878.7568,-184.9337"/>
</g>
<!-- Node8&#45;&gt;Node1 -->
<g id="edge14" class="edge">
<title>Node8&#45;&gt;Node1</title>
<path fill="none" stroke="#191970" d="M553.1235,-148.0493C570.9793,-167.1631 604.7334,-210.6215 623.3861,-237.8606"/>
<polygon fill="#191970" stroke="#191970" points="620.6303,-240.0368 629.088,-246.4178 626.4555,-236.1552 620.6303,-240.0368"/>
</g>
<!-- Node8&#45;&gt;Node4 -->
<g id="edge15" class="edge">
<title>Node8&#45;&gt;Node4</title>
<path fill="none" stroke="#191970" d="M590.5984,-148.0643C642.0132,-158.8912 722.4809,-176.5365 773.7576,-188.2074"/>
<polygon fill="#191970" stroke="#191970" points="773.0781,-191.6422 783.6065,-190.4581 774.6376,-184.8182 773.0781,-191.6422"/>
</g>
<!-- Node9&#45;&gt;Node4 -->
<g id="edge17" class="edge">
<title>Node9&#45;&gt;Node4</title>
<path fill="none" stroke="#191970" d="M930.6277,-153.5446C909.5907,-163.5991 880.5213,-176.7159 857.6791,-186.4465"/>
<polygon fill="#191970" stroke="#191970" points="856.1704,-183.2841 848.3125,-190.3906 858.8871,-189.7354 856.1704,-183.2841"/>
</g>
<!-- Node10 -->
<g id="node11" class="node">
<title>Node10</title>
<g id="a_node11"><a xlink:href="$constraints_2basic_8h.html" xlink:title="Functions and data structures for constraining secondary structure predictions and evaluation.">
<polygon fill="none" stroke="#000000" points="898.5,-56.5 898.5,-86.5 1017.5,-86.5 1017.5,-56.5 898.5,-56.5"/>
<text text-anchor="start" x="906.5" y="-74.5" font-family="Helvetica,sans-Serif" font-size="10.00" fill="#000000">ViennaRNA/constraints</text>
<text text-anchor="middle" x="958" y="-63.5" font-family="Helvetica,sans-Serif" font-size="10.00" fill="#000000">/basic.h</text>
</a>
</g>
</g>
<!-- Node9&#45;&gt;Node10 -->
<g id="edge18" class="edge">
<title>Node9&#45;&gt;Node10</title>
<path fill="none" stroke="#191970" d="M958,-123.2967C958,-115.5013 958,-105.7991 958,-96.9064"/>
<polygon fill="#191970" stroke="#191970" points="961.5001,-96.6431 958,-86.6432 954.5001,-96.6432 961.5001,-96.6431"/>
</g>
<!-- Node10&#45;&gt;Node4 -->
<g id="edge19" class="edge">
<title>Node10&#45;&gt;Node4</title>
<path fill="none" stroke="#191970" d="M1017.7699,-75.319C1094.4963,-82.3887 1212.6111,-101.9038 1167,-154 1162.6888,-158.9242 1006.1159,-178.2614 905.4031,-190.2413"/>
<polygon fill="#191970" stroke="#191970" points="904.7503,-186.7942 895.2327,-191.4487 905.5756,-193.7454 904.7503,-186.7942"/>
</g>
<!-- Node11&#45;&gt;Node1 -->
<g id="edge21" class="edge">
<title>Node11&#45;&gt;Node1</title>
<path fill="none" stroke="#191970" d="M684.4479,-153.7056C678.4498,-174.613 663.3527,-212.4634 651.3383,-237.2898"/>
<polygon fill="#191970" stroke="#191970" points="648.1136,-235.9117 646.7452,-246.4178 654.3667,-239.0581 648.1136,-235.9117"/>
</g>
<!-- Node11&#45;&gt;Node4 -->
<g id="edge22" class="edge">
<title>Node11&#45;&gt;Node4</title>
<path fill="none" stroke="#191970" d="M725.1664,-153.5446C748.1797,-163.4196 776.5091,-176.2484 796.645,-185.922"/>
<polygon fill="#191970" stroke="#191970" points="795.2899,-189.1551 805.8125,-190.3906 798.3571,-182.8628 795.2899,-189.1551"/>
</g>
<!-- Node11&#45;&gt;Node10 -->
<g id="edge23" class="edge">
<title>Node11&#45;&gt;Node10</title>
<path fill="none" stroke="#191970" d="M745.6916,-123.7966C787.8536,-113.411 844.4827,-99.462 888.6516,-88.5821"/>
<polygon fill="#191970" stroke="#191970" points="889.5751,-91.9594 898.4477,-86.1691 887.9008,-85.1625 889.5751,-91.9594"/>
</g>
<!-- Node12&#45;&gt;Node4 -->
<g id="edge25" class="edge">
<title>Node12&#45;&gt;Node4</title>
<path fill="none" stroke="#191970" d="M827.0888,-148.2449C828.7392,-156.814 829.1598,-169.5519 828.3508,-180.2462"/>
<polygon fill="#191970" stroke="#191970" points="824.8503,-180.0293 827.0625,-190.3906 831.7945,-180.9113 824.8503,-180.0293"/>
</g>
<!-- Node14&#45;&gt;Node1 -->
<g id="edge28" class="edge">
<title>Node14&#45;&gt;Node1</title>
<path fill="none" stroke="#191970" d="M241.0047,-153.6096C257.1606,-170.3548 281.5709,-196.7423 309,-210 352.2276,-230.8938 476.2438,-246.0327 558.5759,-254.2916"/>
<polygon fill="#191970" stroke="#191970" points="558.3552,-257.7867 568.6514,-255.289 559.0449,-250.8208 558.3552,-257.7867"/>
</g>
<!-- Node14&#45;&gt;Node4 -->
<g id="edge29" class="edge">
<title>Node14&#45;&gt;Node4</title>
<path fill="none" stroke="#191970" d="M285.7469,-146.6453C303.964,-149.1779 323.8034,-151.8633 342,-154 480.9094,-170.3115 642.5589,-184.6048 738.4165,-192.7698"/>
<polygon fill="#191970" stroke="#191970" points="738.368,-196.2782 748.6285,-193.6377 738.9609,-189.3034 738.368,-196.2782"/>
</g>
<!-- Node14&#45;&gt;Node15 -->
<g id="edge30" class="edge">
<title>Node14&#45;&gt;Node15</title>
<path fill="none" stroke="#191970" d="M195.3964,-123.4639C174.8515,-112.2728 146.9673,-97.0838 126.6535,-86.0186"/>
<polygon fill="#191970" stroke="#191970" points="128.087,-82.8139 117.6311,-81.1039 124.7385,-88.9611 128.087,-82.8139"/>
</g>
<!-- Node15&#45;&gt;Node1 -->
<g id="edge32" class="edge">
<title>Node15&#45;&gt;Node1</title>
<path fill="none" stroke="#191970" d="M109.1642,-81.1253C119.8081,-97.9017 136.3221,-132.735 160,-154 202.8911,-192.5203 221.8029,-193.3645 277,-210 371.683,-238.5359 484.9215,-251.363 558.6132,-257.0624"/>
<polygon fill="#191970" stroke="#191970" points="558.5096,-260.5644 568.7429,-257.8202 559.0319,-253.5839 558.5096,-260.5644"/>
</g>
<!-- Node16 -->
<g id="node17" class="node">
<title>Node16</title>
<g id="a_node17"><a xlink:title=" ">
<polygon fill="none" stroke="#bfbfbf" points="77,-.5 77,-19.5 123,-19.5 123,-.5 77,-.5"/>
<text text-anchor="middle" x="100" y="-7.5" font-family="Helvetica,sans-Serif" font-size="10.00" fill="#000000">stdio.h</text>
</a>
</g>
</g>
<!-- Node15&#45;&gt;Node16 -->
<g id="edge31" class="edge">
<title>Node15&#45;&gt;Node16</title>
<path fill="none" stroke="#191970" d="M100,-61.8906C100,-53.3657 100,-40.6392 100,-29.9235"/>
<polygon fill="#191970" stroke="#191970" points="103.5001,-29.7448 100,-19.7449 96.5001,-29.7449 103.5001,-29.7448"/>
</g>
<!-- Node17&#45;&gt;Node1 -->
<g id="edge46" class="edge">
<title>Node17&#45;&gt;Node1</title>
<path fill="none" stroke="#191970" d="M688.2602,-318.9005C679.9909,-309.8178 667.2686,-295.8442 656.4473,-283.9585"/>
<polygon fill="#191970" stroke="#191970" points="658.9968,-281.5599 649.6765,-276.5218 653.8207,-286.2725 658.9968,-281.5599"/>
</g>
<!-- Node17&#45;&gt;Node4 -->
<g id="edge47" class="edge">
<title>Node17&#45;&gt;Node4</title>
<path fill="none" stroke="#191970" d="M706.3953,-318.8416C727.4794,-297.1672 778.7915,-244.4184 805.3931,-217.0719"/>
<polygon fill="#191970" stroke="#191970" points="808.0317,-219.379 812.4957,-209.7705 803.014,-214.498 808.0317,-219.379"/>
</g>
<!-- Node17&#45;&gt;Node15 -->
<g id="edge48" class="edge">
<title>Node17&#45;&gt;Node15</title>
<path fill="none" stroke="#191970" d="M639.9061,-325.9515C487.5321,-318.8757 81.4718,-298.115 62,-277 15.5998,-226.6843 40.6098,-188.0162 62,-123 66.2436,-110.1016 75.0948,-97.7822 83.1876,-88.4282"/>
<polygon fill="#191970" stroke="#191970" points="85.7913,-90.7675 89.9695,-81.0313 80.6317,-86.0369 85.7913,-90.7675"/>
</g>
<!-- Node18&#45;&gt;Node1 -->
<g id="edge50" class="edge">
<title>Node18&#45;&gt;Node1</title>
<path fill="none" stroke="#191970" d="M787.2382,-313.4639C758.3608,-303.5419 720.3372,-290.4774 689.6407,-279.9304"/>
<polygon fill="#191970" stroke="#191970" points="690.5473,-276.5411 679.9527,-276.6017 688.2727,-283.1613 690.5473,-276.5411"/>
</g>
<!-- Node18&#45;&gt;Node4 -->
<g id="edge51" class="edge">
<title>Node18&#45;&gt;Node4</title>
<path fill="none" stroke="#191970" d="M829.9322,-313.2548C828.3017,-289.9744 825.191,-245.5607 823.3876,-219.8117"/>
<polygon fill="#191970" stroke="#191970" points="826.8721,-219.4668 822.6819,-209.7358 819.8892,-219.9559 826.8721,-219.4668"/>
</g>
<!-- Node18&#45;&gt;Node6 -->
<g id="edge53" class="edge">
<title>Node18&#45;&gt;Node6</title>
<path fill="none" stroke="#191970" d="M835.735,-313.1885C842.343,-294.4302 856.1596,-263.0489 879,-246 909.8314,-222.9863 1149.8346,-172.7198 1262.6993,-150.0253"/>
<polygon fill="#191970" stroke="#191970" points="1263.4453,-153.4455 1272.5618,-148.0474 1262.0687,-146.5822 1263.4453,-153.4455"/>
</g>
<!-- Node18&#45;&gt;Node15 -->
<g id="edge52" class="edge">
<title>Node18&#45;&gt;Node15</title>
<path fill="none" stroke="#191970" d="M771.6985,-314.8043C768.76,-314.1817 765.8482,-313.5768 763,-313 514.1144,-262.5967 434.8353,-309.0232 201,-210 161.3693,-193.2174 146.5622,-189.3404 122,-154 108.8911,-135.1387 103.5913,-108.8848 101.4498,-91.0977"/>
<polygon fill="#191970" stroke="#191970" points="104.9217,-90.6387 100.4656,-81.0266 97.9549,-91.3196 104.9217,-90.6387"/>
</g>
<!-- Node19&#45;&gt;Node4 -->
<g id="edge55" class="edge">
<title>Node19&#45;&gt;Node4</title>
<path fill="none" stroke="#191970" d="M915.6662,-246.4554C895.7024,-236.554 869.751,-223.683 850.2285,-214.0004"/>
<polygon fill="#191970" stroke="#191970" points="851.7294,-210.838 841.2156,-209.5303 848.6191,-217.1091 851.7294,-210.838"/>
</g>
</g>
</svg>
