<?xml version="1.0" encoding="UTF-8" standalone="no"?>
<!DOCTYPE svg PUBLIC "-//W3C//DTD SVG 1.1//EN"
 "http://www.w3.org/Graphics/SVG/1.1/DTD/svg11.dtd">
<!-- Generated by graphviz version 2.40.1 (0)
 -->
<!-- Title: ViennaRNA/landscape/paths.h Pages: 1 -->
<svg width="124pt" height="162pt"
 viewBox="0.00 0.00 124.00 162.00" xmlns="http://www.w3.org/2000/svg" xmlns:xlink="http://www.w3.org/1999/xlink">
<g id="graph0" class="graph" transform="scale(1 1) rotate(0) translate(4 158)">
<title>ViennaRNA/landscape/paths.h</title>
<!-- Node18 -->
<g id="node1" class="node">
<title>Node18</title>
<g id="a_node1"><a xlink:title="API for computing (optimal) (re&#45;)folding paths between secondary structures.">
<polygon fill="#bfbfbf" stroke="#000000" points="0,-123.5 0,-153.5 116,-153.5 116,-123.5 0,-123.5"/>
<text text-anchor="start" x="8" y="-141.5" font-family="Helvetica,sans-Serif" font-size="10.00" fill="#000000">ViennaRNA/landscape</text>
<text text-anchor="middle" x="58" y="-130.5" font-family="Helvetica,sans-Serif" font-size="10.00" fill="#000000">/paths.h</text>
</a>
</g>
</g>
<!-- Node19 -->
<g id="node2" class="node">
<title>Node19</title>
<g id="a_node2"><a xlink:href="$landscape_2findpath_8h.html" xlink:title="A breadth&#45;first search heuristic for optimal direct folding paths.">
<polygon fill="none" stroke="#000000" points="0,-56.5 0,-86.5 116,-86.5 116,-56.5 0,-56.5"/>
<text text-anchor="start" x="8" y="-74.5" font-family="Helvetica,sans-Serif" font-size="10.00" fill="#000000">ViennaRNA/landscape</text>
<text text-anchor="middle" x="58" y="-63.5" font-family="Helvetica,sans-Serif" font-size="10.00" fill="#000000">/findpath.h</text>
</a>
</g>
</g>
<!-- Node18&#45;&gt;Node19 -->
<g id="edge1" class="edge">
<title>Node18&#45;&gt;Node19</title>
<path fill="none" stroke="#191970" d="M58,-113.0249C58,-104.128 58,-94.4287 58,-86.6432"/>
<polygon fill="#191970" stroke="#191970" points="54.5001,-113.2966 58,-123.2967 61.5001,-113.2967 54.5001,-113.2966"/>
</g>
<!-- Node20 -->
<g id="node3" class="node">
<title>Node20</title>
<g id="a_node3"><a xlink:href="$findpath_8h.html" xlink:title="Use ViennaRNA/landscape/findpath.h instead.">
<polygon fill="none" stroke="#000000" points=".5,-.5 .5,-19.5 115.5,-19.5 115.5,-.5 .5,-.5"/>
<text text-anchor="middle" x="58" y="-7.5" font-family="Helvetica,sans-Serif" font-size="10.00" fill="#000000">ViennaRNA/findpath.h</text>
</a>
</g>
</g>
<!-- Node19&#45;&gt;Node20 -->
<g id="edge2" class="edge">
<title>Node19&#45;&gt;Node20</title>
<path fill="none" stroke="#191970" d="M58,-46.2849C58,-36.9858 58,-26.9883 58,-19.8469"/>
<polygon fill="#191970" stroke="#191970" points="54.5001,-46.2977 58,-56.2977 61.5001,-46.2978 54.5001,-46.2977"/>
</g>
</g>
</svg>
