<?xml version="1.0" encoding="UTF-8" standalone="no"?>
<!DOCTYPE svg PUBLIC "-//W3C//DTD SVG 1.1//EN"
 "http://www.w3.org/Graphics/SVG/1.1/DTD/svg11.dtd">
<!-- Generated by graphviz version 2.40.1 (0)
 -->
<!-- Title: ViennaRNA/landscape/paths.h Pages: 1 -->
<svg width="1281pt" height="419pt"
 viewBox="0.00 0.00 1281.00 419.00" xmlns="http://www.w3.org/2000/svg" xmlns:xlink="http://www.w3.org/1999/xlink">
<g id="graph0" class="graph" transform="scale(1 1) rotate(0) translate(4 415)">
<title>ViennaRNA/landscape/paths.h</title>
<!-- Node0 -->
<g id="node1" class="node">
<title>Node0</title>
<g id="a_node1"><a xlink:title="API for computing (optimal) (re&#45;)folding paths between secondary structures.">
<polygon fill="#bfbfbf" stroke="#000000" points="747,-380.5 747,-410.5 863,-410.5 863,-380.5 747,-380.5"/>
<text text-anchor="start" x="755" y="-398.5" font-family="Helvetica,sans-Serif" font-size="10.00" fill="#000000">ViennaRNA/landscape</text>
<text text-anchor="middle" x="805" y="-387.5" font-family="Helvetica,sans-Serif" font-size="10.00" fill="#000000">/paths.h</text>
</a>
</g>
</g>
<!-- Node1 -->
<g id="node2" class="node">
<title>Node1</title>
<g id="a_node2"><a xlink:href="$fold__compound_8h.html" xlink:title="The Basic Fold Compound API.">
<polygon fill="none" stroke="#000000" points="658,-319 658,-338 804,-338 804,-319 658,-319"/>
<text text-anchor="middle" x="731" y="-326" font-family="Helvetica,sans-Serif" font-size="10.00" fill="#000000">ViennaRNA/fold_compound.h</text>
</a>
</g>
</g>
<!-- Node0&#45;&gt;Node1 -->
<g id="edge1" class="edge">
<title>Node0&#45;&gt;Node1</title>
<path fill="none" stroke="#191970" d="M788.2083,-380.2967C776.5668,-369.7564 761.0752,-355.7303 749.1491,-344.9323"/>
<polygon fill="#191970" stroke="#191970" points="751.3154,-342.1722 741.5533,-338.055 746.6171,-347.3613 751.3154,-342.1722"/>
</g>
<!-- Node17 -->
<g id="node18" class="node">
<title>Node17</title>
<g id="a_node18"><a xlink:href="$move_8h.html" xlink:title="Methods to operate with structural neighbors of RNA secondary structures.">
<polygon fill="none" stroke="#000000" points="822,-313.5 822,-343.5 938,-343.5 938,-313.5 822,-313.5"/>
<text text-anchor="start" x="830" y="-331.5" font-family="Helvetica,sans-Serif" font-size="10.00" fill="#000000">ViennaRNA/landscape</text>
<text text-anchor="middle" x="880" y="-320.5" font-family="Helvetica,sans-Serif" font-size="10.00" fill="#000000">/move.h</text>
</a>
</g>
</g>
<!-- Node0&#45;&gt;Node17 -->
<g id="edge42" class="edge">
<title>Node0&#45;&gt;Node17</title>
<path fill="none" stroke="#191970" d="M822.0187,-380.2967C831.8956,-371.4733 844.5069,-360.2072 855.4438,-350.4368"/>
<polygon fill="#191970" stroke="#191970" points="857.9228,-352.9155 863.0487,-343.6432 853.2593,-347.6952 857.9228,-352.9155"/>
</g>
<!-- Node2 -->
<g id="node3" class="node">
<title>Node2</title>
<g id="a_node3"><a xlink:href="$model_8h.html" xlink:title="The model details data structure and its corresponding modifiers.">
<polygon fill="none" stroke="#000000" points="0,-129 0,-148 106,-148 106,-129 0,-129"/>
<text text-anchor="middle" x="53" y="-136" font-family="Helvetica,sans-Serif" font-size="10.00" fill="#000000">ViennaRNA/model.h</text>
</a>
</g>
</g>
<!-- Node1&#45;&gt;Node2 -->
<g id="edge2" class="edge">
<title>Node1&#45;&gt;Node2</title>
<path fill="none" stroke="#191970" d="M657.9173,-321.8413C590.3851,-314.5763 487.6973,-300.695 401,-277 278.556,-243.5352 140.5019,-180.5755 81.8388,-152.5603"/>
<polygon fill="#191970" stroke="#191970" points="83.0025,-149.2365 72.4731,-148.0615 79.9716,-155.5463 83.0025,-149.2365"/>
</g>
<!-- Node3 -->
<g id="node4" class="node">
<title>Node3</title>
<g id="a_node4"><a xlink:href="$params_2basic_8h.html" xlink:title="Functions to deal with sets of energy parameters.">
<polygon fill="none" stroke="#000000" points="462,-257.5 462,-276.5 600,-276.5 600,-257.5 462,-257.5"/>
<text text-anchor="middle" x="531" y="-264.5" font-family="Helvetica,sans-Serif" font-size="10.00" fill="#000000">ViennaRNA/params/basic.h</text>
</a>
</g>
</g>
<!-- Node1&#45;&gt;Node3 -->
<g id="edge3" class="edge">
<title>Node1&#45;&gt;Node3</title>
<path fill="none" stroke="#191970" d="M694.6875,-318.8906C658.2826,-308.3298 602.7954,-291.3208 566.6357,-279.6747"/>
<polygon fill="#191970" stroke="#191970" points="567.5733,-276.2993 556.9813,-276.5419 565.4127,-282.9576 567.5733,-276.2993"/>
</g>
<!-- Node7 -->
<g id="node8" class="node">
<title>Node7</title>
<g id="a_node8"><a xlink:href="$dp__matrices_8h.html" xlink:title="Functions to deal with standard dynamic programming (DP) matrices.">
<polygon fill="none" stroke="#000000" points="124.5,-129 124.5,-148 257.5,-148 257.5,-129 124.5,-129"/>
<text text-anchor="middle" x="191" y="-136" font-family="Helvetica,sans-Serif" font-size="10.00" fill="#000000">ViennaRNA/dp_matrices.h</text>
</a>
</g>
</g>
<!-- Node1&#45;&gt;Node7 -->
<g id="edge36" class="edge">
<title>Node1&#45;&gt;Node7</title>
<path fill="none" stroke="#191970" d="M657.8251,-321.9737C598.7037,-314.981 514.2366,-301.4296 444,-277 350.9331,-244.6296 250.482,-183.1786 209.5496,-154.2745"/>
<polygon fill="#191970" stroke="#191970" points="211.463,-151.3386 201.3127,-148.3016 207.3536,-157.0055 211.463,-151.3386"/>
</g>
<!-- Node8 -->
<g id="node9" class="node">
<title>Node8</title>
<g id="a_node9"><a xlink:href="$hard_8h.html" xlink:title="Functions and data structures for handling of secondary structure hard constraints.">
<polygon fill="none" stroke="#000000" points="1095.5,-123.5 1095.5,-153.5 1214.5,-153.5 1214.5,-123.5 1095.5,-123.5"/>
<text text-anchor="start" x="1103.5" y="-141.5" font-family="Helvetica,sans-Serif" font-size="10.00" fill="#000000">ViennaRNA/constraints</text>
<text text-anchor="middle" x="1155" y="-130.5" font-family="Helvetica,sans-Serif" font-size="10.00" fill="#000000">/hard.h</text>
</a>
</g>
</g>
<!-- Node1&#45;&gt;Node8 -->
<g id="edge37" class="edge">
<title>Node1&#45;&gt;Node8</title>
<path fill="none" stroke="#191970" d="M770.299,-318.973C781.1804,-316.8905 792.9869,-314.7793 804,-313 863.3213,-303.4161 1022.6374,-311.2666 1072,-277 1111.2035,-249.7857 1131.3936,-195.0285 1143.1197,-163.1217"/>
<polygon fill="#191970" stroke="#191970" points="1146.4445,-164.2221 1146.6428,-153.6291 1139.8819,-161.7864 1146.4445,-164.2221"/>
</g>
<!-- Node10 -->
<g id="node11" class="node">
<title>Node10</title>
<g id="a_node11"><a xlink:href="$soft_8h.html" xlink:title="Functions and data structures for secondary structure soft constraints.">
<polygon fill="none" stroke="#000000" points="651.5,-123.5 651.5,-153.5 770.5,-153.5 770.5,-123.5 651.5,-123.5"/>
<text text-anchor="start" x="659.5" y="-141.5" font-family="Helvetica,sans-Serif" font-size="10.00" fill="#000000">ViennaRNA/constraints</text>
<text text-anchor="middle" x="711" y="-130.5" font-family="Helvetica,sans-Serif" font-size="10.00" fill="#000000">/soft.h</text>
</a>
</g>
</g>
<!-- Node1&#45;&gt;Node10 -->
<g id="edge38" class="edge">
<title>Node1&#45;&gt;Node10</title>
<path fill="none" stroke="#191970" d="M726.794,-318.8167C719.6507,-290.3641 710.2813,-206.3545 708.8983,-163.806"/>
<polygon fill="#191970" stroke="#191970" points="712.3961,-163.6397 708.7254,-153.7011 705.3971,-163.7595 712.3961,-163.6397"/>
</g>
<!-- Node11 -->
<g id="node12" class="node">
<title>Node11</title>
<g id="a_node12"><a xlink:href="$grammar_8h.html" xlink:title="Implementations for the RNA folding grammar.">
<polygon fill="none" stroke="#000000" points="788.5,-129 788.5,-148 905.5,-148 905.5,-129 788.5,-129"/>
<text text-anchor="middle" x="847" y="-136" font-family="Helvetica,sans-Serif" font-size="10.00" fill="#000000">ViennaRNA/grammar.h</text>
</a>
</g>
</g>
<!-- Node1&#45;&gt;Node11 -->
<g id="edge39" class="edge">
<title>Node1&#45;&gt;Node11</title>
<path fill="none" stroke="#191970" d="M733.7252,-318.8167C747.7154,-288.7127 803.731,-196.4153 831.616,-156.8353"/>
<polygon fill="#191970" stroke="#191970" points="834.7029,-158.5407 837.744,-148.3917 829.0376,-154.4291 834.7029,-158.5407"/>
</g>
<!-- Node12 -->
<g id="node13" class="node">
<title>Node12</title>
<g id="a_node13"><a xlink:href="$structured__domains_8h.html" xlink:title="This module provides interfaces that deal with additional structured domains in the folding grammar.">
<polygon fill="none" stroke="#000000" points="923.5,-123.5 923.5,-153.5 1038.5,-153.5 1038.5,-123.5 923.5,-123.5"/>
<text text-anchor="start" x="931.5" y="-141.5" font-family="Helvetica,sans-Serif" font-size="10.00" fill="#000000">ViennaRNA/structured</text>
<text text-anchor="middle" x="981" y="-130.5" font-family="Helvetica,sans-Serif" font-size="10.00" fill="#000000">_domains.h</text>
</a>
</g>
</g>
<!-- Node1&#45;&gt;Node12 -->
<g id="edge40" class="edge">
<title>Node1&#45;&gt;Node12</title>
<path fill="none" stroke="#191970" d="M743.7412,-318.8167C782.371,-289.458 898.8326,-200.9472 952.8814,-159.8701"/>
<polygon fill="#191970" stroke="#191970" points="955.1547,-162.5385 960.9986,-153.7011 950.9191,-156.9654 955.1547,-162.5385"/>
</g>
<!-- Node13 -->
<g id="node14" class="node">
<title>Node13</title>
<g id="a_node14"><a xlink:href="$unstructured__domains_8h.html" xlink:title="Functions to modify unstructured domains, e.g. to incorporate ligands binding to unpaired stretches.">
<polygon fill="none" stroke="#000000" points="508.5,-123.5 508.5,-153.5 633.5,-153.5 633.5,-123.5 508.5,-123.5"/>
<text text-anchor="start" x="516.5" y="-141.5" font-family="Helvetica,sans-Serif" font-size="10.00" fill="#000000">ViennaRNA/unstructured</text>
<text text-anchor="middle" x="571" y="-130.5" font-family="Helvetica,sans-Serif" font-size="10.00" fill="#000000">_domains.h</text>
</a>
</g>
</g>
<!-- Node1&#45;&gt;Node13 -->
<g id="edge41" class="edge">
<title>Node1&#45;&gt;Node13</title>
<path fill="none" stroke="#191970" d="M720.2276,-318.9681C700.3564,-295.8272 658.963,-235.2552 618,-190 608.7207,-179.7484 597.6659,-169.269 588.4549,-160.4625"/>
<polygon fill="#191970" stroke="#191970" points="590.86,-157.9195 581.2308,-153.5002 586.0024,-162.9598 590.86,-157.9195"/>
</g>
<!-- Node16 -->
<g id="node17" class="node">
<title>Node16</title>
<g id="a_node17"><a xlink:href="$sequence_8h.html" xlink:title="Functions and data structures related to sequence representations ,.">
<polygon fill="none" stroke="#000000" points="1151,-257.5 1151,-276.5 1273,-276.5 1273,-257.5 1151,-257.5"/>
<text text-anchor="middle" x="1212" y="-264.5" font-family="Helvetica,sans-Serif" font-size="10.00" fill="#000000">ViennaRNA/sequence.h</text>
</a>
</g>
</g>
<!-- Node1&#45;&gt;Node16 -->
<g id="edge34" class="edge">
<title>Node1&#45;&gt;Node16</title>
<path fill="none" stroke="#191970" d="M769.4241,-318.9497C780.5386,-316.8215 792.6807,-314.6961 804,-313 947.2864,-291.5292 984.1838,-294.5754 1128,-277 1132.1073,-276.4981 1136.3394,-275.9682 1140.6201,-275.425"/>
<polygon fill="#191970" stroke="#191970" points="1141.1861,-278.8812 1150.6608,-274.1399 1140.2974,-271.9378 1141.1861,-278.8812"/>
</g>
<!-- Node3&#45;&gt;Node1 -->
<g id="edge32" class="edge">
<title>Node3&#45;&gt;Node1</title>
<path fill="none" stroke="#191970" d="M567.0799,-276.5419C603.4032,-287.0752 658.8907,-304.0818 695.1327,-315.7507"/>
<polygon fill="#191970" stroke="#191970" points="694.2205,-319.1343 704.8125,-318.8906 696.3803,-312.4759 694.2205,-319.1343"/>
</g>
<!-- Node3&#45;&gt;Node2 -->
<g id="edge33" class="edge">
<title>Node3&#45;&gt;Node2</title>
<path fill="none" stroke="#191970" d="M495.4628,-257.4466C409.9772,-234.4656 192.9411,-176.1202 98.2927,-150.676"/>
<polygon fill="#191970" stroke="#191970" points="99.0121,-147.2452 88.4463,-148.029 97.1948,-154.0052 99.0121,-147.2452"/>
</g>
<!-- Node4 -->
<g id="node5" class="node">
<title>Node4</title>
<g id="a_node5"><a xlink:href="$constants_8h.html" xlink:title="Energy parameter constants.">
<polygon fill="none" stroke="#000000" points="276,-129 276,-148 434,-148 434,-129 276,-129"/>
<text text-anchor="middle" x="355" y="-136" font-family="Helvetica,sans-Serif" font-size="10.00" fill="#000000">ViennaRNA/params/constants.h</text>
</a>
</g>
</g>
<!-- Node3&#45;&gt;Node4 -->
<g id="edge4" class="edge">
<title>Node3&#45;&gt;Node4</title>
<path fill="none" stroke="#191970" d="M517.7714,-257.3416C487.5754,-235.2951 413.3444,-181.0981 376.4846,-154.1862"/>
<polygon fill="#191970" stroke="#191970" points="378.5224,-151.3405 368.3821,-148.2705 374.3947,-156.994 378.5224,-151.3405"/>
</g>
<!-- Node6 -->
<g id="node7" class="node">
<title>Node6</title>
<g id="a_node7"><a xlink:href="$datastructures_2basic_8h.html" xlink:title="Various data structures and pre&#45;processor macros.">
<polygon fill="none" stroke="#000000" points="484,-190.5 484,-220.5 618,-220.5 618,-190.5 484,-190.5"/>
<text text-anchor="start" x="492" y="-208.5" font-family="Helvetica,sans-Serif" font-size="10.00" fill="#000000">ViennaRNA/datastructures</text>
<text text-anchor="middle" x="551" y="-197.5" font-family="Helvetica,sans-Serif" font-size="10.00" fill="#000000">/basic.h</text>
</a>
</g>
</g>
<!-- Node3&#45;&gt;Node6 -->
<g id="edge6" class="edge">
<title>Node3&#45;&gt;Node6</title>
<path fill="none" stroke="#191970" d="M529.0625,-257.3906C530.0149,-250.0692 532.8821,-239.6488 536.3844,-230.0647"/>
<polygon fill="#191970" stroke="#191970" points="539.7289,-231.1285 540.2104,-220.5446 533.2337,-228.5181 539.7289,-231.1285"/>
</g>
<!-- Node5 -->
<g id="node6" class="node">
<title>Node5</title>
<g id="a_node6"><a xlink:title=" ">
<polygon fill="none" stroke="#bfbfbf" points="331,-62 331,-81 379,-81 379,-62 331,-62"/>
<text text-anchor="middle" x="355" y="-69" font-family="Helvetica,sans-Serif" font-size="10.00" fill="#000000">limits.h</text>
</a>
</g>
</g>
<!-- Node4&#45;&gt;Node5 -->
<g id="edge5" class="edge">
<title>Node4&#45;&gt;Node5</title>
<path fill="none" stroke="#191970" d="M355,-128.9005C355,-119.149 355,-103.7597 355,-91.3695"/>
<polygon fill="#191970" stroke="#191970" points="358.5001,-91.0816 355,-81.0817 351.5001,-91.0817 358.5001,-91.0816"/>
</g>
<!-- Node6&#45;&gt;Node1 -->
<g id="edge8" class="edge">
<title>Node6&#45;&gt;Node1</title>
<path fill="none" stroke="#191970" d="M571.7282,-220.5242C592.0318,-235.1572 623.9245,-257.9215 652,-277 670.4513,-289.5385 691.6415,-303.3194 707.4277,-313.4681"/>
<polygon fill="#191970" stroke="#191970" points="705.7288,-316.5364 716.0364,-318.9868 709.5067,-310.6433 705.7288,-316.5364"/>
</g>
<!-- Node6&#45;&gt;Node2 -->
<g id="edge9" class="edge">
<title>Node6&#45;&gt;Node2</title>
<path fill="none" stroke="#191970" d="M483.7272,-198.6145C379.5664,-187.7735 184.0677,-166.6593 115,-154 109.4751,-152.9874 103.7107,-151.7691 98.0177,-150.4661"/>
<polygon fill="#191970" stroke="#191970" points="98.4536,-146.9719 87.9143,-148.0553 96.8289,-153.7807 98.4536,-146.9719"/>
</g>
<!-- Node6&#45;&gt;Node3 -->
<g id="edge10" class="edge">
<title>Node6&#45;&gt;Node3</title>
<path fill="none" stroke="#191970" d="M552.0045,-220.5446C550.2837,-228.8934 547.007,-239.3537 543.3751,-248.2334"/>
<polygon fill="#191970" stroke="#191970" points="540.1633,-246.8408 539.1875,-257.3906 546.5293,-249.752 540.1633,-246.8408"/>
</g>
<!-- Node6&#45;&gt;Node4 -->
<g id="edge7" class="edge">
<title>Node6&#45;&gt;Node4</title>
<path fill="none" stroke="#191970" d="M507.0138,-190.4639C472.5438,-178.6808 425.1086,-162.4657 392.4402,-151.2984"/>
<polygon fill="#191970" stroke="#191970" points="393.4011,-147.9281 382.8065,-148.0053 391.1368,-154.5518 393.4011,-147.9281"/>
</g>
<!-- Node6&#45;&gt;Node7 -->
<g id="edge11" class="edge">
<title>Node6&#45;&gt;Node7</title>
<path fill="none" stroke="#191970" d="M483.8826,-194.9788C424.2816,-184.8278 335.1291,-168.8565 258,-154 251.5786,-152.7631 244.8586,-151.4377 238.2457,-150.1019"/>
<polygon fill="#191970" stroke="#191970" points="238.4993,-146.5814 228.0007,-148.0055 237.096,-153.4393 238.4993,-146.5814"/>
</g>
<!-- Node6&#45;&gt;Node8 -->
<g id="edge14" class="edge">
<title>Node6&#45;&gt;Node8</title>
<path fill="none" stroke="#191970" d="M618.2219,-199.4077C713.838,-190.5434 894.5527,-173.0564 1048,-154 1060.0058,-152.509 1072.7487,-150.7863 1085.0966,-149.043"/>
<polygon fill="#191970" stroke="#191970" points="1085.9464,-152.4572 1095.351,-147.5785 1084.9566,-145.5276 1085.9464,-152.4572"/>
</g>
<!-- Node6&#45;&gt;Node10 -->
<g id="edge18" class="edge">
<title>Node6&#45;&gt;Node10</title>
<path fill="none" stroke="#191970" d="M581.1666,-190.4639C603.3568,-180.6708 633.9213,-167.8162 659.8634,-157.3426"/>
<polygon fill="#191970" stroke="#191970" points="661.21,-160.5735 669.1877,-153.6017 658.6036,-154.0769 661.21,-160.5735"/>
</g>
<!-- Node6&#45;&gt;Node11 -->
<g id="edge22" class="edge">
<title>Node6&#45;&gt;Node11</title>
<path fill="none" stroke="#191970" d="M618.1606,-190.5099C663.814,-180.2923 725.5708,-166.4161 780,-154 785.2381,-152.8051 790.7049,-151.5514 796.1581,-150.2964"/>
<polygon fill="#191970" stroke="#191970" points="796.9491,-153.7059 805.907,-148.0485 795.3763,-146.8849 796.9491,-153.7059"/>
</g>
<!-- Node6&#45;&gt;Node12 -->
<g id="edge24" class="edge">
<title>Node6&#45;&gt;Node12</title>
<path fill="none" stroke="#191970" d="M618.0501,-197.8512C689.0891,-189.3332 804.7076,-174.2915 913.3216,-154.2263"/>
<polygon fill="#191970" stroke="#191970" points="914.2835,-157.6073 923.4719,-152.3324 912.9996,-150.7261 914.2835,-157.6073"/>
</g>
<!-- Node6&#45;&gt;Node13 -->
<g id="edge25" class="edge">
<title>Node6&#45;&gt;Node13</title>
<path fill="none" stroke="#191970" d="M549.7775,-190.2967C551.2108,-182.2443 553.9654,-172.1574 557.1476,-163.0296"/>
<polygon fill="#191970" stroke="#191970" points="560.4341,-164.234 560.7261,-153.6432 553.8933,-161.7403 560.4341,-164.234"/>
</g>
<!-- Node14 -->
<g id="node15" class="node">
<title>Node14</title>
<g id="a_node15"><a xlink:href="$utils_2structures_8h.html" xlink:title="Various utility&#45; and helper&#45;functions for secondary structure parsing, converting,...">
<polygon fill="none" stroke="#000000" points="399,-62 399,-81 543,-81 543,-62 399,-62"/>
<text text-anchor="middle" x="471" y="-69" font-family="Helvetica,sans-Serif" font-size="10.00" fill="#000000">ViennaRNA/utils/structures.h</text>
</a>
</g>
</g>
<!-- Node6&#45;&gt;Node14 -->
<g id="edge31" class="edge">
<title>Node6&#45;&gt;Node14</title>
<path fill="none" stroke="#191970" d="M523.8713,-190.3133C511.8247,-180.8667 498.6886,-167.8983 490,-154 477.7007,-134.3261 470.0876,-108.6078 467.8972,-91.1529"/>
<polygon fill="#191970" stroke="#191970" points="471.3804,-90.7772 467.2461,-81.0224 464.3948,-91.2263 471.3804,-90.7772"/>
</g>
<!-- Node7&#45;&gt;Node1 -->
<g id="edge13" class="edge">
<title>Node7&#45;&gt;Node1</title>
<path fill="none" stroke="#191970" d="M209.6195,-148.1173C252.718,-173.3846 361.6514,-242.0969 462,-277 522.5398,-298.0569 593.652,-311.0319 647.6041,-318.6911"/>
<polygon fill="#191970" stroke="#191970" points="647.4284,-322.2001 657.8143,-320.1065 648.3897,-315.2664 647.4284,-322.2001"/>
</g>
<!-- Node7&#45;&gt;Node6 -->
<g id="edge12" class="edge">
<title>Node7&#45;&gt;Node6</title>
<path fill="none" stroke="#191970" d="M245.5659,-148.0055C255.7366,-150.0249 266.215,-152.1152 276,-154 342.8196,-166.8707 418.6631,-180.5781 473.8113,-190.6129"/>
<polygon fill="#191970" stroke="#191970" points="473.3957,-194.0947 483.861,-192.4428 474.6498,-187.2079 473.3957,-194.0947"/>
</g>
<!-- Node8&#45;&gt;Node1 -->
<g id="edge15" class="edge">
<title>Node8&#45;&gt;Node1</title>
<path fill="none" stroke="#191970" d="M1156.8093,-153.6291C1153.541,-182.8537 1133.4463,-246.8404 1090,-277 1040.6374,-311.2666 881.3213,-303.4161 822,-313 814.1704,-314.2649 805.9397,-315.6977 797.7496,-317.1686"/>
<polygon fill="#191970" stroke="#191970" points="797.0232,-313.7431 787.8091,-318.973 798.2735,-320.6306 797.0232,-313.7431"/>
</g>
<!-- Node9 -->
<g id="node10" class="node">
<title>Node9</title>
<g id="a_node10"><a xlink:href="$constraints_2basic_8h.html" xlink:title="Functions and data structures for constraining secondary structure predictions and evaluation.">
<polygon fill="none" stroke="#000000" points="1007.5,-56.5 1007.5,-86.5 1126.5,-86.5 1126.5,-56.5 1007.5,-56.5"/>
<text text-anchor="start" x="1015.5" y="-74.5" font-family="Helvetica,sans-Serif" font-size="10.00" fill="#000000">ViennaRNA/constraints</text>
<text text-anchor="middle" x="1067" y="-63.5" font-family="Helvetica,sans-Serif" font-size="10.00" fill="#000000">/basic.h</text>
</a>
</g>
</g>
<!-- Node8&#45;&gt;Node9 -->
<g id="edge16" class="edge">
<title>Node8&#45;&gt;Node9</title>
<path fill="none" stroke="#191970" d="M1135.0314,-123.2967C1123.2175,-114.302 1108.0694,-102.7687 1095.0673,-92.8694"/>
<polygon fill="#191970" stroke="#191970" points="1096.9662,-89.9162 1086.8895,-86.6432 1092.7257,-95.4857 1096.9662,-89.9162"/>
</g>
<!-- Node9&#45;&gt;Node1 -->
<g id="edge17" class="edge">
<title>Node9&#45;&gt;Node1</title>
<path fill="none" stroke="#191970" d="M1067.0932,-86.7392C1066.4513,-104.5706 1062.9642,-134.1741 1048,-154 979.1017,-245.2827 847.8889,-294.9827 777.8292,-316.0797"/>
<polygon fill="#191970" stroke="#191970" points="776.5562,-312.8058 767.9509,-318.9864 778.5322,-319.5211 776.5562,-312.8058"/>
</g>
<!-- Node10&#45;&gt;Node1 -->
<g id="edge20" class="edge">
<title>Node10&#45;&gt;Node1</title>
<path fill="none" stroke="#191970" d="M716.4748,-153.7011C723.7333,-187.782 732.5749,-270.297 733.2358,-308.4895"/>
<polygon fill="#191970" stroke="#191970" points="729.7338,-308.7937 733.1674,-318.8167 736.7336,-308.8401 729.7338,-308.7937"/>
</g>
<!-- Node10&#45;&gt;Node6 -->
<g id="edge19" class="edge">
<title>Node10&#45;&gt;Node6</title>
<path fill="none" stroke="#191970" d="M680.6848,-153.6017C658.4573,-163.4084 627.8845,-176.2645 601.9631,-186.7275"/>
<polygon fill="#191970" stroke="#191970" points="600.6259,-183.4927 592.6477,-190.4639 603.2319,-189.9896 600.6259,-183.4927"/>
</g>
<!-- Node10&#45;&gt;Node9 -->
<g id="edge21" class="edge">
<title>Node10&#45;&gt;Node9</title>
<path fill="none" stroke="#191970" d="M770.8052,-124.8987C773.9122,-124.2443 776.9913,-123.6076 780,-123 853.9598,-108.0645 939.087,-93.0627 997.3058,-83.1348"/>
<polygon fill="#191970" stroke="#191970" points="998.2214,-86.5295 1007.4932,-81.4026 997.0479,-79.6285 998.2214,-86.5295"/>
</g>
<!-- Node11&#45;&gt;Node1 -->
<g id="edge23" class="edge">
<title>Node11&#45;&gt;Node1</title>
<path fill="none" stroke="#191970" d="M844.1778,-148.3917C829.995,-178.7806 773.9478,-271.0992 746.1924,-310.4365"/>
<polygon fill="#191970" stroke="#191970" points="743.1491,-308.6704 740.0987,-318.8167 748.8106,-312.7873 743.1491,-308.6704"/>
</g>
<!-- Node13&#45;&gt;Node1 -->
<g id="edge27" class="edge">
<title>Node13&#45;&gt;Node1</title>
<path fill="none" stroke="#191970" d="M596.6494,-153.5002C609.336,-163.3827 624.1225,-176.8779 636,-190 672.4827,-230.3054 709.3067,-282.7603 724.6232,-310.1006"/>
<polygon fill="#191970" stroke="#191970" points="721.5219,-311.7232 729.2525,-318.9681 727.7272,-308.4836 721.5219,-311.7232"/>
</g>
<!-- Node13&#45;&gt;Node6 -->
<g id="edge26" class="edge">
<title>Node13&#45;&gt;Node6</title>
<path fill="none" stroke="#191970" d="M572.2332,-153.6432C570.8064,-161.6854 568.0562,-171.7696 564.8762,-180.9021"/>
<polygon fill="#191970" stroke="#191970" points="561.5867,-179.7057 561.2991,-190.2967 568.1285,-182.1966 561.5867,-179.7057"/>
</g>
<!-- Node13&#45;&gt;Node14 -->
<g id="edge28" class="edge">
<title>Node13&#45;&gt;Node14</title>
<path fill="none" stroke="#191970" d="M548.3085,-123.2967C531.9717,-112.351 510.0241,-97.6462 493.6881,-86.701"/>
<polygon fill="#191970" stroke="#191970" points="495.517,-83.7135 485.2612,-81.055 491.6207,-89.5289 495.517,-83.7135"/>
</g>
<!-- Node14&#45;&gt;Node6 -->
<g id="edge30" class="edge">
<title>Node14&#45;&gt;Node6</title>
<path fill="none" stroke="#191970" d="M478.2303,-81.0224C484.9772,-97.0507 493.0066,-130.0166 508,-154 514.6007,-164.5584 523.7681,-174.5801 532.0648,-182.9288"/>
<polygon fill="#191970" stroke="#191970" points="529.7596,-185.5709 539.341,-190.0929 534.6709,-180.5829 529.7596,-185.5709"/>
</g>
<!-- Node15 -->
<g id="node16" class="node">
<title>Node15</title>
<g id="a_node16"><a xlink:title=" ">
<polygon fill="none" stroke="#bfbfbf" points="448,-.5 448,-19.5 494,-19.5 494,-.5 448,-.5"/>
<text text-anchor="middle" x="471" y="-7.5" font-family="Helvetica,sans-Serif" font-size="10.00" fill="#000000">stdio.h</text>
</a>
</g>
</g>
<!-- Node14&#45;&gt;Node15 -->
<g id="edge29" class="edge">
<title>Node14&#45;&gt;Node15</title>
<path fill="none" stroke="#191970" d="M471,-61.8906C471,-53.3657 471,-40.6392 471,-29.9235"/>
<polygon fill="#191970" stroke="#191970" points="474.5001,-29.7448 471,-19.7449 467.5001,-29.7449 474.5001,-29.7448"/>
</g>
<!-- Node16&#45;&gt;Node1 -->
<g id="edge35" class="edge">
<title>Node16&#45;&gt;Node1</title>
<path fill="none" stroke="#191970" d="M1150.7423,-276.415C1149.1475,-276.6135 1147.5647,-276.8088 1146,-277 1002.1838,-294.5754 965.2864,-291.5292 822,-313 813.8642,-314.2191 805.3035,-315.6599 796.8082,-317.1642"/>
<polygon fill="#191970" stroke="#191970" points="796.1163,-313.7324 786.8951,-318.9497 797.3572,-320.6216 796.1163,-313.7324"/>
</g>
</g>
</svg>
