<?xml version="1.0" encoding="UTF-8" standalone="no"?>
<!DOCTYPE svg PUBLIC "-//W3C//DTD SVG 1.1//EN"
 "http://www.w3.org/Graphics/SVG/1.1/DTD/svg11.dtd">
<!-- Generated by graphviz version 2.40.1 (0)
 -->
<!-- Title: ViennaRNA/plotting/structures.h Pages: 1 -->
<svg width="1443pt" height="419pt"
 viewBox="0.00 0.00 1443.00 419.00" xmlns="http://www.w3.org/2000/svg" xmlns:xlink="http://www.w3.org/1999/xlink">
<g id="graph0" class="graph" transform="scale(1 1) rotate(0) translate(4 415)">
<title>ViennaRNA/plotting/structures.h</title>
<!-- Node0 -->
<g id="node1" class="node">
<title>Node0</title>
<g id="a_node1"><a xlink:title="Various functions for plotting RNA secondary structures.">
<polygon fill="#bfbfbf" stroke="#000000" points="498.5,-380.5 498.5,-410.5 601.5,-410.5 601.5,-380.5 498.5,-380.5"/>
<text text-anchor="start" x="506.5" y="-398.5" font-family="Helvetica,sans-Serif" font-size="10.00" fill="#000000">ViennaRNA/plotting</text>
<text text-anchor="middle" x="550" y="-387.5" font-family="Helvetica,sans-Serif" font-size="10.00" fill="#000000">/structures.h</text>
</a>
</g>
</g>
<!-- Node1 -->
<g id="node2" class="node">
<title>Node1</title>
<g id="a_node2"><a xlink:href="$model_8h.html" xlink:title="The model details data structure and its corresponding modifiers.">
<polygon fill="none" stroke="#000000" points="187,-62 187,-81 293,-81 293,-62 187,-62"/>
<text text-anchor="middle" x="240" y="-69" font-family="Helvetica,sans-Serif" font-size="10.00" fill="#000000">ViennaRNA/model.h</text>
</a>
</g>
</g>
<!-- Node0&#45;&gt;Node1 -->
<g id="edge1" class="edge">
<title>Node0&#45;&gt;Node1</title>
<path fill="none" stroke="#191970" d="M498.2393,-393.1507C366.7114,-385.7773 30,-357.5239 30,-261.5 30,-261.5 30,-261.5 30,-200 30,-157.4214 52.5733,-148.0548 87,-123 104.2657,-110.4345 155.1873,-94.5808 193.5802,-83.8056"/>
<polygon fill="#191970" stroke="#191970" points="194.8381,-87.0889 203.5396,-81.0446 192.968,-80.3434 194.8381,-87.0889"/>
</g>
<!-- Node2 -->
<g id="node3" class="node">
<title>Node2</title>
<g id="a_node3"><a xlink:href="$layouts_8h.html" xlink:title="Secondary structure plot layout algorithms.">
<polygon fill="none" stroke="#000000" points="498.5,-313.5 498.5,-343.5 601.5,-343.5 601.5,-313.5 498.5,-313.5"/>
<text text-anchor="start" x="506.5" y="-331.5" font-family="Helvetica,sans-Serif" font-size="10.00" fill="#000000">ViennaRNA/plotting</text>
<text text-anchor="middle" x="550" y="-320.5" font-family="Helvetica,sans-Serif" font-size="10.00" fill="#000000">/layouts.h</text>
</a>
</g>
</g>
<!-- Node0&#45;&gt;Node2 -->
<g id="edge2" class="edge">
<title>Node0&#45;&gt;Node2</title>
<path fill="none" stroke="#191970" d="M550,-380.2967C550,-372.5013 550,-362.7991 550,-353.9064"/>
<polygon fill="#191970" stroke="#191970" points="553.5001,-353.6431 550,-343.6432 546.5001,-353.6432 553.5001,-353.6431"/>
</g>
<!-- Node20 -->
<g id="node21" class="node">
<title>Node20</title>
<g id="a_node21"><a xlink:href="$RNApuzzler_8h.html" xlink:title="Implementation of the RNApuzzler RNA secondary structure layout algorithm .">
<polygon fill="none" stroke="#000000" points="707.5,-246.5 707.5,-276.5 844.5,-276.5 844.5,-246.5 707.5,-246.5"/>
<text text-anchor="start" x="715.5" y="-264.5" font-family="Helvetica,sans-Serif" font-size="10.00" fill="#000000">ViennaRNA/plotting</text>
<text text-anchor="middle" x="776" y="-253.5" font-family="Helvetica,sans-Serif" font-size="10.00" fill="#000000">/RNApuzzler/RNApuzzler.h</text>
</a>
</g>
</g>
<!-- Node0&#45;&gt;Node20 -->
<g id="edge47" class="edge">
<title>Node0&#45;&gt;Node20</title>
<path fill="none" stroke="#191970" d="M575.4858,-380.389C616.2862,-356.1976 696.3069,-308.7517 741.9574,-281.6846"/>
<polygon fill="#191970" stroke="#191970" points="743.7907,-284.6666 750.6074,-276.5558 740.2206,-278.6454 743.7907,-284.6666"/>
</g>
<!-- Node3 -->
<g id="node4" class="node">
<title>Node3</title>
<g id="a_node4"><a xlink:href="$datastructures_2basic_8h.html" xlink:title="Various data structures and pre&#45;processor macros.">
<polygon fill="none" stroke="#000000" points="434,-246.5 434,-276.5 568,-276.5 568,-246.5 434,-246.5"/>
<text text-anchor="start" x="442" y="-264.5" font-family="Helvetica,sans-Serif" font-size="10.00" fill="#000000">ViennaRNA/datastructures</text>
<text text-anchor="middle" x="501" y="-253.5" font-family="Helvetica,sans-Serif" font-size="10.00" fill="#000000">/basic.h</text>
</a>
</g>
</g>
<!-- Node2&#45;&gt;Node3 -->
<g id="edge3" class="edge">
<title>Node2&#45;&gt;Node3</title>
<path fill="none" stroke="#191970" d="M538.8811,-313.2967C532.7415,-304.9016 524.9846,-294.2952 518.0914,-284.8698"/>
<polygon fill="#191970" stroke="#191970" points="520.8032,-282.6488 512.0749,-276.6432 515.153,-286.781 520.8032,-282.6488"/>
</g>
<!-- Node18 -->
<g id="node19" class="node">
<title>Node18</title>
<g id="a_node19"><a xlink:href="$plotting_2naview_8h.html" xlink:title="Implementation of the Naview RNA secondary structure layout algorithm .">
<polygon fill="none" stroke="#000000" points="586.5,-246.5 586.5,-276.5 689.5,-276.5 689.5,-246.5 586.5,-246.5"/>
<text text-anchor="start" x="594.5" y="-264.5" font-family="Helvetica,sans-Serif" font-size="10.00" fill="#000000">ViennaRNA/plotting</text>
<text text-anchor="middle" x="638" y="-253.5" font-family="Helvetica,sans-Serif" font-size="10.00" fill="#000000">/naview.h</text>
</a>
</g>
</g>
<!-- Node2&#45;&gt;Node18 -->
<g id="edge44" class="edge">
<title>Node2&#45;&gt;Node18</title>
<path fill="none" stroke="#191970" d="M569.9686,-313.2967C581.7825,-304.302 596.9306,-292.7687 609.9327,-282.8694"/>
<polygon fill="#191970" stroke="#191970" points="612.2743,-285.4857 618.1105,-276.6432 608.0338,-279.9162 612.2743,-285.4857"/>
</g>
<!-- Node19 -->
<g id="node20" class="node">
<title>Node19</title>
<g id="a_node20"><a xlink:href="$RNAturtle_8h.html" xlink:title="Implementation of the RNAturtle RNA secondary structure layout algorithm .">
<polygon fill="none" stroke="#000000" points="288,-246.5 288,-276.5 416,-276.5 416,-246.5 288,-246.5"/>
<text text-anchor="start" x="296" y="-264.5" font-family="Helvetica,sans-Serif" font-size="10.00" fill="#000000">ViennaRNA/plotting</text>
<text text-anchor="middle" x="352" y="-253.5" font-family="Helvetica,sans-Serif" font-size="10.00" fill="#000000">/RNApuzzler/RNAturtle.h</text>
</a>
</g>
</g>
<!-- Node2&#45;&gt;Node19 -->
<g id="edge45" class="edge">
<title>Node2&#45;&gt;Node19</title>
<path fill="none" stroke="#191970" d="M505.5649,-313.4639C476.2433,-303.5419 437.6347,-290.4774 406.466,-279.9304"/>
<polygon fill="#191970" stroke="#191970" points="407.2231,-276.4917 396.6289,-276.6017 404.9794,-283.1224 407.2231,-276.4917"/>
</g>
<!-- Node2&#45;&gt;Node20 -->
<g id="edge46" class="edge">
<title>Node2&#45;&gt;Node20</title>
<path fill="none" stroke="#191970" d="M600.7188,-313.4639C634.6216,-303.4131 679.4018,-290.1375 715.2135,-279.5208"/>
<polygon fill="#191970" stroke="#191970" points="716.4673,-282.7997 725.06,-276.6017 714.4776,-276.0884 716.4673,-282.7997"/>
</g>
<!-- Node3&#45;&gt;Node1 -->
<g id="edge35" class="edge">
<title>Node3&#45;&gt;Node1</title>
<path fill="none" stroke="#191970" d="M448.0556,-246.4991C399.4518,-230.4306 328.0495,-200.7351 281,-154 263.072,-136.1918 251.6566,-108.9417 245.5436,-90.6868"/>
<polygon fill="#191970" stroke="#191970" points="248.8757,-89.6151 242.548,-81.1174 242.1954,-91.7063 248.8757,-89.6151"/>
</g>
<!-- Node4 -->
<g id="node5" class="node">
<title>Node4</title>
<g id="a_node5"><a xlink:href="$constants_8h.html" xlink:title="Energy parameter constants.">
<polygon fill="none" stroke="#000000" points="0,-62 0,-81 158,-81 158,-62 0,-62"/>
<text text-anchor="middle" x="79" y="-69" font-family="Helvetica,sans-Serif" font-size="10.00" fill="#000000">ViennaRNA/params/constants.h</text>
</a>
</g>
</g>
<!-- Node3&#45;&gt;Node4 -->
<g id="edge4" class="edge">
<title>Node3&#45;&gt;Node4</title>
<path fill="none" stroke="#191970" d="M433.8862,-247.6903C430.8847,-247.1112 427.9119,-246.5452 425,-246 271.9716,-217.3483 178.229,-280.1582 87,-154 73.8721,-135.8457 73.7529,-109.2599 75.6753,-91.2123"/>
<polygon fill="#191970" stroke="#191970" points="79.1531,-91.6117 77.038,-81.2301 72.2175,-90.6648 79.1531,-91.6117"/>
</g>
<!-- Node6 -->
<g id="node7" class="node">
<title>Node6</title>
<g id="a_node7"><a xlink:href="$fold__compound_8h.html" xlink:title="The Basic Fold Compound API.">
<polygon fill="none" stroke="#000000" points="605,-190.5 605,-209.5 751,-209.5 751,-190.5 605,-190.5"/>
<text text-anchor="middle" x="678" y="-197.5" font-family="Helvetica,sans-Serif" font-size="10.00" fill="#000000">ViennaRNA/fold_compound.h</text>
</a>
</g>
</g>
<!-- Node3&#45;&gt;Node6 -->
<g id="edge6" class="edge">
<title>Node3&#45;&gt;Node6</title>
<path fill="none" stroke="#191970" d="M544.2991,-246.4554C573.9615,-236.149 612.8845,-222.6249 641.0788,-212.8286"/>
<polygon fill="#191970" stroke="#191970" points="642.274,-216.1186 650.5713,-209.5303 639.9765,-209.5064 642.274,-216.1186"/>
</g>
<!-- Node7 -->
<g id="node8" class="node">
<title>Node7</title>
<g id="a_node8"><a xlink:href="$params_2basic_8h.html" xlink:title="Functions to deal with sets of energy parameters.">
<polygon fill="none" stroke="#000000" points="96,-129 96,-148 234,-148 234,-129 96,-129"/>
<text text-anchor="middle" x="165" y="-136" font-family="Helvetica,sans-Serif" font-size="10.00" fill="#000000">ViennaRNA/params/basic.h</text>
</a>
</g>
</g>
<!-- Node3&#45;&gt;Node7 -->
<g id="edge36" class="edge">
<title>Node3&#45;&gt;Node7</title>
<path fill="none" stroke="#191970" d="M433.9541,-249.649C427.8611,-248.4164 421.8059,-247.1825 416,-246 337.3376,-229.9789 311.079,-245.3421 239,-210 212.2001,-196.8593 187.0662,-172.9594 173.701,-156.4303"/>
<polygon fill="#191970" stroke="#191970" points="176.3134,-154.0765 167.5509,-148.1209 170.6869,-158.241 176.3134,-154.0765"/>
</g>
<!-- Node9 -->
<g id="node10" class="node">
<title>Node9</title>
<g id="a_node10"><a xlink:href="$dp__matrices_8h.html" xlink:title="Functions to deal with standard dynamic programming (DP) matrices.">
<polygon fill="none" stroke="#000000" points="290.5,-129 290.5,-148 423.5,-148 423.5,-129 290.5,-129"/>
<text text-anchor="middle" x="357" y="-136" font-family="Helvetica,sans-Serif" font-size="10.00" fill="#000000">ViennaRNA/dp_matrices.h</text>
</a>
</g>
</g>
<!-- Node3&#45;&gt;Node9 -->
<g id="edge37" class="edge">
<title>Node3&#45;&gt;Node9</title>
<path fill="none" stroke="#191970" d="M478.7285,-246.4178C448.8333,-223.2638 397.0989,-179.1238 371.6367,-155.0928"/>
<polygon fill="#191970" stroke="#191970" points="373.9753,-152.4855 364.3539,-148.0493 369.1089,-157.5172 373.9753,-152.4855"/>
</g>
<!-- Node10 -->
<g id="node11" class="node">
<title>Node10</title>
<g id="a_node11"><a xlink:href="$hard_8h.html" xlink:title="Functions and data structures for handling of secondary structure hard constraints.">
<polygon fill="none" stroke="#000000" points="795.5,-123.5 795.5,-153.5 914.5,-153.5 914.5,-123.5 795.5,-123.5"/>
<text text-anchor="start" x="803.5" y="-141.5" font-family="Helvetica,sans-Serif" font-size="10.00" fill="#000000">ViennaRNA/constraints</text>
<text text-anchor="middle" x="855" y="-130.5" font-family="Helvetica,sans-Serif" font-size="10.00" fill="#000000">/hard.h</text>
</a>
</g>
</g>
<!-- Node3&#45;&gt;Node10 -->
<g id="edge38" class="edge">
<title>Node3&#45;&gt;Node10</title>
<path fill="none" stroke="#191970" d="M568.1316,-247.7824C571.1284,-247.1783 574.0952,-246.5819 577,-246 658.2773,-229.7176 684.3024,-243.7784 760,-210 787.1363,-197.8911 813.7932,-176.7919 831.9294,-160.6421"/>
<polygon fill="#191970" stroke="#191970" points="834.6005,-162.9432 839.6337,-153.6203 829.8852,-157.7696 834.6005,-162.9432"/>
</g>
<!-- Node12 -->
<g id="node13" class="node">
<title>Node12</title>
<g id="a_node13"><a xlink:href="$soft_8h.html" xlink:title="Functions and data structures for secondary structure soft constraints.">
<polygon fill="none" stroke="#000000" points="441.5,-123.5 441.5,-153.5 560.5,-153.5 560.5,-123.5 441.5,-123.5"/>
<text text-anchor="start" x="449.5" y="-141.5" font-family="Helvetica,sans-Serif" font-size="10.00" fill="#000000">ViennaRNA/constraints</text>
<text text-anchor="middle" x="501" y="-130.5" font-family="Helvetica,sans-Serif" font-size="10.00" fill="#000000">/soft.h</text>
</a>
</g>
</g>
<!-- Node3&#45;&gt;Node12 -->
<g id="edge39" class="edge">
<title>Node3&#45;&gt;Node12</title>
<path fill="none" stroke="#191970" d="M496.3857,-246.4178C493.9095,-225.8539 493.5865,-188.7363 495.4169,-163.8546"/>
<polygon fill="#191970" stroke="#191970" points="498.9196,-163.9893 496.3709,-153.7056 491.9503,-163.3341 498.9196,-163.9893"/>
</g>
<!-- Node13 -->
<g id="node14" class="node">
<title>Node13</title>
<g id="a_node14"><a xlink:href="$grammar_8h.html" xlink:title="Implementations for the RNA folding grammar.">
<polygon fill="none" stroke="#000000" points="932.5,-129 932.5,-148 1049.5,-148 1049.5,-129 932.5,-129"/>
<text text-anchor="middle" x="991" y="-136" font-family="Helvetica,sans-Serif" font-size="10.00" fill="#000000">ViennaRNA/grammar.h</text>
</a>
</g>
</g>
<!-- Node3&#45;&gt;Node13 -->
<g id="edge40" class="edge">
<title>Node3&#45;&gt;Node13</title>
<path fill="none" stroke="#191970" d="M568.1127,-247.6846C571.1146,-247.107 574.0876,-246.5429 577,-246 671.3831,-228.4046 697.0856,-234.1805 790,-210 850.9656,-194.134 919.6467,-167.7888 958.8793,-151.8928"/>
<polygon fill="#191970" stroke="#191970" points="960.2611,-155.1092 968.1966,-148.0893 957.6155,-148.6284 960.2611,-155.1092"/>
</g>
<!-- Node14 -->
<g id="node15" class="node">
<title>Node14</title>
<g id="a_node15"><a xlink:href="$structured__domains_8h.html" xlink:title="This module provides interfaces that deal with additional structured domains in the folding grammar.">
<polygon fill="none" stroke="#000000" points="1067.5,-123.5 1067.5,-153.5 1182.5,-153.5 1182.5,-123.5 1067.5,-123.5"/>
<text text-anchor="start" x="1075.5" y="-141.5" font-family="Helvetica,sans-Serif" font-size="10.00" fill="#000000">ViennaRNA/structured</text>
<text text-anchor="middle" x="1125" y="-130.5" font-family="Helvetica,sans-Serif" font-size="10.00" fill="#000000">_domains.h</text>
</a>
</g>
</g>
<!-- Node3&#45;&gt;Node14 -->
<g id="edge41" class="edge">
<title>Node3&#45;&gt;Node14</title>
<path fill="none" stroke="#191970" d="M568.0942,-247.5814C571.1011,-247.0317 574.0803,-246.5017 577,-246 690.6713,-226.4665 720.7393,-231.7884 834,-210 912.8382,-194.8336 1002.3733,-171.9698 1061.0593,-156.2003"/>
<polygon fill="#191970" stroke="#191970" points="1062.1839,-159.5221 1070.9267,-153.5376 1060.3601,-152.7638 1062.1839,-159.5221"/>
</g>
<!-- Node15 -->
<g id="node16" class="node">
<title>Node15</title>
<g id="a_node16"><a xlink:href="$unstructured__domains_8h.html" xlink:title="Functions to modify unstructured domains, e.g. to incorporate ligands binding to unpaired stretches.">
<polygon fill="none" stroke="#000000" points="1200.5,-123.5 1200.5,-153.5 1325.5,-153.5 1325.5,-123.5 1200.5,-123.5"/>
<text text-anchor="start" x="1208.5" y="-141.5" font-family="Helvetica,sans-Serif" font-size="10.00" fill="#000000">ViennaRNA/unstructured</text>
<text text-anchor="middle" x="1263" y="-130.5" font-family="Helvetica,sans-Serif" font-size="10.00" fill="#000000">_domains.h</text>
</a>
</g>
</g>
<!-- Node3&#45;&gt;Node15 -->
<g id="edge42" class="edge">
<title>Node3&#45;&gt;Node15</title>
<path fill="none" stroke="#191970" d="M565.1906,-246.4537C566.1322,-246.2992 567.069,-246.1478 568,-246 707.1674,-223.8995 743.6535,-230.9415 883,-210 1017.1302,-189.8424 1050.0603,-180.9123 1183,-154 1185.3476,-153.5248 1187.7374,-153.0348 1190.1541,-152.5348"/>
<polygon fill="#191970" stroke="#191970" points="1191.1272,-155.9071 1200.1999,-150.4357 1189.6954,-149.0551 1191.1272,-155.9071"/>
</g>
<!-- Node16 -->
<g id="node17" class="node">
<title>Node16</title>
<g id="a_node17"><a xlink:href="$utils_2structures_8h.html" xlink:title="Various utility&#45; and helper&#45;functions for secondary structure parsing, converting,...">
<polygon fill="none" stroke="#000000" points="1291,-62 1291,-81 1435,-81 1435,-62 1291,-62"/>
<text text-anchor="middle" x="1363" y="-69" font-family="Helvetica,sans-Serif" font-size="10.00" fill="#000000">ViennaRNA/utils/structures.h</text>
</a>
</g>
</g>
<!-- Node3&#45;&gt;Node16 -->
<g id="edge43" class="edge">
<title>Node3&#45;&gt;Node16</title>
<path fill="none" stroke="#191970" d="M564.7814,-246.4848C565.8607,-246.3182 566.9341,-246.1564 568,-246 735.8828,-221.3653 1196.1075,-263.1762 1326,-154 1344.5733,-138.3889 1350.8641,-109.9497 1355.1867,-90.888"/>
<polygon fill="#191970" stroke="#191970" points="1358.5911,-91.7002 1357.5164,-81.16 1351.7836,-90.0699 1358.5911,-91.7002"/>
</g>
<!-- Node5 -->
<g id="node6" class="node">
<title>Node5</title>
<g id="a_node6"><a xlink:title=" ">
<polygon fill="none" stroke="#bfbfbf" points="55,-.5 55,-19.5 103,-19.5 103,-.5 55,-.5"/>
<text text-anchor="middle" x="79" y="-7.5" font-family="Helvetica,sans-Serif" font-size="10.00" fill="#000000">limits.h</text>
</a>
</g>
</g>
<!-- Node4&#45;&gt;Node5 -->
<g id="edge5" class="edge">
<title>Node4&#45;&gt;Node5</title>
<path fill="none" stroke="#191970" d="M79,-61.8906C79,-53.3657 79,-40.6392 79,-29.9235"/>
<polygon fill="#191970" stroke="#191970" points="82.5001,-29.7448 79,-19.7449 75.5001,-29.7449 82.5001,-29.7448"/>
</g>
<!-- Node6&#45;&gt;Node1 -->
<g id="edge7" class="edge">
<title>Node6&#45;&gt;Node1</title>
<path fill="none" stroke="#191970" d="M662.4365,-190.3405C648.0693,-181.291 626.2594,-167.2154 608,-154 590.063,-141.0179 589.2765,-131.8959 569,-123 522.5445,-102.6187 385.1705,-85.9791 303.363,-77.5292"/>
<polygon fill="#191970" stroke="#191970" points="303.4864,-74.0237 293.1827,-76.4902 302.7756,-80.9875 303.4864,-74.0237"/>
</g>
<!-- Node6&#45;&gt;Node7 -->
<g id="edge8" class="edge">
<title>Node6&#45;&gt;Node7</title>
<path fill="none" stroke="#191970" d="M604.7926,-192.6235C523.2995,-183.821 388.0142,-168.4711 272,-154 260.2653,-152.5363 247.8704,-150.9369 235.8278,-149.3393"/>
<polygon fill="#191970" stroke="#191970" points="236.1928,-145.857 225.8171,-148.0006 235.265,-152.7952 236.1928,-145.857"/>
</g>
<!-- Node8 -->
<g id="node9" class="node">
<title>Node8</title>
<g id="a_node9"><a xlink:href="$sequence_8h.html" xlink:title="Functions and data structures related to sequence representations ,.">
<polygon fill="none" stroke="#000000" points="617,-129 617,-148 739,-148 739,-129 617,-129"/>
<text text-anchor="middle" x="678" y="-136" font-family="Helvetica,sans-Serif" font-size="10.00" fill="#000000">ViennaRNA/sequence.h</text>
</a>
</g>
</g>
<!-- Node6&#45;&gt;Node8 -->
<g id="edge13" class="edge">
<title>Node6&#45;&gt;Node8</title>
<path fill="none" stroke="#191970" d="M672.9375,-190.3906C671.2741,-181.8657 670.8404,-169.1392 671.6365,-158.4235"/>
<polygon fill="#191970" stroke="#191970" points="675.1414,-158.6023 672.9112,-148.2449 668.1956,-157.7324 675.1414,-158.6023"/>
</g>
<!-- Node6&#45;&gt;Node9 -->
<g id="edge15" class="edge">
<title>Node6&#45;&gt;Node9</title>
<path fill="none" stroke="#191970" d="M618.1953,-190.418C566.3054,-181.3071 489.504,-167.0887 423,-154 416.7503,-152.77 410.2132,-151.4575 403.7741,-150.1366"/>
<polygon fill="#191970" stroke="#191970" points="404.2944,-146.67 393.7917,-148.0644 402.8716,-153.5239 404.2944,-146.67"/>
</g>
<!-- Node6&#45;&gt;Node10 -->
<g id="edge18" class="edge">
<title>Node6&#45;&gt;Node10</title>
<path fill="none" stroke="#191970" d="M700.5938,-190.3906C724.682,-181.4123 763.5472,-167.7735 796.3025,-156.7316"/>
<polygon fill="#191970" stroke="#191970" points="797.4361,-160.0431 805.8038,-153.5446 795.2099,-153.4065 797.4361,-160.0431"/>
</g>
<!-- Node6&#45;&gt;Node12 -->
<g id="edge22" class="edge">
<title>Node6&#45;&gt;Node12</title>
<path fill="none" stroke="#191970" d="M645.2813,-190.3906C617.9261,-181.4893 578.728,-168.0073 548.0406,-157.0165"/>
<polygon fill="#191970" stroke="#191970" points="548.9964,-153.6407 538.402,-153.5446 546.6241,-160.2265 548.9964,-153.6407"/>
</g>
<!-- Node6&#45;&gt;Node13 -->
<g id="edge26" class="edge">
<title>Node6&#45;&gt;Node13</title>
<path fill="none" stroke="#191970" d="M725.8057,-190.4328C773.787,-181.5579 849.5053,-167.6929 915,-154 920.615,-152.8261 926.4824,-151.5468 932.3691,-150.2431"/>
<polygon fill="#191970" stroke="#191970" points="933.2541,-153.6318 942.2532,-148.0403 931.7313,-146.7995 933.2541,-153.6318"/>
</g>
<!-- Node6&#45;&gt;Node14 -->
<g id="edge28" class="edge">
<title>Node6&#45;&gt;Node14</title>
<path fill="none" stroke="#191970" d="M751.0393,-193.6011C825.7415,-186.5089 945.3001,-173.6466 1057.3603,-154.1826"/>
<polygon fill="#191970" stroke="#191970" points="1058.242,-157.5814 1067.4846,-152.4022 1057.0296,-150.6872 1058.242,-157.5814"/>
</g>
<!-- Node6&#45;&gt;Node15 -->
<g id="edge29" class="edge">
<title>Node6&#45;&gt;Node15</title>
<path fill="none" stroke="#191970" d="M751.3749,-195.9844C849.967,-190.1611 1030.2367,-177.4157 1183,-154 1185.3676,-153.6371 1187.7744,-153.2428 1190.2054,-152.8237"/>
<polygon fill="#191970" stroke="#191970" points="1191.0891,-156.2202 1200.2964,-150.9785 1189.8299,-149.3344 1191.0891,-156.2202"/>
</g>
<!-- Node7&#45;&gt;Node1 -->
<g id="edge12" class="edge">
<title>Node7&#45;&gt;Node1</title>
<path fill="none" stroke="#191970" d="M175.7457,-128.9005C187.664,-118.2535 207.1057,-100.8856 221.4868,-88.0385"/>
<polygon fill="#191970" stroke="#191970" points="224.1484,-90.354 229.2743,-81.0817 219.4849,-85.1337 224.1484,-90.354"/>
</g>
<!-- Node7&#45;&gt;Node3 -->
<g id="edge10" class="edge">
<title>Node7&#45;&gt;Node3</title>
<path fill="none" stroke="#191970" d="M178.647,-148.1209C195.8146,-163.7386 225.2371,-194.4259 257,-210 325.9818,-243.8235 352.9964,-231.2056 426.2358,-244.5285"/>
<polygon fill="#191970" stroke="#191970" points="425.9064,-248.0294 436.3883,-246.4865 427.232,-241.1561 425.9064,-248.0294"/>
</g>
<!-- Node7&#45;&gt;Node4 -->
<g id="edge9" class="edge">
<title>Node7&#45;&gt;Node4</title>
<path fill="none" stroke="#191970" d="M152.6783,-128.9005C138.7565,-118.0544 115.8824,-100.2339 99.31,-87.3229"/>
<polygon fill="#191970" stroke="#191970" points="101.3385,-84.4664 91.2988,-81.0817 97.0364,-89.9885 101.3385,-84.4664"/>
</g>
<!-- Node7&#45;&gt;Node6 -->
<g id="edge11" class="edge">
<title>Node7&#45;&gt;Node6</title>
<path fill="none" stroke="#191970" d="M234.0951,-146.7848C252.3495,-149.1777 271.9553,-151.7492 290,-154 395.0989,-167.1095 516.0131,-180.9403 594.6067,-189.9712"/>
<polygon fill="#191970" stroke="#191970" points="594.5973,-193.4931 604.9316,-191.1581 595.3968,-186.5389 594.5973,-193.4931"/>
</g>
<!-- Node8&#45;&gt;Node6 -->
<g id="edge14" class="edge">
<title>Node8&#45;&gt;Node6</title>
<path fill="none" stroke="#191970" d="M683.0888,-148.2449C684.7392,-156.814 685.1598,-169.5519 684.3508,-180.2462"/>
<polygon fill="#191970" stroke="#191970" points="680.8503,-180.0293 683.0625,-190.3906 687.7945,-180.9113 680.8503,-180.0293"/>
</g>
<!-- Node9&#45;&gt;Node3 -->
<g id="edge16" class="edge">
<title>Node9&#45;&gt;Node3</title>
<path fill="none" stroke="#191970" d="M372.0053,-148.0493C398.0766,-167.4956 450.8475,-212.1405 480.3075,-239.2668"/>
<polygon fill="#191970" stroke="#191970" points="478.2617,-242.1456 487.957,-246.4178 483.042,-237.032 478.2617,-242.1456"/>
</g>
<!-- Node9&#45;&gt;Node6 -->
<g id="edge17" class="edge">
<title>Node9&#45;&gt;Node6</title>
<path fill="none" stroke="#191970" d="M411.3743,-148.0644C421.286,-150.06 431.4766,-152.1257 441,-154 503.0877,-166.2195 574.1506,-179.4237 622.2242,-188.5372"/>
<polygon fill="#191970" stroke="#191970" points="621.6446,-191.9896 632.1222,-190.418 622.9514,-185.1127 621.6446,-191.9896"/>
</g>
<!-- Node10&#45;&gt;Node6 -->
<g id="edge19" class="edge">
<title>Node10&#45;&gt;Node6</title>
<path fill="none" stroke="#191970" d="M817.598,-153.5446C789.115,-163.8684 750.011,-177.4207 720.3766,-187.221"/>
<polygon fill="#191970" stroke="#191970" points="719.1287,-183.9468 710.7188,-190.3906 721.3116,-190.5978 719.1287,-183.9468"/>
</g>
<!-- Node11 -->
<g id="node12" class="node">
<title>Node11</title>
<g id="a_node12"><a xlink:href="$constraints_2basic_8h.html" xlink:title="Functions and data structures for constraining secondary structure predictions and evaluation.">
<polygon fill="none" stroke="#000000" points="707.5,-56.5 707.5,-86.5 826.5,-86.5 826.5,-56.5 707.5,-56.5"/>
<text text-anchor="start" x="715.5" y="-74.5" font-family="Helvetica,sans-Serif" font-size="10.00" fill="#000000">ViennaRNA/constraints</text>
<text text-anchor="middle" x="767" y="-63.5" font-family="Helvetica,sans-Serif" font-size="10.00" fill="#000000">/basic.h</text>
</a>
</g>
</g>
<!-- Node10&#45;&gt;Node11 -->
<g id="edge20" class="edge">
<title>Node10&#45;&gt;Node11</title>
<path fill="none" stroke="#191970" d="M835.0314,-123.2967C823.2175,-114.302 808.0694,-102.7687 795.0673,-92.8694"/>
<polygon fill="#191970" stroke="#191970" points="796.9662,-89.9162 786.8895,-86.6432 792.7257,-95.4857 796.9662,-89.9162"/>
</g>
<!-- Node11&#45;&gt;Node6 -->
<g id="edge21" class="edge">
<title>Node11&#45;&gt;Node6</title>
<path fill="none" stroke="#191970" d="M766.8237,-86.5439C765.9228,-104.1874 762.1866,-133.6104 748,-154 738.6201,-167.4812 723.8926,-178.0203 710.3614,-185.5894"/>
<polygon fill="#191970" stroke="#191970" points="708.4991,-182.6138 701.2652,-190.3548 711.7475,-188.8145 708.4991,-182.6138"/>
</g>
<!-- Node12&#45;&gt;Node3 -->
<g id="edge23" class="edge">
<title>Node12&#45;&gt;Node3</title>
<path fill="none" stroke="#191970" d="M505.6291,-153.7056C508.0967,-174.3355 508.4111,-211.4615 506.5721,-236.2943"/>
<polygon fill="#191970" stroke="#191970" points="503.0719,-236.1325 505.6143,-246.4178 510.0408,-236.792 503.0719,-236.1325"/>
</g>
<!-- Node12&#45;&gt;Node6 -->
<g id="edge24" class="edge">
<title>Node12&#45;&gt;Node6</title>
<path fill="none" stroke="#191970" d="M550.1962,-153.5446C580.7345,-163.7338 619.0291,-177.0678 645.7655,-186.8356"/>
<polygon fill="#191970" stroke="#191970" points="644.8129,-190.2147 655.4063,-190.3906 647.2347,-183.647 644.8129,-190.2147"/>
</g>
<!-- Node12&#45;&gt;Node11 -->
<g id="edge25" class="edge">
<title>Node12&#45;&gt;Node11</title>
<path fill="none" stroke="#191970" d="M560.6956,-123.4639C601.1957,-113.2627 654.8843,-99.7397 697.3391,-89.0462"/>
<polygon fill="#191970" stroke="#191970" points="698.2018,-92.4383 707.044,-86.6017 696.492,-85.6503 698.2018,-92.4383"/>
</g>
<!-- Node13&#45;&gt;Node6 -->
<g id="edge27" class="edge">
<title>Node13&#45;&gt;Node6</title>
<path fill="none" stroke="#191970" d="M959.8006,-148.0403C951.1447,-150.0784 941.7649,-152.1675 933,-154 871.499,-166.858 800.9833,-179.8676 749.6395,-188.7548"/>
<polygon fill="#191970" stroke="#191970" points="748.8965,-185.3311 739.6347,-190.476 750.0834,-192.2298 748.8965,-185.3311"/>
</g>
<!-- Node15&#45;&gt;Node3 -->
<g id="edge30" class="edge">
<title>Node15&#45;&gt;Node3</title>
<path fill="none" stroke="#191970" d="M1203.2378,-153.5451C1202.4881,-153.6981 1201.742,-153.8498 1201,-154 1068.0603,-180.9123 1035.1302,-189.8424 901,-210 761.6535,-230.9415 725.1674,-223.8995 586,-246 583.4981,-246.3973 580.9534,-246.82 578.3823,-247.262"/>
<polygon fill="#191970" stroke="#191970" points="577.5967,-243.8469 568.3682,-249.0511 578.8279,-250.7378 577.5967,-243.8469"/>
</g>
<!-- Node15&#45;&gt;Node6 -->
<g id="edge31" class="edge">
<title>Node15&#45;&gt;Node6</title>
<path fill="none" stroke="#191970" d="M1204.0123,-153.525C1203.0023,-153.6886 1201.9977,-153.8471 1201,-154 1046.9461,-177.6135 864.9192,-190.3757 761.246,-196.1305"/>
<polygon fill="#191970" stroke="#191970" points="760.9477,-192.6415 751.1537,-196.6822 761.3299,-199.631 760.9477,-192.6415"/>
</g>
<!-- Node15&#45;&gt;Node16 -->
<g id="edge32" class="edge">
<title>Node15&#45;&gt;Node16</title>
<path fill="none" stroke="#191970" d="M1285.6915,-123.2967C1302.0283,-112.351 1323.9759,-97.6462 1340.3119,-86.701"/>
<polygon fill="#191970" stroke="#191970" points="1342.3793,-89.5289 1348.7388,-81.055 1338.483,-83.7135 1342.3793,-89.5289"/>
</g>
<!-- Node16&#45;&gt;Node3 -->
<g id="edge34" class="edge">
<title>Node16&#45;&gt;Node3</title>
<path fill="none" stroke="#191970" d="M1368.0407,-81.16C1370.8167,-98.6366 1366.1152,-135.4119 1344,-154 1214.1075,-263.1762 753.8828,-221.3653 586,-246 583.4935,-246.3678 580.945,-246.7652 578.3706,-247.186"/>
<polygon fill="#191970" stroke="#191970" points="577.6083,-243.7656 568.3467,-248.9109 578.7955,-250.6642 577.6083,-243.7656"/>
</g>
<!-- Node17 -->
<g id="node18" class="node">
<title>Node17</title>
<g id="a_node18"><a xlink:title=" ">
<polygon fill="none" stroke="#bfbfbf" points="1340,-.5 1340,-19.5 1386,-19.5 1386,-.5 1340,-.5"/>
<text text-anchor="middle" x="1363" y="-7.5" font-family="Helvetica,sans-Serif" font-size="10.00" fill="#000000">stdio.h</text>
</a>
</g>
</g>
<!-- Node16&#45;&gt;Node17 -->
<g id="edge33" class="edge">
<title>Node16&#45;&gt;Node17</title>
<path fill="none" stroke="#191970" d="M1363,-61.8906C1363,-53.3657 1363,-40.6392 1363,-29.9235"/>
<polygon fill="#191970" stroke="#191970" points="1366.5001,-29.7448 1363,-19.7449 1359.5001,-29.7449 1366.5001,-29.7448"/>
</g>
</g>
</svg>
