<?xml version="1.0" encoding="UTF-8" standalone="no"?>
<!DOCTYPE svg PUBLIC "-//W3C//DTD SVG 1.1//EN"
 "http://www.w3.org/Graphics/SVG/1.1/DTD/svg11.dtd">
<!-- Generated by graphviz version 2.40.1 (0)
 -->
<!-- Title: ViennaRNA/plotting/utils.h Pages: 1 -->
<svg width="1379pt" height="352pt"
 viewBox="0.00 0.00 1379.00 352.00" xmlns="http://www.w3.org/2000/svg" xmlns:xlink="http://www.w3.org/1999/xlink">
<g id="graph0" class="graph" transform="scale(1 1) rotate(0) translate(4 348)">
<title>ViennaRNA/plotting/utils.h</title>
<!-- Node0 -->
<g id="node1" class="node">
<title>Node0</title>
<g id="a_node1"><a xlink:title="Various utilities to assist in plotting secondary structures and consensus structures.">
<polygon fill="#bfbfbf" stroke="#000000" points="750.5,-313.5 750.5,-343.5 853.5,-343.5 853.5,-313.5 750.5,-313.5"/>
<text text-anchor="start" x="758.5" y="-331.5" font-family="Helvetica,sans-Serif" font-size="10.00" fill="#000000">ViennaRNA/plotting</text>
<text text-anchor="middle" x="802" y="-320.5" font-family="Helvetica,sans-Serif" font-size="10.00" fill="#000000">/utils.h</text>
</a>
</g>
</g>
<!-- Node1 -->
<g id="node2" class="node">
<title>Node1</title>
<g id="a_node2"><a xlink:href="$datastructures_2basic_8h.html" xlink:title="Various data structures and pre&#45;processor macros.">
<polygon fill="none" stroke="#000000" points="735,-246.5 735,-276.5 869,-276.5 869,-246.5 735,-246.5"/>
<text text-anchor="start" x="743" y="-264.5" font-family="Helvetica,sans-Serif" font-size="10.00" fill="#000000">ViennaRNA/datastructures</text>
<text text-anchor="middle" x="802" y="-253.5" font-family="Helvetica,sans-Serif" font-size="10.00" fill="#000000">/basic.h</text>
</a>
</g>
</g>
<!-- Node0&#45;&gt;Node1 -->
<g id="edge1" class="edge">
<title>Node0&#45;&gt;Node1</title>
<path fill="none" stroke="#191970" d="M802,-313.2967C802,-305.5013 802,-295.7991 802,-286.9064"/>
<polygon fill="#191970" stroke="#191970" points="805.5001,-286.6431 802,-276.6432 798.5001,-286.6432 805.5001,-286.6431"/>
</g>
<!-- Node5 -->
<g id="node6" class="node">
<title>Node5</title>
<g id="a_node6"><a xlink:href="$model_8h.html" xlink:title="The model details data structure and its corresponding modifiers.">
<polygon fill="none" stroke="#000000" points="0,-62 0,-81 106,-81 106,-62 0,-62"/>
<text text-anchor="middle" x="53" y="-69" font-family="Helvetica,sans-Serif" font-size="10.00" fill="#000000">ViennaRNA/model.h</text>
</a>
</g>
</g>
<!-- Node0&#45;&gt;Node5 -->
<g id="edge42" class="edge">
<title>Node0&#45;&gt;Node5</title>
<path fill="none" stroke="#191970" d="M750.3748,-324.8391C635.0176,-315.5176 348.6645,-286.0118 122,-210 70.3623,-192.6833 41.3793,-200.4858 13,-154 -.1864,-132.4004 18.4328,-105.8102 34.4388,-88.7586"/>
<polygon fill="#191970" stroke="#191970" points="37.3673,-90.7772 41.9355,-81.2177 32.4031,-85.8419 37.3673,-90.7772"/>
</g>
<!-- Node15 -->
<g id="node16" class="node">
<title>Node15</title>
<g id="a_node16"><a xlink:href="$utils_2structures_8h.html" xlink:title="Various utility&#45; and helper&#45;functions for secondary structure parsing, converting,...">
<polygon fill="none" stroke="#000000" points="1227,-62 1227,-81 1371,-81 1371,-62 1227,-62"/>
<text text-anchor="middle" x="1299" y="-69" font-family="Helvetica,sans-Serif" font-size="10.00" fill="#000000">ViennaRNA/utils/structures.h</text>
</a>
</g>
</g>
<!-- Node0&#45;&gt;Node15 -->
<g id="edge43" class="edge">
<title>Node0&#45;&gt;Node15</title>
<path fill="none" stroke="#191970" d="M853.6133,-319.0309C932.2607,-303.3609 1085.5619,-267.8892 1205,-210 1243.7285,-191.2291 1260.8842,-190.303 1284,-154 1296.0514,-135.0735 1299.0286,-109.0321 1299.4896,-91.3036"/>
<polygon fill="#191970" stroke="#191970" points="1302.9896,-91.2501 1299.5049,-81.2448 1295.9896,-91.2394 1302.9896,-91.2501"/>
</g>
<!-- Node2 -->
<g id="node3" class="node">
<title>Node2</title>
<g id="a_node3"><a xlink:href="$constants_8h.html" xlink:title="Energy parameter constants.">
<polygon fill="none" stroke="#000000" points="889,-62 889,-81 1047,-81 1047,-62 889,-62"/>
<text text-anchor="middle" x="968" y="-69" font-family="Helvetica,sans-Serif" font-size="10.00" fill="#000000">ViennaRNA/params/constants.h</text>
</a>
</g>
</g>
<!-- Node1&#45;&gt;Node2 -->
<g id="edge2" class="edge">
<title>Node1&#45;&gt;Node2</title>
<path fill="none" stroke="#191970" d="M869.3797,-254.6651C979.0958,-241.9911 1188.6095,-210.8223 1233,-154 1241.482,-143.1426 1241.764,-133.6311 1233,-123 1210.8819,-96.1697 1125.3747,-83.1402 1057.3923,-76.927"/>
<polygon fill="#191970" stroke="#191970" points="1057.3396,-73.4091 1047.0723,-76.0231 1056.7287,-80.3824 1057.3396,-73.4091"/>
</g>
<!-- Node4 -->
<g id="node5" class="node">
<title>Node4</title>
<g id="a_node5"><a xlink:href="$fold__compound_8h.html" xlink:title="The Basic Fold Compound API.">
<polygon fill="none" stroke="#000000" points="550,-190.5 550,-209.5 696,-209.5 696,-190.5 550,-190.5"/>
<text text-anchor="middle" x="623" y="-197.5" font-family="Helvetica,sans-Serif" font-size="10.00" fill="#000000">ViennaRNA/fold_compound.h</text>
</a>
</g>
</g>
<!-- Node1&#45;&gt;Node4 -->
<g id="edge4" class="edge">
<title>Node1&#45;&gt;Node4</title>
<path fill="none" stroke="#191970" d="M758.2117,-246.4554C728.2141,-236.149 688.8513,-222.6249 660.3384,-212.8286"/>
<polygon fill="#191970" stroke="#191970" points="661.3333,-209.4696 650.7386,-209.5303 659.0587,-216.0898 661.3333,-209.4696"/>
</g>
<!-- Node1&#45;&gt;Node5 -->
<g id="edge33" class="edge">
<title>Node1&#45;&gt;Node5</title>
<path fill="none" stroke="#191970" d="M734.8779,-257.3524C554.2148,-245.4934 68.2082,-208.7376 23,-154 7.3201,-135.015 23.3803,-107.1339 37.3631,-89.1471"/>
<polygon fill="#191970" stroke="#191970" points="40.2571,-91.1386 43.9123,-81.1943 34.8535,-86.6887 40.2571,-91.1386"/>
</g>
<!-- Node6 -->
<g id="node7" class="node">
<title>Node6</title>
<g id="a_node7"><a xlink:href="$params_2basic_8h.html" xlink:title="Functions to deal with sets of energy parameters.">
<polygon fill="none" stroke="#000000" points="32,-129 32,-148 170,-148 170,-129 32,-129"/>
<text text-anchor="middle" x="101" y="-136" font-family="Helvetica,sans-Serif" font-size="10.00" fill="#000000">ViennaRNA/params/basic.h</text>
</a>
</g>
</g>
<!-- Node1&#45;&gt;Node6 -->
<g id="edge34" class="edge">
<title>Node1&#45;&gt;Node6</title>
<path fill="none" stroke="#191970" d="M734.6548,-255.2462C654.9148,-246.9456 518.6001,-230.8726 403,-210 308.6223,-192.9593 199.6781,-166.2715 141.8031,-150.775"/>
<polygon fill="#191970" stroke="#191970" points="142.5119,-147.341 131.945,-148.1093 140.6846,-154.0983 142.5119,-147.341"/>
</g>
<!-- Node8 -->
<g id="node9" class="node">
<title>Node8</title>
<g id="a_node9"><a xlink:href="$dp__matrices_8h.html" xlink:title="Functions to deal with standard dynamic programming (DP) matrices.">
<polygon fill="none" stroke="#000000" points="947.5,-129 947.5,-148 1080.5,-148 1080.5,-129 947.5,-129"/>
<text text-anchor="middle" x="1014" y="-136" font-family="Helvetica,sans-Serif" font-size="10.00" fill="#000000">ViennaRNA/dp_matrices.h</text>
</a>
</g>
</g>
<!-- Node1&#45;&gt;Node8 -->
<g id="edge35" class="edge">
<title>Node1&#45;&gt;Node8</title>
<path fill="none" stroke="#191970" d="M823.3811,-246.4178C861.7058,-222.5121 941.4985,-176.2354 984.8031,-152.8171"/>
<polygon fill="#191970" stroke="#191970" points="986.549,-155.8526 993.7154,-148.0493 983.2469,-149.6803 986.549,-155.8526"/>
</g>
<!-- Node9 -->
<g id="node10" class="node">
<title>Node9</title>
<g id="a_node10"><a xlink:href="$hard_8h.html" xlink:title="Functions and data structures for handling of secondary structure hard constraints.">
<polygon fill="none" stroke="#000000" points="677.5,-123.5 677.5,-153.5 796.5,-153.5 796.5,-123.5 677.5,-123.5"/>
<text text-anchor="start" x="685.5" y="-141.5" font-family="Helvetica,sans-Serif" font-size="10.00" fill="#000000">ViennaRNA/constraints</text>
<text text-anchor="middle" x="737" y="-130.5" font-family="Helvetica,sans-Serif" font-size="10.00" fill="#000000">/hard.h</text>
</a>
</g>
</g>
<!-- Node1&#45;&gt;Node9 -->
<g id="edge36" class="edge">
<title>Node1&#45;&gt;Node9</title>
<path fill="none" stroke="#191970" d="M794.0297,-246.4178C783.0164,-225.5772 763.0183,-187.7346 749.8716,-162.8571"/>
<polygon fill="#191970" stroke="#191970" points="752.8023,-160.9117 745.0355,-153.7056 746.6133,-164.1823 752.8023,-160.9117"/>
</g>
<!-- Node11 -->
<g id="node12" class="node">
<title>Node11</title>
<g id="a_node12"><a xlink:href="$soft_8h.html" xlink:title="Functions and data structures for secondary structure soft constraints.">
<polygon fill="none" stroke="#000000" points="188.5,-123.5 188.5,-153.5 307.5,-153.5 307.5,-123.5 188.5,-123.5"/>
<text text-anchor="start" x="196.5" y="-141.5" font-family="Helvetica,sans-Serif" font-size="10.00" fill="#000000">ViennaRNA/constraints</text>
<text text-anchor="middle" x="248" y="-130.5" font-family="Helvetica,sans-Serif" font-size="10.00" fill="#000000">/soft.h</text>
</a>
</g>
</g>
<!-- Node1&#45;&gt;Node11 -->
<g id="edge37" class="edge">
<title>Node1&#45;&gt;Node11</title>
<path fill="none" stroke="#191970" d="M734.8397,-253.8455C669.1963,-245.288 566.9514,-229.9689 480,-210 415.0727,-195.089 341.8907,-172.5396 295.2892,-156.7619"/>
<polygon fill="#191970" stroke="#191970" points="296.3554,-153.4276 285.7609,-153.5031 294.0901,-160.051 296.3554,-153.4276"/>
</g>
<!-- Node12 -->
<g id="node13" class="node">
<title>Node12</title>
<g id="a_node13"><a xlink:href="$grammar_8h.html" xlink:title="Implementations for the RNA folding grammar.">
<polygon fill="none" stroke="#000000" points="325.5,-129 325.5,-148 442.5,-148 442.5,-129 325.5,-129"/>
<text text-anchor="middle" x="384" y="-136" font-family="Helvetica,sans-Serif" font-size="10.00" fill="#000000">ViennaRNA/grammar.h</text>
</a>
</g>
</g>
<!-- Node1&#45;&gt;Node12 -->
<g id="edge38" class="edge">
<title>Node1&#45;&gt;Node12</title>
<path fill="none" stroke="#191970" d="M734.9505,-252.6612C681.5795,-244.583 605.4152,-230.7108 541,-210 493.4024,-194.6964 441.1215,-168.9485 410.5043,-152.8847"/>
<polygon fill="#191970" stroke="#191970" points="411.8327,-149.6275 401.3582,-148.035 408.5534,-155.8119 411.8327,-149.6275"/>
</g>
<!-- Node13 -->
<g id="node14" class="node">
<title>Node13</title>
<g id="a_node14"><a xlink:href="$structured__domains_8h.html" xlink:title="This module provides interfaces that deal with additional structured domains in the folding grammar.">
<polygon fill="none" stroke="#000000" points="814.5,-123.5 814.5,-153.5 929.5,-153.5 929.5,-123.5 814.5,-123.5"/>
<text text-anchor="start" x="822.5" y="-141.5" font-family="Helvetica,sans-Serif" font-size="10.00" fill="#000000">ViennaRNA/structured</text>
<text text-anchor="middle" x="872" y="-130.5" font-family="Helvetica,sans-Serif" font-size="10.00" fill="#000000">_domains.h</text>
</a>
</g>
</g>
<!-- Node1&#45;&gt;Node13 -->
<g id="edge39" class="edge">
<title>Node1&#45;&gt;Node13</title>
<path fill="none" stroke="#191970" d="M810.5834,-246.4178C822.4963,-225.485 844.1711,-187.3994 858.3257,-162.5276"/>
<polygon fill="#191970" stroke="#191970" points="861.4421,-164.1279 863.3464,-153.7056 855.3583,-160.6655 861.4421,-164.1279"/>
</g>
<!-- Node14 -->
<g id="node15" class="node">
<title>Node14</title>
<g id="a_node15"><a xlink:href="$unstructured__domains_8h.html" xlink:title="Functions to modify unstructured domains, e.g. to incorporate ligands binding to unpaired stretches.">
<polygon fill="none" stroke="#000000" points="1098.5,-123.5 1098.5,-153.5 1223.5,-153.5 1223.5,-123.5 1098.5,-123.5"/>
<text text-anchor="start" x="1106.5" y="-141.5" font-family="Helvetica,sans-Serif" font-size="10.00" fill="#000000">ViennaRNA/unstructured</text>
<text text-anchor="middle" x="1161" y="-130.5" font-family="Helvetica,sans-Serif" font-size="10.00" fill="#000000">_domains.h</text>
</a>
</g>
</g>
<!-- Node1&#45;&gt;Node14 -->
<g id="edge40" class="edge">
<title>Node1&#45;&gt;Node14</title>
<path fill="none" stroke="#191970" d="M841.4062,-246.4178C904.7986,-223.7637 1029.4399,-181.02 1102.9883,-156.6771"/>
<polygon fill="#191970" stroke="#191970" points="1104.1764,-159.9707 1112.5757,-153.513 1101.9825,-153.3234 1104.1764,-159.9707"/>
</g>
<!-- Node1&#45;&gt;Node15 -->
<g id="edge41" class="edge">
<title>Node1&#45;&gt;Node15</title>
<path fill="none" stroke="#191970" d="M869.3052,-254.5206C955.6806,-245.4401 1100.1937,-228.5306 1151,-210 1195.2591,-193.8573 1208.0331,-187.6547 1241,-154 1259.4914,-135.1228 1273.8802,-107.9643 1284.2922,-90.0348"/>
<polygon fill="#191970" stroke="#191970" points="1287.4937,-91.504 1289.6682,-81.1347 1281.5019,-87.8847 1287.4937,-91.504"/>
</g>
<!-- Node3 -->
<g id="node4" class="node">
<title>Node3</title>
<g id="a_node4"><a xlink:title=" ">
<polygon fill="none" stroke="#bfbfbf" points="944,-.5 944,-19.5 992,-19.5 992,-.5 944,-.5"/>
<text text-anchor="middle" x="968" y="-7.5" font-family="Helvetica,sans-Serif" font-size="10.00" fill="#000000">limits.h</text>
</a>
</g>
</g>
<!-- Node2&#45;&gt;Node3 -->
<g id="edge3" class="edge">
<title>Node2&#45;&gt;Node3</title>
<path fill="none" stroke="#191970" d="M968,-61.8906C968,-53.3657 968,-40.6392 968,-29.9235"/>
<polygon fill="#191970" stroke="#191970" points="971.5001,-29.7448 968,-19.7449 964.5001,-29.7449 971.5001,-29.7448"/>
</g>
<!-- Node4&#45;&gt;Node5 -->
<g id="edge5" class="edge">
<title>Node4&#45;&gt;Node5</title>
<path fill="none" stroke="#191970" d="M622.2249,-190.2878C620.3178,-173.5024 613.8192,-139.3016 592,-123 554.615,-95.0689 250.9147,-79.4822 116.5497,-73.8951"/>
<polygon fill="#191970" stroke="#191970" points="116.5358,-70.3917 106.4007,-73.4788 116.2488,-77.3858 116.5358,-70.3917"/>
</g>
<!-- Node4&#45;&gt;Node6 -->
<g id="edge6" class="edge">
<title>Node4&#45;&gt;Node6</title>
<path fill="none" stroke="#191970" d="M549.9988,-195.0248C460.0829,-188.0939 303.1433,-174.0816 170,-154 162.4061,-152.8546 154.4296,-151.4752 146.6877,-150.0175"/>
<polygon fill="#191970" stroke="#191970" points="147.1824,-146.5481 136.6973,-148.0692 145.8425,-153.4187 147.1824,-146.5481"/>
</g>
<!-- Node7 -->
<g id="node8" class="node">
<title>Node7</title>
<g id="a_node8"><a xlink:href="$sequence_8h.html" xlink:title="Functions and data structures related to sequence representations ,.">
<polygon fill="none" stroke="#000000" points="461,-129 461,-148 583,-148 583,-129 461,-129"/>
<text text-anchor="middle" x="522" y="-136" font-family="Helvetica,sans-Serif" font-size="10.00" fill="#000000">ViennaRNA/sequence.h</text>
</a>
</g>
</g>
<!-- Node4&#45;&gt;Node7 -->
<g id="edge11" class="edge">
<title>Node4&#45;&gt;Node7</title>
<path fill="none" stroke="#191970" d="M602.1563,-190.3906C584.0785,-180.5519 558.4479,-165.1167 540.9481,-153.6351"/>
<polygon fill="#191970" stroke="#191970" points="542.8739,-150.7124 532.6211,-148.0419 538.9708,-156.5232 542.8739,-150.7124"/>
</g>
<!-- Node4&#45;&gt;Node8 -->
<g id="edge13" class="edge">
<title>Node4&#45;&gt;Node8</title>
<path fill="none" stroke="#191970" d="M689.8005,-190.4965C752.1115,-181.949 847.4167,-168.5313 930,-154 936.9321,-152.7802 944.2043,-151.4021 951.4591,-149.9834"/>
<polygon fill="#191970" stroke="#191970" points="952.1774,-153.4092 961.3077,-148.0345 950.8185,-146.5423 952.1774,-153.4092"/>
</g>
<!-- Node4&#45;&gt;Node9 -->
<g id="edge16" class="edge">
<title>Node4&#45;&gt;Node9</title>
<path fill="none" stroke="#191970" d="M635.75,-190.3906C650.0018,-181.7976 673.4163,-168.9356 694.1997,-158.1671"/>
<polygon fill="#191970" stroke="#191970" points="695.9137,-161.2216 703.2154,-153.5446 692.72,-154.9926 695.9137,-161.2216"/>
</g>
<!-- Node4&#45;&gt;Node11 -->
<g id="edge20" class="edge">
<title>Node4&#45;&gt;Node11</title>
<path fill="none" stroke="#191970" d="M549.9196,-191.5596C488.0601,-183.5798 397.0636,-170.6426 314.5097,-155.3912"/>
<polygon fill="#191970" stroke="#191970" points="314.959,-151.9147 304.4865,-153.52 313.6743,-158.7958 314.959,-151.9147"/>
</g>
<!-- Node4&#45;&gt;Node12 -->
<g id="edge24" class="edge">
<title>Node4&#45;&gt;Node12</title>
<path fill="none" stroke="#191970" d="M580.8692,-190.4581C537.1661,-179.7533 469.4302,-162.3628 425.8391,-150.6837"/>
<polygon fill="#191970" stroke="#191970" points="426.681,-147.2858 416.1148,-148.0643 424.8603,-154.0449 426.681,-147.2858"/>
</g>
<!-- Node4&#45;&gt;Node13 -->
<g id="edge26" class="edge">
<title>Node4&#45;&gt;Node13</title>
<path fill="none" stroke="#191970" d="M661.633,-190.4581C699.6846,-181.0598 758.6009,-166.5082 804.415,-155.1927"/>
<polygon fill="#191970" stroke="#191970" points="805.4059,-158.5532 814.2749,-152.7574 803.7273,-151.7574 805.4059,-158.5532"/>
</g>
<!-- Node4&#45;&gt;Node14 -->
<g id="edge27" class="edge">
<title>Node4&#45;&gt;Node14</title>
<path fill="none" stroke="#191970" d="M696.2284,-194.9954C786.9343,-188.4823 945.8065,-175.3407 1081,-154 1083.3659,-153.6265 1085.7714,-153.2232 1088.2012,-152.7965"/>
<polygon fill="#191970" stroke="#191970" points="1089.0935,-156.1909 1098.2884,-150.9274 1087.8181,-149.308 1089.0935,-156.1909"/>
</g>
<!-- Node6&#45;&gt;Node1 -->
<g id="edge8" class="edge">
<title>Node6&#45;&gt;Node1</title>
<path fill="none" stroke="#191970" d="M143.0658,-148.0484C204.226,-162.9532 320.8195,-191.9115 421,-210 525.6831,-228.9015 647.3532,-243.867 724.5609,-252.6891"/>
<polygon fill="#191970" stroke="#191970" points="724.3545,-256.1881 734.6859,-253.84 725.1452,-249.2329 724.3545,-256.1881"/>
</g>
<!-- Node6&#45;&gt;Node2 -->
<g id="edge7" class="edge">
<title>Node6&#45;&gt;Node2</title>
<path fill="none" stroke="#191970" d="M143.7454,-128.9578C155.1509,-126.6994 167.5015,-124.5111 179,-123 213.1752,-118.5087 679.5415,-89.355 878.7781,-77.0094"/>
<polygon fill="#191970" stroke="#191970" points="879.1601,-80.4925 888.9245,-76.3809 878.7272,-73.5059 879.1601,-80.4925"/>
</g>
<!-- Node6&#45;&gt;Node4 -->
<g id="edge9" class="edge">
<title>Node6&#45;&gt;Node4</title>
<path fill="none" stroke="#191970" d="M154.148,-148.0692C165.3656,-150.2213 177.0784,-152.3527 188,-154 309.9912,-172.3996 451.9595,-185.704 539.7189,-193.1348"/>
<polygon fill="#191970" stroke="#191970" points="539.6253,-196.6392 549.8835,-193.9898 540.2121,-189.6638 539.6253,-196.6392"/>
</g>
<!-- Node6&#45;&gt;Node5 -->
<g id="edge10" class="edge">
<title>Node6&#45;&gt;Node5</title>
<path fill="none" stroke="#191970" d="M94.1228,-128.9005C86.7802,-118.6515 74.9759,-102.1747 65.8938,-89.4976"/>
<polygon fill="#191970" stroke="#191970" points="68.5336,-87.1724 59.8645,-81.0817 62.8432,-91.2492 68.5336,-87.1724"/>
</g>
<!-- Node7&#45;&gt;Node4 -->
<g id="edge12" class="edge">
<title>Node7&#45;&gt;Node4</title>
<path fill="none" stroke="#191970" d="M542.7197,-148.0419C560.7628,-157.855 586.3947,-173.2864 603.9316,-184.786"/>
<polygon fill="#191970" stroke="#191970" points="602.0276,-187.7234 612.2813,-190.3906 605.9289,-181.9113 602.0276,-187.7234"/>
</g>
<!-- Node8&#45;&gt;Node1 -->
<g id="edge14" class="edge">
<title>Node8&#45;&gt;Node1</title>
<path fill="none" stroke="#191970" d="M1001.3668,-148.0493C970.3153,-168.0357 890.4265,-214.6402 841.6345,-241.4859"/>
<polygon fill="#191970" stroke="#191970" points="839.7064,-238.551 832.6096,-246.4178 843.0632,-244.6936 839.7064,-238.551"/>
</g>
<!-- Node8&#45;&gt;Node4 -->
<g id="edge15" class="edge">
<title>Node8&#45;&gt;Node4</title>
<path fill="none" stroke="#191970" d="M978.8179,-148.0345C968.8857,-150.1166 958.083,-152.2258 948,-154 866.2032,-168.3929 771.9256,-181.6933 705.9825,-190.251"/>
<polygon fill="#191970" stroke="#191970" points="705.5267,-186.7807 696.0565,-191.5309 706.422,-193.7232 705.5267,-186.7807"/>
</g>
<!-- Node9&#45;&gt;Node4 -->
<g id="edge17" class="edge">
<title>Node9&#45;&gt;Node4</title>
<path fill="none" stroke="#191970" d="M715.0095,-153.5446C697.8807,-163.4196 674.0604,-176.2484 654.8727,-185.922"/>
<polygon fill="#191970" stroke="#191970" points="653.2744,-182.8078 645.875,-190.3906 656.3881,-189.0772 653.2744,-182.8078"/>
</g>
<!-- Node10 -->
<g id="node11" class="node">
<title>Node10</title>
<g id="a_node11"><a xlink:href="$constraints_2basic_8h.html" xlink:title="Functions and data structures for constraining secondary structure predictions and evaluation.">
<polygon fill="none" stroke="#000000" points="589.5,-56.5 589.5,-86.5 708.5,-86.5 708.5,-56.5 589.5,-56.5"/>
<text text-anchor="start" x="597.5" y="-74.5" font-family="Helvetica,sans-Serif" font-size="10.00" fill="#000000">ViennaRNA/constraints</text>
<text text-anchor="middle" x="649" y="-63.5" font-family="Helvetica,sans-Serif" font-size="10.00" fill="#000000">/basic.h</text>
</a>
</g>
</g>
<!-- Node9&#45;&gt;Node10 -->
<g id="edge18" class="edge">
<title>Node9&#45;&gt;Node10</title>
<path fill="none" stroke="#191970" d="M717.0314,-123.2967C705.2175,-114.302 690.0694,-102.7687 677.0673,-92.8694"/>
<polygon fill="#191970" stroke="#191970" points="678.9662,-89.9162 668.8895,-86.6432 674.7257,-95.4857 678.9662,-89.9162"/>
</g>
<!-- Node10&#45;&gt;Node4 -->
<g id="edge19" class="edge">
<title>Node10&#45;&gt;Node4</title>
<path fill="none" stroke="#191970" d="M645.9242,-86.7016C641.2111,-109.9952 632.2023,-154.5195 626.9917,-180.2718"/>
<polygon fill="#191970" stroke="#191970" points="623.507,-179.8461 624.9542,-190.3416 630.3679,-181.2344 623.507,-179.8461"/>
</g>
<!-- Node11&#45;&gt;Node1 -->
<g id="edge21" class="edge">
<title>Node11&#45;&gt;Node1</title>
<path fill="none" stroke="#191970" d="M299.0716,-153.5031C349.4381,-169.293 428.4544,-194.0284 498,-210 574.6462,-227.6023 663.1756,-241.5915 724.92,-250.5215"/>
<polygon fill="#191970" stroke="#191970" points="724.5803,-254.0085 734.9763,-251.9656 725.5754,-247.0796 724.5803,-254.0085"/>
</g>
<!-- Node11&#45;&gt;Node4 -->
<g id="edge22" class="edge">
<title>Node11&#45;&gt;Node4</title>
<path fill="none" stroke="#191970" d="M307.7276,-150.5154C313.5767,-151.7553 319.4077,-152.9452 325,-154 399.8451,-168.1166 485.6143,-180.666 545.9228,-189.0763"/>
<polygon fill="#191970" stroke="#191970" points="545.7403,-192.5845 556.1268,-190.4939 546.7036,-185.6511 545.7403,-192.5845"/>
</g>
<!-- Node11&#45;&gt;Node10 -->
<g id="edge23" class="edge">
<title>Node11&#45;&gt;Node10</title>
<path fill="none" stroke="#191970" d="M307.654,-124.6516C310.4717,-124.0764 313.2646,-123.5226 316,-123 406.4538,-105.7188 511.5795,-90.2172 579.1304,-80.8411"/>
<polygon fill="#191970" stroke="#191970" points="579.8024,-84.2816 589.2294,-79.4462 578.8445,-77.3474 579.8024,-84.2816"/>
</g>
<!-- Node12&#45;&gt;Node4 -->
<g id="edge25" class="edge">
<title>Node12&#45;&gt;Node4</title>
<path fill="none" stroke="#191970" d="M426.1308,-148.0419C469.7771,-158.7328 537.3937,-176.092 580.9907,-187.7707"/>
<polygon fill="#191970" stroke="#191970" points="580.1526,-191.1697 590.7188,-190.3906 581.973,-184.4105 580.1526,-191.1697"/>
</g>
<!-- Node14&#45;&gt;Node1 -->
<g id="edge28" class="edge">
<title>Node14&#45;&gt;Node1</title>
<path fill="none" stroke="#191970" d="M1121.7875,-153.513C1058.5201,-176.126 933.8892,-218.868 860.2368,-243.2484"/>
<polygon fill="#191970" stroke="#191970" points="859.0337,-239.9597 850.6347,-246.4178 861.2279,-246.607 859.0337,-239.9597"/>
</g>
<!-- Node14&#45;&gt;Node4 -->
<g id="edge29" class="edge">
<title>Node14&#45;&gt;Node4</title>
<path fill="none" stroke="#191970" d="M1102.0104,-153.5124C1101.001,-153.6799 1099.997,-153.8426 1099,-154 962.542,-175.5403 801.9604,-188.7274 706.4699,-195.1764"/>
<polygon fill="#191970" stroke="#191970" points="706.0403,-191.6972 696.2953,-195.8546 706.5059,-198.6817 706.0403,-191.6972"/>
</g>
<!-- Node14&#45;&gt;Node15 -->
<g id="edge30" class="edge">
<title>Node14&#45;&gt;Node15</title>
<path fill="none" stroke="#191970" d="M1191.9699,-123.4639C1215.3331,-112.1209 1247.1559,-96.6707 1270.0194,-85.5703"/>
<polygon fill="#191970" stroke="#191970" points="1271.7516,-88.62 1279.2188,-81.1039 1268.6943,-82.323 1271.7516,-88.62"/>
</g>
<!-- Node15&#45;&gt;Node1 -->
<g id="edge32" class="edge">
<title>Node15&#45;&gt;Node1</title>
<path fill="none" stroke="#191970" d="M1300.5393,-81.1347C1297.0687,-97.6216 1280.9157,-131.6271 1259,-154 1226.0331,-187.6547 1213.2591,-193.8573 1169,-210 1117.684,-228.7165 970.7716,-245.7792 879.0735,-254.7915"/>
<polygon fill="#191970" stroke="#191970" points="878.616,-251.3194 869.0017,-255.7708 879.2935,-258.2866 878.616,-251.3194"/>
</g>
<!-- Node16 -->
<g id="node17" class="node">
<title>Node16</title>
<g id="a_node17"><a xlink:title=" ">
<polygon fill="none" stroke="#bfbfbf" points="1276,-.5 1276,-19.5 1322,-19.5 1322,-.5 1276,-.5"/>
<text text-anchor="middle" x="1299" y="-7.5" font-family="Helvetica,sans-Serif" font-size="10.00" fill="#000000">stdio.h</text>
</a>
</g>
</g>
<!-- Node15&#45;&gt;Node16 -->
<g id="edge31" class="edge">
<title>Node15&#45;&gt;Node16</title>
<path fill="none" stroke="#191970" d="M1299,-61.8906C1299,-53.3657 1299,-40.6392 1299,-29.9235"/>
<polygon fill="#191970" stroke="#191970" points="1302.5001,-29.7448 1299,-19.7449 1295.5001,-29.7449 1302.5001,-29.7448"/>
</g>
</g>
</svg>
