<?xml version="1.0" encoding="UTF-8" standalone="no"?>
<!DOCTYPE svg PUBLIC "-//W3C//DTD SVG 1.1//EN"
 "http://www.w3.org/Graphics/SVG/1.1/DTD/svg11.dtd">
<!-- Generated by graphviz version 2.40.1 (0)
 -->
<!-- Title: ViennaRNA/plotting/probabilities.h Pages: 1 -->
<svg width="1386pt" height="352pt"
 viewBox="0.00 0.00 1385.50 352.00" xmlns="http://www.w3.org/2000/svg" xmlns:xlink="http://www.w3.org/1999/xlink">
<g id="graph0" class="graph" transform="scale(1 1) rotate(0) translate(4 348)">
<title>ViennaRNA/plotting/probabilities.h</title>
<!-- Node0 -->
<g id="node1" class="node">
<title>Node0</title>
<g id="a_node1"><a xlink:title="Various functions for plotting RNA secondary structures, dot&#45;plots and other visualizations.">
<polygon fill="#bfbfbf" stroke="#000000" points="1085,-313.5 1085,-343.5 1188,-343.5 1188,-313.5 1085,-313.5"/>
<text text-anchor="start" x="1093" y="-331.5" font-family="Helvetica,sans-Serif" font-size="10.00" fill="#000000">ViennaRNA/plotting</text>
<text text-anchor="middle" x="1136.5" y="-320.5" font-family="Helvetica,sans-Serif" font-size="10.00" fill="#000000">/probabilities.h</text>
</a>
</g>
</g>
<!-- Node1 -->
<g id="node2" class="node">
<title>Node1</title>
<g id="a_node2"><a xlink:href="$datastructures_2basic_8h.html" xlink:title="Various data structures and pre&#45;processor macros.">
<polygon fill="none" stroke="#000000" points="853.5,-246.5 853.5,-276.5 987.5,-276.5 987.5,-246.5 853.5,-246.5"/>
<text text-anchor="start" x="861.5" y="-264.5" font-family="Helvetica,sans-Serif" font-size="10.00" fill="#000000">ViennaRNA/datastructures</text>
<text text-anchor="middle" x="920.5" y="-253.5" font-family="Helvetica,sans-Serif" font-size="10.00" fill="#000000">/basic.h</text>
</a>
</g>
</g>
<!-- Node0&#45;&gt;Node1 -->
<g id="edge1" class="edge">
<title>Node0&#45;&gt;Node1</title>
<path fill="none" stroke="#191970" d="M1088.0254,-313.4639C1055.7612,-303.456 1013.1896,-290.2509 979.0361,-279.657"/>
<polygon fill="#191970" stroke="#191970" points="979.7741,-276.2215 969.186,-276.6017 977.7002,-282.9072 979.7741,-276.2215"/>
</g>
<!-- Node15 -->
<g id="node16" class="node">
<title>Node15</title>
<g id="a_node16"><a xlink:href="$utils_2structures_8h.html" xlink:title="Various utility&#45; and helper&#45;functions for secondary structure parsing, converting,...">
<polygon fill="none" stroke="#000000" points="1233.5,-62 1233.5,-81 1377.5,-81 1377.5,-62 1233.5,-62"/>
<text text-anchor="middle" x="1305.5" y="-69" font-family="Helvetica,sans-Serif" font-size="10.00" fill="#000000">ViennaRNA/utils/structures.h</text>
</a>
</g>
</g>
<!-- Node0&#45;&gt;Node15 -->
<g id="edge42" class="edge">
<title>Node0&#45;&gt;Node15</title>
<path fill="none" stroke="#191970" d="M1155.2512,-313.4594C1188.4001,-285.7408 1257.0062,-223.079 1290.5,-154 1300.1907,-134.0135 1303.6583,-108.5451 1304.8785,-91.229"/>
<polygon fill="#191970" stroke="#191970" points="1308.3776,-91.3341 1305.3986,-81.1667 1301.387,-90.9727 1308.3776,-91.3341"/>
</g>
<!-- Node2 -->
<g id="node3" class="node">
<title>Node2</title>
<g id="a_node3"><a xlink:href="$constants_8h.html" xlink:title="Energy parameter constants.">
<polygon fill="none" stroke="#000000" points="1024.5,-62 1024.5,-81 1182.5,-81 1182.5,-62 1024.5,-62"/>
<text text-anchor="middle" x="1103.5" y="-69" font-family="Helvetica,sans-Serif" font-size="10.00" fill="#000000">ViennaRNA/params/constants.h</text>
</a>
</g>
</g>
<!-- Node1&#45;&gt;Node2 -->
<g id="edge2" class="edge">
<title>Node1&#45;&gt;Node2</title>
<path fill="none" stroke="#191970" d="M987.501,-248.4209C1071.9475,-230.4177 1209.7106,-195.4741 1239.5,-154 1264.5425,-119.1347 1209.0312,-96.1927 1161.5577,-83.5489"/>
<polygon fill="#191970" stroke="#191970" points="1162.1359,-80.0845 1151.5812,-81.0066 1160.4072,-86.8677 1162.1359,-80.0845"/>
</g>
<!-- Node4 -->
<g id="node5" class="node">
<title>Node4</title>
<g id="a_node5"><a xlink:href="$fold__compound_8h.html" xlink:title="The Basic Fold Compound API.">
<polygon fill="none" stroke="#000000" points="519.5,-190.5 519.5,-209.5 665.5,-209.5 665.5,-190.5 519.5,-190.5"/>
<text text-anchor="middle" x="592.5" y="-197.5" font-family="Helvetica,sans-Serif" font-size="10.00" fill="#000000">ViennaRNA/fold_compound.h</text>
</a>
</g>
</g>
<!-- Node1&#45;&gt;Node4 -->
<g id="edge4" class="edge">
<title>Node1&#45;&gt;Node4</title>
<path fill="none" stroke="#191970" d="M853.3328,-248.9062C794.5443,-237.8833 709.8922,-222.011 653.1305,-211.3682"/>
<polygon fill="#191970" stroke="#191970" points="653.6934,-207.9128 643.2196,-209.5099 652.4033,-214.793 653.6934,-207.9128"/>
</g>
<!-- Node5 -->
<g id="node6" class="node">
<title>Node5</title>
<g id="a_node6"><a xlink:href="$model_8h.html" xlink:title="The model details data structure and its corresponding modifiers.">
<polygon fill="none" stroke="#000000" points="867.5,-62 867.5,-81 973.5,-81 973.5,-62 867.5,-62"/>
<text text-anchor="middle" x="920.5" y="-69" font-family="Helvetica,sans-Serif" font-size="10.00" fill="#000000">ViennaRNA/model.h</text>
</a>
</g>
</g>
<!-- Node1&#45;&gt;Node5 -->
<g id="edge33" class="edge">
<title>Node1&#45;&gt;Node5</title>
<path fill="none" stroke="#191970" d="M920.5,-246.2727C920.5,-212.1167 920.5,-129.408 920.5,-91.313"/>
<polygon fill="#191970" stroke="#191970" points="924.0001,-91.0258 920.5,-81.0258 917.0001,-91.0259 924.0001,-91.0258"/>
</g>
<!-- Node6 -->
<g id="node7" class="node">
<title>Node6</title>
<g id="a_node7"><a xlink:href="$params_2basic_8h.html" xlink:title="Functions to deal with sets of energy parameters.">
<polygon fill="none" stroke="#000000" points="948.5,-129 948.5,-148 1086.5,-148 1086.5,-129 948.5,-129"/>
<text text-anchor="middle" x="1017.5" y="-136" font-family="Helvetica,sans-Serif" font-size="10.00" fill="#000000">ViennaRNA/params/basic.h</text>
</a>
</g>
</g>
<!-- Node1&#45;&gt;Node6 -->
<g id="edge34" class="edge">
<title>Node1&#45;&gt;Node6</title>
<path fill="none" stroke="#191970" d="M927.7798,-246.4178C943.1843,-223.3641 977.7022,-179.5055 999.344,-155.406"/>
<polygon fill="#191970" stroke="#191970" points="1001.9264,-157.7686 1006.1436,-148.0493 996.7858,-153.0174 1001.9264,-157.7686"/>
</g>
<!-- Node8 -->
<g id="node9" class="node">
<title>Node8</title>
<g id="a_node9"><a xlink:href="$dp__matrices_8h.html" xlink:title="Functions to deal with standard dynamic programming (DP) matrices.">
<polygon fill="none" stroke="#000000" points="0,-129 0,-148 133,-148 133,-129 0,-129"/>
<text text-anchor="middle" x="66.5" y="-136" font-family="Helvetica,sans-Serif" font-size="10.00" fill="#000000">ViennaRNA/dp_matrices.h</text>
</a>
</g>
</g>
<!-- Node1&#45;&gt;Node8 -->
<g id="edge35" class="edge">
<title>Node1&#45;&gt;Node8</title>
<path fill="none" stroke="#191970" d="M853.2177,-258.5838C747.2038,-253.1066 535.4672,-239.1111 358.5,-210 265.9478,-194.7752 159.6003,-167.0505 104.2027,-150.9641"/>
<polygon fill="#191970" stroke="#191970" points="105.0477,-147.5644 94.4664,-148.1015 103.0731,-154.2802 105.0477,-147.5644"/>
</g>
<!-- Node9 -->
<g id="node10" class="node">
<title>Node9</title>
<g id="a_node10"><a xlink:href="$hard_8h.html" xlink:title="Functions and data structures for handling of secondary structure hard constraints.">
<polygon fill="none" stroke="#000000" points="288,-123.5 288,-153.5 407,-153.5 407,-123.5 288,-123.5"/>
<text text-anchor="start" x="296" y="-141.5" font-family="Helvetica,sans-Serif" font-size="10.00" fill="#000000">ViennaRNA/constraints</text>
<text text-anchor="middle" x="347.5" y="-130.5" font-family="Helvetica,sans-Serif" font-size="10.00" fill="#000000">/hard.h</text>
</a>
</g>
</g>
<!-- Node1&#45;&gt;Node9 -->
<g id="edge36" class="edge">
<title>Node1&#45;&gt;Node9</title>
<path fill="none" stroke="#191970" d="M853.3054,-258.9882C771.1282,-254.5714 628.4123,-242.5273 510.5,-210 465.3578,-197.5471 416.5427,-174.7828 384.2216,-158.2786"/>
<polygon fill="#191970" stroke="#191970" points="385.6422,-155.073 375.1516,-153.59 382.4277,-161.2913 385.6422,-155.073"/>
</g>
<!-- Node11 -->
<g id="node12" class="node">
<title>Node11</title>
<g id="a_node12"><a xlink:href="$soft_8h.html" xlink:title="Functions and data structures for secondary structure soft constraints.">
<polygon fill="none" stroke="#000000" points="151,-123.5 151,-153.5 270,-153.5 270,-123.5 151,-123.5"/>
<text text-anchor="start" x="159" y="-141.5" font-family="Helvetica,sans-Serif" font-size="10.00" fill="#000000">ViennaRNA/constraints</text>
<text text-anchor="middle" x="210.5" y="-130.5" font-family="Helvetica,sans-Serif" font-size="10.00" fill="#000000">/soft.h</text>
</a>
</g>
</g>
<!-- Node1&#45;&gt;Node11 -->
<g id="edge37" class="edge">
<title>Node1&#45;&gt;Node11</title>
<path fill="none" stroke="#191970" d="M853.3819,-258.2808C760.1852,-252.7579 587.0369,-239.132 442.5,-210 376.3969,-196.6767 302.2965,-173.3902 255.9111,-157.0206"/>
<polygon fill="#191970" stroke="#191970" points="257.0411,-153.7077 246.4465,-153.6385 254.6856,-160.2995 257.0411,-153.7077"/>
</g>
<!-- Node12 -->
<g id="node13" class="node">
<title>Node12</title>
<g id="a_node13"><a xlink:href="$grammar_8h.html" xlink:title="Implementations for the RNA folding grammar.">
<polygon fill="none" stroke="#000000" points="642,-129 642,-148 759,-148 759,-129 642,-129"/>
<text text-anchor="middle" x="700.5" y="-136" font-family="Helvetica,sans-Serif" font-size="10.00" fill="#000000">ViennaRNA/grammar.h</text>
</a>
</g>
</g>
<!-- Node1&#45;&gt;Node12 -->
<g id="edge38" class="edge">
<title>Node1&#45;&gt;Node12</title>
<path fill="none" stroke="#191970" d="M893.5237,-246.4178C850.8551,-222.5622 768.3411,-176.4293 726.3719,-152.9647"/>
<polygon fill="#191970" stroke="#191970" points="728.0164,-149.8743 717.58,-148.0493 724.6004,-155.9843 728.0164,-149.8743"/>
</g>
<!-- Node13 -->
<g id="node14" class="node">
<title>Node13</title>
<g id="a_node14"><a xlink:href="$structured__domains_8h.html" xlink:title="This module provides interfaces that deal with additional structured domains in the folding grammar.">
<polygon fill="none" stroke="#000000" points="777,-123.5 777,-153.5 892,-153.5 892,-123.5 777,-123.5"/>
<text text-anchor="start" x="785" y="-141.5" font-family="Helvetica,sans-Serif" font-size="10.00" fill="#000000">ViennaRNA/structured</text>
<text text-anchor="middle" x="834.5" y="-130.5" font-family="Helvetica,sans-Serif" font-size="10.00" fill="#000000">_domains.h</text>
</a>
</g>
</g>
<!-- Node1&#45;&gt;Node13 -->
<g id="edge39" class="edge">
<title>Node1&#45;&gt;Node13</title>
<path fill="none" stroke="#191970" d="M909.9547,-246.4178C895.2543,-225.3928 868.455,-187.0635 851.0705,-162.1997"/>
<polygon fill="#191970" stroke="#191970" points="853.7301,-159.8955 845.1315,-153.7056 847.9933,-163.9066 853.7301,-159.8955"/>
</g>
<!-- Node14 -->
<g id="node15" class="node">
<title>Node14</title>
<g id="a_node15"><a xlink:href="$unstructured__domains_8h.html" xlink:title="Functions to modify unstructured domains, e.g. to incorporate ligands binding to unpaired stretches.">
<polygon fill="none" stroke="#000000" points="1105,-123.5 1105,-153.5 1230,-153.5 1230,-123.5 1105,-123.5"/>
<text text-anchor="start" x="1113" y="-141.5" font-family="Helvetica,sans-Serif" font-size="10.00" fill="#000000">ViennaRNA/unstructured</text>
<text text-anchor="middle" x="1167.5" y="-130.5" font-family="Helvetica,sans-Serif" font-size="10.00" fill="#000000">_domains.h</text>
</a>
</g>
</g>
<!-- Node1&#45;&gt;Node14 -->
<g id="edge40" class="edge">
<title>Node1&#45;&gt;Node14</title>
<path fill="none" stroke="#191970" d="M946.1728,-246.4178C988.2389,-224.1336 1071.8698,-182.4104 1123.496,-157.8839"/>
<polygon fill="#191970" stroke="#191970" points="1125.2,-160.9499 1132.746,-153.513 1122.2093,-154.6209 1125.2,-160.9499"/>
</g>
<!-- Node1&#45;&gt;Node15 -->
<g id="edge41" class="edge">
<title>Node1&#45;&gt;Node15</title>
<path fill="none" stroke="#191970" d="M987.5706,-254.4931C1038.2624,-247.6868 1108.6242,-234.6123 1166.5,-210 1206.7754,-192.8725 1217.6379,-185.9955 1247.5,-154 1265.5301,-134.6818 1280.0293,-107.6288 1290.592,-89.8434"/>
<polygon fill="#191970" stroke="#191970" points="1293.764,-91.3688 1296.0525,-81.0241 1287.8124,-87.6838 1293.764,-91.3688"/>
</g>
<!-- Node3 -->
<g id="node4" class="node">
<title>Node3</title>
<g id="a_node4"><a xlink:title=" ">
<polygon fill="none" stroke="#bfbfbf" points="1079.5,-.5 1079.5,-19.5 1127.5,-19.5 1127.5,-.5 1079.5,-.5"/>
<text text-anchor="middle" x="1103.5" y="-7.5" font-family="Helvetica,sans-Serif" font-size="10.00" fill="#000000">limits.h</text>
</a>
</g>
</g>
<!-- Node2&#45;&gt;Node3 -->
<g id="edge3" class="edge">
<title>Node2&#45;&gt;Node3</title>
<path fill="none" stroke="#191970" d="M1103.5,-61.8906C1103.5,-53.3657 1103.5,-40.6392 1103.5,-29.9235"/>
<polygon fill="#191970" stroke="#191970" points="1107.0001,-29.7448 1103.5,-19.7449 1100.0001,-29.7449 1107.0001,-29.7448"/>
</g>
<!-- Node4&#45;&gt;Node5 -->
<g id="edge5" class="edge">
<title>Node4&#45;&gt;Node5</title>
<path fill="none" stroke="#191970" d="M594.573,-190.4052C598.6936,-173.8015 609.567,-139.8729 632.5,-123 667.3742,-97.3413 783.5223,-83.0179 857.2306,-76.3115"/>
<polygon fill="#191970" stroke="#191970" points="857.6849,-79.785 867.3366,-75.4154 857.0666,-72.8124 857.6849,-79.785"/>
</g>
<!-- Node4&#45;&gt;Node6 -->
<g id="edge6" class="edge">
<title>Node4&#45;&gt;Node6</title>
<path fill="none" stroke="#191970" d="M653.3906,-190.4581C728.4135,-179.2843 855.8997,-160.8261 938.4162,-149.1825"/>
<polygon fill="#191970" stroke="#191970" points="939.0855,-152.6229 948.4995,-147.7622 938.1091,-145.6913 939.0855,-152.6229"/>
</g>
<!-- Node7 -->
<g id="node8" class="node">
<title>Node7</title>
<g id="a_node8"><a xlink:href="$sequence_8h.html" xlink:title="Functions and data structures related to sequence representations ,.">
<polygon fill="none" stroke="#000000" points="463.5,-129 463.5,-148 585.5,-148 585.5,-129 463.5,-129"/>
<text text-anchor="middle" x="524.5" y="-136" font-family="Helvetica,sans-Serif" font-size="10.00" fill="#000000">ViennaRNA/sequence.h</text>
</a>
</g>
</g>
<!-- Node4&#45;&gt;Node7 -->
<g id="edge11" class="edge">
<title>Node4&#45;&gt;Node7</title>
<path fill="none" stroke="#191970" d="M576.8125,-190.3906C564.7893,-181.1478 548.7507,-166.966 537.4511,-155.7628"/>
<polygon fill="#191970" stroke="#191970" points="539.652,-153.0037 530.186,-148.2449 534.6183,-157.8681 539.652,-153.0037"/>
</g>
<!-- Node4&#45;&gt;Node8 -->
<g id="edge13" class="edge">
<title>Node4&#45;&gt;Node8</title>
<path fill="none" stroke="#191970" d="M519.2059,-195.3059C428.0199,-188.6368 268.0469,-174.8633 132.5,-154 125.182,-152.8736 117.4988,-151.5038 110.0482,-150.0498"/>
<polygon fill="#191970" stroke="#191970" points="110.5849,-146.5875 100.0887,-148.0299 109.1935,-153.4478 110.5849,-146.5875"/>
</g>
<!-- Node4&#45;&gt;Node9 -->
<g id="edge16" class="edge">
<title>Node4&#45;&gt;Node9</title>
<path fill="none" stroke="#191970" d="M549.4383,-190.4581C511.2328,-181.3183 455.0325,-167.3048 411.576,-156.1336"/>
<polygon fill="#191970" stroke="#191970" points="412.2246,-152.6864 401.6674,-153.5784 410.4766,-159.4647 412.2246,-152.6864"/>
</g>
<!-- Node4&#45;&gt;Node11 -->
<g id="edge20" class="edge">
<title>Node4&#45;&gt;Node11</title>
<path fill="none" stroke="#191970" d="M519.4806,-191.8525C456.1843,-183.9502 362.1571,-170.9556 277.0505,-155.3853"/>
<polygon fill="#191970" stroke="#191970" points="277.4556,-151.9009 266.9858,-153.5239 276.1825,-158.7842 277.4556,-151.9009"/>
</g>
<!-- Node4&#45;&gt;Node12 -->
<g id="edge24" class="edge">
<title>Node4&#45;&gt;Node12</title>
<path fill="none" stroke="#191970" d="M604.3125,-190.3906C620.0933,-180.2811 647.9798,-164.2628 669.7779,-152.6962"/>
<polygon fill="#191970" stroke="#191970" points="671.449,-155.7722 678.6942,-148.0419 668.2097,-149.5667 671.449,-155.7722"/>
</g>
<!-- Node4&#45;&gt;Node13 -->
<g id="edge26" class="edge">
<title>Node4&#45;&gt;Node13</title>
<path fill="none" stroke="#191970" d="M630.047,-190.4581C666.4575,-181.205 722.5247,-166.9565 766.7427,-155.7193"/>
<polygon fill="#191970" stroke="#191970" points="767.7286,-159.0801 776.5584,-153.2248 766.0044,-152.2958 767.7286,-159.0801"/>
</g>
<!-- Node4&#45;&gt;Node14 -->
<g id="edge27" class="edge">
<title>Node4&#45;&gt;Node14</title>
<path fill="none" stroke="#191970" d="M665.8439,-195.6977C762.6142,-189.6399 937.8356,-176.7148 1086.5,-154 1089.1919,-153.5887 1091.9341,-153.1386 1094.705,-152.6589"/>
<polygon fill="#191970" stroke="#191970" points="1095.6161,-156.0504 1104.8239,-150.8095 1094.3575,-149.1645 1095.6161,-156.0504"/>
</g>
<!-- Node6&#45;&gt;Node1 -->
<g id="edge8" class="edge">
<title>Node6&#45;&gt;Node1</title>
<path fill="none" stroke="#191970" d="M1013.795,-148.0493C1001.8156,-167.4124 967.3562,-211.7594 943.6744,-238.9181"/>
<polygon fill="#191970" stroke="#191970" points="941.0358,-236.6183 937.0084,-246.4178 946.2678,-241.2687 941.0358,-236.6183"/>
</g>
<!-- Node6&#45;&gt;Node2 -->
<g id="edge7" class="edge">
<title>Node6&#45;&gt;Node2</title>
<path fill="none" stroke="#191970" d="M1029.8217,-128.9005C1043.7435,-118.0544 1066.6176,-100.2339 1083.19,-87.3229"/>
<polygon fill="#191970" stroke="#191970" points="1085.4636,-89.9885 1091.2012,-81.0817 1081.1615,-84.4664 1085.4636,-89.9885"/>
</g>
<!-- Node6&#45;&gt;Node4 -->
<g id="edge9" class="edge">
<title>Node6&#45;&gt;Node4</title>
<path fill="none" stroke="#191970" d="M956.7988,-148.0137C882.4074,-159.0943 756.2294,-177.3659 673.5949,-189.0336"/>
<polygon fill="#191970" stroke="#191970" points="672.9028,-185.5965 663.4892,-190.4581 673.8799,-192.528 672.9028,-185.5965"/>
</g>
<!-- Node6&#45;&gt;Node5 -->
<g id="edge10" class="edge">
<title>Node6&#45;&gt;Node5</title>
<path fill="none" stroke="#191970" d="M1003.6023,-128.9005C987.6836,-117.9052 961.3879,-99.7422 942.6401,-86.7927"/>
<polygon fill="#191970" stroke="#191970" points="944.5892,-83.8852 934.372,-81.0817 940.6108,-89.6448 944.5892,-83.8852"/>
</g>
<!-- Node7&#45;&gt;Node4 -->
<g id="edge12" class="edge">
<title>Node7&#45;&gt;Node4</title>
<path fill="none" stroke="#191970" d="M540.0997,-148.0419C552.2911,-157.4048 568.6465,-171.8825 579.9942,-183.1796"/>
<polygon fill="#191970" stroke="#191970" points="577.4801,-185.6147 586.9375,-190.3906 582.5226,-180.7594 577.4801,-185.6147"/>
</g>
<!-- Node8&#45;&gt;Node1 -->
<g id="edge14" class="edge">
<title>Node8&#45;&gt;Node1</title>
<path fill="none" stroke="#191970" d="M105.6181,-148.1015C164.3085,-163.5508 278.1873,-193.8276 376.5,-210 541.5489,-237.1505 736.8417,-251.1529 842.802,-257.3593"/>
<polygon fill="#191970" stroke="#191970" points="842.9004,-260.8707 853.0857,-257.9536 843.3043,-253.8824 842.9004,-260.8707"/>
</g>
<!-- Node8&#45;&gt;Node4 -->
<g id="edge15" class="edge">
<title>Node8&#45;&gt;Node4</title>
<path fill="none" stroke="#191970" d="M117.5186,-148.0299C128.4386,-150.2083 139.8556,-152.3616 150.5,-154 275.0247,-173.1668 420.1645,-186.3499 509.2455,-193.5381"/>
<polygon fill="#191970" stroke="#191970" points="509.0432,-197.033 519.2907,-194.3425 509.602,-190.0553 509.0432,-197.033"/>
</g>
<!-- Node9&#45;&gt;Node4 -->
<g id="edge17" class="edge">
<title>Node9&#45;&gt;Node4</title>
<path fill="none" stroke="#191970" d="M407.2493,-152.0653C451.3401,-162.7678 510.204,-177.5613 549.6886,-187.8728"/>
<polygon fill="#191970" stroke="#191970" points="548.9759,-191.3042 559.5369,-190.4581 550.7533,-184.5336 548.9759,-191.3042"/>
</g>
<!-- Node10 -->
<g id="node11" class="node">
<title>Node10</title>
<g id="a_node11"><a xlink:href="$constraints_2basic_8h.html" xlink:title="Functions and data structures for constraining secondary structure predictions and evaluation.">
<polygon fill="none" stroke="#000000" points="288,-56.5 288,-86.5 407,-86.5 407,-56.5 288,-56.5"/>
<text text-anchor="start" x="296" y="-74.5" font-family="Helvetica,sans-Serif" font-size="10.00" fill="#000000">ViennaRNA/constraints</text>
<text text-anchor="middle" x="347.5" y="-63.5" font-family="Helvetica,sans-Serif" font-size="10.00" fill="#000000">/basic.h</text>
</a>
</g>
</g>
<!-- Node9&#45;&gt;Node10 -->
<g id="edge18" class="edge">
<title>Node9&#45;&gt;Node10</title>
<path fill="none" stroke="#191970" d="M347.5,-123.2967C347.5,-115.5013 347.5,-105.7991 347.5,-96.9064"/>
<polygon fill="#191970" stroke="#191970" points="351.0001,-96.6431 347.5,-86.6432 344.0001,-96.6432 351.0001,-96.6431"/>
</g>
<!-- Node10&#45;&gt;Node4 -->
<g id="edge19" class="edge">
<title>Node10&#45;&gt;Node4</title>
<path fill="none" stroke="#191970" d="M367.8277,-86.7003C381.391,-96.8901 399.5879,-110.6531 415.5,-123 432.9935,-136.5739 435.0333,-143.4491 454.5,-154 481.8659,-168.8322 514.8695,-180.0452 541.7387,-187.6858"/>
<polygon fill="#191970" stroke="#191970" points="541.1409,-191.1516 551.7117,-190.4393 543.0039,-184.404 541.1409,-191.1516"/>
</g>
<!-- Node11&#45;&gt;Node1 -->
<g id="edge21" class="edge">
<title>Node11&#45;&gt;Node1</title>
<path fill="none" stroke="#191970" d="M259.583,-153.6385C309.7146,-170.0271 389.695,-195.729 460.5,-210 593.8161,-236.8704 751.4737,-250.5488 843.3718,-256.8446"/>
<polygon fill="#191970" stroke="#191970" points="843.2122,-260.3416 853.4248,-257.5218 843.6827,-253.3575 843.2122,-260.3416"/>
</g>
<!-- Node11&#45;&gt;Node4 -->
<g id="edge22" class="edge">
<title>Node11&#45;&gt;Node4</title>
<path fill="none" stroke="#191970" d="M270.2241,-150.5337C276.0739,-151.7702 281.906,-152.9544 287.5,-154 363.8114,-168.2641 451.245,-180.7618 512.9375,-189.1163"/>
<polygon fill="#191970" stroke="#191970" points="512.617,-192.6046 522.9951,-190.4726 513.5526,-185.6674 512.617,-192.6046"/>
</g>
<!-- Node11&#45;&gt;Node10 -->
<g id="edge23" class="edge">
<title>Node11&#45;&gt;Node10</title>
<path fill="none" stroke="#191970" d="M241.2455,-123.4639C260.7624,-113.9191 286.2257,-101.4663 307.3325,-91.144"/>
<polygon fill="#191970" stroke="#191970" points="308.9375,-94.2552 316.3831,-86.7177 305.8622,-87.9669 308.9375,-94.2552"/>
</g>
<!-- Node12&#45;&gt;Node4 -->
<g id="edge25" class="edge">
<title>Node12&#45;&gt;Node4</title>
<path fill="none" stroke="#191970" d="M688.7928,-148.0419C673.0661,-158.1251 645.193,-174.1401 623.3678,-185.7264"/>
<polygon fill="#191970" stroke="#191970" points="621.681,-182.6587 614.4375,-190.3906 624.9217,-188.8634 621.681,-182.6587"/>
</g>
<!-- Node14&#45;&gt;Node1 -->
<g id="edge28" class="edge">
<title>Node14&#45;&gt;Node1</title>
<path fill="none" stroke="#191970" d="M1141.9579,-153.513C1099.978,-175.7568 1016.3571,-217.4777 964.6646,-242.0398"/>
<polygon fill="#191970" stroke="#191970" points="962.9468,-238.9803 955.4013,-246.4178 965.938,-245.3091 962.9468,-238.9803"/>
</g>
<!-- Node14&#45;&gt;Node4 -->
<g id="edge29" class="edge">
<title>Node14&#45;&gt;Node4</title>
<path fill="none" stroke="#191970" d="M1107.5532,-153.5206C1106.5295,-153.6855 1105.5112,-153.8455 1104.5,-154 954.6957,-176.8889 777.9257,-189.8375 676.0946,-195.8358"/>
<polygon fill="#191970" stroke="#191970" points="675.6525,-192.3555 665.8722,-196.4293 676.0583,-199.3437 675.6525,-192.3555"/>
</g>
<!-- Node14&#45;&gt;Node15 -->
<g id="edge30" class="edge">
<title>Node14&#45;&gt;Node15</title>
<path fill="none" stroke="#191970" d="M1198.4699,-123.4639C1221.8331,-112.1209 1253.6559,-96.6707 1276.5194,-85.5703"/>
<polygon fill="#191970" stroke="#191970" points="1278.2516,-88.62 1285.7188,-81.1039 1275.1943,-82.323 1278.2516,-88.62"/>
</g>
<!-- Node15&#45;&gt;Node1 -->
<g id="edge32" class="edge">
<title>Node15&#45;&gt;Node1</title>
<path fill="none" stroke="#191970" d="M1306.9235,-81.0241C1303.2783,-97.3439 1286.869,-131.1043 1265.5,-154 1235.6379,-185.9955 1224.7754,-192.8725 1184.5,-210 1124.8571,-235.3638 1051.9543,-248.4744 997.813,-255.0991"/>
<polygon fill="#191970" stroke="#191970" points="997.1105,-251.6575 987.5873,-256.3007 997.9275,-258.6097 997.1105,-251.6575"/>
</g>
<!-- Node16 -->
<g id="node17" class="node">
<title>Node16</title>
<g id="a_node17"><a xlink:title=" ">
<polygon fill="none" stroke="#bfbfbf" points="1282.5,-.5 1282.5,-19.5 1328.5,-19.5 1328.5,-.5 1282.5,-.5"/>
<text text-anchor="middle" x="1305.5" y="-7.5" font-family="Helvetica,sans-Serif" font-size="10.00" fill="#000000">stdio.h</text>
</a>
</g>
</g>
<!-- Node15&#45;&gt;Node16 -->
<g id="edge31" class="edge">
<title>Node15&#45;&gt;Node16</title>
<path fill="none" stroke="#191970" d="M1305.5,-61.8906C1305.5,-53.3657 1305.5,-40.6392 1305.5,-29.9235"/>
<polygon fill="#191970" stroke="#191970" points="1309.0001,-29.7448 1305.5,-19.7449 1302.0001,-29.7449 1309.0001,-29.7448"/>
</g>
</g>
</svg>
