<?xml version="1.0" encoding="UTF-8" standalone="no"?>
<!DOCTYPE svg PUBLIC "-//W3C//DTD SVG 1.1//EN"
 "http://www.w3.org/Graphics/SVG/1.1/DTD/svg11.dtd">
<!-- Generated by graphviz version 2.40.1 (0)
 -->
<!-- Title: ViennaRNA/PS_dot.h Pages: 1 -->
<svg width="1461pt" height="475pt"
 viewBox="0.00 0.00 1461.00 475.00" xmlns="http://www.w3.org/2000/svg" xmlns:xlink="http://www.w3.org/1999/xlink">
<g id="graph0" class="graph" transform="scale(1 1) rotate(0) translate(4 471)">
<title>ViennaRNA/PS_dot.h</title>
<!-- Node0 -->
<g id="node1" class="node">
<title>Node0</title>
<g id="a_node1"><a xlink:title="Use ViennaRNA/plotting/probabilities.h instead.">
<polygon fill="#bfbfbf" stroke="#000000" points="883,-447.5 883,-466.5 995,-466.5 995,-447.5 883,-447.5"/>
<text text-anchor="middle" x="939" y="-454.5" font-family="Helvetica,sans-Serif" font-size="10.00" fill="#000000">ViennaRNA/PS_dot.h</text>
</a>
</g>
</g>
<!-- Node1 -->
<g id="node2" class="node">
<title>Node1</title>
<g id="a_node2"><a xlink:href="$probabilities_8h.html" xlink:title="Various functions for plotting RNA secondary structures, dot&#45;plots and other visualizations.">
<polygon fill="none" stroke="#000000" points="616.5,-313.5 616.5,-343.5 719.5,-343.5 719.5,-313.5 616.5,-313.5"/>
<text text-anchor="start" x="624.5" y="-331.5" font-family="Helvetica,sans-Serif" font-size="10.00" fill="#000000">ViennaRNA/plotting</text>
<text text-anchor="middle" x="668" y="-320.5" font-family="Helvetica,sans-Serif" font-size="10.00" fill="#000000">/probabilities.h</text>
</a>
</g>
</g>
<!-- Node0&#45;&gt;Node1 -->
<g id="edge1" class="edge">
<title>Node0&#45;&gt;Node1</title>
<path fill="none" stroke="#191970" d="M918.631,-447.3416C874.3219,-426.3316 768.4345,-376.123 709.4548,-348.1566"/>
<polygon fill="#191970" stroke="#191970" points="710.5947,-344.8236 700.0594,-343.7016 707.5955,-351.1486 710.5947,-344.8236"/>
</g>
<!-- Node18 -->
<g id="node19" class="node">
<title>Node18</title>
<g id="a_node19"><a xlink:href="$layouts_8h.html" xlink:title="Secondary structure plot layout algorithms.">
<polygon fill="none" stroke="#000000" points="887.5,-313.5 887.5,-343.5 990.5,-343.5 990.5,-313.5 887.5,-313.5"/>
<text text-anchor="start" x="895.5" y="-331.5" font-family="Helvetica,sans-Serif" font-size="10.00" fill="#000000">ViennaRNA/plotting</text>
<text text-anchor="middle" x="939" y="-320.5" font-family="Helvetica,sans-Serif" font-size="10.00" fill="#000000">/layouts.h</text>
</a>
</g>
</g>
<!-- Node0&#45;&gt;Node18 -->
<g id="edge44" class="edge">
<title>Node0&#45;&gt;Node18</title>
<path fill="none" stroke="#191970" d="M939,-447.3416C939,-427.6745 939,-382.4221 939,-353.7784"/>
<polygon fill="#191970" stroke="#191970" points="942.5001,-353.7016 939,-343.7016 935.5001,-353.7016 942.5001,-353.7016"/>
</g>
<!-- Node22 -->
<g id="node23" class="node">
<title>Node22</title>
<g id="a_node23"><a xlink:href="$plotting_2structures_8h.html" xlink:title="Various functions for plotting RNA secondary structures.">
<polygon fill="none" stroke="#000000" points="1002.5,-380.5 1002.5,-410.5 1105.5,-410.5 1105.5,-380.5 1002.5,-380.5"/>
<text text-anchor="start" x="1010.5" y="-398.5" font-family="Helvetica,sans-Serif" font-size="10.00" fill="#000000">ViennaRNA/plotting</text>
<text text-anchor="middle" x="1054" y="-387.5" font-family="Helvetica,sans-Serif" font-size="10.00" fill="#000000">/structures.h</text>
</a>
</g>
</g>
<!-- Node0&#45;&gt;Node22 -->
<g id="edge49" class="edge">
<title>Node0&#45;&gt;Node22</title>
<path fill="none" stroke="#191970" d="M956.9688,-447.3906C972.9649,-438.8361 996.8723,-426.0509 1016.953,-415.3121"/>
<polygon fill="#191970" stroke="#191970" points="1018.7002,-418.3469 1025.8678,-410.5446 1015.399,-412.1741 1018.7002,-418.3469"/>
</g>
<!-- Node2 -->
<g id="node3" class="node">
<title>Node2</title>
<g id="a_node3"><a xlink:href="$datastructures_2basic_8h.html" xlink:title="Various data structures and pre&#45;processor macros.">
<polygon fill="none" stroke="#000000" points="601,-246.5 601,-276.5 735,-276.5 735,-246.5 601,-246.5"/>
<text text-anchor="start" x="609" y="-264.5" font-family="Helvetica,sans-Serif" font-size="10.00" fill="#000000">ViennaRNA/datastructures</text>
<text text-anchor="middle" x="668" y="-253.5" font-family="Helvetica,sans-Serif" font-size="10.00" fill="#000000">/basic.h</text>
</a>
</g>
</g>
<!-- Node1&#45;&gt;Node2 -->
<g id="edge2" class="edge">
<title>Node1&#45;&gt;Node2</title>
<path fill="none" stroke="#191970" d="M668,-313.2967C668,-305.5013 668,-295.7991 668,-286.9064"/>
<polygon fill="#191970" stroke="#191970" points="671.5001,-286.6431 668,-276.6432 664.5001,-286.6432 671.5001,-286.6431"/>
</g>
<!-- Node16 -->
<g id="node17" class="node">
<title>Node16</title>
<g id="a_node17"><a xlink:href="$utils_2structures_8h.html" xlink:title="Various utility&#45; and helper&#45;functions for secondary structure parsing, converting,...">
<polygon fill="none" stroke="#000000" points="0,-62 0,-81 144,-81 144,-62 0,-62"/>
<text text-anchor="middle" x="72" y="-69" font-family="Helvetica,sans-Serif" font-size="10.00" fill="#000000">ViennaRNA/utils/structures.h</text>
</a>
</g>
</g>
<!-- Node1&#45;&gt;Node16 -->
<g id="edge43" class="edge">
<title>Node1&#45;&gt;Node16</title>
<path fill="none" stroke="#191970" d="M616.1498,-321.0003C524.6677,-306.6906 329.6574,-271.3275 175,-210 128.3674,-191.5084 103.4807,-196.6065 77,-154 65.2631,-135.1157 65.9027,-108.8666 68.2362,-91.087"/>
<polygon fill="#191970" stroke="#191970" points="71.7228,-91.4499 69.8567,-81.0207 64.8117,-90.3372 71.7228,-91.4499"/>
</g>
<!-- Node3 -->
<g id="node4" class="node">
<title>Node3</title>
<g id="a_node4"><a xlink:href="$constants_8h.html" xlink:title="Energy parameter constants.">
<polygon fill="none" stroke="#000000" points="1295,-62 1295,-81 1453,-81 1453,-62 1295,-62"/>
<text text-anchor="middle" x="1374" y="-69" font-family="Helvetica,sans-Serif" font-size="10.00" fill="#000000">ViennaRNA/params/constants.h</text>
</a>
</g>
</g>
<!-- Node2&#45;&gt;Node3 -->
<g id="edge3" class="edge">
<title>Node2&#45;&gt;Node3</title>
<path fill="none" stroke="#191970" d="M735.1075,-247.4757C738.4462,-246.94 741.7575,-246.4434 745,-246 961.7901,-216.3519 1027.7841,-277.2537 1236,-210 1281.1902,-195.4036 1293.9927,-188.1428 1327,-154 1345.0059,-135.3747 1358.617,-108.526 1366.4434,-90.5697"/>
<polygon fill="#191970" stroke="#191970" points="1369.7514,-91.7309 1370.3725,-81.1542 1363.2913,-89.035 1369.7514,-91.7309"/>
</g>
<!-- Node5 -->
<g id="node6" class="node">
<title>Node5</title>
<g id="a_node6"><a xlink:href="$fold__compound_8h.html" xlink:title="The Basic Fold Compound API.">
<polygon fill="none" stroke="#000000" points="646,-190.5 646,-209.5 792,-209.5 792,-190.5 646,-190.5"/>
<text text-anchor="middle" x="719" y="-197.5" font-family="Helvetica,sans-Serif" font-size="10.00" fill="#000000">ViennaRNA/fold_compound.h</text>
</a>
</g>
</g>
<!-- Node2&#45;&gt;Node5 -->
<g id="edge5" class="edge">
<title>Node2&#45;&gt;Node5</title>
<path fill="none" stroke="#191970" d="M680.6067,-246.2977C687.7598,-237.672 696.7497,-226.8312 704.2318,-217.8087"/>
<polygon fill="#191970" stroke="#191970" points="707.145,-219.7787 710.8343,-209.8469 701.7567,-215.3103 707.145,-219.7787"/>
</g>
<!-- Node6 -->
<g id="node7" class="node">
<title>Node6</title>
<g id="a_node7"><a xlink:href="$model_8h.html" xlink:title="The model details data structure and its corresponding modifiers.">
<polygon fill="none" stroke="#000000" points="1171,-62 1171,-81 1277,-81 1277,-62 1171,-62"/>
<text text-anchor="middle" x="1224" y="-69" font-family="Helvetica,sans-Serif" font-size="10.00" fill="#000000">ViennaRNA/model.h</text>
</a>
</g>
</g>
<!-- Node2&#45;&gt;Node6 -->
<g id="edge34" class="edge">
<title>Node2&#45;&gt;Node6</title>
<path fill="none" stroke="#191970" d="M735.16,-247.8079C738.4848,-247.1843 741.7788,-246.5783 745,-246 870.2077,-223.5234 1227.7518,-251.0434 1310,-154 1332.0982,-127.9267 1289.8671,-101.1503 1257.1268,-85.435"/>
<polygon fill="#191970" stroke="#191970" points="1258.3255,-82.1334 1247.7796,-81.1158 1255.3892,-88.4878 1258.3255,-82.1334"/>
</g>
<!-- Node7 -->
<g id="node8" class="node">
<title>Node7</title>
<g id="a_node8"><a xlink:href="$params_2basic_8h.html" xlink:title="Functions to deal with sets of energy parameters.">
<polygon fill="none" stroke="#000000" points="1163,-129 1163,-148 1301,-148 1301,-129 1163,-129"/>
<text text-anchor="middle" x="1232" y="-136" font-family="Helvetica,sans-Serif" font-size="10.00" fill="#000000">ViennaRNA/params/basic.h</text>
</a>
</g>
</g>
<!-- Node2&#45;&gt;Node7 -->
<g id="edge35" class="edge">
<title>Node2&#45;&gt;Node7</title>
<path fill="none" stroke="#191970" d="M732.2685,-246.4793C843.1385,-221.6459 1068.4042,-172.5515 1174.4517,-150.1439"/>
<polygon fill="#191970" stroke="#191970" points="1175.2715,-153.5481 1184.3344,-148.0604 1173.8274,-146.6986 1175.2715,-153.5481"/>
</g>
<!-- Node9 -->
<g id="node10" class="node">
<title>Node9</title>
<g id="a_node10"><a xlink:href="$dp__matrices_8h.html" xlink:title="Functions to deal with standard dynamic programming (DP) matrices.">
<polygon fill="none" stroke="#000000" points="1011.5,-129 1011.5,-148 1144.5,-148 1144.5,-129 1011.5,-129"/>
<text text-anchor="middle" x="1078" y="-136" font-family="Helvetica,sans-Serif" font-size="10.00" fill="#000000">ViennaRNA/dp_matrices.h</text>
</a>
</g>
</g>
<!-- Node2&#45;&gt;Node9 -->
<g id="edge36" class="edge">
<title>Node2&#45;&gt;Node9</title>
<path fill="none" stroke="#191970" d="M713.6598,-246.4178C792.7211,-221.8104 953.8772,-173.4997 1032.6951,-150.8154"/>
<polygon fill="#191970" stroke="#191970" points="1033.6953,-154.1697 1042.3435,-148.0493 1031.7661,-147.4408 1033.6953,-154.1697"/>
</g>
<!-- Node10 -->
<g id="node11" class="node">
<title>Node10</title>
<g id="a_node11"><a xlink:href="$hard_8h.html" xlink:title="Functions and data structures for handling of secondary structure hard constraints.">
<polygon fill="none" stroke="#000000" points="874.5,-123.5 874.5,-153.5 993.5,-153.5 993.5,-123.5 874.5,-123.5"/>
<text text-anchor="start" x="882.5" y="-141.5" font-family="Helvetica,sans-Serif" font-size="10.00" fill="#000000">ViennaRNA/constraints</text>
<text text-anchor="middle" x="934" y="-130.5" font-family="Helvetica,sans-Serif" font-size="10.00" fill="#000000">/hard.h</text>
</a>
</g>
</g>
<!-- Node2&#45;&gt;Node10 -->
<g id="edge37" class="edge">
<title>Node2&#45;&gt;Node10</title>
<path fill="none" stroke="#191970" d="M710.7862,-246.4654C737.1375,-236.8301 771.422,-223.6136 801,-210 835.0839,-194.3125 872.6286,-173.8173 899.1106,-158.7936"/>
<polygon fill="#191970" stroke="#191970" points="901.0422,-161.7211 907.9925,-153.7246 897.5725,-155.6416 901.0422,-161.7211"/>
</g>
<!-- Node12 -->
<g id="node13" class="node">
<title>Node12</title>
<g id="a_node13"><a xlink:href="$soft_8h.html" xlink:title="Functions and data structures for secondary structure soft constraints.">
<polygon fill="none" stroke="#000000" points="252.5,-123.5 252.5,-153.5 371.5,-153.5 371.5,-123.5 252.5,-123.5"/>
<text text-anchor="start" x="260.5" y="-141.5" font-family="Helvetica,sans-Serif" font-size="10.00" fill="#000000">ViennaRNA/constraints</text>
<text text-anchor="middle" x="312" y="-130.5" font-family="Helvetica,sans-Serif" font-size="10.00" fill="#000000">/soft.h</text>
</a>
</g>
</g>
<!-- Node2&#45;&gt;Node12 -->
<g id="edge38" class="edge">
<title>Node2&#45;&gt;Node12</title>
<path fill="none" stroke="#191970" d="M619.7332,-246.4178C551.7162,-223.8562 428.6191,-181.3686 360.4867,-156.9761"/>
<polygon fill="#191970" stroke="#191970" points="361.4408,-153.5999 350.8463,-153.513 359.0743,-160.1877 361.4408,-153.5999"/>
</g>
<!-- Node13 -->
<g id="node14" class="node">
<title>Node13</title>
<g id="a_node14"><a xlink:href="$grammar_8h.html" xlink:title="Implementations for the RNA folding grammar.">
<polygon fill="none" stroke="#000000" points="522.5,-129 522.5,-148 639.5,-148 639.5,-129 522.5,-129"/>
<text text-anchor="middle" x="581" y="-136" font-family="Helvetica,sans-Serif" font-size="10.00" fill="#000000">ViennaRNA/grammar.h</text>
</a>
</g>
</g>
<!-- Node2&#45;&gt;Node13 -->
<g id="edge39" class="edge">
<title>Node2&#45;&gt;Node13</title>
<path fill="none" stroke="#191970" d="M657.3321,-246.4178C641.2385,-223.6648 610.8107,-180.6461 593.632,-156.3591"/>
<polygon fill="#191970" stroke="#191970" points="596.3865,-154.1923 587.7544,-148.0493 590.6716,-158.2346 596.3865,-154.1923"/>
</g>
<!-- Node14 -->
<g id="node15" class="node">
<title>Node14</title>
<g id="a_node15"><a xlink:href="$structured__domains_8h.html" xlink:title="This module provides interfaces that deal with additional structured domains in the folding grammar.">
<polygon fill="none" stroke="#000000" points="389.5,-123.5 389.5,-153.5 504.5,-153.5 504.5,-123.5 389.5,-123.5"/>
<text text-anchor="start" x="397.5" y="-141.5" font-family="Helvetica,sans-Serif" font-size="10.00" fill="#000000">ViennaRNA/structured</text>
<text text-anchor="middle" x="447" y="-130.5" font-family="Helvetica,sans-Serif" font-size="10.00" fill="#000000">_domains.h</text>
</a>
</g>
</g>
<!-- Node2&#45;&gt;Node14 -->
<g id="edge40" class="edge">
<title>Node2&#45;&gt;Node14</title>
<path fill="none" stroke="#191970" d="M640.9011,-246.4178C601.1943,-224.3185 527.1377,-183.1015 482.9315,-158.4981"/>
<polygon fill="#191970" stroke="#191970" points="484.4145,-155.3179 473.9746,-153.513 481.0103,-161.4344 484.4145,-155.3179"/>
</g>
<!-- Node15 -->
<g id="node16" class="node">
<title>Node15</title>
<g id="a_node16"><a xlink:href="$unstructured__domains_8h.html" xlink:title="Functions to modify unstructured domains, e.g. to incorporate ligands binding to unpaired stretches.">
<polygon fill="none" stroke="#000000" points="109.5,-123.5 109.5,-153.5 234.5,-153.5 234.5,-123.5 109.5,-123.5"/>
<text text-anchor="start" x="117.5" y="-141.5" font-family="Helvetica,sans-Serif" font-size="10.00" fill="#000000">ViennaRNA/unstructured</text>
<text text-anchor="middle" x="172" y="-130.5" font-family="Helvetica,sans-Serif" font-size="10.00" fill="#000000">_domains.h</text>
</a>
</g>
</g>
<!-- Node2&#45;&gt;Node15 -->
<g id="edge41" class="edge">
<title>Node2&#45;&gt;Node15</title>
<path fill="none" stroke="#191970" d="M602.822,-246.4793C507.9614,-223.6397 333.0122,-180.2786 237.803,-156.0309"/>
<polygon fill="#191970" stroke="#191970" points="238.5564,-152.6111 228.0015,-153.5302 236.8258,-159.3938 238.5564,-152.6111"/>
</g>
<!-- Node2&#45;&gt;Node16 -->
<g id="edge42" class="edge">
<title>Node2&#45;&gt;Node16</title>
<path fill="none" stroke="#191970" d="M600.9429,-257.55C465.4382,-248.0031 165.9134,-219.4595 91,-154 72.8996,-138.1839 66.4817,-110.212 66.37,-91.2713"/>
<polygon fill="#191970" stroke="#191970" points="69.8764,-91.2837 67.0291,-81.0786 62.891,-90.8319 69.8764,-91.2837"/>
</g>
<!-- Node4 -->
<g id="node5" class="node">
<title>Node4</title>
<g id="a_node5"><a xlink:title=" ">
<polygon fill="none" stroke="#bfbfbf" points="1350,-.5 1350,-19.5 1398,-19.5 1398,-.5 1350,-.5"/>
<text text-anchor="middle" x="1374" y="-7.5" font-family="Helvetica,sans-Serif" font-size="10.00" fill="#000000">limits.h</text>
</a>
</g>
</g>
<!-- Node3&#45;&gt;Node4 -->
<g id="edge4" class="edge">
<title>Node3&#45;&gt;Node4</title>
<path fill="none" stroke="#191970" d="M1374,-61.8906C1374,-53.3657 1374,-40.6392 1374,-29.9235"/>
<polygon fill="#191970" stroke="#191970" points="1377.5001,-29.7448 1374,-19.7449 1370.5001,-29.7449 1377.5001,-29.7448"/>
</g>
<!-- Node5&#45;&gt;Node6 -->
<g id="edge6" class="edge">
<title>Node5&#45;&gt;Node6</title>
<path fill="none" stroke="#191970" d="M738.0356,-190.4485C756.3021,-181.241 784.6314,-166.8514 809,-154 834.5077,-140.5479 838.6309,-132.0849 866,-123 965.5448,-89.9571 1087.5993,-78.1088 1160.4098,-73.8643"/>
<polygon fill="#191970" stroke="#191970" points="1160.9946,-77.3374 1170.7865,-73.2916 1160.6088,-70.3481 1160.9946,-77.3374"/>
</g>
<!-- Node5&#45;&gt;Node7 -->
<g id="edge7" class="edge">
<title>Node5&#45;&gt;Node7</title>
<path fill="none" stroke="#191970" d="M792.0429,-193.7619C877.0971,-186.4058 1021.4925,-172.7622 1145,-154 1152.678,-152.8336 1160.7478,-151.4315 1168.7618,-149.9535"/>
<polygon fill="#191970" stroke="#191970" points="1169.6705,-153.3439 1178.8495,-148.0528 1168.3744,-146.465 1169.6705,-153.3439"/>
</g>
<!-- Node8 -->
<g id="node9" class="node">
<title>Node8</title>
<g id="a_node9"><a xlink:href="$sequence_8h.html" xlink:title="Functions and data structures related to sequence representations ,.">
<polygon fill="none" stroke="#000000" points="658,-129 658,-148 780,-148 780,-129 658,-129"/>
<text text-anchor="middle" x="719" y="-136" font-family="Helvetica,sans-Serif" font-size="10.00" fill="#000000">ViennaRNA/sequence.h</text>
</a>
</g>
</g>
<!-- Node5&#45;&gt;Node8 -->
<g id="edge12" class="edge">
<title>Node5&#45;&gt;Node8</title>
<path fill="none" stroke="#191970" d="M713.9375,-190.3906C712.2741,-181.8657 711.8404,-169.1392 712.6365,-158.4235"/>
<polygon fill="#191970" stroke="#191970" points="716.1414,-158.6023 713.9112,-148.2449 709.1956,-157.7324 716.1414,-158.6023"/>
</g>
<!-- Node5&#45;&gt;Node9 -->
<g id="edge14" class="edge">
<title>Node5&#45;&gt;Node9</title>
<path fill="none" stroke="#191970" d="M775.8046,-190.4629C831.513,-181.6623 918.5985,-167.8912 994,-154 1000.589,-152.7861 1007.49,-151.4495 1014.3935,-150.0856"/>
<polygon fill="#191970" stroke="#191970" points="1015.3495,-153.4641 1024.4737,-148.0789 1013.9827,-146.5988 1015.3495,-153.4641"/>
</g>
<!-- Node5&#45;&gt;Node10 -->
<g id="edge17" class="edge">
<title>Node5&#45;&gt;Node10</title>
<path fill="none" stroke="#191970" d="M747.5313,-190.3906C777.6123,-181.2774 825.8843,-167.3627 865.8157,-156.2358"/>
<polygon fill="#191970" stroke="#191970" points="866.809,-159.5925 875.508,-153.5446 864.9361,-152.8477 866.809,-159.5925"/>
</g>
<!-- Node5&#45;&gt;Node12 -->
<g id="edge21" class="edge">
<title>Node5&#45;&gt;Node12</title>
<path fill="none" stroke="#191970" d="M645.7057,-192.7503C577.3325,-185.1339 472.5494,-172.0075 378.4334,-155.3212"/>
<polygon fill="#191970" stroke="#191970" points="378.9444,-151.8571 368.4835,-153.5364 377.7084,-158.7471 378.9444,-151.8571"/>
</g>
<!-- Node5&#45;&gt;Node13 -->
<g id="edge25" class="edge">
<title>Node5&#45;&gt;Node13</title>
<path fill="none" stroke="#191970" d="M692.375,-190.3906C667.4974,-180.1908 630.8837,-163.9763 606.4103,-152.3875"/>
<polygon fill="#191970" stroke="#191970" points="607.8914,-149.2161 597.3618,-148.0419 604.8609,-155.5262 607.8914,-149.2161"/>
</g>
<!-- Node5&#45;&gt;Node14 -->
<g id="edge27" class="edge">
<title>Node5&#45;&gt;Node14</title>
<path fill="none" stroke="#191970" d="M675.5654,-190.4461C635.9718,-181.7045 575.5988,-168.2942 514.4088,-154.3113"/>
<polygon fill="#191970" stroke="#191970" points="515.1131,-150.882 504.5843,-152.0628 513.5514,-157.7056 515.1131,-150.882"/>
</g>
<!-- Node5&#45;&gt;Node15 -->
<g id="edge28" class="edge">
<title>Node5&#45;&gt;Node15</title>
<path fill="none" stroke="#191970" d="M645.6289,-196.0185C552.3216,-190.1097 386.4277,-177.3068 240.9815,-155.0633"/>
<polygon fill="#191970" stroke="#191970" points="241.4073,-151.5876 230.9892,-153.515 240.3354,-158.505 241.4073,-151.5876"/>
</g>
<!-- Node7&#45;&gt;Node2 -->
<g id="edge9" class="edge">
<title>Node7&#45;&gt;Node2</title>
<path fill="none" stroke="#191970" d="M1191.9765,-148.0634C1098.886,-169.1456 866.9296,-219.7953 745.2221,-245.6842"/>
<polygon fill="#191970" stroke="#191970" points="744.2792,-242.3063 735.2246,-247.8077 745.7336,-249.1536 744.2792,-242.3063"/>
</g>
<!-- Node7&#45;&gt;Node3 -->
<g id="edge8" class="edge">
<title>Node7&#45;&gt;Node3</title>
<path fill="none" stroke="#191970" d="M1252.3451,-128.9005C1276.4923,-117.5072 1316.9504,-98.4178 1344.5245,-85.4075"/>
<polygon fill="#191970" stroke="#191970" points="1346.1423,-88.5142 1353.6926,-81.0817 1343.1552,-82.1835 1346.1423,-88.5142"/>
</g>
<!-- Node7&#45;&gt;Node5 -->
<g id="edge10" class="edge">
<title>Node7&#45;&gt;Node5</title>
<path fill="none" stroke="#191970" d="M1196.3002,-148.0528C1185.632,-150.2054 1173.9199,-152.3411 1163,-154 1038.1115,-172.972 891.8653,-186.7102 802.2743,-194.0063"/>
<polygon fill="#191970" stroke="#191970" points="801.8591,-190.5283 792.1729,-194.8211 802.4219,-197.5057 801.8591,-190.5283"/>
</g>
<!-- Node7&#45;&gt;Node6 -->
<g id="edge11" class="edge">
<title>Node7&#45;&gt;Node6</title>
<path fill="none" stroke="#191970" d="M1230.8538,-128.9005C1229.6894,-119.149 1227.8519,-103.7597 1226.3725,-91.3695"/>
<polygon fill="#191970" stroke="#191970" points="1229.8051,-90.5961 1225.1441,-81.0817 1222.8545,-91.4261 1229.8051,-90.5961"/>
</g>
<!-- Node8&#45;&gt;Node5 -->
<g id="edge13" class="edge">
<title>Node8&#45;&gt;Node5</title>
<path fill="none" stroke="#191970" d="M724.0888,-148.2449C725.7392,-156.814 726.1598,-169.5519 725.3508,-180.2462"/>
<polygon fill="#191970" stroke="#191970" points="721.8503,-180.0293 724.0625,-190.3906 728.7945,-180.9113 721.8503,-180.0293"/>
</g>
<!-- Node9&#45;&gt;Node2 -->
<g id="edge15" class="edge">
<title>Node9&#45;&gt;Node2</title>
<path fill="none" stroke="#191970" d="M1049.9948,-148.0493C985.0612,-168.5759 823.4189,-217.1788 732.5332,-243.6183"/>
<polygon fill="#191970" stroke="#191970" points="731.5163,-240.269 722.8883,-246.4178 733.4676,-246.9915 731.5163,-240.269"/>
</g>
<!-- Node9&#45;&gt;Node5 -->
<g id="edge16" class="edge">
<title>Node9&#45;&gt;Node5</title>
<path fill="none" stroke="#191970" d="M1042.021,-148.0789C1032.3049,-150.1148 1021.807,-152.1933 1012,-154 940.7221,-167.1316 859.003,-180.1557 799.9407,-188.9753"/>
<polygon fill="#191970" stroke="#191970" points="799.3014,-185.5318 789.9241,-190.4629 800.3299,-192.4558 799.3014,-185.5318"/>
</g>
<!-- Node10&#45;&gt;Node5 -->
<g id="edge18" class="edge">
<title>Node10&#45;&gt;Node5</title>
<path fill="none" stroke="#191970" d="M887.3022,-153.5446C851.8339,-164.048 803.3072,-177.8931 767.4213,-187.7289"/>
<polygon fill="#191970" stroke="#191970" points="766.3838,-184.3839 757.6563,-190.3906 768.2247,-191.1375 766.3838,-184.3839"/>
</g>
<!-- Node11 -->
<g id="node12" class="node">
<title>Node11</title>
<g id="a_node12"><a xlink:href="$constraints_2basic_8h.html" xlink:title="Functions and data structures for constraining secondary structure predictions and evaluation.">
<polygon fill="none" stroke="#000000" points="748.5,-56.5 748.5,-86.5 867.5,-86.5 867.5,-56.5 748.5,-56.5"/>
<text text-anchor="start" x="756.5" y="-74.5" font-family="Helvetica,sans-Serif" font-size="10.00" fill="#000000">ViennaRNA/constraints</text>
<text text-anchor="middle" x="808" y="-63.5" font-family="Helvetica,sans-Serif" font-size="10.00" fill="#000000">/basic.h</text>
</a>
</g>
</g>
<!-- Node10&#45;&gt;Node11 -->
<g id="edge19" class="edge">
<title>Node10&#45;&gt;Node11</title>
<path fill="none" stroke="#191970" d="M905.7231,-123.4639C887.9343,-114.0047 864.7741,-101.6894 845.4657,-91.4222"/>
<polygon fill="#191970" stroke="#191970" points="847.091,-88.3225 836.6184,-86.7177 843.8045,-94.503 847.091,-88.3225"/>
</g>
<!-- Node11&#45;&gt;Node5 -->
<g id="edge20" class="edge">
<title>Node11&#45;&gt;Node5</title>
<path fill="none" stroke="#191970" d="M807.8237,-86.5439C806.9228,-104.1874 803.1866,-133.6104 789,-154 779.6201,-167.4812 764.8926,-178.0203 751.3614,-185.5894"/>
<polygon fill="#191970" stroke="#191970" points="749.4991,-182.6138 742.2652,-190.3548 752.7475,-188.8145 749.4991,-182.6138"/>
</g>
<!-- Node12&#45;&gt;Node2 -->
<g id="edge22" class="edge">
<title>Node12&#45;&gt;Node2</title>
<path fill="none" stroke="#191970" d="M360.0582,-153.513C427.9623,-176.0337 551.0591,-218.5194 619.3039,-242.949"/>
<polygon fill="#191970" stroke="#191970" points="618.3672,-246.3314 628.9617,-246.4178 620.7334,-239.7434 618.3672,-246.3314"/>
</g>
<!-- Node12&#45;&gt;Node5 -->
<g id="edge23" class="edge">
<title>Node12&#45;&gt;Node5</title>
<path fill="none" stroke="#191970" d="M371.7132,-150.5929C377.565,-151.8186 383.4005,-152.984 389,-154 472.6567,-169.179 568.7555,-181.7659 635.6494,-189.9133"/>
<polygon fill="#191970" stroke="#191970" points="635.3664,-193.4046 645.7148,-191.1327 636.2083,-186.4554 635.3664,-193.4046"/>
</g>
<!-- Node12&#45;&gt;Node11 -->
<g id="edge24" class="edge">
<title>Node12&#45;&gt;Node11</title>
<path fill="none" stroke="#191970" d="M371.633,-124.5369C374.4564,-123.9924 377.2561,-123.4765 380,-123 505.4181,-101.2216 653.111,-85.6489 738.1173,-77.6493"/>
<polygon fill="#191970" stroke="#191970" points="738.536,-81.1255 748.1674,-76.7114 737.8855,-74.1558 738.536,-81.1255"/>
</g>
<!-- Node13&#45;&gt;Node5 -->
<g id="edge26" class="edge">
<title>Node13&#45;&gt;Node5</title>
<path fill="none" stroke="#191970" d="M607.4604,-148.0419C632.286,-158.2151 668.9005,-174.4265 693.4274,-186.0357"/>
<polygon fill="#191970" stroke="#191970" points="691.9702,-189.2185 702.5,-190.3906 694.9994,-182.9078 691.9702,-189.2185"/>
</g>
<!-- Node15&#45;&gt;Node2 -->
<g id="edge29" class="edge">
<title>Node15&#45;&gt;Node2</title>
<path fill="none" stroke="#191970" d="M234.7696,-152.9411C328.9543,-175.5966 505.8164,-219.4255 601.9042,-243.8945"/>
<polygon fill="#191970" stroke="#191970" points="601.24,-247.3371 611.7949,-246.4178 602.9705,-240.5543 601.24,-247.3371"/>
</g>
<!-- Node15&#45;&gt;Node5 -->
<g id="edge30" class="edge">
<title>Node15&#45;&gt;Node5</title>
<path fill="none" stroke="#191970" d="M234.7099,-150.938C240.5603,-152.0703 246.3911,-153.1199 252,-154 385.7412,-174.985 542.2244,-187.8996 635.8939,-194.511"/>
<polygon fill="#191970" stroke="#191970" points="635.6591,-198.003 645.8787,-195.2087 636.147,-191.0201 635.6591,-198.003"/>
</g>
<!-- Node15&#45;&gt;Node16 -->
<g id="edge31" class="edge">
<title>Node15&#45;&gt;Node16</title>
<path fill="none" stroke="#191970" d="M149.3085,-123.2967C132.9717,-112.351 111.0241,-97.6462 94.6881,-86.701"/>
<polygon fill="#191970" stroke="#191970" points="96.517,-83.7135 86.2612,-81.055 92.6207,-89.5289 96.517,-83.7135"/>
</g>
<!-- Node16&#45;&gt;Node2 -->
<g id="edge33" class="edge">
<title>Node16&#45;&gt;Node2</title>
<path fill="none" stroke="#191970" d="M77.5534,-81.0786C82.3665,-98.4229 87.2456,-134.9909 109,-154 180.216,-216.2287 454.4184,-245.0955 590.5449,-255.9954"/>
<polygon fill="#191970" stroke="#191970" points="590.6528,-259.5146 600.8968,-256.811 591.2026,-252.5363 590.6528,-259.5146"/>
</g>
<!-- Node17 -->
<g id="node18" class="node">
<title>Node17</title>
<g id="a_node18"><a xlink:title=" ">
<polygon fill="none" stroke="#bfbfbf" points="49,-.5 49,-19.5 95,-19.5 95,-.5 49,-.5"/>
<text text-anchor="middle" x="72" y="-7.5" font-family="Helvetica,sans-Serif" font-size="10.00" fill="#000000">stdio.h</text>
</a>
</g>
</g>
<!-- Node16&#45;&gt;Node17 -->
<g id="edge32" class="edge">
<title>Node16&#45;&gt;Node17</title>
<path fill="none" stroke="#191970" d="M72,-61.8906C72,-53.3657 72,-40.6392 72,-29.9235"/>
<polygon fill="#191970" stroke="#191970" points="75.5001,-29.7448 72,-19.7449 68.5001,-29.7449 75.5001,-29.7448"/>
</g>
<!-- Node18&#45;&gt;Node2 -->
<g id="edge45" class="edge">
<title>Node18&#45;&gt;Node2</title>
<path fill="none" stroke="#191970" d="M887.3891,-315.7401C845.2375,-305.3189 785.2297,-290.483 738.6246,-278.9607"/>
<polygon fill="#191970" stroke="#191970" points="739.442,-275.5575 728.8942,-276.555 737.7619,-282.3529 739.442,-275.5575"/>
</g>
<!-- Node19 -->
<g id="node20" class="node">
<title>Node19</title>
<g id="a_node20"><a xlink:href="$plotting_2naview_8h.html" xlink:title="Implementation of the Naview RNA secondary structure layout algorithm .">
<polygon fill="none" stroke="#000000" points="753.5,-246.5 753.5,-276.5 856.5,-276.5 856.5,-246.5 753.5,-246.5"/>
<text text-anchor="start" x="761.5" y="-264.5" font-family="Helvetica,sans-Serif" font-size="10.00" fill="#000000">ViennaRNA/plotting</text>
<text text-anchor="middle" x="805" y="-253.5" font-family="Helvetica,sans-Serif" font-size="10.00" fill="#000000">/naview.h</text>
</a>
</g>
</g>
<!-- Node18&#45;&gt;Node19 -->
<g id="edge46" class="edge">
<title>Node18&#45;&gt;Node19</title>
<path fill="none" stroke="#191970" d="M908.9278,-313.4639C889.9239,-303.9619 865.1558,-291.5779 844.5659,-281.283"/>
<polygon fill="#191970" stroke="#191970" points="845.945,-278.0594 835.4355,-276.7177 842.8145,-284.3204 845.945,-278.0594"/>
</g>
<!-- Node20 -->
<g id="node21" class="node">
<title>Node20</title>
<g id="a_node21"><a xlink:href="$RNAturtle_8h.html" xlink:title="Implementation of the RNAturtle RNA secondary structure layout algorithm .">
<polygon fill="none" stroke="#000000" points="875,-246.5 875,-276.5 1003,-276.5 1003,-246.5 875,-246.5"/>
<text text-anchor="start" x="883" y="-264.5" font-family="Helvetica,sans-Serif" font-size="10.00" fill="#000000">ViennaRNA/plotting</text>
<text text-anchor="middle" x="939" y="-253.5" font-family="Helvetica,sans-Serif" font-size="10.00" fill="#000000">/RNApuzzler/RNAturtle.h</text>
</a>
</g>
</g>
<!-- Node18&#45;&gt;Node20 -->
<g id="edge47" class="edge">
<title>Node18&#45;&gt;Node20</title>
<path fill="none" stroke="#191970" d="M939,-313.2967C939,-305.5013 939,-295.7991 939,-286.9064"/>
<polygon fill="#191970" stroke="#191970" points="942.5001,-286.6431 939,-276.6432 935.5001,-286.6432 942.5001,-286.6431"/>
</g>
<!-- Node21 -->
<g id="node22" class="node">
<title>Node21</title>
<g id="a_node22"><a xlink:href="$RNApuzzler_8h.html" xlink:title="Implementation of the RNApuzzler RNA secondary structure layout algorithm .">
<polygon fill="none" stroke="#000000" points="1021.5,-246.5 1021.5,-276.5 1158.5,-276.5 1158.5,-246.5 1021.5,-246.5"/>
<text text-anchor="start" x="1029.5" y="-264.5" font-family="Helvetica,sans-Serif" font-size="10.00" fill="#000000">ViennaRNA/plotting</text>
<text text-anchor="middle" x="1090" y="-253.5" font-family="Helvetica,sans-Serif" font-size="10.00" fill="#000000">/RNApuzzler/RNApuzzler.h</text>
</a>
</g>
</g>
<!-- Node18&#45;&gt;Node21 -->
<g id="edge48" class="edge">
<title>Node18&#45;&gt;Node21</title>
<path fill="none" stroke="#191970" d="M972.8873,-313.4639C994.668,-303.7996 1023.1679,-291.154 1046.5993,-280.7572"/>
<polygon fill="#191970" stroke="#191970" points="1048.2438,-283.8567 1055.9649,-276.6017 1045.4047,-277.4583 1048.2438,-283.8567"/>
</g>
<!-- Node22&#45;&gt;Node6 -->
<g id="edge50" class="edge">
<title>Node22&#45;&gt;Node6</title>
<path fill="none" stroke="#191970" d="M1105.7913,-386.8612C1203.4278,-369.1001 1405,-324.7704 1405,-261.5 1405,-261.5 1405,-261.5 1405,-200 1405,-135.604 1327.8831,-100.5261 1274.3228,-83.929"/>
<polygon fill="#191970" stroke="#191970" points="1275.2028,-80.5393 1264.6199,-81.0421 1273.2066,-87.2486 1275.2028,-80.5393"/>
</g>
<!-- Node22&#45;&gt;Node18 -->
<g id="edge51" class="edge">
<title>Node22&#45;&gt;Node18</title>
<path fill="none" stroke="#191970" d="M1028.1918,-380.4639C1012.1763,-371.1332 991.3906,-359.0232 973.9144,-348.8415"/>
<polygon fill="#191970" stroke="#191970" points="975.5225,-345.7276 965.12,-343.7177 971.9986,-351.776 975.5225,-345.7276"/>
</g>
<!-- Node22&#45;&gt;Node21 -->
<g id="edge52" class="edge">
<title>Node22&#45;&gt;Node21</title>
<path fill="none" stroke="#191970" d="M1058.0597,-380.389C1064.1905,-357.5686 1075.8807,-314.055 1083.2903,-286.4751"/>
<polygon fill="#191970" stroke="#191970" points="1086.6854,-287.3271 1085.8999,-276.7614 1079.9251,-285.5108 1086.6854,-287.3271"/>
</g>
</g>
</svg>
