<?xml version="1.0" encoding="UTF-8" standalone="no"?>
<!DOCTYPE svg PUBLIC "-//W3C//DTD SVG 1.1//EN"
 "http://www.w3.org/Graphics/SVG/1.1/DTD/svg11.dtd">
<!-- Generated by graphviz version 2.40.1 (0)
 -->
<!-- Title: ViennaRNA/plotting/RNApuzzler/RNAturtle.h Pages: 1 -->
<svg width="382pt" height="229pt"
 viewBox="0.00 0.00 381.50 229.00" xmlns="http://www.w3.org/2000/svg" xmlns:xlink="http://www.w3.org/1999/xlink">
<g id="graph0" class="graph" transform="scale(1 1) rotate(0) translate(4 225)">
<title>ViennaRNA/plotting/RNApuzzler/RNAturtle.h</title>
<!-- Node1 -->
<g id="node1" class="node">
<title>Node1</title>
<g id="a_node1"><a xlink:title="Implementation of the RNAturtle RNA secondary structure layout algorithm .">
<polygon fill="#bfbfbf" stroke="#000000" points="96,-190.5 96,-220.5 224,-220.5 224,-190.5 96,-190.5"/>
<text text-anchor="start" x="104" y="-208.5" font-family="Helvetica,sans-Serif" font-size="10.00" fill="#000000">ViennaRNA/plotting</text>
<text text-anchor="middle" x="160" y="-197.5" font-family="Helvetica,sans-Serif" font-size="10.00" fill="#000000">/RNApuzzler/RNAturtle.h</text>
</a>
</g>
</g>
<!-- Node2 -->
<g id="node2" class="node">
<title>Node2</title>
<g id="a_node2"><a xlink:href="$layouts_8h.html" xlink:title="Secondary structure plot layout algorithms.">
<polygon fill="none" stroke="#000000" points="108.5,-123.5 108.5,-153.5 211.5,-153.5 211.5,-123.5 108.5,-123.5"/>
<text text-anchor="start" x="116.5" y="-141.5" font-family="Helvetica,sans-Serif" font-size="10.00" fill="#000000">ViennaRNA/plotting</text>
<text text-anchor="middle" x="160" y="-130.5" font-family="Helvetica,sans-Serif" font-size="10.00" fill="#000000">/layouts.h</text>
</a>
</g>
</g>
<!-- Node1&#45;&gt;Node2 -->
<g id="edge1" class="edge">
<title>Node1&#45;&gt;Node2</title>
<path fill="none" stroke="#191970" d="M160,-180.0249C160,-171.128 160,-161.4287 160,-153.6432"/>
<polygon fill="#191970" stroke="#191970" points="156.5001,-180.2966 160,-190.2967 163.5001,-180.2967 156.5001,-180.2966"/>
</g>
<!-- Node3 -->
<g id="node3" class="node">
<title>Node3</title>
<g id="a_node3"><a xlink:href="$plot__layouts_8h.html" xlink:title="Use ViennaRNA/plotting/layouts.h instead.">
<polygon fill="none" stroke="#000000" points="0,-62 0,-81 132,-81 132,-62 0,-62"/>
<text text-anchor="middle" x="66" y="-69" font-family="Helvetica,sans-Serif" font-size="10.00" fill="#000000">ViennaRNA/plot_layouts.h</text>
</a>
</g>
</g>
<!-- Node2&#45;&gt;Node3 -->
<g id="edge2" class="edge">
<title>Node2&#45;&gt;Node3</title>
<path fill="none" stroke="#191970" d="M130.1328,-117.2117C113.0907,-105.0646 92.5667,-90.4358 79.4055,-81.055"/>
<polygon fill="#191970" stroke="#191970" points="128.4953,-120.3426 138.6699,-123.2967 132.5582,-114.6423 128.4953,-120.3426"/>
</g>
<!-- Node4 -->
<g id="node4" class="node">
<title>Node4</title>
<g id="a_node4"><a xlink:href="$PS__dot_8h.html" xlink:title="Use ViennaRNA/plotting/probabilities.h instead.">
<polygon fill="none" stroke="#000000" points="104,-.5 104,-19.5 216,-19.5 216,-.5 104,-.5"/>
<text text-anchor="middle" x="160" y="-7.5" font-family="Helvetica,sans-Serif" font-size="10.00" fill="#000000">ViennaRNA/PS_dot.h</text>
</a>
</g>
</g>
<!-- Node2&#45;&gt;Node4 -->
<g id="edge3" class="edge">
<title>Node2&#45;&gt;Node4</title>
<path fill="none" stroke="#191970" d="M160,-113.1876C160,-84.5797 160,-39.4362 160,-19.7358"/>
<polygon fill="#191970" stroke="#191970" points="156.5001,-113.2547 160,-123.2548 163.5001,-113.2548 156.5001,-113.2547"/>
</g>
<!-- Node5 -->
<g id="node5" class="node">
<title>Node5</title>
<g id="a_node5"><a xlink:href="$plotting_2structures_8h.html" xlink:title="Various functions for plotting RNA secondary structures.">
<polygon fill="none" stroke="#000000" points="188.5,-56.5 188.5,-86.5 291.5,-86.5 291.5,-56.5 188.5,-56.5"/>
<text text-anchor="start" x="196.5" y="-74.5" font-family="Helvetica,sans-Serif" font-size="10.00" fill="#000000">ViennaRNA/plotting</text>
<text text-anchor="middle" x="240" y="-63.5" font-family="Helvetica,sans-Serif" font-size="10.00" fill="#000000">/structures.h</text>
</a>
</g>
</g>
<!-- Node2&#45;&gt;Node5 -->
<g id="edge4" class="edge">
<title>Node2&#45;&gt;Node5</title>
<path fill="none" stroke="#191970" d="M185.9333,-116.7808C197.6856,-106.9383 211.2944,-95.541 221.9186,-86.6432"/>
<polygon fill="#191970" stroke="#191970" points="183.5725,-114.1927 178.1532,-123.2967 188.067,-119.5592 183.5725,-114.1927"/>
</g>
<!-- Node5&#45;&gt;Node4 -->
<g id="edge6" class="edge">
<title>Node5&#45;&gt;Node4</title>
<path fill="none" stroke="#191970" d="M212.2067,-50.1339C198.8118,-39.8366 183.3971,-27.9865 172.809,-19.8469"/>
<polygon fill="#191970" stroke="#191970" points="210.1634,-52.9778 220.2247,-56.2977 214.4298,-47.4282 210.1634,-52.9778"/>
</g>
<!-- Node6 -->
<g id="node6" class="node">
<title>Node6</title>
<g id="a_node6"><a xlink:href="$plot__structure_8h.html" xlink:title="Use ViennaRNA/plotting/structures.h instead.">
<polygon fill="none" stroke="#000000" points="234.5,-.5 234.5,-19.5 373.5,-19.5 373.5,-.5 234.5,-.5"/>
<text text-anchor="middle" x="304" y="-7.5" font-family="Helvetica,sans-Serif" font-size="10.00" fill="#000000">ViennaRNA/plot_structure.h</text>
</a>
</g>
</g>
<!-- Node5&#45;&gt;Node6 -->
<g id="edge5" class="edge">
<title>Node5&#45;&gt;Node6</title>
<path fill="none" stroke="#191970" d="M263.1482,-49.256C273.6455,-39.1688 285.5221,-27.7561 293.7528,-19.8469"/>
<polygon fill="#191970" stroke="#191970" points="260.6056,-46.8452 255.8202,-56.2977 265.4559,-51.8926 260.6056,-46.8452"/>
</g>
</g>
</svg>
