<?xml version="1.0" encoding="UTF-8" standalone="no"?>
<!DOCTYPE svg PUBLIC "-//W3C//DTD SVG 1.1//EN"
 "http://www.w3.org/Graphics/SVG/1.1/DTD/svg11.dtd">
<!-- Generated by graphviz version 2.40.1 (0)
 -->
<!-- Title: ViennaRNA/sequence.h Pages: 1 -->
<svg width="985pt" height="464pt"
 viewBox="0.00 0.00 985.37 464.00" xmlns="http://www.w3.org/2000/svg" xmlns:xlink="http://www.w3.org/1999/xlink">
<g id="graph0" class="graph" transform="scale(1 1) rotate(0) translate(4 460)">
<title>ViennaRNA/sequence.h</title>
<!-- Node0 -->
<g id="node1" class="node">
<title>Node0</title>
<g id="a_node1"><a xlink:title="Functions and data structures related to sequence representations ,.">
<polygon fill="#bfbfbf" stroke="#000000" points="468.8723,-436.5 468.8723,-455.5 590.8723,-455.5 590.8723,-436.5 468.8723,-436.5"/>
<text text-anchor="middle" x="529.8723" y="-443.5" font-family="Helvetica,sans-Serif" font-size="10.00" fill="#000000">ViennaRNA/sequence.h</text>
</a>
</g>
</g>
<!-- Node1 -->
<g id="node2" class="node">
<title>Node1</title>
<g id="a_node2"><a xlink:href="$fold__compound_8h.html" xlink:title="The Basic Fold Compound API.">
<polygon fill="none" stroke="#000000" points="456.8723,-380.5 456.8723,-399.5 602.8723,-399.5 602.8723,-380.5 456.8723,-380.5"/>
<text text-anchor="middle" x="529.8723" y="-387.5" font-family="Helvetica,sans-Serif" font-size="10.00" fill="#000000">ViennaRNA/fold_compound.h</text>
</a>
</g>
</g>
<!-- Node0&#45;&gt;Node1 -->
<g id="edge1" class="edge">
<title>Node0&#45;&gt;Node1</title>
<path fill="none" stroke="#191970" d="M524.6055,-436.2455C523.1944,-428.9382 522.7902,-418.6944 523.3928,-409.7046"/>
<polygon fill="#191970" stroke="#191970" points="526.8834,-409.9945 524.6272,-399.6427 519.9355,-409.1421 526.8834,-409.9945"/>
</g>
<!-- Node1&#45;&gt;Node0 -->
<g id="edge34" class="edge">
<title>Node1&#45;&gt;Node0</title>
<path fill="none" stroke="#191970" d="M535.1175,-399.6427C536.5388,-406.9199 536.9533,-417.155 536.361,-426.1575"/>
<polygon fill="#191970" stroke="#191970" points="532.867,-425.8972 535.1392,-436.2455 539.8162,-426.739 532.867,-425.8972"/>
</g>
<!-- Node2 -->
<g id="node3" class="node">
<title>Node2</title>
<g id="a_node3"><a xlink:href="$model_8h.html" xlink:title="The model details data structure and its corresponding modifiers.">
<polygon fill="none" stroke="#000000" points="182.8723,-62 182.8723,-81 288.8723,-81 288.8723,-62 182.8723,-62"/>
<text text-anchor="middle" x="235.8723" y="-69" font-family="Helvetica,sans-Serif" font-size="10.00" fill="#000000">ViennaRNA/model.h</text>
</a>
</g>
</g>
<!-- Node1&#45;&gt;Node2 -->
<g id="edge2" class="edge">
<title>Node1&#45;&gt;Node2</title>
<path fill="none" stroke="#191970" d="M456.7336,-388.1088C311.7711,-382.3666 1.8723,-359.2975 1.8723,-267 1.8723,-267 1.8723,-267 1.8723,-205.5 1.8723,-167.8735 -5.617,-149.7221 20.8723,-123 41.9224,-101.765 116.986,-87.3019 172.5204,-79.2332"/>
<polygon fill="#191970" stroke="#191970" points="173.2341,-82.6672 182.6452,-77.8009 172.2535,-75.7362 173.2341,-82.6672"/>
</g>
<!-- Node3 -->
<g id="node4" class="node">
<title>Node3</title>
<g id="a_node4"><a xlink:href="$params_2basic_8h.html" xlink:title="Functions to deal with sets of energy parameters.">
<polygon fill="none" stroke="#000000" points="181.8723,-129 181.8723,-148 319.8723,-148 319.8723,-129 181.8723,-129"/>
<text text-anchor="middle" x="250.8723" y="-136" font-family="Helvetica,sans-Serif" font-size="10.00" fill="#000000">ViennaRNA/params/basic.h</text>
</a>
</g>
</g>
<!-- Node1&#45;&gt;Node3 -->
<g id="edge3" class="edge">
<title>Node1&#45;&gt;Node3</title>
<path fill="none" stroke="#191970" d="M456.7202,-383.6226C390.4674,-373.3635 297.922,-346.6278 260.8723,-277 240.531,-238.7724 239.3143,-186.5559 243.4919,-158.4179"/>
<polygon fill="#191970" stroke="#191970" points="246.9943,-158.7458 245.4898,-148.2583 240.1259,-157.395 246.9943,-158.7458"/>
</g>
<!-- Node7 -->
<g id="node8" class="node">
<title>Node7</title>
<g id="a_node8"><a xlink:href="$dp__matrices_8h.html" xlink:title="Functions to deal with standard dynamic programming (DP) matrices.">
<polygon fill="none" stroke="#000000" points="30.3723,-129 30.3723,-148 163.3723,-148 163.3723,-129 30.3723,-129"/>
<text text-anchor="middle" x="96.8723" y="-136" font-family="Helvetica,sans-Serif" font-size="10.00" fill="#000000">ViennaRNA/dp_matrices.h</text>
</a>
</g>
</g>
<!-- Node1&#45;&gt;Node7 -->
<g id="edge35" class="edge">
<title>Node1&#45;&gt;Node7</title>
<path fill="none" stroke="#191970" d="M456.688,-381.7253C395.0763,-373.4664 312.6948,-359.7601 283.8723,-344 197.5522,-296.8003 126.7143,-198.3235 103.932,-157.1866"/>
<polygon fill="#191970" stroke="#191970" points="107.0046,-155.5086 99.295,-148.2414 100.7899,-158.7302 107.0046,-155.5086"/>
</g>
<!-- Node8 -->
<g id="node9" class="node">
<title>Node8</title>
<g id="a_node9"><a xlink:href="$hard_8h.html" xlink:title="Functions and data structures for handling of secondary structure hard constraints.">
<polygon fill="none" stroke="#000000" points="858.3723,-123.5 858.3723,-153.5 977.3723,-153.5 977.3723,-123.5 858.3723,-123.5"/>
<text text-anchor="start" x="866.3723" y="-141.5" font-family="Helvetica,sans-Serif" font-size="10.00" fill="#000000">ViennaRNA/constraints</text>
<text text-anchor="middle" x="917.8723" y="-130.5" font-family="Helvetica,sans-Serif" font-size="10.00" fill="#000000">/hard.h</text>
</a>
</g>
</g>
<!-- Node1&#45;&gt;Node8 -->
<g id="edge36" class="edge">
<title>Node1&#45;&gt;Node8</title>
<path fill="none" stroke="#191970" d="M602.9188,-387.4884C681.591,-383.3641 800.0007,-372.5068 834.8723,-344 890.6082,-298.4371 904.3745,-207.4366 911.4379,-163.448"/>
<polygon fill="#191970" stroke="#191970" points="914.8917,-164.0144 913.0682,-153.5777 907.9852,-162.8736 914.8917,-164.0144"/>
</g>
<!-- Node10 -->
<g id="node11" class="node">
<title>Node10</title>
<g id="a_node11"><a xlink:href="$soft_8h.html" xlink:title="Functions and data structures for secondary structure soft constraints.">
<polygon fill="none" stroke="#000000" points="414.3723,-123.5 414.3723,-153.5 533.3723,-153.5 533.3723,-123.5 414.3723,-123.5"/>
<text text-anchor="start" x="422.3723" y="-141.5" font-family="Helvetica,sans-Serif" font-size="10.00" fill="#000000">ViennaRNA/constraints</text>
<text text-anchor="middle" x="473.8723" y="-130.5" font-family="Helvetica,sans-Serif" font-size="10.00" fill="#000000">/soft.h</text>
</a>
</g>
</g>
<!-- Node1&#45;&gt;Node10 -->
<g id="edge37" class="edge">
<title>Node1&#45;&gt;Node10</title>
<path fill="none" stroke="#191970" d="M528.2414,-380.3031C529.5903,-350.4185 545.8899,-257.6664 516.8723,-190 512.1181,-178.9137 503.7386,-168.9673 495.5355,-160.84"/>
<polygon fill="#191970" stroke="#191970" points="497.844,-158.2065 488.1607,-153.9072 493.0494,-163.3067 497.844,-158.2065"/>
</g>
<!-- Node11 -->
<g id="node12" class="node">
<title>Node11</title>
<g id="a_node12"><a xlink:href="$grammar_8h.html" xlink:title="Implementations for the RNA folding grammar.">
<polygon fill="none" stroke="#000000" points="551.3723,-129 551.3723,-148 668.3723,-148 668.3723,-129 551.3723,-129"/>
<text text-anchor="middle" x="609.8723" y="-136" font-family="Helvetica,sans-Serif" font-size="10.00" fill="#000000">ViennaRNA/grammar.h</text>
</a>
</g>
</g>
<!-- Node1&#45;&gt;Node11 -->
<g id="edge38" class="edge">
<title>Node1&#45;&gt;Node11</title>
<path fill="none" stroke="#191970" d="M531.4105,-380.483C536.9728,-371.642 547.6511,-357.7984 553.8723,-344 582.773,-279.8995 594.7664,-196.268 602.7564,-158.5246"/>
<polygon fill="#191970" stroke="#191970" points="606.2649,-158.8898 605.1218,-148.3568 599.4469,-157.3036 606.2649,-158.8898"/>
</g>
<!-- Node12 -->
<g id="node13" class="node">
<title>Node12</title>
<g id="a_node13"><a xlink:href="$structured__domains_8h.html" xlink:title="This module provides interfaces that deal with additional structured domains in the folding grammar.">
<polygon fill="none" stroke="#000000" points="686.3723,-123.5 686.3723,-153.5 801.3723,-153.5 801.3723,-123.5 686.3723,-123.5"/>
<text text-anchor="start" x="694.3723" y="-141.5" font-family="Helvetica,sans-Serif" font-size="10.00" fill="#000000">ViennaRNA/structured</text>
<text text-anchor="middle" x="743.8723" y="-130.5" font-family="Helvetica,sans-Serif" font-size="10.00" fill="#000000">_domains.h</text>
</a>
</g>
</g>
<!-- Node1&#45;&gt;Node12 -->
<g id="edge39" class="edge">
<title>Node1&#45;&gt;Node12</title>
<path fill="none" stroke="#191970" d="M544.858,-380.473C557.8199,-371.8353 576.66,-358.2997 590.8723,-344 649.6326,-284.8784 704.3532,-202.1916 729.4599,-162.1232"/>
<polygon fill="#191970" stroke="#191970" points="732.4714,-163.9082 734.7758,-153.5669 726.5255,-160.214 732.4714,-163.9082"/>
</g>
<!-- Node13 -->
<g id="node14" class="node">
<title>Node13</title>
<g id="a_node14"><a xlink:href="$unstructured__domains_8h.html" xlink:title="Functions to modify unstructured domains, e.g. to incorporate ligands binding to unpaired stretches.">
<polygon fill="none" stroke="#000000" points="353.3723,-313.5 353.3723,-343.5 478.3723,-343.5 478.3723,-313.5 353.3723,-313.5"/>
<text text-anchor="start" x="361.3723" y="-331.5" font-family="Helvetica,sans-Serif" font-size="10.00" fill="#000000">ViennaRNA/unstructured</text>
<text text-anchor="middle" x="415.8723" y="-320.5" font-family="Helvetica,sans-Serif" font-size="10.00" fill="#000000">_domains.h</text>
</a>
</g>
</g>
<!-- Node1&#45;&gt;Node13 -->
<g id="edge40" class="edge">
<title>Node1&#45;&gt;Node13</title>
<path fill="none" stroke="#191970" d="M506.9973,-380.3906C489.629,-371.9132 465.7749,-359.2809 446.7594,-348.6028"/>
<polygon fill="#191970" stroke="#191970" points="448.2859,-345.4446 437.8628,-343.5446 444.826,-351.5298 448.2859,-345.4446"/>
</g>
<!-- Node3&#45;&gt;Node1 -->
<g id="edge32" class="edge">
<title>Node3&#45;&gt;Node1</title>
<path fill="none" stroke="#191970" d="M254.5147,-148.2583C257.3421,-171.9018 255.7284,-233.5055 278.8723,-277 311.5044,-338.3257 387.187,-366.378 447.0218,-379.2054"/>
<polygon fill="#191970" stroke="#191970" points="446.3598,-382.6423 456.8573,-381.2092 447.7573,-375.7832 446.3598,-382.6423"/>
</g>
<!-- Node3&#45;&gt;Node2 -->
<g id="edge33" class="edge">
<title>Node3&#45;&gt;Node2</title>
<path fill="none" stroke="#191970" d="M248.7232,-128.9005C246.5177,-119.0495 243.0242,-103.4451 240.236,-90.9912"/>
<polygon fill="#191970" stroke="#191970" points="243.6177,-90.0754 238.0175,-81.0817 236.7868,-91.6048 243.6177,-90.0754"/>
</g>
<!-- Node4 -->
<g id="node5" class="node">
<title>Node4</title>
<g id="a_node5"><a xlink:href="$constants_8h.html" xlink:title="Energy parameter constants.">
<polygon fill="none" stroke="#000000" points="306.8723,-62 306.8723,-81 464.8723,-81 464.8723,-62 306.8723,-62"/>
<text text-anchor="middle" x="385.8723" y="-69" font-family="Helvetica,sans-Serif" font-size="10.00" fill="#000000">ViennaRNA/params/constants.h</text>
</a>
</g>
</g>
<!-- Node3&#45;&gt;Node4 -->
<g id="edge4" class="edge">
<title>Node3&#45;&gt;Node4</title>
<path fill="none" stroke="#191970" d="M270.2145,-128.9005C293.0711,-117.5569 331.2994,-98.5844 357.5057,-85.5783"/>
<polygon fill="#191970" stroke="#191970" points="359.1645,-88.6624 366.566,-81.0817 356.0525,-82.3922 359.1645,-88.6624"/>
</g>
<!-- Node6 -->
<g id="node7" class="node">
<title>Node6</title>
<g id="a_node7"><a xlink:href="$datastructures_2basic_8h.html" xlink:title="Various data structures and pre&#45;processor macros.">
<polygon fill="none" stroke="#000000" points="382.8723,-190.5 382.8723,-220.5 516.8723,-220.5 516.8723,-190.5 382.8723,-190.5"/>
<text text-anchor="start" x="390.8723" y="-208.5" font-family="Helvetica,sans-Serif" font-size="10.00" fill="#000000">ViennaRNA/datastructures</text>
<text text-anchor="middle" x="449.8723" y="-197.5" font-family="Helvetica,sans-Serif" font-size="10.00" fill="#000000">/basic.h</text>
</a>
</g>
</g>
<!-- Node3&#45;&gt;Node6 -->
<g id="edge6" class="edge">
<title>Node3&#45;&gt;Node6</title>
<path fill="none" stroke="#191970" d="M283.9867,-148.0053C316.12,-158.1563 365.0456,-174.4928 401.5001,-187.1623"/>
<polygon fill="#191970" stroke="#191970" points="400.3585,-190.4708 410.9534,-190.4639 402.6667,-183.8623 400.3585,-190.4708"/>
</g>
<!-- Node5 -->
<g id="node6" class="node">
<title>Node5</title>
<g id="a_node6"><a xlink:title=" ">
<polygon fill="none" stroke="#bfbfbf" points="361.8723,-.5 361.8723,-19.5 409.8723,-19.5 409.8723,-.5 361.8723,-.5"/>
<text text-anchor="middle" x="385.8723" y="-7.5" font-family="Helvetica,sans-Serif" font-size="10.00" fill="#000000">limits.h</text>
</a>
</g>
</g>
<!-- Node4&#45;&gt;Node5 -->
<g id="edge5" class="edge">
<title>Node4&#45;&gt;Node5</title>
<path fill="none" stroke="#191970" d="M385.8723,-61.8906C385.8723,-53.3657 385.8723,-40.6392 385.8723,-29.9235"/>
<polygon fill="#191970" stroke="#191970" points="389.3724,-29.7448 385.8723,-19.7449 382.3724,-29.7449 389.3724,-29.7448"/>
</g>
<!-- Node6&#45;&gt;Node1 -->
<g id="edge8" class="edge">
<title>Node6&#45;&gt;Node1</title>
<path fill="none" stroke="#191970" d="M456.4789,-220.7363C470.9802,-254.18 505.5736,-333.9609 521.538,-370.7789"/>
<polygon fill="#191970" stroke="#191970" points="518.4945,-372.558 525.6838,-380.3402 524.9167,-369.7732 518.4945,-372.558"/>
</g>
<!-- Node6&#45;&gt;Node2 -->
<g id="edge9" class="edge">
<title>Node6&#45;&gt;Node2</title>
<path fill="none" stroke="#191970" d="M428.8468,-190.2869C405.0166,-173.2525 364.8079,-145.135 328.8723,-123 307.229,-109.6685 281.955,-95.7751 263.2219,-85.7832"/>
<polygon fill="#191970" stroke="#191970" points="264.811,-82.6643 254.3361,-81.0745 261.5333,-88.8495 264.811,-82.6643"/>
</g>
<!-- Node6&#45;&gt;Node3 -->
<g id="edge10" class="edge">
<title>Node6&#45;&gt;Node3</title>
<path fill="none" stroke="#191970" d="M399.4723,-190.4639C363.1924,-178.7316 315.3881,-162.6054 283.8537,-151.4431"/>
<polygon fill="#191970" stroke="#191970" points="284.8168,-148.0707 274.2222,-148.0053 282.4636,-154.6633 284.8168,-148.0707"/>
</g>
<!-- Node6&#45;&gt;Node4 -->
<g id="edge7" class="edge">
<title>Node6&#45;&gt;Node4</title>
<path fill="none" stroke="#191970" d="M433.4437,-190.2468C424.0668,-180.681 412.8291,-167.6132 405.8723,-154 395.6397,-133.9764 390.5001,-108.5152 388.0173,-91.2109"/>
<polygon fill="#191970" stroke="#191970" points="391.4727,-90.6369 386.7427,-81.1566 384.5282,-91.5174 391.4727,-90.6369"/>
</g>
<!-- Node6&#45;&gt;Node7 -->
<g id="edge11" class="edge">
<title>Node6&#45;&gt;Node7</title>
<path fill="none" stroke="#191970" d="M382.8541,-193.509C376.7557,-192.3036 370.6917,-191.1144 364.8723,-190 275.7371,-172.9308 253.0076,-171.0692 163.8723,-154 157.4496,-152.7701 150.7287,-151.449 144.1154,-150.1156"/>
<polygon fill="#191970" stroke="#191970" points="144.3683,-146.595 133.8699,-148.0215 142.9664,-153.4532 144.3683,-146.595"/>
</g>
<!-- Node6&#45;&gt;Node8 -->
<g id="edge14" class="edge">
<title>Node6&#45;&gt;Node8</title>
<path fill="none" stroke="#191970" d="M517.0777,-195.9567C589.5797,-185.6509 708.4168,-168.7289 810.8723,-154 822.8473,-152.2785 835.5749,-150.4413 847.9171,-148.6558"/>
<polygon fill="#191970" stroke="#191970" points="848.7735,-152.0684 858.1689,-147.1719 847.7706,-145.1406 848.7735,-152.0684"/>
</g>
<!-- Node6&#45;&gt;Node10 -->
<g id="edge18" class="edge">
<title>Node6&#45;&gt;Node10</title>
<path fill="none" stroke="#191970" d="M449.5575,-190.2967C451.4716,-182.2443 454.8283,-172.1574 458.5554,-163.0296"/>
<polygon fill="#191970" stroke="#191970" points="461.8622,-164.2053 462.6944,-153.6432 455.4572,-161.381 461.8622,-164.2053"/>
</g>
<!-- Node6&#45;&gt;Node11 -->
<g id="edge22" class="edge">
<title>Node6&#45;&gt;Node11</title>
<path fill="none" stroke="#191970" d="M485.7795,-190.4639C513.351,-178.9183 551.084,-163.1176 577.6817,-151.9798"/>
<polygon fill="#191970" stroke="#191970" points="579.0656,-155.1949 586.9376,-148.1039 576.3617,-148.7381 579.0656,-155.1949"/>
</g>
<!-- Node6&#45;&gt;Node12 -->
<g id="edge24" class="edge">
<title>Node6&#45;&gt;Node12</title>
<path fill="none" stroke="#191970" d="M517.2477,-190.4396C560.2618,-180.7878 617.479,-167.8815 676.4272,-154.3243"/>
<polygon fill="#191970" stroke="#191970" points="677.3264,-157.7089 686.2861,-152.0545 675.7558,-150.8874 677.3264,-157.7089"/>
</g>
<!-- Node6&#45;&gt;Node13 -->
<g id="edge25" class="edge">
<title>Node6&#45;&gt;Node13</title>
<path fill="none" stroke="#191970" d="M453.2417,-220.6281C451.8471,-235.1438 446.3087,-257.6525 440.8723,-277 438.3966,-285.8107 435.4788,-295.4015 432.3163,-303.8921"/>
<polygon fill="#191970" stroke="#191970" points="429.039,-302.6601 428.5034,-313.2414 435.5207,-305.3036 429.039,-302.6601"/>
</g>
<!-- Node14 -->
<g id="node15" class="node">
<title>Node14</title>
<g id="a_node15"><a xlink:href="$utils_2structures_8h.html" xlink:title="Various utility&#45; and helper&#45;functions for secondary structure parsing, converting,...">
<polygon fill="none" stroke="#000000" points="278.8723,-257.5 278.8723,-276.5 422.8723,-276.5 422.8723,-257.5 278.8723,-257.5"/>
<text text-anchor="middle" x="350.8723" y="-264.5" font-family="Helvetica,sans-Serif" font-size="10.00" fill="#000000">ViennaRNA/utils/structures.h</text>
</a>
</g>
</g>
<!-- Node6&#45;&gt;Node14 -->
<g id="edge31" class="edge">
<title>Node6&#45;&gt;Node14</title>
<path fill="none" stroke="#191970" d="M431.5513,-220.5446C417.0986,-230.24 396.8901,-242.7829 380.233,-252.3912"/>
<polygon fill="#191970" stroke="#191970" points="378.381,-249.4177 371.4036,-257.3906 381.83,-255.5091 378.381,-249.4177"/>
</g>
<!-- Node7&#45;&gt;Node1 -->
<g id="edge13" class="edge">
<title>Node7&#45;&gt;Node1</title>
<path fill="none" stroke="#191970" d="M106.4828,-148.2414C133.138,-181.7356 208.4349,-292.9086 301.8723,-344 327.6644,-358.1031 396.3454,-370.5616 451.6913,-378.9436"/>
<polygon fill="#191970" stroke="#191970" points="451.45,-382.4463 461.8571,-380.4607 452.4833,-375.5229 451.45,-382.4463"/>
</g>
<!-- Node7&#45;&gt;Node6 -->
<g id="edge12" class="edge">
<title>Node7&#45;&gt;Node6</title>
<path fill="none" stroke="#191970" d="M151.4352,-148.0215C161.606,-150.04 172.0853,-152.1258 181.8723,-154 267.6998,-170.4357 291.9587,-172.7717 375.3534,-188.5716"/>
<polygon fill="#191970" stroke="#191970" points="374.7875,-192.0266 385.2658,-190.4599 376.0975,-185.1503 374.7875,-192.0266"/>
</g>
<!-- Node8&#45;&gt;Node1 -->
<g id="edge15" class="edge">
<title>Node8&#45;&gt;Node1</title>
<path fill="none" stroke="#191970" d="M921.7573,-153.5777C924.3593,-192.1213 913.2038,-294.6803 852.8723,-344 817.6054,-372.83 696.8959,-383.608 613.4085,-387.6261"/>
<polygon fill="#191970" stroke="#191970" points="612.9949,-384.1412 603.1652,-388.0944 613.3146,-391.1339 612.9949,-384.1412"/>
</g>
<!-- Node9 -->
<g id="node10" class="node">
<title>Node9</title>
<g id="a_node10"><a xlink:href="$constraints_2basic_8h.html" xlink:title="Functions and data structures for constraining secondary structure predictions and evaluation.">
<polygon fill="none" stroke="#000000" points="770.3723,-56.5 770.3723,-86.5 889.3723,-86.5 889.3723,-56.5 770.3723,-56.5"/>
<text text-anchor="start" x="778.3723" y="-74.5" font-family="Helvetica,sans-Serif" font-size="10.00" fill="#000000">ViennaRNA/constraints</text>
<text text-anchor="middle" x="829.8723" y="-63.5" font-family="Helvetica,sans-Serif" font-size="10.00" fill="#000000">/basic.h</text>
</a>
</g>
</g>
<!-- Node8&#45;&gt;Node9 -->
<g id="edge16" class="edge">
<title>Node8&#45;&gt;Node9</title>
<path fill="none" stroke="#191970" d="M897.9038,-123.2967C886.0898,-114.302 870.9417,-102.7687 857.9396,-92.8694"/>
<polygon fill="#191970" stroke="#191970" points="859.8385,-89.9162 849.7619,-86.6432 855.5981,-95.4857 859.8385,-89.9162"/>
</g>
<!-- Node9&#45;&gt;Node1 -->
<g id="edge17" class="edge">
<title>Node9&#45;&gt;Node1</title>
<path fill="none" stroke="#191970" d="M829.8723,-86.7729C829.8723,-111.6482 829.8723,-162.4618 829.8723,-205.5 829.8723,-267 829.8723,-267 829.8723,-267 829.8723,-318.6275 675.8495,-359.4195 588.5265,-378.3977"/>
<polygon fill="#191970" stroke="#191970" points="587.7852,-374.9771 578.7402,-380.4942 589.2515,-381.8218 587.7852,-374.9771"/>
</g>
<!-- Node10&#45;&gt;Node1 -->
<g id="edge20" class="edge">
<title>Node10&#45;&gt;Node1</title>
<path fill="none" stroke="#191970" d="M503.8211,-153.6882C516.0682,-162.7824 528.6127,-175.4031 534.8723,-190 561.2829,-251.587 550.1533,-333.9546 539.2159,-370.7897"/>
<polygon fill="#191970" stroke="#191970" points="535.8867,-369.7091 536.0188,-380.3031 542.5221,-371.939 535.8867,-369.7091"/>
</g>
<!-- Node10&#45;&gt;Node6 -->
<g id="edge19" class="edge">
<title>Node10&#45;&gt;Node6</title>
<path fill="none" stroke="#191970" d="M474.2015,-153.6432C472.2946,-161.6854 468.9423,-171.7696 465.2171,-180.9021"/>
<polygon fill="#191970" stroke="#191970" points="461.907,-179.7342 461.0791,-190.2967 468.3132,-182.5559 461.907,-179.7342"/>
</g>
<!-- Node10&#45;&gt;Node9 -->
<g id="edge21" class="edge">
<title>Node10&#45;&gt;Node9</title>
<path fill="none" stroke="#191970" d="M533.6775,-124.8987C536.7845,-124.2443 539.8636,-123.6076 542.8723,-123 616.8322,-108.0645 701.9593,-93.0627 760.1781,-83.1348"/>
<polygon fill="#191970" stroke="#191970" points="761.0937,-86.5295 770.3655,-81.4026 759.9203,-79.6285 761.0937,-86.5295"/>
</g>
<!-- Node11&#45;&gt;Node1 -->
<g id="edge23" class="edge">
<title>Node11&#45;&gt;Node1</title>
<path fill="none" stroke="#191970" d="M612.8993,-148.3568C615.0668,-178.756 603.7627,-273.2684 571.8723,-344 567.1578,-354.4566 559.8837,-364.9391 552.5108,-373.2509"/>
<polygon fill="#191970" stroke="#191970" points="549.9448,-370.8693 545.492,-380.483 554.9681,-375.7444 549.9448,-370.8693"/>
</g>
<!-- Node13&#45;&gt;Node1 -->
<g id="edge27" class="edge">
<title>Node13&#45;&gt;Node1</title>
<path fill="none" stroke="#191970" d="M449.6569,-343.5446C468.6064,-353.1502 491.5862,-365.5508 508.1735,-375.1236"/>
<polygon fill="#191970" stroke="#191970" points="506.7289,-378.3346 517.1223,-380.3906 510.2796,-372.3019 506.7289,-378.3346"/>
</g>
<!-- Node13&#45;&gt;Node6 -->
<g id="edge26" class="edge">
<title>Node13&#45;&gt;Node6</title>
<path fill="none" stroke="#191970" d="M413.2022,-313.2414C415.1275,-303.0268 419.4279,-289.2583 422.8723,-277 427.2045,-261.5824 431.6014,-244.1575 436.0155,-230.3695"/>
<polygon fill="#191970" stroke="#191970" points="439.424,-231.2229 439.3936,-220.6281 432.8104,-228.9294 439.424,-231.2229"/>
</g>
<!-- Node13&#45;&gt;Node14 -->
<g id="edge28" class="edge">
<title>Node13&#45;&gt;Node14</title>
<path fill="none" stroke="#191970" d="M399.8049,-313.2977C390.4063,-304.4052 378.5196,-293.1586 368.8154,-283.9769"/>
<polygon fill="#191970" stroke="#191970" points="370.9491,-281.1774 361.2796,-276.8469 366.1381,-286.2621 370.9491,-281.1774"/>
</g>
<!-- Node14&#45;&gt;Node6 -->
<g id="edge30" class="edge">
<title>Node14&#45;&gt;Node6</title>
<path fill="none" stroke="#191970" d="M361.2786,-257.3906C373.162,-248.9903 392.8068,-236.5103 410.6445,-225.8945"/>
<polygon fill="#191970" stroke="#191970" points="412.9055,-228.6258 419.7571,-220.5446 409.3614,-222.5892 412.9055,-228.6258"/>
</g>
<!-- Node15 -->
<g id="node16" class="node">
<title>Node15</title>
<g id="a_node16"><a xlink:title=" ">
<polygon fill="none" stroke="#bfbfbf" points="318.8723,-196 318.8723,-215 364.8723,-215 364.8723,-196 318.8723,-196"/>
<text text-anchor="middle" x="341.8723" y="-203" font-family="Helvetica,sans-Serif" font-size="10.00" fill="#000000">stdio.h</text>
</a>
</g>
</g>
<!-- Node14&#45;&gt;Node15 -->
<g id="edge29" class="edge">
<title>Node14&#45;&gt;Node15</title>
<path fill="none" stroke="#191970" d="M349.4661,-257.3906C348.2185,-248.8657 346.3561,-236.1392 344.788,-225.4235"/>
<polygon fill="#191970" stroke="#191970" points="348.2096,-224.6326 343.2984,-215.2449 341.2834,-225.6463 348.2096,-224.6326"/>
</g>
</g>
</svg>
