<?xml version="1.0" encoding="UTF-8" standalone="no"?>
<!DOCTYPE svg PUBLIC "-//W3C//DTD SVG 1.1//EN"
 "http://www.w3.org/Graphics/SVG/1.1/DTD/svg11.dtd">
<!-- Generated by graphviz version 2.40.1 (0)
 -->
<!-- Title: ViennaRNA/constraints/SHAPE.h Pages: 1 -->
<svg width="1281pt" height="408pt"
 viewBox="0.00 0.00 1281.00 408.00" xmlns="http://www.w3.org/2000/svg" xmlns:xlink="http://www.w3.org/1999/xlink">
<g id="graph0" class="graph" transform="scale(1 1) rotate(0) translate(4 404)">
<title>ViennaRNA/constraints/SHAPE.h</title>
<!-- Node0 -->
<g id="node1" class="node">
<title>Node0</title>
<g id="a_node1"><a xlink:title="This module provides function to incorporate SHAPE reactivity data into the folding recursions by mea...">
<polygon fill="#bfbfbf" stroke="#000000" points="671.5,-369.5 671.5,-399.5 790.5,-399.5 790.5,-369.5 671.5,-369.5"/>
<text text-anchor="start" x="679.5" y="-387.5" font-family="Helvetica,sans-Serif" font-size="10.00" fill="#000000">ViennaRNA/constraints</text>
<text text-anchor="middle" x="731" y="-376.5" font-family="Helvetica,sans-Serif" font-size="10.00" fill="#000000">/SHAPE.h</text>
</a>
</g>
</g>
<!-- Node1 -->
<g id="node2" class="node">
<title>Node1</title>
<g id="a_node2"><a xlink:href="$fold__compound_8h.html" xlink:title="The Basic Fold Compound API.">
<polygon fill="none" stroke="#000000" points="658,-313.5 658,-332.5 804,-332.5 804,-313.5 658,-313.5"/>
<text text-anchor="middle" x="731" y="-320.5" font-family="Helvetica,sans-Serif" font-size="10.00" fill="#000000">ViennaRNA/fold_compound.h</text>
</a>
</g>
</g>
<!-- Node0&#45;&gt;Node1 -->
<g id="edge1" class="edge">
<title>Node0&#45;&gt;Node1</title>
<path fill="none" stroke="#191970" d="M731,-369.2977C731,-361.3834 731,-351.6043 731,-343.0759"/>
<polygon fill="#191970" stroke="#191970" points="734.5001,-342.8469 731,-332.8469 727.5001,-342.847 734.5001,-342.8469"/>
</g>
<!-- Node2 -->
<g id="node3" class="node">
<title>Node2</title>
<g id="a_node3"><a xlink:href="$model_8h.html" xlink:title="The model details data structure and its corresponding modifiers.">
<polygon fill="none" stroke="#000000" points="0,-129 0,-148 106,-148 106,-129 0,-129"/>
<text text-anchor="middle" x="53" y="-136" font-family="Helvetica,sans-Serif" font-size="10.00" fill="#000000">ViennaRNA/model.h</text>
</a>
</g>
</g>
<!-- Node1&#45;&gt;Node2 -->
<g id="edge2" class="edge">
<title>Node1&#45;&gt;Node2</title>
<path fill="none" stroke="#191970" d="M657.9085,-317.8778C590.3703,-311.9579 487.6785,-299.9318 401,-277 278.2871,-244.5349 140.3742,-181.0503 81.7933,-152.7294"/>
<polygon fill="#191970" stroke="#191970" points="82.9647,-149.4071 72.4412,-148.1801 79.9026,-155.7019 82.9647,-149.4071"/>
</g>
<!-- Node3 -->
<g id="node4" class="node">
<title>Node3</title>
<g id="a_node4"><a xlink:href="$params_2basic_8h.html" xlink:title="Functions to deal with sets of energy parameters.">
<polygon fill="none" stroke="#000000" points="462,-257.5 462,-276.5 600,-276.5 600,-257.5 462,-257.5"/>
<text text-anchor="middle" x="531" y="-264.5" font-family="Helvetica,sans-Serif" font-size="10.00" fill="#000000">ViennaRNA/params/basic.h</text>
</a>
</g>
</g>
<!-- Node1&#45;&gt;Node3 -->
<g id="edge3" class="edge">
<title>Node1&#45;&gt;Node3</title>
<path fill="none" stroke="#191970" d="M691.3768,-313.3733C655.9944,-303.9807 604.6537,-289.6496 569.5916,-279.4064"/>
<polygon fill="#191970" stroke="#191970" points="570.2966,-275.9655 559.7153,-276.5011 568.3211,-282.681 570.2966,-275.9655"/>
</g>
<!-- Node7 -->
<g id="node8" class="node">
<title>Node7</title>
<g id="a_node8"><a xlink:href="$dp__matrices_8h.html" xlink:title="Functions to deal with standard dynamic programming (DP) matrices.">
<polygon fill="none" stroke="#000000" points="124.5,-129 124.5,-148 257.5,-148 257.5,-129 124.5,-129"/>
<text text-anchor="middle" x="191" y="-136" font-family="Helvetica,sans-Serif" font-size="10.00" fill="#000000">ViennaRNA/dp_matrices.h</text>
</a>
</g>
</g>
<!-- Node1&#45;&gt;Node7 -->
<g id="edge36" class="edge">
<title>Node1&#45;&gt;Node7</title>
<path fill="none" stroke="#191970" d="M657.8223,-318.0975C598.6992,-312.4384 514.231,-300.6746 444,-277 350.1734,-245.3714 249.3537,-183.0277 208.9008,-154.0221"/>
<polygon fill="#191970" stroke="#191970" points="210.9135,-151.1576 200.7874,-148.0408 206.7597,-156.792 210.9135,-151.1576"/>
</g>
<!-- Node8 -->
<g id="node9" class="node">
<title>Node8</title>
<g id="a_node9"><a xlink:href="$hard_8h.html" xlink:title="Functions and data structures for handling of secondary structure hard constraints.">
<polygon fill="none" stroke="#000000" points="1095.5,-123.5 1095.5,-153.5 1214.5,-153.5 1214.5,-123.5 1095.5,-123.5"/>
<text text-anchor="start" x="1103.5" y="-141.5" font-family="Helvetica,sans-Serif" font-size="10.00" fill="#000000">ViennaRNA/constraints</text>
<text text-anchor="middle" x="1155" y="-130.5" font-family="Helvetica,sans-Serif" font-size="10.00" fill="#000000">/hard.h</text>
</a>
</g>
</g>
<!-- Node1&#45;&gt;Node8 -->
<g id="edge37" class="edge">
<title>Node1&#45;&gt;Node8</title>
<path fill="none" stroke="#191970" d="M804.0144,-320.867C890.935,-317.0467 1029.4794,-306.4273 1072,-277 1111.2422,-249.8416 1131.4181,-195.0639 1143.1313,-163.1385"/>
<polygon fill="#191970" stroke="#191970" points="1146.4582,-164.2331 1146.6504,-153.64 1139.8942,-161.8012 1146.4582,-164.2331"/>
</g>
<!-- Node10 -->
<g id="node11" class="node">
<title>Node10</title>
<g id="a_node11"><a xlink:href="$soft_8h.html" xlink:title="Functions and data structures for secondary structure soft constraints.">
<polygon fill="none" stroke="#000000" points="651.5,-123.5 651.5,-153.5 770.5,-153.5 770.5,-123.5 651.5,-123.5"/>
<text text-anchor="start" x="659.5" y="-141.5" font-family="Helvetica,sans-Serif" font-size="10.00" fill="#000000">ViennaRNA/constraints</text>
<text text-anchor="middle" x="711" y="-130.5" font-family="Helvetica,sans-Serif" font-size="10.00" fill="#000000">/soft.h</text>
</a>
</g>
</g>
<!-- Node1&#45;&gt;Node10 -->
<g id="edge38" class="edge">
<title>Node1&#45;&gt;Node10</title>
<path fill="none" stroke="#191970" d="M726.7279,-313.3402C719.6372,-285.6387 710.3923,-205.2663 708.9248,-163.8429"/>
<polygon fill="#191970" stroke="#191970" points="712.4221,-163.6651 708.7248,-153.7363 705.4234,-163.8037 712.4221,-163.6651"/>
</g>
<!-- Node11 -->
<g id="node12" class="node">
<title>Node11</title>
<g id="a_node12"><a xlink:href="$grammar_8h.html" xlink:title="Implementations for the RNA folding grammar.">
<polygon fill="none" stroke="#000000" points="788.5,-129 788.5,-148 905.5,-148 905.5,-129 788.5,-129"/>
<text text-anchor="middle" x="847" y="-136" font-family="Helvetica,sans-Serif" font-size="10.00" fill="#000000">ViennaRNA/grammar.h</text>
</a>
</g>
</g>
<!-- Node1&#45;&gt;Node11 -->
<g id="edge39" class="edge">
<title>Node1&#45;&gt;Node11</title>
<path fill="none" stroke="#191970" d="M733.8484,-313.3402C748.0503,-283.8242 803.8846,-194.5111 831.6701,-156.2299"/>
<polygon fill="#191970" stroke="#191970" points="834.5906,-158.1688 837.776,-148.0641 828.9845,-153.9769 834.5906,-158.1688"/>
</g>
<!-- Node12 -->
<g id="node13" class="node">
<title>Node12</title>
<g id="a_node13"><a xlink:href="$structured__domains_8h.html" xlink:title="This module provides interfaces that deal with additional structured domains in the folding grammar.">
<polygon fill="none" stroke="#000000" points="923.5,-123.5 923.5,-153.5 1038.5,-153.5 1038.5,-123.5 923.5,-123.5"/>
<text text-anchor="start" x="931.5" y="-141.5" font-family="Helvetica,sans-Serif" font-size="10.00" fill="#000000">ViennaRNA/structured</text>
<text text-anchor="middle" x="981" y="-130.5" font-family="Helvetica,sans-Serif" font-size="10.00" fill="#000000">_domains.h</text>
</a>
</g>
</g>
<!-- Node1&#45;&gt;Node12 -->
<g id="edge40" class="edge">
<title>Node1&#45;&gt;Node12</title>
<path fill="none" stroke="#191970" d="M744.0891,-313.3402C782.9029,-284.6956 898.0283,-199.7331 952.204,-159.7514"/>
<polygon fill="#191970" stroke="#191970" points="954.3868,-162.4905 960.3546,-153.7363 950.2301,-156.8583 954.3868,-162.4905"/>
</g>
<!-- Node13 -->
<g id="node14" class="node">
<title>Node13</title>
<g id="a_node14"><a xlink:href="$unstructured__domains_8h.html" xlink:title="Functions to modify unstructured domains, e.g. to incorporate ligands binding to unpaired stretches.">
<polygon fill="none" stroke="#000000" points="508.5,-123.5 508.5,-153.5 633.5,-153.5 633.5,-123.5 508.5,-123.5"/>
<text text-anchor="start" x="516.5" y="-141.5" font-family="Helvetica,sans-Serif" font-size="10.00" fill="#000000">ViennaRNA/unstructured</text>
<text text-anchor="middle" x="571" y="-130.5" font-family="Helvetica,sans-Serif" font-size="10.00" fill="#000000">_domains.h</text>
</a>
</g>
</g>
<!-- Node1&#45;&gt;Node13 -->
<g id="edge41" class="edge">
<title>Node1&#45;&gt;Node13</title>
<path fill="none" stroke="#191970" d="M719.5514,-313.2155C699.2843,-290.5922 657.9624,-233.291 618,-190 608.6208,-179.8396 597.5479,-169.3769 588.3503,-160.5581"/>
<polygon fill="#191970" stroke="#191970" points="590.7625,-158.0219 581.1438,-153.5798 585.8929,-163.0506 590.7625,-158.0219"/>
</g>
<!-- Node16 -->
<g id="node17" class="node">
<title>Node16</title>
<g id="a_node17"><a xlink:href="$sequence_8h.html" xlink:title="Functions and data structures related to sequence representations ,.">
<polygon fill="none" stroke="#000000" points="1151,-257.5 1151,-276.5 1273,-276.5 1273,-257.5 1151,-257.5"/>
<text text-anchor="middle" x="1212" y="-264.5" font-family="Helvetica,sans-Serif" font-size="10.00" fill="#000000">ViennaRNA/sequence.h</text>
</a>
</g>
</g>
<!-- Node1&#45;&gt;Node16 -->
<g id="edge34" class="edge">
<title>Node1&#45;&gt;Node16</title>
<path fill="none" stroke="#191970" d="M804.0169,-314.4301C883.6984,-305.522 1014.8257,-290.9549 1128,-277 1132.1068,-276.4936 1136.3384,-275.9604 1140.6188,-275.4147"/>
<polygon fill="#191970" stroke="#191970" points="1141.1863,-278.8707 1150.659,-274.1254 1140.2947,-271.9277 1141.1863,-278.8707"/>
</g>
<!-- Node3&#45;&gt;Node1 -->
<g id="edge32" class="edge">
<title>Node3&#45;&gt;Node1</title>
<path fill="none" stroke="#191970" d="M570.1499,-276.5011C605.389,-285.8494 656.7305,-300.1765 691.9374,-310.4561"/>
<polygon fill="#191970" stroke="#191970" points="691.2796,-313.9108 701.8608,-313.3733 693.2539,-307.1949 691.2796,-313.9108"/>
</g>
<!-- Node3&#45;&gt;Node2 -->
<g id="edge33" class="edge">
<title>Node3&#45;&gt;Node2</title>
<path fill="none" stroke="#191970" d="M495.4628,-257.4466C409.9772,-234.4656 192.9411,-176.1202 98.2927,-150.676"/>
<polygon fill="#191970" stroke="#191970" points="99.0121,-147.2452 88.4463,-148.029 97.1948,-154.0052 99.0121,-147.2452"/>
</g>
<!-- Node4 -->
<g id="node5" class="node">
<title>Node4</title>
<g id="a_node5"><a xlink:href="$constants_8h.html" xlink:title="Energy parameter constants.">
<polygon fill="none" stroke="#000000" points="276,-129 276,-148 434,-148 434,-129 276,-129"/>
<text text-anchor="middle" x="355" y="-136" font-family="Helvetica,sans-Serif" font-size="10.00" fill="#000000">ViennaRNA/params/constants.h</text>
</a>
</g>
</g>
<!-- Node3&#45;&gt;Node4 -->
<g id="edge4" class="edge">
<title>Node3&#45;&gt;Node4</title>
<path fill="none" stroke="#191970" d="M517.7714,-257.3416C487.5754,-235.2951 413.3444,-181.0981 376.4846,-154.1862"/>
<polygon fill="#191970" stroke="#191970" points="378.5224,-151.3405 368.3821,-148.2705 374.3947,-156.994 378.5224,-151.3405"/>
</g>
<!-- Node6 -->
<g id="node7" class="node">
<title>Node6</title>
<g id="a_node7"><a xlink:href="$datastructures_2basic_8h.html" xlink:title="Various data structures and pre&#45;processor macros.">
<polygon fill="none" stroke="#000000" points="484,-190.5 484,-220.5 618,-220.5 618,-190.5 484,-190.5"/>
<text text-anchor="start" x="492" y="-208.5" font-family="Helvetica,sans-Serif" font-size="10.00" fill="#000000">ViennaRNA/datastructures</text>
<text text-anchor="middle" x="551" y="-197.5" font-family="Helvetica,sans-Serif" font-size="10.00" fill="#000000">/basic.h</text>
</a>
</g>
</g>
<!-- Node3&#45;&gt;Node6 -->
<g id="edge6" class="edge">
<title>Node3&#45;&gt;Node6</title>
<path fill="none" stroke="#191970" d="M529.0625,-257.3906C530.0149,-250.0692 532.8821,-239.6488 536.3844,-230.0647"/>
<polygon fill="#191970" stroke="#191970" points="539.7289,-231.1285 540.2104,-220.5446 533.2337,-228.5181 539.7289,-231.1285"/>
</g>
<!-- Node5 -->
<g id="node6" class="node">
<title>Node5</title>
<g id="a_node6"><a xlink:title=" ">
<polygon fill="none" stroke="#bfbfbf" points="331,-62 331,-81 379,-81 379,-62 331,-62"/>
<text text-anchor="middle" x="355" y="-69" font-family="Helvetica,sans-Serif" font-size="10.00" fill="#000000">limits.h</text>
</a>
</g>
</g>
<!-- Node4&#45;&gt;Node5 -->
<g id="edge5" class="edge">
<title>Node4&#45;&gt;Node5</title>
<path fill="none" stroke="#191970" d="M355,-128.9005C355,-119.149 355,-103.7597 355,-91.3695"/>
<polygon fill="#191970" stroke="#191970" points="358.5001,-91.0816 355,-81.0817 351.5001,-91.0817 358.5001,-91.0816"/>
</g>
<!-- Node6&#45;&gt;Node1 -->
<g id="edge8" class="edge">
<title>Node6&#45;&gt;Node1</title>
<path fill="none" stroke="#191970" d="M571.1395,-220.5567C591.2679,-235.4132 623.2718,-258.519 652,-277 669.1329,-288.0217 688.9458,-299.5554 704.4439,-308.3168"/>
<polygon fill="#191970" stroke="#191970" points="703.0401,-311.5424 713.4736,-313.3843 706.466,-305.438 703.0401,-311.5424"/>
</g>
<!-- Node6&#45;&gt;Node2 -->
<g id="edge9" class="edge">
<title>Node6&#45;&gt;Node2</title>
<path fill="none" stroke="#191970" d="M483.7272,-198.6145C379.5664,-187.7735 184.0677,-166.6593 115,-154 109.4751,-152.9874 103.7107,-151.7691 98.0177,-150.4661"/>
<polygon fill="#191970" stroke="#191970" points="98.4536,-146.9719 87.9143,-148.0553 96.8289,-153.7807 98.4536,-146.9719"/>
</g>
<!-- Node6&#45;&gt;Node3 -->
<g id="edge10" class="edge">
<title>Node6&#45;&gt;Node3</title>
<path fill="none" stroke="#191970" d="M552.0045,-220.5446C550.2837,-228.8934 547.007,-239.3537 543.3751,-248.2334"/>
<polygon fill="#191970" stroke="#191970" points="540.1633,-246.8408 539.1875,-257.3906 546.5293,-249.752 540.1633,-246.8408"/>
</g>
<!-- Node6&#45;&gt;Node4 -->
<g id="edge7" class="edge">
<title>Node6&#45;&gt;Node4</title>
<path fill="none" stroke="#191970" d="M507.0138,-190.4639C472.5438,-178.6808 425.1086,-162.4657 392.4402,-151.2984"/>
<polygon fill="#191970" stroke="#191970" points="393.4011,-147.9281 382.8065,-148.0053 391.1368,-154.5518 393.4011,-147.9281"/>
</g>
<!-- Node6&#45;&gt;Node7 -->
<g id="edge11" class="edge">
<title>Node6&#45;&gt;Node7</title>
<path fill="none" stroke="#191970" d="M483.8826,-194.9788C424.2816,-184.8278 335.1291,-168.8565 258,-154 251.5786,-152.7631 244.8586,-151.4377 238.2457,-150.1019"/>
<polygon fill="#191970" stroke="#191970" points="238.4993,-146.5814 228.0007,-148.0055 237.096,-153.4393 238.4993,-146.5814"/>
</g>
<!-- Node6&#45;&gt;Node8 -->
<g id="edge14" class="edge">
<title>Node6&#45;&gt;Node8</title>
<path fill="none" stroke="#191970" d="M618.2219,-199.4077C713.838,-190.5434 894.5527,-173.0564 1048,-154 1060.0058,-152.509 1072.7487,-150.7863 1085.0966,-149.043"/>
<polygon fill="#191970" stroke="#191970" points="1085.9464,-152.4572 1095.351,-147.5785 1084.9566,-145.5276 1085.9464,-152.4572"/>
</g>
<!-- Node6&#45;&gt;Node10 -->
<g id="edge18" class="edge">
<title>Node6&#45;&gt;Node10</title>
<path fill="none" stroke="#191970" d="M581.1666,-190.4639C603.3568,-180.6708 633.9213,-167.8162 659.8634,-157.3426"/>
<polygon fill="#191970" stroke="#191970" points="661.21,-160.5735 669.1877,-153.6017 658.6036,-154.0769 661.21,-160.5735"/>
</g>
<!-- Node6&#45;&gt;Node11 -->
<g id="edge22" class="edge">
<title>Node6&#45;&gt;Node11</title>
<path fill="none" stroke="#191970" d="M618.1606,-190.5099C663.814,-180.2923 725.5708,-166.4161 780,-154 785.2381,-152.8051 790.7049,-151.5514 796.1581,-150.2964"/>
<polygon fill="#191970" stroke="#191970" points="796.9491,-153.7059 805.907,-148.0485 795.3763,-146.8849 796.9491,-153.7059"/>
</g>
<!-- Node6&#45;&gt;Node12 -->
<g id="edge24" class="edge">
<title>Node6&#45;&gt;Node12</title>
<path fill="none" stroke="#191970" d="M618.0501,-197.8512C689.0891,-189.3332 804.7076,-174.2915 913.3216,-154.2263"/>
<polygon fill="#191970" stroke="#191970" points="914.2835,-157.6073 923.4719,-152.3324 912.9996,-150.7261 914.2835,-157.6073"/>
</g>
<!-- Node6&#45;&gt;Node13 -->
<g id="edge25" class="edge">
<title>Node6&#45;&gt;Node13</title>
<path fill="none" stroke="#191970" d="M549.7775,-190.2967C551.2108,-182.2443 553.9654,-172.1574 557.1476,-163.0296"/>
<polygon fill="#191970" stroke="#191970" points="560.4341,-164.234 560.7261,-153.6432 553.8933,-161.7403 560.4341,-164.234"/>
</g>
<!-- Node14 -->
<g id="node15" class="node">
<title>Node14</title>
<g id="a_node15"><a xlink:href="$utils_2structures_8h.html" xlink:title="Various utility&#45; and helper&#45;functions for secondary structure parsing, converting,...">
<polygon fill="none" stroke="#000000" points="399,-62 399,-81 543,-81 543,-62 399,-62"/>
<text text-anchor="middle" x="471" y="-69" font-family="Helvetica,sans-Serif" font-size="10.00" fill="#000000">ViennaRNA/utils/structures.h</text>
</a>
</g>
</g>
<!-- Node6&#45;&gt;Node14 -->
<g id="edge31" class="edge">
<title>Node6&#45;&gt;Node14</title>
<path fill="none" stroke="#191970" d="M523.8713,-190.3133C511.8247,-180.8667 498.6886,-167.8983 490,-154 477.7007,-134.3261 470.0876,-108.6078 467.8972,-91.1529"/>
<polygon fill="#191970" stroke="#191970" points="471.3804,-90.7772 467.2461,-81.0224 464.3948,-91.2263 471.3804,-90.7772"/>
</g>
<!-- Node7&#45;&gt;Node1 -->
<g id="edge13" class="edge">
<title>Node7&#45;&gt;Node1</title>
<path fill="none" stroke="#191970" d="M209.2712,-148.0408C252.0637,-173.4219 361.0773,-242.9793 462,-277 522.535,-297.4061 593.6473,-308.9632 647.6007,-315.3893"/>
<polygon fill="#191970" stroke="#191970" points="647.4755,-318.898 657.8111,-316.5688 648.2789,-311.9443 647.4755,-318.898"/>
</g>
<!-- Node7&#45;&gt;Node6 -->
<g id="edge12" class="edge">
<title>Node7&#45;&gt;Node6</title>
<path fill="none" stroke="#191970" d="M245.5659,-148.0055C255.7366,-150.0249 266.215,-152.1152 276,-154 342.8196,-166.8707 418.6631,-180.5781 473.8113,-190.6129"/>
<polygon fill="#191970" stroke="#191970" points="473.3957,-194.0947 483.861,-192.4428 474.6498,-187.2079 473.3957,-194.0947"/>
</g>
<!-- Node8&#45;&gt;Node1 -->
<g id="edge15" class="edge">
<title>Node8&#45;&gt;Node1</title>
<path fill="none" stroke="#191970" d="M1156.8168,-153.64C1153.5618,-182.8837 1133.4892,-246.9024 1090,-277 1047.0728,-306.7087 906.2768,-317.248 814.2304,-320.9748"/>
<polygon fill="#191970" stroke="#191970" points="813.9496,-317.4829 804.092,-321.3658 814.2195,-324.4777 813.9496,-317.4829"/>
</g>
<!-- Node9 -->
<g id="node10" class="node">
<title>Node9</title>
<g id="a_node10"><a xlink:href="$constraints_2basic_8h.html" xlink:title="Functions and data structures for constraining secondary structure predictions and evaluation.">
<polygon fill="none" stroke="#000000" points="1007.5,-56.5 1007.5,-86.5 1126.5,-86.5 1126.5,-56.5 1007.5,-56.5"/>
<text text-anchor="start" x="1015.5" y="-74.5" font-family="Helvetica,sans-Serif" font-size="10.00" fill="#000000">ViennaRNA/constraints</text>
<text text-anchor="middle" x="1067" y="-63.5" font-family="Helvetica,sans-Serif" font-size="10.00" fill="#000000">/basic.h</text>
</a>
</g>
</g>
<!-- Node8&#45;&gt;Node9 -->
<g id="edge16" class="edge">
<title>Node8&#45;&gt;Node9</title>
<path fill="none" stroke="#191970" d="M1135.0314,-123.2967C1123.2175,-114.302 1108.0694,-102.7687 1095.0673,-92.8694"/>
<polygon fill="#191970" stroke="#191970" points="1096.9662,-89.9162 1086.8895,-86.6432 1092.7257,-95.4857 1096.9662,-89.9162"/>
</g>
<!-- Node9&#45;&gt;Node1 -->
<g id="edge17" class="edge">
<title>Node9&#45;&gt;Node1</title>
<path fill="none" stroke="#191970" d="M1067.1251,-86.7634C1066.514,-104.6181 1063.0564,-134.244 1048,-154 980.0798,-243.12 851.3586,-290.3884 780.6317,-310.6538"/>
<polygon fill="#191970" stroke="#191970" points="779.3198,-307.3863 770.6315,-313.4497 781.2046,-314.1278 779.3198,-307.3863"/>
</g>
<!-- Node10&#45;&gt;Node1 -->
<g id="edge20" class="edge">
<title>Node10&#45;&gt;Node1</title>
<path fill="none" stroke="#191970" d="M716.5785,-153.7363C723.7998,-187.0364 732.536,-266.277 733.2309,-303.3025"/>
<polygon fill="#191970" stroke="#191970" points="729.7308,-303.3218 733.1778,-313.3402 736.7308,-303.3589 729.7308,-303.3218"/>
</g>
<!-- Node10&#45;&gt;Node6 -->
<g id="edge19" class="edge">
<title>Node10&#45;&gt;Node6</title>
<path fill="none" stroke="#191970" d="M680.6848,-153.6017C658.4573,-163.4084 627.8845,-176.2645 601.9631,-186.7275"/>
<polygon fill="#191970" stroke="#191970" points="600.6259,-183.4927 592.6477,-190.4639 603.2319,-189.9896 600.6259,-183.4927"/>
</g>
<!-- Node10&#45;&gt;Node9 -->
<g id="edge21" class="edge">
<title>Node10&#45;&gt;Node9</title>
<path fill="none" stroke="#191970" d="M770.8052,-124.8987C773.9122,-124.2443 776.9913,-123.6076 780,-123 853.9598,-108.0645 939.087,-93.0627 997.3058,-83.1348"/>
<polygon fill="#191970" stroke="#191970" points="998.2214,-86.5295 1007.4932,-81.4026 997.0479,-79.6285 998.2214,-86.5295"/>
</g>
<!-- Node11&#45;&gt;Node1 -->
<g id="edge23" class="edge">
<title>Node11&#45;&gt;Node1</title>
<path fill="none" stroke="#191970" d="M844.1976,-148.0641C830.0858,-177.4507 774.2664,-266.7541 746.4202,-305.1456"/>
<polygon fill="#191970" stroke="#191970" points="743.4793,-303.2342 740.2983,-313.3402 749.0872,-307.4237 743.4793,-303.2342"/>
</g>
<!-- Node13&#45;&gt;Node1 -->
<g id="edge27" class="edge">
<title>Node13&#45;&gt;Node1</title>
<path fill="none" stroke="#191970" d="M596.5623,-153.5798C609.2142,-163.494 623.9947,-176.9947 636,-190 671.4354,-228.387 707.9397,-277.7897 723.8114,-304.2629"/>
<polygon fill="#191970" stroke="#191970" points="720.8907,-306.2101 728.8389,-313.2155 726.9942,-302.7825 720.8907,-306.2101"/>
</g>
<!-- Node13&#45;&gt;Node6 -->
<g id="edge26" class="edge">
<title>Node13&#45;&gt;Node6</title>
<path fill="none" stroke="#191970" d="M572.2332,-153.6432C570.8064,-161.6854 568.0562,-171.7696 564.8762,-180.9021"/>
<polygon fill="#191970" stroke="#191970" points="561.5867,-179.7057 561.2991,-190.2967 568.1285,-182.1966 561.5867,-179.7057"/>
</g>
<!-- Node13&#45;&gt;Node14 -->
<g id="edge28" class="edge">
<title>Node13&#45;&gt;Node14</title>
<path fill="none" stroke="#191970" d="M548.3085,-123.2967C531.9717,-112.351 510.0241,-97.6462 493.6881,-86.701"/>
<polygon fill="#191970" stroke="#191970" points="495.517,-83.7135 485.2612,-81.055 491.6207,-89.5289 495.517,-83.7135"/>
</g>
<!-- Node14&#45;&gt;Node6 -->
<g id="edge30" class="edge">
<title>Node14&#45;&gt;Node6</title>
<path fill="none" stroke="#191970" d="M478.2303,-81.0224C484.9772,-97.0507 493.0066,-130.0166 508,-154 514.6007,-164.5584 523.7681,-174.5801 532.0648,-182.9288"/>
<polygon fill="#191970" stroke="#191970" points="529.7596,-185.5709 539.341,-190.0929 534.6709,-180.5829 529.7596,-185.5709"/>
</g>
<!-- Node15 -->
<g id="node16" class="node">
<title>Node15</title>
<g id="a_node16"><a xlink:title=" ">
<polygon fill="none" stroke="#bfbfbf" points="448,-.5 448,-19.5 494,-19.5 494,-.5 448,-.5"/>
<text text-anchor="middle" x="471" y="-7.5" font-family="Helvetica,sans-Serif" font-size="10.00" fill="#000000">stdio.h</text>
</a>
</g>
</g>
<!-- Node14&#45;&gt;Node15 -->
<g id="edge29" class="edge">
<title>Node14&#45;&gt;Node15</title>
<path fill="none" stroke="#191970" d="M471,-61.8906C471,-53.3657 471,-40.6392 471,-29.9235"/>
<polygon fill="#191970" stroke="#191970" points="474.5001,-29.7448 471,-19.7449 467.5001,-29.7449 474.5001,-29.7448"/>
</g>
<!-- Node16&#45;&gt;Node1 -->
<g id="edge35" class="edge">
<title>Node16&#45;&gt;Node1</title>
<path fill="none" stroke="#191970" d="M1150.7417,-276.4104C1149.1471,-276.6103 1147.5645,-276.8071 1146,-277 1031.3269,-291.1397 898.222,-305.908 814.2423,-314.7811"/>
<polygon fill="#191970" stroke="#191970" points="813.8274,-311.3053 804.249,-315.8335 814.5606,-318.2668 813.8274,-311.3053"/>
</g>
</g>
</svg>
