<?xml version="1.0" encoding="UTF-8" standalone="no"?>
<!DOCTYPE svg PUBLIC "-//W3C//DTD SVG 1.1//EN"
 "http://www.w3.org/Graphics/SVG/1.1/DTD/svg11.dtd">
<!-- Generated by graphviz version 2.40.1 (0)
 -->
<!-- Title: ViennaRNA/constraints/soft.h Pages: 1 -->
<svg width="2952pt" height="564pt"
 viewBox="0.00 0.00 2952.28 564.00" xmlns="http://www.w3.org/2000/svg" xmlns:xlink="http://www.w3.org/1999/xlink">
<g id="graph0" class="graph" transform="scale(1 1) rotate(0) translate(4 560)">
<title>ViennaRNA/constraints/soft.h</title>
<!-- Node16 -->
<g id="node1" class="node">
<title>Node16</title>
<g id="a_node1"><a xlink:title="Functions and data structures for secondary structure soft constraints.">
<polygon fill="#bfbfbf" stroke="#000000" points="1623.7796,-525.5 1623.7796,-555.5 1742.7796,-555.5 1742.7796,-525.5 1623.7796,-525.5"/>
<text text-anchor="start" x="1631.7796" y="-543.5" font-family="Helvetica,sans-Serif" font-size="10.00" fill="#000000">ViennaRNA/constraints</text>
<text text-anchor="middle" x="1683.2796" y="-532.5" font-family="Helvetica,sans-Serif" font-size="10.00" fill="#000000">/soft.h</text>
</a>
</g>
</g>
<!-- Node17 -->
<g id="node2" class="node">
<title>Node17</title>
<g id="a_node2"><a xlink:href="$constraints_8h.html" xlink:title="Use ViennaRNA/constraints/basic.h instead.">
<polygon fill="none" stroke="#000000" points="2754.2796,-129 2754.2796,-148 2882.2796,-148 2882.2796,-129 2754.2796,-129"/>
<text text-anchor="middle" x="2818.2796" y="-136" font-family="Helvetica,sans-Serif" font-size="10.00" fill="#000000">ViennaRNA/constraints.h</text>
</a>
</g>
</g>
<!-- Node16&#45;&gt;Node17 -->
<g id="edge1" class="edge">
<title>Node16&#45;&gt;Node17</title>
<path fill="none" stroke="#191970" d="M1753.2904,-538.7371C1944.8936,-533.5972 2475.0205,-517.1809 2647.2796,-489 2782.4803,-466.8817 2944.2796,-543.498 2944.2796,-406.5 2944.2796,-406.5 2944.2796,-406.5 2944.2796,-272.5 2944.2796,-211.3481 2873.7732,-166.7022 2838.2447,-148.0869"/>
<polygon fill="#191970" stroke="#191970" points="1752.966,-535.2444 1743.0627,-539.0093 1753.1524,-542.2419 1752.966,-535.2444"/>
</g>
<!-- Node18 -->
<g id="node3" class="node">
<title>Node18</title>
<g id="a_node3"><a xlink:href="$constraints__soft_8h.html" xlink:title="Use ViennaRNA/constraints/soft.h instead.">
<polygon fill="none" stroke="#000000" points="1472.7796,-458.5 1472.7796,-488.5 1591.7796,-488.5 1591.7796,-458.5 1472.7796,-458.5"/>
<text text-anchor="start" x="1480.7796" y="-476.5" font-family="Helvetica,sans-Serif" font-size="10.00" fill="#000000">ViennaRNA/constraints</text>
<text text-anchor="middle" x="1532.2796" y="-465.5" font-family="Helvetica,sans-Serif" font-size="10.00" fill="#000000">_soft.h</text>
</a>
</g>
</g>
<!-- Node16&#45;&gt;Node18 -->
<g id="edge2" class="edge">
<title>Node16&#45;&gt;Node18</title>
<path fill="none" stroke="#191970" d="M1640.0377,-521.3132C1616.6293,-510.9267 1588.1257,-498.2794 1566.3147,-488.6017"/>
<polygon fill="#191970" stroke="#191970" points="1638.8321,-524.6073 1649.3922,-525.4639 1641.6712,-518.2089 1638.8321,-524.6073"/>
</g>
<!-- Node19 -->
<g id="node4" class="node">
<title>Node19</title>
<g id="a_node4"><a xlink:href="$fold__compound_8h.html" xlink:title="The Basic Fold Compound API.">
<polygon fill="none" stroke="#000000" points="1610.2796,-464 1610.2796,-483 1756.2796,-483 1756.2796,-464 1610.2796,-464"/>
<text text-anchor="middle" x="1683.2796" y="-471" font-family="Helvetica,sans-Serif" font-size="10.00" fill="#000000">ViennaRNA/fold_compound.h</text>
</a>
</g>
</g>
<!-- Node16&#45;&gt;Node19 -->
<g id="edge3" class="edge">
<title>Node16&#45;&gt;Node19</title>
<path fill="none" stroke="#191970" d="M1676.709,-515.1199C1676.2045,-503.9072 1676.764,-491.4031 1678.3876,-483.055"/>
<polygon fill="#191970" stroke="#191970" points="1673.2365,-515.6058 1677.5188,-525.2967 1680.2145,-515.0505 1673.2365,-515.6058"/>
</g>
<!-- Node32 -->
<g id="node15" class="node">
<title>Node32</title>
<g id="a_node15"><a xlink:href="$datastructures_2basic_8h.html" xlink:title="Various data structures and pre&#45;processor macros.">
<polygon fill="none" stroke="#ff0000" points="1259.2796,-257.5 1259.2796,-287.5 1393.2796,-287.5 1393.2796,-257.5 1259.2796,-257.5"/>
<text text-anchor="start" x="1267.2796" y="-275.5" font-family="Helvetica,sans-Serif" font-size="10.00" fill="#000000">ViennaRNA/datastructures</text>
<text text-anchor="middle" x="1326.2796" y="-264.5" font-family="Helvetica,sans-Serif" font-size="10.00" fill="#000000">/basic.h</text>
</a>
</g>
</g>
<!-- Node16&#45;&gt;Node32 -->
<g id="edge119" class="edge">
<title>Node16&#45;&gt;Node32</title>
<path fill="none" stroke="#191970" d="M1613.5459,-540.0183C1342.0063,-537.4148 366.363,-521.1247 275.2796,-422 134.4842,-268.7746 -403.1839,-466.72 573.2796,-324 824.3841,-287.2985 1127.104,-276.6078 1259.2495,-273.6126"/>
<polygon fill="#191970" stroke="#191970" points="1613.6361,-543.5191 1623.6681,-540.112 1613.701,-536.5194 1613.6361,-543.5191"/>
</g>
<!-- Node64 -->
<g id="node34" class="node">
<title>Node64</title>
<g id="a_node34"><a xlink:href="$internal_8h.html" xlink:title="Energy evaluation of interior loops for MFE and partition function calculations.">
<polygon fill="none" stroke="#000000" points="2388.7796,-129 2388.7796,-148 2525.7796,-148 2525.7796,-129 2388.7796,-129"/>
<text text-anchor="middle" x="2457.2796" y="-136" font-family="Helvetica,sans-Serif" font-size="10.00" fill="#000000">ViennaRNA/loops/internal.h</text>
</a>
</g>
</g>
<!-- Node16&#45;&gt;Node64 -->
<g id="edge118" class="edge">
<title>Node16&#45;&gt;Node64</title>
<path fill="none" stroke="#191970" d="M1753.0313,-538.5856C1988.6475,-531.3998 2744.2207,-502.2241 2814.2796,-422 2847.5546,-383.897 2787.838,-362.4246 2750.2796,-288 2729.1596,-246.1493 2747.2528,-220.0576 2711.2796,-190 2683.6572,-166.92 2591.344,-152.5728 2525.9936,-145.058"/>
<polygon fill="#191970" stroke="#191970" points="1752.7619,-535.0921 1742.8719,-538.8916 1752.9728,-542.0889 1752.7619,-535.0921"/>
</g>
<!-- Node19&#45;&gt;Node16 -->
<g id="edge109" class="edge">
<title>Node19&#45;&gt;Node16</title>
<path fill="none" stroke="#191970" d="M1689.4866,-493.1306C1690.3372,-503.3954 1690.1884,-515.7699 1689.0404,-525.2967"/>
<polygon fill="#191970" stroke="#191970" points="1692.9364,-492.5178 1688.1715,-483.055 1685.9953,-493.4239 1692.9364,-492.5178"/>
</g>
<!-- Node20 -->
<g id="node5" class="node">
<title>Node20</title>
<g id="a_node5"><a xlink:href="$2Dfold_8h.html" xlink:title="MFE structures for base pair distance classes.">
<polygon fill="none" stroke="#000000" points="1778.2796,-129 1778.2796,-148 1886.2796,-148 1886.2796,-129 1778.2796,-129"/>
<text text-anchor="middle" x="1832.2796" y="-136" font-family="Helvetica,sans-Serif" font-size="10.00" fill="#000000">ViennaRNA/2Dfold.h</text>
</a>
</g>
</g>
<!-- Node19&#45;&gt;Node20 -->
<g id="edge4" class="edge">
<title>Node19&#45;&gt;Node20</title>
<path fill="none" stroke="#191970" d="M1766.4484,-468.5149C1889.7535,-460.4665 2109.7608,-443.3337 2139.2796,-422 2171.9984,-398.3535 2177.2796,-379.8693 2177.2796,-339.5 2177.2796,-339.5 2177.2796,-339.5 2177.2796,-272.5 2177.2796,-232.1307 2171.5915,-214.1996 2139.2796,-190 2051.5401,-124.2886 2002.8446,-175.118 1895.2796,-154 1886.548,-152.2857 1877.2059,-150.1534 1868.4617,-148.0243"/>
<polygon fill="#191970" stroke="#191970" points="1766.0381,-465.034 1756.2848,-469.172 1766.4898,-472.0194 1766.0381,-465.034"/>
</g>
<!-- Node21 -->
<g id="node6" class="node">
<title>Node21</title>
<g id="a_node6"><a xlink:href="$2Dpfold_8h.html" xlink:title="Partition function implementations for base pair distance classes.">
<polygon fill="none" stroke="#000000" points="1646.7796,-129 1646.7796,-148 1759.7796,-148 1759.7796,-129 1646.7796,-129"/>
<text text-anchor="middle" x="1703.2796" y="-136" font-family="Helvetica,sans-Serif" font-size="10.00" fill="#000000">ViennaRNA/2Dpfold.h</text>
</a>
</g>
</g>
<!-- Node19&#45;&gt;Node21 -->
<g id="edge5" class="edge">
<title>Node19&#45;&gt;Node21</title>
<path fill="none" stroke="#191970" d="M1766.6011,-468.4852C1884.6562,-460.6452 2089.2476,-444.0682 2115.2796,-422 2144.4081,-397.3068 2139.2796,-377.6867 2139.2796,-339.5 2139.2796,-339.5 2139.2796,-339.5 2139.2796,-272.5 2139.2796,-234.3133 2144.5922,-214.4743 2115.2796,-190 2055.94,-140.4549 1845.5059,-166.8629 1769.2796,-154 1759.7627,-152.3941 1749.5709,-150.2266 1740.1131,-148.0222"/>
<polygon fill="#191970" stroke="#191970" points="1766.2548,-465.0003 1756.5058,-469.1484 1766.7137,-471.9853 1766.2548,-465.0003"/>
</g>
<!-- Node22 -->
<g id="node7" class="node">
<title>Node22</title>
<g id="a_node7"><a xlink:href="$alphabet_8h.html" xlink:title="Functions to process, convert, and generally handle different nucleotide and/or base pair alphabets.">
<polygon fill="none" stroke="#ff0000" points="1845.2796,-397 1845.2796,-416 1961.2796,-416 1961.2796,-397 1845.2796,-397"/>
<text text-anchor="middle" x="1903.2796" y="-404" font-family="Helvetica,sans-Serif" font-size="10.00" fill="#000000">ViennaRNA/alphabet.h</text>
</a>
</g>
</g>
<!-- Node19&#45;&gt;Node22 -->
<g id="edge6" class="edge">
<title>Node19&#45;&gt;Node22</title>
<path fill="none" stroke="#191970" d="M1724.6082,-460.9136C1767.3438,-447.8986 1833.1267,-427.8647 1871.8174,-416.0817"/>
<polygon fill="#191970" stroke="#191970" points="1723.3467,-457.6389 1714.8002,-463.9005 1725.3861,-464.3353 1723.3467,-457.6389"/>
</g>
<!-- Node24 -->
<g id="node8" class="node">
<title>Node24</title>
<g id="a_node8"><a xlink:href="$boltzmann__sampling_8h.html" xlink:title="Boltzmann Sampling of secondary structures from the ensemble.">
<polygon fill="none" stroke="#000000" points="10.2796,-123.5 10.2796,-153.5 126.2796,-153.5 126.2796,-123.5 10.2796,-123.5"/>
<text text-anchor="start" x="18.2796" y="-141.5" font-family="Helvetica,sans-Serif" font-size="10.00" fill="#000000">ViennaRNA/boltzmann</text>
<text text-anchor="middle" x="68.2796" y="-130.5" font-family="Helvetica,sans-Serif" font-size="10.00" fill="#000000">_sampling.h</text>
</a>
</g>
</g>
<!-- Node19&#45;&gt;Node24 -->
<g id="edge7" class="edge">
<title>Node19&#45;&gt;Node24</title>
<path fill="none" stroke="#191970" d="M1629.9279,-462.1196C1620.4259,-460.4637 1610.5904,-458.9872 1601.2796,-458 1519.878,-449.3696 196.2124,-467.6708 128.2796,-422 95.0794,-399.6798 92.2796,-379.5056 92.2796,-339.5 92.2796,-339.5 92.2796,-339.5 92.2796,-272.5 92.2796,-228.777 79.746,-178.2683 72.7938,-153.6149"/>
<polygon fill="#191970" stroke="#191970" points="1629.6008,-465.6177 1640.0671,-463.9722 1630.859,-458.7317 1629.6008,-465.6177"/>
</g>
<!-- Node26 -->
<g id="node10" class="node">
<title>Node26</title>
<g id="a_node10"><a xlink:href="$part__func_8h.html" xlink:title="Partition function implementations.">
<polygon fill="none" stroke="#ff0000" points="290.2796,-62 290.2796,-81 410.2796,-81 410.2796,-62 290.2796,-62"/>
<text text-anchor="middle" x="350.2796" y="-69" font-family="Helvetica,sans-Serif" font-size="10.00" fill="#000000">ViennaRNA/part_func.h</text>
</a>
</g>
</g>
<!-- Node19&#45;&gt;Node26 -->
<g id="edge85" class="edge">
<title>Node19&#45;&gt;Node26</title>
<path fill="none" stroke="#191970" d="M1629.926,-462.1374C1620.4242,-460.4796 1610.5893,-458.9978 1601.2796,-458 1452.4121,-442.0447 395.8824,-470.6286 254.2796,-422 195.807,-401.9196 142.2796,-401.3245 142.2796,-339.5 142.2796,-339.5 142.2796,-339.5 142.2796,-272.5 142.2796,-234.8735 140.3784,-221.2872 161.2796,-190 200.2189,-131.7113 278.5754,-96.6092 321.1452,-81.0444"/>
<polygon fill="#191970" stroke="#191970" points="1629.5987,-465.6355 1640.0651,-463.9909 1630.8575,-458.7496 1629.5987,-465.6355"/>
</g>
<!-- Node28 -->
<g id="node11" class="node">
<title>Node28</title>
<g id="a_node11"><a xlink:href="$centroid_8h.html" xlink:title="Centroid structure computation.">
<polygon fill="none" stroke="#000000" points="170.2796,-196 170.2796,-215 284.2796,-215 284.2796,-196 170.2796,-196"/>
<text text-anchor="middle" x="227.2796" y="-203" font-family="Helvetica,sans-Serif" font-size="10.00" fill="#000000">ViennaRNA/centroid.h</text>
</a>
</g>
</g>
<!-- Node19&#45;&gt;Node28 -->
<g id="edge11" class="edge">
<title>Node19&#45;&gt;Node28</title>
<path fill="none" stroke="#191970" d="M1629.9255,-462.1422C1620.4238,-460.4838 1610.589,-459.0006 1601.2796,-458 1528.5048,-450.1778 341.635,-467.4721 284.2796,-422 218.1878,-369.6016 223.1866,-250.475 226.2435,-215.3948"/>
<polygon fill="#191970" stroke="#191970" points="1629.5981,-465.6402 1640.0645,-463.9958 1630.8571,-458.7544 1629.5981,-465.6402"/>
</g>
<!-- Node29 -->
<g id="node12" class="node">
<title>Node29</title>
<g id="a_node12"><a xlink:href="$combinatorics_8h.html" xlink:title="Various implementations that deal with combinatorial aspects of objects.">
<polygon fill="none" stroke="#000000" points="2413.2796,-397 2413.2796,-416 2553.2796,-416 2553.2796,-397 2413.2796,-397"/>
<text text-anchor="middle" x="2483.2796" y="-404" font-family="Helvetica,sans-Serif" font-size="10.00" fill="#000000">ViennaRNA/combinatorics.h</text>
</a>
</g>
</g>
<!-- Node19&#45;&gt;Node29 -->
<g id="edge13" class="edge">
<title>Node19&#45;&gt;Node29</title>
<path fill="none" stroke="#191970" d="M1766.6488,-470.499C1900.496,-465.0088 2171.418,-451.1269 2399.2796,-422 2411.4888,-420.4393 2424.6109,-418.2613 2436.7707,-416.0304"/>
<polygon fill="#191970" stroke="#191970" points="1766.3203,-467.0094 1756.4701,-470.9112 1766.6035,-474.0037 1766.3203,-467.0094"/>
</g>
<!-- Node30 -->
<g id="node13" class="node">
<title>Node30</title>
<g id="a_node13"><a xlink:href="$commands_8h.html" xlink:title="Parse and apply different commands that alter the behavior of secondary structure prediction and eval...">
<polygon fill="none" stroke="#000000" points="293.2796,-397 293.2796,-416 421.2796,-416 421.2796,-397 293.2796,-397"/>
<text text-anchor="middle" x="357.2796" y="-404" font-family="Helvetica,sans-Serif" font-size="10.00" fill="#000000">ViennaRNA/commands.h</text>
</a>
</g>
</g>
<!-- Node19&#45;&gt;Node30 -->
<g id="edge14" class="edge">
<title>Node19&#45;&gt;Node30</title>
<path fill="none" stroke="#191970" d="M1629.5985,-462.1132C1620.1977,-460.4746 1610.4814,-459.0055 1601.2796,-458 1085.8785,-401.6798 950.412,-480.7271 435.2796,-422 423.3453,-420.6394 410.5141,-418.4135 398.7739,-416.0675"/>
<polygon fill="#191970" stroke="#191970" points="1629.1705,-465.5928 1639.6362,-463.9439 1630.4265,-458.7064 1629.1705,-465.5928"/>
</g>
<!-- Node31 -->
<g id="node14" class="node">
<title>Node31</title>
<g id="a_node14"><a xlink:href="$dp__matrices_8h.html" xlink:title="Functions to deal with standard dynamic programming (DP) matrices.">
<polygon fill="none" stroke="#000000" points="591.7796,-330 591.7796,-349 724.7796,-349 724.7796,-330 591.7796,-330"/>
<text text-anchor="middle" x="658.2796" y="-337" font-family="Helvetica,sans-Serif" font-size="10.00" fill="#000000">ViennaRNA/dp_matrices.h</text>
</a>
</g>
</g>
<!-- Node19&#45;&gt;Node31 -->
<g id="edge15" class="edge">
<title>Node19&#45;&gt;Node31</title>
<path fill="none" stroke="#191970" d="M1621.037,-462.2178C1611.3993,-460.5525 1601.5759,-459.0473 1592.2796,-458 1539.3546,-452.0373 671.2261,-460.3609 634.2796,-422 615.092,-402.0778 632.6486,-366.2831 646.656,-349.1507"/>
<polygon fill="#191970" stroke="#191970" points="1620.523,-465.6813 1630.9834,-463.9987 1621.7569,-458.7909 1620.523,-465.6813"/>
</g>
<!-- Node19&#45;&gt;Node32 -->
<g id="edge117" class="edge">
<title>Node19&#45;&gt;Node32</title>
<path fill="none" stroke="#191970" d="M1629.2673,-462.1189C1619.9683,-460.4959 1610.3716,-459.0305 1601.2796,-458 1550.179,-452.2082 711.9304,-459.0653 676.2796,-422 666.7285,-412.07 667.454,-401.58 676.2796,-391 713.5694,-346.2973 1100.4395,-297.9776 1259.0296,-279.8862"/>
<polygon fill="#191970" stroke="#191970" points="1628.7375,-465.58 1639.2029,-463.9288 1629.992,-458.6933 1628.7375,-465.58"/>
</g>
<!-- Node37 -->
<g id="node20" class="node">
<title>Node37</title>
<g id="a_node20"><a xlink:href="$equilibrium__probs_8h.html" xlink:title="Equilibrium Probability implementations.">
<polygon fill="none" stroke="#ff0000" points="291.2796,-123.5 291.2796,-153.5 409.2796,-153.5 409.2796,-123.5 291.2796,-123.5"/>
<text text-anchor="start" x="299.2796" y="-141.5" font-family="Helvetica,sans-Serif" font-size="10.00" fill="#000000">ViennaRNA/equilibrium</text>
<text text-anchor="middle" x="350.2796" y="-130.5" font-family="Helvetica,sans-Serif" font-size="10.00" fill="#000000">_probs.h</text>
</a>
</g>
</g>
<!-- Node19&#45;&gt;Node37 -->
<g id="edge76" class="edge">
<title>Node19&#45;&gt;Node37</title>
<path fill="none" stroke="#191970" d="M1629.5974,-462.1226C1620.1968,-460.4829 1610.4808,-459.0111 1601.2796,-458 1477.2951,-444.3758 587.9768,-483.1775 479.2796,-422 386.3551,-369.6998 378.6484,-323.2155 348.2796,-221 341.547,-198.3392 344.3239,-170.6174 347.1489,-153.7723"/>
<polygon fill="#191970" stroke="#191970" points="1629.1693,-465.6022 1639.6352,-463.9538 1630.4257,-458.7158 1629.1693,-465.6022"/>
</g>
<!-- Node38 -->
<g id="node21" class="node">
<title>Node38</title>
<g id="a_node21"><a xlink:href="$eval_8h.html" xlink:title="Functions and variables related to energy evaluation of sequence/structure pairs.">
<polygon fill="none" stroke="#000000" points="1050.2796,-129 1050.2796,-148 1148.2796,-148 1148.2796,-129 1050.2796,-129"/>
<text text-anchor="middle" x="1099.2796" y="-136" font-family="Helvetica,sans-Serif" font-size="10.00" fill="#000000">ViennaRNA/eval.h</text>
</a>
</g>
</g>
<!-- Node19&#45;&gt;Node38 -->
<g id="edge77" class="edge">
<title>Node19&#45;&gt;Node38</title>
<path fill="none" stroke="#191970" d="M1629.5931,-462.1616C1620.1929,-460.5176 1610.4782,-459.0342 1601.2796,-458 1494.1028,-445.9503 726.5311,-472.5884 631.2796,-422 598.6981,-404.6959 593.7347,-390.0681 582.2796,-355 549.8348,-255.6751 724.0935,-191.5069 727.2796,-190 783.4933,-163.4134 962.4697,-147.8543 1050.0537,-141.65"/>
<polygon fill="#191970" stroke="#191970" points="1629.1644,-465.6411 1639.6306,-463.9949 1630.4222,-458.7551 1629.1644,-465.6411"/>
</g>
<!-- Node42 -->
<g id="node24" class="node">
<title>Node42</title>
<g id="a_node24"><a xlink:href="$gquad_8h.html" xlink:title="G&#45;quadruplexes.">
<polygon fill="none" stroke="#000000" points="619.2796,-129 619.2796,-148 725.2796,-148 725.2796,-129 619.2796,-129"/>
<text text-anchor="middle" x="672.2796" y="-136" font-family="Helvetica,sans-Serif" font-size="10.00" fill="#000000">ViennaRNA/gquad.h</text>
</a>
</g>
</g>
<!-- Node19&#45;&gt;Node42 -->
<g id="edge78" class="edge">
<title>Node19&#45;&gt;Node42</title>
<path fill="none" stroke="#191970" d="M1629.5943,-462.1508C1620.194,-460.508 1610.479,-459.0278 1601.2796,-458 1545.5903,-451.7783 637.3721,-456.581 593.2796,-422 535.5497,-376.7234 558.946,-324.2477 588.2796,-257 607.8395,-212.1586 645.9934,-167.2278 663.3269,-148.0946"/>
<polygon fill="#191970" stroke="#191970" points="1629.1658,-465.6303 1639.6319,-463.9835 1630.4232,-458.7441 1629.1658,-465.6303"/>
</g>
<!-- Node45 -->
<g id="node26" class="node">
<title>Node45</title>
<g id="a_node26"><a xlink:href="$mfe_8h.html" xlink:title="Compute Minimum Free energy (MFE) and backtrace corresponding secondary structures from RNA sequence ...">
<polygon fill="none" stroke="#000000" points="1373.2796,-196 1373.2796,-215 1469.2796,-215 1469.2796,-196 1373.2796,-196"/>
<text text-anchor="middle" x="1421.2796" y="-203" font-family="Helvetica,sans-Serif" font-size="10.00" fill="#000000">ViennaRNA/mfe.h</text>
</a>
</g>
</g>
<!-- Node19&#45;&gt;Node45 -->
<g id="edge82" class="edge">
<title>Node19&#45;&gt;Node45</title>
<path fill="none" stroke="#191970" d="M1682.4787,-453.7506C1680.935,-436.0587 1676.5532,-410.0406 1664.2796,-391 1606.4805,-301.3341 1489.6417,-238.1164 1442.1055,-215.0914"/>
<polygon fill="#191970" stroke="#191970" points="1678.9895,-454.0324 1683.1282,-463.7854 1685.9749,-453.5802 1678.9895,-454.0324"/>
</g>
<!-- Node47 -->
<g id="node27" class="node">
<title>Node47</title>
<g id="a_node27"><a xlink:href="$part__func__window_8h.html" xlink:title="Partition function and equilibrium probability implementation for the sliding window algorithm.">
<polygon fill="none" stroke="#000000" points="378.2796,-190.5 378.2796,-220.5 490.2796,-220.5 490.2796,-190.5 378.2796,-190.5"/>
<text text-anchor="start" x="386.2796" y="-208.5" font-family="Helvetica,sans-Serif" font-size="10.00" fill="#000000">ViennaRNA/part_func</text>
<text text-anchor="middle" x="434.2796" y="-197.5" font-family="Helvetica,sans-Serif" font-size="10.00" fill="#000000">_window.h</text>
</a>
</g>
</g>
<!-- Node19&#45;&gt;Node47 -->
<g id="edge86" class="edge">
<title>Node19&#45;&gt;Node47</title>
<path fill="none" stroke="#191970" d="M1629.5966,-462.1299C1620.1961,-460.4894 1610.4803,-459.0154 1601.2796,-458 1541.0567,-451.3536 560.1992,-457.747 511.2796,-422 444.4436,-373.1611 435.3671,-261.2571 434.3268,-220.6089"/>
<polygon fill="#191970" stroke="#191970" points="1629.1684,-465.6095 1639.6343,-463.9615 1630.425,-458.7232 1629.1684,-465.6095"/>
</g>
<!-- Node53 -->
<g id="node28" class="node">
<title>Node53</title>
<g id="a_node28"><a xlink:href="$subopt_8h.html" xlink:title="RNAsubopt and density of states declarations.">
<polygon fill="none" stroke="#000000" points="1480.7796,-129 1480.7796,-148 1589.7796,-148 1589.7796,-129 1480.7796,-129"/>
<text text-anchor="middle" x="1535.2796" y="-136" font-family="Helvetica,sans-Serif" font-size="10.00" fill="#000000">ViennaRNA/subopt.h</text>
</a>
</g>
</g>
<!-- Node19&#45;&gt;Node53 -->
<g id="edge90" class="edge">
<title>Node19&#45;&gt;Node53</title>
<path fill="none" stroke="#191970" d="M1766.5834,-467.5243C1853.6223,-460.1441 1983.4914,-445.589 2027.2796,-422 2070.6434,-398.6396 2101.2796,-388.7557 2101.2796,-339.5 2101.2796,-339.5 2101.2796,-339.5 2101.2796,-272.5 2101.2796,-234.8735 2110.7484,-214.6024 2082.2796,-190 2044.8306,-157.6372 1687.4471,-159.686 1638.2796,-154 1622.5615,-152.1823 1605.5552,-149.7963 1589.9776,-147.443"/>
<polygon fill="#191970" stroke="#191970" points="1766.1294,-464.0499 1756.4542,-468.3673 1766.7101,-471.0258 1766.1294,-464.0499"/>
</g>
<!-- Node54 -->
<g id="node29" class="node">
<title>Node54</title>
<g id="a_node29"><a xlink:href="$unstructured__domains_8h.html" xlink:title="Functions to modify unstructured domains, e.g. to incorporate ligands binding to unpaired stretches.">
<polygon fill="none" stroke="#000000" points="1947.7796,-190.5 1947.7796,-220.5 2072.7796,-220.5 2072.7796,-190.5 1947.7796,-190.5"/>
<text text-anchor="start" x="1955.7796" y="-208.5" font-family="Helvetica,sans-Serif" font-size="10.00" fill="#000000">ViennaRNA/unstructured</text>
<text text-anchor="middle" x="2010.2796" y="-197.5" font-family="Helvetica,sans-Serif" font-size="10.00" fill="#000000">_domains.h</text>
</a>
</g>
</g>
<!-- Node19&#45;&gt;Node54 -->
<g id="edge91" class="edge">
<title>Node19&#45;&gt;Node54</title>
<path fill="none" stroke="#191970" d="M1766.6957,-464.3193C1851.1893,-454.5883 1971.3689,-438.3894 1986.2796,-422 2038.3835,-364.7289 2016.5019,-259.896 2010.4968,-220.7647"/>
<polygon fill="#191970" stroke="#191970" points="1766.1168,-460.8625 1756.578,-465.4735 1766.9103,-467.8174 1766.1168,-460.8625"/>
</g>
<!-- Node55 -->
<g id="node30" class="node">
<title>Node55</title>
<g id="a_node30"><a xlink:href="$params_2basic_8h.html" xlink:title="Functions to deal with sets of energy parameters.">
<polygon fill="none" stroke="#ff0000" points="1563.2796,-196 1563.2796,-215 1701.2796,-215 1701.2796,-196 1563.2796,-196"/>
<text text-anchor="middle" x="1632.2796" y="-203" font-family="Helvetica,sans-Serif" font-size="10.00" fill="#000000">ViennaRNA/params/basic.h</text>
</a>
</g>
</g>
<!-- Node19&#45;&gt;Node55 -->
<g id="edge92" class="edge">
<title>Node19&#45;&gt;Node55</title>
<path fill="none" stroke="#191970" d="M1766.3945,-469.6036C1839.0098,-464.2665 1936.4623,-451.667 1961.2796,-422 1970.1198,-411.4322 1968.2973,-402.8566 1961.2796,-391 1897.3525,-282.994 1745.7513,-233.69 1672.7341,-215.0376"/>
<polygon fill="#191970" stroke="#191970" points="1766.054,-466.1188 1756.3232,-470.3095 1766.5435,-473.1017 1766.054,-466.1188"/>
</g>
<!-- Node58 -->
<g id="node31" class="node">
<title>Node58</title>
<g id="a_node31"><a xlink:href="$external_8h.html" xlink:title="Energy evaluation of exterior loops for MFE and partition function calculations.">
<polygon fill="none" stroke="#ff0000" points="2056.2796,-129 2056.2796,-148 2196.2796,-148 2196.2796,-129 2056.2796,-129"/>
<text text-anchor="middle" x="2126.2796" y="-136" font-family="Helvetica,sans-Serif" font-size="10.00" fill="#000000">ViennaRNA/loops/external.h</text>
</a>
</g>
</g>
<!-- Node19&#45;&gt;Node58 -->
<g id="edge93" class="edge">
<title>Node19&#45;&gt;Node58</title>
<path fill="none" stroke="#191970" d="M1766.2888,-469.0794C1902.5369,-461.2501 2162.1689,-443.7063 2198.2796,-422 2236.049,-399.2966 2253.2796,-383.5678 2253.2796,-339.5 2253.2796,-339.5 2253.2796,-339.5 2253.2796,-272.5 2253.2796,-211.1199 2182.2137,-166.5872 2146.4031,-148.0434"/>
<polygon fill="#191970" stroke="#191970" points="1766.0818,-465.5855 1756.2972,-469.6489 1766.4802,-472.5741 1766.0818,-465.5855"/>
</g>
<!-- Node62 -->
<g id="node33" class="node">
<title>Node62</title>
<g id="a_node33"><a xlink:href="$hairpin_8h.html" xlink:title="Energy evaluation of hairpin loops for MFE and partition function calculations.">
<polygon fill="none" stroke="#ff0000" points="1904.2796,-129 1904.2796,-148 2038.2796,-148 2038.2796,-129 1904.2796,-129"/>
<text text-anchor="middle" x="1971.2796" y="-136" font-family="Helvetica,sans-Serif" font-size="10.00" fill="#000000">ViennaRNA/loops/hairpin.h</text>
</a>
</g>
</g>
<!-- Node19&#45;&gt;Node62 -->
<g id="edge94" class="edge">
<title>Node19&#45;&gt;Node62</title>
<path fill="none" stroke="#191970" d="M1766.7681,-468.716C1896.3512,-460.6813 2134.4823,-443.2508 2167.2796,-422 2202.8807,-398.9324 2215.2796,-381.9212 2215.2796,-339.5 2215.2796,-339.5 2215.2796,-339.5 2215.2796,-272.5 2215.2796,-230.0788 2201.0401,-215.6862 2167.2796,-190 2155.0646,-180.7064 2068.4338,-160.1539 2014.5124,-148.0097"/>
<polygon fill="#191970" stroke="#191970" points="1766.2518,-465.2411 1756.4854,-469.348 1766.6813,-472.2279 1766.2518,-465.2411"/>
</g>
<!-- Node19&#45;&gt;Node64 -->
<g id="edge95" class="edge">
<title>Node19&#45;&gt;Node64</title>
<path fill="none" stroke="#191970" d="M1766.447,-469.8604C1917.0948,-462.7257 2223.5646,-445.5224 2266.2796,-422 2306.6922,-399.7455 2329.2796,-385.6351 2329.2796,-339.5 2329.2796,-339.5 2329.2796,-339.5 2329.2796,-272.5 2329.2796,-211.0515 2400.5315,-166.7038 2436.7142,-148.145"/>
<polygon fill="#191970" stroke="#191970" points="1766.1393,-466.3709 1756.3145,-470.3362 1766.4677,-473.3632 1766.1393,-466.3709"/>
</g>
<!-- Node66 -->
<g id="node36" class="node">
<title>Node66</title>
<g id="a_node36"><a xlink:href="$multibranch_8h.html" xlink:title="Energy evaluation of multibranch loops for MFE and partition function calculations.">
<polygon fill="none" stroke="#ff0000" points="2214.2796,-129 2214.2796,-148 2370.2796,-148 2370.2796,-129 2214.2796,-129"/>
<text text-anchor="middle" x="2292.2796" y="-136" font-family="Helvetica,sans-Serif" font-size="10.00" fill="#000000">ViennaRNA/loops/multibranch.h</text>
</a>
</g>
</g>
<!-- Node19&#45;&gt;Node66 -->
<g id="edge96" class="edge">
<title>Node19&#45;&gt;Node66</title>
<path fill="none" stroke="#191970" d="M1766.5919,-469.4401C1909.9828,-461.8981 2191.9037,-444.433 2231.2796,-422 2270.6733,-399.5569 2291.2796,-384.8382 2291.2796,-339.5 2291.2796,-339.5 2291.2796,-339.5 2291.2796,-272.5 2291.2796,-225.9709 2291.8899,-170.3564 2292.157,-148.2516"/>
<polygon fill="#191970" stroke="#191970" points="1766.3165,-465.9496 1756.5124,-469.9659 1766.6812,-472.9401 1766.3165,-465.9496"/>
</g>
<!-- Node68 -->
<g id="node37" class="node">
<title>Node68</title>
<g id="a_node37"><a xlink:href="$ligand_8h.html" xlink:title="Functions for incorporation of ligands binding to hairpin and interior loop motifs using the soft con...">
<polygon fill="none" stroke="#ff0000" points="2582.7796,-190.5 2582.7796,-220.5 2701.7796,-220.5 2701.7796,-190.5 2582.7796,-190.5"/>
<text text-anchor="start" x="2590.7796" y="-208.5" font-family="Helvetica,sans-Serif" font-size="10.00" fill="#000000">ViennaRNA/constraints</text>
<text text-anchor="middle" x="2642.2796" y="-197.5" font-family="Helvetica,sans-Serif" font-size="10.00" fill="#000000">/ligand.h</text>
</a>
</g>
</g>
<!-- Node19&#45;&gt;Node68 -->
<g id="edge106" class="edge">
<title>Node19&#45;&gt;Node68</title>
<path fill="none" stroke="#191970" d="M1766.4474,-471.1304C1983.0823,-464.6404 2550.3282,-445.4864 2583.2796,-422 2649.2654,-374.968 2646.9735,-261.4392 2643.7942,-220.5193"/>
<polygon fill="#191970" stroke="#191970" points="1766.2913,-467.6334 1756.4,-471.4299 1766.4999,-474.6303 1766.2913,-467.6334"/>
</g>
<!-- Node85 -->
<g id="node38" class="node">
<title>Node85</title>
<g id="a_node38"><a xlink:href="$grammar_8h.html" xlink:title="Implementations for the RNA folding grammar.">
<polygon fill="none" stroke="#000000" points="1403.7796,-397 1403.7796,-416 1520.7796,-416 1520.7796,-397 1403.7796,-397"/>
<text text-anchor="middle" x="1462.2796" y="-404" font-family="Helvetica,sans-Serif" font-size="10.00" fill="#000000">ViennaRNA/grammar.h</text>
</a>
</g>
</g>
<!-- Node19&#45;&gt;Node85 -->
<g id="edge79" class="edge">
<title>Node19&#45;&gt;Node85</title>
<path fill="none" stroke="#191970" d="M1636.9209,-461.0779C1592.0362,-448.0678 1525.7225,-427.9145 1488.9876,-416.0817"/>
<polygon fill="#191970" stroke="#191970" points="1636.1369,-464.4944 1646.7151,-463.9005 1638.0754,-457.7681 1636.1369,-464.4944"/>
</g>
<!-- Node86 -->
<g id="node39" class="node">
<title>Node86</title>
<g id="a_node39"><a xlink:href="$mfe__window_8h.html" xlink:title="Compute local Minimum Free Energy (MFE) using a sliding window approach and backtrace corresponding s...">
<polygon fill="none" stroke="#ff0000" points="685.2796,-397 685.2796,-416 819.2796,-416 819.2796,-397 685.2796,-397"/>
<text text-anchor="middle" x="752.2796" y="-404" font-family="Helvetica,sans-Serif" font-size="10.00" fill="#000000">ViennaRNA/mfe_window.h</text>
</a>
</g>
</g>
<!-- Node19&#45;&gt;Node86 -->
<g id="edge83" class="edge">
<title>Node19&#45;&gt;Node86</title>
<path fill="none" stroke="#191970" d="M1629.2605,-462.178C1619.9622,-460.5482 1610.3676,-459.0652 1601.2796,-458 1259.6901,-417.9618 1169.5726,-464.4912 828.2796,-422 816.7875,-420.5692 804.4398,-418.3505 793.1082,-416.0347"/>
<polygon fill="#191970" stroke="#191970" points="1628.7297,-465.6389 1639.1957,-463.9914 1629.9866,-458.7527 1628.7297,-465.6389"/>
</g>
<!-- Node88 -->
<g id="node40" class="node">
<title>Node88</title>
<g id="a_node40"><a xlink:href="$mm_8h.html" xlink:title="Several Maximum Matching implementations.">
<polygon fill="none" stroke="#000000" points="837.2796,-397 837.2796,-416 933.2796,-416 933.2796,-397 837.2796,-397"/>
<text text-anchor="middle" x="885.2796" y="-404" font-family="Helvetica,sans-Serif" font-size="10.00" fill="#000000">ViennaRNA/mm.h</text>
</a>
</g>
</g>
<!-- Node19&#45;&gt;Node88 -->
<g id="edge84" class="edge">
<title>Node19&#45;&gt;Node88</title>
<path fill="none" stroke="#191970" d="M1628.635,-462.1317C1619.5311,-460.5369 1610.1621,-459.0773 1601.2796,-458 1310.088,-422.6824 1231.8567,-468.7442 942.2796,-422 933.5728,-420.5945 924.2832,-418.3841 915.785,-416.0682"/>
<polygon fill="#191970" stroke="#191970" points="1628.2955,-465.6273 1638.7609,-463.9764 1629.5501,-458.7407 1628.2955,-465.6273"/>
</g>
<!-- Node89 -->
<g id="node41" class="node">
<title>Node89</title>
<g id="a_node41"><a xlink:href="$perturbation__fold_8h.html" xlink:title="Find a vector of perturbation energies that minimizes the discripancies between predicted and observe...">
<polygon fill="none" stroke="#000000" points="951.2796,-391.5 951.2796,-421.5 1073.2796,-421.5 1073.2796,-391.5 951.2796,-391.5"/>
<text text-anchor="start" x="959.2796" y="-409.5" font-family="Helvetica,sans-Serif" font-size="10.00" fill="#000000">ViennaRNA/perturbation</text>
<text text-anchor="middle" x="1012.2796" y="-398.5" font-family="Helvetica,sans-Serif" font-size="10.00" fill="#000000">_fold.h</text>
</a>
</g>
</g>
<!-- Node19&#45;&gt;Node89 -->
<g id="edge87" class="edge">
<title>Node19&#45;&gt;Node89</title>
<path fill="none" stroke="#191970" d="M1627.978,-462.1309C1619.0783,-460.5657 1609.9451,-459.1156 1601.2796,-458 1371.9513,-428.4761 1311.1212,-455.0854 1082.2796,-422 1079.4462,-421.5904 1076.5569,-421.1292 1073.6446,-420.6291"/>
<polygon fill="#191970" stroke="#191970" points="1627.4243,-465.5875 1637.8894,-463.9351 1628.678,-458.7007 1627.4243,-465.5875"/>
</g>
<!-- Node90 -->
<g id="node42" class="node">
<title>Node90</title>
<g id="a_node42"><a xlink:href="$sequence_8h.html" xlink:title="Functions and data structures related to sequence representations ,.">
<polygon fill="none" stroke="#000000" points="1091.2796,-397 1091.2796,-416 1213.2796,-416 1213.2796,-397 1091.2796,-397"/>
<text text-anchor="middle" x="1152.2796" y="-404" font-family="Helvetica,sans-Serif" font-size="10.00" fill="#000000">ViennaRNA/sequence.h</text>
</a>
</g>
</g>
<!-- Node19&#45;&gt;Node90 -->
<g id="edge88" class="edge">
<title>Node19&#45;&gt;Node90</title>
<path fill="none" stroke="#191970" d="M1618.4177,-462.2092C1609.6161,-460.6616 1600.7218,-459.1962 1592.2796,-458 1424.7505,-434.2614 1380.4194,-448.3401 1213.2796,-422 1203.1974,-420.4111 1192.3921,-418.2498 1182.6571,-416.0458"/>
<polygon fill="#191970" stroke="#191970" points="1617.8255,-465.6588 1628.2867,-463.9814 1619.0628,-458.769 1617.8255,-465.6588"/>
</g>
<!-- Node91 -->
<g id="node43" class="node">
<title>Node91</title>
<g id="a_node43"><a xlink:href="$constraints_2basic_8h.html" xlink:title="Functions and data structures for constraining secondary structure predictions and evaluation.">
<polygon fill="none" stroke="#000000" points="2685.7796,-391.5 2685.7796,-421.5 2804.7796,-421.5 2804.7796,-391.5 2685.7796,-391.5"/>
<text text-anchor="start" x="2693.7796" y="-409.5" font-family="Helvetica,sans-Serif" font-size="10.00" fill="#000000">ViennaRNA/constraints</text>
<text text-anchor="middle" x="2745.2796" y="-398.5" font-family="Helvetica,sans-Serif" font-size="10.00" fill="#000000">/basic.h</text>
</a>
</g>
</g>
<!-- Node19&#45;&gt;Node91 -->
<g id="edge97" class="edge">
<title>Node19&#45;&gt;Node91</title>
<path fill="none" stroke="#191970" d="M1766.5993,-470.8147C1971.7626,-463.9354 2497.2893,-444.619 2671.2796,-422 2675.9655,-421.3908 2680.7969,-420.6465 2685.6402,-419.817"/>
<polygon fill="#191970" stroke="#191970" points="1766.3634,-467.3206 1756.4858,-471.1525 1766.5971,-474.3167 1766.3634,-467.3206"/>
</g>
<!-- Node92 -->
<g id="node44" class="node">
<title>Node92</title>
<g id="a_node44"><a xlink:href="$hard_8h.html" xlink:title="Functions and data structures for handling of secondary structure hard constraints.">
<polygon fill="none" stroke="#ff0000" points="2357.7796,-324.5 2357.7796,-354.5 2476.7796,-354.5 2476.7796,-324.5 2357.7796,-324.5"/>
<text text-anchor="start" x="2365.7796" y="-342.5" font-family="Helvetica,sans-Serif" font-size="10.00" fill="#000000">ViennaRNA/constraints</text>
<text text-anchor="middle" x="2417.2796" y="-331.5" font-family="Helvetica,sans-Serif" font-size="10.00" fill="#000000">/hard.h</text>
</a>
</g>
</g>
<!-- Node19&#45;&gt;Node92 -->
<g id="edge105" class="edge">
<title>Node19&#45;&gt;Node92</title>
<path fill="none" stroke="#191970" d="M1766.6301,-470.2511C1930.8213,-463.5429 2284.2855,-446.6927 2334.2796,-422 2364.4689,-407.0891 2387.964,-374.0119 2402.6846,-354.573"/>
<polygon fill="#191970" stroke="#191970" points="1766.4204,-466.7566 1756.5704,-470.6591 1766.7041,-473.7508 1766.4204,-466.7566"/>
</g>
<!-- Node94 -->
<g id="node45" class="node">
<title>Node94</title>
<g id="a_node45"><a xlink:href="$SHAPE_8h.html" xlink:title="This module provides function to incorporate SHAPE reactivity data into the folding recursions by mea...">
<polygon fill="none" stroke="#ff0000" points="2758.7796,-257.5 2758.7796,-287.5 2877.7796,-287.5 2877.7796,-257.5 2758.7796,-257.5"/>
<text text-anchor="start" x="2766.7796" y="-275.5" font-family="Helvetica,sans-Serif" font-size="10.00" fill="#000000">ViennaRNA/constraints</text>
<text text-anchor="middle" x="2818.2796" y="-264.5" font-family="Helvetica,sans-Serif" font-size="10.00" fill="#000000">/SHAPE.h</text>
</a>
</g>
</g>
<!-- Node19&#45;&gt;Node94 -->
<g id="edge107" class="edge">
<title>Node19&#45;&gt;Node94</title>
<path fill="none" stroke="#191970" d="M1766.5532,-470.3786C1990.7955,-461.7875 2593.183,-437.4097 2633.2796,-422 2652.9379,-414.445 2758.7426,-323.9968 2800.9146,-287.564"/>
<polygon fill="#191970" stroke="#191970" points="1766.3442,-466.884 1756.4852,-470.7635 1766.6116,-473.8789 1766.3442,-466.884"/>
</g>
<!-- Node96 -->
<g id="node46" class="node">
<title>Node96</title>
<g id="a_node46"><a xlink:href="$landscape_2findpath_8h.html" xlink:title="A breadth&#45;first search heuristic for optimal direct folding paths.">
<polygon fill="none" stroke="#ff0000" points="1274.2796,-324.5 1274.2796,-354.5 1390.2796,-354.5 1390.2796,-324.5 1274.2796,-324.5"/>
<text text-anchor="start" x="1282.2796" y="-342.5" font-family="Helvetica,sans-Serif" font-size="10.00" fill="#000000">ViennaRNA/landscape</text>
<text text-anchor="middle" x="1332.2796" y="-331.5" font-family="Helvetica,sans-Serif" font-size="10.00" fill="#000000">/findpath.h</text>
</a>
</g>
</g>
<!-- Node19&#45;&gt;Node96 -->
<g id="edge110" class="edge">
<title>Node19&#45;&gt;Node96</title>
<path fill="none" stroke="#191970" d="M1623.3702,-462.0766C1615.934,-460.6879 1608.4335,-459.3012 1601.2796,-458 1509.8367,-441.3682 1474.7183,-470.2483 1395.2796,-422 1368.6323,-405.8154 1349.2296,-373.8292 1339.4493,-354.7894"/>
<polygon fill="#191970" stroke="#191970" points="1622.9583,-465.5603 1633.4321,-463.9637 1624.2487,-458.6802 1622.9583,-465.5603"/>
</g>
<!-- Node98 -->
<g id="node47" class="node">
<title>Node98</title>
<g id="a_node47"><a xlink:href="$landscape_2neighbor_8h.html" xlink:title="Methods to compute the neighbors of an RNA secondary structure.">
<polygon fill="none" stroke="#ff0000" points="1539.2796,-391.5 1539.2796,-421.5 1655.2796,-421.5 1655.2796,-391.5 1539.2796,-391.5"/>
<text text-anchor="start" x="1547.2796" y="-409.5" font-family="Helvetica,sans-Serif" font-size="10.00" fill="#000000">ViennaRNA/landscape</text>
<text text-anchor="middle" x="1597.2796" y="-398.5" font-family="Helvetica,sans-Serif" font-size="10.00" fill="#000000">/neighbor.h</text>
</a>
</g>
</g>
<!-- Node19&#45;&gt;Node98 -->
<g id="edge111" class="edge">
<title>Node19&#45;&gt;Node98</title>
<path fill="none" stroke="#191970" d="M1662.8853,-457.6115C1648.8571,-446.6825 1630.3437,-432.2592 1616.5613,-421.5218"/>
<polygon fill="#191970" stroke="#191970" points="1660.9183,-460.5158 1670.9579,-463.9005 1665.2203,-454.9937 1660.9183,-460.5158"/>
</g>
<!-- Node101 -->
<g id="node48" class="node">
<title>Node101</title>
<g id="a_node48"><a xlink:href="$paths_8h.html" xlink:title="API for computing (optimal) (re&#45;)folding paths between secondary structures.">
<polygon fill="none" stroke="#000000" points="1231.2796,-391.5 1231.2796,-421.5 1347.2796,-421.5 1347.2796,-391.5 1231.2796,-391.5"/>
<text text-anchor="start" x="1239.2796" y="-409.5" font-family="Helvetica,sans-Serif" font-size="10.00" fill="#000000">ViennaRNA/landscape</text>
<text text-anchor="middle" x="1289.2796" y="-398.5" font-family="Helvetica,sans-Serif" font-size="10.00" fill="#000000">/paths.h</text>
</a>
</g>
</g>
<!-- Node19&#45;&gt;Node101 -->
<g id="edge112" class="edge">
<title>Node19&#45;&gt;Node101</title>
<path fill="none" stroke="#191970" d="M1624.2715,-462.0687C1616.5457,-460.6534 1608.7288,-459.2623 1601.2796,-458 1494.9355,-439.9801 1467.388,-441.3596 1361.2796,-422 1356.7512,-421.1738 1352.0727,-420.2735 1347.3757,-419.3361"/>
<polygon fill="#191970" stroke="#191970" points="1623.8664,-465.5531 1634.3368,-463.9341 1625.142,-458.6703 1623.8664,-465.5531"/>
</g>
<!-- Node102 -->
<g id="node49" class="node">
<title>Node102</title>
<g id="a_node49"><a xlink:href="$landscape_2walk_8h.html" xlink:title="Methods to generate particular paths such as gradient or random walks through the energy landscape of...">
<polygon fill="none" stroke="#ff0000" points="1711.2796,-391.5 1711.2796,-421.5 1827.2796,-421.5 1827.2796,-391.5 1711.2796,-391.5"/>
<text text-anchor="start" x="1719.2796" y="-409.5" font-family="Helvetica,sans-Serif" font-size="10.00" fill="#000000">ViennaRNA/landscape</text>
<text text-anchor="middle" x="1769.2796" y="-398.5" font-family="Helvetica,sans-Serif" font-size="10.00" fill="#000000">/walk.h</text>
</a>
</g>
</g>
<!-- Node19&#45;&gt;Node102 -->
<g id="edge114" class="edge">
<title>Node19&#45;&gt;Node102</title>
<path fill="none" stroke="#191970" d="M1703.6738,-457.6115C1717.702,-446.6825 1736.2155,-432.2592 1749.9979,-421.5218"/>
<polygon fill="#191970" stroke="#191970" points="1701.3389,-454.9937 1695.6013,-463.9005 1705.6409,-460.5158 1701.3389,-454.9937"/>
</g>
<!-- Node103 -->
<g id="node50" class="node">
<title>Node103</title>
<g id="a_node50"><a xlink:href="$utils_2alignments_8h.html" xlink:title="Various utility&#45; and helper&#45;functions for sequence alignments and comparative structure prediction.">
<polygon fill="none" stroke="#ff0000" points="2481.2796,-263 2481.2796,-282 2629.2796,-282 2629.2796,-263 2481.2796,-263"/>
<text text-anchor="middle" x="2555.2796" y="-270" font-family="Helvetica,sans-Serif" font-size="10.00" fill="#000000">ViennaRNA/utils/alignments.h</text>
</a>
</g>
</g>
<!-- Node19&#45;&gt;Node103 -->
<g id="edge115" class="edge">
<title>Node19&#45;&gt;Node103</title>
<path fill="none" stroke="#191970" d="M1766.567,-470.1227C1983.2392,-461.1418 2548.7206,-436.3766 2562.2796,-422 2599.3609,-382.6825 2571.564,-308.5626 2559.8365,-282.1499"/>
<polygon fill="#191970" stroke="#191970" points="1766.3633,-466.628 1756.5165,-470.5383 1766.6526,-473.6221 1766.3633,-466.628"/>
</g>
<!-- Node25 -->
<g id="node9" class="node">
<title>Node25</title>
<g id="a_node9"><a xlink:href="$alifold_8h.html" xlink:title="Functions for comparative structure prediction using RNA sequence alignments.">
<polygon fill="none" stroke="#000000" points="950.7796,-.5 950.7796,-19.5 1055.7796,-19.5 1055.7796,-.5 950.7796,-.5"/>
<text text-anchor="middle" x="1003.2796" y="-7.5" font-family="Helvetica,sans-Serif" font-size="10.00" fill="#000000">ViennaRNA/alifold.h</text>
</a>
</g>
</g>
<!-- Node24&#45;&gt;Node25 -->
<g id="edge8" class="edge">
<title>Node24&#45;&gt;Node25</title>
<path fill="none" stroke="#191970" d="M107.6919,-119.0118C149.6076,-99.3036 218.4006,-69.8352 281.2796,-56 409.0067,-27.8962 806.707,-15.0758 950.6242,-11.2709"/>
<polygon fill="#191970" stroke="#191970" points="105.9307,-115.9736 98.4016,-123.4276 108.9358,-122.2957 105.9307,-115.9736"/>
</g>
<!-- Node24&#45;&gt;Node26 -->
<g id="edge9" class="edge">
<title>Node24&#45;&gt;Node26</title>
<path fill="none" stroke="#191970" d="M136.2598,-122.3487C190.5388,-109.4526 264.7569,-91.8192 310.0093,-81.0678"/>
<polygon fill="#191970" stroke="#191970" points="135.2883,-118.982 126.3682,-124.6988 136.9065,-125.7924 135.2883,-118.982"/>
</g>
<!-- Node26&#45;&gt;Node25 -->
<g id="edge10" class="edge">
<title>Node26&#45;&gt;Node25</title>
<path fill="none" stroke="#191970" d="M420.5256,-64.8842C552.2351,-52.4797 833.5332,-25.9868 950.5329,-14.9677"/>
<polygon fill="#191970" stroke="#191970" points="420.1695,-61.4021 410.5418,-65.8245 420.8259,-68.3713 420.1695,-61.4021"/>
</g>
<!-- Node28&#45;&gt;Node26 -->
<g id="edge12" class="edge">
<title>Node28&#45;&gt;Node26</title>
<path fill="none" stroke="#191970" d="M237.4118,-186.6275C247.407,-169.0181 263.8332,-142.5914 282.2796,-123 298.218,-106.0722 320.1827,-90.5376 334.7874,-81.054"/>
<polygon fill="#191970" stroke="#191970" points="234.0831,-185.4142 232.3032,-195.8584 240.2077,-188.8037 234.0831,-185.4142"/>
</g>
<!-- Node31&#45;&gt;Node19 -->
<g id="edge16" class="edge">
<title>Node31&#45;&gt;Node19</title>
<path fill="none" stroke="#191970" d="M653.4591,-358.6765C645.9675,-377.3415 636.165,-405.2685 652.2796,-422 689.2261,-460.3609 1557.3546,-452.0373 1610.2796,-458 1622.8051,-459.4112 1636.2876,-461.6533 1648.2769,-463.9987"/>
<polygon fill="#191970" stroke="#191970" points="656.8063,-359.7341 657.2971,-349.1507 650.3135,-357.1181 656.8063,-359.7341"/>
</g>
<!-- Node31&#45;&gt;Node32 -->
<g id="edge17" class="edge">
<title>Node31&#45;&gt;Node32</title>
<path fill="none" stroke="#191970" d="M704.9058,-328.104C713.3102,-326.581 722.0125,-325.1506 730.2796,-324 920.7697,-297.4877 1148.0504,-282.141 1258.9175,-275.8588"/>
<polygon fill="#191970" stroke="#191970" points="704.0321,-324.7069 694.8514,-329.9951 705.3261,-331.5862 704.0321,-324.7069"/>
</g>
<!-- Node32&#45;&gt;Node16 -->
<g id="edge75" class="edge">
<title>Node32&#45;&gt;Node16</title>
<path fill="none" stroke="#191970" d="M1248.8787,-274.1319C1114.436,-277.7629 829.6092,-289.1657 591.2796,-324 -385.1839,-466.72 152.4842,-268.7746 293.2796,-422 384.8127,-521.614 1369.6609,-537.5737 1623.7774,-540.0558"/>
<polygon fill="#191970" stroke="#191970" points="1249.172,-277.6255 1259.0765,-273.8637 1248.9879,-270.628 1249.172,-277.6255"/>
</g>
<!-- Node32&#45;&gt;Node20 -->
<g id="edge18" class="edge">
<title>Node32&#45;&gt;Node20</title>
<path fill="none" stroke="#191970" d="M1403.6991,-267.5381C1503.6203,-260.2853 1671.3958,-244.9844 1728.2796,-221 1769.0531,-203.8084 1807.1663,-165.9979 1823.6746,-148.1672"/>
<polygon fill="#191970" stroke="#191970" points="1403.3762,-264.0522 1393.6515,-268.2569 1403.8758,-271.0343 1403.3762,-264.0522"/>
</g>
<!-- Node32&#45;&gt;Node21 -->
<g id="edge19" class="edge">
<title>Node32&#45;&gt;Node21</title>
<path fill="none" stroke="#191970" d="M1403.4023,-267.533C1509.6896,-259.8901 1690.4093,-243.713 1710.2796,-221 1728.2623,-200.4445 1715.696,-164.9566 1708.0213,-148.0244"/>
<polygon fill="#191970" stroke="#191970" points="1403.0838,-264.0467 1393.3567,-268.2459 1403.5794,-271.0291 1403.0838,-264.0467"/>
</g>
<!-- Node32&#45;&gt;Node25 -->
<g id="edge21" class="edge">
<title>Node32&#45;&gt;Node25</title>
<path fill="none" stroke="#191970" d="M1248.6819,-271.5488C1094.6007,-268.8513 761.86,-258.6811 727.2796,-221 682.9296,-172.6733 913.1667,-54.1568 983.4208,-19.6023"/>
<polygon fill="#191970" stroke="#191970" points="1248.9565,-275.0538 1259.0142,-271.7231 1249.0747,-268.0548 1248.9565,-275.0538"/>
</g>
<!-- Node32&#45;&gt;Node26 -->
<g id="edge39" class="edge">
<title>Node32&#45;&gt;Node26</title>
<path fill="none" stroke="#191970" d="M1248.7493,-269.3651C1086.8582,-262.3908 723.6031,-244.3483 672.2796,-221 615.6368,-195.2319 626.8418,-152.9226 572.2796,-123 521.8044,-95.3188 456.9921,-82.4671 410.4451,-76.53"/>
<polygon fill="#191970" stroke="#191970" points="1248.9757,-272.8779 1259.1161,-269.8084 1249.2748,-265.8843 1248.9757,-272.8779"/>
</g>
<!-- Node32&#45;&gt;Node28 -->
<g id="edge22" class="edge">
<title>Node32&#45;&gt;Node28</title>
<path fill="none" stroke="#191970" d="M1249.0349,-270.8281C1082.1128,-266.7002 675.4285,-253.8689 336.2796,-221 319.3475,-219.359 301.0142,-216.9856 284.3005,-214.5874"/>
<polygon fill="#191970" stroke="#191970" points="1249.119,-274.3311 1259.2014,-271.076 1249.2897,-267.3331 1249.119,-274.3311"/>
</g>
<!-- Node32&#45;&gt;Node31 -->
<g id="edge25" class="edge">
<title>Node32&#45;&gt;Node31</title>
<path fill="none" stroke="#191970" d="M1248.9249,-277.1437C1137.7788,-284.1033 926.8618,-299.145 748.2796,-324 736.6512,-325.6184 724.1616,-327.7904 712.2599,-329.9951"/>
<polygon fill="#191970" stroke="#191970" points="1249.2748,-280.6288 1259.0386,-276.5154 1248.8408,-273.6422 1249.2748,-280.6288"/>
</g>
<!-- Node33 -->
<g id="node16" class="node">
<title>Node33</title>
<g id="a_node16"><a xlink:href="$ali__plex_8h_source.html" xlink:title=" ">
<polygon fill="none" stroke="#000000" points="736.7796,-196 736.7796,-215 849.7796,-215 849.7796,-196 736.7796,-196"/>
<text text-anchor="middle" x="793.2796" y="-203" font-family="Helvetica,sans-Serif" font-size="10.00" fill="#000000">ViennaRNA/ali_plex.h</text>
</a>
</g>
</g>
<!-- Node32&#45;&gt;Node33 -->
<g id="edge20" class="edge">
<title>Node32&#45;&gt;Node33</title>
<path fill="none" stroke="#191970" d="M1249.0804,-266.9673C1155.963,-259.6125 994.9022,-244.7119 858.2796,-221 849.0211,-219.3931 839.1141,-217.2513 829.896,-215.074"/>
<polygon fill="#191970" stroke="#191970" points="1249.019,-270.4731 1259.2613,-267.7627 1249.5643,-263.4943 1249.019,-270.4731"/>
</g>
<!-- Node34 -->
<g id="node17" class="node">
<title>Node34</title>
<g id="a_node17"><a xlink:href="$cofold_8h.html" xlink:title="MFE implementations for RNA&#45;RNA interaction.">
<polygon fill="none" stroke="#000000" points="1280.2796,-129 1280.2796,-148 1386.2796,-148 1386.2796,-129 1280.2796,-129"/>
<text text-anchor="middle" x="1333.2796" y="-136" font-family="Helvetica,sans-Serif" font-size="10.00" fill="#000000">ViennaRNA/cofold.h</text>
</a>
</g>
</g>
<!-- Node32&#45;&gt;Node34 -->
<g id="edge23" class="edge">
<title>Node32&#45;&gt;Node34</title>
<path fill="none" stroke="#191970" d="M1403.7303,-255.1328C1436.2682,-246.1228 1468.7893,-234.2357 1478.2796,-221 1486.308,-209.8031 1486.2261,-201.2552 1478.2796,-190 1466.223,-172.9234 1414.7178,-157.4789 1376.5018,-148.0529"/>
<polygon fill="#191970" stroke="#191970" points="1402.4089,-251.8634 1393.6572,-257.8349 1404.2226,-258.6244 1402.4089,-251.8634"/>
</g>
<!-- Node35 -->
<g id="node18" class="node">
<title>Node35</title>
<g id="a_node18"><a xlink:href="$data__structures_8h.html" xlink:title="Use ViennaRNA/datastructures/basic.h instead.">
<polygon fill="none" stroke="#000000" points="867.7796,-196 867.7796,-215 1014.7796,-215 1014.7796,-196 867.7796,-196"/>
<text text-anchor="middle" x="941.2796" y="-203" font-family="Helvetica,sans-Serif" font-size="10.00" fill="#000000">ViennaRNA/data_structures.h</text>
</a>
</g>
</g>
<!-- Node32&#45;&gt;Node35 -->
<g id="edge24" class="edge">
<title>Node32&#45;&gt;Node35</title>
<path fill="none" stroke="#191970" d="M1249.1109,-259.6838C1188.0557,-249.4608 1100.6599,-234.6436 1024.2796,-221 1013.7454,-219.1183 1002.4699,-217.0494 991.7325,-215.0531"/>
<polygon fill="#191970" stroke="#191970" points="1248.616,-263.1495 1259.0564,-261.3474 1249.7709,-256.2454 1248.616,-263.1495"/>
</g>
<!-- Node36 -->
<g id="node19" class="node">
<title>Node36</title>
<g id="a_node19"><a xlink:href="$duplex_8h.html" xlink:title="Functions for simple RNA&#45;RNA duplex interactions.">
<polygon fill="none" stroke="#000000" points="1033.2796,-196 1033.2796,-215 1141.2796,-215 1141.2796,-196 1033.2796,-196"/>
<text text-anchor="middle" x="1087.2796" y="-203" font-family="Helvetica,sans-Serif" font-size="10.00" fill="#000000">ViennaRNA/duplex.h</text>
</a>
</g>
</g>
<!-- Node32&#45;&gt;Node36 -->
<g id="edge26" class="edge">
<title>Node32&#45;&gt;Node36</title>
<path fill="none" stroke="#191970" d="M1262.8764,-254.7259C1217.4124,-241.9807 1157.9361,-225.3075 1121.1865,-215.0053"/>
<polygon fill="#191970" stroke="#191970" points="1262.0697,-258.1346 1272.6433,-257.4639 1263.9593,-251.3945 1262.0697,-258.1346"/>
</g>
<!-- Node32&#45;&gt;Node37 -->
<g id="edge27" class="edge">
<title>Node32&#45;&gt;Node37</title>
<path fill="none" stroke="#191970" d="M1248.8355,-270.8524C1026.9746,-265.8015 402.7561,-249.1455 369.2796,-221 349.817,-204.6368 347.9824,-172.7134 348.8386,-153.7331"/>
<polygon fill="#191970" stroke="#191970" points="1249.0157,-274.3573 1259.0922,-271.0842 1249.1738,-267.3591 1249.0157,-274.3573"/>
</g>
<!-- Node32&#45;&gt;Node38 -->
<g id="edge29" class="edge">
<title>Node32&#45;&gt;Node38</title>
<path fill="none" stroke="#191970" d="M1320.5027,-247.5399C1314.9728,-229.09 1304.8084,-204.7131 1287.2796,-190 1281.4313,-185.0911 1190.3686,-161.5021 1137.1645,-148.0152"/>
<polygon fill="#191970" stroke="#191970" points="1317.1684,-248.616 1323.1797,-257.3403 1323.921,-246.7715 1317.1684,-248.616"/>
</g>
<!-- Node39 -->
<g id="node22" class="node">
<title>Node39</title>
<g id="a_node22"><a xlink:href="$fold_8h.html" xlink:title="MFE calculations for single RNA sequences.">
<polygon fill="none" stroke="#000000" points="1128.7796,-62 1128.7796,-81 1223.7796,-81 1223.7796,-62 1128.7796,-62"/>
<text text-anchor="middle" x="1176.2796" y="-69" font-family="Helvetica,sans-Serif" font-size="10.00" fill="#000000">ViennaRNA/fold.h</text>
</a>
</g>
</g>
<!-- Node32&#45;&gt;Node39 -->
<g id="edge31" class="edge">
<title>Node32&#45;&gt;Node39</title>
<path fill="none" stroke="#191970" d="M1328.409,-247.4143C1328.5543,-229.4264 1325.7303,-205.6943 1312.2796,-190 1279.354,-151.5825 1240.1539,-189.6796 1204.2796,-154 1183.9034,-133.7344 1178.3495,-98.1061 1176.8402,-81.0822"/>
<polygon fill="#191970" stroke="#191970" points="1324.9084,-247.3654 1328.0209,-257.4927 1331.9032,-247.6348 1324.9084,-247.3654"/>
</g>
<!-- Node40 -->
<g id="node23" class="node">
<title>Node40</title>
<g id="a_node23"><a xlink:href="$fold__vars_8h.html" xlink:title="Here all all declarations of the global variables used throughout RNAlib.">
<polygon fill="none" stroke="#ff0000" points="1159.7796,-196 1159.7796,-215 1278.7796,-215 1278.7796,-196 1159.7796,-196"/>
<text text-anchor="middle" x="1219.2796" y="-203" font-family="Helvetica,sans-Serif" font-size="10.00" fill="#000000">ViennaRNA/fold_vars.h</text>
</a>
</g>
</g>
<!-- Node32&#45;&gt;Node40 -->
<g id="edge32" class="edge">
<title>Node32&#45;&gt;Node40</title>
<path fill="none" stroke="#191970" d="M1293.6118,-252.0445C1273.9935,-239.7601 1249.9462,-224.7025 1234.6172,-215.1039"/>
<polygon fill="#191970" stroke="#191970" points="1291.9336,-255.1232 1302.2667,-257.4639 1295.6487,-249.1903 1291.9336,-255.1232"/>
</g>
<!-- Node32&#45;&gt;Node42 -->
<g id="edge33" class="edge">
<title>Node32&#45;&gt;Node42</title>
<path fill="none" stroke="#191970" d="M1248.9824,-271.1211C1089.6419,-267.5794 736.0089,-255.8461 694.2796,-221 672.5475,-202.8526 670.9973,-165.8604 671.6112,-148.2453"/>
<polygon fill="#191970" stroke="#191970" points="1249.118,-274.6248 1259.1916,-271.3427 1249.2699,-267.6264 1249.118,-274.6248"/>
</g>
<!-- Node43 -->
<g id="node25" class="node">
<title>Node43</title>
<g id="a_node25"><a xlink:href="$LPfold_8h.html" xlink:title="Partition function and equilibrium probability implementation for the sliding window algorithm.">
<polygon fill="none" stroke="#000000" points="455.2796,-129 455.2796,-148 563.2796,-148 563.2796,-129 455.2796,-129"/>
<text text-anchor="middle" x="509.2796" y="-136" font-family="Helvetica,sans-Serif" font-size="10.00" fill="#000000">ViennaRNA/LPfold.h</text>
</a>
</g>
</g>
<!-- Node32&#45;&gt;Node43 -->
<g id="edge34" class="edge">
<title>Node32&#45;&gt;Node43</title>
<path fill="none" stroke="#191970" d="M1249.0582,-270.528C1070.3329,-265.4862 638.9498,-250.4014 580.2796,-221 547.674,-204.6604 523.8769,-166.0669 514.139,-148.0613"/>
<polygon fill="#191970" stroke="#191970" points="1249.0828,-274.03 1259.1765,-270.8103 1249.2781,-267.0327 1249.0828,-274.03"/>
</g>
<!-- Node32&#45;&gt;Node45 -->
<g id="edge35" class="edge">
<title>Node32&#45;&gt;Node45</title>
<path fill="none" stroke="#191970" d="M1356.4645,-251.2117C1373.6879,-239.0646 1394.4303,-224.4358 1407.7315,-215.055"/>
<polygon fill="#191970" stroke="#191970" points="1353.9914,-248.6729 1347.8366,-257.2967 1358.0259,-254.3934 1353.9914,-248.6729"/>
</g>
<!-- Node32&#45;&gt;Node47 -->
<g id="edge40" class="edge">
<title>Node32&#45;&gt;Node47</title>
<path fill="none" stroke="#191970" d="M1249.0203,-269.3991C1108.2181,-263.3088 800.5359,-247.9741 542.2796,-221 525.4181,-219.2389 507.146,-216.8146 490.5105,-214.4062"/>
<polygon fill="#191970" stroke="#191970" points="1249.1333,-272.9071 1259.2741,-269.839 1249.4334,-265.9135 1249.1333,-272.9071"/>
</g>
<!-- Node32&#45;&gt;Node53 -->
<g id="edge42" class="edge">
<title>Node32&#45;&gt;Node53</title>
<path fill="none" stroke="#191970" d="M1403.6064,-262.3735C1434.5867,-255.0823 1468.8799,-242.5469 1494.2796,-221 1517.4533,-201.3414 1528.8131,-165.419 1533.1302,-148.2032"/>
<polygon fill="#191970" stroke="#191970" points="1402.692,-258.991 1393.6797,-264.5613 1404.1987,-265.8269 1402.692,-258.991"/>
</g>
<!-- Node32&#45;&gt;Node54 -->
<g id="edge43" class="edge">
<title>Node32&#45;&gt;Node54</title>
<path fill="none" stroke="#191970" d="M1403.3421,-268.4591C1517.5455,-262.0733 1738.0353,-247.5579 1924.2796,-221 1931.8394,-219.922 1939.7763,-218.5739 1947.6579,-217.1255"/>
<polygon fill="#191970" stroke="#191970" points="1403.0873,-264.9678 1393.296,-269.0152 1403.4742,-271.9571 1403.0873,-264.9678"/>
</g>
<!-- Node32&#45;&gt;Node55 -->
<g id="edge46" class="edge">
<title>Node32&#45;&gt;Node55</title>
<path fill="none" stroke="#191970" d="M1399.2766,-255.2049C1456.4552,-242.4012 1534.3033,-225.4371 1583.9851,-215.0053"/>
<polygon fill="#191970" stroke="#191970" points="1398.2022,-251.8589 1389.2114,-257.4639 1399.7352,-258.689 1398.2022,-251.8589"/>
</g>
<!-- Node32&#45;&gt;Node58 -->
<g id="edge69" class="edge">
<title>Node32&#45;&gt;Node58</title>
<path fill="none" stroke="#191970" d="M1403.6534,-268.0398C1520.7856,-260.6535 1737.305,-244.3446 1811.2796,-221 1838.4087,-212.4387 1840.5655,-199.7796 1867.2796,-190 1869.7651,-189.0901 2003.5559,-162.6712 2077.8368,-148.0358"/>
<polygon fill="#191970" stroke="#191970" points="1403.0887,-264.5682 1393.3261,-268.6842 1403.5247,-271.5546 1403.0887,-264.5682"/>
</g>
<!-- Node32&#45;&gt;Node62 -->
<g id="edge70" class="edge">
<title>Node32&#45;&gt;Node62</title>
<path fill="none" stroke="#191970" d="M1403.4402,-266.6439C1510.983,-257.9389 1700.1776,-240.5025 1766.2796,-221 1796.2103,-212.1694 1800.5685,-202.227 1829.2796,-190 1867.642,-173.6629 1913.1287,-157.753 1942.0913,-148.0419"/>
<polygon fill="#191970" stroke="#191970" points="1402.9822,-263.1693 1393.2946,-267.4588 1403.5427,-270.1468 1402.9822,-263.1693"/>
</g>
<!-- Node32&#45;&gt;Node64 -->
<g id="edge71" class="edge">
<title>Node32&#45;&gt;Node64</title>
<path fill="none" stroke="#191970" d="M1403.7057,-270.221C1537.2678,-265.5023 1805.1282,-252.3602 1893.2796,-221 1916.5072,-212.7367 1916.0153,-198.1593 1939.2796,-190 2124.4313,-125.0629 2184.9603,-181.1658 2379.2796,-154 2390.4918,-152.4325 2402.524,-150.2789 2413.7006,-148.0755"/>
<polygon fill="#191970" stroke="#191970" points="1403.4188,-266.7287 1393.546,-270.5728 1403.6611,-273.7245 1403.4188,-266.7287"/>
</g>
<!-- Node32&#45;&gt;Node66 -->
<g id="edge72" class="edge">
<title>Node32&#45;&gt;Node66</title>
<path fill="none" stroke="#191970" d="M1403.6944,-269.0919C1529.3456,-262.8651 1771.8375,-247.7633 1853.2796,-221 1878.8411,-212.6 1879.8121,-198.6808 1905.2796,-190 2032.3883,-146.6739 2072.4552,-173.7852 2205.2796,-154 2217.1158,-152.2369 2229.8159,-150.1093 2241.7546,-148.0029"/>
<polygon fill="#191970" stroke="#191970" points="1403.1976,-265.6119 1393.3805,-269.596 1403.5395,-272.6035 1403.1976,-265.6119"/>
</g>
<!-- Node32&#45;&gt;Node68 -->
<g id="edge73" class="edge">
<title>Node32&#45;&gt;Node68</title>
<path fill="none" stroke="#191970" d="M1403.3526,-268.5761C1642.5616,-256.3975 2369.0322,-219.4115 2582.6165,-208.5376"/>
<polygon fill="#191970" stroke="#191970" points="1403.1585,-265.0813 1393.3495,-269.0853 1403.5145,-272.0723 1403.1585,-265.0813"/>
</g>
<!-- Node37&#45;&gt;Node26 -->
<g id="edge28" class="edge">
<title>Node37&#45;&gt;Node26</title>
<path fill="none" stroke="#191970" d="M350.2796,-113.1199C350.2796,-101.9072 350.2796,-89.4031 350.2796,-81.055"/>
<polygon fill="#191970" stroke="#191970" points="346.7797,-113.2966 350.2796,-123.2967 353.7797,-113.2967 346.7797,-113.2966"/>
</g>
<!-- Node38&#45;&gt;Node39 -->
<g id="edge30" class="edge">
<title>Node38&#45;&gt;Node39</title>
<path fill="none" stroke="#191970" d="M1117.8984,-122.2992C1132.7078,-109.4131 1152.926,-91.8207 1165.2678,-81.0817"/>
<polygon fill="#191970" stroke="#191970" points="1115.5583,-119.6959 1110.3118,-128.9005 1120.1533,-124.9767 1115.5583,-119.6959"/>
</g>
<!-- Node45&#45;&gt;Node25 -->
<g id="edge36" class="edge">
<title>Node45&#45;&gt;Node25</title>
<path fill="none" stroke="#191970" d="M1362.7976,-197.4041C1332.2111,-190.4639 1296.0806,-177.6378 1271.2796,-154 1237.3457,-121.6578 1268.28,-86.025 1232.2796,-56 1206.0038,-34.0855 1114.8643,-21.0743 1055.7921,-14.751"/>
<polygon fill="#191970" stroke="#191970" points="1362.4268,-200.9027 1372.9335,-199.5392 1363.8697,-194.053 1362.4268,-200.9027"/>
</g>
<!-- Node45&#45;&gt;Node34 -->
<g id="edge37" class="edge">
<title>Node45&#45;&gt;Node34</title>
<path fill="none" stroke="#191970" d="M1400.4695,-189.6559C1383.5046,-176.7395 1360.1,-158.9201 1345.8645,-148.0817"/>
<polygon fill="#191970" stroke="#191970" points="1398.5947,-192.6275 1408.6713,-195.9005 1402.8351,-187.058 1398.5947,-192.6275"/>
</g>
<!-- Node45&#45;&gt;Node39 -->
<g id="edge38" class="edge">
<title>Node45&#45;&gt;Node39</title>
<path fill="none" stroke="#191970" d="M1375.1957,-193.3205C1322.9051,-179.3827 1244.0682,-157.963 1238.2796,-154 1210.0422,-134.6682 1189.4276,-98.259 1180.7797,-81.0162"/>
<polygon fill="#191970" stroke="#191970" points="1374.3847,-196.7264 1384.9485,-195.9154 1376.1846,-189.9617 1374.3847,-196.7264"/>
</g>
<!-- Node47&#45;&gt;Node43 -->
<g id="edge41" class="edge">
<title>Node47&#45;&gt;Node43</title>
<path fill="none" stroke="#191970" d="M458.861,-183.5406C472.3062,-171.5296 488.2754,-157.2637 498.5837,-148.055"/>
<polygon fill="#191970" stroke="#191970" points="456.4241,-181.0243 451.2982,-190.2967 461.0876,-186.2447 456.4241,-181.0243"/>
</g>
<!-- Node54&#45;&gt;Node19 -->
<g id="edge44" class="edge">
<title>Node54&#45;&gt;Node19</title>
<path fill="none" stroke="#191970" d="M2022.5789,-230.2348C2037.2781,-274.7992 2052.6182,-368.8676 2004.2796,-422 1988.0008,-439.8932 1846.2492,-457.5593 1756.574,-466.8296"/>
<polygon fill="#191970" stroke="#191970" points="2025.8538,-228.9983 2019.186,-220.7647 2019.264,-231.3593 2025.8538,-228.9983"/>
</g>
<!-- Node54&#45;&gt;Node32 -->
<g id="edge45" class="edge">
<title>Node54&#45;&gt;Node32</title>
<path fill="none" stroke="#191970" d="M1937.4372,-221.6425C1736.3,-249.7384 1505.3343,-263.9743 1393.5124,-269.5849"/>
<polygon fill="#191970" stroke="#191970" points="1938.1853,-225.0717 1947.5977,-220.2077 1937.2065,-218.1404 1938.1853,-225.0717"/>
</g>
<!-- Node55&#45;&gt;Node19 -->
<g id="edge54" class="edge">
<title>Node55&#45;&gt;Node19</title>
<path fill="none" stroke="#191970" d="M1693.6157,-217.4273C1775.7507,-237.7322 1917.9121,-287.3185 1979.2796,-391 1986.2973,-402.8566 1988.1198,-411.4322 1979.2796,-422 1951.7522,-454.9067 1834.8595,-466.8148 1756.396,-471.105"/>
<polygon fill="#191970" stroke="#191970" points="1694.2027,-213.9688 1683.6619,-215.0376 1692.5685,-220.7754 1694.2027,-213.9688"/>
</g>
<!-- Node55&#45;&gt;Node20 -->
<g id="edge47" class="edge">
<title>Node55&#45;&gt;Node20</title>
<path fill="none" stroke="#191970" d="M1670.8391,-192.5826C1709.7092,-179.5611 1768.8011,-159.7653 1803.6776,-148.0817"/>
<polygon fill="#191970" stroke="#191970" points="1669.305,-189.4052 1660.9347,-195.9005 1671.5286,-196.0427 1669.305,-189.4052"/>
</g>
<!-- Node55&#45;&gt;Node21 -->
<g id="edge48" class="edge">
<title>Node55&#45;&gt;Node21</title>
<path fill="none" stroke="#191970" d="M1649.8282,-188.94C1663.4476,-176.0879 1681.8511,-158.7212 1693.1259,-148.0817"/>
<polygon fill="#191970" stroke="#191970" points="1647.323,-186.4917 1642.4522,-195.9005 1652.1273,-191.5828 1647.323,-186.4917"/>
</g>
<!-- Node55&#45;&gt;Node25 -->
<g id="edge49" class="edge">
<title>Node55&#45;&gt;Node25</title>
<path fill="none" stroke="#191970" d="M1629.8367,-185.9176C1626.3941,-166.9139 1618.2504,-138.7084 1599.2796,-123 1516.3375,-54.3217 1185.585,-23.2595 1055.8655,-13.5412"/>
<polygon fill="#191970" stroke="#191970" points="1626.3891,-186.5266 1631.3667,-195.8793 1633.3079,-185.4638 1626.3891,-186.5266"/>
</g>
<!-- Node55&#45;&gt;Node26 -->
<g id="edge57" class="edge">
<title>Node55&#45;&gt;Node26</title>
<path fill="none" stroke="#191970" d="M1552.8827,-195.0785C1513.6366,-187.5872 1466.6004,-174.9707 1428.2796,-154 1410.6269,-144.3397 1413.8008,-130.8678 1395.2796,-123 1304.7387,-84.5383 619.166,-74.2925 410.4139,-72.0506"/>
<polygon fill="#191970" stroke="#191970" points="1552.4769,-198.5623 1562.9438,-196.9205 1553.7376,-191.6768 1552.4769,-198.5623"/>
</g>
<!-- Node55&#45;&gt;Node32 -->
<g id="edge68" class="edge">
<title>Node55&#45;&gt;Node32</title>
<path fill="none" stroke="#191970" d="M1583.6298,-217.3102C1532.1985,-228.9788 1450.8618,-246.8059 1393.3727,-259.0221"/>
<polygon fill="#191970" stroke="#191970" points="1584.5283,-220.6953 1593.5014,-215.0621 1582.9739,-213.87 1584.5283,-220.6953"/>
</g>
<!-- Node55&#45;&gt;Node34 -->
<g id="edge50" class="edge">
<title>Node55&#45;&gt;Node34</title>
<path fill="none" stroke="#191970" d="M1578.6717,-193.7418C1531.6301,-183.39 1461.3833,-167.8497 1400.2796,-154 1391.896,-152.0998 1382.9284,-150.0424 1374.3685,-148.0665"/>
<polygon fill="#191970" stroke="#191970" points="1578.1208,-197.2042 1588.6392,-195.934 1579.6245,-190.3676 1578.1208,-197.2042"/>
</g>
<!-- Node55&#45;&gt;Node37 -->
<g id="edge51" class="edge">
<title>Node55&#45;&gt;Node37</title>
<path fill="none" stroke="#191970" d="M1552.8808,-196.5061C1528.933,-194.0641 1502.5592,-191.6436 1478.2796,-190 1020.3819,-159.0032 903.0467,-198.6641 446.2796,-154 434.3499,-152.8335 421.6532,-151.1218 409.5325,-149.257"/>
<polygon fill="#191970" stroke="#191970" points="1552.6752,-200.0034 1562.9825,-197.5518 1553.3961,-193.0406 1552.6752,-200.0034"/>
</g>
<!-- Node55&#45;&gt;Node38 -->
<g id="edge52" class="edge">
<title>Node55&#45;&gt;Node38</title>
<path fill="none" stroke="#191970" d="M1552.9489,-195.5278C1441.2444,-181.4862 1240.9339,-156.3064 1148.4936,-144.6864"/>
<polygon fill="#191970" stroke="#191970" points="1552.7871,-199.035 1563.1456,-196.8096 1553.6602,-192.0896 1552.7871,-199.035"/>
</g>
<!-- Node55&#45;&gt;Node39 -->
<g id="edge53" class="edge">
<title>Node55&#45;&gt;Node39</title>
<path fill="none" stroke="#191970" d="M1581.5053,-193.3846C1549.2638,-184.6774 1507.1871,-171.4075 1472.2796,-154 1450.872,-143.3246 1450.2407,-132.4845 1428.2796,-123 1360.8436,-93.876 1276.0209,-80.9162 1224.0009,-75.3726"/>
<polygon fill="#191970" stroke="#191970" points="1580.6144,-196.7693 1591.1768,-195.9399 1582.4026,-190.0015 1580.6144,-196.7693"/>
</g>
<!-- Node55&#45;&gt;Node42 -->
<g id="edge55" class="edge">
<title>Node55&#45;&gt;Node42</title>
<path fill="none" stroke="#191970" d="M1552.8479,-196.946C1528.899,-194.5179 1502.5329,-191.9947 1478.2796,-190 1194.9485,-166.6974 854.8446,-148.0023 725.615,-141.2331"/>
<polygon fill="#191970" stroke="#191970" points="1552.6463,-200.4436 1562.9505,-197.979 1553.3584,-193.4799 1552.6463,-200.4436"/>
</g>
<!-- Node55&#45;&gt;Node43 -->
<g id="edge56" class="edge">
<title>Node55&#45;&gt;Node43</title>
<path fill="none" stroke="#191970" d="M1552.8739,-196.6062C1528.9259,-194.1673 1502.5537,-191.7235 1478.2796,-190 1093.1397,-162.655 994.5791,-191.3417 610.2796,-154 595.0064,-152.5159 578.5234,-150.2651 563.3918,-147.9352"/>
<polygon fill="#191970" stroke="#191970" points="1552.6692,-200.1035 1562.9757,-197.649 1553.388,-193.1405 1552.6692,-200.1035"/>
</g>
<!-- Node55&#45;&gt;Node53 -->
<g id="edge58" class="edge">
<title>Node55&#45;&gt;Node53</title>
<path fill="none" stroke="#191970" d="M1610.1091,-190.1864C1591.3532,-177.2312 1565.059,-159.0693 1549.1515,-148.0817"/>
<polygon fill="#191970" stroke="#191970" points="1608.1646,-193.097 1618.3818,-195.9005 1612.143,-187.3374 1608.1646,-193.097"/>
</g>
<!-- Node55&#45;&gt;Node58 -->
<g id="edge59" class="edge">
<title>Node55&#45;&gt;Node58</title>
<path fill="none" stroke="#191970" d="M1711.7112,-197.321C1795.4134,-188.3101 1930.9744,-172.6026 2047.2796,-154 2058.0446,-152.2782 2069.5837,-150.1666 2080.4256,-148.0627"/>
<polygon fill="#191970" stroke="#191970" points="1711.084,-193.868 1701.5136,-198.4132 1711.8295,-200.8282 1711.084,-193.868"/>
</g>
<!-- Node55&#45;&gt;Node62 -->
<g id="edge61" class="edge">
<title>Node55&#45;&gt;Node62</title>
<path fill="none" stroke="#191970" d="M1691.7069,-194.0006C1745.0289,-183.6498 1825.4145,-167.9646 1895.2796,-154 1904.7871,-152.0996 1914.9583,-150.0422 1924.6679,-148.0663"/>
<polygon fill="#191970" stroke="#191970" points="1690.8948,-190.5928 1681.7446,-195.9335 1692.2282,-197.4646 1690.8948,-190.5928"/>
</g>
<!-- Node55&#45;&gt;Node64 -->
<g id="edge63" class="edge">
<title>Node55&#45;&gt;Node64</title>
<path fill="none" stroke="#191970" d="M1711.6807,-200.601C1890.5484,-189.482 2314.4985,-162.634 2379.2796,-154 2390.7754,-152.4679 2403.125,-150.2724 2414.5304,-148.0138"/>
<polygon fill="#191970" stroke="#191970" points="1711.3091,-197.1172 1701.5453,-201.2305 1711.7431,-204.1038 1711.3091,-197.1172"/>
</g>
<!-- Node55&#45;&gt;Node66 -->
<g id="edge66" class="edge">
<title>Node55&#45;&gt;Node66</title>
<path fill="none" stroke="#191970" d="M1711.3783,-200.5679C1822.1379,-193.1667 2029.597,-177.4999 2205.2796,-154 2217.5969,-152.3524 2230.8295,-150.1957 2243.165,-148.0169"/>
<polygon fill="#191970" stroke="#191970" points="1711.0381,-197.0826 1701.2916,-201.2368 1711.5014,-204.0673 1711.0381,-197.0826"/>
</g>
<!-- Node60 -->
<g id="node32" class="node">
<title>Node60</title>
<g id="a_node32"><a xlink:href="$all_8h.html" xlink:title="Energy evaluation for MFE and partition function calculations.">
<polygon fill="none" stroke="#ff0000" points="2151.2796,-62 2151.2796,-81 2267.2796,-81 2267.2796,-62 2151.2796,-62"/>
<text text-anchor="middle" x="2209.2796" y="-69" font-family="Helvetica,sans-Serif" font-size="10.00" fill="#000000">ViennaRNA/loops/all.h</text>
</a>
</g>
</g>
<!-- Node58&#45;&gt;Node60 -->
<g id="edge60" class="edge">
<title>Node58&#45;&gt;Node60</title>
<path fill="none" stroke="#191970" d="M2146.3492,-122.2992C2162.3126,-109.4131 2184.1062,-91.8207 2197.4098,-81.0817"/>
<polygon fill="#191970" stroke="#191970" points="2143.7542,-119.8959 2138.1715,-128.9005 2148.1511,-125.3427 2143.7542,-119.8959"/>
</g>
<!-- Node62&#45;&gt;Node60 -->
<g id="edge62" class="edge">
<title>Node62&#45;&gt;Node60</title>
<path fill="none" stroke="#191970" d="M2014.8507,-126.2342C2061.0169,-113.2378 2132.9518,-92.9872 2175.1642,-81.1039"/>
<polygon fill="#191970" stroke="#191970" points="2013.8038,-122.8928 2005.1264,-128.9717 2015.7007,-129.6309 2013.8038,-122.8928"/>
</g>
<!-- Node64&#45;&gt;Node60 -->
<g id="edge65" class="edge">
<title>Node64&#45;&gt;Node60</title>
<path fill="none" stroke="#191970" d="M2412.18,-126.3158C2364.0862,-113.3228 2288.9067,-93.0122 2244.8284,-81.1039"/>
<polygon fill="#191970" stroke="#191970" points="2411.4438,-129.7424 2422.0106,-128.9717 2413.2696,-122.9846 2411.4438,-129.7424"/>
</g>
<!-- Node65 -->
<g id="node35" class="node">
<title>Node65</title>
<g id="a_node35"><a xlink:href="$interior__loops_8h.html" xlink:title="Use ViennaRNA/loops/internal.h instead.">
<polygon fill="none" stroke="#000000" points="2406.7796,-56.5 2406.7796,-86.5 2507.7796,-86.5 2507.7796,-56.5 2406.7796,-56.5"/>
<text text-anchor="start" x="2414.7796" y="-74.5" font-family="Helvetica,sans-Serif" font-size="10.00" fill="#000000">ViennaRNA/interior</text>
<text text-anchor="middle" x="2457.2796" y="-63.5" font-family="Helvetica,sans-Serif" font-size="10.00" fill="#000000">_loops.h</text>
</a>
</g>
</g>
<!-- Node64&#45;&gt;Node65 -->
<g id="edge64" class="edge">
<title>Node64&#45;&gt;Node65</title>
<path fill="none" stroke="#191970" d="M2457.2796,-118.7758C2457.2796,-108.4641 2457.2796,-96.0437 2457.2796,-86.5218"/>
<polygon fill="#191970" stroke="#191970" points="2453.7797,-118.9005 2457.2796,-128.9005 2460.7797,-118.9006 2453.7797,-118.9005"/>
</g>
<!-- Node66&#45;&gt;Node60 -->
<g id="edge67" class="edge">
<title>Node66&#45;&gt;Node60</title>
<path fill="none" stroke="#191970" d="M2272.2099,-122.2992C2256.2466,-109.4131 2234.453,-91.8207 2221.1494,-81.0817"/>
<polygon fill="#191970" stroke="#191970" points="2270.4081,-125.3427 2280.3877,-128.9005 2274.8049,-119.8959 2270.4081,-125.3427"/>
</g>
<!-- Node68&#45;&gt;Node17 -->
<g id="edge74" class="edge">
<title>Node68&#45;&gt;Node17</title>
<path fill="none" stroke="#191970" d="M2691.3022,-186.838C2724.4607,-174.2151 2766.8721,-158.0699 2793.3105,-148.0053"/>
<polygon fill="#191970" stroke="#191970" points="2689.8779,-183.6351 2681.7774,-190.4639 2692.3684,-190.1771 2689.8779,-183.6351"/>
</g>
<!-- Node85&#45;&gt;Node19 -->
<g id="edge80" class="edge">
<title>Node85&#45;&gt;Node19</title>
<path fill="none" stroke="#191970" d="M1508.5707,-418.9025C1553.434,-431.9054 1619.7517,-452.0594 1656.5163,-463.9005"/>
<polygon fill="#191970" stroke="#191970" points="1509.3601,-415.4876 1498.7819,-416.0817 1507.4217,-422.2139 1509.3601,-415.4876"/>
</g>
<!-- Node85&#45;&gt;Node32 -->
<g id="edge81" class="edge">
<title>Node85&#45;&gt;Node32</title>
<path fill="none" stroke="#191970" d="M1450.6198,-388.0961C1438.928,-370.473 1419.762,-343.7229 1399.2796,-324 1384.8671,-310.122 1366.4435,-297.1534 1351.7108,-287.7017"/>
<polygon fill="#191970" stroke="#191970" points="1447.9223,-390.3684 1456.3071,-396.8451 1453.7913,-386.5533 1447.9223,-390.3684"/>
</g>
<!-- Node90&#45;&gt;Node19 -->
<g id="edge89" class="edge">
<title>Node90&#45;&gt;Node19</title>
<path fill="none" stroke="#191970" d="M1210.3429,-418.1829C1217.4052,-419.6065 1224.5056,-420.9325 1231.2796,-422 1398.4194,-448.3401 1442.7505,-434.2614 1610.2796,-458 1621.899,-459.6464 1634.3747,-461.8028 1645.7166,-463.9814"/>
<polygon fill="#191970" stroke="#191970" points="1210.5687,-414.655 1200.0655,-416.0458 1209.1436,-421.5084 1210.5687,-414.655"/>
</g>
<!-- Node91&#45;&gt;Node16 -->
<g id="edge104" class="edge">
<title>Node91&#45;&gt;Node16</title>
<path fill="none" stroke="#191970" d="M2675.6914,-421.256C2674.2087,-421.5121 2672.7367,-421.7605 2671.2796,-422 2321.1781,-479.5492 1896.9361,-521.0276 1742.8364,-535.1821"/>
<polygon fill="#191970" stroke="#191970" points="2676.3702,-424.6901 2685.5889,-419.4685 2675.126,-417.8016 2676.3702,-424.6901"/>
</g>
<!-- Node91&#45;&gt;Node17 -->
<g id="edge98" class="edge">
<title>Node91&#45;&gt;Node17</title>
<path fill="none" stroke="#191970" d="M2784.817,-386.469C2819.0579,-366.6681 2866.2916,-332.8507 2887.2796,-288 2911.8749,-235.4406 2854.0764,-172.2316 2829.09,-148.3119"/>
<polygon fill="#191970" stroke="#191970" points="2782.9781,-383.4875 2775.9768,-391.4394 2786.4088,-389.5892 2782.9781,-383.4875"/>
</g>
<!-- Node91&#45;&gt;Node92 -->
<g id="edge99" class="edge">
<title>Node91&#45;&gt;Node92</title>
<path fill="none" stroke="#191970" d="M2675.5171,-392.2497C2616.5085,-380.1962 2532.8627,-363.11 2476.9242,-351.6835"/>
<polygon fill="#191970" stroke="#191970" points="2675.0025,-395.7168 2685.5007,-394.2891 2676.4035,-388.8584 2675.0025,-395.7168"/>
</g>
<!-- Node92&#45;&gt;Node17 -->
<g id="edge100" class="edge">
<title>Node92&#45;&gt;Node17</title>
<path fill="none" stroke="#191970" d="M2426.8754,-315.202C2435.7201,-296.1631 2450.7529,-270.6812 2472.2796,-257 2562.9396,-199.3812 2612.4716,-263.1443 2711.2796,-221 2752.706,-203.3305 2792.1803,-165.759 2809.3283,-148.0776"/>
<polygon fill="#191970" stroke="#191970" points="2423.6203,-313.9102 2422.8127,-324.4742 2430.0318,-316.7195 2423.6203,-313.9102"/>
</g>
<!-- Node92&#45;&gt;Node19 -->
<g id="edge101" class="edge">
<title>Node92&#45;&gt;Node19</title>
<path fill="none" stroke="#191970" d="M2410.3102,-363.4945C2399.2236,-382.9557 2378.2235,-409.186 2352.2796,-422 2300.2083,-447.7186 1918.9252,-464.9295 1756.3201,-471.0345"/>
<polygon fill="#191970" stroke="#191970" points="2413.44,-365.0619 2414.9346,-354.573 2407.2253,-361.8405 2413.44,-365.0619"/>
</g>
<!-- Node92&#45;&gt;Node32 -->
<g id="edge103" class="edge">
<title>Node92&#45;&gt;Node32</title>
<path fill="none" stroke="#191970" d="M2347.189,-335.1956C2149.2873,-323.0422 1588.0253,-288.5742 1393.5823,-276.6332"/>
<polygon fill="#191970" stroke="#191970" points="2347.2631,-338.7067 2357.4588,-335.8263 2347.6922,-331.7198 2347.2631,-338.7067"/>
</g>
<!-- Node92&#45;&gt;Node64 -->
<g id="edge102" class="edge">
<title>Node92&#45;&gt;Node64</title>
<path fill="none" stroke="#191970" d="M2422.2851,-314.3473C2431.1817,-269.6419 2449.3733,-178.2292 2455.3381,-148.2562"/>
<polygon fill="#191970" stroke="#191970" points="2418.8053,-313.9015 2420.2861,-324.3923 2425.6706,-315.2678 2418.8053,-313.9015"/>
</g>
<!-- Node94&#45;&gt;Node17 -->
<g id="edge108" class="edge">
<title>Node94&#45;&gt;Node17</title>
<path fill="none" stroke="#191970" d="M2818.2796,-247.2559C2818.2796,-217.2327 2818.2796,-168.6073 2818.2796,-148.1042"/>
<polygon fill="#191970" stroke="#191970" points="2814.7797,-247.3889 2818.2796,-257.389 2821.7797,-247.389 2814.7797,-247.3889"/>
</g>
<!-- Node101&#45;&gt;Node96 -->
<g id="edge113" class="edge">
<title>Node101&#45;&gt;Node96</title>
<path fill="none" stroke="#191970" d="M1304.507,-382.7735C1310.513,-373.4154 1317.2347,-362.9421 1322.5608,-354.6432"/>
<polygon fill="#191970" stroke="#191970" points="1301.4927,-380.9903 1299.037,-391.2967 1307.3838,-384.7712 1301.4927,-380.9903"/>
</g>
<!-- Node103&#45;&gt;Node25 -->
<g id="edge116" class="edge">
<title>Node103&#45;&gt;Node25</title>
<path fill="none" stroke="#191970" d="M2559.2545,-252.5023C2566.6983,-208.4622 2577.0208,-103.2675 2517.2796,-56 2488.0213,-32.8507 1320.2378,-14.5868 1056.0373,-10.746"/>
<polygon fill="#191970" stroke="#191970" points="2555.7759,-252.0686 2557.4241,-262.5345 2562.6622,-253.3251 2555.7759,-252.0686"/>
</g>
</g>
</svg>
