<?xml version="1.0" encoding="UTF-8" standalone="no"?>
<!DOCTYPE svg PUBLIC "-//W3C//DTD SVG 1.1//EN"
 "http://www.w3.org/Graphics/SVG/1.1/DTD/svg11.dtd">
<!-- Generated by graphviz version 2.40.1 (0)
 -->
<!-- Title: ViennaRNA/string_utils.h Pages: 1 -->
<svg width="1454pt" height="397pt"
 viewBox="0.00 0.00 1454.00 397.00" xmlns="http://www.w3.org/2000/svg" xmlns:xlink="http://www.w3.org/1999/xlink">
<g id="graph0" class="graph" transform="scale(1 1) rotate(0) translate(4 393)">
<title>ViennaRNA/string_utils.h</title>
<!-- Node0 -->
<g id="node1" class="node">
<title>Node0</title>
<g id="a_node1"><a xlink:title="Use ViennaRNA/utils/strings.h instead.">
<polygon fill="#bfbfbf" stroke="#000000" points="682.5,-369.5 682.5,-388.5 809.5,-388.5 809.5,-369.5 682.5,-369.5"/>
<text text-anchor="middle" x="746" y="-376.5" font-family="Helvetica,sans-Serif" font-size="10.00" fill="#000000">ViennaRNA/string_utils.h</text>
</a>
</g>
</g>
<!-- Node1 -->
<g id="node2" class="node">
<title>Node1</title>
<g id="a_node2"><a xlink:href="$strings_8h.html" xlink:title="General utility&#45; and helper&#45;functions for RNA sequence and structure strings used throughout the Vien...">
<polygon fill="none" stroke="#000000" points="681,-313.5 681,-332.5 811,-332.5 811,-313.5 681,-313.5"/>
<text text-anchor="middle" x="746" y="-320.5" font-family="Helvetica,sans-Serif" font-size="10.00" fill="#000000">ViennaRNA/utils/strings.h</text>
</a>
</g>
</g>
<!-- Node0&#45;&gt;Node1 -->
<g id="edge1" class="edge">
<title>Node0&#45;&gt;Node1</title>
<path fill="none" stroke="#191970" d="M746,-369.2455C746,-361.9382 746,-351.6944 746,-342.7046"/>
<polygon fill="#191970" stroke="#191970" points="749.5001,-342.6426 746,-332.6427 742.5001,-342.6427 749.5001,-342.6426"/>
</g>
<!-- Node2 -->
<g id="node3" class="node">
<title>Node2</title>
<g id="a_node3"><a xlink:title=" ">
<polygon fill="none" stroke="#bfbfbf" points="665,-252 665,-271 717,-271 717,-252 665,-252"/>
<text text-anchor="middle" x="691" y="-259" font-family="Helvetica,sans-Serif" font-size="10.00" fill="#000000">stdarg.h</text>
</a>
</g>
</g>
<!-- Node1&#45;&gt;Node2 -->
<g id="edge2" class="edge">
<title>Node1&#45;&gt;Node2</title>
<path fill="none" stroke="#191970" d="M737.4063,-313.3906C729.1403,-304.1478 716.4574,-289.966 706.4383,-278.7628"/>
<polygon fill="#191970" stroke="#191970" points="708.99,-276.3657 699.7149,-271.2449 703.7722,-281.0321 708.99,-276.3657"/>
</g>
<!-- Node3 -->
<g id="node4" class="node">
<title>Node3</title>
<g id="a_node4"><a xlink:href="$datastructures_2basic_8h.html" xlink:title="Various data structures and pre&#45;processor macros.">
<polygon fill="none" stroke="#000000" points="735,-246.5 735,-276.5 869,-276.5 869,-246.5 735,-246.5"/>
<text text-anchor="start" x="743" y="-264.5" font-family="Helvetica,sans-Serif" font-size="10.00" fill="#000000">ViennaRNA/datastructures</text>
<text text-anchor="middle" x="802" y="-253.5" font-family="Helvetica,sans-Serif" font-size="10.00" fill="#000000">/basic.h</text>
</a>
</g>
</g>
<!-- Node1&#45;&gt;Node3 -->
<g id="edge3" class="edge">
<title>Node1&#45;&gt;Node3</title>
<path fill="none" stroke="#191970" d="M754.75,-313.3906C761.9079,-305.5298 772.3188,-294.0964 781.5475,-283.9612"/>
<polygon fill="#191970" stroke="#191970" points="784.156,-286.295 788.3009,-276.5446 778.9802,-281.5821 784.156,-286.295"/>
</g>
<!-- Node4 -->
<g id="node5" class="node">
<title>Node4</title>
<g id="a_node5"><a xlink:href="$constants_8h.html" xlink:title="Energy parameter constants.">
<polygon fill="none" stroke="#000000" points="0,-62 0,-81 158,-81 158,-62 0,-62"/>
<text text-anchor="middle" x="79" y="-69" font-family="Helvetica,sans-Serif" font-size="10.00" fill="#000000">ViennaRNA/params/constants.h</text>
</a>
</g>
</g>
<!-- Node3&#45;&gt;Node4 -->
<g id="edge4" class="edge">
<title>Node3&#45;&gt;Node4</title>
<path fill="none" stroke="#191970" d="M734.9462,-247.3177C731.9284,-246.8394 728.9359,-246.3965 726,-246 608.1342,-230.0806 302.209,-254.7186 192,-210 137.7695,-187.9953 102.1153,-123.248 87.0985,-90.6751"/>
<polygon fill="#191970" stroke="#191970" points="90.2051,-89.0467 82.9507,-81.325 83.8065,-91.8853 90.2051,-89.0467"/>
</g>
<!-- Node6 -->
<g id="node7" class="node">
<title>Node6</title>
<g id="a_node7"><a xlink:href="$fold__compound_8h.html" xlink:title="The Basic Fold Compound API.">
<polygon fill="none" stroke="#000000" points="673,-190.5 673,-209.5 819,-209.5 819,-190.5 673,-190.5"/>
<text text-anchor="middle" x="746" y="-197.5" font-family="Helvetica,sans-Serif" font-size="10.00" fill="#000000">ViennaRNA/fold_compound.h</text>
</a>
</g>
</g>
<!-- Node3&#45;&gt;Node6 -->
<g id="edge6" class="edge">
<title>Node3&#45;&gt;Node6</title>
<path fill="none" stroke="#191970" d="M788.1573,-246.2977C780.141,-237.4941 770.0238,-226.3833 761.71,-217.2529"/>
<polygon fill="#191970" stroke="#191970" points="764.2869,-214.8845 754.9663,-209.8469 759.1112,-219.5974 764.2869,-214.8845"/>
</g>
<!-- Node7 -->
<g id="node8" class="node">
<title>Node7</title>
<g id="a_node8"><a xlink:href="$model_8h.html" xlink:title="The model details data structure and its corresponding modifiers.">
<polygon fill="none" stroke="#000000" points="176,-62 176,-81 282,-81 282,-62 176,-62"/>
<text text-anchor="middle" x="229" y="-69" font-family="Helvetica,sans-Serif" font-size="10.00" fill="#000000">ViennaRNA/model.h</text>
</a>
</g>
</g>
<!-- Node3&#45;&gt;Node7 -->
<g id="edge35" class="edge">
<title>Node3&#45;&gt;Node7</title>
<path fill="none" stroke="#191970" d="M734.9114,-247.5484C731.903,-247.0077 728.922,-246.4886 726,-246 595.1215,-224.1156 221.2235,-255.7106 136,-154 113.1297,-126.7053 158.3672,-100.3253 193.4229,-85.0182"/>
<polygon fill="#191970" stroke="#191970" points="195.113,-88.1045 202.9754,-81.0029 192.4004,-81.6514 195.113,-88.1045"/>
</g>
<!-- Node8 -->
<g id="node9" class="node">
<title>Node8</title>
<g id="a_node9"><a xlink:href="$params_2basic_8h.html" xlink:title="Functions to deal with sets of energy parameters.">
<polygon fill="none" stroke="#000000" points="145,-129 145,-148 283,-148 283,-129 145,-129"/>
<text text-anchor="middle" x="214" y="-136" font-family="Helvetica,sans-Serif" font-size="10.00" fill="#000000">ViennaRNA/params/basic.h</text>
</a>
</g>
</g>
<!-- Node3&#45;&gt;Node8 -->
<g id="edge36" class="edge">
<title>Node3&#45;&gt;Node8</title>
<path fill="none" stroke="#191970" d="M734.9581,-249.6296C728.8643,-248.4007 722.8078,-247.173 717,-246 637.0305,-229.8483 616.88,-226.5886 537,-210 438.7047,-189.5871 324.2938,-164.6977 261.3376,-150.317"/>
<polygon fill="#191970" stroke="#191970" points="261.8429,-146.842 251.3133,-148.0156 260.2765,-153.6646 261.8429,-146.842"/>
</g>
<!-- Node10 -->
<g id="node11" class="node">
<title>Node10</title>
<g id="a_node11"><a xlink:href="$dp__matrices_8h.html" xlink:title="Functions to deal with standard dynamic programming (DP) matrices.">
<polygon fill="none" stroke="#000000" points="301.5,-129 301.5,-148 434.5,-148 434.5,-129 301.5,-129"/>
<text text-anchor="middle" x="368" y="-136" font-family="Helvetica,sans-Serif" font-size="10.00" fill="#000000">ViennaRNA/dp_matrices.h</text>
</a>
</g>
</g>
<!-- Node3&#45;&gt;Node10 -->
<g id="edge37" class="edge">
<title>Node3&#45;&gt;Node10</title>
<path fill="none" stroke="#191970" d="M740.4134,-246.4819C702.3505,-236.2521 652.7291,-222.3728 609,-210 536.5617,-189.5041 452.4118,-165.3701 405.0356,-151.0354"/>
<polygon fill="#191970" stroke="#191970" points="405.806,-147.6113 395.22,-148.0435 403.765,-154.3071 405.806,-147.6113"/>
</g>
<!-- Node11 -->
<g id="node12" class="node">
<title>Node11</title>
<g id="a_node12"><a xlink:href="$hard_8h.html" xlink:title="Functions and data structures for handling of secondary structure hard constraints.">
<polygon fill="none" stroke="#000000" points="452.5,-123.5 452.5,-153.5 571.5,-153.5 571.5,-123.5 452.5,-123.5"/>
<text text-anchor="start" x="460.5" y="-141.5" font-family="Helvetica,sans-Serif" font-size="10.00" fill="#000000">ViennaRNA/constraints</text>
<text text-anchor="middle" x="512" y="-130.5" font-family="Helvetica,sans-Serif" font-size="10.00" fill="#000000">/hard.h</text>
</a>
</g>
</g>
<!-- Node3&#45;&gt;Node11 -->
<g id="edge38" class="edge">
<title>Node3&#45;&gt;Node11</title>
<path fill="none" stroke="#191970" d="M758.7503,-246.3965C731.3705,-236.5805 695.3471,-223.1955 664,-210 625.1482,-193.6454 581.7109,-172.9644 551.2529,-158.0568"/>
<polygon fill="#191970" stroke="#191970" points="552.7552,-154.8953 542.2366,-153.6268 549.6683,-161.1779 552.7552,-154.8953"/>
</g>
<!-- Node13 -->
<g id="node14" class="node">
<title>Node13</title>
<g id="a_node14"><a xlink:href="$soft_8h.html" xlink:title="Functions and data structures for secondary structure soft constraints.">
<polygon fill="none" stroke="#000000" points="941.5,-123.5 941.5,-153.5 1060.5,-153.5 1060.5,-123.5 941.5,-123.5"/>
<text text-anchor="start" x="949.5" y="-141.5" font-family="Helvetica,sans-Serif" font-size="10.00" fill="#000000">ViennaRNA/constraints</text>
<text text-anchor="middle" x="1001" y="-130.5" font-family="Helvetica,sans-Serif" font-size="10.00" fill="#000000">/soft.h</text>
</a>
</g>
</g>
<!-- Node3&#45;&gt;Node13 -->
<g id="edge39" class="edge">
<title>Node3&#45;&gt;Node13</title>
<path fill="none" stroke="#191970" d="M821.787,-246.4178C854.8107,-224.3648 921.1119,-183.2739 963.2436,-158.6527"/>
<polygon fill="#191970" stroke="#191970" points="965.2106,-161.558 972.1048,-153.513 961.6985,-155.5028 965.2106,-161.558"/>
</g>
<!-- Node14 -->
<g id="node15" class="node">
<title>Node14</title>
<g id="a_node15"><a xlink:href="$grammar_8h.html" xlink:title="Implementations for the RNA folding grammar.">
<polygon fill="none" stroke="#000000" points="806.5,-129 806.5,-148 923.5,-148 923.5,-129 806.5,-129"/>
<text text-anchor="middle" x="865" y="-136" font-family="Helvetica,sans-Serif" font-size="10.00" fill="#000000">ViennaRNA/grammar.h</text>
</a>
</g>
</g>
<!-- Node3&#45;&gt;Node14 -->
<g id="edge40" class="edge">
<title>Node3&#45;&gt;Node14</title>
<path fill="none" stroke="#191970" d="M809.725,-246.4178C821.2763,-223.8652 843.0255,-181.4026 855.5217,-157.0053"/>
<polygon fill="#191970" stroke="#191970" points="858.6653,-158.5453 860.1089,-148.0493 852.435,-155.3541 858.6653,-158.5453"/>
</g>
<!-- Node15 -->
<g id="node16" class="node">
<title>Node15</title>
<g id="a_node16"><a xlink:href="$structured__domains_8h.html" xlink:title="This module provides interfaces that deal with additional structured domains in the folding grammar.">
<polygon fill="none" stroke="#000000" points="1078.5,-123.5 1078.5,-153.5 1193.5,-153.5 1193.5,-123.5 1078.5,-123.5"/>
<text text-anchor="start" x="1086.5" y="-141.5" font-family="Helvetica,sans-Serif" font-size="10.00" fill="#000000">ViennaRNA/structured</text>
<text text-anchor="middle" x="1136" y="-130.5" font-family="Helvetica,sans-Serif" font-size="10.00" fill="#000000">_domains.h</text>
</a>
</g>
</g>
<!-- Node3&#45;&gt;Node15 -->
<g id="edge41" class="edge">
<title>Node3&#45;&gt;Node15</title>
<path fill="none" stroke="#191970" d="M842.955,-246.4178C904.2197,-223.8562 1019.5925,-181.3686 1085.8292,-156.9761"/>
<polygon fill="#191970" stroke="#191970" points="1087.0586,-160.2532 1095.233,-153.513 1084.6396,-153.6844 1087.0586,-160.2532"/>
</g>
<!-- Node16 -->
<g id="node17" class="node">
<title>Node16</title>
<g id="a_node17"><a xlink:href="$unstructured__domains_8h.html" xlink:title="Functions to modify unstructured domains, e.g. to incorporate ligands binding to unpaired stretches.">
<polygon fill="none" stroke="#000000" points="1211.5,-123.5 1211.5,-153.5 1336.5,-153.5 1336.5,-123.5 1211.5,-123.5"/>
<text text-anchor="start" x="1219.5" y="-141.5" font-family="Helvetica,sans-Serif" font-size="10.00" fill="#000000">ViennaRNA/unstructured</text>
<text text-anchor="middle" x="1274" y="-130.5" font-family="Helvetica,sans-Serif" font-size="10.00" fill="#000000">_domains.h</text>
</a>
</g>
</g>
<!-- Node3&#45;&gt;Node16 -->
<g id="edge42" class="edge">
<title>Node3&#45;&gt;Node16</title>
<path fill="none" stroke="#191970" d="M855.2622,-246.4178C940.2402,-223.5557 1106.3941,-180.2332 1201.9142,-156.0111"/>
<polygon fill="#191970" stroke="#191970" points="1202.9479,-159.3599 1211.7832,-153.513 1201.2301,-152.5739 1202.9479,-159.3599"/>
</g>
<!-- Node17 -->
<g id="node18" class="node">
<title>Node17</title>
<g id="a_node18"><a xlink:href="$utils_2structures_8h.html" xlink:title="Various utility&#45; and helper&#45;functions for secondary structure parsing, converting,...">
<polygon fill="none" stroke="#000000" points="1302,-62 1302,-81 1446,-81 1446,-62 1302,-62"/>
<text text-anchor="middle" x="1374" y="-69" font-family="Helvetica,sans-Serif" font-size="10.00" fill="#000000">ViennaRNA/utils/structures.h</text>
</a>
</g>
</g>
<!-- Node3&#45;&gt;Node17 -->
<g id="edge43" class="edge">
<title>Node3&#45;&gt;Node17</title>
<path fill="none" stroke="#191970" d="M869.0108,-256.099C996.5923,-244.8772 1267.5237,-214.8554 1337,-154 1355.1663,-138.0878 1361.564,-109.9327 1365.99,-90.9959"/>
<polygon fill="#191970" stroke="#191970" points="1369.4407,-91.6212 1368.4422,-81.0736 1362.6451,-89.9418 1369.4407,-91.6212"/>
</g>
<!-- Node5 -->
<g id="node6" class="node">
<title>Node5</title>
<g id="a_node6"><a xlink:title=" ">
<polygon fill="none" stroke="#bfbfbf" points="55,-.5 55,-19.5 103,-19.5 103,-.5 55,-.5"/>
<text text-anchor="middle" x="79" y="-7.5" font-family="Helvetica,sans-Serif" font-size="10.00" fill="#000000">limits.h</text>
</a>
</g>
</g>
<!-- Node4&#45;&gt;Node5 -->
<g id="edge5" class="edge">
<title>Node4&#45;&gt;Node5</title>
<path fill="none" stroke="#191970" d="M79,-61.8906C79,-53.3657 79,-40.6392 79,-29.9235"/>
<polygon fill="#191970" stroke="#191970" points="82.5001,-29.7448 79,-19.7449 75.5001,-29.7449 82.5001,-29.7448"/>
</g>
<!-- Node6&#45;&gt;Node7 -->
<g id="edge7" class="edge">
<title>Node6&#45;&gt;Node7</title>
<path fill="none" stroke="#191970" d="M746.0016,-190.3728C745.4332,-173.7189 741.6458,-139.7151 721,-123 688.335,-96.5539 417.9662,-80.4406 292.5061,-74.3207"/>
<polygon fill="#191970" stroke="#191970" points="292.434,-70.8133 282.2772,-73.8283 292.0973,-77.8052 292.434,-70.8133"/>
</g>
<!-- Node6&#45;&gt;Node8 -->
<g id="edge8" class="edge">
<title>Node6&#45;&gt;Node8</title>
<path fill="none" stroke="#191970" d="M672.6773,-195.2039C580.9968,-188.4026 419.7212,-174.4634 283,-154 275.2234,-152.8361 267.0464,-151.4228 259.1312,-149.9289"/>
<polygon fill="#191970" stroke="#191970" points="259.7809,-146.4897 249.2951,-148.006 258.4378,-153.3597 259.7809,-146.4897"/>
</g>
<!-- Node9 -->
<g id="node10" class="node">
<title>Node9</title>
<g id="a_node10"><a xlink:href="$sequence_8h.html" xlink:title="Functions and data structures related to sequence representations ,.">
<polygon fill="none" stroke="#000000" points="590,-129 590,-148 712,-148 712,-129 590,-129"/>
<text text-anchor="middle" x="651" y="-136" font-family="Helvetica,sans-Serif" font-size="10.00" fill="#000000">ViennaRNA/sequence.h</text>
</a>
</g>
</g>
<!-- Node6&#45;&gt;Node9 -->
<g id="edge13" class="edge">
<title>Node6&#45;&gt;Node9</title>
<path fill="none" stroke="#191970" d="M726.0938,-190.3906C709.133,-180.6421 685.2932,-165.3994 668.9243,-153.9521"/>
<polygon fill="#191970" stroke="#191970" points="670.8551,-151.0297 660.6902,-148.0419 666.7733,-156.7164 670.8551,-151.0297"/>
</g>
<!-- Node6&#45;&gt;Node10 -->
<g id="edge15" class="edge">
<title>Node6&#45;&gt;Node10</title>
<path fill="none" stroke="#191970" d="M672.9369,-191.0008C609.4358,-182.3807 515.3098,-168.5634 434,-154 427.3171,-152.803 420.3162,-151.4669 413.4616,-150.0947"/>
<polygon fill="#191970" stroke="#191970" points="414.0764,-146.648 403.5775,-148.0705 412.6719,-153.5057 414.0764,-146.648"/>
</g>
<!-- Node6&#45;&gt;Node11 -->
<g id="edge18" class="edge">
<title>Node6&#45;&gt;Node11</title>
<path fill="none" stroke="#191970" d="M704.645,-190.4581C668.1513,-181.3376 614.6065,-167.3638 573.184,-156.2042"/>
<polygon fill="#191970" stroke="#191970" points="574.0373,-152.8093 563.4705,-153.5784 572.2106,-159.5667 574.0373,-152.8093"/>
</g>
<!-- Node6&#45;&gt;Node13 -->
<g id="edge22" class="edge">
<title>Node6&#45;&gt;Node13</title>
<path fill="none" stroke="#191970" d="M780.5147,-190.4581C819.1644,-180.6732 882.6044,-165.3023 931.5774,-153.8132"/>
<polygon fill="#191970" stroke="#191970" points="932.5402,-157.1826 941.4803,-151.4971 930.946,-150.3665 932.5402,-157.1826"/>
</g>
<!-- Node6&#45;&gt;Node14 -->
<g id="edge26" class="edge">
<title>Node6&#45;&gt;Node14</title>
<path fill="none" stroke="#191970" d="M759.5313,-190.3906C777.2773,-180.1908 808.422,-163.9763 832.3764,-152.3875"/>
<polygon fill="#191970" stroke="#191970" points="833.9683,-155.506 841.4875,-148.0419 830.9548,-149.1878 833.9683,-155.506"/>
</g>
<!-- Node6&#45;&gt;Node15 -->
<g id="edge28" class="edge">
<title>Node6&#45;&gt;Node15</title>
<path fill="none" stroke="#191970" d="M819.0101,-191.5323C882.5629,-183.7273 977.3436,-171.0455 1068.5209,-154.1899"/>
<polygon fill="#191970" stroke="#191970" points="1069.2845,-157.6079 1078.4716,-152.3308 1067.9989,-150.7269 1069.2845,-157.6079"/>
</g>
<!-- Node6&#45;&gt;Node16 -->
<g id="edge29" class="edge">
<title>Node6&#45;&gt;Node16</title>
<path fill="none" stroke="#191970" d="M819.1111,-194.7662C908.0773,-188.1103 1062.4832,-174.9042 1194,-154 1196.3655,-153.624 1198.7706,-153.2185 1201.2001,-152.79"/>
<polygon fill="#191970" stroke="#191970" points="1202.0945,-156.1838 1211.2865,-150.9152 1200.8153,-149.3017 1202.0945,-156.1838"/>
</g>
<!-- Node8&#45;&gt;Node3 -->
<g id="edge10" class="edge">
<title>Node8&#45;&gt;Node3</title>
<path fill="none" stroke="#191970" d="M263.0823,-148.0156C329.5053,-161.9126 451.2326,-188.4507 555,-210 631.6037,-225.9082 653.277,-229.5585 727.5606,-244.5016"/>
<polygon fill="#191970" stroke="#191970" points="726.8946,-247.9377 737.389,-246.4828 728.2778,-241.0757 726.8946,-247.9377"/>
</g>
<!-- Node8&#45;&gt;Node4 -->
<g id="edge9" class="edge">
<title>Node8&#45;&gt;Node4</title>
<path fill="none" stroke="#191970" d="M194.6578,-128.9005C171.8013,-117.5569 133.573,-98.5844 107.3666,-85.5783"/>
<polygon fill="#191970" stroke="#191970" points="108.8198,-82.3922 98.3063,-81.0817 105.7079,-88.6624 108.8198,-82.3922"/>
</g>
<!-- Node8&#45;&gt;Node6 -->
<g id="edge11" class="edge">
<title>Node8&#45;&gt;Node6</title>
<path fill="none" stroke="#191970" d="M266.7249,-148.006C278.0701,-150.185 289.94,-152.3446 301,-154 426.6121,-172.8007 572.9505,-186.0943 662.5803,-193.405"/>
<polygon fill="#191970" stroke="#191970" points="662.4361,-196.9047 672.686,-194.2235 663.0013,-189.9275 662.4361,-196.9047"/>
</g>
<!-- Node8&#45;&gt;Node7 -->
<g id="edge12" class="edge">
<title>Node8&#45;&gt;Node7</title>
<path fill="none" stroke="#191970" d="M216.1491,-128.9005C218.3546,-119.0495 221.8481,-103.4451 224.6363,-90.9912"/>
<polygon fill="#191970" stroke="#191970" points="228.0855,-91.6048 226.8549,-81.0817 221.2546,-90.0754 228.0855,-91.6048"/>
</g>
<!-- Node9&#45;&gt;Node6 -->
<g id="edge14" class="edge">
<title>Node9&#45;&gt;Node6</title>
<path fill="none" stroke="#191970" d="M670.7888,-148.0419C687.7177,-157.765 711.5588,-173.0037 727.9621,-184.4685"/>
<polygon fill="#191970" stroke="#191970" points="726.0529,-187.4063 736.2188,-190.3906 730.1327,-181.7182 726.0529,-187.4063"/>
</g>
<!-- Node10&#45;&gt;Node3 -->
<g id="edge16" class="edge">
<title>Node10&#45;&gt;Node3</title>
<path fill="none" stroke="#191970" d="M407.0667,-148.0435C457.9997,-161.8089 549.2465,-188.0002 627,-210 666.8003,-221.2612 711.4817,-233.7703 745.807,-243.64"/>
<polygon fill="#191970" stroke="#191970" points="745.0763,-247.0719 755.6547,-246.4819 747.0172,-240.3463 745.0763,-247.0719"/>
</g>
<!-- Node10&#45;&gt;Node6 -->
<g id="edge17" class="edge">
<title>Node10&#45;&gt;Node6</title>
<path fill="none" stroke="#191970" d="M421.1065,-148.0705C431.4024,-150.1286 442.0533,-152.2184 452,-154 527.3779,-167.501 613.7702,-180.3607 673.3682,-189.0329"/>
<polygon fill="#191970" stroke="#191970" points="673.036,-192.5213 683.4353,-190.4952 674.0423,-185.594 673.036,-192.5213"/>
</g>
<!-- Node11&#45;&gt;Node6 -->
<g id="edge19" class="edge">
<title>Node11&#45;&gt;Node6</title>
<path fill="none" stroke="#191970" d="M571.9211,-152.7252C613.4952,-163.2957 667.728,-177.5723 704.5889,-187.6623"/>
<polygon fill="#191970" stroke="#191970" points="703.9297,-191.1109 714.5,-190.3906 705.7876,-184.362 703.9297,-191.1109"/>
</g>
<!-- Node12 -->
<g id="node13" class="node">
<title>Node12</title>
<g id="a_node13"><a xlink:href="$constraints_2basic_8h.html" xlink:title="Functions and data structures for constraining secondary structure predictions and evaluation.">
<polygon fill="none" stroke="#000000" points="718.5,-56.5 718.5,-86.5 837.5,-86.5 837.5,-56.5 718.5,-56.5"/>
<text text-anchor="start" x="726.5" y="-74.5" font-family="Helvetica,sans-Serif" font-size="10.00" fill="#000000">ViennaRNA/constraints</text>
<text text-anchor="middle" x="778" y="-63.5" font-family="Helvetica,sans-Serif" font-size="10.00" fill="#000000">/basic.h</text>
</a>
</g>
</g>
<!-- Node11&#45;&gt;Node12 -->
<g id="edge20" class="edge">
<title>Node11&#45;&gt;Node12</title>
<path fill="none" stroke="#191970" d="M571.6956,-123.4639C612.1957,-113.2627 665.8843,-99.7397 708.3391,-89.0462"/>
<polygon fill="#191970" stroke="#191970" points="709.2018,-92.4383 718.044,-86.6017 707.492,-85.6503 709.2018,-92.4383"/>
</g>
<!-- Node12&#45;&gt;Node6 -->
<g id="edge21" class="edge">
<title>Node12&#45;&gt;Node6</title>
<path fill="none" stroke="#191970" d="M774.2144,-86.7016C768.3876,-110.0997 757.2263,-154.9192 750.8269,-180.6171"/>
<polygon fill="#191970" stroke="#191970" points="747.4255,-179.7922 748.4052,-190.3416 754.218,-181.4838 747.4255,-179.7922"/>
</g>
<!-- Node13&#45;&gt;Node3 -->
<g id="edge23" class="edge">
<title>Node13&#45;&gt;Node3</title>
<path fill="none" stroke="#191970" d="M981.3166,-153.513C948.3627,-175.5261 882.0711,-216.6142 839.8889,-241.2699"/>
<polygon fill="#191970" stroke="#191970" points="837.9089,-238.3721 831.0156,-246.4178 841.4217,-244.4269 837.9089,-238.3721"/>
</g>
<!-- Node13&#45;&gt;Node6 -->
<g id="edge24" class="edge">
<title>Node13&#45;&gt;Node6</title>
<path fill="none" stroke="#191970" d="M944.3808,-153.5784C901.4499,-164.2376 842.8869,-178.3255 800.4836,-188.1749"/>
<polygon fill="#191970" stroke="#191970" points="799.5672,-184.7944 790.6133,-190.4581 801.1448,-191.6143 799.5672,-184.7944"/>
</g>
<!-- Node13&#45;&gt;Node12 -->
<g id="edge25" class="edge">
<title>Node13&#45;&gt;Node12</title>
<path fill="none" stroke="#191970" d="M950.9544,-123.4639C917.5017,-113.4131 873.316,-100.1375 837.9796,-89.5208"/>
<polygon fill="#191970" stroke="#191970" points="838.848,-86.1272 828.2638,-86.6017 836.8338,-92.8312 838.848,-86.1272"/>
</g>
<!-- Node14&#45;&gt;Node6 -->
<g id="edge27" class="edge">
<title>Node14&#45;&gt;Node6</title>
<path fill="none" stroke="#191970" d="M851.5861,-148.0419C833.8994,-158.2151 802.7685,-174.4265 778.7824,-186.0357"/>
<polygon fill="#191970" stroke="#191970" points="777.174,-182.9251 769.6563,-190.3906 780.1887,-189.2426 777.174,-182.9251"/>
</g>
<!-- Node16&#45;&gt;Node3 -->
<g id="edge30" class="edge">
<title>Node16&#45;&gt;Node3</title>
<path fill="none" stroke="#191970" d="M1220.9951,-153.513C1136.1813,-176.3337 970.0381,-219.6547 874.3755,-243.9154"/>
<polygon fill="#191970" stroke="#191970" points="873.326,-240.5706 864.4907,-246.4178 875.0439,-247.3566 873.326,-240.5706"/>
</g>
<!-- Node16&#45;&gt;Node6 -->
<g id="edge31" class="edge">
<title>Node16&#45;&gt;Node6</title>
<path fill="none" stroke="#191970" d="M1215.0099,-153.5095C1214.0007,-153.6779 1212.9968,-153.8416 1212,-154 1079.0281,-175.1354 922.6578,-188.4016 829.0178,-194.9847"/>
<polygon fill="#191970" stroke="#191970" points="828.7694,-191.4934 819.0358,-195.6777 829.2543,-198.4766 828.7694,-191.4934"/>
</g>
<!-- Node16&#45;&gt;Node17 -->
<g id="edge32" class="edge">
<title>Node16&#45;&gt;Node17</title>
<path fill="none" stroke="#191970" d="M1296.6915,-123.2967C1313.0283,-112.351 1334.9759,-97.6462 1351.3119,-86.701"/>
<polygon fill="#191970" stroke="#191970" points="1353.3793,-89.5289 1359.7388,-81.055 1349.483,-83.7135 1353.3793,-89.5289"/>
</g>
<!-- Node17&#45;&gt;Node3 -->
<g id="edge34" class="edge">
<title>Node17&#45;&gt;Node3</title>
<path fill="none" stroke="#191970" d="M1378.9665,-81.0736C1381.622,-98.4096 1376.7316,-134.9649 1355,-154 1285.5233,-214.8558 1014.5889,-244.8776 879.4292,-256.0993"/>
<polygon fill="#191970" stroke="#191970" points="878.8303,-252.6364 869.1481,-256.9382 879.3997,-259.6132 878.8303,-252.6364"/>
</g>
<!-- Node18 -->
<g id="node19" class="node">
<title>Node18</title>
<g id="a_node19"><a xlink:title=" ">
<polygon fill="none" stroke="#bfbfbf" points="1351,-.5 1351,-19.5 1397,-19.5 1397,-.5 1351,-.5"/>
<text text-anchor="middle" x="1374" y="-7.5" font-family="Helvetica,sans-Serif" font-size="10.00" fill="#000000">stdio.h</text>
</a>
</g>
</g>
<!-- Node17&#45;&gt;Node18 -->
<g id="edge33" class="edge">
<title>Node17&#45;&gt;Node18</title>
<path fill="none" stroke="#191970" d="M1374,-61.8906C1374,-53.3657 1374,-40.6392 1374,-29.9235"/>
<polygon fill="#191970" stroke="#191970" points="1377.5001,-29.7448 1374,-19.7449 1370.5001,-29.7449 1377.5001,-29.7448"/>
</g>
</g>
</svg>
