<?xml version="1.0" encoding="UTF-8" standalone="no"?>
<!DOCTYPE svg PUBLIC "-//W3C//DTD SVG 1.1//EN"
 "http://www.w3.org/Graphics/SVG/1.1/DTD/svg11.dtd">
<!-- Generated by graphviz version 2.40.1 (0)
 -->
<!-- Title: vrna_fc_s Pages: 1 -->
<svg width="525pt" height="427pt"
 viewBox="0.00 0.00 525.00 427.00" xmlns="http://www.w3.org/2000/svg" xmlns:xlink="http://www.w3.org/1999/xlink">
<g id="graph0" class="graph" transform="scale(1 1) rotate(0) translate(4 423)">
<title>vrna_fc_s</title>
<!-- Node1 -->
<g id="node1" class="node">
<title>Node1</title>
<g id="a_node1"><a xlink:title="The most basic data structure required by many functions throughout the RNAlib.">
<polygon fill="#bfbfbf" stroke="#000000" points="458,-190.5 458,-209.5 517,-209.5 517,-190.5 458,-190.5"/>
<text text-anchor="middle" x="487.5" y="-197.5" font-family="Helvetica,sans-Serif" font-size="10.00" fill="#000000">vrna_fc_s</text>
</a>
</g>
</g>
<!-- Node2 -->
<g id="node2" class="node">
<title>Node2</title>
<g id="a_node2"><a xlink:href="$group__soft__constraints.html#structvrna__sc__s" xlink:title="The soft constraints data structure.">
<polygon fill="none" stroke="#000000" points="253,-389.5 253,-408.5 315,-408.5 315,-389.5 253,-389.5"/>
<text text-anchor="middle" x="284" y="-396.5" font-family="Helvetica,sans-Serif" font-size="10.00" fill="#000000">vrna_sc_s</text>
</a>
</g>
</g>
<!-- Node2&#45;&gt;Node1 -->
<g id="edge1" class="edge">
<title>Node2&#45;&gt;Node1</title>
<path fill="none" stroke="#9a32cd" stroke-dasharray="5,2" d="M325.5066,-401.9096C360.377,-402.0179 409.3004,-396.3544 440,-368 463.936,-345.8925 481.1705,-242.422 486.077,-209.8461"/>
<polygon fill="#9a32cd" stroke="#9a32cd" points="325.2376,-398.4039 315.1717,-401.7095 325.102,-405.4026 325.2376,-398.4039"/>
<text text-anchor="middle" x="406.5" y="-411" font-family="Helvetica,sans-Serif" font-size="10.00" fill="#000000"> sc</text>
<text text-anchor="middle" x="406.5" y="-400" font-family="Helvetica,sans-Serif" font-size="10.00" fill="#000000">scs</text>
</g>
<!-- Node3 -->
<g id="node3" class="node">
<title>Node3</title>
<g id="a_node3"><a xlink:href="$structvrna__sc__bp__storage__t.html" xlink:title="A base pair constraint.">
<polygon fill="none" stroke="#000000" points="0,-389.5 0,-408.5 113,-408.5 113,-389.5 0,-389.5"/>
<text text-anchor="middle" x="56.5" y="-396.5" font-family="Helvetica,sans-Serif" font-size="10.00" fill="#000000">vrna_sc_bp_storage_t</text>
</a>
</g>
</g>
<!-- Node3&#45;&gt;Node2 -->
<g id="edge2" class="edge">
<title>Node3&#45;&gt;Node2</title>
<path fill="none" stroke="#9a32cd" stroke-dasharray="5,2" d="M123.1149,-399C165.9913,-399 219.7225,-399 252.9555,-399"/>
<polygon fill="#9a32cd" stroke="#9a32cd" points="123.0283,-395.5001 113.0283,-399 123.0282,-402.5001 123.0283,-395.5001"/>
<text text-anchor="middle" x="163" y="-402" font-family="Helvetica,sans-Serif" font-size="10.00" fill="#000000"> bp_storage</text>
</g>
<!-- Node4 -->
<g id="node4" class="node">
<title>Node4</title>
<g id="a_node4"><a xlink:href="$group__energy__parameters.html#structvrna__exp__param__s" xlink:title="The data structure that contains temperature scaled Boltzmann weights of the energy parameters.">
<polygon fill="none" stroke="#000000" points="234.5,-351.5 234.5,-370.5 333.5,-370.5 333.5,-351.5 234.5,-351.5"/>
<text text-anchor="middle" x="284" y="-358.5" font-family="Helvetica,sans-Serif" font-size="10.00" fill="#000000">vrna_exp_param_s</text>
</a>
</g>
</g>
<!-- Node4&#45;&gt;Node1 -->
<g id="edge3" class="edge">
<title>Node4&#45;&gt;Node1</title>
<path fill="none" stroke="#9a32cd" stroke-dasharray="5,2" d="M343.9881,-357.2556C381.5742,-353.7492 425.5409,-347.1493 440,-335 459.9734,-318.2172 479.1413,-238.1255 485.3849,-209.8844"/>
<polygon fill="#9a32cd" stroke="#9a32cd" points="343.2432,-353.8072 333.5859,-358.1645 343.8526,-360.7806 343.2432,-353.8072"/>
<text text-anchor="middle" x="406.5" y="-356" font-family="Helvetica,sans-Serif" font-size="10.00" fill="#000000"> exp_params</text>
</g>
<!-- Node5 -->
<g id="node5" class="node">
<title>Node5</title>
<g id="a_node5"><a xlink:href="$group__model__details.html#structvrna__md__s" xlink:title="The data structure that contains the complete model details used throughout the calculations.">
<polygon fill="none" stroke="#000000" points="24,-334.5 24,-353.5 89,-353.5 89,-334.5 24,-334.5"/>
<text text-anchor="middle" x="56.5" y="-341.5" font-family="Helvetica,sans-Serif" font-size="10.00" fill="#000000">vrna_md_s</text>
</a>
</g>
</g>
<!-- Node5&#45;&gt;Node4 -->
<g id="edge4" class="edge">
<title>Node5&#45;&gt;Node4</title>
<path fill="none" stroke="#9a32cd" stroke-dasharray="5,2" d="M99.4125,-347.2066C137.7698,-350.0729 193.9796,-354.2732 234.2829,-357.2849"/>
<polygon fill="#9a32cd" stroke="#9a32cd" points="99.3282,-343.6907 89.0952,-346.4357 98.8066,-350.6712 99.3282,-343.6907"/>
<text text-anchor="middle" x="163" y="-357" font-family="Helvetica,sans-Serif" font-size="10.00" fill="#000000"> model_details</text>
</g>
<!-- Node6 -->
<g id="node6" class="node">
<title>Node6</title>
<g id="a_node6"><a xlink:href="$group__energy__parameters.html#structvrna__param__s" xlink:title="The datastructure that contains temperature scaled energy parameters.">
<polygon fill="none" stroke="#000000" points="245,-313.5 245,-332.5 323,-332.5 323,-313.5 245,-313.5"/>
<text text-anchor="middle" x="284" y="-320.5" font-family="Helvetica,sans-Serif" font-size="10.00" fill="#000000">vrna_param_s</text>
</a>
</g>
</g>
<!-- Node5&#45;&gt;Node6 -->
<g id="edge6" class="edge">
<title>Node5&#45;&gt;Node6</title>
<path fill="none" stroke="#9a32cd" stroke-dasharray="5,2" d="M99.1912,-337.8095C109.5847,-336.4296 120.6798,-335.0626 131,-334 169.6769,-330.0177 214.0022,-326.9999 244.9532,-325.1417"/>
<polygon fill="#9a32cd" stroke="#9a32cd" points="98.5238,-334.3679 89.0863,-339.1829 99.4666,-341.3042 98.5238,-334.3679"/>
<text text-anchor="middle" x="163" y="-337" font-family="Helvetica,sans-Serif" font-size="10.00" fill="#000000"> model_details</text>
</g>
<!-- Node6&#45;&gt;Node1 -->
<g id="edge5" class="edge">
<title>Node6&#45;&gt;Node1</title>
<path fill="none" stroke="#9a32cd" stroke-dasharray="5,2" d="M333.4633,-325.5442C366.6128,-324.7713 409.5937,-318.7028 440,-296 469.2043,-274.1947 481.5331,-229.5053 485.708,-209.755"/>
<polygon fill="#9a32cd" stroke="#9a32cd" points="333.0473,-322.0471 323.0743,-325.6234 333.1008,-329.0469 333.0473,-322.0471"/>
<text text-anchor="middle" x="406.5" y="-324" font-family="Helvetica,sans-Serif" font-size="10.00" fill="#000000"> params</text>
</g>
<!-- Node7 -->
<g id="node7" class="node">
<title>Node7</title>
<g id="a_node7"><a xlink:href="$group__hard__constraints.html#structvrna__hc__s" xlink:title="The hard constraints data structure.">
<polygon fill="none" stroke="#000000" points="253,-275.5 253,-294.5 315,-294.5 315,-275.5 253,-275.5"/>
<text text-anchor="middle" x="284" y="-282.5" font-family="Helvetica,sans-Serif" font-size="10.00" fill="#000000">vrna_hc_s</text>
</a>
</g>
</g>
<!-- Node7&#45;&gt;Node1 -->
<g id="edge7" class="edge">
<title>Node7&#45;&gt;Node1</title>
<path fill="none" stroke="#9a32cd" stroke-dasharray="5,2" d="M325.4805,-286.3572C358.6024,-285.6395 405.0856,-280.4584 440,-260 460.6332,-247.9098 475.7342,-223.1584 482.882,-209.5278"/>
<polygon fill="#9a32cd" stroke="#9a32cd" points="325.1966,-282.8594 315.2277,-286.4471 325.2581,-289.8592 325.1966,-282.8594"/>
<text text-anchor="middle" x="406.5" y="-284" font-family="Helvetica,sans-Serif" font-size="10.00" fill="#000000"> hc</text>
</g>
<!-- Node8 -->
<g id="node8" class="node">
<title>Node8</title>
<g id="a_node8"><a xlink:href="$structvrna__hc__bp__storage__t.html" xlink:title="A base pair hard constraint.">
<polygon fill="none" stroke="#000000" points="0,-275.5 0,-294.5 113,-294.5 113,-275.5 0,-275.5"/>
<text text-anchor="middle" x="56.5" y="-282.5" font-family="Helvetica,sans-Serif" font-size="10.00" fill="#000000">vrna_hc_bp_storage_t</text>
</a>
</g>
</g>
<!-- Node8&#45;&gt;Node7 -->
<g id="edge8" class="edge">
<title>Node8&#45;&gt;Node7</title>
<path fill="none" stroke="#9a32cd" stroke-dasharray="5,2" d="M123.1149,-285C165.9913,-285 219.7225,-285 252.9555,-285"/>
<polygon fill="#9a32cd" stroke="#9a32cd" points="123.0283,-281.5001 113.0283,-285 123.0282,-288.5001 123.0283,-281.5001"/>
<text text-anchor="middle" x="163" y="-288" font-family="Helvetica,sans-Serif" font-size="10.00" fill="#000000"> bp_storage</text>
</g>
<!-- Node9 -->
<g id="node9" class="node">
<title>Node9</title>
<g id="a_node9"><a xlink:href="$group__alphabet__utils.html#structvrna__sequence__s" xlink:title="Data structure representing a nucleotide sequence.">
<polygon fill="none" stroke="#000000" points="10,-218.5 10,-237.5 103,-237.5 103,-218.5 10,-218.5"/>
<text text-anchor="middle" x="56.5" y="-225.5" font-family="Helvetica,sans-Serif" font-size="10.00" fill="#000000">vrna_sequence_s</text>
</a>
</g>
</g>
<!-- Node9&#45;&gt;Node1 -->
<g id="edge9" class="edge">
<title>Node9&#45;&gt;Node1</title>
<path fill="none" stroke="#9a32cd" stroke-dasharray="5,2" d="M113.7868,-231.387C119.5995,-231.6374 125.4162,-231.8502 131,-232 268.4916,-235.6884 304.8716,-240.6486 440,-215 446.9669,-213.6776 454.3442,-211.6634 461.1541,-209.5362"/>
<polygon fill="#9a32cd" stroke="#9a32cd" points="113.5319,-227.8714 103.3796,-230.9012 113.2055,-234.8637 113.5319,-227.8714"/>
<text text-anchor="middle" x="284" y="-238" font-family="Helvetica,sans-Serif" font-size="10.00" fill="#000000"> nucleotides</text>
</g>
<!-- Node10 -->
<g id="node10" class="node">
<title>Node10</title>
<g id="a_node10"><a xlink:href="$group__alphabet__utils.html#structvrna__alignment__s" xlink:title=" ">
<polygon fill="none" stroke="#000000" points="237.5,-190.5 237.5,-209.5 330.5,-209.5 330.5,-190.5 237.5,-190.5"/>
<text text-anchor="middle" x="284" y="-197.5" font-family="Helvetica,sans-Serif" font-size="10.00" fill="#000000">vrna_alignment_s</text>
</a>
</g>
</g>
<!-- Node9&#45;&gt;Node10 -->
<g id="edge11" class="edge">
<title>Node9&#45;&gt;Node10</title>
<path fill="none" stroke="#9a32cd" stroke-dasharray="5,2" d="M113.0657,-221.0381C151.403,-216.3196 201.453,-210.1596 237.4753,-205.7261"/>
<polygon fill="#9a32cd" stroke="#9a32cd" points="112.5845,-217.5708 103.087,-222.2662 113.4397,-224.5184 112.5845,-217.5708"/>
<text text-anchor="middle" x="163" y="-221" font-family="Helvetica,sans-Serif" font-size="10.00" fill="#000000"> sequences</text>
</g>
<!-- Node10&#45;&gt;Node1 -->
<g id="edge10" class="edge">
<title>Node10&#45;&gt;Node1</title>
<path fill="none" stroke="#9a32cd" stroke-dasharray="5,2" d="M341.0814,-200C378.987,-200 427.2117,-200 457.7298,-200"/>
<polygon fill="#9a32cd" stroke="#9a32cd" points="340.687,-196.5001 330.687,-200 340.687,-203.5001 340.687,-196.5001"/>
<text text-anchor="middle" x="406.5" y="-203" font-family="Helvetica,sans-Serif" font-size="10.00" fill="#000000"> alignment</text>
</g>
<!-- Node11 -->
<g id="node11" class="node">
<title>Node11</title>
<g id="a_node11"><a xlink:href="$group__domains__up.html#structvrna__unstructured__domain__s" xlink:title="Data structure to store all functionality for ligand binding.">
<polygon fill="none" stroke="#000000" points="213,-152.5 213,-171.5 355,-171.5 355,-152.5 213,-152.5"/>
<text text-anchor="middle" x="284" y="-159.5" font-family="Helvetica,sans-Serif" font-size="10.00" fill="#000000">vrna_unstructured_domain_s</text>
</a>
</g>
</g>
<!-- Node11&#45;&gt;Node1 -->
<g id="edge12" class="edge">
<title>Node11&#45;&gt;Node1</title>
<path fill="none" stroke="#9a32cd" stroke-dasharray="5,2" d="M365.3252,-171.4879C389.5061,-174.9807 415.9554,-179.4682 440,-185 446.4894,-186.493 453.3723,-188.4449 459.8249,-190.4446"/>
<polygon fill="#9a32cd" stroke="#9a32cd" points="365.5046,-167.9787 355.1145,-170.0517 364.5295,-174.9105 365.5046,-167.9787"/>
<text text-anchor="middle" x="406.5" y="-188" font-family="Helvetica,sans-Serif" font-size="10.00" fill="#000000"> domains_up</text>
</g>
<!-- Node12 -->
<g id="node12" class="node">
<title>Node12</title>
<g id="a_node12"><a xlink:href="$group__dp__matrices.html#structvrna__mx__mfe__s" xlink:title="Minimum Free Energy (MFE) Dynamic Programming (DP) matrices data structure required within the vrna_f...">
<polygon fill="none" stroke="#000000" points="241,-114.5 241,-133.5 327,-133.5 327,-114.5 241,-114.5"/>
<text text-anchor="middle" x="284" y="-121.5" font-family="Helvetica,sans-Serif" font-size="10.00" fill="#000000">vrna_mx_mfe_s</text>
</a>
</g>
</g>
<!-- Node12&#45;&gt;Node1 -->
<g id="edge13" class="edge">
<title>Node12&#45;&gt;Node1</title>
<path fill="none" stroke="#9a32cd" stroke-dasharray="5,2" d="M337.5268,-129.4154C368.7016,-134.1478 408.0366,-142.9084 440,-159 455.5683,-166.8377 470.2309,-180.8939 479.0386,-190.3339"/>
<polygon fill="#9a32cd" stroke="#9a32cd" points="337.6828,-125.9025 327.2897,-127.9602 336.6976,-132.8328 337.6828,-125.9025"/>
<text text-anchor="middle" x="406.5" y="-162" font-family="Helvetica,sans-Serif" font-size="10.00" fill="#000000"> matrices</text>
</g>
<!-- Node13 -->
<g id="node13" class="node">
<title>Node13</title>
<g id="a_node13"><a xlink:href="$group__grammar.html#structvrna__gr__aux__s" xlink:title=" ">
<polygon fill="none" stroke="#000000" points="244,-76.5 244,-95.5 324,-95.5 324,-76.5 244,-76.5"/>
<text text-anchor="middle" x="284" y="-83.5" font-family="Helvetica,sans-Serif" font-size="10.00" fill="#000000">vrna_gr_aux_s</text>
</a>
</g>
</g>
<!-- Node13&#45;&gt;Node1 -->
<g id="edge14" class="edge">
<title>Node13&#45;&gt;Node1</title>
<path fill="none" stroke="#9a32cd" stroke-dasharray="5,2" d="M334.3106,-87.7104C367.0821,-91.0633 409.2939,-99.832 440,-122 464.296,-139.5404 478.6078,-173.6959 484.4349,-190.3727"/>
<polygon fill="#9a32cd" stroke="#9a32cd" points="334.2981,-84.1957 324.0288,-86.802 333.6819,-91.1686 334.2981,-84.1957"/>
<text text-anchor="middle" x="406.5" y="-125" font-family="Helvetica,sans-Serif" font-size="10.00" fill="#000000"> aux_grammar</text>
</g>
<!-- Node14 -->
<g id="node14" class="node">
<title>Node14</title>
<g id="a_node14"><a xlink:href="$group__dp__matrices.html#structvrna__mx__pf__s" xlink:title="Partition function (PF) Dynamic Programming (DP) matrices data structure required within the vrna_fol...">
<polygon fill="none" stroke="#000000" points="245,-38.5 245,-57.5 323,-57.5 323,-38.5 245,-38.5"/>
<text text-anchor="middle" x="284" y="-45.5" font-family="Helvetica,sans-Serif" font-size="10.00" fill="#000000">vrna_mx_pf_s</text>
</a>
</g>
</g>
<!-- Node14&#45;&gt;Node1 -->
<g id="edge15" class="edge">
<title>Node14&#45;&gt;Node1</title>
<path fill="none" stroke="#9a32cd" stroke-dasharray="5,2" d="M333.1151,-46.4457C366.7473,-47.9285 410.4413,-55.1987 440,-80 474.8438,-109.2358 484.2955,-167.5614 486.7156,-190.4587"/>
<polygon fill="#9a32cd" stroke="#9a32cd" points="333.123,-42.9446 323.0274,-46.1583 332.9237,-49.9418 333.123,-42.9446"/>
<text text-anchor="middle" x="406.5" y="-83" font-family="Helvetica,sans-Serif" font-size="10.00" fill="#000000"> exp_matrices</text>
</g>
<!-- Node15 -->
<g id="node15" class="node">
<title>Node15</title>
<g id="a_node15"><a xlink:href="$structvrna__structured__domains__s.html" xlink:title=" ">
<polygon fill="none" stroke="#000000" points="215.5,-.5 215.5,-19.5 352.5,-19.5 352.5,-.5 215.5,-.5"/>
<text text-anchor="middle" x="284" y="-7.5" font-family="Helvetica,sans-Serif" font-size="10.00" fill="#000000">vrna_structured_domains_s</text>
</a>
</g>
</g>
<!-- Node15&#45;&gt;Node1 -->
<g id="edge16" class="edge">
<title>Node15&#45;&gt;Node1</title>
<path fill="none" stroke="#9a32cd" stroke-dasharray="5,2" d="M362.7631,-7.2773C390.0973,-10.241 419.1004,-18.3226 440,-37 463.6265,-58.1143 481.0714,-158.7332 486.0532,-190.4211"/>
<polygon fill="#9a32cd" stroke="#9a32cd" points="363.0526,-3.7893 352.7862,-6.4068 362.4441,-10.7628 363.0526,-3.7893"/>
<text text-anchor="middle" x="406.5" y="-40" font-family="Helvetica,sans-Serif" font-size="10.00" fill="#000000"> domains_struc</text>
</g>
</g>
</svg>
