<?xml version="1.0" encoding="UTF-8" standalone="no"?>
<!DOCTYPE svg PUBLIC "-//W3C//DTD SVG 1.1//EN"
 "http://www.w3.org/Graphics/SVG/1.1/DTD/svg11.dtd">
<!-- Generated by graphviz version 2.40.1 (0)
 -->
<!-- Title: ViennaRNA/structure_utils.h Pages: 1 -->
<svg width="1202pt" height="475pt"
 viewBox="0.00 0.00 1201.50 475.00" xmlns="http://www.w3.org/2000/svg" xmlns:xlink="http://www.w3.org/1999/xlink">
<g id="graph0" class="graph" transform="scale(1 1) rotate(0) translate(4 471)">
<title>ViennaRNA/structure_utils.h</title>
<!-- Node0 -->
<g id="node1" class="node">
<title>Node0</title>
<g id="a_node1"><a xlink:title="Use ViennaRNA/utils/structures.h instead.">
<polygon fill="#bfbfbf" stroke="#000000" points="558.5,-436.5 558.5,-466.5 668.5,-466.5 668.5,-436.5 558.5,-436.5"/>
<text text-anchor="start" x="566.5" y="-454.5" font-family="Helvetica,sans-Serif" font-size="10.00" fill="#000000">ViennaRNA/structure</text>
<text text-anchor="middle" x="613.5" y="-443.5" font-family="Helvetica,sans-Serif" font-size="10.00" fill="#000000">_utils.h</text>
</a>
</g>
</g>
<!-- Node1 -->
<g id="node2" class="node">
<title>Node1</title>
<g id="a_node2"><a xlink:href="$utils_2structures_8h.html" xlink:title="Various utility&#45; and helper&#45;functions for secondary structure parsing, converting,...">
<polygon fill="none" stroke="#000000" points="541.5,-380.5 541.5,-399.5 685.5,-399.5 685.5,-380.5 541.5,-380.5"/>
<text text-anchor="middle" x="613.5" y="-387.5" font-family="Helvetica,sans-Serif" font-size="10.00" fill="#000000">ViennaRNA/utils/structures.h</text>
</a>
</g>
</g>
<!-- Node0&#45;&gt;Node1 -->
<g id="edge1" class="edge">
<title>Node0&#45;&gt;Node1</title>
<path fill="none" stroke="#191970" d="M613.5,-436.2977C613.5,-428.3834 613.5,-418.6043 613.5,-410.0759"/>
<polygon fill="#191970" stroke="#191970" points="617.0001,-409.8469 613.5,-399.8469 610.0001,-409.847 617.0001,-409.8469"/>
</g>
<!-- Node2 -->
<g id="node3" class="node">
<title>Node2</title>
<g id="a_node3"><a xlink:title=" ">
<polygon fill="none" stroke="#bfbfbf" points="492.5,-319 492.5,-338 538.5,-338 538.5,-319 492.5,-319"/>
<text text-anchor="middle" x="515.5" y="-326" font-family="Helvetica,sans-Serif" font-size="10.00" fill="#000000">stdio.h</text>
</a>
</g>
</g>
<!-- Node1&#45;&gt;Node2 -->
<g id="edge2" class="edge">
<title>Node1&#45;&gt;Node2</title>
<path fill="none" stroke="#191970" d="M598.1875,-380.3906C582.4376,-370.5067 557.6877,-354.9749 539.3663,-343.4773"/>
<polygon fill="#191970" stroke="#191970" points="541.0357,-340.3929 530.705,-338.0419 537.3148,-346.3221 541.0357,-340.3929"/>
</g>
<!-- Node3 -->
<g id="node4" class="node">
<title>Node3</title>
<g id="a_node4"><a xlink:href="$datastructures_2basic_8h.html" xlink:title="Various data structures and pre&#45;processor macros.">
<polygon fill="none" stroke="#000000" points="594.5,-313.5 594.5,-343.5 728.5,-343.5 728.5,-313.5 594.5,-313.5"/>
<text text-anchor="start" x="602.5" y="-331.5" font-family="Helvetica,sans-Serif" font-size="10.00" fill="#000000">ViennaRNA/datastructures</text>
<text text-anchor="middle" x="661.5" y="-320.5" font-family="Helvetica,sans-Serif" font-size="10.00" fill="#000000">/basic.h</text>
</a>
</g>
</g>
<!-- Node1&#45;&gt;Node3 -->
<g id="edge3" class="edge">
<title>Node1&#45;&gt;Node3</title>
<path fill="none" stroke="#191970" d="M615.9375,-380.3906C620.4939,-372.6068 628.8094,-361.3202 637.1931,-351.2597"/>
<polygon fill="#191970" stroke="#191970" points="639.97,-353.3992 643.8608,-343.5446 634.6739,-348.822 639.97,-353.3992"/>
</g>
<!-- Node3&#45;&gt;Node1 -->
<g id="edge41" class="edge">
<title>Node3&#45;&gt;Node1</title>
<path fill="none" stroke="#191970" d="M655.655,-343.5446C649.7768,-352.4321 641.0462,-363.7122 632.9391,-372.9314"/>
<polygon fill="#191970" stroke="#191970" points="630.2672,-370.6659 626.0625,-380.3906 635.4139,-375.4105 630.2672,-370.6659"/>
</g>
<!-- Node4 -->
<g id="node5" class="node">
<title>Node4</title>
<g id="a_node5"><a xlink:href="$constants_8h.html" xlink:title="Energy parameter constants.">
<polygon fill="none" stroke="#000000" points="1035.5,-62 1035.5,-81 1193.5,-81 1193.5,-62 1035.5,-62"/>
<text text-anchor="middle" x="1114.5" y="-69" font-family="Helvetica,sans-Serif" font-size="10.00" fill="#000000">ViennaRNA/params/constants.h</text>
</a>
</g>
</g>
<!-- Node3&#45;&gt;Node4 -->
<g id="edge4" class="edge">
<title>Node3&#45;&gt;Node4</title>
<path fill="none" stroke="#191970" d="M728.7525,-324.3386C786.5879,-318.8457 871.228,-306.1665 939.5,-277 1013.8414,-245.2406 1031.4801,-223.0625 1073.5,-154 1086.1677,-133.1798 1098.2809,-107.9165 1106.0118,-90.8754"/>
<polygon fill="#191970" stroke="#191970" points="1109.3432,-91.9988 1110.2248,-81.4407 1102.9515,-89.1446 1109.3432,-91.9988"/>
</g>
<!-- Node6 -->
<g id="node7" class="node">
<title>Node6</title>
<g id="a_node7"><a xlink:href="$fold__compound_8h.html" xlink:title="The Basic Fold Compound API.">
<polygon fill="none" stroke="#000000" points="459.5,-190.5 459.5,-209.5 605.5,-209.5 605.5,-190.5 459.5,-190.5"/>
<text text-anchor="middle" x="532.5" y="-197.5" font-family="Helvetica,sans-Serif" font-size="10.00" fill="#000000">ViennaRNA/fold_compound.h</text>
</a>
</g>
</g>
<!-- Node3&#45;&gt;Node6 -->
<g id="edge6" class="edge">
<title>Node3&#45;&gt;Node6</title>
<path fill="none" stroke="#191970" d="M653.1625,-313.1886C643.0458,-295.5556 624.6888,-266.4013 603.5,-246 590.7772,-233.7501 574.3412,-222.8588 560.4876,-214.7527"/>
<polygon fill="#191970" stroke="#191970" points="561.8136,-211.4815 551.3866,-209.6032 558.3664,-217.5739 561.8136,-211.4815"/>
</g>
<!-- Node7 -->
<g id="node8" class="node">
<title>Node7</title>
<g id="a_node8"><a xlink:href="$model_8h.html" xlink:title="The model details data structure and its corresponding modifiers.">
<polygon fill="none" stroke="#000000" points="911.5,-62 911.5,-81 1017.5,-81 1017.5,-62 911.5,-62"/>
<text text-anchor="middle" x="964.5" y="-69" font-family="Helvetica,sans-Serif" font-size="10.00" fill="#000000">ViennaRNA/model.h</text>
</a>
</g>
</g>
<!-- Node3&#45;&gt;Node7 -->
<g id="edge33" class="edge">
<title>Node3&#45;&gt;Node7</title>
<path fill="none" stroke="#191970" d="M728.6104,-321.3135C821.3847,-307.3433 985.5091,-267.1437 1057.5,-154 1064.8962,-142.3758 1064.4952,-134.8699 1057.5,-123 1046.8872,-104.9916 1027.462,-92.8374 1009.0991,-84.8823"/>
<polygon fill="#191970" stroke="#191970" points="1010.2301,-81.565 999.6457,-81.0963 1007.6276,-88.0633 1010.2301,-81.565"/>
</g>
<!-- Node8 -->
<g id="node9" class="node">
<title>Node8</title>
<g id="a_node9"><a xlink:href="$params_2basic_8h.html" xlink:title="Functions to deal with sets of energy parameters.">
<polygon fill="none" stroke="#000000" points="910.5,-129 910.5,-148 1048.5,-148 1048.5,-129 910.5,-129"/>
<text text-anchor="middle" x="979.5" y="-136" font-family="Helvetica,sans-Serif" font-size="10.00" fill="#000000">ViennaRNA/params/basic.h</text>
</a>
</g>
</g>
<!-- Node3&#45;&gt;Node8 -->
<g id="edge34" class="edge">
<title>Node3&#45;&gt;Node8</title>
<path fill="none" stroke="#191970" d="M682.8584,-313.4322C738.7895,-277.7003 888.6119,-188.1957 951.3975,-153.0203"/>
<polygon fill="#191970" stroke="#191970" points="953.3104,-155.9615 960.3542,-148.0472 949.9124,-149.8416 953.3104,-155.9615"/>
</g>
<!-- Node10 -->
<g id="node11" class="node">
<title>Node10</title>
<g id="a_node11"><a xlink:href="$dp__matrices_8h.html" xlink:title="Functions to deal with standard dynamic programming (DP) matrices.">
<polygon fill="none" stroke="#000000" points="759,-129 759,-148 892,-148 892,-129 759,-129"/>
<text text-anchor="middle" x="825.5" y="-136" font-family="Helvetica,sans-Serif" font-size="10.00" fill="#000000">ViennaRNA/dp_matrices.h</text>
</a>
</g>
</g>
<!-- Node3&#45;&gt;Node10 -->
<g id="edge35" class="edge">
<title>Node3&#45;&gt;Node10</title>
<path fill="none" stroke="#191970" d="M670.7661,-313.2727C697.2409,-278.2334 771.5304,-192.0974 806.8152,-155.4484"/>
<polygon fill="#191970" stroke="#191970" points="809.5982,-157.6101 814.1141,-148.0258 804.6071,-152.7021 809.5982,-157.6101"/>
</g>
<!-- Node11 -->
<g id="node12" class="node">
<title>Node11</title>
<g id="a_node12"><a xlink:href="$hard_8h.html" xlink:title="Functions and data structures for handling of secondary structure hard constraints.">
<polygon fill="none" stroke="#000000" points="137,-123.5 137,-153.5 256,-153.5 256,-123.5 137,-123.5"/>
<text text-anchor="start" x="145" y="-141.5" font-family="Helvetica,sans-Serif" font-size="10.00" fill="#000000">ViennaRNA/constraints</text>
<text text-anchor="middle" x="196.5" y="-130.5" font-family="Helvetica,sans-Serif" font-size="10.00" fill="#000000">/hard.h</text>
</a>
</g>
</g>
<!-- Node3&#45;&gt;Node11 -->
<g id="edge36" class="edge">
<title>Node3&#45;&gt;Node11</title>
<path fill="none" stroke="#191970" d="M594.203,-315.3623C554.5748,-306.6202 503.8754,-293.6735 460.5,-277 373.4047,-243.5205 278.0543,-188.5097 229.2678,-158.8961"/>
<polygon fill="#191970" stroke="#191970" points="231.0716,-155.8966 220.7127,-153.673 227.424,-161.8712 231.0716,-155.8966"/>
</g>
<!-- Node13 -->
<g id="node14" class="node">
<title>Node13</title>
<g id="a_node14"><a xlink:href="$soft_8h.html" xlink:title="Functions and data structures for secondary structure soft constraints.">
<polygon fill="none" stroke="#000000" points="0,-123.5 0,-153.5 119,-153.5 119,-123.5 0,-123.5"/>
<text text-anchor="start" x="8" y="-141.5" font-family="Helvetica,sans-Serif" font-size="10.00" fill="#000000">ViennaRNA/constraints</text>
<text text-anchor="middle" x="59.5" y="-130.5" font-family="Helvetica,sans-Serif" font-size="10.00" fill="#000000">/soft.h</text>
</a>
</g>
</g>
<!-- Node3&#45;&gt;Node13 -->
<g id="edge37" class="edge">
<title>Node3&#45;&gt;Node13</title>
<path fill="none" stroke="#191970" d="M594.3077,-320.9605C536.1779,-313.0509 450.5653,-298.7146 378.5,-277 270.5778,-244.481 149.984,-188.0177 92.7796,-158.2203"/>
<polygon fill="#191970" stroke="#191970" points="94.3065,-155.0687 83.8284,-153.5005 91.0416,-161.2607 94.3065,-155.0687"/>
</g>
<!-- Node14 -->
<g id="node15" class="node">
<title>Node14</title>
<g id="a_node15"><a xlink:href="$grammar_8h.html" xlink:title="Implementations for the RNA folding grammar.">
<polygon fill="none" stroke="#000000" points="491,-129 491,-148 608,-148 608,-129 491,-129"/>
<text text-anchor="middle" x="549.5" y="-136" font-family="Helvetica,sans-Serif" font-size="10.00" fill="#000000">ViennaRNA/grammar.h</text>
</a>
</g>
</g>
<!-- Node3&#45;&gt;Node14 -->
<g id="edge38" class="edge">
<title>Node3&#45;&gt;Node14</title>
<path fill="none" stroke="#191970" d="M659.2811,-313.4927C654.7209,-286.6248 642.2942,-229.4339 614.5,-190 604.0898,-175.2301 588.2637,-162.5641 574.8344,-153.489"/>
<polygon fill="#191970" stroke="#191970" points="576.7342,-150.5495 566.4365,-148.0579 572.9329,-156.4274 576.7342,-150.5495"/>
</g>
<!-- Node15 -->
<g id="node16" class="node">
<title>Node15</title>
<g id="a_node16"><a xlink:href="$structured__domains_8h.html" xlink:title="This module provides interfaces that deal with additional structured domains in the folding grammar.">
<polygon fill="none" stroke="#000000" points="626,-123.5 626,-153.5 741,-153.5 741,-123.5 626,-123.5"/>
<text text-anchor="start" x="634" y="-141.5" font-family="Helvetica,sans-Serif" font-size="10.00" fill="#000000">ViennaRNA/structured</text>
<text text-anchor="middle" x="683.5" y="-130.5" font-family="Helvetica,sans-Serif" font-size="10.00" fill="#000000">_domains.h</text>
</a>
</g>
</g>
<!-- Node3&#45;&gt;Node15 -->
<g id="edge39" class="edge">
<title>Node3&#45;&gt;Node15</title>
<path fill="none" stroke="#191970" d="M666.5084,-313.3591C669.6485,-303.1943 673.473,-289.4369 675.5,-277 681.8961,-237.7565 683.3697,-191.531 683.6098,-163.6479"/>
<polygon fill="#191970" stroke="#191970" points="687.1099,-163.5864 683.6488,-153.5729 680.11,-163.5593 687.1099,-163.5864"/>
</g>
<!-- Node16 -->
<g id="node17" class="node">
<title>Node16</title>
<g id="a_node17"><a xlink:href="$unstructured__domains_8h.html" xlink:title="Functions to modify unstructured domains, e.g. to incorporate ligands binding to unpaired stretches.">
<polygon fill="none" stroke="#000000" points="470,-246.5 470,-276.5 595,-276.5 595,-246.5 470,-246.5"/>
<text text-anchor="start" x="478" y="-264.5" font-family="Helvetica,sans-Serif" font-size="10.00" fill="#000000">ViennaRNA/unstructured</text>
<text text-anchor="middle" x="532.5" y="-253.5" font-family="Helvetica,sans-Serif" font-size="10.00" fill="#000000">_domains.h</text>
</a>
</g>
</g>
<!-- Node3&#45;&gt;Node16 -->
<g id="edge40" class="edge">
<title>Node3&#45;&gt;Node16</title>
<path fill="none" stroke="#191970" d="M626.8094,-313.4639C607.529,-304.0475 583.7823,-291.8008 564.8842,-281.5617"/>
<polygon fill="#191970" stroke="#191970" points="566.4895,-278.4504 556.0373,-276.7177 563.1276,-284.5903 566.4895,-278.4504"/>
</g>
<!-- Node5 -->
<g id="node6" class="node">
<title>Node5</title>
<g id="a_node6"><a xlink:title=" ">
<polygon fill="none" stroke="#bfbfbf" points="1090.5,-.5 1090.5,-19.5 1138.5,-19.5 1138.5,-.5 1090.5,-.5"/>
<text text-anchor="middle" x="1114.5" y="-7.5" font-family="Helvetica,sans-Serif" font-size="10.00" fill="#000000">limits.h</text>
</a>
</g>
</g>
<!-- Node4&#45;&gt;Node5 -->
<g id="edge5" class="edge">
<title>Node4&#45;&gt;Node5</title>
<path fill="none" stroke="#191970" d="M1114.5,-61.8906C1114.5,-53.3657 1114.5,-40.6392 1114.5,-29.9235"/>
<polygon fill="#191970" stroke="#191970" points="1118.0001,-29.7448 1114.5,-19.7449 1111.0001,-29.7449 1118.0001,-29.7448"/>
</g>
<!-- Node6&#45;&gt;Node7 -->
<g id="edge7" class="edge">
<title>Node6&#45;&gt;Node7</title>
<path fill="none" stroke="#191970" d="M517.9858,-190.3601C496.7513,-175.1196 461.775,-144.94 481.5,-123 509.0564,-92.3492 776.2182,-78.4779 900.9469,-73.6336"/>
<polygon fill="#191970" stroke="#191970" points="901.2604,-77.1243 911.12,-73.2463 900.994,-70.1294 901.2604,-77.1243"/>
</g>
<!-- Node6&#45;&gt;Node8 -->
<g id="edge8" class="edge">
<title>Node6&#45;&gt;Node8</title>
<path fill="none" stroke="#191970" d="M605.7767,-191.5899C678.4725,-183.3788 792.8022,-169.8314 891.5,-154 899.0686,-152.786 907.0201,-151.3807 914.9316,-149.9219"/>
<polygon fill="#191970" stroke="#191970" points="915.7144,-153.3363 924.8995,-148.0558 914.4262,-146.4558 915.7144,-153.3363"/>
</g>
<!-- Node9 -->
<g id="node10" class="node">
<title>Node9</title>
<g id="a_node10"><a xlink:href="$sequence_8h.html" xlink:title="Functions and data structures related to sequence representations ,.">
<polygon fill="none" stroke="#000000" points="312.5,-129 312.5,-148 434.5,-148 434.5,-129 312.5,-129"/>
<text text-anchor="middle" x="373.5" y="-136" font-family="Helvetica,sans-Serif" font-size="10.00" fill="#000000">ViennaRNA/sequence.h</text>
</a>
</g>
</g>
<!-- Node6&#45;&gt;Node9 -->
<g id="edge13" class="edge">
<title>Node6&#45;&gt;Node9</title>
<path fill="none" stroke="#191970" d="M502.5938,-190.3906C473.8568,-180.0554 430.9615,-163.5447 402.5274,-151.9284"/>
<polygon fill="#191970" stroke="#191970" points="403.6988,-148.6255 393.12,-148.0419 401.0259,-155.0951 403.6988,-148.6255"/>
</g>
<!-- Node6&#45;&gt;Node10 -->
<g id="edge15" class="edge">
<title>Node6&#45;&gt;Node10</title>
<path fill="none" stroke="#191970" d="M572.9105,-190.4581C622.7044,-179.5571 707.5503,-161.723 765.0778,-150.0473"/>
<polygon fill="#191970" stroke="#191970" points="766.0234,-153.427 775.1309,-148.0137 764.6355,-146.566 766.0234,-153.427"/>
</g>
<!-- Node6&#45;&gt;Node11 -->
<g id="edge18" class="edge">
<title>Node6&#45;&gt;Node11</title>
<path fill="none" stroke="#191970" d="M468.1559,-190.4868C415.489,-181.9401 339.0363,-168.777 266.2651,-154.8977"/>
<polygon fill="#191970" stroke="#191970" points="266.5042,-151.3799 256.0241,-152.9349 265.1865,-158.2548 266.5042,-151.3799"/>
</g>
<!-- Node6&#45;&gt;Node13 -->
<g id="edge22" class="edge">
<title>Node6&#45;&gt;Node13</title>
<path fill="none" stroke="#191970" d="M459.1432,-194.6875C378.23,-187.957 244.3163,-174.8686 125.9254,-155.2337"/>
<polygon fill="#191970" stroke="#191970" points="126.4207,-151.7679 115.9789,-153.5622 125.2606,-158.6711 126.4207,-151.7679"/>
</g>
<!-- Node6&#45;&gt;Node14 -->
<g id="edge26" class="edge">
<title>Node6&#45;&gt;Node14</title>
<path fill="none" stroke="#191970" d="M530.0938,-190.3906C530.8014,-181.6862 534.002,-168.6015 537.8674,-157.7494"/>
<polygon fill="#191970" stroke="#191970" points="541.207,-158.8274 541.7175,-148.2449 534.7191,-156.1992 541.207,-158.8274"/>
</g>
<!-- Node6&#45;&gt;Node15 -->
<g id="edge28" class="edge">
<title>Node6&#45;&gt;Node15</title>
<path fill="none" stroke="#191970" d="M556.0938,-190.3906C577.6651,-181.6049 610.1933,-168.3567 636.9822,-157.446"/>
<polygon fill="#191970" stroke="#191970" points="638.6201,-160.5581 646.5612,-153.5446 635.9797,-154.0752 638.6201,-160.5581"/>
</g>
<!-- Node6&#45;&gt;Node16 -->
<g id="edge29" class="edge">
<title>Node6&#45;&gt;Node16</title>
<path fill="none" stroke="#191970" d="M537.6083,-209.8469C538.9704,-216.9883 539.4849,-226.9858 539.1519,-236.2849"/>
<polygon fill="#191970" stroke="#191970" points="535.6584,-236.068 538.4157,-246.2977 542.6396,-236.5813 535.6584,-236.068"/>
</g>
<!-- Node8&#45;&gt;Node3 -->
<g id="edge10" class="edge">
<title>Node8&#45;&gt;Node3</title>
<path fill="none" stroke="#191970" d="M966.6877,-148.0472C921.6646,-177.5405 771.2443,-267.6521 699.7192,-308.2704"/>
<polygon fill="#191970" stroke="#191970" points="697.5654,-305.4672 690.579,-313.4322 701.0076,-311.5624 697.5654,-305.4672"/>
</g>
<!-- Node8&#45;&gt;Node4 -->
<g id="edge9" class="edge">
<title>Node8&#45;&gt;Node4</title>
<path fill="none" stroke="#191970" d="M998.8422,-128.9005C1021.6987,-117.5569 1059.927,-98.5844 1086.1334,-85.5783"/>
<polygon fill="#191970" stroke="#191970" points="1087.7921,-88.6624 1095.1937,-81.0817 1084.6802,-82.3922 1087.7921,-88.6624"/>
</g>
<!-- Node8&#45;&gt;Node6 -->
<g id="edge11" class="edge">
<title>Node8&#45;&gt;Node6</title>
<path fill="none" stroke="#191970" d="M942.3904,-148.0558C931.803,-150.16 920.2643,-152.2734 909.5,-154 809.1111,-170.1027 692.5499,-183.8423 615.8522,-192.0073"/>
<polygon fill="#191970" stroke="#191970" points="615.3444,-188.5414 605.7677,-193.0731 616.0802,-195.5026 615.3444,-188.5414"/>
</g>
<!-- Node8&#45;&gt;Node7 -->
<g id="edge12" class="edge">
<title>Node8&#45;&gt;Node7</title>
<path fill="none" stroke="#191970" d="M977.3509,-128.9005C975.1454,-119.0495 971.6519,-103.4451 968.8637,-90.9912"/>
<polygon fill="#191970" stroke="#191970" points="972.2454,-90.0754 966.6451,-81.0817 965.4145,-91.6048 972.2454,-90.0754"/>
</g>
<!-- Node9&#45;&gt;Node6 -->
<g id="edge14" class="edge">
<title>Node9&#45;&gt;Node6</title>
<path fill="none" stroke="#191970" d="M403.2186,-148.0419C431.8937,-158.3501 474.7895,-174.858 503.2865,-186.4955"/>
<polygon fill="#191970" stroke="#191970" points="502.1399,-189.8087 512.7188,-190.3906 504.8118,-183.3387 502.1399,-189.8087"/>
</g>
<!-- Node10&#45;&gt;Node3 -->
<g id="edge16" class="edge">
<title>Node10&#45;&gt;Node3</title>
<path fill="none" stroke="#191970" d="M820.4413,-148.0258C799.7623,-176.9144 724.9727,-264.1028 685.6567,-305.8044"/>
<polygon fill="#191970" stroke="#191970" points="682.8987,-303.6245 678.5211,-313.2727 687.9599,-308.4603 682.8987,-303.6245"/>
</g>
<!-- Node10&#45;&gt;Node6 -->
<g id="edge17" class="edge">
<title>Node10&#45;&gt;Node6</title>
<path fill="none" stroke="#191970" d="M784.9873,-148.0643C735.2182,-158.9588 650.5419,-176.7573 593.0561,-188.4255"/>
<polygon fill="#191970" stroke="#191970" points="592.1164,-185.0446 583.0091,-190.4581 593.5045,-191.9056 592.1164,-185.0446"/>
</g>
<!-- Node11&#45;&gt;Node6 -->
<g id="edge19" class="edge">
<title>Node11&#45;&gt;Node6</title>
<path fill="none" stroke="#191970" d="M256.3048,-149.3915C264.1373,-150.9787 272.0241,-152.5612 279.5,-154 345.3986,-166.683 420.9021,-179.7888 472.2279,-188.7509"/>
<polygon fill="#191970" stroke="#191970" points="471.7074,-192.213 482.1606,-190.4868 472.9125,-185.3175 471.7074,-192.213"/>
</g>
<!-- Node12 -->
<g id="node13" class="node">
<title>Node12</title>
<g id="a_node13"><a xlink:href="$constraints_2basic_8h.html" xlink:title="Functions and data structures for constraining secondary structure predictions and evaluation.">
<polygon fill="none" stroke="#000000" points="137,-56.5 137,-86.5 256,-86.5 256,-56.5 137,-56.5"/>
<text text-anchor="start" x="145" y="-74.5" font-family="Helvetica,sans-Serif" font-size="10.00" fill="#000000">ViennaRNA/constraints</text>
<text text-anchor="middle" x="196.5" y="-63.5" font-family="Helvetica,sans-Serif" font-size="10.00" fill="#000000">/basic.h</text>
</a>
</g>
</g>
<!-- Node11&#45;&gt;Node12 -->
<g id="edge20" class="edge">
<title>Node11&#45;&gt;Node12</title>
<path fill="none" stroke="#191970" d="M196.5,-123.2967C196.5,-115.5013 196.5,-105.7991 196.5,-96.9064"/>
<polygon fill="#191970" stroke="#191970" points="200.0001,-96.6431 196.5,-86.6432 193.0001,-96.6432 200.0001,-96.6431"/>
</g>
<!-- Node12&#45;&gt;Node6 -->
<g id="edge21" class="edge">
<title>Node12&#45;&gt;Node6</title>
<path fill="none" stroke="#191970" d="M216.8277,-86.7003C230.391,-96.8901 248.5879,-110.6531 264.5,-123 281.9935,-136.5739 283.4193,-144.6707 303.5,-154 349.2293,-175.2454 404.5626,-186.7047 449.3812,-192.8722"/>
<polygon fill="#191970" stroke="#191970" points="448.9904,-196.3508 459.361,-194.1826 449.9019,-189.4104 448.9904,-196.3508"/>
</g>
<!-- Node13&#45;&gt;Node3 -->
<g id="edge23" class="edge">
<title>Node13&#45;&gt;Node3</title>
<path fill="none" stroke="#191970" d="M94.1751,-153.5005C154.5177,-181.6569 282.5698,-242.6707 396.5,-277 458.6508,-295.7272 530.8778,-308.9666 584.2746,-317.3286"/>
<polygon fill="#191970" stroke="#191970" points="583.9394,-320.8182 594.3563,-318.8847 585.0073,-313.9001 583.9394,-320.8182"/>
</g>
<!-- Node13&#45;&gt;Node6 -->
<g id="edge24" class="edge">
<title>Node13&#45;&gt;Node6</title>
<path fill="none" stroke="#191970" d="M119.1918,-150.715C125.0475,-151.9183 130.8898,-153.045 136.5,-154 244.0415,-172.3057 368.9243,-185.2452 449.3021,-192.6434"/>
<polygon fill="#191970" stroke="#191970" points="449.0894,-196.1384 459.3663,-193.5622 449.7259,-189.1674 449.0894,-196.1384"/>
</g>
<!-- Node13&#45;&gt;Node12 -->
<g id="edge25" class="edge">
<title>Node13&#45;&gt;Node12</title>
<path fill="none" stroke="#191970" d="M90.2455,-123.4639C109.7624,-113.9191 135.2257,-101.4663 156.3325,-91.144"/>
<polygon fill="#191970" stroke="#191970" points="157.9375,-94.2552 165.3831,-86.7177 154.8622,-87.9669 157.9375,-94.2552"/>
</g>
<!-- Node14&#45;&gt;Node6 -->
<g id="edge27" class="edge">
<title>Node14&#45;&gt;Node6</title>
<path fill="none" stroke="#191970" d="M551.8951,-148.2449C551.1616,-156.9944 547.9448,-170.0901 544.0725,-180.9189"/>
<polygon fill="#191970" stroke="#191970" points="540.7456,-179.8089 540.2188,-190.3906 547.2294,-182.447 540.7456,-179.8089"/>
</g>
<!-- Node16&#45;&gt;Node1 -->
<g id="edge32" class="edge">
<title>Node16&#45;&gt;Node1</title>
<path fill="none" stroke="#191970" d="M542.0823,-276.7016C557.0288,-300.413 585.8425,-346.1236 601.9263,-371.6393"/>
<polygon fill="#191970" stroke="#191970" points="599.1184,-373.7484 607.4118,-380.3416 605.0402,-370.0156 599.1184,-373.7484"/>
</g>
<!-- Node16&#45;&gt;Node3 -->
<g id="edge30" class="edge">
<title>Node16&#45;&gt;Node3</title>
<path fill="none" stroke="#191970" d="M567.5624,-276.7177C586.8996,-286.1702 610.6436,-298.422 629.479,-308.6352"/>
<polygon fill="#191970" stroke="#191970" points="627.8388,-311.7274 638.2904,-313.4639 631.2029,-305.5887 627.8388,-311.7274"/>
</g>
<!-- Node16&#45;&gt;Node6 -->
<g id="edge31" class="edge">
<title>Node16&#45;&gt;Node6</title>
<path fill="none" stroke="#191970" d="M526.5843,-246.2977C525.6446,-238.2945 525.4987,-228.3843 526.1466,-219.7889"/>
<polygon fill="#191970" stroke="#191970" points="529.6218,-220.2044 527.3917,-209.8469 522.676,-219.3345 529.6218,-220.2044"/>
</g>
</g>
</svg>
