<?xml version="1.0" encoding="UTF-8" standalone="no"?>
<!DOCTYPE svg PUBLIC "-//W3C//DTD SVG 1.1//EN"
 "http://www.w3.org/Graphics/SVG/1.1/DTD/svg11.dtd">
<!-- Generated by graphviz version 2.40.1 (0)
 -->
<!-- Title: TwoDpfold_vars Pages: 1 -->
<svg width="706pt" height="418pt"
 viewBox="0.00 0.00 706.00 418.00" xmlns="http://www.w3.org/2000/svg" xmlns:xlink="http://www.w3.org/1999/xlink">
<g id="graph0" class="graph" transform="scale(1 1) rotate(0) translate(4 414)">
<title>TwoDpfold_vars</title>
<!-- Node1 -->
<g id="node1" class="node">
<title>Node1</title>
<g id="a_node1"><a xlink:title="Variables compound for 2Dfold partition function folding.">
<polygon fill="#bfbfbf" stroke="#000000" points="611,-322.5 611,-341.5 698,-341.5 698,-322.5 611,-322.5"/>
<text text-anchor="middle" x="654.5" y="-329.5" font-family="Helvetica,sans-Serif" font-size="10.00" fill="#000000">TwoDpfold_vars</text>
</a>
</g>
</g>
<!-- Node2 -->
<g id="node2" class="node">
<title>Node2</title>
<g id="a_node2"><a xlink:href="$group__energy__parameters.html#structvrna__exp__param__s" xlink:title="The data structure that contains temperature scaled Boltzmann weights of the energy parameters.">
<polygon fill="none" stroke="#000000" points="234.5,-389.5 234.5,-408.5 333.5,-408.5 333.5,-389.5 234.5,-389.5"/>
<text text-anchor="middle" x="284" y="-396.5" font-family="Helvetica,sans-Serif" font-size="10.00" fill="#000000">vrna_exp_param_s</text>
</a>
</g>
</g>
<!-- Node2&#45;&gt;Node1 -->
<g id="edge1" class="edge">
<title>Node2&#45;&gt;Node1</title>
<path fill="none" stroke="#9a32cd" stroke-dasharray="5,2" d="M343.8973,-402.0608C353.623,-402.4517 363.5893,-402.7886 373,-403 402.7703,-403.6687 410.6017,-407.739 440,-403 513.1934,-391.2012 595.2274,-358.1249 633.1535,-341.6196"/>
<polygon fill="#9a32cd" stroke="#9a32cd" points="344.0215,-398.5631 333.8824,-401.637 343.7255,-405.5568 344.0215,-398.5631"/>
<text text-anchor="middle" x="487.5" y="-402" font-family="Helvetica,sans-Serif" font-size="10.00" fill="#000000"> pf_params</text>
</g>
<!-- Node4 -->
<g id="node4" class="node">
<title>Node4</title>
<g id="a_node4"><a xlink:href="$group__fold__compound.html#structvrna__fc__s" xlink:title="The most basic data structure required by many functions throughout the RNAlib.">
<polygon fill="none" stroke="#000000" points="458,-223.5 458,-242.5 517,-242.5 517,-223.5 458,-223.5"/>
<text text-anchor="middle" x="487.5" y="-230.5" font-family="Helvetica,sans-Serif" font-size="10.00" fill="#000000">vrna_fc_s</text>
</a>
</g>
</g>
<!-- Node2&#45;&gt;Node4 -->
<g id="edge6" class="edge">
<title>Node2&#45;&gt;Node4</title>
<path fill="none" stroke="#9a32cd" stroke-dasharray="5,2" d="M343.5762,-393.2843C381.2987,-388.5327 425.5887,-380.4955 440,-368 459.7107,-350.9095 479.0469,-271.0149 485.3594,-242.8546"/>
<polygon fill="#9a32cd" stroke="#9a32cd" points="343.1563,-389.8095 333.6467,-394.4803 343.9935,-396.7592 343.1563,-389.8095"/>
<text text-anchor="middle" x="406.5" y="-391" font-family="Helvetica,sans-Serif" font-size="10.00" fill="#000000"> exp_params</text>
</g>
<!-- Node3 -->
<g id="node3" class="node">
<title>Node3</title>
<g id="a_node3"><a xlink:href="$group__model__details.html#structvrna__md__s" xlink:title="The data structure that contains the complete model details used throughout the calculations.">
<polygon fill="none" stroke="#000000" points="24,-368.5 24,-387.5 89,-387.5 89,-368.5 24,-368.5"/>
<text text-anchor="middle" x="56.5" y="-375.5" font-family="Helvetica,sans-Serif" font-size="10.00" fill="#000000">vrna_md_s</text>
</a>
</g>
</g>
<!-- Node3&#45;&gt;Node2 -->
<g id="edge2" class="edge">
<title>Node3&#45;&gt;Node2</title>
<path fill="none" stroke="#9a32cd" stroke-dasharray="5,2" d="M99.4125,-381.9612C137.7698,-385.5018 193.9796,-390.6904 234.2829,-394.4107"/>
<polygon fill="#9a32cd" stroke="#9a32cd" points="99.3746,-378.4429 89.0952,-381.0088 98.7311,-385.4132 99.3746,-378.4429"/>
<text text-anchor="middle" x="163" y="-393" font-family="Helvetica,sans-Serif" font-size="10.00" fill="#000000"> model_details</text>
</g>
<!-- Node7 -->
<g id="node7" class="node">
<title>Node7</title>
<g id="a_node7"><a xlink:href="$group__energy__parameters.html#structvrna__param__s" xlink:title="The datastructure that contains temperature scaled energy parameters.">
<polygon fill="none" stroke="#000000" points="245,-351.5 245,-370.5 323,-370.5 323,-351.5 245,-351.5"/>
<text text-anchor="middle" x="284" y="-358.5" font-family="Helvetica,sans-Serif" font-size="10.00" fill="#000000">vrna_param_s</text>
</a>
</g>
</g>
<!-- Node3&#45;&gt;Node7 -->
<g id="edge8" class="edge">
<title>Node3&#45;&gt;Node7</title>
<path fill="none" stroke="#9a32cd" stroke-dasharray="5,2" d="M99.3913,-369.41C109.7032,-367.6517 120.7116,-366.0265 131,-365 169.6028,-361.1483 213.9385,-360.389 244.9122,-360.4475"/>
<polygon fill="#9a32cd" stroke="#9a32cd" points="98.5956,-365.9966 89.364,-371.1955 99.8228,-372.8882 98.5956,-365.9966"/>
<text text-anchor="middle" x="163" y="-368" font-family="Helvetica,sans-Serif" font-size="10.00" fill="#000000"> model_details</text>
</g>
<!-- Node4&#45;&gt;Node1 -->
<g id="edge3" class="edge">
<title>Node4&#45;&gt;Node1</title>
<path fill="none" stroke="#9a32cd" stroke-dasharray="5,2" d="M512.4316,-247.7798C547.1592,-268.3668 609.1134,-305.0942 638.3629,-322.4337"/>
<polygon fill="#9a32cd" stroke="#9a32cd" points="514.2036,-244.7615 503.8167,-242.6728 510.634,-250.783 514.2036,-244.7615"/>
<text text-anchor="middle" x="564" y="-297" font-family="Helvetica,sans-Serif" font-size="10.00" fill="#000000"> compatibility</text>
</g>
<!-- Node5 -->
<g id="node5" class="node">
<title>Node5</title>
<g id="a_node5"><a xlink:href="$group__soft__constraints.html#structvrna__sc__s" xlink:title="The soft constraints data structure.">
<polygon fill="none" stroke="#000000" points="253,-313.5 253,-332.5 315,-332.5 315,-313.5 253,-313.5"/>
<text text-anchor="middle" x="284" y="-320.5" font-family="Helvetica,sans-Serif" font-size="10.00" fill="#000000">vrna_sc_s</text>
</a>
</g>
</g>
<!-- Node5&#45;&gt;Node4 -->
<g id="edge4" class="edge">
<title>Node5&#45;&gt;Node4</title>
<path fill="none" stroke="#9a32cd" stroke-dasharray="5,2" d="M325.3199,-320.4064C358.3497,-316.7649 404.7874,-308.0154 440,-287 458.6555,-275.8661 473.895,-254.9207 481.7437,-242.6449"/>
<polygon fill="#9a32cd" stroke="#9a32cd" points="324.7048,-316.9501 315.0983,-321.4183 325.3945,-323.916 324.7048,-316.9501"/>
<text text-anchor="middle" x="406.5" y="-325" font-family="Helvetica,sans-Serif" font-size="10.00" fill="#000000"> sc</text>
<text text-anchor="middle" x="406.5" y="-314" font-family="Helvetica,sans-Serif" font-size="10.00" fill="#000000">scs</text>
</g>
<!-- Node6 -->
<g id="node6" class="node">
<title>Node6</title>
<g id="a_node6"><a xlink:href="$structvrna__sc__bp__storage__t.html" xlink:title="A base pair constraint.">
<polygon fill="none" stroke="#000000" points="0,-313.5 0,-332.5 113,-332.5 113,-313.5 0,-313.5"/>
<text text-anchor="middle" x="56.5" y="-320.5" font-family="Helvetica,sans-Serif" font-size="10.00" fill="#000000">vrna_sc_bp_storage_t</text>
</a>
</g>
</g>
<!-- Node6&#45;&gt;Node5 -->
<g id="edge5" class="edge">
<title>Node6&#45;&gt;Node5</title>
<path fill="none" stroke="#9a32cd" stroke-dasharray="5,2" d="M123.1149,-323C165.9913,-323 219.7225,-323 252.9555,-323"/>
<polygon fill="#9a32cd" stroke="#9a32cd" points="123.0283,-319.5001 113.0283,-323 123.0282,-326.5001 123.0283,-319.5001"/>
<text text-anchor="middle" x="163" y="-326" font-family="Helvetica,sans-Serif" font-size="10.00" fill="#000000"> bp_storage</text>
</g>
<!-- Node7&#45;&gt;Node4 -->
<g id="edge7" class="edge">
<title>Node7&#45;&gt;Node4</title>
<path fill="none" stroke="#9a32cd" stroke-dasharray="5,2" d="M333.2293,-358.1192C372.4968,-354.9236 423.5485,-348.4754 440,-336 471.2244,-312.3221 482.6071,-263.2168 486.128,-242.5235"/>
<polygon fill="#9a32cd" stroke="#9a32cd" points="332.7217,-354.6477 323.0177,-358.8999 333.2554,-361.6273 332.7217,-354.6477"/>
<text text-anchor="middle" x="406.5" y="-356" font-family="Helvetica,sans-Serif" font-size="10.00" fill="#000000"> params</text>
</g>
<!-- Node8 -->
<g id="node8" class="node">
<title>Node8</title>
<g id="a_node8"><a xlink:href="$group__hard__constraints.html#structvrna__hc__s" xlink:title="The hard constraints data structure.">
<polygon fill="none" stroke="#000000" points="253,-275.5 253,-294.5 315,-294.5 315,-275.5 253,-275.5"/>
<text text-anchor="middle" x="284" y="-282.5" font-family="Helvetica,sans-Serif" font-size="10.00" fill="#000000">vrna_hc_s</text>
</a>
</g>
</g>
<!-- Node8&#45;&gt;Node4 -->
<g id="edge9" class="edge">
<title>Node8&#45;&gt;Node4</title>
<path fill="none" stroke="#9a32cd" stroke-dasharray="5,2" d="M325.4434,-280.8807C357.3578,-276.9206 402.2531,-269.6231 440,-257 450.8654,-253.3665 462.3493,-247.6221 471.3034,-242.6642"/>
<polygon fill="#9a32cd" stroke="#9a32cd" points="324.6666,-277.4481 315.147,-282.0986 325.4889,-284.3996 324.6666,-277.4481"/>
<text text-anchor="middle" x="406.5" y="-275" font-family="Helvetica,sans-Serif" font-size="10.00" fill="#000000"> hc</text>
</g>
<!-- Node9 -->
<g id="node9" class="node">
<title>Node9</title>
<g id="a_node9"><a xlink:href="$structvrna__hc__bp__storage__t.html" xlink:title="A base pair hard constraint.">
<polygon fill="none" stroke="#000000" points="0,-275.5 0,-294.5 113,-294.5 113,-275.5 0,-275.5"/>
<text text-anchor="middle" x="56.5" y="-282.5" font-family="Helvetica,sans-Serif" font-size="10.00" fill="#000000">vrna_hc_bp_storage_t</text>
</a>
</g>
</g>
<!-- Node9&#45;&gt;Node8 -->
<g id="edge10" class="edge">
<title>Node9&#45;&gt;Node8</title>
<path fill="none" stroke="#9a32cd" stroke-dasharray="5,2" d="M123.1149,-285C165.9913,-285 219.7225,-285 252.9555,-285"/>
<polygon fill="#9a32cd" stroke="#9a32cd" points="123.0283,-281.5001 113.0283,-285 123.0282,-288.5001 123.0283,-281.5001"/>
<text text-anchor="middle" x="163" y="-288" font-family="Helvetica,sans-Serif" font-size="10.00" fill="#000000"> bp_storage</text>
</g>
<!-- Node10 -->
<g id="node10" class="node">
<title>Node10</title>
<g id="a_node10"><a xlink:href="$group__alphabet__utils.html#structvrna__sequence__s" xlink:title="Data structure representing a nucleotide sequence.">
<polygon fill="none" stroke="#000000" points="10,-218.5 10,-237.5 103,-237.5 103,-218.5 10,-218.5"/>
<text text-anchor="middle" x="56.5" y="-225.5" font-family="Helvetica,sans-Serif" font-size="10.00" fill="#000000">vrna_sequence_s</text>
</a>
</g>
</g>
<!-- Node10&#45;&gt;Node4 -->
<g id="edge11" class="edge">
<title>Node10&#45;&gt;Node4</title>
<path fill="none" stroke="#9a32cd" stroke-dasharray="5,2" d="M113.7873,-231.3707C119.5998,-231.6243 125.4164,-231.8424 131,-232 252.2612,-235.4232 396.8149,-234.1908 457.9134,-233.4251"/>
<polygon fill="#9a32cd" stroke="#9a32cd" points="113.5336,-227.855 103.3801,-230.8812 113.2046,-234.8473 113.5336,-227.855"/>
<text text-anchor="middle" x="284" y="-237" font-family="Helvetica,sans-Serif" font-size="10.00" fill="#000000"> nucleotides</text>
</g>
<!-- Node11 -->
<g id="node11" class="node">
<title>Node11</title>
<g id="a_node11"><a xlink:href="$group__alphabet__utils.html#structvrna__alignment__s" xlink:title=" ">
<polygon fill="none" stroke="#000000" points="237.5,-190.5 237.5,-209.5 330.5,-209.5 330.5,-190.5 237.5,-190.5"/>
<text text-anchor="middle" x="284" y="-197.5" font-family="Helvetica,sans-Serif" font-size="10.00" fill="#000000">vrna_alignment_s</text>
</a>
</g>
</g>
<!-- Node10&#45;&gt;Node11 -->
<g id="edge13" class="edge">
<title>Node10&#45;&gt;Node11</title>
<path fill="none" stroke="#9a32cd" stroke-dasharray="5,2" d="M113.0657,-221.0381C151.403,-216.3196 201.453,-210.1596 237.4753,-205.7261"/>
<polygon fill="#9a32cd" stroke="#9a32cd" points="112.5845,-217.5708 103.087,-222.2662 113.4397,-224.5184 112.5845,-217.5708"/>
<text text-anchor="middle" x="163" y="-221" font-family="Helvetica,sans-Serif" font-size="10.00" fill="#000000"> sequences</text>
</g>
<!-- Node11&#45;&gt;Node4 -->
<g id="edge12" class="edge">
<title>Node11&#45;&gt;Node4</title>
<path fill="none" stroke="#9a32cd" stroke-dasharray="5,2" d="M340.8243,-206.0755C370.5086,-209.6459 407.3565,-214.7006 440,-221 445.8461,-222.1282 452.0466,-223.5366 457.9705,-224.9876"/>
<polygon fill="#9a32cd" stroke="#9a32cd" points="340.9831,-202.57 330.642,-204.8749 340.1634,-209.5219 340.9831,-202.57"/>
<text text-anchor="middle" x="406.5" y="-224" font-family="Helvetica,sans-Serif" font-size="10.00" fill="#000000"> alignment</text>
</g>
<!-- Node12 -->
<g id="node12" class="node">
<title>Node12</title>
<g id="a_node12"><a xlink:href="$group__domains__up.html#structvrna__unstructured__domain__s" xlink:title="Data structure to store all functionality for ligand binding.">
<polygon fill="none" stroke="#000000" points="213,-152.5 213,-171.5 355,-171.5 355,-152.5 213,-152.5"/>
<text text-anchor="middle" x="284" y="-159.5" font-family="Helvetica,sans-Serif" font-size="10.00" fill="#000000">vrna_unstructured_domain_s</text>
</a>
</g>
</g>
<!-- Node12&#45;&gt;Node4 -->
<g id="edge14" class="edge">
<title>Node12&#45;&gt;Node4</title>
<path fill="none" stroke="#9a32cd" stroke-dasharray="5,2" d="M365.4611,-171.8304C390.1869,-176.7466 416.9038,-184.0815 440,-195 454.8942,-202.0411 469.2747,-214.6117 478.2367,-223.3581"/>
<polygon fill="#9a32cd" stroke="#9a32cd" points="365.8438,-168.3411 355.3692,-169.9331 364.5503,-175.2206 365.8438,-168.3411"/>
<text text-anchor="middle" x="406.5" y="-198" font-family="Helvetica,sans-Serif" font-size="10.00" fill="#000000"> domains_up</text>
</g>
<!-- Node13 -->
<g id="node13" class="node">
<title>Node13</title>
<g id="a_node13"><a xlink:href="$group__dp__matrices.html#structvrna__mx__mfe__s" xlink:title="Minimum Free Energy (MFE) Dynamic Programming (DP) matrices data structure required within the vrna_f...">
<polygon fill="none" stroke="#000000" points="241,-114.5 241,-133.5 327,-133.5 327,-114.5 241,-114.5"/>
<text text-anchor="middle" x="284" y="-121.5" font-family="Helvetica,sans-Serif" font-size="10.00" fill="#000000">vrna_mx_mfe_s</text>
</a>
</g>
</g>
<!-- Node13&#45;&gt;Node4 -->
<g id="edge15" class="edge">
<title>Node13&#45;&gt;Node4</title>
<path fill="none" stroke="#9a32cd" stroke-dasharray="5,2" d="M337.4027,-125.9179C369.5989,-129.3829 410.0367,-138.0392 440,-159 463.3922,-175.364 477.9551,-207.3065 484.1061,-223.3367"/>
<polygon fill="#9a32cd" stroke="#9a32cd" points="337.546,-122.4161 327.2627,-124.9664 336.8919,-129.3855 337.546,-122.4161"/>
<text text-anchor="middle" x="406.5" y="-162" font-family="Helvetica,sans-Serif" font-size="10.00" fill="#000000"> matrices</text>
</g>
<!-- Node14 -->
<g id="node14" class="node">
<title>Node14</title>
<g id="a_node14"><a xlink:href="$group__grammar.html#structvrna__gr__aux__s" xlink:title=" ">
<polygon fill="none" stroke="#000000" points="244,-76.5 244,-95.5 324,-95.5 324,-76.5 244,-76.5"/>
<text text-anchor="middle" x="284" y="-83.5" font-family="Helvetica,sans-Serif" font-size="10.00" fill="#000000">vrna_gr_aux_s</text>
</a>
</g>
</g>
<!-- Node14&#45;&gt;Node4 -->
<g id="edge16" class="edge">
<title>Node14&#45;&gt;Node4</title>
<path fill="none" stroke="#9a32cd" stroke-dasharray="5,2" d="M334.3152,-84.645C367.7133,-86.3202 410.645,-93.7372 440,-118 473.4669,-145.6613 483.6626,-200.7798 486.4989,-223.1868"/>
<polygon fill="#9a32cd" stroke="#9a32cd" points="334.3972,-81.1458 324.2819,-84.2971 334.1546,-88.1416 334.3972,-81.1458"/>
<text text-anchor="middle" x="406.5" y="-121" font-family="Helvetica,sans-Serif" font-size="10.00" fill="#000000"> aux_grammar</text>
</g>
<!-- Node15 -->
<g id="node15" class="node">
<title>Node15</title>
<g id="a_node15"><a xlink:href="$group__dp__matrices.html#structvrna__mx__pf__s" xlink:title="Partition function (PF) Dynamic Programming (DP) matrices data structure required within the vrna_fol...">
<polygon fill="none" stroke="#000000" points="245,-38.5 245,-57.5 323,-57.5 323,-38.5 245,-38.5"/>
<text text-anchor="middle" x="284" y="-45.5" font-family="Helvetica,sans-Serif" font-size="10.00" fill="#000000">vrna_mx_pf_s</text>
</a>
</g>
</g>
<!-- Node15&#45;&gt;Node4 -->
<g id="edge17" class="edge">
<title>Node15&#45;&gt;Node4</title>
<path fill="none" stroke="#9a32cd" stroke-dasharray="5,2" d="M333.3117,-43.8879C367.2342,-43.7966 411.196,-49.4775 440,-75 462.9389,-95.3256 480.7194,-192.0784 485.9362,-223.2783"/>
<polygon fill="#9a32cd" stroke="#9a32cd" points="333.0642,-40.3919 323.1342,-44.0859 333.2005,-47.3906 333.0642,-40.3919"/>
<text text-anchor="middle" x="406.5" y="-78" font-family="Helvetica,sans-Serif" font-size="10.00" fill="#000000"> exp_matrices</text>
</g>
<!-- Node16 -->
<g id="node16" class="node">
<title>Node16</title>
<g id="a_node16"><a xlink:href="$structvrna__structured__domains__s.html" xlink:title=" ">
<polygon fill="none" stroke="#000000" points="215.5,-.5 215.5,-19.5 352.5,-19.5 352.5,-.5 215.5,-.5"/>
<text text-anchor="middle" x="284" y="-7.5" font-family="Helvetica,sans-Serif" font-size="10.00" fill="#000000">vrna_structured_domains_s</text>
</a>
</g>
</g>
<!-- Node16&#45;&gt;Node4 -->
<g id="edge18" class="edge">
<title>Node16&#45;&gt;Node4</title>
<path fill="none" stroke="#9a32cd" stroke-dasharray="5,2" d="M362.7535,-4.4434C390.2311,-6.5843 419.3318,-14.0522 440,-33 468.8055,-59.4077 483.0884,-186.9988 486.6153,-223.329"/>
<polygon fill="#9a32cd" stroke="#9a32cd" points="362.9016,-.9463 352.7223,-3.8842 362.512,-7.9354 362.9016,-.9463"/>
<text text-anchor="middle" x="406.5" y="-36" font-family="Helvetica,sans-Serif" font-size="10.00" fill="#000000"> domains_struc</text>
</g>
</g>
</svg>
