<?xml version="1.0" encoding="UTF-8" standalone="no"?>
<!DOCTYPE svg PUBLIC "-//W3C//DTD SVG 1.1//EN"
 "http://www.w3.org/Graphics/SVG/1.1/DTD/svg11.dtd">
<!-- Generated by graphviz version 2.40.1 (0)
 -->
<!-- Title: TwoDfold_vars Pages: 1 -->
<svg width="701pt" height="423pt"
 viewBox="0.00 0.00 701.00 423.00" xmlns="http://www.w3.org/2000/svg" xmlns:xlink="http://www.w3.org/1999/xlink">
<g id="graph0" class="graph" transform="scale(1 1) rotate(0) translate(4 419)">
<title>TwoDfold_vars</title>
<!-- Node3 -->
<g id="node1" class="node">
<title>Node3</title>
<g id="a_node1"><a xlink:title="Variables compound for 2Dfold MFE folding.">
<polygon fill="#bfbfbf" stroke="#000000" points="611,-297.5 611,-316.5 693,-316.5 693,-297.5 611,-297.5"/>
<text text-anchor="middle" x="652" y="-304.5" font-family="Helvetica,sans-Serif" font-size="10.00" fill="#000000">TwoDfold_vars</text>
</a>
</g>
</g>
<!-- Node4 -->
<g id="node2" class="node">
<title>Node4</title>
<g id="a_node2"><a xlink:href="$group__fold__compound.html#structvrna__fc__s" xlink:title="The most basic data structure required by many functions throughout the RNAlib.">
<polygon fill="none" stroke="#000000" points="458,-216.5 458,-235.5 517,-235.5 517,-216.5 458,-216.5"/>
<text text-anchor="middle" x="487.5" y="-223.5" font-family="Helvetica,sans-Serif" font-size="10.00" fill="#000000">vrna_fc_s</text>
</a>
</g>
</g>
<!-- Node4&#45;&gt;Node3 -->
<g id="edge1" class="edge">
<title>Node4&#45;&gt;Node3</title>
<path fill="none" stroke="#9a32cd" stroke-dasharray="5,2" d="M516.2445,-240.1538C549.604,-256.5801 603.7089,-283.2214 632.5091,-297.4027"/>
<polygon fill="#9a32cd" stroke="#9a32cd" points="517.5338,-236.8874 507.0163,-235.6098 514.4415,-243.1674 517.5338,-236.8874"/>
<text text-anchor="middle" x="564" y="-279" font-family="Helvetica,sans-Serif" font-size="10.00" fill="#000000"> compatibility</text>
</g>
<!-- Node5 -->
<g id="node3" class="node">
<title>Node5</title>
<g id="a_node3"><a xlink:href="$group__soft__constraints.html#structvrna__sc__s" xlink:title="The soft constraints data structure.">
<polygon fill="none" stroke="#000000" points="253,-394.5 253,-413.5 315,-413.5 315,-394.5 253,-394.5"/>
<text text-anchor="middle" x="284" y="-401.5" font-family="Helvetica,sans-Serif" font-size="10.00" fill="#000000">vrna_sc_s</text>
</a>
</g>
</g>
<!-- Node5&#45;&gt;Node4 -->
<g id="edge2" class="edge">
<title>Node5&#45;&gt;Node4</title>
<path fill="none" stroke="#9a32cd" stroke-dasharray="5,2" d="M325.3086,-401.6098C360.054,-397.4838 408.9055,-386.4232 440,-357 475.8469,-323.0798 484.7258,-260.0336 486.8538,-235.8207"/>
<polygon fill="#9a32cd" stroke="#9a32cd" points="324.598,-398.1647 315.0136,-402.6802 325.322,-405.1271 324.598,-398.1647"/>
<text text-anchor="middle" x="406.5" y="-405" font-family="Helvetica,sans-Serif" font-size="10.00" fill="#000000"> sc</text>
<text text-anchor="middle" x="406.5" y="-394" font-family="Helvetica,sans-Serif" font-size="10.00" fill="#000000">scs</text>
</g>
<!-- Node6 -->
<g id="node4" class="node">
<title>Node6</title>
<g id="a_node4"><a xlink:href="$structvrna__sc__bp__storage__t.html" xlink:title="A base pair constraint.">
<polygon fill="none" stroke="#000000" points="0,-394.5 0,-413.5 113,-413.5 113,-394.5 0,-394.5"/>
<text text-anchor="middle" x="56.5" y="-401.5" font-family="Helvetica,sans-Serif" font-size="10.00" fill="#000000">vrna_sc_bp_storage_t</text>
</a>
</g>
</g>
<!-- Node6&#45;&gt;Node5 -->
<g id="edge3" class="edge">
<title>Node6&#45;&gt;Node5</title>
<path fill="none" stroke="#9a32cd" stroke-dasharray="5,2" d="M123.1149,-404C165.9913,-404 219.7225,-404 252.9555,-404"/>
<polygon fill="#9a32cd" stroke="#9a32cd" points="123.0283,-400.5001 113.0283,-404 123.0282,-407.5001 123.0283,-400.5001"/>
<text text-anchor="middle" x="163" y="-407" font-family="Helvetica,sans-Serif" font-size="10.00" fill="#000000"> bp_storage</text>
</g>
<!-- Node7 -->
<g id="node5" class="node">
<title>Node7</title>
<g id="a_node5"><a xlink:href="$group__energy__parameters.html#structvrna__exp__param__s" xlink:title="The data structure that contains temperature scaled Boltzmann weights of the energy parameters.">
<polygon fill="none" stroke="#000000" points="234.5,-237.5 234.5,-256.5 333.5,-256.5 333.5,-237.5 234.5,-237.5"/>
<text text-anchor="middle" x="284" y="-244.5" font-family="Helvetica,sans-Serif" font-size="10.00" fill="#000000">vrna_exp_param_s</text>
</a>
</g>
</g>
<!-- Node7&#45;&gt;Node4 -->
<g id="edge4" class="edge">
<title>Node7&#45;&gt;Node4</title>
<path fill="none" stroke="#9a32cd" stroke-dasharray="5,2" d="M343.8496,-240.8239C381.4129,-236.9476 428.2075,-232.1186 457.9761,-229.0467"/>
<polygon fill="#9a32cd" stroke="#9a32cd" points="343.1094,-237.3816 333.5215,-241.8897 343.828,-244.3446 343.1094,-237.3816"/>
<text text-anchor="middle" x="406.5" y="-240" font-family="Helvetica,sans-Serif" font-size="10.00" fill="#000000"> exp_params</text>
</g>
<!-- Node8 -->
<g id="node6" class="node">
<title>Node8</title>
<g id="a_node6"><a xlink:href="$group__model__details.html#structvrna__md__s" xlink:title="The data structure that contains the complete model details used throughout the calculations.">
<polygon fill="none" stroke="#000000" points="24,-284.5 24,-303.5 89,-303.5 89,-284.5 24,-284.5"/>
<text text-anchor="middle" x="56.5" y="-291.5" font-family="Helvetica,sans-Serif" font-size="10.00" fill="#000000">vrna_md_s</text>
</a>
</g>
</g>
<!-- Node8&#45;&gt;Node7 -->
<g id="edge5" class="edge">
<title>Node8&#45;&gt;Node7</title>
<path fill="none" stroke="#9a32cd" stroke-dasharray="5,2" d="M98.9368,-285.2328C138.3861,-277.0829 197.015,-264.9705 237.6685,-256.5718"/>
<polygon fill="#9a32cd" stroke="#9a32cd" points="98.1802,-281.8151 89.0952,-287.266 99.5965,-288.6704 98.1802,-281.8151"/>
<text text-anchor="middle" x="163" y="-280" font-family="Helvetica,sans-Serif" font-size="10.00" fill="#000000"> model_details</text>
</g>
<!-- Node9 -->
<g id="node7" class="node">
<title>Node9</title>
<g id="a_node7"><a xlink:href="$group__energy__parameters.html#structvrna__param__s" xlink:title="The datastructure that contains temperature scaled energy parameters.">
<polygon fill="none" stroke="#000000" points="245,-351.5 245,-370.5 323,-370.5 323,-351.5 245,-351.5"/>
<text text-anchor="middle" x="284" y="-358.5" font-family="Helvetica,sans-Serif" font-size="10.00" fill="#000000">vrna_param_s</text>
</a>
</g>
</g>
<!-- Node8&#45;&gt;Node9 -->
<g id="edge7" class="edge">
<title>Node8&#45;&gt;Node9</title>
<path fill="none" stroke="#9a32cd" stroke-dasharray="5,2" d="M96.1463,-306.5931C127.7126,-316.5149 173.0693,-330.5376 213,-342 224.161,-345.2038 236.3586,-348.5307 247.4456,-351.4884"/>
<polygon fill="#9a32cd" stroke="#9a32cd" points="96.996,-303.1913 86.4064,-303.5243 94.8923,-309.8678 96.996,-303.1913"/>
<text text-anchor="middle" x="163" y="-338" font-family="Helvetica,sans-Serif" font-size="10.00" fill="#000000"> model_details</text>
</g>
<!-- Node9&#45;&gt;Node3 -->
<g id="edge18" class="edge">
<title>Node9&#45;&gt;Node3</title>
<path fill="none" stroke="#9a32cd" stroke-dasharray="5,2" d="M333.3325,-362.3222C364.1234,-362.5083 404.5148,-361.5897 440,-357 505.2552,-348.5599 579.7428,-328.4943 620.7663,-316.5057"/>
<polygon fill="#9a32cd" stroke="#9a32cd" points="333.3143,-358.8219 323.2794,-362.2204 333.2434,-365.8215 333.3143,-358.8219"/>
<text text-anchor="middle" x="487.5" y="-357" font-family="Helvetica,sans-Serif" font-size="10.00" fill="#000000"> P</text>
</g>
<!-- Node9&#45;&gt;Node4 -->
<g id="edge6" class="edge">
<title>Node9&#45;&gt;Node4</title>
<path fill="none" stroke="#9a32cd" stroke-dasharray="5,2" d="M332.9409,-351.2522C375.4564,-342.4318 431.5278,-329.8117 440,-323 468.6423,-299.9712 481.2697,-255.3456 485.6154,-235.6924"/>
<polygon fill="#9a32cd" stroke="#9a32cd" points="332.0982,-347.8522 323.0085,-353.2954 333.5087,-354.7086 332.0982,-347.8522"/>
<text text-anchor="middle" x="406.5" y="-345" font-family="Helvetica,sans-Serif" font-size="10.00" fill="#000000"> params</text>
</g>
<!-- Node10 -->
<g id="node8" class="node">
<title>Node10</title>
<g id="a_node8"><a xlink:href="$group__hard__constraints.html#structvrna__hc__s" xlink:title="The hard constraints data structure.">
<polygon fill="none" stroke="#000000" points="253,-161.5 253,-180.5 315,-180.5 315,-161.5 253,-161.5"/>
<text text-anchor="middle" x="284" y="-168.5" font-family="Helvetica,sans-Serif" font-size="10.00" fill="#000000">vrna_hc_s</text>
</a>
</g>
</g>
<!-- Node10&#45;&gt;Node4 -->
<g id="edge8" class="edge">
<title>Node10&#45;&gt;Node4</title>
<path fill="none" stroke="#9a32cd" stroke-dasharray="5,2" d="M325.1303,-169.7646C357.4881,-170.1843 403.1143,-173.9101 440,-189 455.0928,-195.1744 469.4298,-207.5633 478.3276,-216.2999"/>
<polygon fill="#9a32cd" stroke="#9a32cd" points="325.1292,-166.2647 315.1186,-169.7343 325.1079,-173.2647 325.1292,-166.2647"/>
<text text-anchor="middle" x="406.5" y="-192" font-family="Helvetica,sans-Serif" font-size="10.00" fill="#000000"> hc</text>
</g>
<!-- Node11 -->
<g id="node9" class="node">
<title>Node11</title>
<g id="a_node9"><a xlink:href="$structvrna__hc__bp__storage__t.html" xlink:title="A base pair hard constraint.">
<polygon fill="none" stroke="#000000" points="0,-161.5 0,-180.5 113,-180.5 113,-161.5 0,-161.5"/>
<text text-anchor="middle" x="56.5" y="-168.5" font-family="Helvetica,sans-Serif" font-size="10.00" fill="#000000">vrna_hc_bp_storage_t</text>
</a>
</g>
</g>
<!-- Node11&#45;&gt;Node10 -->
<g id="edge9" class="edge">
<title>Node11&#45;&gt;Node10</title>
<path fill="none" stroke="#9a32cd" stroke-dasharray="5,2" d="M123.1149,-171C165.9913,-171 219.7225,-171 252.9555,-171"/>
<polygon fill="#9a32cd" stroke="#9a32cd" points="123.0283,-167.5001 113.0283,-171 123.0282,-174.5001 123.0283,-167.5001"/>
<text text-anchor="middle" x="163" y="-174" font-family="Helvetica,sans-Serif" font-size="10.00" fill="#000000"> bp_storage</text>
</g>
<!-- Node12 -->
<g id="node10" class="node">
<title>Node12</title>
<g id="a_node10"><a xlink:href="$group__alphabet__utils.html#structvrna__sequence__s" xlink:title="Data structure representing a nucleotide sequence.">
<polygon fill="none" stroke="#000000" points="10,-104.5 10,-123.5 103,-123.5 103,-104.5 10,-104.5"/>
<text text-anchor="middle" x="56.5" y="-111.5" font-family="Helvetica,sans-Serif" font-size="10.00" fill="#000000">vrna_sequence_s</text>
</a>
</g>
</g>
<!-- Node12&#45;&gt;Node4 -->
<g id="edge10" class="edge">
<title>Node12&#45;&gt;Node4</title>
<path fill="none" stroke="#9a32cd" stroke-dasharray="5,2" d="M113.2127,-117.6545C186.5689,-122.6375 310.241,-131.9787 355,-141 393.8565,-148.8316 407.198,-145.7471 440,-168 458.9565,-180.8601 474.299,-203.4516 482.0368,-216.3155"/>
<polygon fill="#9a32cd" stroke="#9a32cd" points="113.4219,-114.1608 103.2093,-116.9808 112.9514,-121.1449 113.4219,-114.1608"/>
<text text-anchor="middle" x="284" y="-144" font-family="Helvetica,sans-Serif" font-size="10.00" fill="#000000"> nucleotides</text>
</g>
<!-- Node13 -->
<g id="node11" class="node">
<title>Node13</title>
<g id="a_node11"><a xlink:href="$group__alphabet__utils.html#structvrna__alignment__s" xlink:title=" ">
<polygon fill="none" stroke="#000000" points="237.5,-76.5 237.5,-95.5 330.5,-95.5 330.5,-76.5 237.5,-76.5"/>
<text text-anchor="middle" x="284" y="-83.5" font-family="Helvetica,sans-Serif" font-size="10.00" fill="#000000">vrna_alignment_s</text>
</a>
</g>
</g>
<!-- Node12&#45;&gt;Node13 -->
<g id="edge12" class="edge">
<title>Node12&#45;&gt;Node13</title>
<path fill="none" stroke="#9a32cd" stroke-dasharray="5,2" d="M113.0657,-107.0381C151.403,-102.3196 201.453,-96.1596 237.4753,-91.7261"/>
<polygon fill="#9a32cd" stroke="#9a32cd" points="112.5845,-103.5708 103.087,-108.2662 113.4397,-110.5184 112.5845,-103.5708"/>
<text text-anchor="middle" x="163" y="-108" font-family="Helvetica,sans-Serif" font-size="10.00" fill="#000000"> sequences</text>
</g>
<!-- Node13&#45;&gt;Node4 -->
<g id="edge11" class="edge">
<title>Node13&#45;&gt;Node4</title>
<path fill="none" stroke="#9a32cd" stroke-dasharray="5,2" d="M340.8748,-80.3673C373.0623,-80.1894 412.2926,-85.3888 440,-107 475.6067,-134.7724 484.6114,-193.3267 486.8137,-216.3814"/>
<polygon fill="#9a32cd" stroke="#9a32cd" points="340.6127,-76.8723 330.6953,-80.6 340.7728,-83.8705 340.6127,-76.8723"/>
<text text-anchor="middle" x="406.5" y="-110" font-family="Helvetica,sans-Serif" font-size="10.00" fill="#000000"> alignment</text>
</g>
<!-- Node14 -->
<g id="node12" class="node">
<title>Node14</title>
<g id="a_node12"><a xlink:href="$group__domains__up.html#structvrna__unstructured__domain__s" xlink:title="Data structure to store all functionality for ligand binding.">
<polygon fill="none" stroke="#000000" points="213,-38.5 213,-57.5 355,-57.5 355,-38.5 213,-38.5"/>
<text text-anchor="middle" x="284" y="-45.5" font-family="Helvetica,sans-Serif" font-size="10.00" fill="#000000">vrna_unstructured_domain_s</text>
</a>
</g>
</g>
<!-- Node14&#45;&gt;Node4 -->
<g id="edge13" class="edge">
<title>Node14&#45;&gt;Node4</title>
<path fill="none" stroke="#9a32cd" stroke-dasharray="5,2" d="M365.2501,-41.6523C391.7022,-43.6507 419.4991,-50.6222 440,-68 463.3792,-87.8176 480.8639,-184.9117 485.9718,-216.2373"/>
<polygon fill="#9a32cd" stroke="#9a32cd" points="365.3675,-38.1537 355.1959,-41.1185 364.9963,-45.1438 365.3675,-38.1537"/>
<text text-anchor="middle" x="406.5" y="-71" font-family="Helvetica,sans-Serif" font-size="10.00" fill="#000000"> domains_up</text>
</g>
<!-- Node15 -->
<g id="node13" class="node">
<title>Node15</title>
<g id="a_node13"><a xlink:href="$group__dp__matrices.html#structvrna__mx__mfe__s" xlink:title="Minimum Free Energy (MFE) Dynamic Programming (DP) matrices data structure required within the vrna_f...">
<polygon fill="none" stroke="#000000" points="241,-.5 241,-19.5 327,-19.5 327,-.5 241,-.5"/>
<text text-anchor="middle" x="284" y="-7.5" font-family="Helvetica,sans-Serif" font-size="10.00" fill="#000000">vrna_mx_mfe_s</text>
</a>
</g>
</g>
<!-- Node15&#45;&gt;Node4 -->
<g id="edge14" class="edge">
<title>Node15&#45;&gt;Node4</title>
<path fill="none" stroke="#9a32cd" stroke-dasharray="5,2" d="M337.1232,-1.9041C370.5589,.0823 412.4478,-3.5845 440,-28 468.9705,-53.6723 483.1361,-180.3226 486.6256,-216.3962"/>
<polygon fill="#9a32cd" stroke="#9a32cd" points="336.7428,1.577 327.0432,-2.6853 337.2838,-5.402 336.7428,1.577"/>
<text text-anchor="middle" x="406.5" y="-31" font-family="Helvetica,sans-Serif" font-size="10.00" fill="#000000"> matrices</text>
</g>
<!-- Node16 -->
<g id="node14" class="node">
<title>Node16</title>
<g id="a_node14"><a xlink:href="$group__grammar.html#structvrna__gr__aux__s" xlink:title=" ">
<polygon fill="none" stroke="#000000" points="244,-313.5 244,-332.5 324,-332.5 324,-313.5 244,-313.5"/>
<text text-anchor="middle" x="284" y="-320.5" font-family="Helvetica,sans-Serif" font-size="10.00" fill="#000000">vrna_gr_aux_s</text>
</a>
</g>
</g>
<!-- Node16&#45;&gt;Node4 -->
<g id="edge15" class="edge">
<title>Node16&#45;&gt;Node4</title>
<path fill="none" stroke="#9a32cd" stroke-dasharray="5,2" d="M334.3432,-318.607C366.5852,-313.8999 408.1886,-304.157 440,-284 459.3496,-271.7393 474.5447,-248.923 482.152,-235.8602"/>
<polygon fill="#9a32cd" stroke="#9a32cd" points="333.6735,-315.1655 324.2282,-319.9652 334.6051,-322.1032 333.6735,-315.1655"/>
<text text-anchor="middle" x="406.5" y="-313" font-family="Helvetica,sans-Serif" font-size="10.00" fill="#000000"> aux_grammar</text>
</g>
<!-- Node17 -->
<g id="node15" class="node">
<title>Node17</title>
<g id="a_node15"><a xlink:href="$group__dp__matrices.html#structvrna__mx__pf__s" xlink:title="Partition function (PF) Dynamic Programming (DP) matrices data structure required within the vrna_fol...">
<polygon fill="none" stroke="#000000" points="245,-275.5 245,-294.5 323,-294.5 323,-275.5 245,-275.5"/>
<text text-anchor="middle" x="284" y="-282.5" font-family="Helvetica,sans-Serif" font-size="10.00" fill="#000000">vrna_mx_pf_s</text>
</a>
</g>
</g>
<!-- Node17&#45;&gt;Node4 -->
<g id="edge16" class="edge">
<title>Node17&#45;&gt;Node4</title>
<path fill="none" stroke="#9a32cd" stroke-dasharray="5,2" d="M333.2266,-278.369C364.4593,-273.2457 405.3647,-264.8254 440,-252 451.4609,-247.756 463.5308,-241.1176 472.6357,-235.6111"/>
<polygon fill="#9a32cd" stroke="#9a32cd" points="332.3591,-274.9626 323.0285,-279.9816 333.4525,-281.8767 332.3591,-274.9626"/>
<text text-anchor="middle" x="406.5" y="-272" font-family="Helvetica,sans-Serif" font-size="10.00" fill="#000000"> exp_matrices</text>
</g>
<!-- Node18 -->
<g id="node16" class="node">
<title>Node18</title>
<g id="a_node16"><a xlink:href="$structvrna__structured__domains__s.html" xlink:title=" ">
<polygon fill="none" stroke="#000000" points="215.5,-199.5 215.5,-218.5 352.5,-218.5 352.5,-199.5 215.5,-199.5"/>
<text text-anchor="middle" x="284" y="-206.5" font-family="Helvetica,sans-Serif" font-size="10.00" fill="#000000">vrna_structured_domains_s</text>
</a>
</g>
</g>
<!-- Node18&#45;&gt;Node4 -->
<g id="edge17" class="edge">
<title>Node18&#45;&gt;Node4</title>
<path fill="none" stroke="#9a32cd" stroke-dasharray="5,2" d="M362.8486,-204.6487C387.6793,-204.5743 415.113,-205.8391 440,-210 447.8961,-211.3201 456.2515,-213.7578 463.7163,-216.3393"/>
<polygon fill="#9a32cd" stroke="#9a32cd" points="362.7107,-201.1498 352.7469,-204.7516 362.7821,-208.1495 362.7107,-201.1498"/>
<text text-anchor="middle" x="406.5" y="-213" font-family="Helvetica,sans-Serif" font-size="10.00" fill="#000000"> domains_struc</text>
</g>
</g>
</svg>
