<?xml version="1.0" encoding="UTF-8" standalone="no"?>
<!DOCTYPE svg PUBLIC "-//W3C//DTD SVG 1.1//EN"
 "http://www.w3.org/Graphics/SVG/1.1/DTD/svg11.dtd">
<!-- Generated by graphviz version 2.40.1 (0)
 -->
<!-- Title: vrna_path_s Pages: 1 -->
<svg width="123pt" height="95pt"
 viewBox="0.00 0.00 123.00 95.00" xmlns="http://www.w3.org/2000/svg" xmlns:xlink="http://www.w3.org/1999/xlink">
<g id="graph0" class="graph" transform="scale(1 1) rotate(0) translate(4 91)">
<title>vrna_path_s</title>
<!-- Node1 -->
<g id="node1" class="node">
<title>Node1</title>
<g id="a_node1"><a xlink:title="An element of a refolding path list.">
<polygon fill="#bfbfbf" stroke="#000000" points="2.5,-.5 2.5,-19.5 72.5,-19.5 72.5,-.5 2.5,-.5"/>
<text text-anchor="middle" x="37.5" y="-7.5" font-family="Helvetica,sans-Serif" font-size="10.00" fill="#000000">vrna_path_s</text>
</a>
</g>
</g>
<!-- Node2 -->
<g id="node2" class="node">
<title>Node2</title>
<g id="a_node2"><a xlink:href="$group__neighbors.html#structvrna__move__s" xlink:title="An atomic representation of the transition / move from one structure to its neighbor.">
<polygon fill="none" stroke="#000000" points="0,-67.5 0,-86.5 75,-86.5 75,-67.5 0,-67.5"/>
<text text-anchor="middle" x="37.5" y="-74.5" font-family="Helvetica,sans-Serif" font-size="10.00" fill="#000000">vrna_move_s</text>
</a>
</g>
</g>
<!-- Node2&#45;&gt;Node1 -->
<g id="edge1" class="edge">
<title>Node2&#45;&gt;Node1</title>
<path fill="none" stroke="#9a32cd" stroke-dasharray="5,2" d="M37.5,-57.1079C37.5,-44.714 37.5,-29.3263 37.5,-19.5817"/>
<polygon fill="#9a32cd" stroke="#9a32cd" points="34.0001,-57.4005 37.5,-67.4005 41.0001,-57.4006 34.0001,-57.4005"/>
<text text-anchor="middle" x="51.5" y="-41" font-family="Helvetica,sans-Serif" font-size="10.00" fill="#000000"> move</text>
</g>
<!-- Node2&#45;&gt;Node2 -->
<g id="edge2" class="edge">
<title>Node2&#45;&gt;Node2</title>
<path fill="none" stroke="#9a32cd" stroke-dasharray="5,2" d="M85.2367,-81.8972C89.9811,-80.9176 93,-79.2852 93,-77 93,-73.3438 85.2715,-71.3585 75.1128,-71.0443"/>
<polygon fill="#9a32cd" stroke="#9a32cd" points="84.6946,-78.4347 75.1128,-82.9557 85.4226,-85.3968 84.6946,-78.4347"/>
<text text-anchor="middle" x="104" y="-74.5" font-family="Helvetica,sans-Serif" font-size="10.00" fill="#000000"> next</text>
</g>
</g>
</svg>
