<?xml version="1.0" encoding="UTF-8" standalone="no"?>
<!DOCTYPE svg PUBLIC "-//W3C//DTD SVG 1.1//EN"
 "http://www.w3.org/Graphics/SVG/1.1/DTD/svg11.dtd">
<!-- Generated by graphviz version 2.40.1 (0)
 -->
<!-- Title: ViennaRNA/subopt.h Pages: 1 -->
<svg width="1365pt" height="341pt"
 viewBox="0.00 0.00 1365.00 341.00" xmlns="http://www.w3.org/2000/svg" xmlns:xlink="http://www.w3.org/1999/xlink">
<g id="graph0" class="graph" transform="scale(1 1) rotate(0) translate(4 337)">
<title>ViennaRNA/subopt.h</title>
<!-- Node0 -->
<g id="node1" class="node">
<title>Node0</title>
<g id="a_node1"><a xlink:title="RNAsubopt and density of states declarations.">
<polygon fill="#bfbfbf" stroke="#000000" points="931.5,-313.5 931.5,-332.5 1040.5,-332.5 1040.5,-313.5 931.5,-313.5"/>
<text text-anchor="middle" x="986" y="-320.5" font-family="Helvetica,sans-Serif" font-size="10.00" fill="#000000">ViennaRNA/subopt.h</text>
</a>
</g>
</g>
<!-- Node1 -->
<g id="node2" class="node">
<title>Node1</title>
<g id="a_node2"><a xlink:title=" ">
<polygon fill="none" stroke="#bfbfbf" points="1311,-.5 1311,-19.5 1357,-19.5 1357,-.5 1311,-.5"/>
<text text-anchor="middle" x="1334" y="-7.5" font-family="Helvetica,sans-Serif" font-size="10.00" fill="#000000">stdio.h</text>
</a>
</g>
</g>
<!-- Node0&#45;&gt;Node1 -->
<g id="edge1" class="edge">
<title>Node0&#45;&gt;Node1</title>
<path fill="none" stroke="#191970" d="M1040.8446,-316.3227C1143.6366,-302.2689 1355,-265.4176 1355,-200 1355,-200 1355,-200 1355,-138.5 1355,-99.3148 1345.3711,-54.2778 1339.1536,-29.281"/>
<polygon fill="#191970" stroke="#191970" points="1342.5403,-28.3973 1336.6597,-19.5843 1335.7609,-30.1409 1342.5403,-28.3973"/>
</g>
<!-- Node2 -->
<g id="node3" class="node">
<title>Node2</title>
<g id="a_node3"><a xlink:href="$datastructures_2basic_8h.html" xlink:title="Various data structures and pre&#45;processor macros.">
<polygon fill="none" stroke="#000000" points="692,-246.5 692,-276.5 826,-276.5 826,-246.5 692,-246.5"/>
<text text-anchor="start" x="700" y="-264.5" font-family="Helvetica,sans-Serif" font-size="10.00" fill="#000000">ViennaRNA/datastructures</text>
<text text-anchor="middle" x="759" y="-253.5" font-family="Helvetica,sans-Serif" font-size="10.00" fill="#000000">/basic.h</text>
</a>
</g>
</g>
<!-- Node0&#45;&gt;Node2 -->
<g id="edge2" class="edge">
<title>Node0&#45;&gt;Node2</title>
<path fill="none" stroke="#191970" d="M950.5313,-313.3906C916.8227,-304.2581 865.3166,-290.3038 824.2035,-279.1653"/>
<polygon fill="#191970" stroke="#191970" points="825.0978,-275.7814 814.5304,-276.5446 823.2672,-282.5379 825.0978,-275.7814"/>
</g>
<!-- Node5 -->
<g id="node6" class="node">
<title>Node5</title>
<g id="a_node6"><a xlink:href="$fold__compound_8h.html" xlink:title="The Basic Fold Compound API.">
<polygon fill="none" stroke="#000000" points="585,-190.5 585,-209.5 731,-209.5 731,-190.5 585,-190.5"/>
<text text-anchor="middle" x="658" y="-197.5" font-family="Helvetica,sans-Serif" font-size="10.00" fill="#000000">ViennaRNA/fold_compound.h</text>
</a>
</g>
</g>
<!-- Node0&#45;&gt;Node5 -->
<g id="edge43" class="edge">
<title>Node0&#45;&gt;Node5</title>
<path fill="none" stroke="#191970" d="M931.3947,-321.4376C854.4759,-318.1401 719.5091,-307.9867 683,-277 666.3073,-262.8323 660.6729,-237.3954 658.8196,-219.65"/>
<polygon fill="#191970" stroke="#191970" points="662.2996,-219.2477 658.0792,-209.5298 655.3182,-219.7585 662.2996,-219.2477"/>
</g>
<!-- Node7 -->
<g id="node8" class="node">
<title>Node7</title>
<g id="a_node8"><a xlink:href="$params_2basic_8h.html" xlink:title="Functions to deal with sets of energy parameters.">
<polygon fill="none" stroke="#000000" points="1151,-129 1151,-148 1289,-148 1289,-129 1151,-129"/>
<text text-anchor="middle" x="1220" y="-136" font-family="Helvetica,sans-Serif" font-size="10.00" fill="#000000">ViennaRNA/params/basic.h</text>
</a>
</g>
</g>
<!-- Node0&#45;&gt;Node7 -->
<g id="edge44" class="edge">
<title>Node0&#45;&gt;Node7</title>
<path fill="none" stroke="#191970" d="M1009.2591,-313.4225C1047.4183,-296.8329 1124.1475,-259.7024 1175,-210 1190.6599,-194.6943 1203.3594,-172.9229 1211.2254,-157.4329"/>
<polygon fill="#191970" stroke="#191970" points="1214.4454,-158.8147 1215.6789,-148.292 1208.1525,-155.7488 1214.4454,-158.8147"/>
</g>
<!-- Node3 -->
<g id="node4" class="node">
<title>Node3</title>
<g id="a_node4"><a xlink:href="$constants_8h.html" xlink:title="Energy parameter constants.">
<polygon fill="none" stroke="#000000" points="1169,-62 1169,-81 1327,-81 1327,-62 1169,-62"/>
<text text-anchor="middle" x="1248" y="-69" font-family="Helvetica,sans-Serif" font-size="10.00" fill="#000000">ViennaRNA/params/constants.h</text>
</a>
</g>
</g>
<!-- Node2&#45;&gt;Node3 -->
<g id="edge3" class="edge">
<title>Node2&#45;&gt;Node3</title>
<path fill="none" stroke="#191970" d="M826.1565,-259.4392C909.435,-255.4687 1055.065,-243.8661 1175,-210 1232.8055,-193.6774 1265.4967,-204.5117 1298,-154 1312.6705,-131.2013 1288.7963,-104.2487 1269.2571,-87.511"/>
<polygon fill="#191970" stroke="#191970" points="1271.2366,-84.6092 1261.2736,-81.0051 1266.8145,-90.0355 1271.2366,-84.6092"/>
</g>
<!-- Node2&#45;&gt;Node5 -->
<g id="edge5" class="edge">
<title>Node2&#45;&gt;Node5</title>
<path fill="none" stroke="#191970" d="M734.2926,-246.4554C718.4753,-236.8241 698.0433,-224.3828 682.3051,-214.7996"/>
<polygon fill="#191970" stroke="#191970" points="684.0129,-211.7418 673.6514,-209.5303 680.3723,-217.7206 684.0129,-211.7418"/>
</g>
<!-- Node6 -->
<g id="node7" class="node">
<title>Node6</title>
<g id="a_node7"><a xlink:href="$model_8h.html" xlink:title="The model details data structure and its corresponding modifiers.">
<polygon fill="none" stroke="#000000" points="1045,-62 1045,-81 1151,-81 1151,-62 1045,-62"/>
<text text-anchor="middle" x="1098" y="-69" font-family="Helvetica,sans-Serif" font-size="10.00" fill="#000000">ViennaRNA/model.h</text>
</a>
</g>
</g>
<!-- Node2&#45;&gt;Node6 -->
<g id="edge34" class="edge">
<title>Node2&#45;&gt;Node6</title>
<path fill="none" stroke="#191970" d="M826.3505,-250.1672C917.0412,-233.3768 1070.9082,-198.9722 1104,-154 1117.447,-135.7253 1112.0109,-108.5845 1105.8776,-90.4817"/>
<polygon fill="#191970" stroke="#191970" points="1109.1115,-89.1373 1102.3234,-81.0027 1102.5572,-91.595 1109.1115,-89.1373"/>
</g>
<!-- Node2&#45;&gt;Node7 -->
<g id="edge35" class="edge">
<title>Node2&#45;&gt;Node7</title>
<path fill="none" stroke="#191970" d="M826.1952,-256.4754C917.4741,-249.1725 1075.0861,-233.8368 1128,-210 1156.1206,-197.3322 1181.9199,-172.023 1199.3426,-155.171"/>
<polygon fill="#191970" stroke="#191970" points="1201.9289,-157.5404 1206.7364,-148.0991 1197.0905,-152.4818 1201.9289,-157.5404"/>
</g>
<!-- Node9 -->
<g id="node10" class="node">
<title>Node9</title>
<g id="a_node10"><a xlink:href="$dp__matrices_8h.html" xlink:title="Functions to deal with standard dynamic programming (DP) matrices.">
<polygon fill="none" stroke="#000000" points="961.5,-129 961.5,-148 1094.5,-148 1094.5,-129 961.5,-129"/>
<text text-anchor="middle" x="1028" y="-136" font-family="Helvetica,sans-Serif" font-size="10.00" fill="#000000">ViennaRNA/dp_matrices.h</text>
</a>
</g>
</g>
<!-- Node2&#45;&gt;Node9 -->
<g id="edge36" class="edge">
<title>Node2&#45;&gt;Node9</title>
<path fill="none" stroke="#191970" d="M787.3704,-246.4178C837.2912,-222.2615 940.1395,-175.2628 993.8558,-152.0883"/>
<polygon fill="#191970" stroke="#191970" points="995.4747,-155.2025 1003.2902,-148.0493 992.7197,-148.7675 995.4747,-155.2025"/>
</g>
<!-- Node10 -->
<g id="node11" class="node">
<title>Node10</title>
<g id="a_node11"><a xlink:href="$hard_8h.html" xlink:title="Functions and data structures for handling of secondary structure hard constraints.">
<polygon fill="none" stroke="#000000" points="339.5,-123.5 339.5,-153.5 458.5,-153.5 458.5,-123.5 339.5,-123.5"/>
<text text-anchor="start" x="347.5" y="-141.5" font-family="Helvetica,sans-Serif" font-size="10.00" fill="#000000">ViennaRNA/constraints</text>
<text text-anchor="middle" x="399" y="-130.5" font-family="Helvetica,sans-Serif" font-size="10.00" fill="#000000">/hard.h</text>
</a>
</g>
</g>
<!-- Node2&#45;&gt;Node10 -->
<g id="edge37" class="edge">
<title>Node2&#45;&gt;Node10</title>
<path fill="none" stroke="#191970" d="M699.1528,-246.4318C663.16,-236.9315 616.6035,-223.8677 576,-210 529.8451,-194.2363 478.2634,-172.9683 442.7466,-157.7337"/>
<polygon fill="#191970" stroke="#191970" points="443.7415,-154.3513 433.1729,-153.6063 440.9702,-160.7793 443.7415,-154.3513"/>
</g>
<!-- Node12 -->
<g id="node13" class="node">
<title>Node12</title>
<g id="a_node13"><a xlink:href="$soft_8h.html" xlink:title="Functions and data structures for secondary structure soft constraints.">
<polygon fill="none" stroke="#000000" points="202.5,-123.5 202.5,-153.5 321.5,-153.5 321.5,-123.5 202.5,-123.5"/>
<text text-anchor="start" x="210.5" y="-141.5" font-family="Helvetica,sans-Serif" font-size="10.00" fill="#000000">ViennaRNA/constraints</text>
<text text-anchor="middle" x="262" y="-130.5" font-family="Helvetica,sans-Serif" font-size="10.00" fill="#000000">/soft.h</text>
</a>
</g>
</g>
<!-- Node2&#45;&gt;Node12 -->
<g id="edge38" class="edge">
<title>Node2&#45;&gt;Node12</title>
<path fill="none" stroke="#191970" d="M691.8235,-249.7702C641.1874,-239.9373 570.3811,-225.1148 509,-210 441.5796,-193.3981 364.9736,-171.6111 315.0994,-156.4698"/>
<polygon fill="#191970" stroke="#191970" points="316.0779,-153.1091 305.4916,-153.5336 314.032,-159.8035 316.0779,-153.1091"/>
</g>
<!-- Node13 -->
<g id="node14" class="node">
<title>Node13</title>
<g id="a_node14"><a xlink:href="$grammar_8h.html" xlink:title="Implementations for the RNA folding grammar.">
<polygon fill="none" stroke="#000000" points="693.5,-129 693.5,-148 810.5,-148 810.5,-129 693.5,-129"/>
<text text-anchor="middle" x="752" y="-136" font-family="Helvetica,sans-Serif" font-size="10.00" fill="#000000">ViennaRNA/grammar.h</text>
</a>
</g>
</g>
<!-- Node2&#45;&gt;Node13 -->
<g id="edge39" class="edge">
<title>Node2&#45;&gt;Node13</title>
<path fill="none" stroke="#191970" d="M758.1417,-246.4178C756.881,-224.2662 754.5272,-182.9061 753.1282,-158.3234"/>
<polygon fill="#191970" stroke="#191970" points="756.6061,-157.8342 752.5435,-148.0493 749.6174,-158.232 756.6061,-157.8342"/>
</g>
<!-- Node14 -->
<g id="node15" class="node">
<title>Node14</title>
<g id="a_node15"><a xlink:href="$structured__domains_8h.html" xlink:title="This module provides interfaces that deal with additional structured domains in the folding grammar.">
<polygon fill="none" stroke="#000000" points="828.5,-123.5 828.5,-153.5 943.5,-153.5 943.5,-123.5 828.5,-123.5"/>
<text text-anchor="start" x="836.5" y="-141.5" font-family="Helvetica,sans-Serif" font-size="10.00" fill="#000000">ViennaRNA/structured</text>
<text text-anchor="middle" x="886" y="-130.5" font-family="Helvetica,sans-Serif" font-size="10.00" fill="#000000">_domains.h</text>
</a>
</g>
</g>
<!-- Node2&#45;&gt;Node14 -->
<g id="edge40" class="edge">
<title>Node2&#45;&gt;Node14</title>
<path fill="none" stroke="#191970" d="M774.5727,-246.4178C796.6623,-225.0239 837.2513,-185.7133 862.8677,-160.9037"/>
<polygon fill="#191970" stroke="#191970" points="865.5516,-163.1768 870.2999,-153.7056 860.6816,-158.1485 865.5516,-163.1768"/>
</g>
<!-- Node15 -->
<g id="node16" class="node">
<title>Node15</title>
<g id="a_node16"><a xlink:href="$unstructured__domains_8h.html" xlink:title="Functions to modify unstructured domains, e.g. to incorporate ligands binding to unpaired stretches.">
<polygon fill="none" stroke="#000000" points="59.5,-123.5 59.5,-153.5 184.5,-153.5 184.5,-123.5 59.5,-123.5"/>
<text text-anchor="start" x="67.5" y="-141.5" font-family="Helvetica,sans-Serif" font-size="10.00" fill="#000000">ViennaRNA/unstructured</text>
<text text-anchor="middle" x="122" y="-130.5" font-family="Helvetica,sans-Serif" font-size="10.00" fill="#000000">_domains.h</text>
</a>
</g>
</g>
<!-- Node2&#45;&gt;Node15 -->
<g id="edge41" class="edge">
<title>Node2&#45;&gt;Node15</title>
<path fill="none" stroke="#191970" d="M691.7135,-252.636C625.8772,-243.092 523.1497,-226.9787 435,-210 349.0657,-193.4481 250.9797,-171.1775 187.7898,-155.9146"/>
<polygon fill="#191970" stroke="#191970" points="188.4984,-152.4851 177.955,-153.5272 186.847,-159.2875 188.4984,-152.4851"/>
</g>
<!-- Node16 -->
<g id="node17" class="node">
<title>Node16</title>
<g id="a_node17"><a xlink:href="$utils_2structures_8h.html" xlink:title="Various utility&#45; and helper&#45;functions for secondary structure parsing, converting,...">
<polygon fill="none" stroke="#000000" points="0,-62 0,-81 144,-81 144,-62 0,-62"/>
<text text-anchor="middle" x="72" y="-69" font-family="Helvetica,sans-Serif" font-size="10.00" fill="#000000">ViennaRNA/utils/structures.h</text>
</a>
</g>
</g>
<!-- Node2&#45;&gt;Node16 -->
<g id="edge42" class="edge">
<title>Node2&#45;&gt;Node16</title>
<path fill="none" stroke="#191970" d="M691.9074,-256.6976C521.338,-243.3882 82.1083,-203.7093 41,-154 25.6563,-135.446 38.6385,-107.226 52.4782,-89.0741"/>
<polygon fill="#191970" stroke="#191970" points="55.462,-90.9641 59.2208,-81.0585 50.1051,-86.4581 55.462,-90.9641"/>
</g>
<!-- Node4 -->
<g id="node5" class="node">
<title>Node4</title>
<g id="a_node5"><a xlink:title=" ">
<polygon fill="none" stroke="#bfbfbf" points="1224,-.5 1224,-19.5 1272,-19.5 1272,-.5 1224,-.5"/>
<text text-anchor="middle" x="1248" y="-7.5" font-family="Helvetica,sans-Serif" font-size="10.00" fill="#000000">limits.h</text>
</a>
</g>
</g>
<!-- Node3&#45;&gt;Node4 -->
<g id="edge4" class="edge">
<title>Node3&#45;&gt;Node4</title>
<path fill="none" stroke="#191970" d="M1248,-61.8906C1248,-53.3657 1248,-40.6392 1248,-29.9235"/>
<polygon fill="#191970" stroke="#191970" points="1251.5001,-29.7448 1248,-19.7449 1244.5001,-29.7449 1251.5001,-29.7448"/>
</g>
<!-- Node5&#45;&gt;Node6 -->
<g id="edge6" class="edge">
<title>Node5&#45;&gt;Node6</title>
<path fill="none" stroke="#191970" d="M658.165,-190.4026C659.0139,-173.7949 663.3393,-139.8603 684,-123 710.6372,-101.2624 925.5096,-83.4393 1034.7357,-75.6821"/>
<polygon fill="#191970" stroke="#191970" points="1035.2364,-79.1557 1044.9664,-74.9631 1034.7455,-72.1729 1035.2364,-79.1557"/>
</g>
<!-- Node5&#45;&gt;Node7 -->
<g id="edge7" class="edge">
<title>Node5&#45;&gt;Node7</title>
<path fill="none" stroke="#191970" d="M731.2723,-192.4951C818.1442,-183.9308 967.0655,-169.1414 1095,-154 1109.8136,-152.2468 1125.6712,-150.2243 1140.9679,-148.2313"/>
<polygon fill="#191970" stroke="#191970" points="1141.4609,-151.6967 1150.9224,-146.9289 1140.5528,-144.7558 1141.4609,-151.6967"/>
</g>
<!-- Node8 -->
<g id="node9" class="node">
<title>Node8</title>
<g id="a_node9"><a xlink:href="$sequence_8h.html" xlink:title="Functions and data structures related to sequence representations ,.">
<polygon fill="none" stroke="#000000" points="515,-129 515,-148 637,-148 637,-129 515,-129"/>
<text text-anchor="middle" x="576" y="-136" font-family="Helvetica,sans-Serif" font-size="10.00" fill="#000000">ViennaRNA/sequence.h</text>
</a>
</g>
</g>
<!-- Node5&#45;&gt;Node8 -->
<g id="edge12" class="edge">
<title>Node5&#45;&gt;Node8</title>
<path fill="none" stroke="#191970" d="M640.125,-190.3906C625.5863,-180.8786 605.6041,-166.1357 591.6848,-154.7917"/>
<polygon fill="#191970" stroke="#191970" points="593.8094,-152.0053 583.9044,-148.2449 589.3025,-157.3614 593.8094,-152.0053"/>
</g>
<!-- Node5&#45;&gt;Node9 -->
<g id="edge14" class="edge">
<title>Node5&#45;&gt;Node9</title>
<path fill="none" stroke="#191970" d="M718.1449,-190.4764C776.1282,-181.7637 866.0918,-168.1159 944,-154 950.6805,-152.7896 957.6799,-151.4454 964.6766,-150.0689"/>
<polygon fill="#191970" stroke="#191970" points="965.7615,-153.4218 974.8882,-148.0409 964.3979,-146.5559 965.7615,-153.4218"/>
</g>
<!-- Node5&#45;&gt;Node10 -->
<g id="edge17" class="edge">
<title>Node5&#45;&gt;Node10</title>
<path fill="none" stroke="#191970" d="M612.7661,-190.4581C572.3105,-181.2799 512.5893,-167.1867 466.5098,-155.9926"/>
<polygon fill="#191970" stroke="#191970" points="467.1442,-152.5449 456.5999,-153.5784 465.4873,-159.346 467.1442,-152.5449"/>
</g>
<!-- Node5&#45;&gt;Node12 -->
<g id="edge21" class="edge">
<title>Node5&#45;&gt;Node12</title>
<path fill="none" stroke="#191970" d="M584.9464,-192.3846C518.8108,-184.643 418.7544,-171.5634 328.5815,-155.3658"/>
<polygon fill="#191970" stroke="#191970" points="328.9491,-151.8753 318.4844,-153.5311 327.6976,-158.7626 328.9491,-151.8753"/>
</g>
<!-- Node5&#45;&gt;Node13 -->
<g id="edge25" class="edge">
<title>Node5&#45;&gt;Node13</title>
<path fill="none" stroke="#191970" d="M667.625,-190.3906C680.9239,-180.4165 704.6971,-164.6908 723.7369,-153.1633"/>
<polygon fill="#191970" stroke="#191970" points="725.5531,-156.1555 732.3663,-148.0419 721.9805,-150.1358 725.5531,-156.1555"/>
</g>
<!-- Node5&#45;&gt;Node14 -->
<g id="edge27" class="edge">
<title>Node5&#45;&gt;Node14</title>
<path fill="none" stroke="#191970" d="M693.625,-190.3906C727.482,-181.2581 779.215,-167.3038 820.5093,-156.1653"/>
<polygon fill="#191970" stroke="#191970" points="821.4815,-159.5282 830.2249,-153.5446 819.6585,-152.7697 821.4815,-159.5282"/>
</g>
<!-- Node5&#45;&gt;Node15 -->
<g id="edge28" class="edge">
<title>Node5&#45;&gt;Node15</title>
<path fill="none" stroke="#191970" d="M584.9929,-195.8354C493.6446,-189.7817 332.5961,-176.8831 191.1395,-155.0959"/>
<polygon fill="#191970" stroke="#191970" points="191.4099,-151.5958 180.9897,-153.5119 190.3304,-158.5121 191.4099,-151.5958"/>
</g>
<!-- Node7&#45;&gt;Node2 -->
<g id="edge9" class="edge">
<title>Node7&#45;&gt;Node2</title>
<path fill="none" stroke="#191970" d="M1217.7206,-148.0991C1207.7679,-163.9741 1178.4273,-195.392 1146,-210 1092.7075,-234.0074 933.2138,-249.3914 836.3471,-256.6309"/>
<polygon fill="#191970" stroke="#191970" points="836.0223,-253.1453 826.3058,-257.3689 836.5354,-260.1264 836.0223,-253.1453"/>
</g>
<!-- Node7&#45;&gt;Node3 -->
<g id="edge8" class="edge">
<title>Node7&#45;&gt;Node3</title>
<path fill="none" stroke="#191970" d="M1224.0117,-128.9005C1228.1702,-118.95 1234.7818,-103.1292 1240.0117,-90.6147"/>
<polygon fill="#191970" stroke="#191970" points="1243.3691,-91.658 1243.9957,-81.0817 1236.9104,-88.9588 1243.3691,-91.658"/>
</g>
<!-- Node7&#45;&gt;Node5 -->
<g id="edge10" class="edge">
<title>Node7&#45;&gt;Node5</title>
<path fill="none" stroke="#191970" d="M1160.1087,-148.0211C1144.7879,-150.0817 1128.3346,-152.1851 1113,-154 983.5412,-169.3218 832.5924,-184.2832 741.1542,-192.7985"/>
<polygon fill="#191970" stroke="#191970" points="740.76,-189.32 731.126,-193.7287 741.4066,-196.2901 740.76,-189.32"/>
</g>
<!-- Node7&#45;&gt;Node6 -->
<g id="edge11" class="edge">
<title>Node7&#45;&gt;Node6</title>
<path fill="none" stroke="#191970" d="M1202.5204,-128.9005C1182.046,-117.6564 1147.9228,-98.9166 1124.2607,-85.9219"/>
<polygon fill="#191970" stroke="#191970" points="1125.8972,-82.8276 1115.4472,-81.0817 1122.5276,-88.9632 1125.8972,-82.8276"/>
</g>
<!-- Node8&#45;&gt;Node5 -->
<g id="edge13" class="edge">
<title>Node8&#45;&gt;Node5</title>
<path fill="none" stroke="#191970" d="M593.7718,-148.0419C608.37,-157.5849 628.5036,-172.4412 642.4618,-183.8278"/>
<polygon fill="#191970" stroke="#191970" points="640.3476,-186.6232 650.25,-190.3906 644.8583,-181.2703 640.3476,-186.6232"/>
</g>
<!-- Node9&#45;&gt;Node2 -->
<g id="edge15" class="edge">
<title>Node9&#45;&gt;Node2</title>
<path fill="none" stroke="#191970" d="M1010.9415,-148.0493C970.2089,-168.2435 867.0256,-215.612 806.013,-242.3166"/>
<polygon fill="#191970" stroke="#191970" points="804.3689,-239.2151 796.5989,-246.4178 807.1646,-245.6326 804.3689,-239.2151"/>
</g>
<!-- Node9&#45;&gt;Node5 -->
<g id="edge16" class="edge">
<title>Node9&#45;&gt;Node5</title>
<path fill="none" stroke="#191970" d="M992.4172,-148.0409C982.5925,-150.1005 971.9431,-152.1985 962,-154 887.7171,-167.4591 802.4746,-180.4925 741.1282,-189.2285"/>
<polygon fill="#191970" stroke="#191970" points="740.5214,-185.7794 731.1109,-190.6468 741.5028,-192.7103 740.5214,-185.7794"/>
</g>
<!-- Node10&#45;&gt;Node5 -->
<g id="edge18" class="edge">
<title>Node10&#45;&gt;Node5</title>
<path fill="none" stroke="#191970" d="M458.8743,-151.3844C505.9128,-162.1834 570.3012,-177.4833 613.0267,-188.0205"/>
<polygon fill="#191970" stroke="#191970" points="612.3164,-191.4502 622.8647,-190.4581 614,-184.6557 612.3164,-191.4502"/>
</g>
<!-- Node11 -->
<g id="node12" class="node">
<title>Node11</title>
<g id="a_node12"><a xlink:href="$constraints_2basic_8h.html" xlink:title="Functions and data structures for constraining secondary structure predictions and evaluation.">
<polygon fill="none" stroke="#000000" points="339.5,-56.5 339.5,-86.5 458.5,-86.5 458.5,-56.5 339.5,-56.5"/>
<text text-anchor="start" x="347.5" y="-74.5" font-family="Helvetica,sans-Serif" font-size="10.00" fill="#000000">ViennaRNA/constraints</text>
<text text-anchor="middle" x="399" y="-63.5" font-family="Helvetica,sans-Serif" font-size="10.00" fill="#000000">/basic.h</text>
</a>
</g>
</g>
<!-- Node10&#45;&gt;Node11 -->
<g id="edge19" class="edge">
<title>Node10&#45;&gt;Node11</title>
<path fill="none" stroke="#191970" d="M399,-123.2967C399,-115.5013 399,-105.7991 399,-96.9064"/>
<polygon fill="#191970" stroke="#191970" points="402.5001,-96.6431 399,-86.6432 395.5001,-96.6432 402.5001,-96.6431"/>
</g>
<!-- Node11&#45;&gt;Node5 -->
<g id="edge20" class="edge">
<title>Node11&#45;&gt;Node5</title>
<path fill="none" stroke="#191970" d="M419.3277,-86.7003C432.891,-96.8901 451.0879,-110.6531 467,-123 484.4935,-136.5739 486.3882,-143.7215 506,-154 535.4903,-169.4557 570.9818,-180.5659 600.2502,-187.991"/>
<polygon fill="#191970" stroke="#191970" points="599.7771,-191.4788 610.3233,-190.4648 601.4466,-184.6808 599.7771,-191.4788"/>
</g>
<!-- Node12&#45;&gt;Node2 -->
<g id="edge22" class="edge">
<title>Node12&#45;&gt;Node2</title>
<path fill="none" stroke="#191970" d="M319.0557,-153.5336C372.7186,-168.6831 455.0849,-192.2913 527,-210 578.465,-222.673 636.5558,-235.1405 681.7885,-244.6338"/>
<polygon fill="#191970" stroke="#191970" points="681.3171,-248.1109 691.8223,-246.7355 682.7522,-241.2596 681.3171,-248.1109"/>
</g>
<!-- Node12&#45;&gt;Node5 -->
<g id="edge23" class="edge">
<title>Node12&#45;&gt;Node5</title>
<path fill="none" stroke="#191970" d="M321.7178,-150.5679C327.5687,-151.7982 333.4028,-152.9715 339,-154 418.7192,-168.6485 510.0924,-181.1119 574.6138,-189.3553"/>
<polygon fill="#191970" stroke="#191970" points="574.3711,-192.8525 584.7327,-190.6418 575.254,-185.9084 574.3711,-192.8525"/>
</g>
<!-- Node12&#45;&gt;Node11 -->
<g id="edge24" class="edge">
<title>Node12&#45;&gt;Node11</title>
<path fill="none" stroke="#191970" d="M292.7455,-123.4639C312.2624,-113.9191 337.7257,-101.4663 358.8325,-91.144"/>
<polygon fill="#191970" stroke="#191970" points="360.4375,-94.2552 367.8831,-86.7177 357.3622,-87.9669 360.4375,-94.2552"/>
</g>
<!-- Node13&#45;&gt;Node5 -->
<g id="edge26" class="edge">
<title>Node13&#45;&gt;Node5</title>
<path fill="none" stroke="#191970" d="M742.4649,-148.0419C729.2134,-157.99 705.4532,-173.7122 686.3922,-185.2585"/>
<polygon fill="#191970" stroke="#191970" points="684.5611,-182.2752 677.75,-190.3906 688.1353,-188.294 684.5611,-182.2752"/>
</g>
<!-- Node15&#45;&gt;Node2 -->
<g id="edge29" class="edge">
<title>Node15&#45;&gt;Node2</title>
<path fill="none" stroke="#191970" d="M184.7456,-151.9946C251.3276,-167.1458 359.3757,-191.9669 453,-210 530.7025,-224.9664 619.7321,-239.2604 681.7123,-248.9753"/>
<polygon fill="#191970" stroke="#191970" points="681.3847,-252.4665 691.8056,-250.5545 682.4668,-245.5507 681.3847,-252.4665"/>
</g>
<!-- Node15&#45;&gt;Node5 -->
<g id="edge30" class="edge">
<title>Node15&#45;&gt;Node5</title>
<path fill="none" stroke="#191970" d="M184.712,-150.925C190.5619,-152.0598 196.3921,-153.1136 202,-154 331.5585,-174.479 482.9547,-187.4392 574.6531,-194.2088"/>
<polygon fill="#191970" stroke="#191970" points="574.4811,-197.7055 584.7097,-194.9441 574.9916,-190.7241 574.4811,-197.7055"/>
</g>
<!-- Node15&#45;&gt;Node16 -->
<g id="edge31" class="edge">
<title>Node15&#45;&gt;Node16</title>
<path fill="none" stroke="#191970" d="M110.6542,-123.2967C103.0909,-113.1618 93.1224,-99.804 85.2031,-89.1921"/>
<polygon fill="#191970" stroke="#191970" points="87.9165,-86.976 79.1306,-81.055 82.3064,-91.1626 87.9165,-86.976"/>
</g>
<!-- Node16&#45;&gt;Node1 -->
<g id="edge32" class="edge">
<title>Node16&#45;&gt;Node1</title>
<path fill="none" stroke="#191970" d="M144.2629,-66.7289C195.9756,-63.4197 267.2538,-59.0721 330,-56 752.4634,-35.3161 860.6884,-67.3416 1281,-20 1287.4727,-19.2709 1294.3411,-18.1997 1300.9123,-17.0262"/>
<polygon fill="#191970" stroke="#191970" points="1301.7218,-20.4351 1310.894,-15.1321 1300.4168,-13.5578 1301.7218,-20.4351"/>
</g>
<!-- Node16&#45;&gt;Node2 -->
<g id="edge33" class="edge">
<title>Node16&#45;&gt;Node2</title>
<path fill="none" stroke="#191970" d="M69.9774,-81.0585C61.6456,-97.7316 41.1456,-132.4099 59,-154 98.6247,-201.9153 508.1536,-240.5112 681.8683,-255.1544"/>
<polygon fill="#191970" stroke="#191970" points="681.7066,-258.653 691.9641,-256.0009 682.2915,-251.6775 681.7066,-258.653"/>
</g>
</g>
</svg>
