<?xml version="1.0" encoding="UTF-8" standalone="no"?>
<!DOCTYPE svg PUBLIC "-//W3C//DTD SVG 1.1//EN"
 "http://www.w3.org/Graphics/SVG/1.1/DTD/svg11.dtd">
<!-- Generated by graphviz version 2.40.1 (0)
 -->
<!-- Title: ViennaRNA/unstructured_domains.h Pages: 1 -->
<svg width="4234pt" height="542pt"
 viewBox="0.00 0.00 4234.04 542.00" xmlns="http://www.w3.org/2000/svg" xmlns:xlink="http://www.w3.org/1999/xlink">
<g id="graph0" class="graph" transform="scale(1 1) rotate(0) translate(4 538)">
<title>ViennaRNA/unstructured_domains.h</title>
<!-- Node16 -->
<g id="node1" class="node">
<title>Node16</title>
<g id="a_node1"><a xlink:title="Functions to modify unstructured domains, e.g. to incorporate ligands binding to unpaired stretches.">
<polygon fill="#bfbfbf" stroke="#000000" points="1081.7168,-503.5 1081.7168,-533.5 1206.7168,-533.5 1206.7168,-503.5 1081.7168,-503.5"/>
<text text-anchor="start" x="1089.7168" y="-521.5" font-family="Helvetica,sans-Serif" font-size="10.00" fill="#000000">ViennaRNA/unstructured</text>
<text text-anchor="middle" x="1144.2168" y="-510.5" font-family="Helvetica,sans-Serif" font-size="10.00" fill="#000000">_domains.h</text>
</a>
</g>
</g>
<!-- Node17 -->
<g id="node2" class="node">
<title>Node17</title>
<g id="a_node2"><a xlink:href="$fold__compound_8h.html" xlink:title="The Basic Fold Compound API.">
<polygon fill="none" stroke="#000000" points="2254.2168,-447.5 2254.2168,-466.5 2400.2168,-466.5 2400.2168,-447.5 2254.2168,-447.5"/>
<text text-anchor="middle" x="2327.2168" y="-454.5" font-family="Helvetica,sans-Serif" font-size="10.00" fill="#000000">ViennaRNA/fold_compound.h</text>
</a>
</g>
</g>
<!-- Node16&#45;&gt;Node17 -->
<g id="edge1" class="edge">
<title>Node16&#45;&gt;Node17</title>
<path fill="none" stroke="#191970" d="M1217.1128,-514.5266C1428.8709,-503.2929 2042.0449,-471.4185 2254.0922,-460.6249"/>
<polygon fill="#191970" stroke="#191970" points="1216.8356,-511.0363 1207.0353,-515.0617 1217.2069,-518.0264 1216.8356,-511.0363"/>
</g>
<!-- Node30 -->
<g id="node14" class="node">
<title>Node30</title>
<g id="a_node14"><a xlink:href="$datastructures_2basic_8h.html" xlink:title="Various data structures and pre&#45;processor macros.">
<polygon fill="none" stroke="#ff0000" points="1464.2168,-246.5 1464.2168,-276.5 1598.2168,-276.5 1598.2168,-246.5 1464.2168,-246.5"/>
<text text-anchor="start" x="1472.2168" y="-264.5" font-family="Helvetica,sans-Serif" font-size="10.00" fill="#000000">ViennaRNA/datastructures</text>
<text text-anchor="middle" x="1531.2168" y="-253.5" font-family="Helvetica,sans-Serif" font-size="10.00" fill="#000000">/basic.h</text>
</a>
</g>
</g>
<!-- Node16&#45;&gt;Node30 -->
<g id="edge116" class="edge">
<title>Node16&#45;&gt;Node30</title>
<path fill="none" stroke="#191970" d="M1172.1673,-497.3337C1244.2668,-446.8378 1435.0306,-320.2721 1505.0892,-276.598"/>
<polygon fill="#191970" stroke="#191970" points="1169.7429,-494.7605 1163.5862,-503.383 1173.7761,-500.4818 1169.7429,-494.7605"/>
</g>
<!-- Node17&#45;&gt;Node16 -->
<g id="edge92" class="edge">
<title>Node17&#45;&gt;Node16</title>
<path fill="none" stroke="#191970" d="M2243.9546,-461.5229C2019.4102,-473.4143 1405.2461,-505.3327 1206.8602,-515.4081"/>
<polygon fill="#191970" stroke="#191970" points="2244.2282,-465.0134 2254.0289,-460.9889 2243.8576,-458.0232 2244.2282,-465.0134"/>
</g>
<!-- Node18 -->
<g id="node3" class="node">
<title>Node18</title>
<g id="a_node3"><a xlink:href="$2Dfold_8h.html" xlink:title="MFE structures for base pair distance classes.">
<polygon fill="none" stroke="#000000" points="2262.2168,-118 2262.2168,-137 2370.2168,-137 2370.2168,-118 2262.2168,-118"/>
<text text-anchor="middle" x="2316.2168" y="-125" font-family="Helvetica,sans-Serif" font-size="10.00" fill="#000000">ViennaRNA/2Dfold.h</text>
</a>
</g>
</g>
<!-- Node17&#45;&gt;Node18 -->
<g id="edge2" class="edge">
<title>Node17&#45;&gt;Node18</title>
<path fill="none" stroke="#191970" d="M2395.8667,-445.3813C2434.2213,-437.4303 2476.752,-425.6782 2489.2168,-411 2522.752,-371.5097 2543.8553,-220.0256 2512.2168,-179 2509.7661,-175.8222 2411.1998,-151.0023 2354.8032,-137.0122"/>
<polygon fill="#191970" stroke="#191970" points="2394.8241,-442.0207 2385.7089,-447.4211 2396.2023,-448.8837 2394.8241,-442.0207"/>
</g>
<!-- Node19 -->
<g id="node4" class="node">
<title>Node19</title>
<g id="a_node4"><a xlink:href="$2Dpfold_8h.html" xlink:title="Partition function implementations for base pair distance classes.">
<polygon fill="none" stroke="#000000" points="2130.7168,-118 2130.7168,-137 2243.7168,-137 2243.7168,-118 2130.7168,-118"/>
<text text-anchor="middle" x="2187.2168" y="-125" font-family="Helvetica,sans-Serif" font-size="10.00" fill="#000000">ViennaRNA/2Dpfold.h</text>
</a>
</g>
</g>
<!-- Node17&#45;&gt;Node19 -->
<g id="edge3" class="edge">
<title>Node17&#45;&gt;Node19</title>
<path fill="none" stroke="#191970" d="M2375.3995,-444.7351C2405.9133,-435.9542 2441.4075,-423.5159 2451.2168,-411 2515.1338,-329.4463 2541.3369,-257.9385 2474.2168,-179 2441.9845,-141.0924 2302.0218,-152.6939 2253.2168,-143 2244.3275,-141.2344 2234.8146,-139.1286 2225.8576,-137.047"/>
<polygon fill="#191970" stroke="#191970" points="2374.39,-441.3831 2365.7063,-447.4529 2376.2799,-448.1231 2374.39,-441.3831"/>
</g>
<!-- Node20 -->
<g id="node5" class="node">
<title>Node20</title>
<g id="a_node5"><a xlink:href="$alphabet_8h.html" xlink:title="Functions to process, convert, and generally handle different nucleotide and/or base pair alphabets.">
<polygon fill="none" stroke="#ff0000" points="2655.2168,-386 2655.2168,-405 2771.2168,-405 2771.2168,-386 2655.2168,-386"/>
<text text-anchor="middle" x="2713.2168" y="-393" font-family="Helvetica,sans-Serif" font-size="10.00" fill="#000000">ViennaRNA/alphabet.h</text>
</a>
</g>
</g>
<!-- Node17&#45;&gt;Node20 -->
<g id="edge4" class="edge">
<title>Node17&#45;&gt;Node20</title>
<path fill="none" stroke="#191970" d="M2410.3569,-446.356C2473.7913,-437.8634 2563.2479,-425.0875 2641.2168,-411 2650.9054,-409.2495 2661.2795,-407.1497 2671.0502,-405.0692"/>
<polygon fill="#191970" stroke="#191970" points="2409.8555,-442.8918 2400.4053,-447.6817 2410.7799,-449.8304 2409.8555,-442.8918"/>
</g>
<!-- Node22 -->
<g id="node6" class="node">
<title>Node22</title>
<g id="a_node6"><a xlink:href="$boltzmann__sampling_8h.html" xlink:title="Boltzmann Sampling of secondary structures from the ensemble.">
<polygon fill="none" stroke="#000000" points="2744.2168,-112.5 2744.2168,-142.5 2860.2168,-142.5 2860.2168,-112.5 2744.2168,-112.5"/>
<text text-anchor="start" x="2752.2168" y="-130.5" font-family="Helvetica,sans-Serif" font-size="10.00" fill="#000000">ViennaRNA/boltzmann</text>
<text text-anchor="middle" x="2802.2168" y="-119.5" font-family="Helvetica,sans-Serif" font-size="10.00" fill="#000000">_sampling.h</text>
</a>
</g>
</g>
<!-- Node17&#45;&gt;Node22 -->
<g id="edge5" class="edge">
<title>Node17&#45;&gt;Node22</title>
<path fill="none" stroke="#191970" d="M2410.5141,-449.4962C2477.1042,-442.2555 2564.115,-429.6306 2594.2168,-411 2705.0392,-342.4099 2775.6835,-191.0432 2796.0852,-142.6752"/>
<polygon fill="#191970" stroke="#191970" points="2410.0044,-446.0305 2400.4308,-450.5688 2410.7449,-452.9913 2410.0044,-446.0305"/>
</g>
<!-- Node24 -->
<g id="node8" class="node">
<title>Node24</title>
<g id="a_node8"><a xlink:href="$part__func_8h.html" xlink:title="Partition function implementations.">
<polygon fill="none" stroke="#000000" points="354.2168,-56.5 354.2168,-75.5 474.2168,-75.5 474.2168,-56.5 354.2168,-56.5"/>
<text text-anchor="middle" x="414.2168" y="-63.5" font-family="Helvetica,sans-Serif" font-size="10.00" fill="#000000">ViennaRNA/part_func.h</text>
</a>
</g>
</g>
<!-- Node17&#45;&gt;Node24 -->
<g id="edge86" class="edge">
<title>Node17&#45;&gt;Node24</title>
<path fill="none" stroke="#191970" d="M2244.0453,-455.9278C1839.1641,-450.6324 92.9263,-426.8891 70.2168,-411 -14.7575,-351.5464 -21.1078,-258.7271 45.2168,-179 85.4403,-130.6483 265.1393,-92.439 358.0965,-75.5024"/>
<polygon fill="#191970" stroke="#191970" points="2244.1681,-459.4296 2254.2129,-456.0606 2244.2595,-452.4302 2244.1681,-459.4296"/>
</g>
<!-- Node26 -->
<g id="node10" class="node">
<title>Node26</title>
<g id="a_node10"><a xlink:href="$centroid_8h.html" xlink:title="Centroid structure computation.">
<polygon fill="none" stroke="#000000" points="76.2168,-185 76.2168,-204 190.2168,-204 190.2168,-185 76.2168,-185"/>
<text text-anchor="middle" x="133.2168" y="-192" font-family="Helvetica,sans-Serif" font-size="10.00" fill="#000000">ViennaRNA/centroid.h</text>
</a>
</g>
</g>
<!-- Node17&#45;&gt;Node26 -->
<g id="edge10" class="edge">
<title>Node17&#45;&gt;Node26</title>
<path fill="none" stroke="#191970" d="M2244.182,-456.504C1856.9993,-454.0304 245.9038,-441.8945 204.2168,-411 134.9357,-359.6555 132.1627,-238.7602 132.866,-204.0008"/>
<polygon fill="#191970" stroke="#191970" points="2244.1687,-460.0039 2254.1908,-456.5675 2244.2132,-453.004 2244.1687,-460.0039"/>
</g>
<!-- Node27 -->
<g id="node11" class="node">
<title>Node27</title>
<g id="a_node11"><a xlink:href="$combinatorics_8h.html" xlink:title="Various implementations that deal with combinatorial aspects of objects.">
<polygon fill="none" stroke="#000000" points="2789.2168,-386 2789.2168,-405 2929.2168,-405 2929.2168,-386 2789.2168,-386"/>
<text text-anchor="middle" x="2859.2168" y="-393" font-family="Helvetica,sans-Serif" font-size="10.00" fill="#000000">ViennaRNA/combinatorics.h</text>
</a>
</g>
</g>
<!-- Node17&#45;&gt;Node27 -->
<g id="edge12" class="edge">
<title>Node17&#45;&gt;Node27</title>
<path fill="none" stroke="#191970" d="M2410.4316,-450.8729C2501.516,-443.6259 2651.7161,-430.0886 2780.2168,-411 2791.2768,-409.357 2803.1392,-407.2273 2814.2223,-405.0754"/>
<polygon fill="#191970" stroke="#191970" points="2410.1352,-447.3853 2400.4416,-451.6613 2410.686,-454.3636 2410.1352,-447.3853"/>
</g>
<!-- Node28 -->
<g id="node12" class="node">
<title>Node28</title>
<g id="a_node12"><a xlink:href="$commands_8h.html" xlink:title="Parse and apply different commands that alter the behavior of secondary structure prediction and eval...">
<polygon fill="none" stroke="#000000" points="2947.2168,-386 2947.2168,-405 3075.2168,-405 3075.2168,-386 2947.2168,-386"/>
<text text-anchor="middle" x="3011.2168" y="-393" font-family="Helvetica,sans-Serif" font-size="10.00" fill="#000000">ViennaRNA/commands.h</text>
</a>
</g>
</g>
<!-- Node17&#45;&gt;Node28 -->
<g id="edge13" class="edge">
<title>Node17&#45;&gt;Node28</title>
<path fill="none" stroke="#191970" d="M2410.495,-454.2686C2528.4515,-449.5977 2750.7137,-437.8409 2938.2168,-411 2948.9901,-409.4578 2960.5531,-407.2589 2971.2275,-405.0002"/>
<polygon fill="#191970" stroke="#191970" points="2410.3069,-450.7732 2400.4505,-454.6592 2410.579,-457.7679 2410.3069,-450.7732"/>
</g>
<!-- Node29 -->
<g id="node13" class="node">
<title>Node29</title>
<g id="a_node13"><a xlink:href="$dp__matrices_8h.html" xlink:title="Functions to deal with standard dynamic programming (DP) matrices.">
<polygon fill="none" stroke="#000000" points="1464.7168,-319 1464.7168,-338 1597.7168,-338 1597.7168,-319 1464.7168,-319"/>
<text text-anchor="middle" x="1531.2168" y="-326" font-family="Helvetica,sans-Serif" font-size="10.00" fill="#000000">ViennaRNA/dp_matrices.h</text>
</a>
</g>
</g>
<!-- Node17&#45;&gt;Node29 -->
<g id="edge14" class="edge">
<title>Node17&#45;&gt;Node29</title>
<path fill="none" stroke="#191970" d="M2243.8627,-454.6322C2048.7915,-448.5993 1577.2935,-431.6571 1550.2168,-411 1527.1281,-393.3854 1522.9224,-355.7865 1526.0595,-338.0879"/>
<polygon fill="#191970" stroke="#191970" points="2243.9614,-458.1368 2254.0641,-454.9456 2244.1763,-451.1401 2243.9614,-458.1368"/>
</g>
<!-- Node17&#45;&gt;Node30 -->
<g id="edge115" class="edge">
<title>Node17&#45;&gt;Node30</title>
<path fill="none" stroke="#191970" d="M2243.8902,-453.4218C2092.4745,-446.4895 1783.5719,-430.2084 1738.2168,-411 1707.9174,-398.1679 1654.2278,-331.7915 1627.2168,-313 1607.1884,-299.0664 1582.9685,-286.0983 1563.8668,-276.6607"/>
<polygon fill="#191970" stroke="#191970" points="2243.9243,-456.9269 2254.073,-453.8848 2244.2423,-449.9341 2243.9243,-456.9269"/>
</g>
<!-- Node35 -->
<g id="node19" class="node">
<title>Node35</title>
<g id="a_node19"><a xlink:href="$equilibrium__probs_8h.html" xlink:title="Equilibrium Probability implementations.">
<polygon fill="none" stroke="#000000" points="240.2168,-112.5 240.2168,-142.5 358.2168,-142.5 358.2168,-112.5 240.2168,-112.5"/>
<text text-anchor="start" x="248.2168" y="-130.5" font-family="Helvetica,sans-Serif" font-size="10.00" fill="#000000">ViennaRNA/equilibrium</text>
<text text-anchor="middle" x="299.2168" y="-119.5" font-family="Helvetica,sans-Serif" font-size="10.00" fill="#000000">_probs.h</text>
</a>
</g>
</g>
<!-- Node17&#45;&gt;Node35 -->
<g id="edge77" class="edge">
<title>Node17&#45;&gt;Node35</title>
<path fill="none" stroke="#191970" d="M2243.9521,-456.5142C1859.8657,-454.1089 273.594,-442.3104 173.2168,-411 109.6717,-391.1786 48.2168,-395.0647 48.2168,-328.5 48.2168,-328.5 48.2168,-328.5 48.2168,-261.5 48.2168,-223.8735 40.5057,-205.5004 67.2168,-179 91.2339,-155.1722 179.692,-140.7382 240.1694,-133.441"/>
<polygon fill="#191970" stroke="#191970" points="2244.1323,-460.0153 2254.1539,-456.5777 2244.1759,-453.0155 2244.1323,-460.0153"/>
</g>
<!-- Node36 -->
<g id="node20" class="node">
<title>Node36</title>
<g id="a_node20"><a xlink:href="$eval_8h.html" xlink:title="Functions and variables related to energy evaluation of sequence/structure pairs.">
<polygon fill="none" stroke="#000000" points="452.2168,-118 452.2168,-137 550.2168,-137 550.2168,-118 452.2168,-118"/>
<text text-anchor="middle" x="501.2168" y="-125" font-family="Helvetica,sans-Serif" font-size="10.00" fill="#000000">ViennaRNA/eval.h</text>
</a>
</g>
</g>
<!-- Node17&#45;&gt;Node36 -->
<g id="edge78" class="edge">
<title>Node17&#45;&gt;Node36</title>
<path fill="none" stroke="#191970" d="M2244.0314,-455.9186C1886.5835,-451.1554 495.0399,-431.3762 404.2168,-411 315.9767,-391.2033 218.2168,-418.9335 218.2168,-328.5 218.2168,-328.5 218.2168,-328.5 218.2168,-261.5 218.2168,-223.8735 210.1663,-205.1539 237.2168,-179 244.9382,-171.5344 377.9429,-148.1956 452.1472,-135.6581"/>
<polygon fill="#191970" stroke="#191970" points="2244.0054,-459.4185 2254.0511,-456.0518 2244.0985,-452.4191 2244.0054,-459.4185"/>
</g>
<!-- Node40 -->
<g id="node23" class="node">
<title>Node40</title>
<g id="a_node23"><a xlink:href="$gquad_8h.html" xlink:title="G&#45;quadruplexes.">
<polygon fill="none" stroke="#000000" points="694.2168,-118 694.2168,-137 800.2168,-137 800.2168,-118 694.2168,-118"/>
<text text-anchor="middle" x="747.2168" y="-125" font-family="Helvetica,sans-Serif" font-size="10.00" fill="#000000">ViennaRNA/gquad.h</text>
</a>
</g>
</g>
<!-- Node17&#45;&gt;Node40 -->
<g id="edge79" class="edge">
<title>Node17&#45;&gt;Node40</title>
<path fill="none" stroke="#191970" d="M2243.7833,-455.5649C1944.2407,-450.2667 933.191,-431.0716 789.2168,-411 640.7651,-390.3042 462.2168,-478.3874 462.2168,-328.5 462.2168,-328.5 462.2168,-328.5 462.2168,-261.5 462.2168,-207.7131 630.5595,-157.4519 708.4838,-137.0677"/>
<polygon fill="#191970" stroke="#191970" points="2244.076,-459.0706 2254.1362,-455.7475 2244.1995,-452.0716 2244.076,-459.0706"/>
</g>
<!-- Node43 -->
<g id="node26" class="node">
<title>Node43</title>
<g id="a_node26"><a xlink:href="$mfe_8h.html" xlink:title="Compute Minimum Free energy (MFE) and backtrace corresponding secondary structures from RNA sequence ...">
<polygon fill="none" stroke="#000000" points="2602.2168,-185 2602.2168,-204 2698.2168,-204 2698.2168,-185 2602.2168,-185"/>
<text text-anchor="middle" x="2650.2168" y="-192" font-family="Helvetica,sans-Serif" font-size="10.00" fill="#000000">ViennaRNA/mfe.h</text>
</a>
</g>
</g>
<!-- Node17&#45;&gt;Node43 -->
<g id="edge83" class="edge">
<title>Node17&#45;&gt;Node43</title>
<path fill="none" stroke="#191970" d="M2410.4472,-449.4392C2469.3672,-442.5358 2541.8951,-430.3977 2565.2168,-411 2632.5843,-354.9674 2646.8171,-238.3678 2649.5902,-204.1417"/>
<polygon fill="#191970" stroke="#191970" points="2409.9107,-445.9776 2400.3702,-450.5851 2410.7017,-452.9327 2409.9107,-445.9776"/>
</g>
<!-- Node45 -->
<g id="node28" class="node">
<title>Node45</title>
<g id="a_node28"><a xlink:href="$part__func__window_8h.html" xlink:title="Partition function and equilibrium probability implementation for the sliding window algorithm.">
<polygon fill="none" stroke="#000000" points="246.2168,-179.5 246.2168,-209.5 358.2168,-209.5 358.2168,-179.5 246.2168,-179.5"/>
<text text-anchor="start" x="254.2168" y="-197.5" font-family="Helvetica,sans-Serif" font-size="10.00" fill="#000000">ViennaRNA/part_func</text>
<text text-anchor="middle" x="302.2168" y="-186.5" font-family="Helvetica,sans-Serif" font-size="10.00" fill="#000000">_window.h</text>
</a>
</g>
</g>
<!-- Node17&#45;&gt;Node45 -->
<g id="edge87" class="edge">
<title>Node17&#45;&gt;Node45</title>
<path fill="none" stroke="#191970" d="M2244.0942,-455.9991C1885.6131,-451.5541 488.1266,-432.8536 448.2168,-411 365.5081,-365.7108 320.8182,-251.0927 306.9672,-209.7031"/>
<polygon fill="#191970" stroke="#191970" points="2244.0998,-459.4994 2254.1423,-456.1234 2244.1864,-452.4999 2244.0998,-459.4994"/>
</g>
<!-- Node51 -->
<g id="node30" class="node">
<title>Node51</title>
<g id="a_node30"><a xlink:href="$subopt_8h.html" xlink:title="RNAsubopt and density of states declarations.">
<polygon fill="none" stroke="#000000" points="818.7168,-118 818.7168,-137 927.7168,-137 927.7168,-118 818.7168,-118"/>
<text text-anchor="middle" x="873.2168" y="-125" font-family="Helvetica,sans-Serif" font-size="10.00" fill="#000000">ViennaRNA/subopt.h</text>
</a>
</g>
</g>
<!-- Node17&#45;&gt;Node51 -->
<g id="edge91" class="edge">
<title>Node17&#45;&gt;Node51</title>
<path fill="none" stroke="#191970" d="M2243.9535,-455.3043C1895.9943,-447.6802 576.2168,-413.1813 576.2168,-328.5 576.2168,-328.5 576.2168,-328.5 576.2168,-261.5 576.2168,-199.3171 633.2723,-206.1466 689.2168,-179 702.5347,-172.5376 786.7374,-150.049 836.4989,-137.0251"/>
<polygon fill="#191970" stroke="#191970" points="2244.134,-458.809 2254.2077,-455.5274 2244.2863,-451.8106 2244.134,-458.809"/>
</g>
<!-- Node52 -->
<g id="node31" class="node">
<title>Node52</title>
<g id="a_node31"><a xlink:href="$params_2basic_8h.html" xlink:title="Functions to deal with sets of energy parameters.">
<polygon fill="none" stroke="#ff0000" points="1715.2168,-185 1715.2168,-204 1853.2168,-204 1853.2168,-185 1715.2168,-185"/>
<text text-anchor="middle" x="1784.2168" y="-192" font-family="Helvetica,sans-Serif" font-size="10.00" fill="#000000">ViennaRNA/params/basic.h</text>
</a>
</g>
</g>
<!-- Node17&#45;&gt;Node52 -->
<g id="edge93" class="edge">
<title>Node17&#45;&gt;Node52</title>
<path fill="none" stroke="#191970" d="M2244.0712,-454.945C2144.4211,-451.146 1984.7448,-440.489 1934.2168,-411 1846.4134,-359.7566 1792.8499,-238.7902 1784.4405,-204.0075"/>
<polygon fill="#191970" stroke="#191970" points="2243.9976,-458.4445 2254.1189,-455.3126 2244.2536,-451.4492 2243.9976,-458.4445"/>
</g>
<!-- Node55 -->
<g id="node32" class="node">
<title>Node55</title>
<g id="a_node32"><a xlink:href="$external_8h.html" xlink:title="Energy evaluation of exterior loops for MFE and partition function calculations.">
<polygon fill="none" stroke="#ff0000" points="1494.2168,-118 1494.2168,-137 1634.2168,-137 1634.2168,-118 1494.2168,-118"/>
<text text-anchor="middle" x="1564.2168" y="-125" font-family="Helvetica,sans-Serif" font-size="10.00" fill="#000000">ViennaRNA/loops/external.h</text>
</a>
</g>
</g>
<!-- Node17&#45;&gt;Node55 -->
<g id="edge94" class="edge">
<title>Node17&#45;&gt;Node55</title>
<path fill="none" stroke="#191970" d="M2243.8623,-454.0408C2137.6283,-449.2353 1960.6278,-437.4611 1901.2168,-411 1760.0464,-348.124 1764.5848,-273.385 1642.2168,-179 1621.6584,-163.1429 1596.3292,-146.99 1580.2234,-137.1052"/>
<polygon fill="#191970" stroke="#191970" points="2243.7712,-457.54 2253.9158,-454.4843 2244.0798,-450.5468 2243.7712,-457.54"/>
</g>
<!-- Node59 -->
<g id="node33" class="node">
<title>Node59</title>
<g id="a_node33"><a xlink:href="$hairpin_8h.html" xlink:title="Energy evaluation of hairpin loops for MFE and partition function calculations.">
<polygon fill="none" stroke="#ff0000" points="1804.2168,-118 1804.2168,-137 1938.2168,-137 1938.2168,-118 1804.2168,-118"/>
<text text-anchor="middle" x="1871.2168" y="-125" font-family="Helvetica,sans-Serif" font-size="10.00" fill="#000000">ViennaRNA/loops/hairpin.h</text>
</a>
</g>
</g>
<!-- Node17&#45;&gt;Node59 -->
<g id="edge95" class="edge">
<title>Node17&#45;&gt;Node59</title>
<path fill="none" stroke="#191970" d="M2248.5397,-445.896C2139.904,-428.3161 1957.2168,-389.6605 1957.2168,-328.5 1957.2168,-328.5 1957.2168,-328.5 1957.2168,-261.5 1957.2168,-207.3199 1906.8051,-157.5547 1883.1747,-137.2035"/>
<polygon fill="#191970" stroke="#191970" points="2248.0636,-449.3643 2258.4897,-447.4809 2249.1648,-442.4514 2248.0636,-449.3643"/>
</g>
<!-- Node61 -->
<g id="node34" class="node">
<title>Node61</title>
<g id="a_node34"><a xlink:href="$internal_8h.html" xlink:title="Energy evaluation of interior loops for MFE and partition function calculations.">
<polygon fill="none" stroke="#ff0000" points="2512.7168,-118 2512.7168,-137 2649.7168,-137 2649.7168,-118 2512.7168,-118"/>
<text text-anchor="middle" x="2581.2168" y="-125" font-family="Helvetica,sans-Serif" font-size="10.00" fill="#000000">ViennaRNA/loops/internal.h</text>
</a>
</g>
</g>
<!-- Node17&#45;&gt;Node61 -->
<g id="edge96" class="edge">
<title>Node17&#45;&gt;Node61</title>
<path fill="none" stroke="#191970" d="M2403.4617,-445.6616C2447.0358,-437.7512 2496.1329,-425.9422 2512.2168,-411 2594.6049,-334.4598 2585.9901,-177.473 2582.2485,-137.1235"/>
<polygon fill="#191970" stroke="#191970" points="2402.6367,-442.253 2393.3978,-447.4388 2403.8541,-449.1464 2402.6367,-442.253"/>
</g>
<!-- Node63 -->
<g id="node35" class="node">
<title>Node63</title>
<g id="a_node35"><a xlink:href="$multibranch_8h.html" xlink:title="Energy evaluation of multibranch loops for MFE and partition function calculations.">
<polygon fill="none" stroke="#ff0000" points="1956.2168,-118 1956.2168,-137 2112.2168,-137 2112.2168,-118 1956.2168,-118"/>
<text text-anchor="middle" x="2034.2168" y="-125" font-family="Helvetica,sans-Serif" font-size="10.00" fill="#000000">ViennaRNA/loops/multibranch.h</text>
</a>
</g>
</g>
<!-- Node17&#45;&gt;Node63 -->
<g id="edge97" class="edge">
<title>Node17&#45;&gt;Node63</title>
<path fill="none" stroke="#191970" d="M2344.959,-440.1658C2392.1857,-393.3913 2512.5716,-259.9796 2440.2168,-179 2392.6851,-125.8025 2191.8137,-153.2616 2121.2168,-143 2109.3744,-141.2787 2096.6719,-139.1673 2084.7328,-137.0635"/>
<polygon fill="#191970" stroke="#191970" points="2342.2679,-437.9011 2337.5486,-447.3869 2347.1533,-442.9145 2342.2679,-437.9011"/>
</g>
<!-- Node65 -->
<g id="node36" class="node">
<title>Node65</title>
<g id="a_node36"><a xlink:href="$ligand_8h.html" xlink:title="Functions for incorporation of ligands binding to hairpin and interior loop motifs using the soft con...">
<polygon fill="none" stroke="#ff0000" points="2312.7168,-179.5 2312.7168,-209.5 2431.7168,-209.5 2431.7168,-179.5 2312.7168,-179.5"/>
<text text-anchor="start" x="2320.7168" y="-197.5" font-family="Helvetica,sans-Serif" font-size="10.00" fill="#000000">ViennaRNA/constraints</text>
<text text-anchor="middle" x="2372.2168" y="-186.5" font-family="Helvetica,sans-Serif" font-size="10.00" fill="#000000">/ligand.h</text>
</a>
</g>
</g>
<!-- Node17&#45;&gt;Node65 -->
<g id="edge105" class="edge">
<title>Node17&#45;&gt;Node65</title>
<path fill="none" stroke="#191970" d="M2338.5172,-438.2698C2342.8912,-430.1598 2347.4921,-420.3882 2350.2168,-411 2371.4875,-337.7078 2372.888,-245.2827 2372.5324,-209.552"/>
<polygon fill="#191970" stroke="#191970" points="2335.3391,-436.7781 2333.4358,-447.2006 2341.4232,-440.2399 2335.3391,-436.7781"/>
</g>
<!-- Node68 -->
<g id="node37" class="node">
<title>Node68</title>
<g id="a_node37"><a xlink:href="$soft_8h.html" xlink:title="Functions and data structures for secondary structure soft constraints.">
<polygon fill="none" stroke="#ff0000" points="2175.7168,-179.5 2175.7168,-209.5 2294.7168,-209.5 2294.7168,-179.5 2175.7168,-179.5"/>
<text text-anchor="start" x="2183.7168" y="-197.5" font-family="Helvetica,sans-Serif" font-size="10.00" fill="#000000">ViennaRNA/constraints</text>
<text text-anchor="middle" x="2235.2168" y="-186.5" font-family="Helvetica,sans-Serif" font-size="10.00" fill="#000000">/soft.h</text>
</a>
</g>
</g>
<!-- Node17&#45;&gt;Node68 -->
<g id="edge107" class="edge">
<title>Node17&#45;&gt;Node68</title>
<path fill="none" stroke="#191970" d="M2316.8813,-438.0845C2295.3194,-388.4422 2248.71,-255.1465 2237.205,-209.8267"/>
<polygon fill="#191970" stroke="#191970" points="2313.7634,-439.6839 2321.0805,-447.3462 2320.1387,-436.7933 2313.7634,-439.6839"/>
</g>
<!-- Node85 -->
<g id="node38" class="node">
<title>Node85</title>
<g id="a_node38"><a xlink:href="$grammar_8h.html" xlink:title="Implementations for the RNA folding grammar.">
<polygon fill="none" stroke="#000000" points="1568.7168,-386 1568.7168,-405 1685.7168,-405 1685.7168,-386 1568.7168,-386"/>
<text text-anchor="middle" x="1627.2168" y="-393" font-family="Helvetica,sans-Serif" font-size="10.00" fill="#000000">ViennaRNA/grammar.h</text>
</a>
</g>
</g>
<!-- Node17&#45;&gt;Node85 -->
<g id="edge80" class="edge">
<title>Node17&#45;&gt;Node85</title>
<path fill="none" stroke="#191970" d="M2244.1284,-454.7095C2122.1561,-450.4314 1888.0264,-438.9813 1691.2168,-411 1680.442,-409.4681 1668.8785,-407.2727 1658.522,-405.0141"/>
<polygon fill="#191970" stroke="#191970" points="2244.0317,-458.2081 2254.146,-455.0535 2244.272,-451.2123 2244.0317,-458.2081"/>
</g>
<!-- Node86 -->
<g id="node39" class="node">
<title>Node86</title>
<g id="a_node39"><a xlink:href="$mfe__window_8h.html" xlink:title="Compute local Minimum Free Energy (MFE) using a sliding window approach and backtrace corresponding s...">
<polygon fill="none" stroke="#ff0000" points="3093.2168,-386 3093.2168,-405 3227.2168,-405 3227.2168,-386 3093.2168,-386"/>
<text text-anchor="middle" x="3160.2168" y="-393" font-family="Helvetica,sans-Serif" font-size="10.00" fill="#000000">ViennaRNA/mfe_window.h</text>
</a>
</g>
</g>
<!-- Node17&#45;&gt;Node86 -->
<g id="edge84" class="edge">
<title>Node17&#45;&gt;Node86</title>
<path fill="none" stroke="#191970" d="M2410.5656,-455.7569C2550.39,-452.8179 2840.8154,-443.0544 3084.2168,-411 3095.5649,-409.5055 3107.7558,-407.2947 3118.9787,-405.0079"/>
<polygon fill="#191970" stroke="#191970" points="2410.2809,-452.2619 2400.3543,-455.965 2410.4236,-459.2605 2410.2809,-452.2619"/>
</g>
<!-- Node88 -->
<g id="node40" class="node">
<title>Node88</title>
<g id="a_node40"><a xlink:href="$mm_8h.html" xlink:title="Several Maximum Matching implementations.">
<polygon fill="none" stroke="#000000" points="3245.2168,-386 3245.2168,-405 3341.2168,-405 3341.2168,-386 3245.2168,-386"/>
<text text-anchor="middle" x="3293.2168" y="-393" font-family="Helvetica,sans-Serif" font-size="10.00" fill="#000000">ViennaRNA/mm.h</text>
</a>
</g>
</g>
<!-- Node17&#45;&gt;Node88 -->
<g id="edge85" class="edge">
<title>Node17&#45;&gt;Node88</title>
<path fill="none" stroke="#191970" d="M2410.4227,-455.0767C2603.7162,-450.2381 3078.6028,-436.1181 3236.2168,-411 3245.0276,-409.5959 3254.433,-407.3559 3263.0112,-405.0105"/>
<polygon fill="#191970" stroke="#191970" points="2410.2309,-451.5802 2400.3209,-455.3275 2410.4048,-458.5781 2410.2309,-451.5802"/>
</g>
<!-- Node89 -->
<g id="node41" class="node">
<title>Node89</title>
<g id="a_node41"><a xlink:href="$perturbation__fold_8h.html" xlink:title="Find a vector of perturbation energies that minimizes the discripancies between predicted and observe...">
<polygon fill="none" stroke="#000000" points="3359.2168,-380.5 3359.2168,-410.5 3481.2168,-410.5 3481.2168,-380.5 3359.2168,-380.5"/>
<text text-anchor="start" x="3367.2168" y="-398.5" font-family="Helvetica,sans-Serif" font-size="10.00" fill="#000000">ViennaRNA/perturbation</text>
<text text-anchor="middle" x="3420.2168" y="-387.5" font-family="Helvetica,sans-Serif" font-size="10.00" fill="#000000">_fold.h</text>
</a>
</g>
</g>
<!-- Node17&#45;&gt;Node89 -->
<g id="edge88" class="edge">
<title>Node17&#45;&gt;Node89</title>
<path fill="none" stroke="#191970" d="M2410.5217,-455.1133C2620.8301,-450.0512 3169.3279,-434.911 3350.2168,-411 3353.0549,-410.6248 3355.9481,-410.192 3358.8636,-409.7148"/>
<polygon fill="#191970" stroke="#191970" points="2410.3775,-451.6156 2400.4641,-455.3539 2410.545,-458.6136 2410.3775,-451.6156"/>
</g>
<!-- Node90 -->
<g id="node42" class="node">
<title>Node90</title>
<g id="a_node42"><a xlink:href="$sequence_8h.html" xlink:title="Functions and data structures related to sequence representations ,.">
<polygon fill="none" stroke="#000000" points="3499.2168,-386 3499.2168,-405 3621.2168,-405 3621.2168,-386 3499.2168,-386"/>
<text text-anchor="middle" x="3560.2168" y="-393" font-family="Helvetica,sans-Serif" font-size="10.00" fill="#000000">ViennaRNA/sequence.h</text>
</a>
</g>
</g>
<!-- Node17&#45;&gt;Node90 -->
<g id="edge89" class="edge">
<title>Node17&#45;&gt;Node90</title>
<path fill="none" stroke="#191970" d="M2410.6503,-455.559C2639.5028,-451.3941 3273.4927,-437.8874 3481.2168,-411 3491.9562,-409.6099 3503.4807,-407.3745 3514.3696,-405.0289"/>
<polygon fill="#191970" stroke="#191970" points="2410.3235,-452.0642 2400.3884,-455.7444 2410.4501,-459.0631 2410.3235,-452.0642"/>
</g>
<!-- Node91 -->
<g id="node43" class="node">
<title>Node91</title>
<g id="a_node43"><a xlink:href="$constraints_2basic_8h.html" xlink:title="Functions and data structures for constraining secondary structure predictions and evaluation.">
<polygon fill="none" stroke="#ff0000" points="2170.7168,-380.5 2170.7168,-410.5 2289.7168,-410.5 2289.7168,-380.5 2170.7168,-380.5"/>
<text text-anchor="start" x="2178.7168" y="-398.5" font-family="Helvetica,sans-Serif" font-size="10.00" fill="#000000">ViennaRNA/constraints</text>
<text text-anchor="middle" x="2230.2168" y="-387.5" font-family="Helvetica,sans-Serif" font-size="10.00" fill="#000000">/basic.h</text>
</a>
</g>
</g>
<!-- Node17&#45;&gt;Node91 -->
<g id="edge98" class="edge">
<title>Node17&#45;&gt;Node91</title>
<path fill="none" stroke="#191970" d="M2303.3287,-441.8545C2288.2894,-432.3193 2268.9544,-420.0605 2253.9456,-410.5446"/>
<polygon fill="#191970" stroke="#191970" points="2301.7408,-444.9919 2312.0605,-447.3906 2305.4891,-439.08 2301.7408,-444.9919"/>
</g>
<!-- Node92 -->
<g id="node44" class="node">
<title>Node92</title>
<g id="a_node44"><a xlink:href="$hard_8h.html" xlink:title="Functions and data structures for handling of secondary structure hard constraints.">
<polygon fill="none" stroke="#ff0000" points="2073.7168,-313.5 2073.7168,-343.5 2192.7168,-343.5 2192.7168,-313.5 2073.7168,-313.5"/>
<text text-anchor="start" x="2081.7168" y="-331.5" font-family="Helvetica,sans-Serif" font-size="10.00" fill="#000000">ViennaRNA/constraints</text>
<text text-anchor="middle" x="2133.2168" y="-320.5" font-family="Helvetica,sans-Serif" font-size="10.00" fill="#000000">/hard.h</text>
</a>
</g>
</g>
<!-- Node17&#45;&gt;Node92 -->
<g id="edge104" class="edge">
<title>Node17&#45;&gt;Node92</title>
<path fill="none" stroke="#191970" d="M2255.0029,-445.5438C2213.6127,-437.2553 2167.1097,-425.0692 2152.2168,-411 2133.3054,-393.1346 2127.1665,-362.034 2127.9037,-343.5478"/>
<polygon fill="#191970" stroke="#191970" points="2254.3551,-448.9833 2264.84,-447.461 2255.6942,-442.1126 2254.3551,-448.9833"/>
</g>
<!-- Node94 -->
<g id="node45" class="node">
<title>Node94</title>
<g id="a_node45"><a xlink:href="$SHAPE_8h.html" xlink:title="This module provides function to incorporate SHAPE reactivity data into the folding recursions by mea...">
<polygon fill="none" stroke="#ff0000" points="3639.7168,-380.5 3639.7168,-410.5 3758.7168,-410.5 3758.7168,-380.5 3639.7168,-380.5"/>
<text text-anchor="start" x="3647.7168" y="-398.5" font-family="Helvetica,sans-Serif" font-size="10.00" fill="#000000">ViennaRNA/constraints</text>
<text text-anchor="middle" x="3699.2168" y="-387.5" font-family="Helvetica,sans-Serif" font-size="10.00" fill="#000000">/SHAPE.h</text>
</a>
</g>
</g>
<!-- Node17&#45;&gt;Node94 -->
<g id="edge106" class="edge">
<title>Node17&#45;&gt;Node94</title>
<path fill="none" stroke="#191970" d="M2410.3202,-456.0836C2658.6925,-453.0253 3392.87,-441.5785 3630.2168,-411 3633.261,-410.6078 3636.3687,-410.1444 3639.4985,-409.6274"/>
<polygon fill="#191970" stroke="#191970" points="2410.2311,-452.5843 2400.2745,-456.206 2410.3164,-459.5838 2410.2311,-452.5843"/>
</g>
<!-- Node96 -->
<g id="node46" class="node">
<title>Node96</title>
<g id="a_node46"><a xlink:href="$landscape_2findpath_8h.html" xlink:title="A breadth&#45;first search heuristic for optimal direct folding paths.">
<polygon fill="none" stroke="#ff0000" points="3772.2168,-313.5 3772.2168,-343.5 3888.2168,-343.5 3888.2168,-313.5 3772.2168,-313.5"/>
<text text-anchor="start" x="3780.2168" y="-331.5" font-family="Helvetica,sans-Serif" font-size="10.00" fill="#000000">ViennaRNA/landscape</text>
<text text-anchor="middle" x="3830.2168" y="-320.5" font-family="Helvetica,sans-Serif" font-size="10.00" fill="#000000">/findpath.h</text>
</a>
</g>
</g>
<!-- Node17&#45;&gt;Node96 -->
<g id="edge108" class="edge">
<title>Node17&#45;&gt;Node96</title>
<path fill="none" stroke="#191970" d="M2410.8379,-456.3048C2709.1693,-453.5688 3706.7379,-442.124 3767.2168,-411 3795.2589,-396.5688 3814.4021,-363.3155 3823.7088,-343.7171"/>
<polygon fill="#191970" stroke="#191970" points="2410.4907,-452.8077 2400.523,-456.3985 2410.5544,-459.8075 2410.4907,-452.8077"/>
</g>
<!-- Node98 -->
<g id="node47" class="node">
<title>Node98</title>
<g id="a_node47"><a xlink:href="$landscape_2neighbor_8h.html" xlink:title="Methods to compute the neighbors of an RNA secondary structure.">
<polygon fill="none" stroke="#ff0000" points="3949.2168,-380.5 3949.2168,-410.5 4065.2168,-410.5 4065.2168,-380.5 3949.2168,-380.5"/>
<text text-anchor="start" x="3957.2168" y="-398.5" font-family="Helvetica,sans-Serif" font-size="10.00" fill="#000000">ViennaRNA/landscape</text>
<text text-anchor="middle" x="4007.2168" y="-387.5" font-family="Helvetica,sans-Serif" font-size="10.00" fill="#000000">/neighbor.h</text>
</a>
</g>
</g>
<!-- Node17&#45;&gt;Node98 -->
<g id="edge109" class="edge">
<title>Node17&#45;&gt;Node98</title>
<path fill="none" stroke="#191970" d="M2410.7536,-456.8101C2697.4265,-455.8152 3640.0179,-449.6145 3940.2168,-411 3943.0587,-410.6344 3945.9567,-410.2012 3948.8752,-409.7162"/>
<polygon fill="#191970" stroke="#191970" points="2410.4167,-453.3111 2400.4285,-456.8446 2410.4402,-460.3111 2410.4167,-453.3111"/>
</g>
<!-- Node101 -->
<g id="node48" class="node">
<title>Node101</title>
<g id="a_node48"><a xlink:href="$paths_8h.html" xlink:title="API for computing (optimal) (re&#45;)folding paths between secondary structures.">
<polygon fill="none" stroke="#000000" points="3815.2168,-380.5 3815.2168,-410.5 3931.2168,-410.5 3931.2168,-380.5 3815.2168,-380.5"/>
<text text-anchor="start" x="3823.2168" y="-398.5" font-family="Helvetica,sans-Serif" font-size="10.00" fill="#000000">ViennaRNA/landscape</text>
<text text-anchor="middle" x="3873.2168" y="-387.5" font-family="Helvetica,sans-Serif" font-size="10.00" fill="#000000">/paths.h</text>
</a>
</g>
</g>
<!-- Node17&#45;&gt;Node101 -->
<g id="edge110" class="edge">
<title>Node17&#45;&gt;Node101</title>
<path fill="none" stroke="#191970" d="M2410.3374,-456.3835C2680.0306,-454.0723 3528.9796,-444.2736 3801.2168,-411 3805.7859,-410.4416 3810.4937,-409.7337 3815.211,-408.9294"/>
<polygon fill="#191970" stroke="#191970" points="2410.1936,-452.8845 2400.2236,-456.469 2410.2528,-459.8842 2410.1936,-452.8845"/>
</g>
<!-- Node102 -->
<g id="node49" class="node">
<title>Node102</title>
<g id="a_node49"><a xlink:href="$landscape_2walk_8h.html" xlink:title="Methods to generate particular paths such as gradient or random walks through the energy landscape of...">
<polygon fill="none" stroke="#ff0000" points="4083.2168,-380.5 4083.2168,-410.5 4199.2168,-410.5 4199.2168,-380.5 4083.2168,-380.5"/>
<text text-anchor="start" x="4091.2168" y="-398.5" font-family="Helvetica,sans-Serif" font-size="10.00" fill="#000000">ViennaRNA/landscape</text>
<text text-anchor="middle" x="4141.2168" y="-387.5" font-family="Helvetica,sans-Serif" font-size="10.00" fill="#000000">/walk.h</text>
</a>
</g>
</g>
<!-- Node17&#45;&gt;Node102 -->
<g id="edge112" class="edge">
<title>Node17&#45;&gt;Node102</title>
<path fill="none" stroke="#191970" d="M2410.5607,-455.7905C2735.6284,-450.9382 3908.556,-432.1249 4074.2168,-411 4077.0591,-410.6375 4079.9574,-410.2068 4082.8762,-409.7238"/>
<polygon fill="#191970" stroke="#191970" points="2410.2202,-452.2951 2400.2734,-455.9436 2410.3244,-459.2943 2410.2202,-452.2951"/>
</g>
<!-- Node103 -->
<g id="node50" class="node">
<title>Node103</title>
<g id="a_node50"><a xlink:href="$utils_2alignments_8h.html" xlink:title="Various utility&#45; and helper&#45;functions for sequence alignments and comparative structure prediction.">
<polygon fill="none" stroke="#ff0000" points="3822.2168,-252 3822.2168,-271 3970.2168,-271 3970.2168,-252 3822.2168,-252"/>
<text text-anchor="middle" x="3896.2168" y="-259" font-family="Helvetica,sans-Serif" font-size="10.00" fill="#000000">ViennaRNA/utils/alignments.h</text>
</a>
</g>
</g>
<!-- Node17&#45;&gt;Node103 -->
<g id="edge113" class="edge">
<title>Node17&#45;&gt;Node103</title>
<path fill="none" stroke="#191970" d="M2410.5311,-456.5333C2770.6025,-454.3218 4176.3955,-443.6089 4208.2168,-411 4286.3473,-330.9354 4085.6461,-288.2388 3970.4796,-270.916"/>
<polygon fill="#191970" stroke="#191970" points="2410.4175,-453.0338 2400.439,-456.5947 2410.4602,-460.0337 2410.4175,-453.0338"/>
</g>
<!-- Node23 -->
<g id="node7" class="node">
<title>Node23</title>
<g id="a_node7"><a xlink:href="$alifold_8h.html" xlink:title="Functions for comparative structure prediction using RNA sequence alignments.">
<polygon fill="none" stroke="#000000" points="2193.7168,-.5 2193.7168,-19.5 2298.7168,-19.5 2298.7168,-.5 2193.7168,-.5"/>
<text text-anchor="middle" x="2246.2168" y="-7.5" font-family="Helvetica,sans-Serif" font-size="10.00" fill="#000000">ViennaRNA/alifold.h</text>
</a>
</g>
</g>
<!-- Node22&#45;&gt;Node23 -->
<g id="edge6" class="edge">
<title>Node22&#45;&gt;Node23</title>
<path fill="none" stroke="#191970" d="M2785.8658,-104.2768C2772.8368,-87.7674 2753.0366,-66.6967 2730.2168,-56 2654.841,-20.6677 2408.2782,-12.4737 2299.0796,-10.5735"/>
<polygon fill="#191970" stroke="#191970" points="2783.2086,-106.5652 2792.042,-112.4152 2788.7847,-102.3335 2783.2086,-106.5652"/>
</g>
<!-- Node22&#45;&gt;Node24 -->
<g id="edge7" class="edge">
<title>Node22&#45;&gt;Node24</title>
<path fill="none" stroke="#191970" d="M2734.1064,-118.9436C2710.1541,-116.2598 2683.0276,-113.5866 2658.2168,-112 2215.5116,-83.6898 785.2004,-69.3502 474.2428,-66.5247"/>
<polygon fill="#191970" stroke="#191970" points="2733.8288,-122.4346 2744.1613,-120.0913 2734.6227,-115.4797 2733.8288,-122.4346"/>
</g>
<!-- Node24&#45;&gt;Node23 -->
<g id="edge8" class="edge">
<title>Node24&#45;&gt;Node23</title>
<path fill="none" stroke="#191970" d="M484.6084,-63.8483C782.0937,-54.7549 1932.8579,-19.5787 2193.5178,-11.6109"/>
<polygon fill="#191970" stroke="#191970" points="484.2771,-60.3567 474.3887,-64.1607 484.491,-67.3534 484.2771,-60.3567"/>
</g>
<!-- Node25 -->
<g id="node9" class="node">
<title>Node25</title>
<g id="a_node9"><a xlink:href="$part__func__co_8h.html" xlink:title="Partition function for two RNA sequences.">
<polygon fill="none" stroke="#000000" points="293.2168,-.5 293.2168,-19.5 429.2168,-19.5 429.2168,-.5 293.2168,-.5"/>
<text text-anchor="middle" x="361.2168" y="-7.5" font-family="Helvetica,sans-Serif" font-size="10.00" fill="#000000">ViennaRNA/part_func_co.h</text>
</a>
</g>
</g>
<!-- Node24&#45;&gt;Node25 -->
<g id="edge9" class="edge">
<title>Node24&#45;&gt;Node25</title>
<path fill="none" stroke="#191970" d="M397.9272,-48.7884C388.8605,-39.2085 377.9114,-27.6396 370.3429,-19.6427"/>
<polygon fill="#191970" stroke="#191970" points="395.569,-51.3884 404.9849,-56.2455 400.653,-46.5767 395.569,-51.3884"/>
</g>
<!-- Node26&#45;&gt;Node24 -->
<g id="edge11" class="edge">
<title>Node26&#45;&gt;Node24</title>
<path fill="none" stroke="#191970" d="M186.6882,-182.7983C255.6123,-167.7055 366.7497,-143.3333 367.2168,-143 391.313,-125.8083 405.4474,-92.0317 411.1954,-75.5293"/>
<polygon fill="#191970" stroke="#191970" points="185.8635,-179.3958 176.8436,-184.9538 187.3608,-186.2339 185.8635,-179.3958"/>
</g>
<!-- Node29&#45;&gt;Node17 -->
<g id="edge15" class="edge">
<title>Node29&#45;&gt;Node17</title>
<path fill="none" stroke="#191970" d="M1538.6663,-347.959C1542.7539,-367.3173 1548.8259,-396.2065 1568.2168,-411 1595.3631,-431.7103 2069.22,-448.6865 2254.1869,-454.6786"/>
<polygon fill="#191970" stroke="#191970" points="1542.0579,-347.0867 1536.4658,-338.0879 1535.2256,-348.6099 1542.0579,-347.0867"/>
</g>
<!-- Node29&#45;&gt;Node30 -->
<g id="edge16" class="edge">
<title>Node29&#45;&gt;Node30</title>
<path fill="none" stroke="#191970" d="M1525.002,-308.7758C1524.1547,-298.4641 1524.3134,-286.0437 1525.478,-276.5218"/>
<polygon fill="#191970" stroke="#191970" points="1521.558,-309.4343 1526.3162,-318.9005 1528.4998,-308.5332 1521.558,-309.4343"/>
</g>
<!-- Node30&#45;&gt;Node16 -->
<g id="edge47" class="edge">
<title>Node30&#45;&gt;Node16</title>
<path fill="none" stroke="#191970" d="M1503.0418,-282.8234C1430.7823,-333.4169 1240.3858,-459.7363 1170.3749,-503.383"/>
<polygon fill="#191970" stroke="#191970" points="1505.4884,-285.3811 1511.6465,-276.7597 1501.4561,-279.6591 1505.4884,-285.3811"/>
</g>
<!-- Node30&#45;&gt;Node18 -->
<g id="edge17" class="edge">
<title>Node30&#45;&gt;Node18</title>
<path fill="none" stroke="#191970" d="M1608.5954,-255.8381C1720.1373,-247.162 1920.382,-229.5187 1990.2168,-210 2021.8164,-201.1679 2025.9496,-188.9453 2057.2168,-179 2141.2018,-152.2863 2166.0233,-161.3792 2252.2168,-143 2260.7143,-141.1881 2269.807,-139.0859 2278.3927,-137.0254"/>
<polygon fill="#191970" stroke="#191970" points="1608.1157,-252.3647 1598.4149,-256.6243 1608.6547,-259.3439 1608.1157,-252.3647"/>
</g>
<!-- Node30&#45;&gt;Node19 -->
<g id="edge18" class="edge">
<title>Node30&#45;&gt;Node19</title>
<path fill="none" stroke="#191970" d="M1608.5166,-256.5145C1689.9279,-250.1193 1821.4246,-236.5278 1932.2168,-210 1972.1364,-200.4418 1980.2509,-191.9074 2019.2168,-179 2065.9854,-163.5079 2120.6064,-147.0663 2154.5591,-137.0388"/>
<polygon fill="#191970" stroke="#191970" points="1608.0534,-253.0397 1598.3511,-257.2961 1608.59,-260.0191 1608.0534,-253.0397"/>
</g>
<!-- Node30&#45;&gt;Node23 -->
<g id="edge20" class="edge">
<title>Node30&#45;&gt;Node23</title>
<path fill="none" stroke="#191970" d="M1547.0917,-237.3184C1556.2391,-220.0838 1563.9905,-196.8941 1553.2168,-179 1535.5781,-149.7039 1502.8554,-172.2961 1485.2168,-143 1478.1101,-131.1965 1479.7256,-124.6363 1485.2168,-112 1499.7546,-78.5453 1511.7373,-70.4807 1545.2168,-56 1604.1606,-30.5052 2040.6356,-15.8238 2193.5108,-11.4203"/>
<polygon fill="#191970" stroke="#191970" points="1543.9296,-235.796 1541.9749,-246.209 1549.9966,-239.2877 1543.9296,-235.796"/>
</g>
<!-- Node30&#45;&gt;Node24 -->
<g id="edge40" class="edge">
<title>Node30&#45;&gt;Node24</title>
<path fill="none" stroke="#191970" d="M1453.9685,-259.1743C1241.5748,-252.5214 658.9872,-232.4421 575.2168,-210 511.6665,-192.9748 487.1228,-191.9975 443.2168,-143 425.4854,-123.2125 418.2111,-91.531 415.5586,-75.6846"/>
<polygon fill="#191970" stroke="#191970" points="1453.9977,-262.6768 1464.102,-259.4903 1454.216,-255.6802 1453.9977,-262.6768"/>
</g>
<!-- Node30&#45;&gt;Node25 -->
<g id="edge41" class="edge">
<title>Node30&#45;&gt;Node25</title>
<path fill="none" stroke="#191970" d="M1453.5086,-260.2162C1154.2106,-255.0903 91.4936,-235.1458 67.2168,-210 -21.0031,-118.6222 222.4933,-44.9368 321.4836,-19.5303"/>
<polygon fill="#191970" stroke="#191970" points="1453.7723,-263.7211 1463.8306,-260.3922 1453.8917,-256.7221 1453.7723,-263.7211"/>
</g>
<!-- Node30&#45;&gt;Node26 -->
<g id="edge21" class="edge">
<title>Node30&#45;&gt;Node26</title>
<path fill="none" stroke="#191970" d="M1453.9349,-259.5234C1212.7005,-253.18 475.5418,-232.436 237.2168,-210 221.6775,-208.5371 204.9172,-206.3224 189.4849,-204.0213"/>
<polygon fill="#191970" stroke="#191970" points="1453.9317,-263.0244 1464.02,-259.7878 1454.1152,-256.0268 1453.9317,-263.0244"/>
</g>
<!-- Node30&#45;&gt;Node29 -->
<g id="edge24" class="edge">
<title>Node30&#45;&gt;Node29</title>
<path fill="none" stroke="#191970" d="M1537.7795,-286.7085C1538.2966,-297.9451 1537.7426,-310.5099 1536.1174,-318.9005"/>
<polygon fill="#191970" stroke="#191970" points="1541.2505,-286.207 1536.9555,-276.5218 1534.2733,-286.7714 1541.2505,-286.207"/>
</g>
<!-- Node31 -->
<g id="node15" class="node">
<title>Node31</title>
<g id="a_node15"><a xlink:href="$ali__plex_8h_source.html" xlink:title=" ">
<polygon fill="none" stroke="#000000" points="718.7168,-185 718.7168,-204 831.7168,-204 831.7168,-185 718.7168,-185"/>
<text text-anchor="middle" x="775.2168" y="-192" font-family="Helvetica,sans-Serif" font-size="10.00" fill="#000000">ViennaRNA/ali_plex.h</text>
</a>
</g>
</g>
<!-- Node30&#45;&gt;Node31 -->
<g id="edge19" class="edge">
<title>Node30&#45;&gt;Node31</title>
<path fill="none" stroke="#191970" d="M1453.9952,-259.7624C1325.801,-255.981 1061.2718,-244.3687 840.2168,-210 830.5875,-208.5029 820.2791,-206.3194 810.7741,-204.0612"/>
<polygon fill="#191970" stroke="#191970" points="1454.0103,-263.2642 1464.1066,-260.0527 1454.2112,-256.2671 1454.0103,-263.2642"/>
</g>
<!-- Node32 -->
<g id="node16" class="node">
<title>Node32</title>
<g id="a_node16"><a xlink:href="$cofold_8h.html" xlink:title="MFE implementations for RNA&#45;RNA interaction.">
<polygon fill="none" stroke="#000000" points="2388.2168,-118 2388.2168,-137 2494.2168,-137 2494.2168,-118 2388.2168,-118"/>
<text text-anchor="middle" x="2441.2168" y="-125" font-family="Helvetica,sans-Serif" font-size="10.00" fill="#000000">ViennaRNA/cofold.h</text>
</a>
</g>
</g>
<!-- Node30&#45;&gt;Node32 -->
<g id="edge22" class="edge">
<title>Node30&#45;&gt;Node32</title>
<path fill="none" stroke="#191970" d="M1608.4421,-257.3937C1729.9546,-250.3042 1960.0056,-234.1656 2038.2168,-210 2065.7691,-201.4869 2067.7723,-187.8549 2095.2168,-179 2216.3025,-139.932 2254.1681,-166.4706 2379.2168,-143 2388.0496,-141.3421 2397.4999,-139.1817 2406.2927,-137.0026"/>
<polygon fill="#191970" stroke="#191970" points="1608.2388,-253.8995 1598.4571,-257.9702 1608.6423,-260.8879 1608.2388,-253.8995"/>
</g>
<!-- Node33 -->
<g id="node17" class="node">
<title>Node33</title>
<g id="a_node17"><a xlink:href="$data__structures_8h.html" xlink:title="Use ViennaRNA/datastructures/basic.h instead.">
<polygon fill="none" stroke="#000000" points="849.7168,-185 849.7168,-204 996.7168,-204 996.7168,-185 849.7168,-185"/>
<text text-anchor="middle" x="923.2168" y="-192" font-family="Helvetica,sans-Serif" font-size="10.00" fill="#000000">ViennaRNA/data_structures.h</text>
</a>
</g>
</g>
<!-- Node30&#45;&gt;Node33 -->
<g id="edge23" class="edge">
<title>Node30&#45;&gt;Node33</title>
<path fill="none" stroke="#191970" d="M1453.587,-256.0039C1350.9073,-248.2503 1164.4453,-232.4918 1006.2168,-210 994.6064,-208.3496 982.1471,-206.2171 970.5032,-204.0648"/>
<polygon fill="#191970" stroke="#191970" points="1453.6315,-259.517 1463.8652,-256.7744 1454.1548,-252.5366 1453.6315,-259.517"/>
</g>
<!-- Node34 -->
<g id="node18" class="node">
<title>Node34</title>
<g id="a_node18"><a xlink:href="$duplex_8h.html" xlink:title="Functions for simple RNA&#45;RNA duplex interactions.">
<polygon fill="none" stroke="#000000" points="1015.2168,-185 1015.2168,-204 1123.2168,-204 1123.2168,-185 1015.2168,-185"/>
<text text-anchor="middle" x="1069.2168" y="-192" font-family="Helvetica,sans-Serif" font-size="10.00" fill="#000000">ViennaRNA/duplex.h</text>
</a>
</g>
</g>
<!-- Node30&#45;&gt;Node34 -->
<g id="edge25" class="edge">
<title>Node30&#45;&gt;Node34</title>
<path fill="none" stroke="#191970" d="M1454.0669,-254.1519C1373.4008,-245.86 1243.3221,-230.7694 1132.2168,-210 1123.3593,-208.3442 1113.8854,-206.2096 1105.0453,-204.0572"/>
<polygon fill="#191970" stroke="#191970" points="1453.8373,-257.6465 1464.1406,-255.1784 1454.547,-250.6826 1453.8373,-257.6465"/>
</g>
<!-- Node30&#45;&gt;Node35 -->
<g id="edge26" class="edge">
<title>Node30&#45;&gt;Node35</title>
<path fill="none" stroke="#191970" d="M1453.8601,-260.5597C1216.3466,-257.3097 507.745,-244.7779 410.2168,-210 407.5947,-209.065 350.4911,-166.1677 319.2383,-142.6115"/>
<polygon fill="#191970" stroke="#191970" points="1454.0905,-264.063 1464.1369,-260.6985 1454.1852,-257.0637 1454.0905,-264.063"/>
</g>
<!-- Node30&#45;&gt;Node36 -->
<g id="edge29" class="edge">
<title>Node30&#45;&gt;Node36</title>
<path fill="none" stroke="#191970" d="M1453.9298,-259.0549C1252.3019,-252.3872 720.6132,-232.8507 644.2168,-210 591.2195,-194.1482 536.8546,-155.307 513.3065,-137.1499"/>
<polygon fill="#191970" stroke="#191970" points="1454.0338,-262.5601 1464.1435,-259.3909 1454.264,-255.5639 1454.0338,-262.5601"/>
</g>
<!-- Node37 -->
<g id="node21" class="node">
<title>Node37</title>
<g id="a_node21"><a xlink:href="$fold_8h.html" xlink:title="MFE calculations for single RNA sequences.">
<polygon fill="none" stroke="#000000" points="1554.7168,-56.5 1554.7168,-75.5 1649.7168,-75.5 1649.7168,-56.5 1554.7168,-56.5"/>
<text text-anchor="middle" x="1602.2168" y="-63.5" font-family="Helvetica,sans-Serif" font-size="10.00" fill="#000000">ViennaRNA/fold.h</text>
</a>
</g>
</g>
<!-- Node30&#45;&gt;Node37 -->
<g id="edge31" class="edge">
<title>Node30&#45;&gt;Node37</title>
<path fill="none" stroke="#191970" d="M1547.0917,-237.3184C1556.2391,-220.0838 1563.9905,-196.8941 1553.2168,-179 1535.5781,-149.7039 1502.8554,-172.2961 1485.2168,-143 1478.1101,-131.1965 1477.4589,-123.3861 1485.2168,-112 1494.6491,-98.1565 1534.8351,-84.3759 1565.5033,-75.56"/>
<polygon fill="#191970" stroke="#191970" points="1543.9296,-235.796 1541.9749,-246.209 1549.9966,-239.2877 1543.9296,-235.796"/>
</g>
<!-- Node38 -->
<g id="node22" class="node">
<title>Node38</title>
<g id="a_node22"><a xlink:href="$fold__vars_8h.html" xlink:title="Here all all declarations of the global variables used throughout RNAlib.">
<polygon fill="none" stroke="#ff0000" points="1141.7168,-185 1141.7168,-204 1260.7168,-204 1260.7168,-185 1141.7168,-185"/>
<text text-anchor="middle" x="1201.2168" y="-192" font-family="Helvetica,sans-Serif" font-size="10.00" fill="#000000">ViennaRNA/fold_vars.h</text>
</a>
</g>
</g>
<!-- Node30&#45;&gt;Node38 -->
<g id="edge32" class="edge">
<title>Node30&#45;&gt;Node38</title>
<path fill="none" stroke="#191970" d="M1454.2387,-246.8592C1402.2064,-236.8283 1331.9895,-223.0304 1270.2168,-210 1261.3269,-208.1248 1251.811,-206.0385 1242.7739,-204.0199"/>
<polygon fill="#191970" stroke="#191970" points="1453.584,-250.2973 1464.0653,-248.7505 1454.907,-243.4235 1453.584,-250.2973"/>
</g>
<!-- Node30&#45;&gt;Node40 -->
<g id="edge33" class="edge">
<title>Node30&#45;&gt;Node40</title>
<path fill="none" stroke="#191970" d="M1454.0761,-259.6151C1250.9742,-254.2785 715.2132,-237.6351 689.2168,-210 666.7836,-186.1528 708.0718,-153.1241 731.9584,-137.0521"/>
<polygon fill="#191970" stroke="#191970" points="1453.986,-263.1138 1464.0738,-259.8757 1454.1684,-256.1162 1453.986,-263.1138"/>
</g>
<!-- Node41 -->
<g id="node24" class="node">
<title>Node41</title>
<g id="a_node24"><a xlink:href="$LPfold_8h.html" xlink:title="Partition function and equilibrium probability implementation for the sliding window algorithm.">
<polygon fill="none" stroke="#000000" points="568.2168,-118 568.2168,-137 676.2168,-137 676.2168,-118 568.2168,-118"/>
<text text-anchor="middle" x="622.2168" y="-125" font-family="Helvetica,sans-Serif" font-size="10.00" fill="#000000">ViennaRNA/LPfold.h</text>
</a>
</g>
</g>
<!-- Node30&#45;&gt;Node41 -->
<g id="edge34" class="edge">
<title>Node30&#45;&gt;Node41</title>
<path fill="none" stroke="#191970" d="M1453.8453,-260.66C1256.5781,-257.9797 745.6792,-247.4635 679.2168,-210 649.9471,-193.5013 632.4133,-154.9886 625.5559,-137.0324"/>
<polygon fill="#191970" stroke="#191970" points="1454.083,-264.1633 1464.1286,-260.7964 1454.176,-257.164 1454.083,-264.1633"/>
</g>
<!-- Node42 -->
<g id="node25" class="node">
<title>Node42</title>
<g id="a_node25"><a xlink:href="$MEA_8h.html" xlink:title="Computes a MEA (maximum expected accuracy) structure.">
<polygon fill="none" stroke="#000000" points="1126.2168,-118 1126.2168,-137 1228.2168,-137 1228.2168,-118 1126.2168,-118"/>
<text text-anchor="middle" x="1177.2168" y="-125" font-family="Helvetica,sans-Serif" font-size="10.00" fill="#000000">ViennaRNA/MEA.h</text>
</a>
</g>
</g>
<!-- Node30&#45;&gt;Node42 -->
<g id="edge35" class="edge">
<title>Node30&#45;&gt;Node42</title>
<path fill="none" stroke="#191970" d="M1453.8363,-259.4884C1254.0099,-253.9186 734.4903,-236.9065 709.2168,-210 699.7839,-199.9577 700.0226,-189.2614 709.2168,-179 723.0068,-163.6092 1007.1152,-140.3927 1125.8106,-131.3221"/>
<polygon fill="#191970" stroke="#191970" points="1453.8722,-262.9906 1463.9652,-259.7685 1454.0658,-255.9933 1453.8722,-262.9906"/>
</g>
<!-- Node30&#45;&gt;Node43 -->
<g id="edge36" class="edge">
<title>Node30&#45;&gt;Node43</title>
<path fill="none" stroke="#191970" d="M1608.253,-257.5804C1764.959,-249.5089 2132.1122,-230.097 2440.2168,-210 2495.6663,-206.3831 2559.3027,-201.5969 2601.856,-198.3051"/>
<polygon fill="#191970" stroke="#191970" points="1608.0453,-254.0864 1598.2383,-258.0955 1608.4049,-261.0771 1608.0453,-254.0864"/>
</g>
<!-- Node44 -->
<g id="node27" class="node">
<title>Node44</title>
<g id="a_node27"><a xlink:href="$part__func__up_8h.html" xlink:title="Implementations for accessibility and RNA&#45;RNA interaction as a stepwise process.">
<polygon fill="none" stroke="#000000" points="1279.2168,-185 1279.2168,-204 1415.2168,-204 1415.2168,-185 1279.2168,-185"/>
<text text-anchor="middle" x="1347.2168" y="-192" font-family="Helvetica,sans-Serif" font-size="10.00" fill="#000000">ViennaRNA/part_func_up.h</text>
</a>
</g>
</g>
<!-- Node30&#45;&gt;Node44 -->
<g id="edge42" class="edge">
<title>Node30&#45;&gt;Node44</title>
<path fill="none" stroke="#191970" d="M1480.4117,-243.0003C1445.681,-230.3538 1401.0796,-214.1131 1373.3208,-204.0053"/>
<polygon fill="#191970" stroke="#191970" points="1479.3296,-246.3311 1489.9236,-246.4639 1481.7247,-239.7535 1479.3296,-246.3311"/>
</g>
<!-- Node30&#45;&gt;Node45 -->
<g id="edge43" class="edge">
<title>Node30&#45;&gt;Node45</title>
<path fill="none" stroke="#191970" d="M1453.9652,-259.8172C1229.8801,-254.6579 582.2756,-237.7102 372.2168,-210 367.6509,-209.3977 362.9426,-208.6457 358.2284,-207.7999"/>
<polygon fill="#191970" stroke="#191970" points="1453.9166,-263.3169 1463.9941,-260.0467 1454.0768,-256.3187 1453.9166,-263.3169"/>
</g>
<!-- Node46 -->
<g id="node29" class="node">
<title>Node46</title>
<g id="a_node29"><a xlink:href="$PKplex_8h_source.html" xlink:title=" ">
<polygon fill="none" stroke="#000000" points="1433.7168,-185 1433.7168,-204 1544.7168,-204 1544.7168,-185 1433.7168,-185"/>
<text text-anchor="middle" x="1489.2168" y="-192" font-family="Helvetica,sans-Serif" font-size="10.00" fill="#000000">ViennaRNA/PKplex.h</text>
</a>
</g>
</g>
<!-- Node30&#45;&gt;Node46 -->
<g id="edge45" class="edge">
<title>Node30&#45;&gt;Node46</title>
<path fill="none" stroke="#191970" d="M1516.172,-237.5001C1508.9289,-225.9456 1500.6554,-212.7473 1495.2064,-204.055"/>
<polygon fill="#191970" stroke="#191970" points="1513.4094,-239.6828 1521.6863,-246.2967 1519.3404,-235.9648 1513.4094,-239.6828"/>
</g>
<!-- Node30&#45;&gt;Node51 -->
<g id="edge46" class="edge">
<title>Node30&#45;&gt;Node51</title>
<path fill="none" stroke="#191970" d="M1453.9757,-259.5531C1252.5195,-254.1009 724.8524,-237.2715 699.2168,-210 689.7801,-199.9612 690.972,-190.0386 699.2168,-179 703.4467,-173.3367 787.2905,-150.2957 837.0226,-137.0309"/>
<polygon fill="#191970" stroke="#191970" points="1454.0933,-263.0574 1464.1836,-259.8271 1454.2812,-256.0599 1454.0933,-263.0574"/>
</g>
<!-- Node30&#45;&gt;Node52 -->
<g id="edge48" class="edge">
<title>Node30&#45;&gt;Node52</title>
<path fill="none" stroke="#191970" d="M1591.9993,-243.806C1638.9144,-231.0507 1702.4405,-214.3291 1743.4414,-204.0053"/>
<polygon fill="#191970" stroke="#191970" points="1590.981,-240.4558 1582.2544,-246.4639 1592.823,-247.2091 1590.981,-240.4558"/>
</g>
<!-- Node30&#45;&gt;Node55 -->
<g id="edge68" class="edge">
<title>Node30&#45;&gt;Node55</title>
<path fill="none" stroke="#191970" d="M1589.6642,-241.7814C1603.735,-234.1303 1617.048,-223.7899 1625.2168,-210 1632.2388,-198.146 1631.0206,-191.4957 1625.2168,-179 1616.5175,-160.2705 1597.2803,-145.8972 1582.719,-137.1539"/>
<polygon fill="#191970" stroke="#191970" points="1587.7376,-238.8313 1580.3546,-246.4302 1590.8649,-245.0939 1587.7376,-238.8313"/>
</g>
<!-- Node30&#45;&gt;Node59 -->
<g id="edge69" class="edge">
<title>Node30&#45;&gt;Node59</title>
<path fill="none" stroke="#191970" d="M1608.694,-254.3917C1700.9755,-245.172 1844.9132,-228.1128 1862.2168,-210 1881.1266,-190.2058 1876.9247,-154.3491 1873.5012,-137.1762"/>
<polygon fill="#191970" stroke="#191970" points="1608.1502,-250.9283 1598.543,-255.3952 1608.8389,-257.8944 1608.1502,-250.9283"/>
</g>
<!-- Node30&#45;&gt;Node61 -->
<g id="edge70" class="edge">
<title>Node30&#45;&gt;Node61</title>
<path fill="none" stroke="#191970" d="M1608.5584,-258.4642C1738.6479,-252.6578 1995.4457,-237.9936 2081.2168,-210 2106.7952,-201.6518 2107.6535,-187.3946 2133.2168,-179 2290.1907,-127.4523 2339.7675,-167.131 2503.2168,-143 2514.2801,-141.3667 2526.1512,-139.2152 2537.2113,-137.0369"/>
<polygon fill="#191970" stroke="#191970" points="1608.1107,-254.9805 1598.2741,-258.9166 1608.4183,-261.9737 1608.1107,-254.9805"/>
</g>
<!-- Node30&#45;&gt;Node63 -->
<g id="edge71" class="edge">
<title>Node30&#45;&gt;Node63</title>
<path fill="none" stroke="#191970" d="M1608.7882,-258.0336C1681.351,-252.9657 1791.9366,-240.5189 1883.2168,-210 1937.3295,-191.9078 1994.7509,-154.8884 2020.4217,-137.2559"/>
<polygon fill="#191970" stroke="#191970" points="1608.1097,-254.571 1598.365,-258.7291 1608.5758,-261.5555 1608.1097,-254.571"/>
</g>
<!-- Node30&#45;&gt;Node65 -->
<g id="edge72" class="edge">
<title>Node30&#45;&gt;Node65</title>
<path fill="none" stroke="#191970" d="M1608.6098,-260.2821C1748.131,-257.2114 2050.8001,-246.5473 2303.2168,-210 2306.2545,-209.5602 2309.357,-209.0584 2312.4826,-208.511"/>
<polygon fill="#191970" stroke="#191970" points="1608.3682,-256.7864 1598.4451,-260.4987 1608.5174,-263.7848 1608.3682,-256.7864"/>
</g>
<!-- Node30&#45;&gt;Node68 -->
<g id="edge73" class="edge">
<title>Node30&#45;&gt;Node68</title>
<path fill="none" stroke="#191970" d="M1608.6513,-255.5791C1720.4525,-247.135 1933.2827,-230.3767 2114.2168,-210 2134.1133,-207.7593 2155.9351,-204.8434 2175.5586,-202.1462"/>
<polygon fill="#191970" stroke="#191970" points="1608.1886,-252.104 1598.4799,-256.3455 1608.7146,-259.0842 1608.1886,-252.104"/>
</g>
<!-- Node35&#45;&gt;Node24 -->
<g id="edge27" class="edge">
<title>Node35&#45;&gt;Node24</title>
<path fill="none" stroke="#191970" d="M336.2884,-107.6747C356.426,-96.9055 380.4059,-84.0814 396.3958,-75.5303"/>
<polygon fill="#191970" stroke="#191970" points="334.5166,-104.6531 327.3489,-112.4554 337.8177,-110.8259 334.5166,-104.6531"/>
</g>
<!-- Node35&#45;&gt;Node25 -->
<g id="edge28" class="edge">
<title>Node35&#45;&gt;Node25</title>
<path fill="none" stroke="#191970" d="M312.1681,-102.9552C325.8294,-77.0648 346.6665,-37.5751 356.1726,-19.5595"/>
<polygon fill="#191970" stroke="#191970" points="308.8935,-101.6612 307.3222,-112.1389 315.0845,-104.928 308.8935,-101.6612"/>
</g>
<!-- Node36&#45;&gt;Node37 -->
<g id="edge30" class="edge">
<title>Node36&#45;&gt;Node37</title>
<path fill="none" stroke="#191970" d="M542.0543,-115.404C547.7766,-114.0564 553.6152,-112.8615 559.2168,-112 755.0456,-81.881 1377.0808,-69.6566 1554.5362,-66.7292"/>
<polygon fill="#191970" stroke="#191970" points="540.7938,-112.1125 531.9561,-117.9559 542.5089,-118.8991 540.7938,-112.1125"/>
</g>
<!-- Node43&#45;&gt;Node23 -->
<g id="edge37" class="edge">
<title>Node43&#45;&gt;Node23</title>
<path fill="none" stroke="#191970" d="M2665.0479,-176.4065C2677.8721,-158.4428 2692.1842,-130.923 2677.2168,-112 2630.5286,-52.9731 2403.2403,-24.5777 2298.8411,-14.4815"/>
<polygon fill="#191970" stroke="#191970" points="2661.9071,-174.7546 2658.6402,-184.8332 2667.4791,-178.9916 2661.9071,-174.7546"/>
</g>
<!-- Node43&#45;&gt;Node32 -->
<g id="edge38" class="edge">
<title>Node43&#45;&gt;Node32</title>
<path fill="none" stroke="#191970" d="M2610.6973,-181.8311C2570.0922,-168.8141 2507.7845,-148.8399 2471.1058,-137.0817"/>
<polygon fill="#191970" stroke="#191970" points="2609.681,-185.1807 2620.2722,-184.9005 2611.818,-178.5148 2609.681,-185.1807"/>
</g>
<!-- Node43&#45;&gt;Node37 -->
<g id="edge39" class="edge">
<title>Node43&#45;&gt;Node37</title>
<path fill="none" stroke="#191970" d="M2659.4209,-175.5222C2667.0057,-156.8095 2674.1702,-128.6635 2658.2168,-112 2622.9215,-75.1338 1851.2712,-67.6028 1649.9203,-66.2631"/>
<polygon fill="#191970" stroke="#191970" points="2656.1548,-174.2539 2655.308,-184.8149 2662.5559,-177.087 2656.1548,-174.2539"/>
</g>
<!-- Node45&#45;&gt;Node41 -->
<g id="edge44" class="edge">
<title>Node45&#45;&gt;Node41</title>
<path fill="none" stroke="#191970" d="M368.3587,-182.0657C420.3634,-172.0915 494.5747,-157.4216 559.2168,-143 567.4618,-141.1605 576.2831,-139.0685 584.6353,-137.0298"/>
<polygon fill="#191970" stroke="#191970" points="367.4278,-178.6803 358.2633,-183.9965 368.7428,-185.5556 367.4278,-178.6803"/>
</g>
<!-- Node52&#45;&gt;Node17 -->
<g id="edge56" class="edge">
<title>Node52&#45;&gt;Node17</title>
<path fill="none" stroke="#191970" d="M1796.0915,-212.8397C1818.7703,-255.9095 1870.7586,-363.4597 1952.2168,-411 2002.3055,-440.2326 2159.6528,-450.9592 2253.9275,-454.8443"/>
<polygon fill="#191970" stroke="#191970" points="1799.1545,-211.1456 1791.3252,-204.0075 1792.9942,-214.47 1799.1545,-211.1456"/>
</g>
<!-- Node52&#45;&gt;Node18 -->
<g id="edge49" class="edge">
<title>Node52&#45;&gt;Node18</title>
<path fill="none" stroke="#191970" d="M1863.8262,-188.8618C1957.3054,-181.5215 2116.8002,-166.7483 2252.2168,-143 2261.4504,-141.3807 2271.3351,-139.2084 2280.5064,-137.0036"/>
<polygon fill="#191970" stroke="#191970" points="1863.2954,-185.3924 1853.5964,-189.656 1863.8373,-192.3714 1863.2954,-185.3924"/>
</g>
<!-- Node52&#45;&gt;Node19 -->
<g id="edge50" class="edge">
<title>Node52&#45;&gt;Node19</title>
<path fill="none" stroke="#191970" d="M1863.5089,-184.185C1931.9943,-174.8463 2033.4744,-159.9799 2121.2168,-143 2130.2302,-141.2557 2139.8781,-139.1354 2148.9372,-137.0302"/>
<polygon fill="#191970" stroke="#191970" points="1862.668,-180.767 1853.229,-185.5791 1863.6087,-187.7035 1862.668,-180.767"/>
</g>
<!-- Node52&#45;&gt;Node23 -->
<g id="edge51" class="edge">
<title>Node52&#45;&gt;Node23</title>
<path fill="none" stroke="#191970" d="M1781.0502,-174.9257C1779.2338,-156.3585 1779.8063,-128.8616 1795.2168,-112 1848.4934,-53.7066 2086.273,-24.7675 2193.4851,-14.4945"/>
<polygon fill="#191970" stroke="#191970" points="1777.5885,-175.4482 1782.34,-184.9178 1784.5309,-174.552 1777.5885,-175.4482"/>
</g>
<!-- Node52&#45;&gt;Node24 -->
<g id="edge60" class="edge">
<title>Node52&#45;&gt;Node24</title>
<path fill="none" stroke="#191970" d="M1749.3124,-181.112C1727.4032,-171.9366 1699.0733,-158.6222 1676.2168,-143 1659.6035,-131.645 1661.7842,-119.7581 1643.2168,-112 1588.8539,-89.2854 714.399,-71.5404 474.613,-67.0843"/>
<polygon fill="#191970" stroke="#191970" points="1747.9981,-184.3558 1758.5786,-184.9075 1750.6515,-177.8782 1747.9981,-184.3558"/>
</g>
<!-- Node52&#45;&gt;Node25 -->
<g id="edge61" class="edge">
<title>Node52&#45;&gt;Node25</title>
<path fill="none" stroke="#191970" d="M1773.992,-175.4856C1755.6812,-143.7085 1713.9373,-80.8508 1658.2168,-56 1601.7566,-30.8193 688.5984,-15.0016 429.3533,-11.003"/>
<polygon fill="#191970" stroke="#191970" points="1771.1661,-177.6033 1779.1016,-184.6231 1777.2757,-174.1868 1771.1661,-177.6033"/>
</g>
<!-- Node52&#45;&gt;Node30 -->
<g id="edge67" class="edge">
<title>Node52&#45;&gt;Node30</title>
<path fill="none" stroke="#191970" d="M1743.4067,-206.7254C1702.9119,-217.9052 1640.4612,-234.4776 1593.7354,-246.4639"/>
<polygon fill="#191970" stroke="#191970" points="1744.5064,-210.0525 1753.2059,-204.0053 1742.6341,-203.3075 1744.5064,-210.0525"/>
</g>
<!-- Node52&#45;&gt;Node32 -->
<g id="edge52" class="edge">
<title>Node52&#45;&gt;Node32</title>
<path fill="none" stroke="#191970" d="M1863.3732,-189.2157C2001.7455,-179.7164 2282.1294,-159.2322 2379.2168,-143 2388.4091,-141.4631 2398.2443,-139.266 2407.3107,-137.0074"/>
<polygon fill="#191970" stroke="#191970" points="1862.9944,-185.7334 1853.2568,-189.908 1863.4724,-192.717 1862.9944,-185.7334"/>
</g>
<!-- Node52&#45;&gt;Node35 -->
<g id="edge53" class="edge">
<title>Node52&#45;&gt;Node35</title>
<path fill="none" stroke="#191970" d="M1704.8313,-188.4929C1660.2858,-185.2931 1603.6819,-181.5107 1553.2168,-179 1060.2338,-154.4736 935.6068,-177.4364 443.2168,-143 415.2491,-141.044 384.3269,-137.8515 358.3294,-134.8707"/>
<polygon fill="#191970" stroke="#191970" points="1704.7863,-191.9987 1715.0127,-189.2292 1705.2912,-185.017 1704.7863,-191.9987"/>
</g>
<!-- Node52&#45;&gt;Node36 -->
<g id="edge54" class="edge">
<title>Node52&#45;&gt;Node36</title>
<path fill="none" stroke="#191970" d="M1704.8275,-188.567C1660.2809,-185.3902 1603.677,-181.6061 1553.2168,-179 1111.7377,-156.1993 996.4077,-208.4804 559.2168,-143 550.1459,-141.6414 540.4577,-139.3853 531.6485,-137.0093"/>
<polygon fill="#191970" stroke="#191970" points="1704.7844,-192.0729 1715.0093,-189.2975 1705.2854,-185.0908 1704.7844,-192.0729"/>
</g>
<!-- Node52&#45;&gt;Node37 -->
<g id="edge55" class="edge">
<title>Node52&#45;&gt;Node37</title>
<path fill="none" stroke="#191970" d="M1764.5307,-178.5478C1743.2018,-161.4828 1707.9586,-133.9143 1676.2168,-112 1656.9215,-98.6787 1633.8638,-84.6254 1618.6732,-75.61"/>
<polygon fill="#191970" stroke="#191970" points="1762.5218,-181.4236 1772.5087,-184.9609 1766.9075,-175.9678 1762.5218,-181.4236"/>
</g>
<!-- Node52&#45;&gt;Node40 -->
<g id="edge57" class="edge">
<title>Node52&#45;&gt;Node40</title>
<path fill="none" stroke="#191970" d="M1704.8145,-188.8052C1660.2639,-185.7021 1603.6603,-181.9125 1553.2168,-179 1222.7137,-159.9173 1136.7161,-191.3798 809.2168,-143 799.6676,-141.5894 789.4483,-139.3474 780.1171,-137.002"/>
<polygon fill="#191970" stroke="#191970" points="1704.7775,-192.311 1714.9972,-189.5171 1705.2657,-185.3281 1704.7775,-192.311"/>
</g>
<!-- Node52&#45;&gt;Node41 -->
<g id="edge58" class="edge">
<title>Node52&#45;&gt;Node41</title>
<path fill="none" stroke="#191970" d="M1704.8221,-188.67C1660.2738,-185.525 1603.67,-181.7385 1553.2168,-179 1167.6748,-158.0735 1067.4757,-197.3933 685.2168,-143 675.5151,-141.6195 665.1314,-139.3872 655.6498,-137.0414"/>
<polygon fill="#191970" stroke="#191970" points="1704.7816,-192.1758 1715.0042,-189.3924 1705.277,-185.1934 1704.7816,-192.1758"/>
</g>
<!-- Node52&#45;&gt;Node42 -->
<g id="edge59" class="edge">
<title>Node52&#45;&gt;Node42</title>
<path fill="none" stroke="#191970" d="M1705.1746,-185.7754C1578.807,-171.8271 1334.7351,-144.8867 1228.5971,-133.1713"/>
<polygon fill="#191970" stroke="#191970" points="1704.8535,-189.2611 1715.1771,-186.8795 1705.6215,-182.3034 1704.8535,-189.2611"/>
</g>
<!-- Node52&#45;&gt;Node51 -->
<g id="edge62" class="edge">
<title>Node52&#45;&gt;Node51</title>
<path fill="none" stroke="#191970" d="M1704.9965,-188.6737C1523.7093,-175.3408 1082.4148,-142.8856 927.8126,-131.5153"/>
<polygon fill="#191970" stroke="#191970" points="1704.7662,-192.1661 1714.996,-189.4091 1705.2797,-185.185 1704.7662,-192.1661"/>
</g>
<!-- Node52&#45;&gt;Node55 -->
<g id="edge63" class="edge">
<title>Node52&#45;&gt;Node55</title>
<path fill="none" stroke="#191970" d="M1742.8882,-181.9136C1700.1526,-168.8986 1634.3697,-148.8647 1595.6789,-137.0817"/>
<polygon fill="#191970" stroke="#191970" points="1742.1102,-185.3353 1752.6961,-184.9005 1744.1496,-178.6389 1742.1102,-185.3353"/>
</g>
<!-- Node52&#45;&gt;Node59 -->
<g id="edge64" class="edge">
<title>Node52&#45;&gt;Node59</title>
<path fill="none" stroke="#191970" d="M1804.7904,-178.6559C1821.5625,-165.7395 1844.7011,-147.9201 1858.7749,-137.0817"/>
<polygon fill="#191970" stroke="#191970" points="1802.4691,-176.026 1796.6817,-184.9005 1806.7402,-181.572 1802.4691,-176.026"/>
</g>
<!-- Node52&#45;&gt;Node61 -->
<g id="edge65" class="edge">
<title>Node52&#45;&gt;Node61</title>
<path fill="none" stroke="#191970" d="M1863.688,-190.063C2024.0764,-180.9016 2381.5509,-159.3809 2503.2168,-143 2514.5736,-141.4709 2526.7655,-139.304 2538.0571,-137.0736"/>
<polygon fill="#191970" stroke="#191970" points="1863.1978,-186.5851 1853.4131,-190.6484 1863.596,-193.5738 1863.1978,-186.5851"/>
</g>
<!-- Node52&#45;&gt;Node63 -->
<g id="edge66" class="edge">
<title>Node52&#45;&gt;Node63</title>
<path fill="none" stroke="#191970" d="M1829.6801,-182.3158C1878.1617,-169.3228 1953.9475,-149.0122 1998.3812,-137.1039"/>
<polygon fill="#191970" stroke="#191970" points="1828.5233,-179.0023 1819.7702,-184.9717 1830.3354,-185.7637 1828.5233,-179.0023"/>
</g>
<!-- Node68&#45;&gt;Node17 -->
<g id="edge74" class="edge">
<title>Node68&#45;&gt;Node17</title>
<path fill="none" stroke="#191970" d="M2247.9395,-219.0084C2271.4466,-274.9505 2318.3486,-410.087 2326.5861,-447.3462"/>
<polygon fill="#191970" stroke="#191970" points="2251.1515,-217.6179 2243.9718,-209.8267 2244.7258,-220.3947 2251.1515,-217.6179"/>
</g>
<!-- Node68&#45;&gt;Node30 -->
<g id="edge76" class="edge">
<title>Node68&#45;&gt;Node30</title>
<path fill="none" stroke="#191970" d="M2165.562,-205.8861C2154.4421,-207.3613 2143.0444,-208.7806 2132.2168,-210 1939.2269,-231.7344 1709.9486,-249.3522 1598.5304,-257.1549"/>
<polygon fill="#191970" stroke="#191970" points="2166.2305,-209.3276 2175.6716,-204.5197 2165.2929,-202.3907 2166.2305,-209.3276"/>
</g>
<!-- Node68&#45;&gt;Node61 -->
<g id="edge75" class="edge">
<title>Node68&#45;&gt;Node61</title>
<path fill="none" stroke="#191970" d="M2304.8309,-178.7171C2393.396,-160.8585 2417.5958,-159.2117 2503.2168,-143 2513.1195,-141.125 2523.7171,-139.0589 2533.808,-137.0633"/>
<polygon fill="#191970" stroke="#191970" points="2303.9912,-175.3161 2294.8872,-180.7353 2305.3836,-182.1762 2303.9912,-175.3161"/>
</g>
<!-- Node85&#45;&gt;Node17 -->
<g id="edge81" class="edge">
<title>Node85&#45;&gt;Node17</title>
<path fill="none" stroke="#191970" d="M1685.7916,-406.9932C1693.6748,-408.5177 1701.6407,-409.9229 1709.2168,-411 1905.0756,-438.8461 2137.8947,-450.3203 2253.9645,-454.647"/>
<polygon fill="#191970" stroke="#191970" points="1686.378,-403.5413 1675.8861,-405.0141 1685.0065,-410.4056 1686.378,-403.5413"/>
</g>
<!-- Node85&#45;&gt;Node30 -->
<g id="edge82" class="edge">
<title>Node85&#45;&gt;Node30</title>
<path fill="none" stroke="#191970" d="M1626.109,-375.8653C1624.2551,-358.0528 1619.3206,-331.7822 1606.2168,-313 1595.462,-297.5848 1578.4998,-285.3728 1563.4251,-276.717"/>
<polygon fill="#191970" stroke="#191970" points="1622.63,-376.2675 1626.9241,-385.9531 1629.6072,-375.7037 1622.63,-376.2675"/>
</g>
<!-- Node90&#45;&gt;Node17 -->
<g id="edge90" class="edge">
<title>Node90&#45;&gt;Node17</title>
<path fill="none" stroke="#191970" d="M3521.7888,-407.1732C3514.3546,-408.6891 3506.6001,-410.0443 3499.2168,-411 3285.7952,-438.6249 2622.4035,-452.1249 2400.3827,-455.8807"/>
<polygon fill="#191970" stroke="#191970" points="3522.6337,-410.5714 3531.6632,-405.0289 3521.1481,-403.7308 3522.6337,-410.5714"/>
</g>
<!-- Node91&#45;&gt;Node68 -->
<g id="edge103" class="edge">
<title>Node91&#45;&gt;Node68</title>
<path fill="none" stroke="#191970" d="M2230.8424,-370.348C2231.8957,-328.0061 2233.9913,-243.7637 2234.8434,-209.5088"/>
<polygon fill="#191970" stroke="#191970" points="2227.3424,-370.3084 2230.5926,-380.3923 2234.3403,-370.4825 2227.3424,-370.3084"/>
</g>
<!-- Node91&#45;&gt;Node92 -->
<g id="edge99" class="edge">
<title>Node91&#45;&gt;Node92</title>
<path fill="none" stroke="#191970" d="M2199.5921,-374.3469C2185.1589,-364.3776 2168.2701,-352.7121 2155.1405,-343.6432"/>
<polygon fill="#191970" stroke="#191970" points="2197.9888,-377.4932 2208.206,-380.2967 2201.9671,-371.7335 2197.9888,-377.4932"/>
</g>
<!-- Node92&#45;&gt;Node17 -->
<g id="edge100" class="edge">
<title>Node92&#45;&gt;Node17</title>
<path fill="none" stroke="#191970" d="M2142.8689,-353.2943C2147.4605,-371.6565 2154.3341,-395.9959 2170.2168,-411 2186.3037,-426.1971 2239.272,-439.1971 2279.3619,-447.461"/>
<polygon fill="#191970" stroke="#191970" points="2146.2549,-352.4071 2140.4443,-343.5478 2139.4619,-354.0969 2146.2549,-352.4071"/>
</g>
<!-- Node92&#45;&gt;Node30 -->
<g id="edge102" class="edge">
<title>Node92&#45;&gt;Node30</title>
<path fill="none" stroke="#191970" d="M2063.3195,-320.7207C1946.5106,-307.7204 1713.1552,-281.749 1598.2697,-268.9627"/>
<polygon fill="#191970" stroke="#191970" points="2063.2449,-324.234 2073.5708,-321.8617 2064.0193,-317.2769 2063.2449,-324.234"/>
</g>
<!-- Node92&#45;&gt;Node61 -->
<g id="edge101" class="edge">
<title>Node92&#45;&gt;Node61</title>
<path fill="none" stroke="#191970" d="M2130.6848,-303.4587C2128.8078,-269.7359 2131.1866,-210.348 2166.2168,-179 2222.3404,-128.7757 2428.7621,-154.3511 2503.2168,-143 2514.1358,-141.3353 2525.8476,-139.1974 2536.7904,-137.0446"/>
<polygon fill="#191970" stroke="#191970" points="2127.1942,-303.7168 2131.4077,-313.4377 2134.1759,-303.211 2127.1942,-303.7168"/>
</g>
<!-- Node101&#45;&gt;Node96 -->
<g id="edge111" class="edge">
<title>Node101&#45;&gt;Node96</title>
<path fill="none" stroke="#191970" d="M3857.9893,-371.7735C3851.9833,-362.4154 3845.2617,-351.9421 3839.9355,-343.6432"/>
<polygon fill="#191970" stroke="#191970" points="3855.1126,-373.7712 3863.4594,-380.2967 3861.0037,-369.9903 3855.1126,-373.7712"/>
</g>
<!-- Node103&#45;&gt;Node23 -->
<g id="edge114" class="edge">
<title>Node103&#45;&gt;Node23</title>
<path fill="none" stroke="#191970" d="M3841.9074,-249.9137C3678.6921,-215.4784 3177.9425,-112.6374 2758.2168,-56 2591.0551,-33.4434 2391.6478,-19.1203 2298.7205,-13.1681"/>
<polygon fill="#191970" stroke="#191970" points="3841.2039,-253.3423 3851.7115,-251.9857 3842.6513,-246.4936 3841.2039,-253.3423"/>
</g>
</g>
</svg>
