<?xml version="1.0" encoding="UTF-8" standalone="no"?>
<!DOCTYPE svg PUBLIC "-//W3C//DTD SVG 1.1//EN"
 "http://www.w3.org/Graphics/SVG/1.1/DTD/svg11.dtd">
<!-- Generated by graphviz version 2.40.1 (0)
 -->
<!-- Title: ViennaRNA/unstructured_domains.h Pages: 1 -->
<svg width="1295pt" height="352pt"
 viewBox="0.00 0.00 1294.50 352.00" xmlns="http://www.w3.org/2000/svg" xmlns:xlink="http://www.w3.org/1999/xlink">
<g id="graph0" class="graph" transform="scale(1 1) rotate(0) translate(4 348)">
<title>ViennaRNA/unstructured_domains.h</title>
<!-- Node0 -->
<g id="node1" class="node">
<title>Node0</title>
<g id="a_node1"><a xlink:title="Functions to modify unstructured domains, e.g. to incorporate ligands binding to unpaired stretches.">
<polygon fill="#bfbfbf" stroke="#000000" points="649,-313.5 649,-343.5 774,-343.5 774,-313.5 649,-313.5"/>
<text text-anchor="start" x="657" y="-331.5" font-family="Helvetica,sans-Serif" font-size="10.00" fill="#000000">ViennaRNA/unstructured</text>
<text text-anchor="middle" x="711.5" y="-320.5" font-family="Helvetica,sans-Serif" font-size="10.00" fill="#000000">_domains.h</text>
</a>
</g>
</g>
<!-- Node1 -->
<g id="node2" class="node">
<title>Node1</title>
<g id="a_node2"><a xlink:href="$datastructures_2basic_8h.html" xlink:title="Various data structures and pre&#45;processor macros.">
<polygon fill="none" stroke="#000000" points="644.5,-246.5 644.5,-276.5 778.5,-276.5 778.5,-246.5 644.5,-246.5"/>
<text text-anchor="start" x="652.5" y="-264.5" font-family="Helvetica,sans-Serif" font-size="10.00" fill="#000000">ViennaRNA/datastructures</text>
<text text-anchor="middle" x="711.5" y="-253.5" font-family="Helvetica,sans-Serif" font-size="10.00" fill="#000000">/basic.h</text>
</a>
</g>
</g>
<!-- Node0&#45;&gt;Node1 -->
<g id="edge1" class="edge">
<title>Node0&#45;&gt;Node1</title>
<path fill="none" stroke="#191970" d="M705.7392,-313.2967C704.7895,-305.4156 704.5236,-295.5857 704.9416,-286.6135"/>
<polygon fill="#191970" stroke="#191970" points="708.4304,-286.8924 705.7464,-276.6432 701.4531,-286.3291 708.4304,-286.8924"/>
</g>
<!-- Node4 -->
<g id="node5" class="node">
<title>Node4</title>
<g id="a_node5"><a xlink:href="$fold__compound_8h.html" xlink:title="The Basic Fold Compound API.">
<polygon fill="none" stroke="#000000" points="490.5,-190.5 490.5,-209.5 636.5,-209.5 636.5,-190.5 490.5,-190.5"/>
<text text-anchor="middle" x="563.5" y="-197.5" font-family="Helvetica,sans-Serif" font-size="10.00" fill="#000000">ViennaRNA/fold_compound.h</text>
</a>
</g>
</g>
<!-- Node0&#45;&gt;Node4 -->
<g id="edge39" class="edge">
<title>Node0&#45;&gt;Node4</title>
<path fill="none" stroke="#191970" d="M678.3938,-313.3585C661.9006,-303.7339 642.3715,-290.5663 626.5,-277 605.1014,-258.7094 583.4249,-234.6011 571.4813,-218.2689"/>
<polygon fill="#191970" stroke="#191970" points="574.1537,-215.973 565.6495,-209.6541 568.357,-219.8971 574.1537,-215.973"/>
</g>
<!-- Node14 -->
<g id="node15" class="node">
<title>Node14</title>
<g id="a_node15"><a xlink:href="$utils_2structures_8h.html" xlink:title="Various utility&#45; and helper&#45;functions for secondary structure parsing, converting,...">
<polygon fill="none" stroke="#000000" points="1142.5,-190.5 1142.5,-209.5 1286.5,-209.5 1286.5,-190.5 1142.5,-190.5"/>
<text text-anchor="middle" x="1214.5" y="-197.5" font-family="Helvetica,sans-Serif" font-size="10.00" fill="#000000">ViennaRNA/utils/structures.h</text>
</a>
</g>
</g>
<!-- Node0&#45;&gt;Node14 -->
<g id="edge40" class="edge">
<title>Node0&#45;&gt;Node14</title>
<path fill="none" stroke="#191970" d="M770.6796,-313.3816C871.6804,-287.5792 1075.3265,-235.5543 1167.3988,-212.0328"/>
<polygon fill="#191970" stroke="#191970" points="1168.4493,-215.3769 1177.2718,-209.5106 1166.7166,-208.5947 1168.4493,-215.3769"/>
</g>
<!-- Node1&#45;&gt;Node0 -->
<g id="edge35" class="edge">
<title>Node1&#45;&gt;Node0</title>
<path fill="none" stroke="#191970" d="M717.2536,-276.6432C718.2067,-284.5143 718.4761,-294.3414 718.0616,-303.3179"/>
<polygon fill="#191970" stroke="#191970" points="714.572,-303.0487 717.2608,-313.2967 721.5496,-303.6087 714.572,-303.0487"/>
</g>
<!-- Node2 -->
<g id="node3" class="node">
<title>Node2</title>
<g id="a_node3"><a xlink:href="$constants_8h.html" xlink:title="Energy parameter constants.">
<polygon fill="none" stroke="#000000" points="1035.5,-62 1035.5,-81 1193.5,-81 1193.5,-62 1035.5,-62"/>
<text text-anchor="middle" x="1114.5" y="-69" font-family="Helvetica,sans-Serif" font-size="10.00" fill="#000000">ViennaRNA/params/constants.h</text>
</a>
</g>
</g>
<!-- Node1&#45;&gt;Node2 -->
<g id="edge2" class="edge">
<title>Node1&#45;&gt;Node2</title>
<path fill="none" stroke="#191970" d="M778.7328,-256.7514C836.6116,-250.889 921.4616,-237.9974 990.5,-210 1032.0801,-193.1379 1045.0112,-187.8178 1074.5,-154 1090.8639,-135.2339 1102.1643,-108.5995 1108.4796,-90.7186"/>
<polygon fill="#191970" stroke="#191970" points="1111.8452,-91.6901 1111.6955,-81.0963 1105.2062,-89.4712 1111.8452,-91.6901"/>
</g>
<!-- Node1&#45;&gt;Node4 -->
<g id="edge4" class="edge">
<title>Node1&#45;&gt;Node4</title>
<path fill="none" stroke="#191970" d="M675.2951,-246.4554C651.0342,-236.374 619.3644,-223.2139 595.9288,-213.4755"/>
<polygon fill="#191970" stroke="#191970" points="597.0123,-210.1356 586.4347,-209.5303 594.3261,-216.5997 597.0123,-210.1356"/>
</g>
<!-- Node5 -->
<g id="node6" class="node">
<title>Node5</title>
<g id="a_node6"><a xlink:href="$model_8h.html" xlink:title="The model details data structure and its corresponding modifiers.">
<polygon fill="none" stroke="#000000" points="911.5,-62 911.5,-81 1017.5,-81 1017.5,-62 911.5,-62"/>
<text text-anchor="middle" x="964.5" y="-69" font-family="Helvetica,sans-Serif" font-size="10.00" fill="#000000">ViennaRNA/model.h</text>
</a>
</g>
</g>
<!-- Node1&#45;&gt;Node5 -->
<g id="edge28" class="edge">
<title>Node1&#45;&gt;Node5</title>
<path fill="none" stroke="#191970" d="M778.6601,-250.267C869.5595,-233.5375 1024.2556,-199.1408 1057.5,-154 1065.6702,-142.9061 1064.4952,-134.8699 1057.5,-123 1046.8872,-104.9916 1027.462,-92.8374 1009.0991,-84.8823"/>
<polygon fill="#191970" stroke="#191970" points="1010.2301,-81.565 999.6457,-81.0963 1007.6276,-88.0633 1010.2301,-81.565"/>
</g>
<!-- Node6 -->
<g id="node7" class="node">
<title>Node6</title>
<g id="a_node7"><a xlink:href="$params_2basic_8h.html" xlink:title="Functions to deal with sets of energy parameters.">
<polygon fill="none" stroke="#000000" points="910.5,-129 910.5,-148 1048.5,-148 1048.5,-129 910.5,-129"/>
<text text-anchor="middle" x="979.5" y="-136" font-family="Helvetica,sans-Serif" font-size="10.00" fill="#000000">ViennaRNA/params/basic.h</text>
</a>
</g>
</g>
<!-- Node1&#45;&gt;Node6 -->
<g id="edge29" class="edge">
<title>Node1&#45;&gt;Node6</title>
<path fill="none" stroke="#191970" d="M739.7478,-246.4178C789.4722,-222.2615 891.9384,-175.2628 945.4662,-152.0883"/>
<polygon fill="#191970" stroke="#191970" points="947.0614,-155.2124 954.8678,-148.0493 944.2983,-148.7808 947.0614,-155.2124"/>
</g>
<!-- Node8 -->
<g id="node9" class="node">
<title>Node8</title>
<g id="a_node9"><a xlink:href="$dp__matrices_8h.html" xlink:title="Functions to deal with standard dynamic programming (DP) matrices.">
<polygon fill="none" stroke="#000000" points="0,-129 0,-148 133,-148 133,-129 0,-129"/>
<text text-anchor="middle" x="66.5" y="-136" font-family="Helvetica,sans-Serif" font-size="10.00" fill="#000000">ViennaRNA/dp_matrices.h</text>
</a>
</g>
</g>
<!-- Node1&#45;&gt;Node8 -->
<g id="edge30" class="edge">
<title>Node1&#45;&gt;Node8</title>
<path fill="none" stroke="#191970" d="M644.4032,-252.2046C579.9694,-242.4368 480.2577,-226.2592 394.5,-210 293.4705,-190.8454 176.142,-165.1696 112.702,-150.3714"/>
<polygon fill="#191970" stroke="#191970" points="113.1553,-146.8827 102.62,-148.0041 111.5551,-153.6974 113.1553,-146.8827"/>
</g>
<!-- Node9 -->
<g id="node10" class="node">
<title>Node9</title>
<g id="a_node10"><a xlink:href="$hard_8h.html" xlink:title="Functions and data structures for handling of secondary structure hard constraints.">
<polygon fill="none" stroke="#000000" points="151,-123.5 151,-153.5 270,-153.5 270,-123.5 151,-123.5"/>
<text text-anchor="start" x="159" y="-141.5" font-family="Helvetica,sans-Serif" font-size="10.00" fill="#000000">ViennaRNA/constraints</text>
<text text-anchor="middle" x="210.5" y="-130.5" font-family="Helvetica,sans-Serif" font-size="10.00" fill="#000000">/hard.h</text>
</a>
</g>
</g>
<!-- Node1&#45;&gt;Node9 -->
<g id="edge31" class="edge">
<title>Node1&#45;&gt;Node9</title>
<path fill="none" stroke="#191970" d="M644.4169,-247.1774C598.458,-237.194 536.1632,-223.326 481.5,-210 410.6272,-192.7224 329.8236,-171.16 275.0266,-156.2567"/>
<polygon fill="#191970" stroke="#191970" points="275.674,-152.8056 265.1057,-153.5539 273.834,-159.5594 275.674,-152.8056"/>
</g>
<!-- Node11 -->
<g id="node12" class="node">
<title>Node11</title>
<g id="a_node12"><a xlink:href="$soft_8h.html" xlink:title="Functions and data structures for secondary structure soft constraints.">
<polygon fill="none" stroke="#000000" points="640,-123.5 640,-153.5 759,-153.5 759,-123.5 640,-123.5"/>
<text text-anchor="start" x="648" y="-141.5" font-family="Helvetica,sans-Serif" font-size="10.00" fill="#000000">ViennaRNA/constraints</text>
<text text-anchor="middle" x="699.5" y="-130.5" font-family="Helvetica,sans-Serif" font-size="10.00" fill="#000000">/soft.h</text>
</a>
</g>
</g>
<!-- Node1&#45;&gt;Node11 -->
<g id="edge32" class="edge">
<title>Node1&#45;&gt;Node11</title>
<path fill="none" stroke="#191970" d="M705.4143,-246.4178C700.9318,-225.8539 696.9876,-188.7363 696.3905,-163.8546"/>
<polygon fill="#191970" stroke="#191970" points="699.8901,-163.693 696.3544,-153.7056 692.8901,-163.718 699.8901,-163.693"/>
</g>
<!-- Node12 -->
<g id="node13" class="node">
<title>Node12</title>
<g id="a_node13"><a xlink:href="$grammar_8h.html" xlink:title="Implementations for the RNA folding grammar.">
<polygon fill="none" stroke="#000000" points="505,-129 505,-148 622,-148 622,-129 505,-129"/>
<text text-anchor="middle" x="563.5" y="-136" font-family="Helvetica,sans-Serif" font-size="10.00" fill="#000000">ViennaRNA/grammar.h</text>
</a>
</g>
</g>
<!-- Node1&#45;&gt;Node12 -->
<g id="edge33" class="edge">
<title>Node1&#45;&gt;Node12</title>
<path fill="none" stroke="#191970" d="M699.6229,-246.4479C687.1333,-231.177 666.4229,-207.3772 645.5,-190 628.5273,-175.9037 607.4056,-162.7252 590.8498,-153.2284"/>
<polygon fill="#191970" stroke="#191970" points="592.1278,-149.9318 581.6955,-148.0831 588.698,-156.034 592.1278,-149.9318"/>
</g>
<!-- Node13 -->
<g id="node14" class="node">
<title>Node13</title>
<g id="a_node14"><a xlink:href="$structured__domains_8h.html" xlink:title="This module provides interfaces that deal with additional structured domains in the folding grammar.">
<polygon fill="none" stroke="#000000" points="777,-123.5 777,-153.5 892,-153.5 892,-123.5 777,-123.5"/>
<text text-anchor="start" x="785" y="-141.5" font-family="Helvetica,sans-Serif" font-size="10.00" fill="#000000">ViennaRNA/structured</text>
<text text-anchor="middle" x="834.5" y="-130.5" font-family="Helvetica,sans-Serif" font-size="10.00" fill="#000000">_domains.h</text>
</a>
</g>
</g>
<!-- Node1&#45;&gt;Node13 -->
<g id="edge34" class="edge">
<title>Node1&#45;&gt;Node13</title>
<path fill="none" stroke="#191970" d="M726.5822,-246.4178C747.9761,-225.0239 787.2867,-185.7133 812.0963,-160.9037"/>
<polygon fill="#191970" stroke="#191970" points="814.6982,-163.2516 819.2944,-153.7056 809.7484,-158.3018 814.6982,-163.2516"/>
</g>
<!-- Node1&#45;&gt;Node14 -->
<g id="edge36" class="edge">
<title>Node1&#45;&gt;Node14</title>
<path fill="none" stroke="#191970" d="M778.667,-252.6885C870.1345,-241.209 1033.5969,-221.2178 1132.2795,-209.438"/>
<polygon fill="#191970" stroke="#191970" points="1132.6966,-212.9131 1142.212,-208.254 1131.868,-205.9623 1132.6966,-212.9131"/>
</g>
<!-- Node3 -->
<g id="node4" class="node">
<title>Node3</title>
<g id="a_node4"><a xlink:title=" ">
<polygon fill="none" stroke="#bfbfbf" points="1090.5,-.5 1090.5,-19.5 1138.5,-19.5 1138.5,-.5 1090.5,-.5"/>
<text text-anchor="middle" x="1114.5" y="-7.5" font-family="Helvetica,sans-Serif" font-size="10.00" fill="#000000">limits.h</text>
</a>
</g>
</g>
<!-- Node2&#45;&gt;Node3 -->
<g id="edge3" class="edge">
<title>Node2&#45;&gt;Node3</title>
<path fill="none" stroke="#191970" d="M1114.5,-61.8906C1114.5,-53.3657 1114.5,-40.6392 1114.5,-29.9235"/>
<polygon fill="#191970" stroke="#191970" points="1118.0001,-29.7448 1114.5,-19.7449 1111.0001,-29.7449 1118.0001,-29.7448"/>
</g>
<!-- Node4&#45;&gt;Node0 -->
<g id="edge27" class="edge">
<title>Node4&#45;&gt;Node0</title>
<path fill="none" stroke="#191970" d="M576.966,-209.6541C592.9056,-224.914 618.9017,-255.1197 644.5,-277 657.3956,-288.0226 672.7058,-298.782 685.5466,-307.5917"/>
<polygon fill="#191970" stroke="#191970" points="683.7514,-310.6041 693.9819,-313.3585 687.702,-304.8254 683.7514,-310.6041"/>
</g>
<!-- Node4&#45;&gt;Node5 -->
<g id="edge5" class="edge">
<title>Node4&#45;&gt;Node5</title>
<path fill="none" stroke="#191970" d="M538.6745,-190.4395C523.2121,-183.0336 504.5888,-171.1213 495.5,-154 489.0399,-141.8306 486.3047,-133.2603 495.5,-123 522.0935,-93.3265 779.2079,-79.0089 901.0541,-73.8467"/>
<polygon fill="#191970" stroke="#191970" points="901.5082,-77.331 911.3542,-73.4186 901.2174,-70.337 901.5082,-77.331"/>
</g>
<!-- Node4&#45;&gt;Node6 -->
<g id="edge6" class="edge">
<title>Node4&#45;&gt;Node6</title>
<path fill="none" stroke="#191970" d="M635.8596,-190.4683C702.4352,-181.9521 803.6875,-168.595 891.5,-154 898.9647,-152.7593 906.8055,-151.3501 914.6144,-149.8992"/>
<polygon fill="#191970" stroke="#191970" points="915.277,-153.3361 924.4581,-148.0487 913.9836,-146.4566 915.277,-153.3361"/>
</g>
<!-- Node7 -->
<g id="node8" class="node">
<title>Node7</title>
<g id="a_node8"><a xlink:href="$sequence_8h.html" xlink:title="Functions and data structures related to sequence representations ,.">
<polygon fill="none" stroke="#000000" points="288.5,-129 288.5,-148 410.5,-148 410.5,-129 288.5,-129"/>
<text text-anchor="middle" x="349.5" y="-136" font-family="Helvetica,sans-Serif" font-size="10.00" fill="#000000">ViennaRNA/sequence.h</text>
</a>
</g>
</g>
<!-- Node4&#45;&gt;Node7 -->
<g id="edge11" class="edge">
<title>Node4&#45;&gt;Node7</title>
<path fill="none" stroke="#191970" d="M525,-190.3906C486.0251,-179.7846 426.3241,-162.6753 387.5246,-151.0257"/>
<polygon fill="#191970" stroke="#191970" points="388.2384,-147.5851 377.6534,-148.0419 386.213,-154.2857 388.2384,-147.5851"/>
</g>
<!-- Node4&#45;&gt;Node8 -->
<g id="edge13" class="edge">
<title>Node4&#45;&gt;Node8</title>
<path fill="none" stroke="#191970" d="M490.4345,-194.6994C404.3143,-187.6236 257.3533,-173.6606 132.5,-154 125.2762,-152.8625 117.6946,-151.4983 110.3315,-150.0573"/>
<polygon fill="#191970" stroke="#191970" points="110.9768,-146.617 100.4806,-148.0589 109.5851,-153.4773 110.9768,-146.617"/>
</g>
<!-- Node4&#45;&gt;Node9 -->
<g id="edge16" class="edge">
<title>Node4&#45;&gt;Node9</title>
<path fill="none" stroke="#191970" d="M490.4671,-190.4782C433.4639,-182.239 352.2616,-169.5232 277.922,-155.4122"/>
<polygon fill="#191970" stroke="#191970" points="278.4331,-151.9465 267.9532,-153.5033 277.1166,-158.8216 278.4331,-151.9465"/>
</g>
<!-- Node4&#45;&gt;Node11 -->
<g id="edge20" class="edge">
<title>Node4&#45;&gt;Node11</title>
<path fill="none" stroke="#191970" d="M579.6875,-190.3906C597.324,-181.6435 626.0373,-168.4728 650.9867,-157.5897"/>
<polygon fill="#191970" stroke="#191970" points="652.5463,-160.7285 660.3336,-153.5446 649.766,-154.3043 652.5463,-160.7285"/>
</g>
<!-- Node4&#45;&gt;Node12 -->
<g id="edge24" class="edge">
<title>Node4&#45;&gt;Node12</title>
<path fill="none" stroke="#191970" d="M558.4375,-190.3906C556.7741,-181.8657 556.3404,-169.1392 557.1365,-158.4235"/>
<polygon fill="#191970" stroke="#191970" points="560.6414,-158.6023 558.4112,-148.2449 553.6956,-157.7324 560.6414,-158.6023"/>
</g>
<!-- Node4&#45;&gt;Node13 -->
<g id="edge26" class="edge">
<title>Node4&#45;&gt;Node13</title>
<path fill="none" stroke="#191970" d="M606.1039,-190.4657C645.2886,-181.6802 705.276,-168.1901 766.8656,-154.1384"/>
<polygon fill="#191970" stroke="#191970" points="767.7912,-157.5172 776.7612,-151.8789 766.233,-150.6928 767.7912,-157.5172"/>
</g>
<!-- Node6&#45;&gt;Node1 -->
<g id="edge8" class="edge">
<title>Node6&#45;&gt;Node1</title>
<path fill="none" stroke="#191970" d="M962.5192,-148.0493C921.9508,-168.2435 819.1525,-215.612 758.357,-242.3166"/>
<polygon fill="#191970" stroke="#191970" points="756.7369,-239.205 748.9763,-246.4178 759.541,-245.6188 756.7369,-239.205"/>
</g>
<!-- Node6&#45;&gt;Node2 -->
<g id="edge7" class="edge">
<title>Node6&#45;&gt;Node2</title>
<path fill="none" stroke="#191970" d="M998.8422,-128.9005C1021.6987,-117.5569 1059.927,-98.5844 1086.1334,-85.5783"/>
<polygon fill="#191970" stroke="#191970" points="1087.7921,-88.6624 1095.1937,-81.0817 1084.6802,-82.3922 1087.7921,-88.6624"/>
</g>
<!-- Node6&#45;&gt;Node4 -->
<g id="edge9" class="edge">
<title>Node6&#45;&gt;Node4</title>
<path fill="none" stroke="#191970" d="M941.9683,-148.0487C931.4936,-150.1301 920.1165,-152.2355 909.5,-154 820.2518,-168.8336 717.1205,-182.3886 646.7631,-190.8821"/>
<polygon fill="#191970" stroke="#191970" points="646.1379,-187.4319 636.6259,-192.098 646.9716,-194.3821 646.1379,-187.4319"/>
</g>
<!-- Node6&#45;&gt;Node5 -->
<g id="edge10" class="edge">
<title>Node6&#45;&gt;Node5</title>
<path fill="none" stroke="#191970" d="M977.3509,-128.9005C975.1454,-119.0495 971.6519,-103.4451 968.8637,-90.9912"/>
<polygon fill="#191970" stroke="#191970" points="972.2454,-90.0754 966.6451,-81.0817 965.4145,-91.6048 972.2454,-90.0754"/>
</g>
<!-- Node7&#45;&gt;Node4 -->
<g id="edge12" class="edge">
<title>Node7&#45;&gt;Node4</title>
<path fill="none" stroke="#191970" d="M387.752,-148.0419C426.6387,-158.6202 486.3398,-175.7273 525.228,-187.4001"/>
<polygon fill="#191970" stroke="#191970" points="524.5401,-190.8484 535.125,-190.3906 526.5649,-184.1476 524.5401,-190.8484"/>
</g>
<!-- Node8&#45;&gt;Node1 -->
<g id="edge14" class="edge">
<title>Node8&#45;&gt;Node1</title>
<path fill="none" stroke="#191970" d="M114.2052,-148.0041C181.0281,-162.2906 305.8461,-189.779 412.5,-210 487.7773,-224.2722 573.8063,-238.4815 634.2607,-248.3478"/>
<polygon fill="#191970" stroke="#191970" points="634.0561,-251.8605 644.489,-250.0157 635.1827,-244.9518 634.0561,-251.8605"/>
</g>
<!-- Node8&#45;&gt;Node4 -->
<g id="edge15" class="edge">
<title>Node8&#45;&gt;Node4</title>
<path fill="none" stroke="#191970" d="M117.9313,-148.0589C128.7282,-150.2113 139.9927,-152.3454 150.5,-154 264.2393,-171.9105 396.3256,-185.0926 479.9569,-192.6469"/>
<polygon fill="#191970" stroke="#191970" points="479.8909,-196.155 490.1637,-193.5627 480.5165,-189.183 479.8909,-196.155"/>
</g>
<!-- Node9&#45;&gt;Node4 -->
<g id="edge17" class="edge">
<title>Node9&#45;&gt;Node4</title>
<path fill="none" stroke="#191970" d="M270.2346,-150.2762C276.4195,-151.5873 282.5931,-152.8592 288.5,-154 358.5606,-167.5302 438.8681,-180.2845 494.6046,-188.9153"/>
<polygon fill="#191970" stroke="#191970" points="494.3007,-192.4098 504.7179,-190.4782 495.3698,-185.4919 494.3007,-192.4098"/>
</g>
<!-- Node10 -->
<g id="node11" class="node">
<title>Node10</title>
<g id="a_node11"><a xlink:href="$constraints_2basic_8h.html" xlink:title="Functions and data structures for constraining secondary structure predictions and evaluation.">
<polygon fill="none" stroke="#000000" points="379,-56.5 379,-86.5 498,-86.5 498,-56.5 379,-56.5"/>
<text text-anchor="start" x="387" y="-74.5" font-family="Helvetica,sans-Serif" font-size="10.00" fill="#000000">ViennaRNA/constraints</text>
<text text-anchor="middle" x="438.5" y="-63.5" font-family="Helvetica,sans-Serif" font-size="10.00" fill="#000000">/basic.h</text>
</a>
</g>
</g>
<!-- Node9&#45;&gt;Node10 -->
<g id="edge18" class="edge">
<title>Node9&#45;&gt;Node10</title>
<path fill="none" stroke="#191970" d="M261.6677,-123.4639C295.8705,-113.4131 341.0469,-100.1375 377.1756,-89.5208"/>
<polygon fill="#191970" stroke="#191970" points="378.5017,-92.7792 387.1092,-86.6017 376.528,-86.0631 378.5017,-92.7792"/>
</g>
<!-- Node10&#45;&gt;Node4 -->
<g id="edge19" class="edge">
<title>Node10&#45;&gt;Node4</title>
<path fill="none" stroke="#191970" d="M439.1883,-86.6834C440.7687,-104.7348 445.908,-134.8232 462.5,-154 475.9195,-169.51 495.6413,-180.0748 514.1042,-187.1254"/>
<polygon fill="#191970" stroke="#191970" points="513.0097,-190.4508 523.6044,-190.4996 515.3526,-183.8545 513.0097,-190.4508"/>
</g>
<!-- Node11&#45;&gt;Node1 -->
<g id="edge21" class="edge">
<title>Node11&#45;&gt;Node1</title>
<path fill="none" stroke="#191970" d="M705.6125,-153.7056C710.0929,-174.3355 714.0293,-211.4615 714.613,-236.2943"/>
<polygon fill="#191970" stroke="#191970" points="711.1133,-236.4282 714.6428,-246.4178 718.1133,-236.4075 711.1133,-236.4282"/>
</g>
<!-- Node11&#45;&gt;Node4 -->
<g id="edge22" class="edge">
<title>Node11&#45;&gt;Node4</title>
<path fill="none" stroke="#191970" d="M672.1277,-153.5446C651.0907,-163.5991 622.0213,-176.7159 599.1791,-186.4465"/>
<polygon fill="#191970" stroke="#191970" points="597.6704,-183.2841 589.8125,-190.3906 600.3871,-189.7354 597.6704,-183.2841"/>
</g>
<!-- Node11&#45;&gt;Node10 -->
<g id="edge23" class="edge">
<title>Node11&#45;&gt;Node10</title>
<path fill="none" stroke="#191970" d="M640.9265,-123.4639C601.2713,-113.2842 548.7301,-99.7966 507.1148,-89.1138"/>
<polygon fill="#191970" stroke="#191970" points="507.8852,-85.6981 497.329,-86.6017 506.1446,-92.4783 507.8852,-85.6981"/>
</g>
<!-- Node12&#45;&gt;Node4 -->
<g id="edge25" class="edge">
<title>Node12&#45;&gt;Node4</title>
<path fill="none" stroke="#191970" d="M568.5888,-148.2449C570.2392,-156.814 570.6598,-169.5519 569.8508,-180.2462"/>
<polygon fill="#191970" stroke="#191970" points="566.3503,-180.0293 568.5625,-190.3906 573.2945,-180.9113 566.3503,-180.0293"/>
</g>
<!-- Node14&#45;&gt;Node1 -->
<g id="edge38" class="edge">
<title>Node14&#45;&gt;Node1</title>
<path fill="none" stroke="#191970" d="M1142.35,-209.4363C1048.3666,-221.213 884.8658,-241.1986 788.5397,-252.68"/>
<polygon fill="#191970" stroke="#191970" points="788.0878,-249.209 778.5715,-253.8663 788.915,-256.16 788.0878,-249.209"/>
</g>
<!-- Node15 -->
<g id="node16" class="node">
<title>Node15</title>
<g id="a_node16"><a xlink:title=" ">
<polygon fill="none" stroke="#bfbfbf" points="1191.5,-129 1191.5,-148 1237.5,-148 1237.5,-129 1191.5,-129"/>
<text text-anchor="middle" x="1214.5" y="-136" font-family="Helvetica,sans-Serif" font-size="10.00" fill="#000000">stdio.h</text>
</a>
</g>
</g>
<!-- Node14&#45;&gt;Node15 -->
<g id="edge37" class="edge">
<title>Node14&#45;&gt;Node15</title>
<path fill="none" stroke="#191970" d="M1214.5,-190.3906C1214.5,-181.8657 1214.5,-169.1392 1214.5,-158.4235"/>
<polygon fill="#191970" stroke="#191970" points="1218.0001,-158.2448 1214.5,-148.2449 1211.0001,-158.2449 1218.0001,-158.2448"/>
</g>
</g>
</svg>
