<?xml version="1.0" encoding="UTF-8" standalone="no"?>
<!DOCTYPE svg PUBLIC "-//W3C//DTD SVG 1.1//EN"
 "http://www.w3.org/Graphics/SVG/1.1/DTD/svg11.dtd">
<!-- Generated by graphviz version 2.40.1 (0)
 -->
<!-- Title: ViennaRNA/utils/alignments.h Pages: 1 -->
<svg width="1228pt" height="397pt"
 viewBox="0.00 0.00 1227.64 397.00" xmlns="http://www.w3.org/2000/svg" xmlns:xlink="http://www.w3.org/1999/xlink">
<g id="graph0" class="graph" transform="scale(1 1) rotate(0) translate(4 393)">
<title>ViennaRNA/utils/alignments.h</title>
<!-- Node0 -->
<g id="node1" class="node">
<title>Node0</title>
<g id="a_node1"><a xlink:title="Various utility&#45; and helper&#45;functions for sequence alignments and comparative structure prediction.">
<polygon fill="#bfbfbf" stroke="#000000" points="928.6407,-369.5 928.6407,-388.5 1076.6407,-388.5 1076.6407,-369.5 928.6407,-369.5"/>
<text text-anchor="middle" x="1002.6407" y="-376.5" font-family="Helvetica,sans-Serif" font-size="10.00" fill="#000000">ViennaRNA/utils/alignments.h</text>
</a>
</g>
</g>
<!-- Node1 -->
<g id="node2" class="node">
<title>Node1</title>
<g id="a_node2"><a xlink:href="$fold__compound_8h.html" xlink:title="The Basic Fold Compound API.">
<polygon fill="none" stroke="#000000" points="411.6407,-313.5 411.6407,-332.5 557.6407,-332.5 557.6407,-313.5 411.6407,-313.5"/>
<text text-anchor="middle" x="484.6407" y="-320.5" font-family="Helvetica,sans-Serif" font-size="10.00" fill="#000000">ViennaRNA/fold_compound.h</text>
</a>
</g>
</g>
<!-- Node0&#45;&gt;Node1 -->
<g id="edge1" class="edge">
<title>Node0&#45;&gt;Node1</title>
<path fill="none" stroke="#191970" d="M928.4239,-370.9766C832.9513,-360.6552 667.5808,-342.7773 567.9137,-332.0025"/>
<polygon fill="#191970" stroke="#191970" points="568.2012,-328.5133 557.8829,-330.9181 567.4488,-335.4727 568.2012,-328.5133"/>
</g>
<!-- Node2 -->
<g id="node3" class="node">
<title>Node2</title>
<g id="a_node3"><a xlink:href="$model_8h.html" xlink:title="The model details data structure and its corresponding modifiers.">
<polygon fill="none" stroke="#000000" points="949.6407,-129 949.6407,-148 1055.6407,-148 1055.6407,-129 949.6407,-129"/>
<text text-anchor="middle" x="1002.6407" y="-136" font-family="Helvetica,sans-Serif" font-size="10.00" fill="#000000">ViennaRNA/model.h</text>
</a>
</g>
</g>
<!-- Node0&#45;&gt;Node2 -->
<g id="edge42" class="edge">
<title>Node0&#45;&gt;Node2</title>
<path fill="none" stroke="#191970" d="M1002.6407,-369.2742C1002.6407,-333.3148 1002.6407,-207.4298 1002.6407,-158.3266"/>
<polygon fill="#191970" stroke="#191970" points="1006.1408,-158.0832 1002.6407,-148.0833 999.1408,-158.0833 1006.1408,-158.0832"/>
</g>
<!-- Node15 -->
<g id="node16" class="node">
<title>Node15</title>
<g id="a_node16"><a xlink:title=" ">
<polygon fill="none" stroke="#bfbfbf" points="878.6407,-.5 878.6407,-19.5 924.6407,-19.5 924.6407,-.5 878.6407,-.5"/>
<text text-anchor="middle" x="901.6407" y="-7.5" font-family="Helvetica,sans-Serif" font-size="10.00" fill="#000000">stdio.h</text>
</a>
</g>
</g>
<!-- Node0&#45;&gt;Node15 -->
<g id="edge43" class="edge">
<title>Node0&#45;&gt;Node15</title>
<path fill="none" stroke="#191970" d="M1076.7129,-371.2499C1139.5761,-360.0852 1219.6407,-332.9252 1219.6407,-267 1219.6407,-267 1219.6407,-267 1219.6407,-138.5 1219.6407,-77.5954 1016.5866,-31.9748 934.9929,-16.1016"/>
<polygon fill="#191970" stroke="#191970" points="935.2463,-12.5866 924.7666,-14.1447 933.9306,-19.4619 935.2463,-12.5866"/>
</g>
<!-- Node1&#45;&gt;Node2 -->
<g id="edge2" class="edge">
<title>Node1&#45;&gt;Node2</title>
<path fill="none" stroke="#191970" d="M557.6544,-316.3489C610.6464,-310.0271 683.4676,-298.2196 744.6407,-277 837.2365,-244.8806 936.6865,-182.5915 980.1542,-153.7884"/>
<polygon fill="#191970" stroke="#191970" points="982.1874,-156.6393 988.5574,-148.1733 978.2983,-150.8191 982.1874,-156.6393"/>
</g>
<!-- Node3 -->
<g id="node4" class="node">
<title>Node3</title>
<g id="a_node4"><a xlink:href="$params_2basic_8h.html" xlink:title="Functions to deal with sets of energy parameters.">
<polygon fill="none" stroke="#000000" points="559.6407,-257.5 559.6407,-276.5 697.6407,-276.5 697.6407,-257.5 559.6407,-257.5"/>
<text text-anchor="middle" x="628.6407" y="-264.5" font-family="Helvetica,sans-Serif" font-size="10.00" fill="#000000">ViennaRNA/params/basic.h</text>
</a>
</g>
</g>
<!-- Node1&#45;&gt;Node3 -->
<g id="edge3" class="edge">
<title>Node1&#45;&gt;Node3</title>
<path fill="none" stroke="#191970" d="M504.1532,-313.3733C526.0849,-304.1419 561.9055,-290.1402 589.5793,-279.9375"/>
<polygon fill="#191970" stroke="#191970" points="590.7987,-283.2183 598.992,-276.5011 588.3981,-276.6428 590.7987,-283.2183"/>
</g>
<!-- Node7 -->
<g id="node8" class="node">
<title>Node7</title>
<g id="a_node8"><a xlink:href="$dp__matrices_8h.html" xlink:title="Functions to deal with standard dynamic programming (DP) matrices.">
<polygon fill="none" stroke="#000000" points="798.1407,-129 798.1407,-148 931.1407,-148 931.1407,-129 798.1407,-129"/>
<text text-anchor="middle" x="864.6407" y="-136" font-family="Helvetica,sans-Serif" font-size="10.00" fill="#000000">ViennaRNA/dp_matrices.h</text>
</a>
</g>
</g>
<!-- Node1&#45;&gt;Node7 -->
<g id="edge36" class="edge">
<title>Node1&#45;&gt;Node7</title>
<path fill="none" stroke="#191970" d="M557.7609,-316.3115C600.2848,-310.2746 653.863,-298.7999 697.6407,-277 759.6876,-246.1026 816.6751,-184.7659 845.6096,-155.201"/>
<polygon fill="#191970" stroke="#191970" points="848.1168,-157.6433 852.678,-148.0806 843.1489,-152.7117 848.1168,-157.6433"/>
</g>
<!-- Node8 -->
<g id="node9" class="node">
<title>Node8</title>
<g id="a_node9"><a xlink:href="$hard_8h.html" xlink:title="Functions and data structures for handling of secondary structure hard constraints.">
<polygon fill="none" stroke="#000000" points="148.1407,-123.5 148.1407,-153.5 267.1407,-153.5 267.1407,-123.5 148.1407,-123.5"/>
<text text-anchor="start" x="156.1407" y="-141.5" font-family="Helvetica,sans-Serif" font-size="10.00" fill="#000000">ViennaRNA/constraints</text>
<text text-anchor="middle" x="207.6407" y="-130.5" font-family="Helvetica,sans-Serif" font-size="10.00" fill="#000000">/hard.h</text>
</a>
</g>
</g>
<!-- Node1&#45;&gt;Node8 -->
<g id="edge37" class="edge">
<title>Node1&#45;&gt;Node8</title>
<path fill="none" stroke="#191970" d="M466.913,-313.3402C419.6803,-284.6956 291.6959,-199.7331 235.0453,-159.7514"/>
<polygon fill="#191970" stroke="#191970" points="236.7665,-156.6806 226.589,-153.7363 232.7091,-162.3848 236.7665,-156.6806"/>
</g>
<!-- Node10 -->
<g id="node11" class="node">
<title>Node10</title>
<g id="a_node11"><a xlink:href="$soft_8h.html" xlink:title="Functions and data structures for secondary structure soft constraints.">
<polygon fill="none" stroke="#000000" points="285.1407,-123.5 285.1407,-153.5 404.1407,-153.5 404.1407,-123.5 285.1407,-123.5"/>
<text text-anchor="start" x="293.1407" y="-141.5" font-family="Helvetica,sans-Serif" font-size="10.00" fill="#000000">ViennaRNA/constraints</text>
<text text-anchor="middle" x="344.6407" y="-130.5" font-family="Helvetica,sans-Serif" font-size="10.00" fill="#000000">/soft.h</text>
</a>
</g>
</g>
<!-- Node1&#45;&gt;Node10 -->
<g id="edge38" class="edge">
<title>Node1&#45;&gt;Node10</title>
<path fill="none" stroke="#191970" d="M474.3312,-313.2088C456.6903,-290.5712 421.9774,-233.2423 386.6407,-190 378.4719,-180.0036 368.6596,-169.7483 360.4123,-161.047"/>
<polygon fill="#191970" stroke="#191970" points="362.7662,-158.4406 353.3703,-153.5449 357.6624,-163.2314 362.7662,-158.4406"/>
</g>
<!-- Node11 -->
<g id="node12" class="node">
<title>Node11</title>
<g id="a_node12"><a xlink:href="$grammar_8h.html" xlink:title="Implementations for the RNA folding grammar.">
<polygon fill="none" stroke="#000000" points="1074.1407,-129 1074.1407,-148 1191.1407,-148 1191.1407,-129 1074.1407,-129"/>
<text text-anchor="middle" x="1132.6407" y="-136" font-family="Helvetica,sans-Serif" font-size="10.00" fill="#000000">ViennaRNA/grammar.h</text>
</a>
</g>
</g>
<!-- Node1&#45;&gt;Node11 -->
<g id="edge39" class="edge">
<title>Node1&#45;&gt;Node11</title>
<path fill="none" stroke="#191970" d="M557.9403,-315.4005C616.6884,-308.5468 700.7527,-296.4896 772.6407,-277 896.5752,-243.4001 1036.5002,-180.0562 1099.3103,-152.2153"/>
<polygon fill="#191970" stroke="#191970" points="1100.9811,-155.3036 1108.7146,-148.0618 1098.153,-148.9003 1100.9811,-155.3036"/>
</g>
<!-- Node12 -->
<g id="node13" class="node">
<title>Node12</title>
<g id="a_node13"><a xlink:href="$structured__domains_8h.html" xlink:title="This module provides interfaces that deal with additional structured domains in the folding grammar.">
<polygon fill="none" stroke="#000000" points="15.1407,-123.5 15.1407,-153.5 130.1407,-153.5 130.1407,-123.5 15.1407,-123.5"/>
<text text-anchor="start" x="23.1407" y="-141.5" font-family="Helvetica,sans-Serif" font-size="10.00" fill="#000000">ViennaRNA/structured</text>
<text text-anchor="middle" x="72.6407" y="-130.5" font-family="Helvetica,sans-Serif" font-size="10.00" fill="#000000">_domains.h</text>
</a>
</g>
</g>
<!-- Node1&#45;&gt;Node12 -->
<g id="edge40" class="edge">
<title>Node1&#45;&gt;Node12</title>
<path fill="none" stroke="#191970" d="M411.4079,-316.2827C340.7789,-308.8617 239.5941,-295.4702 204.6407,-277 152.7848,-249.5981 109.6662,-194.1081 87.9013,-162.312"/>
<polygon fill="#191970" stroke="#191970" points="90.565,-159.9995 82.0922,-153.6384 84.7489,-163.8948 90.565,-159.9995"/>
</g>
<!-- Node13 -->
<g id="node14" class="node">
<title>Node13</title>
<g id="a_node14"><a xlink:href="$unstructured__domains_8h.html" xlink:title="Functions to modify unstructured domains, e.g. to incorporate ligands binding to unpaired stretches.">
<polygon fill="none" stroke="#000000" points="422.1407,-123.5 422.1407,-153.5 547.1407,-153.5 547.1407,-123.5 422.1407,-123.5"/>
<text text-anchor="start" x="430.1407" y="-141.5" font-family="Helvetica,sans-Serif" font-size="10.00" fill="#000000">ViennaRNA/unstructured</text>
<text text-anchor="middle" x="484.6407" y="-130.5" font-family="Helvetica,sans-Serif" font-size="10.00" fill="#000000">_domains.h</text>
</a>
</g>
</g>
<!-- Node1&#45;&gt;Node13 -->
<g id="edge41" class="edge">
<title>Node1&#45;&gt;Node13</title>
<path fill="none" stroke="#191970" d="M481.4158,-313.3402C477.3279,-285.6387 476.7954,-205.2663 479.8183,-163.8429"/>
<polygon fill="#191970" stroke="#191970" points="483.3175,-164.0063 480.7139,-153.7363 476.3448,-163.3883 483.3175,-164.0063"/>
</g>
<!-- Node16 -->
<g id="node17" class="node">
<title>Node16</title>
<g id="a_node17"><a xlink:href="$sequence_8h.html" xlink:title="Functions and data structures related to sequence representations ,.">
<polygon fill="none" stroke="#000000" points="213.6407,-257.5 213.6407,-276.5 335.6407,-276.5 335.6407,-257.5 213.6407,-257.5"/>
<text text-anchor="middle" x="274.6407" y="-264.5" font-family="Helvetica,sans-Serif" font-size="10.00" fill="#000000">ViennaRNA/sequence.h</text>
</a>
</g>
</g>
<!-- Node1&#45;&gt;Node16 -->
<g id="edge34" class="edge">
<title>Node1&#45;&gt;Node16</title>
<path fill="none" stroke="#191970" d="M443.5495,-313.4369C406.3582,-304.014 352.0594,-289.5763 315.0761,-279.3031"/>
<polygon fill="#191970" stroke="#191970" points="315.7058,-275.8451 305.1327,-276.5237 313.8213,-282.5866 315.7058,-275.8451"/>
</g>
<!-- Node3&#45;&gt;Node1 -->
<g id="edge32" class="edge">
<title>Node3&#45;&gt;Node1</title>
<path fill="none" stroke="#191970" d="M609.4265,-276.5011C587.6215,-285.6889 551.8275,-299.686 524.0801,-309.9231"/>
<polygon fill="#191970" stroke="#191970" points="522.8288,-306.654 514.6372,-313.3733 525.2311,-313.2288 522.8288,-306.654"/>
</g>
<!-- Node3&#45;&gt;Node2 -->
<g id="edge33" class="edge">
<title>Node3&#45;&gt;Node2</title>
<path fill="none" stroke="#191970" d="M656.4459,-257.4466C722.7906,-234.6517 890.4037,-177.0627 965.3848,-151.3005"/>
<polygon fill="#191970" stroke="#191970" points="966.5865,-154.5885 974.9066,-148.029 964.3119,-147.9683 966.5865,-154.5885"/>
</g>
<!-- Node4 -->
<g id="node5" class="node">
<title>Node4</title>
<g id="a_node5"><a xlink:href="$constants_8h.html" xlink:title="Energy parameter constants.">
<polygon fill="none" stroke="#000000" points="621.6407,-129 621.6407,-148 779.6407,-148 779.6407,-129 621.6407,-129"/>
<text text-anchor="middle" x="700.6407" y="-136" font-family="Helvetica,sans-Serif" font-size="10.00" fill="#000000">ViennaRNA/params/constants.h</text>
</a>
</g>
</g>
<!-- Node3&#45;&gt;Node4 -->
<g id="edge4" class="edge">
<title>Node3&#45;&gt;Node4</title>
<path fill="none" stroke="#191970" d="M637.4221,-257.2995C645.2387,-248.3349 656.6415,-234.413 664.6407,-221 676.9699,-200.3266 687.4954,-174.6639 693.9242,-157.5002"/>
<polygon fill="#191970" stroke="#191970" points="697.239,-158.6261 697.3772,-148.0322 690.6627,-156.2277 697.239,-158.6261"/>
</g>
<!-- Node6 -->
<g id="node7" class="node">
<title>Node6</title>
<g id="a_node7"><a xlink:href="$datastructures_2basic_8h.html" xlink:title="Various data structures and pre&#45;processor macros.">
<polygon fill="none" stroke="#000000" points="521.6407,-190.5 521.6407,-220.5 655.6407,-220.5 655.6407,-190.5 521.6407,-190.5"/>
<text text-anchor="start" x="529.6407" y="-208.5" font-family="Helvetica,sans-Serif" font-size="10.00" fill="#000000">ViennaRNA/datastructures</text>
<text text-anchor="middle" x="588.6407" y="-197.5" font-family="Helvetica,sans-Serif" font-size="10.00" fill="#000000">/basic.h</text>
</a>
</g>
</g>
<!-- Node3&#45;&gt;Node6 -->
<g id="edge6" class="edge">
<title>Node3&#45;&gt;Node6</title>
<path fill="none" stroke="#191970" d="M617.3282,-257.3906C611.0074,-249.9151 603.5309,-239.2087 597.6232,-229.4605"/>
<polygon fill="#191970" stroke="#191970" points="600.5288,-227.4908 592.5287,-220.5446 594.451,-230.9636 600.5288,-227.4908"/>
</g>
<!-- Node5 -->
<g id="node6" class="node">
<title>Node5</title>
<g id="a_node6"><a xlink:title=" ">
<polygon fill="none" stroke="#bfbfbf" points="676.6407,-62 676.6407,-81 724.6407,-81 724.6407,-62 676.6407,-62"/>
<text text-anchor="middle" x="700.6407" y="-69" font-family="Helvetica,sans-Serif" font-size="10.00" fill="#000000">limits.h</text>
</a>
</g>
</g>
<!-- Node4&#45;&gt;Node5 -->
<g id="edge5" class="edge">
<title>Node4&#45;&gt;Node5</title>
<path fill="none" stroke="#191970" d="M700.6407,-128.9005C700.6407,-119.149 700.6407,-103.7597 700.6407,-91.3695"/>
<polygon fill="#191970" stroke="#191970" points="704.1408,-91.0816 700.6407,-81.0817 697.1408,-91.0817 704.1408,-91.0816"/>
</g>
<!-- Node6&#45;&gt;Node1 -->
<g id="edge8" class="edge">
<title>Node6&#45;&gt;Node1</title>
<path fill="none" stroke="#191970" d="M575.1744,-220.7143C555.8072,-242.5955 520.1909,-282.8351 499.8825,-305.7797"/>
<polygon fill="#191970" stroke="#191970" points="497.1584,-303.5766 493.1515,-313.3845 502.4001,-308.2161 497.1584,-303.5766"/>
</g>
<!-- Node6&#45;&gt;Node2 -->
<g id="edge9" class="edge">
<title>Node6&#45;&gt;Node2</title>
<path fill="none" stroke="#191970" d="M655.8057,-197.696C726.8896,-188.9653 842.1825,-173.4595 940.6407,-154 946.015,-152.9378 951.6225,-151.7088 957.1734,-150.4167"/>
<polygon fill="#191970" stroke="#191970" points="958.1359,-153.7852 967.0413,-148.0455 956.5003,-146.9789 958.1359,-153.7852"/>
</g>
<!-- Node6&#45;&gt;Node3 -->
<g id="edge10" class="edge">
<title>Node6&#45;&gt;Node3</title>
<path fill="none" stroke="#191970" d="M604.3229,-220.5446C610.7473,-228.8934 617.6757,-239.3537 622.7069,-248.2334"/>
<polygon fill="#191970" stroke="#191970" points="619.744,-250.123 627.4532,-257.3906 625.9588,-246.9017 619.744,-250.123"/>
</g>
<!-- Node6&#45;&gt;Node4 -->
<g id="edge7" class="edge">
<title>Node6&#45;&gt;Node4</title>
<path fill="none" stroke="#191970" d="M613.7757,-190.4639C632.3139,-179.3741 657.4147,-164.3584 675.8669,-153.32"/>
<polygon fill="#191970" stroke="#191970" points="677.8015,-156.2412 684.5864,-148.1039 674.2079,-150.2341 677.8015,-156.2412"/>
</g>
<!-- Node6&#45;&gt;Node7 -->
<g id="edge11" class="edge">
<title>Node6&#45;&gt;Node7</title>
<path fill="none" stroke="#191970" d="M644.84,-190.4639C693.3609,-178.3253 762.8913,-161.4831 810.7371,-150.3016"/>
<polygon fill="#191970" stroke="#191970" points="811.6562,-153.6813 820.6023,-148.0053 810.0692,-146.8636 811.6562,-153.6813"/>
</g>
<!-- Node6&#45;&gt;Node8 -->
<g id="edge14" class="edge">
<title>Node6&#45;&gt;Node8</title>
<path fill="none" stroke="#191970" d="M521.5705,-195.6765C460.3421,-186.4327 367.1161,-171.6692 277.3767,-154.282"/>
<polygon fill="#191970" stroke="#191970" points="277.7863,-150.7959 267.301,-152.3156 276.4454,-157.6663 277.7863,-150.7959"/>
</g>
<!-- Node6&#45;&gt;Node10 -->
<g id="edge18" class="edge">
<title>Node6&#45;&gt;Node10</title>
<path fill="none" stroke="#191970" d="M528.1418,-190.4639C490.1492,-180.3701 441.4421,-167.024 403.7227,-156.3848"/>
<polygon fill="#191970" stroke="#191970" points="404.4646,-152.9574 393.8894,-153.6017 402.5582,-159.6928 404.4646,-152.9574"/>
</g>
<!-- Node6&#45;&gt;Node11 -->
<g id="edge22" class="edge">
<title>Node6&#45;&gt;Node11</title>
<path fill="none" stroke="#191970" d="M655.9823,-200.6961C748.508,-193.5317 919.9472,-178.2337 1064.6407,-154 1070.9886,-152.9368 1077.6322,-151.6469 1084.1749,-150.2702"/>
<polygon fill="#191970" stroke="#191970" points="1085.2934,-153.6085 1094.3164,-148.0555 1083.7999,-146.7697 1085.2934,-153.6085"/>
</g>
<!-- Node6&#45;&gt;Node12 -->
<g id="edge24" class="edge">
<title>Node6&#45;&gt;Node12</title>
<path fill="none" stroke="#191970" d="M521.5795,-200.2861C435.4112,-193.0386 281.0802,-178.2095 140.2664,-154.1703"/>
<polygon fill="#191970" stroke="#191970" points="140.6021,-150.6765 130.1523,-152.4235 139.4108,-157.5744 140.6021,-150.6765"/>
</g>
<!-- Node6&#45;&gt;Node13 -->
<g id="edge25" class="edge">
<title>Node6&#45;&gt;Node13</title>
<path fill="none" stroke="#191970" d="M559.5605,-190.4639C544.2238,-181.3044 525.6602,-169.4667 510.7818,-159.4038"/>
<polygon fill="#191970" stroke="#191970" points="512.7248,-156.4923 502.4997,-153.7177 508.7628,-162.2632 512.7248,-156.4923"/>
</g>
<!-- Node14 -->
<g id="node15" class="node">
<title>Node14</title>
<g id="a_node15"><a xlink:href="$utils_2structures_8h.html" xlink:title="Various utility&#45; and helper&#45;functions for secondary structure parsing, converting,...">
<polygon fill="none" stroke="#000000" points="512.6407,-62 512.6407,-81 656.6407,-81 656.6407,-62 512.6407,-62"/>
<text text-anchor="middle" x="584.6407" y="-69" font-family="Helvetica,sans-Serif" font-size="10.00" fill="#000000">ViennaRNA/utils/structures.h</text>
</a>
</g>
</g>
<!-- Node6&#45;&gt;Node14 -->
<g id="edge31" class="edge">
<title>Node6&#45;&gt;Node14</title>
<path fill="none" stroke="#191970" d="M583.7263,-190.389C580.1254,-166.0735 578.5344,-118.2644 580.2757,-91.2698"/>
<polygon fill="#191970" stroke="#191970" points="583.7799,-91.3875 581.2298,-81.1042 576.8106,-90.7333 583.7799,-91.3875"/>
</g>
<!-- Node7&#45;&gt;Node1 -->
<g id="edge13" class="edge">
<title>Node7&#45;&gt;Node1</title>
<path fill="none" stroke="#191970" d="M861.1618,-148.0806C844.8198,-173.5605 783.2322,-243.3416 715.6407,-277 669.9458,-299.7546 613.5731,-311.2599 567.899,-317.0738"/>
<polygon fill="#191970" stroke="#191970" points="567.239,-313.6279 557.7288,-318.2976 568.0754,-320.5777 567.239,-313.6279"/>
</g>
<!-- Node7&#45;&gt;Node6 -->
<g id="edge12" class="edge">
<title>Node7&#45;&gt;Node6</title>
<path fill="none" stroke="#191970" d="M830.2716,-148.0296C789.3201,-158.4645 719.863,-175.4149 665.8605,-188.2092"/>
<polygon fill="#191970" stroke="#191970" points="664.8942,-184.8411 655.9673,-190.5473 666.5042,-191.6534 664.8942,-184.8411"/>
</g>
<!-- Node8&#45;&gt;Node1 -->
<g id="edge15" class="edge">
<title>Node8&#45;&gt;Node1</title>
<path fill="none" stroke="#191970" d="M234.4427,-153.7363C290.1291,-188.3282 416.5044,-272.4941 465.2074,-307.4157"/>
<polygon fill="#191970" stroke="#191970" points="463.2153,-310.2946 473.3629,-313.3402 467.3294,-304.6312 463.2153,-310.2946"/>
</g>
<!-- Node9 -->
<g id="node10" class="node">
<title>Node9</title>
<g id="a_node10"><a xlink:href="$constraints_2basic_8h.html" xlink:title="Functions and data structures for constraining secondary structure predictions and evaluation.">
<polygon fill="none" stroke="#000000" points="148.1407,-56.5 148.1407,-86.5 267.1407,-86.5 267.1407,-56.5 148.1407,-56.5"/>
<text text-anchor="start" x="156.1407" y="-74.5" font-family="Helvetica,sans-Serif" font-size="10.00" fill="#000000">ViennaRNA/constraints</text>
<text text-anchor="middle" x="207.6407" y="-63.5" font-family="Helvetica,sans-Serif" font-size="10.00" fill="#000000">/basic.h</text>
</a>
</g>
</g>
<!-- Node8&#45;&gt;Node9 -->
<g id="edge16" class="edge">
<title>Node8&#45;&gt;Node9</title>
<path fill="none" stroke="#191970" d="M207.6407,-123.2967C207.6407,-115.5013 207.6407,-105.7991 207.6407,-96.9064"/>
<polygon fill="#191970" stroke="#191970" points="211.1408,-96.6431 207.6407,-86.6432 204.1408,-96.6432 211.1408,-96.6431"/>
</g>
<!-- Node9&#45;&gt;Node1 -->
<g id="edge17" class="edge">
<title>Node9&#45;&gt;Node1</title>
<path fill="none" stroke="#191970" d="M147.9447,-78.6206C94.8689,-86.3246 23.0447,-100.6021 5.6407,-123 -2.813,-133.8794 -.5743,-141.7036 5.6407,-154 47.2228,-236.2698 87.4025,-241.9024 172.6407,-277 212.796,-293.5343 322.9813,-307.2398 400.992,-315.2739"/>
<polygon fill="#191970" stroke="#191970" points="400.993,-318.7919 411.2957,-316.3214 401.7011,-311.8278 400.993,-318.7919"/>
</g>
<!-- Node10&#45;&gt;Node1 -->
<g id="edge20" class="edge">
<title>Node10&#45;&gt;Node1</title>
<path fill="none" stroke="#191970" d="M368.7888,-153.5449C380.498,-163.4452 393.9712,-176.9435 404.6407,-190 435.8364,-228.1749 466.5459,-277.3282 479.458,-303.8995"/>
<polygon fill="#191970" stroke="#191970" points="476.3429,-305.5073 483.6187,-313.2088 482.7336,-302.651 476.3429,-305.5073"/>
</g>
<!-- Node10&#45;&gt;Node6 -->
<g id="edge19" class="edge">
<title>Node10&#45;&gt;Node6</title>
<path fill="none" stroke="#191970" d="M404.5159,-153.3704C442.6562,-163.499 491.7825,-176.9588 529.7326,-187.6642"/>
<polygon fill="#191970" stroke="#191970" points="529.0476,-191.1078 539.6229,-190.4639 530.9542,-184.3725 529.0476,-191.1078"/>
</g>
<!-- Node10&#45;&gt;Node9 -->
<g id="edge21" class="edge">
<title>Node10&#45;&gt;Node9</title>
<path fill="none" stroke="#191970" d="M313.8952,-123.4639C294.3783,-113.9191 268.915,-101.4663 247.8082,-91.144"/>
<polygon fill="#191970" stroke="#191970" points="249.2785,-87.9669 238.7576,-86.7177 246.2032,-94.2552 249.2785,-87.9669"/>
</g>
<!-- Node11&#45;&gt;Node1 -->
<g id="edge23" class="edge">
<title>Node11&#45;&gt;Node1</title>
<path fill="none" stroke="#191970" d="M1117.2672,-148.0618C1069.5174,-173.1935 921.2054,-241.6026 790.6407,-277 716.8192,-297.0137 630.1577,-309.19 567.8762,-315.9422"/>
<polygon fill="#191970" stroke="#191970" points="567.2831,-312.4854 557.7077,-317.0199 568.0209,-319.4464 567.2831,-312.4854"/>
</g>
<!-- Node13&#45;&gt;Node1 -->
<g id="edge27" class="edge">
<title>Node13&#45;&gt;Node1</title>
<path fill="none" stroke="#191970" d="M488.5675,-153.7363C492.1791,-187.0364 492.3256,-266.277 489.0068,-303.3025"/>
<polygon fill="#191970" stroke="#191970" points="485.5178,-303.0089 487.8656,-313.3402 492.4729,-303.7997 485.5178,-303.0089"/>
</g>
<!-- Node13&#45;&gt;Node6 -->
<g id="edge26" class="edge">
<title>Node13&#45;&gt;Node6</title>
<path fill="none" stroke="#191970" d="M513.9001,-153.6432C529.2186,-162.7976 547.719,-174.5979 562.5476,-184.6286"/>
<polygon fill="#191970" stroke="#191970" points="560.5774,-187.5214 570.8023,-190.2967 564.5398,-181.7508 560.5774,-187.5214"/>
</g>
<!-- Node13&#45;&gt;Node14 -->
<g id="edge28" class="edge">
<title>Node13&#45;&gt;Node14</title>
<path fill="none" stroke="#191970" d="M507.3322,-123.2967C523.669,-112.351 545.6166,-97.6462 561.9526,-86.701"/>
<polygon fill="#191970" stroke="#191970" points="564.02,-89.5289 570.3795,-81.055 560.1237,-83.7135 564.02,-89.5289"/>
</g>
<!-- Node14&#45;&gt;Node6 -->
<g id="edge30" class="edge">
<title>Node14&#45;&gt;Node6</title>
<path fill="none" stroke="#191970" d="M588.6249,-81.1042C592.618,-101.6073 594.6418,-150.2327 593.3016,-180.2559"/>
<polygon fill="#191970" stroke="#191970" points="589.799,-180.1858 592.653,-190.389 596.7847,-180.633 589.799,-180.1858"/>
</g>
<!-- Node14&#45;&gt;Node15 -->
<g id="edge29" class="edge">
<title>Node14&#45;&gt;Node15</title>
<path fill="none" stroke="#191970" d="M633.8241,-61.9581C699.011,-49.3114 812.2964,-27.3334 868.3137,-16.4656"/>
<polygon fill="#191970" stroke="#191970" points="869.2524,-19.8489 878.4027,-14.5083 867.9191,-12.977 869.2524,-19.8489"/>
</g>
<!-- Node16&#45;&gt;Node1 -->
<g id="edge35" class="edge">
<title>Node16&#45;&gt;Node1</title>
<path fill="none" stroke="#191970" d="M315.4872,-276.5011C352.554,-285.8895 406.7585,-300.2996 443.8141,-310.5882"/>
<polygon fill="#191970" stroke="#191970" points="443.2094,-314.0533 453.7824,-313.3733 445.0931,-307.3114 443.2094,-314.0533"/>
</g>
</g>
</svg>
