<?xml version="1.0" encoding="UTF-8" standalone="no"?>
<!DOCTYPE svg PUBLIC "-//W3C//DTD SVG 1.1//EN"
 "http://www.w3.org/Graphics/SVG/1.1/DTD/svg11.dtd">
<!-- Generated by graphviz version 2.40.1 (0)
 -->
<!-- Title: ViennaRNA/utils.h Pages: 1 -->
<svg width="1564pt" height="397pt"
 viewBox="0.00 0.00 1563.73 397.00" xmlns="http://www.w3.org/2000/svg" xmlns:xlink="http://www.w3.org/1999/xlink">
<g id="graph0" class="graph" transform="scale(1 1) rotate(0) translate(4 393)">
<title>ViennaRNA/utils.h</title>
<!-- Node0 -->
<g id="node1" class="node">
<title>Node0</title>
<g id="a_node1"><a xlink:title="Use ViennaRNA/utils/basic.h instead.">
<polygon fill="#bfbfbf" stroke="#000000" points="621,-369.5 621,-388.5 719,-388.5 719,-369.5 621,-369.5"/>
<text text-anchor="middle" x="670" y="-376.5" font-family="Helvetica,sans-Serif" font-size="10.00" fill="#000000">ViennaRNA/utils.h</text>
</a>
</g>
</g>
<!-- Node1 -->
<g id="node2" class="node">
<title>Node1</title>
<g id="a_node2"><a xlink:href="$utils_2basic_8h.html" xlink:title="General utility&#45; and helper&#45;functions used throughout the ViennaRNA Package.">
<polygon fill="none" stroke="#000000" points="753,-313.5 753,-332.5 877,-332.5 877,-313.5 753,-313.5"/>
<text text-anchor="middle" x="815" y="-320.5" font-family="Helvetica,sans-Serif" font-size="10.00" fill="#000000">ViennaRNA/utils/basic.h</text>
</a>
</g>
</g>
<!-- Node0&#45;&gt;Node1 -->
<g id="edge1" class="edge">
<title>Node0&#45;&gt;Node1</title>
<path fill="none" stroke="#191970" d="M694.9264,-369.3733C718.6202,-360.2226 754.4511,-346.3844 780.8068,-336.2057"/>
<polygon fill="#191970" stroke="#191970" points="782.3314,-339.3689 790.3989,-332.5011 779.8094,-332.8389 782.3314,-339.3689"/>
</g>
<!-- Node18 -->
<g id="node19" class="node">
<title>Node18</title>
<g id="a_node19"><a xlink:href="$utils_2structures_8h.html" xlink:title="Various utility&#45; and helper&#45;functions for secondary structure parsing, converting,...">
<polygon fill="none" stroke="#000000" points="111,-62 111,-81 255,-81 255,-62 111,-62"/>
<text text-anchor="middle" x="183" y="-69" font-family="Helvetica,sans-Serif" font-size="10.00" fill="#000000">ViennaRNA/utils/structures.h</text>
</a>
</g>
</g>
<!-- Node0&#45;&gt;Node18 -->
<g id="edge48" class="edge">
<title>Node0&#45;&gt;Node18</title>
<path fill="none" stroke="#191970" d="M620.7197,-373.3626C488.5234,-357.579 136,-310.8616 136,-261.5 136,-261.5 136,-261.5 136,-200 136,-158.6617 157.7187,-114.1454 171.6282,-89.8742"/>
<polygon fill="#191970" stroke="#191970" points="174.7669,-91.4432 176.8556,-81.0563 168.7454,-87.8736 174.7669,-91.4432"/>
</g>
<!-- Node19 -->
<g id="node20" class="node">
<title>Node19</title>
<g id="a_node20"><a xlink:href="$strings_8h.html" xlink:title="General utility&#45; and helper&#45;functions for RNA sequence and structure strings used throughout the Vien...">
<polygon fill="none" stroke="#000000" points="605,-313.5 605,-332.5 735,-332.5 735,-313.5 605,-313.5"/>
<text text-anchor="middle" x="670" y="-320.5" font-family="Helvetica,sans-Serif" font-size="10.00" fill="#000000">ViennaRNA/utils/strings.h</text>
</a>
</g>
</g>
<!-- Node0&#45;&gt;Node19 -->
<g id="edge45" class="edge">
<title>Node0&#45;&gt;Node19</title>
<path fill="none" stroke="#191970" d="M670,-369.2455C670,-361.9382 670,-351.6944 670,-342.7046"/>
<polygon fill="#191970" stroke="#191970" points="673.5001,-342.6426 670,-332.6427 666.5001,-342.6427 673.5001,-342.6426"/>
</g>
<!-- Node20 -->
<g id="node21" class="node">
<title>Node20</title>
<g id="a_node21"><a xlink:href="$io_2utils_8h.html" xlink:title="Several utilities for file handling.">
<polygon fill="none" stroke="#000000" points="0,-190.5 0,-209.5 108,-209.5 108,-190.5 0,-190.5"/>
<text text-anchor="middle" x="54" y="-197.5" font-family="Helvetica,sans-Serif" font-size="10.00" fill="#000000">ViennaRNA/io/utils.h</text>
</a>
</g>
</g>
<!-- Node0&#45;&gt;Node20 -->
<g id="edge49" class="edge">
<title>Node0&#45;&gt;Node20</title>
<path fill="none" stroke="#191970" d="M620.5876,-377.571C493.5926,-373.5188 162.8798,-360.4279 122,-333 82.663,-306.6072 64.8417,-250.1647 57.8594,-219.9926"/>
<polygon fill="#191970" stroke="#191970" points="61.2014,-218.8821 55.6918,-209.8325 54.3554,-220.3427 61.2014,-218.8821"/>
</g>
<!-- Node21 -->
<g id="node22" class="node">
<title>Node21</title>
<g id="a_node22"><a xlink:href="$alphabet_8h.html" xlink:title="Functions to process, convert, and generally handle different nucleotide and/or base pair alphabets.">
<polygon fill="none" stroke="#000000" points="853,-252 853,-271 969,-271 969,-252 853,-252"/>
<text text-anchor="middle" x="911" y="-259" font-family="Helvetica,sans-Serif" font-size="10.00" fill="#000000">ViennaRNA/alphabet.h</text>
</a>
</g>
</g>
<!-- Node0&#45;&gt;Node21 -->
<g id="edge51" class="edge">
<title>Node0&#45;&gt;Node21</title>
<path fill="none" stroke="#191970" d="M719.4606,-374.0926C775.3416,-367.6024 861.6885,-354.4147 886,-333 900.7524,-320.0054 906.8004,-297.8039 909.2793,-281.5805"/>
<polygon fill="#191970" stroke="#191970" points="912.7737,-281.8361 910.4884,-271.4906 905.8234,-281.0031 912.7737,-281.8361"/>
</g>
<!-- Node2 -->
<g id="node3" class="node">
<title>Node2</title>
<g id="a_node3"><a xlink:title=" ">
<polygon fill="none" stroke="#bfbfbf" points="160,-.5 160,-19.5 206,-19.5 206,-.5 160,-.5"/>
<text text-anchor="middle" x="183" y="-7.5" font-family="Helvetica,sans-Serif" font-size="10.00" fill="#000000">stdio.h</text>
</a>
</g>
</g>
<!-- Node1&#45;&gt;Node2 -->
<g id="edge2" class="edge">
<title>Node1&#45;&gt;Node2</title>
<path fill="none" stroke="#191970" d="M877.0524,-319.1903C1054.94,-307.4469 1554,-268.4053 1554,-200 1554,-200 1554,-200 1554,-138.5 1554,-100.4351 1560.9184,-79.5336 1531,-56 1504.3441,-35.0327 421.4351,-14.3332 216.3345,-10.5966"/>
<polygon fill="#191970" stroke="#191970" points="216.2411,-7.0945 206.1793,-10.4125 216.1141,-14.0933 216.2411,-7.0945"/>
</g>
<!-- Node3 -->
<g id="node4" class="node">
<title>Node3</title>
<g id="a_node4"><a xlink:title=" ">
<polygon fill="none" stroke="#bfbfbf" points="783,-252 783,-271 835,-271 835,-252 783,-252"/>
<text text-anchor="middle" x="809" y="-259" font-family="Helvetica,sans-Serif" font-size="10.00" fill="#000000">stdarg.h</text>
</a>
</g>
</g>
<!-- Node1&#45;&gt;Node3 -->
<g id="edge3" class="edge">
<title>Node1&#45;&gt;Node3</title>
<path fill="none" stroke="#191970" d="M814.0625,-313.3906C813.2308,-304.8657 811.9892,-292.1392 810.9438,-281.4235"/>
<polygon fill="#191970" stroke="#191970" points="814.4053,-280.8577 809.9507,-271.2449 807.4383,-281.5375 814.4053,-280.8577"/>
</g>
<!-- Node4 -->
<g id="node5" class="node">
<title>Node4</title>
<g id="a_node5"><a xlink:href="$datastructures_2basic_8h.html" xlink:title="Various data structures and pre&#45;processor macros.">
<polygon fill="none" stroke="#000000" points="631,-246.5 631,-276.5 765,-276.5 765,-246.5 631,-246.5"/>
<text text-anchor="start" x="639" y="-264.5" font-family="Helvetica,sans-Serif" font-size="10.00" fill="#000000">ViennaRNA/datastructures</text>
<text text-anchor="middle" x="698" y="-253.5" font-family="Helvetica,sans-Serif" font-size="10.00" fill="#000000">/basic.h</text>
</a>
</g>
</g>
<!-- Node1&#45;&gt;Node4 -->
<g id="edge4" class="edge">
<title>Node1&#45;&gt;Node4</title>
<path fill="none" stroke="#191970" d="M796.7188,-313.3906C780.4444,-304.8361 756.1212,-292.0509 735.6913,-281.3121"/>
<polygon fill="#191970" stroke="#191970" points="737.1016,-278.0994 726.6214,-276.5446 733.8446,-284.2955 737.1016,-278.0994"/>
</g>
<!-- Node5 -->
<g id="node6" class="node">
<title>Node5</title>
<g id="a_node6"><a xlink:href="$constants_8h.html" xlink:title="Energy parameter constants.">
<polygon fill="none" stroke="#000000" points="1364,-62 1364,-81 1522,-81 1522,-62 1364,-62"/>
<text text-anchor="middle" x="1443" y="-69" font-family="Helvetica,sans-Serif" font-size="10.00" fill="#000000">ViennaRNA/params/constants.h</text>
</a>
</g>
</g>
<!-- Node4&#45;&gt;Node5 -->
<g id="edge5" class="edge">
<title>Node4&#45;&gt;Node5</title>
<path fill="none" stroke="#191970" d="M765.0521,-247.3049C768.0703,-246.8301 771.0634,-246.3915 774,-246 1022.5348,-212.8694 1093.882,-271.3255 1337,-210 1394.8496,-195.4077 1426.7929,-204.2216 1459,-154 1471.3118,-134.8018 1462.6219,-108.2882 1453.9881,-90.5514"/>
<polygon fill="#191970" stroke="#191970" points="1456.8367,-88.4506 1449.0703,-81.2441 1450.6476,-91.7209 1456.8367,-88.4506"/>
</g>
<!-- Node7 -->
<g id="node8" class="node">
<title>Node7</title>
<g id="a_node8"><a xlink:href="$fold__compound_8h.html" xlink:title="The Basic Fold Compound API.">
<polygon fill="none" stroke="#000000" points="773,-190.5 773,-209.5 919,-209.5 919,-190.5 773,-190.5"/>
<text text-anchor="middle" x="846" y="-197.5" font-family="Helvetica,sans-Serif" font-size="10.00" fill="#000000">ViennaRNA/fold_compound.h</text>
</a>
</g>
</g>
<!-- Node4&#45;&gt;Node7 -->
<g id="edge7" class="edge">
<title>Node4&#45;&gt;Node7</title>
<path fill="none" stroke="#191970" d="M734.2049,-246.4554C758.4658,-236.374 790.1356,-223.2139 813.5712,-213.4755"/>
<polygon fill="#191970" stroke="#191970" points="815.1739,-216.5997 823.0653,-209.5303 812.4877,-210.1356 815.1739,-216.5997"/>
</g>
<!-- Node8 -->
<g id="node9" class="node">
<title>Node8</title>
<g id="a_node9"><a xlink:href="$model_8h.html" xlink:title="The model details data structure and its corresponding modifiers.">
<polygon fill="none" stroke="#000000" points="1234,-62 1234,-81 1340,-81 1340,-62 1234,-62"/>
<text text-anchor="middle" x="1287" y="-69" font-family="Helvetica,sans-Serif" font-size="10.00" fill="#000000">ViennaRNA/model.h</text>
</a>
</g>
</g>
<!-- Node4&#45;&gt;Node8 -->
<g id="edge36" class="edge">
<title>Node4&#45;&gt;Node8</title>
<path fill="none" stroke="#191970" d="M765.1171,-247.708C768.1178,-247.1241 771.0894,-246.5523 774,-246 992.1281,-204.612 1102.8195,-305.6256 1265,-154 1282.2079,-137.912 1286.5293,-110.0058 1287.3322,-91.154"/>
<polygon fill="#191970" stroke="#191970" points="1290.8336,-91.0605 1287.4653,-81.0154 1283.8342,-90.9686 1290.8336,-91.0605"/>
</g>
<!-- Node9 -->
<g id="node10" class="node">
<title>Node9</title>
<g id="a_node10"><a xlink:href="$params_2basic_8h.html" xlink:title="Functions to deal with sets of energy parameters.">
<polygon fill="none" stroke="#000000" points="1312,-129 1312,-148 1450,-148 1450,-129 1312,-129"/>
<text text-anchor="middle" x="1381" y="-136" font-family="Helvetica,sans-Serif" font-size="10.00" fill="#000000">ViennaRNA/params/basic.h</text>
</a>
</g>
</g>
<!-- Node4&#45;&gt;Node9 -->
<g id="edge37" class="edge">
<title>Node4&#45;&gt;Node9</title>
<path fill="none" stroke="#191970" d="M761.7768,-246.4524C762.8575,-246.2958 763.9325,-246.1449 765,-246 880.6586,-230.3033 1181.0389,-254.3588 1289,-210 1317.6806,-198.2158 1343.4932,-172.4429 1360.7834,-155.2778"/>
<polygon fill="#191970" stroke="#191970" points="1363.4298,-157.5843 1368.1076,-148.078 1358.5226,-152.5923 1363.4298,-157.5843"/>
</g>
<!-- Node11 -->
<g id="node12" class="node">
<title>Node11</title>
<g id="a_node12"><a xlink:href="$dp__matrices_8h.html" xlink:title="Functions to deal with standard dynamic programming (DP) matrices.">
<polygon fill="none" stroke="#000000" points="633.5,-129 633.5,-148 766.5,-148 766.5,-129 633.5,-129"/>
<text text-anchor="middle" x="700" y="-136" font-family="Helvetica,sans-Serif" font-size="10.00" fill="#000000">ViennaRNA/dp_matrices.h</text>
</a>
</g>
</g>
<!-- Node4&#45;&gt;Node11 -->
<g id="edge38" class="edge">
<title>Node4&#45;&gt;Node11</title>
<path fill="none" stroke="#191970" d="M693.631,-246.4178C691.3133,-224.1659 691.8321,-182.5314 694.5942,-157.9908"/>
<polygon fill="#191970" stroke="#191970" points="698.0648,-158.4447 696.019,-148.0493 691.1356,-157.4515 698.0648,-158.4447"/>
</g>
<!-- Node12 -->
<g id="node13" class="node">
<title>Node12</title>
<g id="a_node13"><a xlink:href="$hard_8h.html" xlink:title="Functions and data structures for handling of secondary structure hard constraints.">
<polygon fill="none" stroke="#000000" points="784.5,-123.5 784.5,-153.5 903.5,-153.5 903.5,-123.5 784.5,-123.5"/>
<text text-anchor="start" x="792.5" y="-141.5" font-family="Helvetica,sans-Serif" font-size="10.00" fill="#000000">ViennaRNA/constraints</text>
<text text-anchor="middle" x="844" y="-130.5" font-family="Helvetica,sans-Serif" font-size="10.00" fill="#000000">/hard.h</text>
</a>
</g>
</g>
<!-- Node4&#45;&gt;Node12 -->
<g id="edge39" class="edge">
<title>Node4&#45;&gt;Node12</title>
<path fill="none" stroke="#191970" d="M709.9174,-246.4962C722.4391,-231.2636 743.1745,-207.4939 764,-190 777.6161,-178.5622 793.9279,-167.6367 808.2603,-158.8153"/>
<polygon fill="#191970" stroke="#191970" points="810.1337,-161.7728 816.8866,-153.609 806.5165,-155.7797 810.1337,-161.7728"/>
</g>
<!-- Node14 -->
<g id="node15" class="node">
<title>Node14</title>
<g id="a_node15"><a xlink:href="$soft_8h.html" xlink:title="Functions and data structures for secondary structure soft constraints.">
<polygon fill="none" stroke="#000000" points="363.5,-123.5 363.5,-153.5 482.5,-153.5 482.5,-123.5 363.5,-123.5"/>
<text text-anchor="start" x="371.5" y="-141.5" font-family="Helvetica,sans-Serif" font-size="10.00" fill="#000000">ViennaRNA/constraints</text>
<text text-anchor="middle" x="423" y="-130.5" font-family="Helvetica,sans-Serif" font-size="10.00" fill="#000000">/soft.h</text>
</a>
</g>
</g>
<!-- Node4&#45;&gt;Node14 -->
<g id="edge40" class="edge">
<title>Node4&#45;&gt;Node14</title>
<path fill="none" stroke="#191970" d="M659.6653,-246.4178C607.1596,-224.1336 513.7212,-182.4104 461.2595,-157.8839"/>
<polygon fill="#191970" stroke="#191970" points="462.4988,-154.5991 451.9597,-153.513 459.5212,-160.9343 462.4988,-154.5991"/>
</g>
<!-- Node15 -->
<g id="node16" class="node">
<title>Node15</title>
<g id="a_node16"><a xlink:href="$grammar_8h.html" xlink:title="Implementations for the RNA folding grammar.">
<polygon fill="none" stroke="#000000" points="1138.5,-129 1138.5,-148 1255.5,-148 1255.5,-129 1138.5,-129"/>
<text text-anchor="middle" x="1197" y="-136" font-family="Helvetica,sans-Serif" font-size="10.00" fill="#000000">ViennaRNA/grammar.h</text>
</a>
</g>
</g>
<!-- Node4&#45;&gt;Node15 -->
<g id="edge41" class="edge">
<title>Node4&#45;&gt;Node15</title>
<path fill="none" stroke="#191970" d="M765.091,-247.2096C811.0533,-237.2404 873.3491,-223.3761 928,-210 1007.5925,-190.5193 1099.7686,-165.475 1152.936,-150.7849"/>
<polygon fill="#191970" stroke="#191970" points="1154.012,-154.1188 1162.7159,-148.0779 1152.1446,-147.3724 1154.012,-154.1188"/>
</g>
<!-- Node16 -->
<g id="node17" class="node">
<title>Node16</title>
<g id="a_node17"><a xlink:href="$structured__domains_8h.html" xlink:title="This module provides interfaces that deal with additional structured domains in the folding grammar.">
<polygon fill="none" stroke="#000000" points="500.5,-123.5 500.5,-153.5 615.5,-153.5 615.5,-123.5 500.5,-123.5"/>
<text text-anchor="start" x="508.5" y="-141.5" font-family="Helvetica,sans-Serif" font-size="10.00" fill="#000000">ViennaRNA/structured</text>
<text text-anchor="middle" x="558" y="-130.5" font-family="Helvetica,sans-Serif" font-size="10.00" fill="#000000">_domains.h</text>
</a>
</g>
</g>
<!-- Node4&#45;&gt;Node16 -->
<g id="edge42" class="edge">
<title>Node4&#45;&gt;Node16</title>
<path fill="none" stroke="#191970" d="M680.8333,-246.4178C656.3776,-224.9317 611.3526,-185.3741 583.1359,-160.5837"/>
<polygon fill="#191970" stroke="#191970" points="585.1297,-157.6765 575.3072,-153.7056 580.5096,-162.9352 585.1297,-157.6765"/>
</g>
<!-- Node17 -->
<g id="node18" class="node">
<title>Node17</title>
<g id="a_node18"><a xlink:href="$unstructured__domains_8h.html" xlink:title="Functions to modify unstructured domains, e.g. to incorporate ligands binding to unpaired stretches.">
<polygon fill="none" stroke="#000000" points="220.5,-123.5 220.5,-153.5 345.5,-153.5 345.5,-123.5 220.5,-123.5"/>
<text text-anchor="start" x="228.5" y="-141.5" font-family="Helvetica,sans-Serif" font-size="10.00" fill="#000000">ViennaRNA/unstructured</text>
<text text-anchor="middle" x="283" y="-130.5" font-family="Helvetica,sans-Serif" font-size="10.00" fill="#000000">_domains.h</text>
</a>
</g>
</g>
<!-- Node4&#45;&gt;Node17 -->
<g id="edge43" class="edge">
<title>Node4&#45;&gt;Node17</title>
<path fill="none" stroke="#191970" d="M642.4986,-246.4178C563.1747,-223.7175 418.4156,-180.8455 338.8842,-156.5283"/>
<polygon fill="#191970" stroke="#191970" points="339.6344,-153.0976 329.0477,-153.513 337.5828,-159.7902 339.6344,-153.0976"/>
</g>
<!-- Node4&#45;&gt;Node18 -->
<g id="edge44" class="edge">
<title>Node4&#45;&gt;Node18</title>
<path fill="none" stroke="#191970" d="M630.8314,-255.2926C510.5307,-242.4643 265.3875,-209.4951 203,-154 184.9729,-137.9645 178.1519,-110.0457 177.7239,-91.1766"/>
<polygon fill="#191970" stroke="#191970" points="181.2275,-91.1827 178.2068,-81.0276 174.2354,-90.8499 181.2275,-91.1827"/>
</g>
<!-- Node6 -->
<g id="node7" class="node">
<title>Node6</title>
<g id="a_node7"><a xlink:title=" ">
<polygon fill="none" stroke="#bfbfbf" points="1419,-.5 1419,-19.5 1467,-19.5 1467,-.5 1419,-.5"/>
<text text-anchor="middle" x="1443" y="-7.5" font-family="Helvetica,sans-Serif" font-size="10.00" fill="#000000">limits.h</text>
</a>
</g>
</g>
<!-- Node5&#45;&gt;Node6 -->
<g id="edge6" class="edge">
<title>Node5&#45;&gt;Node6</title>
<path fill="none" stroke="#191970" d="M1443,-61.8906C1443,-53.3657 1443,-40.6392 1443,-29.9235"/>
<polygon fill="#191970" stroke="#191970" points="1446.5001,-29.7448 1443,-19.7449 1439.5001,-29.7449 1446.5001,-29.7448"/>
</g>
<!-- Node7&#45;&gt;Node8 -->
<g id="edge8" class="edge">
<title>Node7&#45;&gt;Node8</title>
<path fill="none" stroke="#191970" d="M917.5508,-190.4643C978.4546,-181.6377 1060.7394,-167.8269 1091,-154 1111.1393,-144.7978 1110.5082,-133.5043 1130,-123 1163.0402,-105.1944 1203.3181,-92.1368 1234.8048,-83.625"/>
<polygon fill="#191970" stroke="#191970" points="1235.9188,-86.9511 1244.6986,-81.0209 1234.137,-80.1816 1235.9188,-86.9511"/>
</g>
<!-- Node7&#45;&gt;Node9 -->
<g id="edge9" class="edge">
<title>Node7&#45;&gt;Node9</title>
<path fill="none" stroke="#191970" d="M919.2907,-191.7816C1001.3654,-182.9825 1138.1347,-168.3425 1256,-154 1270.8077,-152.1981 1286.6628,-150.1549 1301.959,-148.157"/>
<polygon fill="#191970" stroke="#191970" points="1302.4524,-151.6223 1311.9133,-146.8536 1301.5435,-144.6816 1302.4524,-151.6223"/>
</g>
<!-- Node10 -->
<g id="node11" class="node">
<title>Node10</title>
<g id="a_node11"><a xlink:href="$sequence_8h.html" xlink:title="Functions and data structures related to sequence representations ,.">
<polygon fill="none" stroke="#000000" points="960,-129 960,-148 1082,-148 1082,-129 960,-129"/>
<text text-anchor="middle" x="1021" y="-136" font-family="Helvetica,sans-Serif" font-size="10.00" fill="#000000">ViennaRNA/sequence.h</text>
</a>
</g>
</g>
<!-- Node7&#45;&gt;Node10 -->
<g id="edge14" class="edge">
<title>Node7&#45;&gt;Node10</title>
<path fill="none" stroke="#191970" d="M868.2813,-190.3906C896.1522,-179.8749 944.0861,-162.966 978.9036,-151.3243"/>
<polygon fill="#191970" stroke="#191970" points="980.4095,-154.5124 988.799,-148.0419 978.2056,-147.8683 980.4095,-154.5124"/>
</g>
<!-- Node7&#45;&gt;Node11 -->
<g id="edge16" class="edge">
<title>Node7&#45;&gt;Node11</title>
<path fill="none" stroke="#191970" d="M818.125,-190.3906C791.8047,-180.1457 752.8548,-163.8326 726.8726,-152.2339"/>
<polygon fill="#191970" stroke="#191970" points="728.1568,-148.9735 717.603,-148.0419 725.2724,-155.3516 728.1568,-148.9735"/>
</g>
<!-- Node7&#45;&gt;Node12 -->
<g id="edge19" class="edge">
<title>Node7&#45;&gt;Node12</title>
<path fill="none" stroke="#191970" d="M840.625,-190.3906C838.9934,-183.2234 838.1345,-173.0862 838.1683,-163.671"/>
<polygon fill="#191970" stroke="#191970" points="841.6708,-163.6823 838.5922,-153.5446 834.6769,-163.3894 841.6708,-163.6823"/>
</g>
<!-- Node7&#45;&gt;Node14 -->
<g id="edge23" class="edge">
<title>Node7&#45;&gt;Node14</title>
<path fill="none" stroke="#191970" d="M772.8344,-193.2013C701.5215,-185.7261 590.0929,-172.5111 490.3679,-155.276"/>
<polygon fill="#191970" stroke="#191970" points="490.8998,-151.816 480.4463,-153.5409 489.6938,-158.7114 490.8998,-151.816"/>
</g>
<!-- Node7&#45;&gt;Node15 -->
<g id="edge27" class="edge">
<title>Node7&#45;&gt;Node15</title>
<path fill="none" stroke="#191970" d="M901.4647,-190.4822C955.9615,-181.6943 1041.2111,-167.9312 1115,-154 1121.5009,-152.7726 1128.3127,-151.4182 1135.1243,-150.0363"/>
<polygon fill="#191970" stroke="#191970" points="1135.9712,-153.4356 1145.0675,-148.0035 1134.5691,-146.5775 1135.9712,-153.4356"/>
</g>
<!-- Node7&#45;&gt;Node16 -->
<g id="edge29" class="edge">
<title>Node7&#45;&gt;Node16</title>
<path fill="none" stroke="#191970" d="M798.5138,-190.4323C755.9036,-181.7758 691.3936,-168.4955 625.8281,-154.1559"/>
<polygon fill="#191970" stroke="#191970" points="626.2429,-150.6638 615.7252,-151.9397 624.743,-157.5012 626.2429,-150.6638"/>
</g>
<!-- Node7&#45;&gt;Node17 -->
<g id="edge30" class="edge">
<title>Node7&#45;&gt;Node17</title>
<path fill="none" stroke="#191970" d="M772.5929,-196.2234C676.7671,-190.457 504.0338,-177.7152 352.8719,-155.0263"/>
<polygon fill="#191970" stroke="#191970" points="353.3598,-151.5603 342.9473,-153.5174 352.3076,-158.4808 353.3598,-151.5603"/>
</g>
<!-- Node9&#45;&gt;Node4 -->
<g id="edge11" class="edge">
<title>Node9&#45;&gt;Node4</title>
<path fill="none" stroke="#191970" d="M1378.9786,-148.078C1369.3325,-164.2204 1340.0731,-196.411 1307,-210 1199.0389,-254.3588 898.6586,-230.3033 783,-246 780.4897,-246.3407 777.9379,-246.715 775.3608,-247.1162"/>
<polygon fill="#191970" stroke="#191970" points="774.62,-243.6912 765.3286,-248.7823 775.7669,-250.5966 774.62,-243.6912"/>
</g>
<!-- Node9&#45;&gt;Node5 -->
<g id="edge10" class="edge">
<title>Node9&#45;&gt;Node5</title>
<path fill="none" stroke="#191970" d="M1389.8831,-128.9005C1399.5514,-118.4525 1415.2088,-101.5325 1427.0248,-88.7635"/>
<polygon fill="#191970" stroke="#191970" points="1429.9103,-90.7985 1434.1334,-81.0817 1424.7726,-86.0441 1429.9103,-90.7985"/>
</g>
<!-- Node9&#45;&gt;Node7 -->
<g id="edge12" class="edge">
<title>Node9&#45;&gt;Node7</title>
<path fill="none" stroke="#191970" d="M1320.4944,-148.0279C1305.3466,-150.0667 1289.1268,-152.1593 1274,-154 1154.5094,-168.5403 1015.5899,-183.3863 929.1522,-192.1422"/>
<polygon fill="#191970" stroke="#191970" points="928.7341,-188.6666 919.1362,-193.1532 929.4372,-195.6312 928.7341,-188.6666"/>
</g>
<!-- Node9&#45;&gt;Node8 -->
<g id="edge13" class="edge">
<title>Node9&#45;&gt;Node8</title>
<path fill="none" stroke="#191970" d="M1367.5321,-128.9005C1352.1756,-117.9549 1326.8537,-99.9064 1308.7024,-86.9688"/>
<polygon fill="#191970" stroke="#191970" points="1310.6176,-84.0358 1300.4429,-81.0817 1306.5546,-89.736 1310.6176,-84.0358"/>
</g>
<!-- Node10&#45;&gt;Node7 -->
<g id="edge15" class="edge">
<title>Node10&#45;&gt;Node7</title>
<path fill="none" stroke="#191970" d="M998.8976,-148.0419C971.1127,-158.5302 923.1938,-175.4366 888.3203,-187.1009"/>
<polygon fill="#191970" stroke="#191970" points="886.795,-183.9192 878.4063,-190.3906 888.9997,-190.563 886.795,-183.9192"/>
</g>
<!-- Node11&#45;&gt;Node4 -->
<g id="edge17" class="edge">
<title>Node11&#45;&gt;Node4</title>
<path fill="none" stroke="#191970" d="M703.6704,-148.0493C706.5569,-166.8307 706.4483,-209.1173 703.9701,-236.4249"/>
<polygon fill="#191970" stroke="#191970" points="700.4856,-236.0923 702.8595,-246.4178 707.4428,-236.8656 700.4856,-236.0923"/>
</g>
<!-- Node11&#45;&gt;Node7 -->
<g id="edge18" class="edge">
<title>Node11&#45;&gt;Node7</title>
<path fill="none" stroke="#191970" d="M727.7016,-148.0419C753.9663,-158.2601 792.9168,-174.5701 818.9558,-186.1895"/>
<polygon fill="#191970" stroke="#191970" points="817.696,-189.461 828.25,-190.3906 820.5793,-183.0823 817.696,-189.461"/>
</g>
<!-- Node12&#45;&gt;Node7 -->
<g id="edge20" class="edge">
<title>Node12&#45;&gt;Node7</title>
<path fill="none" stroke="#191970" d="M850.3863,-153.5446C851.6113,-161.6241 852.0864,-171.681 851.703,-180.3693"/>
<polygon fill="#191970" stroke="#191970" points="848.2125,-180.1042 850.75,-190.3906 855.1811,-180.7669 848.2125,-180.1042"/>
</g>
<!-- Node13 -->
<g id="node14" class="node">
<title>Node13</title>
<g id="a_node14"><a xlink:href="$constraints_2basic_8h.html" xlink:title="Functions and data structures for constraining secondary structure predictions and evaluation.">
<polygon fill="none" stroke="#000000" points="784.5,-56.5 784.5,-86.5 903.5,-86.5 903.5,-56.5 784.5,-56.5"/>
<text text-anchor="start" x="792.5" y="-74.5" font-family="Helvetica,sans-Serif" font-size="10.00" fill="#000000">ViennaRNA/constraints</text>
<text text-anchor="middle" x="844" y="-63.5" font-family="Helvetica,sans-Serif" font-size="10.00" fill="#000000">/basic.h</text>
</a>
</g>
</g>
<!-- Node12&#45;&gt;Node13 -->
<g id="edge21" class="edge">
<title>Node12&#45;&gt;Node13</title>
<path fill="none" stroke="#191970" d="M844,-123.2967C844,-115.5013 844,-105.7991 844,-96.9064"/>
<polygon fill="#191970" stroke="#191970" points="847.5001,-96.6431 844,-86.6432 840.5001,-96.6432 847.5001,-96.6431"/>
</g>
<!-- Node13&#45;&gt;Node7 -->
<g id="edge22" class="edge">
<title>Node13&#45;&gt;Node7</title>
<path fill="none" stroke="#191970" d="M875.6421,-86.5161C889.8158,-95.0591 905.0935,-107.2327 913,-123 919.1759,-135.3161 919.4181,-141.8084 913,-154 905.8071,-167.6635 892.5198,-178.0514 879.6633,-185.4672"/>
<polygon fill="#191970" stroke="#191970" points="877.6632,-182.5664 870.4712,-190.3462 880.945,-188.7494 877.6632,-182.5664"/>
</g>
<!-- Node14&#45;&gt;Node4 -->
<g id="edge24" class="edge">
<title>Node14&#45;&gt;Node4</title>
<path fill="none" stroke="#191970" d="M461.1715,-153.513C513.5924,-175.7568 607.0307,-217.4777 659.5773,-242.0398"/>
<polygon fill="#191970" stroke="#191970" points="658.3548,-245.3324 668.8939,-246.4178 661.3319,-238.997 658.3548,-245.3324"/>
</g>
<!-- Node14&#45;&gt;Node7 -->
<g id="edge25" class="edge">
<title>Node14&#45;&gt;Node7</title>
<path fill="none" stroke="#191970" d="M482.701,-150.4582C488.8917,-151.7373 495.0759,-152.952 501,-154 590.1406,-169.7695 692.8045,-182.5191 762.8679,-190.5612"/>
<polygon fill="#191970" stroke="#191970" points="762.6307,-194.0568 772.9631,-191.7134 763.4245,-187.1019 762.6307,-194.0568"/>
</g>
<!-- Node14&#45;&gt;Node13 -->
<g id="edge26" class="edge">
<title>Node14&#45;&gt;Node13</title>
<path fill="none" stroke="#191970" d="M482.7822,-124.7799C485.8952,-124.1565 488.9819,-123.5589 492,-123 589.3871,-104.9641 702.889,-89.3157 774.1017,-80.1408"/>
<polygon fill="#191970" stroke="#191970" points="774.8207,-83.5774 784.2947,-78.8346 773.9309,-76.6342 774.8207,-83.5774"/>
</g>
<!-- Node15&#45;&gt;Node7 -->
<g id="edge28" class="edge">
<title>Node15&#45;&gt;Node7</title>
<path fill="none" stroke="#191970" d="M1162.5965,-148.0035C1153.0403,-150.065 1142.6757,-152.1732 1133,-154 1063.3906,-167.1421 983.582,-180.1346 925.7556,-188.9419"/>
<polygon fill="#191970" stroke="#191970" points="924.9475,-185.5243 915.5843,-190.4822 925.9957,-192.4454 924.9475,-185.5243"/>
</g>
<!-- Node17&#45;&gt;Node4 -->
<g id="edge31" class="edge">
<title>Node17&#45;&gt;Node4</title>
<path fill="none" stroke="#191970" d="M338.2595,-153.513C417.4501,-176.1722 562.2089,-219.0425 641.8729,-243.3975"/>
<polygon fill="#191970" stroke="#191970" points="641.1404,-246.8336 651.7271,-246.4178 643.1918,-240.1409 641.1404,-246.8336"/>
</g>
<!-- Node17&#45;&gt;Node7 -->
<g id="edge32" class="edge">
<title>Node17&#45;&gt;Node7</title>
<path fill="none" stroke="#191970" d="M345.6781,-150.7963C351.8748,-151.9847 358.0604,-153.0857 364,-154 503.2044,-175.4272 666.2547,-188.3112 762.6333,-194.7836"/>
<polygon fill="#191970" stroke="#191970" points="762.6886,-198.295 772.8987,-195.4657 763.1528,-191.3104 762.6886,-198.295"/>
</g>
<!-- Node17&#45;&gt;Node18 -->
<g id="edge33" class="edge">
<title>Node17&#45;&gt;Node18</title>
<path fill="none" stroke="#191970" d="M260.3085,-123.2967C243.9717,-112.351 222.0241,-97.6462 205.6881,-86.701"/>
<polygon fill="#191970" stroke="#191970" points="207.517,-83.7135 197.2612,-81.055 203.6207,-89.5289 207.517,-83.7135"/>
</g>
<!-- Node18&#45;&gt;Node2 -->
<g id="edge34" class="edge">
<title>Node18&#45;&gt;Node2</title>
<path fill="none" stroke="#191970" d="M183,-61.8906C183,-53.3657 183,-40.6392 183,-29.9235"/>
<polygon fill="#191970" stroke="#191970" points="186.5001,-29.7448 183,-19.7449 179.5001,-29.7449 186.5001,-29.7448"/>
</g>
<!-- Node18&#45;&gt;Node4 -->
<g id="edge35" class="edge">
<title>Node18&#45;&gt;Node4</title>
<path fill="none" stroke="#191970" d="M188.7311,-81.0276C193.8545,-98.289 199.3337,-134.7273 221,-154 279.817,-206.319 501.0693,-238.6167 620.519,-252.8917"/>
<polygon fill="#191970" stroke="#191970" points="620.3558,-256.3966 630.6973,-254.094 621.177,-249.445 620.3558,-256.3966"/>
</g>
<!-- Node19&#45;&gt;Node3 -->
<g id="edge46" class="edge">
<title>Node19&#45;&gt;Node3</title>
<path fill="none" stroke="#191970" d="M691.5129,-313.4881C712.5449,-304.1881 745.4751,-289.6246 774,-277 775.3673,-276.3948 776.7647,-275.7763 778.1762,-275.1515"/>
<polygon fill="#191970" stroke="#191970" points="779.8026,-278.2592 787.5294,-271.0103 776.9686,-271.8585 779.8026,-278.2592"/>
</g>
<!-- Node19&#45;&gt;Node4 -->
<g id="edge47" class="edge">
<title>Node19&#45;&gt;Node4</title>
<path fill="none" stroke="#191970" d="M674.375,-313.3906C677.7434,-305.9922 682.5526,-295.4291 686.9538,-285.7623"/>
<polygon fill="#191970" stroke="#191970" points="690.1922,-287.096 691.1504,-276.5446 683.8214,-284.1954 690.1922,-287.096"/>
</g>
<!-- Node20&#45;&gt;Node2 -->
<g id="edge50" class="edge">
<title>Node20&#45;&gt;Node2</title>
<path fill="none" stroke="#191970" d="M54.8329,-190.4654C57.4531,-165.6243 67.5276,-97.9356 102,-56 114.6194,-40.6485 133.7872,-29.4359 150.3091,-21.9259"/>
<polygon fill="#191970" stroke="#191970" points="151.8418,-25.0772 159.6617,-17.9287 149.0908,-18.6404 151.8418,-25.0772"/>
</g>
<!-- Node21&#45;&gt;Node7 -->
<g id="edge52" class="edge">
<title>Node21&#45;&gt;Node7</title>
<path fill="none" stroke="#191970" d="M900.8438,-251.8906C890.9801,-242.5581 875.7945,-228.1902 863.9013,-216.9374"/>
<polygon fill="#191970" stroke="#191970" points="865.9689,-214.0753 856.2994,-209.7449 861.1579,-219.1601 865.9689,-214.0753"/>
</g>
<!-- Node21&#45;&gt;Node8 -->
<g id="edge53" class="edge">
<title>Node21&#45;&gt;Node8</title>
<path fill="none" stroke="#191970" d="M969.2164,-260.0866C1099.3383,-255.4649 1406.4661,-235.9179 1459,-154 1466.4377,-142.4022 1467.2273,-134.0516 1459,-123 1451.5277,-112.9626 1385.7556,-95.2544 1337.7618,-83.4479"/>
<polygon fill="#191970" stroke="#191970" points="1338.3622,-79.9918 1327.8176,-81.0229 1336.7037,-86.7925 1338.3622,-79.9918"/>
</g>
</g>
</svg>
